# Blender v2.93.3 OBJ File: 'planosbrasa.blend'
# www.blender.org
mtllib brasa_low.mtl
o Plane
v -2.351491 2.686338 2.405210
v 2.351491 2.686338 2.405210
v -2.351491 2.686338 -2.405210
v 2.351491 2.686338 -2.405210
v -0.701469 2.686338 3.213096
v 0.701469 2.686338 3.213096
v 0.701469 2.686338 -3.213096
v -0.701469 2.686338 -3.213096
v -3.237077 2.686338 -0.701470
v -3.237077 2.686338 0.701470
v 3.237077 2.686338 0.701470
v 3.237077 2.686338 -0.701470
v -1.067087 3.147986 1.243734
v -1.067087 3.254780 -1.243734
v 1.067087 3.353811 1.243734
v 1.067087 2.859190 -1.243734
vt 0.666667 0.666667
vt 1.000000 0.666667
vt 1.000000 1.000000
vt 0.666667 1.000000
vt 0.000000 0.666667
vt 0.333333 0.666667
vt 0.333333 1.000000
vt 0.000000 1.000000
vt 0.333333 0.000000
vt 0.666667 0.000000
vt 0.666667 0.333333
vt 0.333333 0.333333
vt 0.000000 0.000000
vt 0.000000 0.333333
vt 1.000000 0.000000
vt 1.000000 0.333333
vn 0.0982 0.9891 -0.1094
vn 0.1511 0.9827 -0.1071
vn 0.0700 0.9950 -0.0707
vn 0.0957 0.9848 -0.1447
vn -0.2288 0.9719 -0.0546
vn -0.0839 0.9886 -0.1251
vn -0.0075 0.9798 -0.1999
vn -0.2198 0.9499 -0.2219
vn -0.1004 0.9647 0.2434
vn 0.0552 0.9609 0.2713
vn 0.1194 0.9881 0.0969
vn -0.1087 0.9883 0.1067
vn -0.1815 0.9662 0.1833
vn -0.2155 0.9734 0.0775
vn 0.2534 0.9329 0.2558
vn 0.2135 0.9769 0.0009
usemtl None
s 1
f 16/1/1 12/2/2 4/3/3 7/4/4
f 9/5/5 14/6/6 8/7/7 3/8/8
f 14/6/6 16/1/1 7/4/4 8/7/7
f 5/9/9 6/10/10 15/11/11 13/12/12
f 13/12/12 15/11/11 16/1/1 14/6/6
f 1/13/13 5/9/9 13/12/12 10/14/14
f 10/14/14 13/12/12 14/6/6 9/5/5
f 6/10/10 2/15/15 11/16/16 15/11/11
f 15/11/11 11/16/16 12/2/2 16/1/1
