# Blender v2.93.3 OBJ File: 'planosbrasa.blend'
# www.blender.org
mtllib TIERRRA_LOW.mtl
o Plane.001
v -2.810961 0.254151 2.360361
v 2.810961 0.254151 2.360361
v -2.810961 0.254151 -2.360361
v 2.810961 0.254151 -2.360361
v -0.838533 0.254151 3.153182
v 0.838533 0.254151 3.153182
v 0.838533 0.254151 -3.153182
v -0.838533 0.254151 -3.153182
v -3.869586 0.254151 -0.688389
v -3.869586 0.254151 0.688389
v 3.869586 0.254151 0.688389
v 3.869586 0.254151 -0.688389
v -1.275590 0.423693 1.220543
v -1.275590 0.528495 -1.220543
v 1.275590 0.625680 1.220543
v 1.275590 0.140282 -1.220543
vt 0.666667 0.666667
vt 1.000000 0.666667
vt 1.000000 1.000000
vt 0.666667 1.000000
vt 0.000000 0.666667
vt 0.333333 0.666667
vt 0.333333 1.000000
vt 0.000000 1.000000
vt 0.333333 0.000000
vt 0.666667 0.000000
vt 0.666667 0.333333
vt 0.333333 0.333333
vt 0.000000 0.000000
vt 0.000000 0.333333
vt 1.000000 0.000000
vt 1.000000 0.333333
vn 0.0271 0.9988 -0.0406
vn 0.0218 0.9971 -0.0721
vn -0.0387 0.9981 0.0476
vn 0.0459 0.9989 -0.0102
vn -0.0876 0.9960 -0.0169
vn -0.0193 0.9981 -0.0585
vn 0.0268 0.9974 -0.0670
vn -0.0924 0.9892 -0.1136
vn -0.0508 0.9921 0.1147
vn 0.0133 0.9895 0.1439
vn 0.0492 0.9983 0.0315
vn -0.0381 0.9985 0.0390
vn -0.0575 0.9958 0.0707
vn -0.0766 0.9962 0.0409
vn 0.1240 0.9805 0.1525
vn 0.0734 0.9965 -0.0387
usemtl None
s 1
f 16/1/1 12/2/2 4/3/3 7/4/4
f 9/5/5 14/6/6 8/7/7 3/8/8
f 14/6/6 16/1/1 7/4/4 8/7/7
f 5/9/9 6/10/10 15/11/11 13/12/12
f 13/12/12 15/11/11 16/1/1 14/6/6
f 1/13/13 5/9/9 13/12/12 10/14/14
f 10/14/14 13/12/12 14/6/6 9/5/5
f 6/10/10 2/15/15 11/16/16 15/11/11
f 15/11/11 11/16/16 12/2/2 16/1/1
