# Blender 3.4.1
# www.blender.org
mtllib 12x3_bordillo.mtl
o 12x3_bordillo
v 0.000000 0.000000 -0.000000
v 0.000000 0.000000 -12.000000
v 0.500000 3.000000 -12.000000
v 0.500000 3.000000 -0.000000
v 0.410000 2.700000 -12.000000
v 0.000000 1.977605 -0.000000
v 0.410000 2.700000 -0.000000
v 0.000000 2.999950 -0.000000
v 0.120501 2.026532 -0.000000
v 0.246865 2.047767 -0.000000
v 0.254942 2.166461 -0.000000
v 0.133949 2.214324 -0.000000
v 0.062579 2.322283 -0.000000
v 0.117605 2.435543 -0.000000
v 0.299380 2.500000 -0.000000
v 0.000000 1.977605 -12.000000
v 0.000000 2.999950 -12.000000
v 0.299380 2.500000 -12.000000
v 0.117605 2.435543 -12.000000
v 0.062579 2.322283 -12.000000
v 0.133949 2.214324 -12.000000
v 0.254942 2.166461 -12.000000
v 0.246865 2.047767 -12.000000
v 0.120501 2.026532 -12.000000
vn 0.9578 -0.2873 -0.0000
vn -0.0001 1.0000 -0.0000
vn 0.3762 -0.9265 -0.0000
vn 0.1657 -0.9862 -0.0000
vn 0.9977 -0.0679 -0.0000
vn 0.3679 0.9299 -0.0000
vn 0.8342 0.5515 -0.0000
vn 0.8995 -0.4370 -0.0000
vn 0.3342 -0.9425 -0.0000
vn 0.8751 -0.4840 -0.0000
vn 1.0000 -0.0000 -0.0000
vt 0.164866 0.000097
vt 0.164866 0.999903
vt 0.206719 0.999903
vt 0.206719 0.000097
vt 0.232814 0.999903
vt 0.278612 0.999902
vt 0.000097 0.000097
vt 0.232814 0.000097
vt 0.165060 0.000097
vt 0.289447 0.999902
vt 0.300123 0.999902
vt 0.310035 0.999902
vt 0.320876 0.999902
vt 0.331659 0.999902
vt 0.278417 0.000097
vt 0.267926 0.000097
vt 0.251857 0.000097
vt 0.278612 0.000097
vt 0.000097 0.999903
vt 0.165060 0.999903
vt 0.251857 0.999903
vt 0.267926 0.999903
vt 0.331659 0.000097
vt 0.278417 0.999903
vt 0.320876 0.000097
vt 0.310035 0.000097
vt 0.300123 0.000097
vt 0.289447 0.000097
s 0
f 4/4/1 7/8/1 5/5/1 3/3/1
f 17/20/2 8/9/2 4/4/2 3/3/2
f 6/6/3 16/18/3 24/28/3 9/10/3
f 9/10/4 24/28/4 23/27/4 10/11/4
f 10/11/5 23/27/5 22/26/5 11/12/5
f 11/12/6 22/26/6 21/25/6 12/13/6
f 12/13/7 21/25/7 20/23/7 13/14/7
f 13/15/8 20/24/8 19/22/8 14/16/8
f 14/16/9 19/22/9 18/21/9 15/17/9
f 15/17/10 18/21/10 5/5/10 7/8/10
f 6/7/11 1/1/11 2/2/11 16/19/11
