# Blender 3.4.1
# www.blender.org
mtllib 1x1_floor_tiles_plane.mtl
o 1x1_floor_tiles_plane
v 0.000000 0.000000 0.000000
v 1.000000 0.000000 0.000000
v 0.000000 0.000000 -1.000000
v 1.000000 0.000000 -1.000000
v 0.047366 0.033155 -0.941609
v 0.045762 0.057095 -0.086542
v 0.965831 0.044533 -0.061474
v 0.951217 0.035720 -0.916479
vn 0.0060 0.9998 -0.0192
vn -0.6974 0.7166 -0.0099
vn -0.0020 0.8245 0.5659
vn 0.6941 0.7198 -0.0089
vn 0.0046 0.8996 -0.4366
vt 0.957665 0.000099
vt 0.975559 0.028009
vt 0.975559 0.978333
vt 0.961197 0.999901
vt 0.007588 0.021742
vt 0.000099 0.030902
vt 0.010913 0.991210
vt 0.004683 0.981215
vt 0.064127 0.075606
vt 0.877028 0.071490
vt 0.903421 0.945861
vt 0.090806 0.934480
s 0
f 6/10/1 7/11/1 8/12/1 5/9/1
f 6/10/2 5/9/2 3/5/2 1/1/2
f 7/11/3 6/10/3 1/2/3 2/3/3
f 8/12/4 7/11/4 2/4/4 4/7/4
f 5/9/5 8/12/5 4/8/5 3/6/5
