# Blender 3.4.1
# www.blender.org
mtllib 1X1_parapet.mtl
o 6x1_parapet.001
v 0.805000 1.600000 -0.900000
v 0.805000 -0.000000 -0.900000
v 0.805000 2.099999 -0.950000
v 0.805000 0.306667 -0.900000
v 0.805000 0.613333 -0.900000
v 0.805000 0.986666 -0.900000
v 0.755000 -0.000000 -1.000000
v 0.755000 1.600000 -1.000000
v 0.755000 0.986666 -1.000000
v 0.755000 2.099999 -1.000000
v 0.755000 0.306667 -1.000000
v 0.755000 0.613333 -1.000000
v 0.754326 1.788396 -0.888012
v 0.754018 1.911603 -0.902805
v 0.709326 1.788396 -0.963012
v 0.709018 1.911603 -0.962805
v 0.805000 1.766666 -0.916667
v 0.755000 1.766666 -1.000000
v 0.805000 1.933333 -0.933334
v 0.755000 1.933333 -1.000000
v 0.005000 1.600000 -0.900000
v 0.005001 -0.000000 -0.900000
v 0.005000 2.099999 -0.950000
v 0.005000 0.306666 -0.900000
v 0.005000 0.613333 -0.900000
v 0.005000 0.986666 -0.900000
v 0.055000 -0.000000 -1.000000
v 0.055000 1.600000 -1.000000
v 0.055000 0.986666 -1.000000
v 0.055000 2.099999 -1.000000
v 0.055000 0.306666 -1.000000
v 0.055000 0.613333 -1.000000
v 0.055674 1.788396 -0.888012
v 0.055982 1.911603 -0.902805
v 0.100674 1.788396 -0.963012
v 0.100982 1.911603 -0.962805
v 0.005000 1.766666 -0.916667
v 0.055000 1.766666 -1.000000
v 0.005000 1.933333 -0.933334
v 0.055000 1.933333 -1.000000
v 0.805000 1.600000 -0.100000
v 0.805000 -0.000000 -0.100000
v 0.805000 2.099999 -0.050000
v 0.805000 0.306667 -0.100000
v 0.805000 0.613333 -0.100000
v 0.805000 0.986666 -0.100000
v 0.755000 -0.000000 0.000000
v 0.755000 1.600000 0.000000
v 0.755000 0.986666 0.000000
v 0.755000 2.099999 0.000000
v 0.755000 0.306667 0.000000
v 0.755000 0.613333 0.000000
v 0.754326 1.788396 -0.111988
v 0.754018 1.911603 -0.097195
v 0.709326 1.788396 -0.036988
v 0.709018 1.911603 -0.037195
v 0.805000 1.766666 -0.083333
v 0.755000 1.766666 0.000000
v 0.805000 1.933333 -0.066667
v 0.755000 1.933333 0.000000
v 0.005000 1.600000 -0.100000
v 0.005000 -0.000000 -0.100000
v 0.005000 2.099999 -0.050000
v 0.005000 0.306666 -0.100000
v 0.005000 0.613333 -0.100000
v 0.005000 0.986666 -0.100000
v 0.055000 -0.000000 0.000000
v 0.055000 1.600000 0.000000
v 0.055000 0.986666 0.000000
v 0.055000 2.099999 0.000000
v 0.055000 0.306666 0.000000
v 0.055000 0.613333 0.000000
v 0.055674 1.788396 -0.111988
v 0.055982 1.911603 -0.097195
v 0.100674 1.788396 -0.036988
v 0.100982 1.911603 -0.037195
v 0.005000 1.766666 -0.083333
v 0.055000 1.766666 0.000000
v 0.005000 1.933333 -0.066667
v 0.055000 1.933333 0.000000
vn 1.0000 -0.0000 -0.0000
vn 0.8944 -0.0000 -0.4472
vn -0.0000 -0.0000 -1.0000
vn 0.7589 -0.0325 -0.6504
vn -0.0000 0.0017 1.0000
vn 0.3941 0.9191 -0.0000
vn 0.8776 -0.0239 -0.4787
vn 0.8317 -0.0307 -0.5544
vn -0.0000 -0.8635 -0.5044
vn 0.3000 0.9368 -0.1800
vn 0.2761 -0.9386 -0.2070
vn -0.0000 0.8622 -0.5065
vn 0.3921 -0.9199 -0.0000
vn -0.0000 1.0000 -0.0000
vn -0.0000 -1.0000 -0.0000
vn -1.0000 -0.0000 -0.0000
vn -0.8944 -0.0000 -0.4472
vn -0.7589 -0.0325 -0.6504
vn -0.3941 0.9191 -0.0000
vn -0.8776 -0.0239 -0.4787
vn -0.8317 -0.0307 -0.5544
vn -0.3000 0.9368 -0.1800
vn -0.2761 -0.9386 -0.2070
vn -0.3921 -0.9199 -0.0000
vn 1.0000 0.0025 -0.0000
vn -0.0000 0.0017 -1.0000
vn 0.8944 -0.0000 0.4472
vn -0.0000 -0.0000 1.0000
vn 0.7589 -0.0325 0.6504
vn 0.8776 -0.0239 0.4787
vn 0.8317 -0.0307 0.5544
vn -0.0000 -0.8635 0.5044
vn 0.3000 0.9368 0.1800
vn 0.2761 -0.9386 0.2070
vn -0.0000 0.8622 0.5065
vn -0.8944 -0.0000 0.4472
vn -0.7589 -0.0325 0.6504
vn -0.8776 -0.0239 0.4787
vn -0.8317 -0.0307 0.5544
vn -0.3000 0.9368 0.1800
vn -0.2761 -0.9386 0.2070
vn -1.0000 0.0025 -0.0000
vt 0.505756 0.062670
vt 0.957402 0.437959
vt 0.505711 0.500600
vt 0.471858 0.527972
vt 0.957402 0.000000
vt 0.770812 0.518022
vt 0.724735 0.758711
vt 0.505712 0.416665
vt 0.957402 0.083942
vt 0.505713 0.332730
vt 0.957402 0.167884
vt 0.505718 0.230548
vt 0.957402 0.270075
vt 0.475111 0.500600
vt 0.458172 0.500600
vt 0.475150 0.062650
vt 0.475116 0.230544
vt 0.770343 0.498672
vt 0.091697 0.500619
vt 0.711049 0.772397
vt 0.475111 0.416665
vt 0.475112 0.332730
vt 0.954120 0.498672
vt 0.501304 0.000008
vt 0.999229 0.664380
vt 0.148929 0.527788
vt 0.965575 0.668981
vt 1.000000 0.688309
vt 0.477369 0.000021
vt 0.462626 0.005278
vt 0.164098 0.667223
vt 0.966296 0.689498
vt 0.209615 0.679640
vt 0.137318 0.510857
vt 0.197823 0.667138
vt 0.961964 0.483580
vt 0.501724 0.017007
vt 0.475129 0.017022
vt 0.725191 0.522584
vt 0.164098 0.519431
vt 0.724735 0.499778
vt 0.221406 0.692226
vt 0.151198 0.500620
vt 0.137318 0.500619
vt 0.252878 0.062654
vt 0.729297 0.060713
vt 0.252878 0.527972
vt 0.252921 0.500600
vt 0.729297 0.498672
vt 0.000000 0.519969
vt 0.505756 0.758711
vt 0.252920 0.416665
vt 0.729297 0.414730
vt 0.252919 0.332729
vt 0.729297 0.330788
vt 0.252914 0.230544
vt 0.729297 0.228597
vt 0.266564 0.500600
vt 0.283521 0.500600
vt 0.283483 0.062633
vt 0.283518 0.230541
vt 0.091697 0.692227
vt 0.519442 0.772397
vt 0.000469 0.500619
vt 0.283521 0.416665
vt 0.283521 0.332729
vt 0.726016 0.000000
vt 0.257335 0.000000
vt 0.999229 0.025118
vt 0.487028 0.527768
vt 0.965575 0.020517
vt 0.296008 0.005271
vt 1.000000 0.001189
vt 0.281267 0.000015
vt 0.164098 0.500619
vt 0.209615 0.513206
vt 0.966296 0.000000
vt 0.498638 0.510837
vt 0.197823 0.500704
vt 0.733859 0.015092
vt 0.256913 0.016997
vt 0.283505 0.017014
vt 0.045621 0.524531
vt 0.471858 0.519412
vt 0.221406 0.500619
vt 0.137318 0.692227
vt 0.046077 0.501725
vt 0.484759 0.500600
vt 0.000000 0.062698
vt 0.738422 0.437959
vt 0.471858 0.746952
vt 0.000051 0.500619
vt 0.738422 0.000000
vt 0.770812 0.764374
vt 0.724735 0.512358
vt 0.000050 0.416685
vt 0.738422 0.083942
vt 0.000049 0.332751
vt 0.738422 0.167884
vt 0.000043 0.230569
vt 0.738422 0.270075
vt 0.458172 0.774324
vt 0.030651 0.500619
vt 0.030602 0.062674
vt 0.030644 0.230564
vt 0.770343 0.783723
vt 0.091697 0.500620
vt 0.711049 0.498672
vt 0.030651 0.416685
vt 0.030650 0.332749
vt 0.741703 0.498672
vt 0.995750 0.451991
vt 0.004446 0.000048
vt 0.961963 0.448495
vt 0.148929 0.748303
vt 0.995737 0.428050
vt 0.028377 0.000059
vt 0.043118 0.005310
vt 0.962012 0.427966
vt 0.209615 0.679640
vt 0.137318 0.765234
vt 0.733860 0.483580
vt 0.004028 0.017043
vt 0.030617 0.017056
vt 0.725191 0.759812
vt 0.164098 0.756659
vt 0.724735 0.782618
vt 0.197823 0.692227
vt 0.151198 0.775471
vt 0.046077 0.500620
vt 0.252878 0.062666
vt 0.510318 0.060713
vt 0.252878 0.746952
vt 0.252841 0.500620
vt 0.510318 0.498672
vt 0.505756 0.512358
vt 0.000000 0.766321
vt 0.252841 0.416685
vt 0.510318 0.414730
vt 0.252842 0.332749
vt 0.510318 0.330788
vt 0.252847 0.230563
vt 0.510318 0.228597
vt 0.266564 0.774324
vt 0.222240 0.500619
vt 0.222270 0.062649
vt 0.222242 0.230560
vt 0.091697 0.692227
vt 0.519442 0.498672
vt 0.000469 0.785671
vt 0.222240 0.416684
vt 0.222240 0.332748
vt 0.513599 0.000000
vt 0.248416 0.000000
vt 0.995750 0.237506
vt 0.487028 0.748283
vt 0.961963 0.241002
vt 0.209737 0.005278
vt 0.995737 0.261447
vt 0.224480 0.000017
vt 0.209615 0.513206
vt 0.962012 0.261532
vt 0.498638 0.765214
vt 0.505756 0.015092
vt 0.248839 0.017000
vt 0.222243 0.017019
vt 0.045621 0.761759
vt 0.471858 0.756640
vt 0.197823 0.500619
vt 0.046077 0.692227
vt 0.046077 0.784565
vt 0.484759 0.775452
s 0
f 1/2/1 17/36/1 57/122/1 41/90/1
f 2/3/2 7/14/2 11/21/2 4/8/2
f 19/39/1 3/6/1 43/94/1 59/125/1
f 5/10/2 12/22/2 9/17/2 6/12/2
f 29/61/3 28/60/3 8/16/3 9/17/3
f 6/12/2 9/17/2 8/16/2 1/1/2
f 19/39/4 20/41/4 10/18/4 3/6/4
f 4/8/2 11/21/2 12/22/2 5/10/2
f 55/116/5 56/119/5 76/162/5 75/159/5
f 17/36/6 13/23/6 53/111/6 57/122/6
f 1/1/7 8/16/7 18/38/7 17/37/7
f 13/25/8 15/28/8 16/32/8 14/27/8
f 27/59/3 31/65/3 11/21/3 7/14/3
f 20/42/9 16/33/9 36/76/9 40/85/9
f 13/24/10 17/37/10 18/38/10 15/29/10
f 16/34/11 20/43/11 19/40/11 14/26/11
f 35/72/12 15/30/12 18/38/12 38/82/12
f 54/115/13 14/26/13 19/40/13 59/126/13
f 31/65/3 32/66/3 12/22/3 11/21/3
f 32/66/3 29/61/3 9/17/3 12/22/3
f 10/19/3 20/44/3 40/86/3 30/62/3
f 18/38/3 8/16/3 28/60/3 38/82/3
f 23/51/14 3/7/14 10/20/14 30/63/14
f 7/15/15 2/4/15 22/47/15 27/58/15
f 42/91/15 62/133/15 22/47/15 2/4/15
f 37/80/16 21/46/16 61/132/16 77/164/16
f 22/48/17 24/52/17 31/65/17 27/59/17
f 23/50/16 39/83/16 79/167/16 63/137/16
f 25/54/17 26/56/17 29/61/17 32/66/17
f 26/56/17 21/45/17 28/60/17 29/61/17
f 39/83/18 23/50/18 30/64/18 40/87/18
f 24/52/17 25/54/17 32/66/17 31/65/17
f 33/67/19 37/80/19 77/164/19 73/153/19
f 21/45/20 37/81/20 38/82/20 28/60/20
f 33/69/21 34/71/21 36/77/21 35/73/21
f 33/68/22 35/74/22 38/82/22 37/81/22
f 36/78/23 34/70/23 39/84/23 40/88/23
f 74/156/24 79/168/24 39/84/24 34/70/24
f 13/25/25 14/27/25 54/114/25 53/112/25
f 42/91/15 47/102/15 67/144/15 62/133/15
f 16/35/26 15/31/26 35/75/26 36/79/26
f 42/92/27 44/96/27 51/109/27 47/103/27
f 45/98/27 46/100/27 49/105/27 52/110/27
f 69/147/28 49/105/28 48/104/28 68/146/28
f 46/100/27 41/89/27 48/104/27 49/105/27
f 59/125/29 43/94/29 50/106/29 60/127/29
f 44/96/27 45/98/27 52/110/27 51/109/27
f 41/89/30 57/123/30 58/124/30 48/104/30
f 53/112/31 54/114/31 56/119/31 55/116/31
f 67/145/28 47/103/28 51/109/28 71/151/28
f 56/120/32 60/128/32 80/169/32 76/161/32
f 53/113/33 55/117/33 58/124/33 57/123/33
f 56/121/34 54/115/34 59/126/34 60/129/34
f 75/158/35 78/166/35 58/124/35 55/118/35
f 71/151/28 51/109/28 52/110/28 72/152/28
f 72/152/28 52/110/28 49/105/28 69/147/28
f 60/130/28 50/107/28 70/148/28 80/170/28
f 48/104/28 58/124/28 78/166/28 68/146/28
f 63/136/14 70/149/14 50/108/14 43/95/14
f 3/7/14 23/51/14 63/136/14 43/95/14
f 62/134/36 67/145/36 71/151/36 64/138/36
f 65/140/36 72/152/36 69/147/36 66/142/36
f 66/142/36 69/147/36 68/146/36 61/131/36
f 79/167/37 80/171/37 70/150/37 63/137/37
f 64/138/36 71/151/36 72/152/36 65/140/36
f 61/131/38 68/146/38 78/166/38 77/165/38
f 73/155/39 75/159/39 76/162/39 74/157/39
f 73/154/40 77/165/40 78/166/40 75/160/40
f 76/163/41 80/172/41 79/168/41 74/156/41
f 34/71/42 33/69/42 73/155/42 74/157/42
f 1/2/1 41/90/1 46/101/1 6/13/1
f 6/13/1 46/101/1 45/99/1 5/11/1
f 5/11/1 45/99/1 44/97/1 4/9/1
f 4/9/1 44/97/1 42/93/1 2/5/1
f 21/46/16 26/57/16 66/143/16 61/132/16
f 26/57/16 25/55/16 65/141/16 66/143/16
f 25/55/16 24/53/16 64/139/16 65/141/16
f 24/53/16 22/49/16 62/135/16 64/139/16
