# Blender 3.4.1
# www.blender.org
mtllib 1x3_bordillo.mtl
o 1x3_bordillo
v 0.000000 0.000000 -0.000000
v 0.500000 3.000000 -0.000000
v 0.000000 1.977605 -0.000000
v 0.410000 2.700000 -0.000000
v 0.000000 2.999950 -0.000000
v 0.120501 2.026532 -0.000000
v 0.246865 2.047767 -0.000000
v 0.254942 2.166461 -0.000000
v 0.133949 2.214324 -0.000000
v 0.062579 2.322283 -0.000000
v 0.117605 2.435543 -0.000000
v 0.299380 2.500000 -0.000000
v 0.000000 0.000000 -1.000000
v 0.500000 3.000000 -1.000000
v 0.000000 1.977605 -1.000000
v 0.120501 2.026532 -1.000000
v 0.246865 2.047767 -1.000000
v 0.254942 2.166461 -1.000000
v 0.133949 2.214324 -1.000000
v 0.062579 2.322283 -1.000000
v 0.117605 2.435543 -1.000000
v 0.299380 2.500000 -1.000000
v 0.000000 2.999950 -1.000000
v 0.410000 2.700000 -1.000000
vn -0.0001 1.0000 -0.0000
vn 1.0000 -0.0000 -0.0000
vn 0.8751 -0.4840 -0.0000
vn 0.3342 -0.9425 -0.0000
vn 0.8995 -0.4370 -0.0000
vn 0.8342 0.5515 -0.0000
vn 0.3679 0.9299 -0.0000
vn 0.9977 -0.0679 -0.0000
vn 0.1657 -0.9862 -0.0000
vn 0.3762 -0.9265 -0.0000
vn 0.9578 -0.2873 -0.0000
vt 0.000143 0.000143
vt 0.423817 0.364489
vt 0.000143 0.837438
vt 0.693385 0.576469
vt 0.423817 0.231879
vt 0.423817 0.576183
vt 0.638321 0.576469
vt 0.584070 0.576469
vt 0.533700 0.576469
vt 0.478611 0.576469
vt 0.423817 0.000143
vt 0.423817 0.576469
vt 0.423817 0.053455
vt 0.423817 0.135112
vt 0.423532 0.000143
vt 0.847206 0.364489
vt 0.423532 0.837439
vt 0.693385 0.999857
vt 0.638321 0.999857
vt 0.584070 0.999857
vt 0.533700 0.999857
vt 0.478611 0.999857
vt 0.847206 0.000143
vt 0.423817 0.999857
vt 0.847206 0.053455
vt 0.847206 0.135112
vt 0.847206 0.576183
vt 0.847206 0.231879
s 0
f 23/27/1 5/6/1 2/2/1 14/16/1
f 3/3/2 1/1/2 13/15/2 15/17/2
f 12/14/3 22/26/3 24/28/3 4/5/3
f 11/13/4 21/25/4 22/26/4 12/14/4
f 10/11/5 20/23/5 21/25/5 11/13/5
f 9/10/6 19/22/6 20/24/6 10/12/6
f 8/9/7 18/21/7 19/22/7 9/10/7
f 7/8/8 17/20/8 18/21/8 8/9/8
f 6/7/9 16/19/9 17/20/9 7/8/9
f 3/4/10 15/18/10 16/19/10 6/7/10
f 2/2/11 4/5/11 24/28/11 14/16/11
