# Blender 3.4.1
# www.blender.org
mtllib 1x6_wall_bricks.mtl
o 1x6_bricks
v 0.000000 1.000000 -0.000000
v 0.000000 0.000000 -0.000000
v 0.000000 0.500000 -0.000000
v 1.000000 0.939393 0.060000
v 1.000000 0.560607 0.060000
v 0.500000 0.060607 0.060000
v 0.410729 0.925061 0.060000
v 0.429838 0.551052 0.060000
v 0.589271 0.939393 0.060000
v 0.000000 0.939393 0.060000
v 0.574939 0.565384 0.060000
v 0.000000 0.560607 0.060000
v 0.500000 0.439393 0.060000
v 0.915506 0.065384 0.060000
v 0.929838 0.434616 0.060000
v 0.064332 0.439393 0.060000
v 0.064332 0.065384 0.060000
v 0.500000 0.500000 -0.000000
v 1.000000 0.500000 -0.000000
v 0.500000 0.000000 -0.000000
v 1.000000 0.000000 -0.000000
v 0.000000 2.500000 -0.000000
v 0.000000 1.500000 -0.000000
v 1.000000 1.939393 0.060000
v 1.000000 1.560607 0.060000
v 0.500000 1.060607 0.060000
v 0.410729 1.925061 0.060000
v 0.429838 1.551052 0.060000
v 0.589271 1.939393 0.060000
v 0.000000 1.939393 0.060000
v 0.574939 1.565384 0.060000
v 0.000000 1.560607 0.060000
v 0.500000 1.439393 0.060000
v 0.915506 1.065384 0.060000
v 0.929838 1.434616 0.060000
v 0.064332 1.439393 0.060000
v 0.064332 1.065384 0.060000
v 0.500000 1.500000 -0.000000
v 1.000000 1.500000 -0.000000
v 0.500000 1.000000 -0.000000
v 0.000000 2.000000 -0.000000
v 0.000000 3.000000 -0.000000
v 1.000000 1.000000 -0.000000
v 1.000000 2.939393 0.060000
v 1.000000 2.560607 0.060000
v 0.500000 2.060607 0.060000
v 0.410729 2.925061 0.060000
v 0.429838 2.551052 0.060000
v 0.589271 2.939393 0.060000
v 0.000000 2.939393 0.060000
v 0.574939 2.565384 0.060000
v 0.000000 2.560607 0.060000
v 0.500000 2.439393 0.060000
v 0.915506 2.065384 0.060000
v 0.929838 2.434616 0.060000
v 0.064332 2.439393 0.060000
v 0.064332 2.065384 0.060000
v 0.500000 2.500000 -0.000000
v 1.000000 2.500000 -0.000000
v 0.500000 2.000000 -0.000000
v 1.000000 2.000000 -0.000000
v 0.000000 3.500000 -0.000000
v 1.000000 3.939393 0.060000
v 1.000000 3.560607 0.060000
v 0.500000 3.060607 0.060000
v 0.410729 3.925061 0.060000
v 0.429838 3.551052 0.060000
v 0.589271 3.939393 0.060000
v 0.000000 3.939393 0.060000
v 0.574939 3.565384 0.060000
v 0.000000 3.560607 0.060000
v 0.500000 3.439393 0.060000
v 0.915506 3.065384 0.060000
v 0.929838 3.434616 0.060000
v 0.064332 3.439393 0.060000
v 0.064332 3.065384 0.060000
v 0.500000 3.500000 -0.000000
v 1.000000 3.500000 -0.000000
v 0.500000 3.000000 -0.000000
v 1.000000 3.000000 -0.000000
v 0.000000 4.500000 -0.000000
v 0.000000 4.000000 -0.000000
v 0.000000 5.000000 -0.000000
v 1.000000 4.939393 0.060000
v 1.000000 4.560607 0.060000
v 0.500000 4.060607 0.060000
v 0.410729 4.925061 0.060000
v 0.429838 4.551052 0.060000
v 0.589271 4.939393 0.060000
v 0.000000 4.939393 0.060000
v 0.574939 4.565384 0.060000
v 0.000000 4.560607 0.060000
v 0.500000 4.439393 0.060000
v 0.915506 4.065384 0.060000
v 0.929838 4.434616 0.060000
v 0.064332 4.439393 0.060000
v 0.064332 4.065384 0.060000
v 0.500000 4.500000 -0.000000
v 1.000000 4.500000 -0.000000
v 0.500000 4.000000 -0.000000
v 1.000000 4.000000 -0.000000
v 0.000000 6.000000 -0.000000
v 0.000000 5.500000 -0.000000
v 1.000000 5.939393 0.060000
v 1.000000 5.560607 0.060000
v 0.500000 5.060607 0.060000
v 0.410729 5.925061 0.060000
v 0.429838 5.551052 0.060000
v 0.589271 5.939393 0.060000
v 0.000000 5.939393 0.060000
v 0.574939 5.565384 0.060000
v 0.000000 5.560607 0.060000
v 0.500000 5.439393 0.060000
v 0.915506 5.065384 0.060000
v 0.929838 5.434616 0.060000
v 0.064332 5.439393 0.060000
v 0.064332 5.065384 0.060000
v 0.500000 5.500000 -0.000000
v 1.000000 5.500000 -0.000000
v 0.500000 5.000000 -0.000000
v 0.500000 6.000000 -0.000000
v 1.000000 5.000000 -0.000000
v 1.000000 6.000000 -0.000000
vn -0.0000 -0.0000 1.0000
vn 0.0104 0.6590 0.7521
vn -0.0075 -0.7343 0.6788
vn 0.6001 0.0131 0.7999
vn -0.0000 0.7035 0.7107
vn -0.0036 -0.6886 0.7252
vn -0.5902 0.0097 0.8072
vn -0.6821 -0.0000 0.7313
vn -0.0035 -0.6887 0.7250
vn 0.6130 -0.0101 0.7900
vn 0.0036 -0.6884 0.7253
vn 0.0035 0.6886 0.7251
vn -1.0000 -0.0000 -0.0000
vn 1.0000 -0.0000 -0.0000
vt 0.562688 0.221061
vt 0.179652 0.357829
vt 0.187563 0.365877
vt 0.571265 0.200327
vt 0.554777 0.000341
vt 0.562688 0.008389
vt 0.750381 0.221912
vt 0.383824 0.000000
vt 0.375379 0.008094
vt 0.742095 0.201540
vt 0.779520 0.177726
vt 0.908939 0.178128
vt 0.533549 0.179198
vt 0.595727 0.361338
vt 0.723465 0.368775
vt 0.779955 0.037393
vt 0.591826 0.220974
vt 0.907757 0.032893
vt 0.721243 0.221893
vt 0.404262 0.178947
vt 0.531793 0.321130
vt 0.405540 0.325788
vt 0.404486 0.030119
vt 0.532362 0.030374
vt 0.750381 0.392747
vt 0.740284 0.400654
vt 0.938078 0.007288
vt 0.929960 0.000000
vt 0.375125 0.178937
vt 0.938078 0.178123
vt 0.383377 0.357488
vt 0.375234 0.349781
vt 0.929583 0.198692
vt 0.562688 0.179257
vt 0.554328 0.356448
vt 0.562004 0.350126
vt 0.750382 0.021585
vt 0.196262 0.000000
vt 0.187816 0.008094
vt 0.742095 0.001213
vt 0.750381 0.622566
vt 0.008699 0.357488
vt 0.000253 0.365582
vt 0.742095 0.602194
vt 0.779520 0.376418
vt 0.908939 0.376819
vt 0.158424 0.536686
vt 0.595727 0.761993
vt 0.723465 0.769429
vt 0.779955 0.236085
vt 0.591826 0.621628
vt 0.907757 0.231585
vt 0.721243 0.622547
vt 0.029137 0.536435
vt 0.156668 0.678618
vt 0.030415 0.683276
vt 0.029361 0.387606
vt 0.157236 0.387862
vt 0.750381 0.793401
vt 0.740284 0.801308
vt 0.938078 0.205980
vt 0.929960 0.198692
vt 0.000000 0.536425
vt 0.938078 0.376815
vt 0.008252 0.714976
vt 0.000108 0.707268
vt 0.929583 0.397384
vt 0.562979 0.391896
vt 0.569476 0.397630
vt 0.750911 0.006802
vt 0.759127 0.000711
vt 0.187563 0.536744
vt 0.562688 0.621715
vt 0.367214 0.000341
vt 0.375125 0.008389
vt 0.571265 0.600981
vt 0.562688 0.020734
vt 0.367214 0.357829
vt 0.375125 0.365877
vt 0.571265 0.000000
vt 0.750381 0.177636
vt 0.179203 0.713936
vt 0.186879 0.707614
vt 0.758749 0.198162
vt 0.591826 0.979034
vt 0.721245 0.979436
vt 0.345987 0.179198
vt 0.595727 0.161011
vt 0.723465 0.168448
vt 0.592262 0.838701
vt 0.591826 0.020647
vt 0.720064 0.834201
vt 0.721243 0.021566
vt 0.216699 0.178947
vt 0.344230 0.321130
vt 0.217978 0.325788
vt 0.216923 0.030119
vt 0.344799 0.030374
vt 0.750381 0.192420
vt 0.740284 0.200327
vt 0.750384 0.808597
vt 0.742267 0.801308
vt 0.187562 0.178937
vt 0.750384 0.979431
vt 0.195815 0.357488
vt 0.187671 0.349781
vt 0.741889 1.000000
vt 0.562979 0.792550
vt 0.569476 0.798284
vt 0.750911 0.205494
vt 0.759127 0.199403
vt 0.375125 0.179257
vt 0.750381 0.376328
vt 0.366766 0.356448
vt 0.374441 0.350126
vt 0.758749 0.396854
vt 0.375387 0.736561
vt 0.196262 0.357488
vt 0.187816 0.365582
vt 0.367101 0.716188
vt 0.779520 0.977399
vt 0.908939 0.977801
vt 0.345987 0.536686
vt 0.220732 0.875987
vt 0.348470 0.883423
vt 0.779955 0.837066
vt 0.216832 0.735622
vt 0.907757 0.832566
vt 0.346248 0.736541
vt 0.216699 0.536435
vt 0.344230 0.678618
vt 0.217978 0.683276
vt 0.216923 0.387607
vt 0.344799 0.387862
vt 0.375387 0.907395
vt 0.365289 0.915303
vt 0.938078 0.806961
vt 0.929960 0.799673
vt 0.187563 0.536425
vt 0.938078 0.977796
vt 0.195815 0.714976
vt 0.187671 0.707268
vt 0.929583 0.998365
vt 0.562979 0.191569
vt 0.569476 0.197303
vt 0.563218 0.808110
vt 0.571433 0.802019
vt 0.375125 0.536744
vt 0.562688 0.978944
vt 0.366766 0.713936
vt 0.374441 0.707614
vt 0.571055 0.999470
vt 0.750381 0.422239
vt 0.008699 0.000000
vt 0.000253 0.008094
vt 0.742095 0.401867
vt 0.187694 0.735709
vt 0.179652 0.000341
vt 0.187563 0.008389
vt 0.196270 0.714976
vt 0.562688 0.421388
vt 0.554777 0.357829
vt 0.562687 0.365877
vt 0.571265 0.400654
vt 0.779520 0.778707
vt 0.908939 0.779109
vt 0.158424 0.179198
vt 0.595727 0.561666
vt 0.723465 0.569102
vt 0.779955 0.638374
vt 0.591826 0.421301
vt 0.907757 0.633874
vt 0.721243 0.422220
vt 0.029137 0.178947
vt 0.156668 0.321130
vt 0.030415 0.325788
vt 0.029361 0.030119
vt 0.157236 0.030374
vt 0.750381 0.593074
vt 0.740284 0.600981
vt 0.938078 0.608270
vt 0.929961 0.600981
vt 0.000000 0.178937
vt 0.938078 0.779104
vt 0.008252 0.357488
vt 0.000108 0.349781
vt 0.929583 0.799673
vt 0.187984 0.906544
vt 0.194481 0.912278
vt 0.750911 0.806475
vt 0.759127 0.800384
vt 0.187563 0.179257
vt 0.750381 0.977309
vt 0.179203 0.356448
vt 0.186879 0.350126
vt 0.758749 0.997835
vt 0.000000 0.735710
vt 0.008577 0.714976
vt 0.187694 0.736561
vt 0.383824 0.357488
vt 0.375379 0.365582
vt 0.179408 0.716189
vt 0.779520 0.575110
vt 0.908939 0.575511
vt 0.533549 0.536686
vt 0.033039 0.875987
vt 0.160777 0.883423
vt 0.779955 0.434777
vt 0.029139 0.735622
vt 0.907757 0.430277
vt 0.158555 0.736541
vt 0.404262 0.536435
vt 0.531792 0.678618
vt 0.405540 0.683276
vt 0.404486 0.387607
vt 0.532362 0.387862
vt 0.187694 0.907395
vt 0.177596 0.915303
vt 0.938078 0.404672
vt 0.929960 0.397384
vt 0.375125 0.536425
vt 0.938078 0.575507
vt 0.383377 0.714976
vt 0.375233 0.707268
vt 0.929583 0.596076
vt 0.562979 0.592223
vt 0.569476 0.597957
vt 0.750912 0.607783
vt 0.759127 0.601692
vt 0.562687 0.536745
vt 0.000291 0.906544
vt 0.006788 0.912278
vt 0.750911 0.404185
vt 0.759127 0.398095
vt 0.750382 0.778617
vt 0.554328 0.713936
vt 0.562004 0.707614
vt 0.758749 0.799143
vt 0.750381 0.575019
vt 0.758749 0.595546
s 0
f 6/13/1 14/21/1 15/22/1 13/20/1
f 11/18/1 5/12/1 4/11/1 9/16/1
f 12/19/1 8/15/1 7/14/1 10/17/1
f 17/24/1 6/13/1 13/20/1 16/23/1
f 10/17/2 7/14/2 40/68/2 1/1/2
f 8/15/3 12/19/3 3/7/3 18/25/3
f 7/14/4 8/15/4 18/26/4 40/69/4
f 9/16/5 4/11/5 43/81/5 40/70/5
f 5/12/6 11/18/6 18/27/6 19/30/6
f 11/18/7 9/16/7 40/71/7 18/28/7
f 17/24/8 16/23/8 3/8/8 2/5/8
f 6/13/9 17/24/9 2/6/9 20/34/9
f 16/23/5 13/20/5 18/29/5 3/9/5
f 15/22/10 14/21/10 21/35/10 19/31/10
f 14/21/11 6/13/11 20/34/11 21/36/11
f 13/20/12 15/22/12 19/32/12 18/29/12
f 26/47/1 34/55/1 35/56/1 33/54/1
f 31/52/1 25/46/1 24/45/1 29/50/1
f 32/53/1 28/49/1 27/48/1 30/51/1
f 37/58/1 26/47/1 33/54/1 36/57/1
f 30/51/2 27/48/2 60/108/2 41/73/2
f 28/49/3 32/53/3 23/41/3 38/59/3
f 27/48/4 28/49/4 38/60/4 60/109/4
f 29/50/5 24/45/5 61/113/5 60/110/5
f 25/46/6 31/52/6 38/61/6 39/64/6
f 31/52/7 29/50/7 60/111/7 38/62/7
f 37/58/8 36/57/8 23/42/8 1/2/8
f 26/47/9 37/58/9 1/3/9 40/72/9
f 36/57/5 33/54/5 38/63/5 23/43/5
f 35/56/10 34/55/10 43/82/10 39/65/10
f 34/55/11 26/47/11 40/72/11 43/83/11
f 33/54/12 35/56/12 39/66/12 38/63/12
f 46/87/1 54/95/1 55/96/1 53/94/1
f 51/92/1 45/86/1 44/85/1 49/90/1
f 52/93/1 48/89/1 47/88/1 50/91/1
f 57/98/1 46/87/1 53/94/1 56/97/1
f 50/91/2 47/88/2 79/144/2 42/77/2
f 48/89/3 52/93/3 22/37/3 58/99/3
f 47/88/4 48/89/4 58/100/4 79/145/4
f 49/90/5 44/85/5 80/149/5 79/146/5
f 45/86/6 51/92/6 58/101/6 59/104/6
f 51/92/7 49/90/7 79/147/7 58/102/7
f 57/98/8 56/97/8 22/38/8 41/74/8
f 46/87/9 57/98/9 41/75/9 60/112/9
f 56/97/5 53/94/5 58/103/5 22/39/5
f 55/96/10 54/95/10 61/114/10 59/105/10
f 54/95/11 46/87/11 60/112/11 61/115/11
f 53/94/12 55/96/12 59/106/12 58/103/12
f 65/123/1 73/131/1 74/132/1 72/130/1
f 70/128/1 64/122/1 63/121/1 68/126/1
f 71/129/1 67/125/1 66/124/1 69/127/1
f 76/134/1 65/123/1 72/130/1 75/133/1
f 69/127/2 66/124/2 100/188/2 82/157/2
f 67/125/3 71/129/3 62/117/3 77/135/3
f 66/124/4 67/125/4 77/136/4 100/189/4
f 68/126/5 63/121/5 101/193/5 100/190/5
f 64/122/6 70/128/6 77/137/6 78/140/6
f 70/128/7 68/126/7 100/191/7 77/138/7
f 76/134/8 75/133/8 62/118/8 42/78/8
f 65/123/9 76/134/9 42/79/9 79/148/9
f 75/133/5 72/130/5 77/139/5 62/119/5
f 74/132/10 73/131/10 80/150/10 78/141/10
f 73/131/11 65/123/11 79/148/11 80/151/11
f 72/130/12 74/132/12 78/142/12 77/139/12
f 86/167/1 94/175/1 95/176/1 93/174/1
f 91/172/1 85/166/1 84/165/1 89/170/1
f 92/173/1 88/169/1 87/168/1 90/171/1
f 97/178/1 86/167/1 93/174/1 96/177/1
f 90/171/2 87/168/2 120/226/2 83/161/2
f 88/169/3 92/173/3 81/153/3 98/179/3
f 87/168/4 88/169/4 98/180/4 120/227/4
f 89/170/5 84/165/5 122/235/5 120/228/5
f 85/166/6 91/172/6 98/181/6 99/184/6
f 91/172/7 89/170/7 120/229/7 98/182/7
f 97/178/8 96/177/8 81/154/8 82/158/8
f 86/167/9 97/178/9 82/159/9 100/192/9
f 96/177/5 93/174/5 98/183/5 81/155/5
f 95/176/10 94/175/10 101/194/10 99/185/10
f 94/175/11 86/167/11 100/192/11 101/195/11
f 93/174/12 95/176/12 99/186/12 98/183/12
f 106/205/1 114/213/1 115/214/1 113/212/1
f 111/210/1 105/204/1 104/203/1 109/208/1
f 112/211/1 108/207/1 107/206/1 110/209/1
f 117/216/1 106/205/1 113/212/1 116/215/1
f 110/209/2 107/206/2 121/231/2 102/197/2
f 108/207/3 112/211/3 103/199/3 118/217/3
f 107/206/4 108/207/4 118/218/4 121/232/4
f 109/208/5 104/203/5 123/239/5 121/233/5
f 105/204/6 111/210/6 118/219/6 119/222/6
f 111/210/7 109/208/7 121/234/7 118/220/7
f 117/216/8 116/215/8 103/200/8 83/162/8
f 106/205/9 117/216/9 83/163/9 120/230/9
f 116/215/5 113/212/5 118/221/5 103/201/5
f 115/214/10 114/213/10 122/236/10 119/223/10
f 114/213/11 106/205/11 120/230/11 122/237/11
f 113/212/12 115/214/12 119/224/12 118/221/12
f 112/211/13 110/209/13 102/198/13 103/202/13
f 92/173/13 90/171/13 83/164/13 81/156/13
f 69/127/13 82/160/13 62/120/13 71/129/13
f 52/93/13 50/91/13 42/80/13 22/40/13
f 30/51/13 41/76/13 23/44/13 32/53/13
f 12/19/13 10/17/13 1/4/13 3/10/13
f 4/11/14 5/12/14 19/33/14 43/84/14
f 24/45/14 25/46/14 39/67/14 61/116/14
f 44/85/14 45/86/14 59/107/14 80/152/14
f 63/121/14 64/122/14 78/143/14 101/196/14
f 84/165/14 85/166/14 99/187/14 122/238/14
f 105/204/14 119/225/14 123/240/14 104/203/14
