# Blender 3.4.1
# www.blender.org
mtllib 2x2_wall_corner_in.mtl
o 2x2_wall_corner_in
v 1.479286 6.500000 0.050000
v 1.479286 5.400000 0.000000
v 1.479286 1.500009 0.420139
v 1.479286 1.172281 0.380212
v 1.479286 1.118770 0.322868
v 1.479286 0.785434 0.322868
v 1.479286 0.741832 0.380212
v 1.479286 0.638711 0.420139
v 1.479286 1.118770 0.248316
v -0.000001 6.500000 0.050000
v -0.000000 1.669683 0.000000
v -0.000001 5.400000 0.000000
v -0.000001 5.510000 0.050000
v -0.000000 0.500000 0.420139
v -0.000000 0.000000 0.420139
v -0.000000 1.500009 0.420139
v -0.000000 1.430060 0.420139
v -0.000000 1.381491 0.388543
v -0.000000 1.298834 0.415491
v -0.000000 1.172281 0.380212
v -0.000000 1.118770 0.322868
v -0.000000 0.785434 0.322868
v -0.000000 0.741831 0.380212
v -0.000000 0.638711 0.420139
v -0.000000 0.571359 0.388543
v -0.000000 0.785434 0.248316
v -0.000000 1.118770 0.248316
v 0.206051 1.669683 0.000000
v 0.206051 5.400000 0.000000
v 0.206051 5.510000 0.050000
v 0.206052 0.500000 0.420139
v 0.206052 0.000000 0.420139
v 0.206051 1.500009 0.420139
v 0.206051 1.430060 0.420139
v 0.206051 1.381491 0.388543
v 0.206051 1.298834 0.415491
v 0.206051 1.172281 0.380212
v 0.206051 1.118770 0.322868
v 0.206052 0.785434 0.322868
v 0.206052 0.741832 0.380212
v 0.206052 0.638711 0.420139
v 0.206052 0.571359 0.388543
v 0.206052 0.785434 0.248316
v 0.206051 1.118770 0.248316
v 0.206051 6.500000 0.050000
v 1.479286 1.669683 0.000000
v 1.479286 5.510000 0.050000
v 1.479286 0.500000 0.420139
v 1.479286 0.000000 0.420139
v 1.479286 1.430060 0.420139
v 1.479286 1.381491 0.388543
v 1.479286 1.298834 0.415491
v 1.479286 0.571359 0.388543
v 1.479286 0.785434 0.248316
v 0.286285 5.605911 0.091847
v 0.317639 6.404089 0.091847
v 1.404279 6.409315 0.091847
v 1.393827 5.595459 0.091847
v 2.000133 5.400000 0.000001
v 1.579994 1.500009 0.420139
v 1.619921 1.172281 0.380212
v 1.677266 1.118770 0.322868
v 1.677266 0.785434 0.322868
v 1.619921 0.741832 0.380212
v 1.579994 0.638711 0.420139
v 1.751818 1.118770 0.248316
v 1.950133 6.500000 0.050000
v 2.000133 1.669683 0.000000
v 1.950133 5.510000 0.050000
v 1.579995 0.500000 0.420139
v 1.579995 0.000000 0.420139
v 1.579994 1.430060 0.420139
v 1.611590 1.381491 0.388543
v 1.584642 1.298834 0.415491
v 1.611590 0.571359 0.388543
v 1.751818 0.785434 0.248316
v 1.950133 6.500000 0.507461
v 2.000133 5.400000 0.507460
v 1.579994 1.500009 0.507460
v 1.619921 1.172281 0.507460
v 1.677266 1.118770 0.507460
v 1.677266 0.785434 0.507460
v 1.619921 0.741832 0.507460
v 1.579994 0.638711 0.507460
v 1.751818 1.118770 0.507460
v 1.950134 6.500000 1.998933
v 2.000133 1.669683 1.998933
v 2.000133 5.400000 1.998933
v 1.950134 5.510000 1.998933
v 1.579995 0.500000 1.998933
v 1.579995 0.000000 1.998933
v 1.579995 1.500009 1.998933
v 1.579995 1.430060 1.998933
v 1.611590 1.381491 1.998933
v 1.584642 1.298834 1.998933
v 1.619922 1.172281 1.998933
v 1.677266 1.118770 1.998933
v 1.677266 0.785434 1.998933
v 1.619922 0.741831 1.998933
v 1.579995 0.638711 1.998933
v 1.611590 0.571359 1.998933
v 1.751818 0.785434 1.998933
v 1.751818 1.118770 1.998933
v 2.000133 1.669683 1.922881
v 2.000133 5.400000 1.922881
v 1.950134 5.510000 1.922881
v 1.579995 0.500000 1.922881
v 1.579995 0.000000 1.922881
v 1.579995 1.500009 1.922881
v 1.579995 1.430060 1.922881
v 1.611590 1.381491 1.922881
v 1.584642 1.298834 1.922881
v 1.619922 1.172281 1.922881
v 1.677266 1.118770 1.922881
v 1.677266 0.785434 1.922881
v 1.619922 0.741832 1.922881
v 1.579995 0.638711 1.922881
v 1.611590 0.571359 1.922881
v 1.751818 0.785434 1.922881
v 1.751818 1.118770 1.922881
v 1.950134 6.500000 1.922881
v 2.000133 1.669683 0.507460
v 1.950133 5.510000 0.507460
v 1.579995 0.500000 0.507460
v 1.579995 0.000000 0.507460
v 1.579994 1.430060 0.507460
v 1.611590 1.381491 0.507460
v 1.584642 1.298834 0.507460
v 1.611591 0.571359 0.507460
v 1.751818 0.785434 0.507460
v 1.908287 5.605911 1.842648
v 1.908287 6.404089 1.811293
v 1.908287 6.409315 0.582468
v 1.908287 5.595459 0.592920
vn -0.0000 -0.0000 1.0000
vn -0.0000 1.0000 -0.0000
vn -0.0000 0.4049 0.9144
vn -0.0000 -0.4247 0.9053
vn -0.0000 0.3611 0.9325
vn -0.0000 0.7960 0.6053
vn -0.0000 -1.0000 -0.0000
vn -0.0000 -0.7311 0.6822
vn -0.0000 -0.2685 0.9633
vn -0.0000 0.3100 0.9507
vn -0.0000 -0.5453 0.8382
vn -0.0000 -0.4138 0.9104
vn -0.0000 0.9272 0.3745
vn -0.3999 0.0070 0.9165
vn -0.0009 0.4091 0.9125
vn 0.4625 -0.0027 0.8866
vn -0.0018 -0.4190 0.9080
vn -1.0000 -0.0000 -0.0000
vn -0.9144 0.4049 -0.0000
vn -0.9053 -0.4247 -0.0000
vn -0.9325 0.3611 -0.0000
vn -0.6053 0.7960 -0.0000
vn -0.6822 -0.7311 -0.0000
vn -0.9633 -0.2685 -0.0000
vn -0.9507 0.3100 -0.0000
vn -0.8382 -0.5453 -0.0000
vn -0.9104 -0.4138 -0.0000
vn -0.3745 0.9272 -0.0000
vn -0.9165 0.0070 0.3999
vn -0.9125 0.4091 0.0008
vn -0.8866 -0.0027 -0.4625
vn -0.9080 -0.4190 0.0016
vt 0.156347 0.596205
vt 0.381539 0.705131
vt 0.382851 0.706685
vt 0.648241 0.524306
vt 0.000308 0.596205
vt 0.362958 0.802953
vt 0.876632 0.406613
vt 0.865614 0.406613
vt 0.865615 0.963290
vt 0.875734 0.963290
vt 0.891267 0.963290
vt 0.855142 0.406613
vt 0.924235 0.278339
vt 0.156346 0.874236
vt 0.370211 0.000308
vt 0.299310 0.524922
vt 0.370211 0.524306
vt 0.000308 0.874236
vt 0.017281 0.874236
vt 0.616664 0.524922
vt 0.686899 0.524922
vt 0.362958 0.524922
vt 0.372784 0.524922
vt 0.380923 0.524922
vt 0.907299 0.684643
vt 0.895087 0.684643
vt 0.876632 0.684643
vt 0.865614 0.684643
vt 0.865615 0.685259
vt 0.875734 0.685259
vt 0.891267 0.685259
vt 0.901717 0.685259
vt 0.605702 0.524922
vt 0.855142 0.685259
vt 0.971058 0.000308
vt 0.855142 0.684643
vt 0.924235 0.000308
vt 0.469390 0.000308
vt 0.299310 0.624101
vt 0.469390 0.524306
vt 0.000308 0.775057
vt 0.017281 0.775057
vt 0.522014 0.524922
vt 0.523272 0.526396
vt 0.616664 0.624101
vt 0.686899 0.624101
vt 0.362958 0.624101
vt 0.372784 0.624101
vt 0.380923 0.624101
vt 0.907299 0.585464
vt 0.895087 0.585464
vt 0.876632 0.585464
vt 0.865614 0.585464
vt 0.865615 0.784439
vt 0.875734 0.784439
vt 0.891267 0.784439
vt 0.901717 0.784439
vt 0.605702 0.624101
vt 0.855142 0.784439
vt 0.971058 0.099487
vt 0.855142 0.585464
vt 0.924235 0.099487
vt 0.156346 0.775057
vt 0.382949 0.525253
vt 0.381769 0.526279
vt 0.299310 0.802953
vt 0.648241 0.000308
vt 0.017281 0.596205
vt 0.521916 0.706605
vt 0.523272 0.705248
vt 0.616664 0.802953
vt 0.686899 0.802953
vt 0.372784 0.802953
vt 0.380923 0.802953
vt 0.907299 0.406613
vt 0.895087 0.406613
vt 0.901717 0.963290
vt 0.605702 0.802953
vt 0.855142 0.963290
vt 0.971058 0.278339
vt 0.508572 0.537665
vt 0.396448 0.541973
vt 0.395582 0.694613
vt 0.509906 0.693243
vt 0.000308 0.524922
vt 0.719524 0.524306
vt 0.876179 0.000308
vt 0.000308 0.524306
vt 0.362958 0.815219
vt 0.738105 0.680480
vt 0.876632 0.388738
vt 0.833036 0.388738
vt 0.865614 0.380683
vt 0.844054 0.380683
vt 0.865615 0.989220
vt 0.918388 0.380683
vt 0.875734 0.981165
vt 0.928507 0.388738
vt 0.891267 0.975556
vt 0.944040 0.394347
vt 0.924235 0.314741
vt 0.855142 0.370211
vt 0.923619 0.334714
vt 0.854526 0.370211
vt 0.156347 0.531946
vt 0.720140 0.007332
vt 0.719524 0.000308
vt 0.299310 0.874236
vt 0.000308 0.000308
vt 0.801753 0.739497
vt 0.017281 0.531946
vt 0.859206 0.007331
vt 0.616664 0.815219
vt 0.534851 0.529360
vt 0.686899 0.815219
vt 0.605086 0.529360
vt 0.372784 0.815219
vt 0.728279 0.680480
vt 0.907299 0.389908
vt 0.380923 0.819657
vt 0.802369 0.389908
vt 0.720140 0.684918
vt 0.895087 0.393694
vt 0.814582 0.393694
vt 0.605702 0.819657
vt 0.901717 0.979994
vt 0.523888 0.524922
vt 0.954490 0.389908
vt 0.971058 0.314741
vt 0.855142 0.999692
vt 0.876795 0.334714
vt 0.907915 0.370211
vt 0.720140 0.071591
vt 0.156963 0.526476
vt 0.158274 0.524922
vt 0.071591 0.524306
vt 0.876179 0.071591
vt 0.738105 0.668214
vt 0.833036 0.406613
vt 0.844054 0.406613
vt 0.918387 0.406613
vt 0.928507 0.406613
vt 0.944040 0.406613
vt 0.854526 0.406613
vt 0.923619 0.298312
vt 0.720140 0.369595
vt 0.369595 0.000308
vt 0.801753 0.370211
vt 0.369595 0.524306
vt 0.876179 0.369595
vt 0.859206 0.369595
vt 0.534851 0.839630
vt 0.605086 0.839630
vt 0.738105 0.370211
vt 0.728280 0.370211
vt 0.720140 0.370211
vt 0.802369 0.704616
vt 0.814582 0.704616
vt 0.833036 0.704616
vt 0.844054 0.704616
vt 0.918388 0.704616
vt 0.928507 0.704616
vt 0.944040 0.704616
vt 0.954490 0.704616
vt 0.523888 0.839630
vt 0.907915 0.704616
vt 0.876795 0.000308
vt 0.854526 0.704616
vt 0.923619 0.000308
vt 0.270415 0.000308
vt 0.801753 0.469390
vt 0.270415 0.524306
vt 0.876179 0.270415
vt 0.859206 0.270415
vt 0.297435 0.726672
vt 0.298694 0.725196
vt 0.534851 0.740451
vt 0.605086 0.740451
vt 0.738105 0.469390
vt 0.728279 0.469390
vt 0.720140 0.469390
vt 0.802369 0.605437
vt 0.814582 0.605437
vt 0.833036 0.605437
vt 0.844054 0.605437
vt 0.918388 0.605437
vt 0.928507 0.605437
vt 0.944040 0.605437
vt 0.954490 0.605437
vt 0.523888 0.740451
vt 0.907915 0.605437
vt 0.876795 0.099487
vt 0.854526 0.605437
vt 0.923619 0.099487
vt 0.720140 0.270415
vt 0.158370 0.726327
vt 0.157189 0.725300
vt 0.801753 0.668214
vt 0.071591 0.000308
vt 0.859206 0.071591
vt 0.297339 0.525016
vt 0.298694 0.526372
vt 0.534851 0.541626
vt 0.605086 0.541626
vt 0.728279 0.668214
vt 0.720140 0.668214
vt 0.802369 0.406613
vt 0.814582 0.406613
vt 0.954490 0.406613
vt 0.523888 0.541626
vt 0.907915 0.406613
vt 0.876795 0.298312
vt 0.283994 0.713927
vt 0.171870 0.709609
vt 0.171004 0.536996
vt 0.285328 0.538377
s 0
f 76/129/1 66/101/1 9/13/1 54/80/1
f 63/95/2 76/130/2 54/79/2 6/9/2
f 70/113/3 75/125/3 53/78/3 48/71/3
f 75/126/4 65/99/4 8/11/4 53/77/4
f 65/99/5 64/97/5 7/10/5 8/11/5
f 64/97/6 63/95/6 6/9/6 7/10/6
f 66/102/7 62/93/7 5/8/7 9/12/7
f 62/93/8 61/91/8 4/7/8 5/8/8
f 61/91/9 74/123/9 52/76/9 4/7/9
f 74/123/10 73/119/10 51/75/10 52/76/10
f 73/120/11 72/117/11 50/73/11 51/74/11
f 72/117/1 60/89/1 3/6/1 50/73/1
f 70/113/1 48/71/1 49/72/1 71/115/1
f 59/85/12 69/111/12 47/68/12 2/5/12
f 68/107/1 59/86/1 2/4/1 46/67/1
f 69/111/1 67/105/1 1/1/1 47/68/1
f 28/39/13 33/47/13 3/6/13 46/66/13
f 46/66/13 3/6/13 60/89/13 68/108/13
f 13/19/1 30/42/1 45/63/1 10/14/1
f 11/15/1 28/38/1 29/40/1 12/17/1
f 12/18/12 29/41/12 30/42/12 13/19/12
f 14/20/1 15/21/1 32/46/1 31/45/1
f 17/23/1 34/48/1 33/47/1 16/22/1
f 18/24/11 35/49/11 34/48/11 17/23/11
f 19/26/10 36/51/10 35/50/10 18/25/10
f 20/27/9 37/52/9 36/51/9 19/26/9
f 21/28/8 38/53/8 37/52/8 20/27/8
f 27/36/7 44/61/7 38/53/7 21/28/7
f 23/30/6 40/55/6 39/54/6 22/29/6
f 24/31/5 41/56/5 40/55/5 23/30/5
f 25/32/4 42/57/4 41/56/4 24/31/4
f 14/20/3 31/45/3 42/58/3 25/33/3
f 22/29/2 39/54/2 43/59/2 26/34/2
f 26/35/1 43/60/1 44/62/1 27/37/1
f 55/81/1 58/84/1 57/83/1 56/82/1
f 28/38/1 46/67/1 2/4/1 29/40/1
f 29/41/12 2/5/12 47/68/12 30/42/12
f 31/45/1 32/46/1 49/72/1 48/71/1
f 34/48/1 50/73/1 3/6/1 33/47/1
f 35/49/11 51/74/11 50/73/11 34/48/11
f 36/51/10 52/76/10 51/75/10 35/50/10
f 37/52/9 4/7/9 52/76/9 36/51/9
f 38/53/8 5/8/8 4/7/8 37/52/8
f 44/61/7 9/12/7 5/8/7 38/53/7
f 40/55/6 7/10/6 6/9/6 39/54/6
f 41/56/5 8/11/5 7/10/5 40/55/5
f 42/57/4 53/77/4 8/11/4 41/56/4
f 31/45/3 48/71/3 53/78/3 42/58/3
f 39/54/2 6/9/2 54/79/2 43/59/2
f 43/60/1 54/80/1 9/13/1 44/62/1
f 11/16/13 16/22/13 33/47/13 28/39/13
f 30/43/14 55/81/14 56/82/14 45/64/14
f 45/65/15 56/82/15 57/83/15 1/2/15
f 1/3/16 57/83/16 58/84/16 47/69/16
f 47/70/17 58/84/17 55/81/17 30/44/17
f 76/131/18 130/212/18 85/145/18 66/103/18
f 63/96/2 82/141/2 130/211/2 76/132/2
f 70/114/19 124/203/19 129/210/19 75/127/19
f 75/128/20 129/209/20 84/143/20 65/100/20
f 65/100/21 84/143/21 83/142/21 64/98/21
f 64/98/22 83/142/22 82/141/22 63/96/22
f 66/104/7 85/144/7 81/140/7 62/94/7
f 62/94/23 81/140/23 80/139/23 61/92/23
f 61/92/24 80/139/24 128/208/24 74/124/24
f 74/124/25 128/208/25 127/207/25 73/121/25
f 73/122/26 127/206/26 126/205/26 72/118/26
f 72/118/18 126/205/18 79/138/18 60/90/18
f 70/114/18 71/116/18 125/204/18 124/203/18
f 59/87/27 78/137/27 123/200/27 69/112/27
f 68/109/18 122/199/18 78/136/18 59/88/18
f 69/112/18 123/200/18 77/133/18 67/106/18
f 104/171/28 122/198/28 79/138/28 109/179/28
f 68/110/28 60/90/28 79/138/28 122/198/28
f 89/151/18 86/146/18 121/195/18 106/174/18
f 87/147/18 88/149/18 105/172/18 104/170/18
f 88/150/27 89/151/27 106/174/27 105/173/27
f 90/152/18 107/177/18 108/178/18 91/153/18
f 93/155/18 92/154/18 109/179/18 110/180/18
f 94/156/26 93/155/26 110/180/26 111/181/26
f 95/158/25 94/157/25 111/182/25 112/183/25
f 96/159/24 95/158/24 112/183/24 113/184/24
f 97/160/23 96/159/23 113/184/23 114/185/23
f 103/168/7 97/160/7 114/185/7 120/193/7
f 99/162/22 98/161/22 115/186/22 116/187/22
f 100/163/21 99/162/21 116/187/21 117/188/21
f 101/164/20 100/163/20 117/188/20 118/189/20
f 90/152/19 101/165/19 118/190/19 107/177/19
f 98/161/2 102/166/2 119/191/2 115/186/2
f 102/167/18 103/169/18 120/194/18 119/192/18
f 131/213/18 132/214/18 133/215/18 134/216/18
f 104/170/18 105/172/18 78/136/18 122/199/18
f 105/173/27 106/174/27 123/200/27 78/137/27
f 107/177/18 124/203/18 125/204/18 108/178/18
f 110/180/18 109/179/18 79/138/18 126/205/18
f 111/181/26 110/180/26 126/205/26 127/206/26
f 112/183/25 111/182/25 127/207/25 128/208/25
f 113/184/24 112/183/24 128/208/24 80/139/24
f 114/185/23 113/184/23 80/139/23 81/140/23
f 120/193/7 114/185/7 81/140/7 85/144/7
f 116/187/22 115/186/22 82/141/22 83/142/22
f 117/188/21 116/187/21 83/142/21 84/143/21
f 118/189/20 117/188/20 84/143/20 129/209/20
f 107/177/19 118/190/19 129/210/19 124/203/19
f 115/186/2 119/191/2 130/211/2 82/141/2
f 119/192/18 120/194/18 85/145/18 130/212/18
f 87/148/28 104/171/28 109/179/28 92/154/28
f 106/175/29 121/196/29 132/214/29 131/213/29
f 121/197/30 77/134/30 133/215/30 132/214/30
f 77/135/31 123/201/31 134/216/31 133/215/31
f 123/202/32 106/176/32 131/213/32 134/216/32
