# Blender 3.4.1
# www.blender.org
mtllib 2x2_floor_tiles_plane.mtl
o 2x2_floor_tiles_plane
v 0.089471 0.040505 -0.089471
v 0.072817 0.019411 -1.900000
v 1.939386 0.048103 -0.060614
v 0.588840 0.019411 -0.082388
v 0.610146 0.019411 -1.939854
v 0.089471 0.040505 -0.913333
v 0.083704 0.019411 -1.552818
v 1.947112 0.019411 -1.540146
v 1.906725 0.019411 -0.881752
v 0.602888 0.019411 -1.529259
v 0.599726 0.019411 -0.841833
v 1.100000 0.019411 -0.060614
v 1.100000 0.019411 -1.954370
v 1.100000 0.019411 -0.852720
v 1.089113 0.019411 -1.532888
v 1.950741 0.019411 -1.936226
v 0.601014 0.050581 -1.403583
v 1.100000 0.050581 -1.407212
v 2.000000 0.050581 -1.407212
v 1.100000 -0.000000 -0.000000
v 0.442384 0.040504 -0.089471
v 0.626417 0.060145 -0.975235
v 1.100000 0.050581 -0.986122
v 0.471416 0.040505 -0.603038
v 0.089471 0.040505 -0.606667
v 1.100000 0.019411 -0.606667
v 1.939386 0.019411 -0.606667
v 0.610613 0.019411 -0.606667
v 0.477182 0.052885 -1.563704
v 0.467787 0.040505 -0.884302
v 1.100000 -0.000000 -0.913334
v 1.100000 0.000000 -1.480000
v 2.000000 0.050581 -0.986122
v 2.000000 -0.000000 -1.480000
v 2.000000 -0.000000 -0.000000
v 2.000000 -0.000000 -0.606667
v 2.000000 -0.000000 -0.913334
v 2.000000 0.000000 -2.000000
v 1.100000 0.000000 -2.000000
v 0.550000 0.000000 -2.000000
v 0.089471 0.040505 -1.390529
v -0.000000 0.000000 -2.000000
v 0.477182 0.038539 -1.900000
v 0.475045 0.059632 -1.383271
v 0.550000 -0.000000 -0.000000
v -0.000000 0.000000 -0.000000
v 0.550000 -0.000000 -0.606667
v -0.000000 0.000000 -0.606667
v -0.000000 0.000000 -0.913333
v -0.000000 0.000000 -1.480000
v 0.550000 0.000000 -1.480000
v 0.550000 0.000000 -0.913334
vn -0.0660 0.9976 -0.0199
vn -0.0000 1.0000 -0.0000
vn 0.0097 0.9999 -0.0115
vn -0.0259 0.9995 0.0194
vn -0.0048 0.9396 -0.3422
vn 0.3553 0.9347 0.0014
vn -0.3246 0.9458 -0.0025
vn 0.0012 0.9346 0.3557
vn 0.0035 0.9429 -0.3330
vn 0.0013 0.9460 0.3242
vn -0.0053 0.9654 0.2606
vn 0.4947 0.8688 -0.0216
vn -0.3358 0.9419 0.0067
vn -0.0029 0.9597 -0.2809
vn -0.0144 0.8705 0.4920
vn -0.0067 0.9192 -0.3938
vn -0.3687 0.9295 -0.0071
vn 0.2420 0.9702 -0.0136
vn -0.0171 0.9995 -0.0263
vn -0.6565 0.7543 0.0095
vn 0.0140 0.7685 0.6397
vn -0.0019 0.8280 -0.5607
vn -0.0000 0.8212 0.5706
vn -0.0000 0.8212 -0.5706
vn -0.2412 0.9705 0.0030
vn -0.0192 0.9603 -0.2783
vn 0.5305 0.8476 -0.0142
vn -0.0274 0.9082 0.4176
vn -0.0000 0.9110 0.4124
vn 0.3950 0.9186 0.0102
vn -0.4124 0.9110 -0.0000
vn 0.5479 0.8364 0.0187
vn -0.0143 0.8811 -0.4727
vn 0.4495 0.8933 -0.0028
vt 0.763334 0.530925
vt 0.520720 0.739864
vt 0.029695 0.029757
vt 0.039445 0.538032
vt 0.825388 0.024228
vt 0.763417 0.221168
vt 0.390047 0.737575
vt 0.975827 0.527228
vt 0.338907 0.041449
vt 0.979909 0.021403
vt 0.324995 0.533009
vt 0.030369 0.345768
vt 0.820117 0.208499
vt 0.328519 0.344866
vt 0.978633 0.204349
vt 0.826707 0.528523
vt 0.387763 0.028104
vt 0.387226 0.215838
vt 0.387505 0.554261
vt 0.006429 0.345996
vt 0.630679 0.530925
vt 0.548934 0.036880
vt 0.545898 0.215316
vt 0.619808 0.337966
vt 0.763355 0.336492
vt 0.235948 0.345105
vt 0.235408 0.029041
vt 0.236530 0.529293
vt 0.391979 0.588947
vt 0.620658 0.231874
vt 0.352453 0.344841
vt 0.579278 0.215504
vt 0.999831 0.208453
vt 0.353890 0.215904
vt 0.545575 0.554254
vt 0.998472 0.548437
vt 0.999597 0.547148
vt 0.354178 0.554289
vt 0.007534 0.000169
vt 0.000169 0.007498
vt 0.235634 0.005104
vt 0.352893 0.006391
vt 0.350963 0.005679
vt 0.578866 0.554289
vt 0.802699 0.548459
vt 0.801639 0.547066
vt 0.801463 0.208495
vt 0.801630 0.001582
vt 0.802716 0.000480
vt 0.559048 0.560321
vt 0.556623 0.557029
vt 0.764048 0.041546
vt 0.558709 0.767731
vt 0.559048 0.767262
vt 0.518620 0.587564
vt 0.618821 0.043677
vt 0.007703 0.552834
vt 0.008569 0.554531
vt 0.590227 0.567842
vt 0.587624 0.564744
vt 0.796965 0.567842
vt 0.800250 0.564562
vt 0.236611 0.553224
vt 0.586580 0.336773
vt 0.800272 0.336508
vt 0.800366 0.221243
vt 0.363072 0.770259
vt 0.363250 0.770405
vt 0.801124 0.008010
vt 0.798640 0.005478
vt 0.998410 0.000169
vt 0.999831 0.001502
vt 0.358890 0.001231
vt 0.353232 0.009025
vt 0.360985 0.554628
vt 0.353232 0.563706
vt 0.582100 0.007924
vt 0.591819 0.000169
vt 0.351911 0.553034
vt 0.352893 0.551647
vt 0.571992 0.000169
vt 0.581762 0.008510
vt 0.585997 0.221238
s 0
f 29/29/1 43/55/1 2/2/1 7/7/1
f 15/15/2 13/13/2 5/5/2 10/10/2
f 26/26/2 14/14/2 11/11/2 28/28/2
f 23/23/3 18/18/3 17/17/3 22/22/3
f 24/24/2 30/30/2 6/6/2 25/25/2
f 30/30/4 44/56/4 41/52/4 6/6/4
f 33/35/2 19/19/2 18/18/2 23/23/2
f 27/27/2 9/9/2 14/14/2 26/26/2
f 8/8/2 16/16/2 13/13/2 15/15/2
f 5/5/5 13/13/5 39/47/5 40/48/5
f 16/16/6 8/8/6 34/36/6 38/45/6
f 10/10/7 5/5/7 40/49/7 51/71/7
f 15/15/8 10/10/8 51/72/8 32/33/8
f 13/13/9 16/16/9 38/46/9 39/47/9
f 8/8/10 15/15/10 32/33/10 34/37/10
f 12/12/11 4/4/11 45/57/11 20/20/11
f 27/27/12 3/3/12 35/39/12 36/41/12
f 28/28/13 11/11/13 52/79/13 47/63/13
f 11/11/14 14/14/14 31/31/14 52/80/14
f 3/3/15 12/12/15 20/20/15 35/40/15
f 14/14/16 9/9/16 37/42/16 31/31/16
f 4/4/17 28/28/17 47/63/17 45/58/17
f 9/9/18 27/27/18 36/41/18 37/43/18
f 3/3/19 27/27/19 26/26/19 12/12/19
f 21/21/2 24/24/2 25/25/2 1/1/2
f 12/12/2 26/26/2 28/28/2 4/4/2
f 22/22/20 17/17/20 51/73/20 52/81/20
f 23/23/21 22/22/21 52/82/21 31/32/21
f 17/17/22 18/18/22 32/34/22 51/74/22
f 33/35/23 23/23/23 31/32/23 37/44/23
f 18/18/24 19/19/24 34/38/24 32/34/24
f 7/7/25 2/2/25 42/53/25 50/67/25
f 43/55/26 40/50/26 42/54/26 2/2/26
f 43/55/27 29/29/27 51/75/27 40/51/27
f 29/29/28 7/7/28 50/68/28 51/76/28
f 21/21/29 1/1/29 46/61/29 45/59/29
f 24/24/30 21/21/30 45/60/30 47/64/30
f 25/25/31 6/6/31 49/66/31 48/65/31
f 6/6/31 41/52/31 50/69/31 49/66/31
f 44/56/32 30/30/32 52/83/32 51/77/32
f 41/52/33 44/56/33 51/78/33 50/70/33
f 30/30/34 24/24/34 47/64/34 52/83/34
f 1/1/31 25/25/31 48/65/31 46/62/31
