# Blender 3.5.1
# www.blender.org
mtllib 2x3_bordillo_corner_out.mtl
o 2x3_bordillo_corner_out
v 2.000000 0.000000 -2.000000
v 2.500000 3.000000 -2.000000
v 2.000000 1.977605 -2.000000
v 2.120501 2.026532 -2.000000
v 2.246865 2.047767 -2.000000
v 2.254942 2.166461 -2.000000
v 2.133949 2.214324 -2.000000
v 2.062579 2.322283 -2.000000
v 2.117605 2.435543 -2.000000
v 2.299380 2.500000 -2.000000
v 2.000000 2.999950 -2.000000
v 2.410000 2.700000 -2.000000
v 2.500000 3.000000 0.500000
v 2.120501 2.026532 0.120501
v 2.246865 2.047767 0.246865
v 2.254942 2.166461 0.254942
v 2.133949 2.214324 0.133949
v 2.062579 2.322283 0.062579
v 2.117605 2.435543 0.117605
v 2.299380 2.500000 0.299380
v 2.000000 2.999950 0.000000
v 2.000000 0.000000 0.000000
v 2.000000 1.977605 0.000000
v 2.410000 2.700000 0.410000
v 0.000000 0.000000 0.000000
v 0.000000 3.000000 0.500000
v 0.000000 1.977605 0.000000
v 0.000000 2.026532 0.120501
v 0.000000 2.047767 0.246865
v 0.000000 2.166461 0.254942
v 0.000000 2.214324 0.133949
v 0.000000 2.322283 0.062579
v 0.000000 2.435543 0.117605
v 0.000000 2.500000 0.299380
v 0.000000 2.999950 0.000000
v 0.000000 2.700000 0.410000
vn 1.0000 -0.0000 -0.0000
vn 0.8751 -0.4840 -0.0000
vn 0.3342 -0.9425 -0.0000
vn 0.8995 -0.4370 -0.0000
vn 0.8342 0.5515 -0.0000
vn 0.3679 0.9299 -0.0000
vn 0.9977 -0.0679 -0.0000
vn 0.1657 -0.9862 -0.0000
vn 0.3762 -0.9265 -0.0000
vn 0.9578 -0.2873 -0.0000
vn -0.0001 1.0000 -0.0000
vn -0.0000 -0.0000 1.0000
vn -0.0000 -0.4840 0.8751
vn -0.0000 -0.9425 0.3342
vn -0.0000 -0.4370 0.8995
vn -0.0000 0.5515 0.8342
vn -0.0000 0.9299 0.3679
vn -0.0000 -0.0679 0.9977
vn -0.0000 -0.9862 0.1657
vn -0.0000 -0.9265 0.3762
vn -0.0000 -0.2873 0.9578
vn -0.0000 1.0000 -0.0001
vt 0.000000 0.000000
vt 0.413455 1.000000
vt 0.439468 0.000000
vt 0.746175 0.945543
vt 0.717274 0.945543
vt 0.688799 0.945543
vt 0.662362 0.945543
vt 0.633447 0.945543
vt 0.604688 1.000000
vt 0.604688 0.945543
vt 0.576705 1.000000
vt 0.533847 1.000000
vt 0.302344 1.000000
vt 0.483057 1.000000
vt 0.413455 0.444444
vt 0.191233 0.444444
vt 0.717274 0.474320
vt 0.775076 0.474320
vt 0.688799 0.446239
vt 0.803550 0.446239
vt 0.662362 0.444444
vt 0.829988 0.444444
vt 0.633447 0.471332
vt 0.858903 0.471332
vt 0.604687 0.541649
vt 0.604688 0.487192
vt 0.000000 0.541649
vt 0.887662 0.487192
vt 0.576706 0.529421
vt 0.027982 0.529421
vt 0.533847 0.489027
vt 0.070841 0.489027
vt 0.302344 0.555555
vt 0.000000 0.444444
vt 0.878935 0.444444
vt 0.439468 0.444444
vt 0.746175 0.501098
vt 0.483057 0.464444
vt 0.121631 0.464444
vt 0.878935 0.000000
vt 0.191233 1.000000
vt 0.439468 0.000000
vt 0.746175 0.945543
vt 0.775076 0.945543
vt 0.803550 0.945543
vt 0.829988 0.945543
vt 0.858903 0.945543
vt 0.000000 1.000000
vt 0.887662 0.945543
vt 0.027982 1.000000
vt 0.070841 1.000000
vt 0.302344 1.000000
vt 0.121631 1.000000
s 0
f 23/36/1 22/34/1 1/1/1 3/3/1
f 20/31/2 10/12/2 12/14/2 24/38/2
f 19/29/3 9/11/3 10/12/3 20/31/3
f 18/25/4 8/9/4 9/11/4 19/29/4
f 17/23/5 7/8/5 8/10/5 18/26/5
f 16/21/6 6/7/6 7/8/6 17/23/6
f 15/19/7 5/6/7 6/7/7 16/21/7
f 14/17/8 4/5/8 5/6/8 15/19/8
f 23/37/9 3/4/9 4/5/9 14/17/9
f 13/15/10 24/38/10 12/14/10 2/2/10
f 11/13/11 21/33/11 13/15/11 2/2/11
f 23/36/12 27/42/12 25/40/12 22/35/12
f 20/32/13 24/39/13 36/53/13 34/51/13
f 19/30/14 20/32/14 34/51/14 33/50/14
f 18/27/15 19/30/15 33/50/15 32/48/15
f 17/24/16 18/28/16 32/49/16 31/47/16
f 16/22/17 17/24/17 31/47/17 30/46/17
f 15/20/18 16/22/18 30/46/18 29/45/18
f 14/18/19 15/20/19 29/45/19 28/44/19
f 23/37/20 14/18/20 28/44/20 27/43/20
f 13/16/21 26/41/21 36/53/21 24/39/21
f 35/52/22 26/41/22 13/16/22 21/33/22
