# Blender 3.4.1
# www.blender.org
mtllib 3x11_arch_wall.mtl
o 3x11_arch_wall
v -3.000000 0.000000 -0.000000
v -0.000000 0.000000 -0.000000
v -3.000000 11.000000 0.000000
v -0.000000 11.000000 0.000000
v -3.000000 8.500000 0.000000
v -3.000000 5.500000 0.000000
v -3.000000 2.500000 -0.000000
v -0.000000 2.500000 -0.000000
v -0.000000 5.500000 0.000000
v -0.000000 8.500000 0.000000
v -2.634035 5.500000 0.000000
v -2.634035 8.134035 0.000000
v -0.365965 5.500000 0.000000
v -2.634035 2.865965 -0.000000
v -0.365965 2.865965 -0.000000
v -2.257208 7.634830 -0.215221
v -0.365965 8.134035 0.000000
v -2.257208 5.500000 -0.215221
v -2.257208 3.365169 -0.215222
v -0.742792 3.365169 -0.215222
v -0.742792 5.500000 -0.215221
v -0.742792 7.634830 -0.215221
v -2.541515 7.919137 -0.215221
v -2.541515 5.500000 -0.215221
v -2.541515 3.080863 -0.215222
v -0.458485 3.080863 -0.215222
v -0.458485 5.500000 -0.215221
v -0.458485 7.919137 -0.215221
v -2.155826 5.500000 -0.051341
v -0.844174 5.500000 -0.051341
v -2.155826 7.348999 -0.051341
v -2.155826 3.651001 -0.051341
v -0.844174 3.651001 -0.051341
v -0.844174 7.348999 -0.051341
v -0.000000 9.000000 0.000000
v -0.000000 10.000000 0.000000
v -3.000000 10.000000 0.000000
v -3.000000 9.000000 0.000000
v -3.000000 2.000000 -0.000000
v -3.000000 1.000000 -0.000000
v -0.000000 1.000000 -0.000000
v -0.000000 2.000000 -0.000000
v -0.270212 9.270212 -0.098328
v -0.270212 9.729788 -0.098328
v -2.729788 9.729788 -0.098328
v -2.729788 9.270212 -0.098328
v -2.729788 1.729788 -0.098329
v -2.729788 1.270212 -0.098329
v -0.270212 1.270212 -0.098329
v -0.270212 1.729788 -0.098329
v -0.097079 9.097078 0.000000
v -0.097079 9.902922 0.000000
v -2.902921 9.902922 0.000000
v -2.902921 9.097078 0.000000
v -2.902921 1.902922 -0.000000
v -2.902921 1.097078 -0.000000
v -0.097079 1.097078 -0.000000
v -0.097079 1.902922 -0.000000
vn -0.0000 -0.0000 -1.0000
vn -0.0000 -0.7076 -0.7066
vn 0.9187 -0.0000 -0.3949
vn -0.8504 -0.0000 -0.5261
vn -0.0000 0.4974 -0.8675
vn -0.9187 -0.0000 -0.3949
vn -0.0000 0.7076 -0.7066
vn 0.8504 -0.0000 -0.5261
vn -0.0000 -0.4974 -0.8675
vn 0.4938 -0.0000 -0.8695
vn -0.4938 -0.0000 -0.8695
vn -0.0000 -0.4938 -0.8695
vn -0.0000 0.4938 -0.8695
vt 0.000000 0.000000
vt 1.000000 0.000000
vt 0.000000 1.000000
vt 1.000000 1.000000
vt 0.000000 0.750000
vt 0.000000 0.500000
vt 0.000000 0.250000
vt 1.000000 0.250000
vt 1.000000 0.500000
vt 1.000000 0.750000
vt 0.121988 0.500000
vt 0.121988 0.719503
vt 0.878012 0.500000
vt 0.121988 0.280497
vt 0.878012 0.280497
vt 0.225176 0.693706
vt 0.878012 0.719503
vt 0.225176 0.500000
vt 0.225176 0.306294
vt 0.774824 0.306294
vt 0.774824 0.500000
vt 0.774824 0.693706
vt 0.121988 0.719503
vt 0.121988 0.500000
vt 0.121988 0.280497
vt 0.878012 0.280497
vt 0.878012 0.500000
vt 0.878012 0.719503
vt 0.225176 0.500000
vt 0.774824 0.500000
vt 0.225176 0.693706
vt 0.225176 0.306294
vt 0.774824 0.306294
vt 0.774824 0.693706
vt 1.000000 0.833333
vt 1.000000 0.916667
vt 0.000000 0.916667
vt 0.000000 0.833333
vt 0.000000 0.166667
vt 0.000000 0.083333
vt 1.000000 0.083333
vt 1.000000 0.166667
vt 0.909929 0.855851
vt 0.909929 0.894149
vt 0.090071 0.894149
vt 0.090071 0.855851
vt 0.090071 0.144149
vt 0.090071 0.105851
vt 0.909929 0.105851
vt 0.909929 0.144149
vt 0.967641 0.841423
vt 0.967641 0.908577
vt 0.032360 0.908577
vt 0.032360 0.841423
vt 0.032360 0.158577
vt 0.032360 0.091423
vt 0.967641 0.091423
vt 0.967641 0.158577
s 0
f 37/37/1 3/3/1 4/4/1 36/36/1
f 39/39/1 7/7/1 8/8/1 42/42/1
f 15/15/2 14/14/2 25/25/2 26/26/2
f 13/13/3 15/15/3 26/26/3 27/27/3
f 12/12/1 11/11/1 6/6/1 5/5/1
f 11/11/1 14/14/1 7/7/1 6/6/1
f 15/15/1 13/13/1 9/9/1 8/8/1
f 13/13/1 17/17/1 10/10/1 9/9/1
f 14/14/1 15/15/1 8/8/1 7/7/1
f 17/17/1 12/12/1 5/5/1 10/10/1
f 21/21/4 20/20/4 33/33/4 30/30/4
f 20/20/5 19/19/5 32/32/5 33/33/5
f 14/14/6 11/11/6 24/24/6 25/25/6
f 17/17/3 13/13/3 27/27/3 28/28/3
f 12/12/7 17/17/7 28/28/7 23/23/7
f 11/11/6 12/12/6 23/23/6 24/24/6
f 16/16/1 18/18/1 24/24/1 23/23/1
f 18/18/1 19/19/1 25/25/1 24/24/1
f 20/20/1 21/21/1 27/27/1 26/26/1
f 21/21/1 22/22/1 28/28/1 27/27/1
f 19/19/1 20/20/1 26/26/1 25/25/1
f 22/22/1 16/16/1 23/23/1 28/28/1
f 32/32/1 29/29/1 30/30/1 33/33/1
f 29/29/1 31/31/1 34/34/1 30/30/1
f 18/18/8 16/16/8 31/31/8 29/29/8
f 16/16/9 22/22/9 34/34/9 31/31/9
f 22/22/4 21/21/4 30/30/4 34/34/4
f 19/19/8 18/18/8 29/29/8 32/32/8
f 5/5/1 38/38/1 35/35/1 10/10/1
f 46/46/1 45/45/1 44/44/1 43/43/1
f 1/1/1 40/40/1 41/41/1 2/2/1
f 48/48/1 47/47/1 50/50/1 49/49/1
f 51/51/1 52/52/1 36/36/1 35/35/1
f 53/53/1 54/54/1 38/38/1 37/37/1
f 54/54/1 51/51/1 35/35/1 38/38/1
f 52/52/1 53/53/1 37/37/1 36/36/1
f 55/55/1 56/56/1 40/40/1 39/39/1
f 57/57/1 58/58/1 42/42/1 41/41/1
f 56/56/1 57/57/1 41/41/1 40/40/1
f 58/58/1 55/55/1 39/39/1 42/42/1
f 43/43/10 44/44/10 52/52/10 51/51/10
f 45/45/11 46/46/11 54/54/11 53/53/11
f 47/47/11 48/48/11 56/56/11 55/55/11
f 49/49/10 50/50/10 58/58/10 57/57/10
f 46/46/12 43/43/12 51/51/12 54/54/12
f 44/44/13 45/45/13 53/53/13 52/52/13
f 48/48/12 49/49/12 57/57/12 56/56/12
f 50/50/13 47/47/13 55/55/13 58/58/13
