# Blender 3.4.1
# www.blender.org
mtllib 3x12_buttress.mtl
o 3x12_buttress
v 0.000000 0.000000 -0.000000
v 2.778628 11.778666 0.000000
v 2.778628 11.135321 -0.000000
v 1.000000 0.000000 -0.000000
v 2.091432 11.778666 -0.000000
v 0.923535 8.663401 -0.000000
v 1.656228 11.345222 -0.000000
v 0.269797 9.964399 -0.000000
v 0.984468 8.923976 -0.000000
v 1.332853 9.696375 -0.000000
v 1.783298 10.346547 -0.000000
v 2.314530 10.864564 -0.000000
v 1.156241 10.847258 -0.000000
v 0.656253 10.349293 -0.000000
v 2.000000 12.000038 -0.000000
v 3.000000 12.000038 0.000000
v 3.000000 11.008179 -0.000000
v 0.000050 10.008179 -0.000000
v 1.000000 8.018186 -0.000000
v 1.195120 8.852594 -0.000000
v 1.526335 9.586926 -0.000000
v 1.953119 10.202946 -0.000000
v 2.449593 10.687069 -0.000000
v 1.500012 11.502073 -0.000000
v 0.500037 10.506144 -0.000000
v 1.000025 11.004108 -0.000000
v 2.236583 10.827335 -0.100000
v 2.035795 11.650028 -0.100000
v 1.758474 10.361120 -0.100000
v 1.644112 11.259928 -0.100000
v 1.353074 9.775966 -0.100000
v 1.194123 10.811760 -0.100000
v 1.039528 9.080807 -0.100000
v 0.744134 10.363591 -0.100000
v 2.654271 11.650028 -0.100000
v 2.654271 11.071016 -0.100000
v 0.396323 10.017187 -0.100000
v 0.984687 8.846289 -0.100000
v 2.200000 12.500038 -0.030000
v 3.000000 12.500038 -0.030000
v 1.500012 11.502073 -0.750000
v 1.195120 8.852594 -0.750000
v 1.526335 9.586926 -0.750000
v 1.953119 10.202946 -0.750000
v 2.449593 10.687069 -0.750000
v 0.000000 0.000000 -0.750000
v 2.000000 12.000038 -0.750000
v 1.000000 0.000000 -0.750000
v 1.000000 8.018186 -0.750000
v 1.000025 11.004108 -0.750000
v 0.500037 10.506144 -0.750000
v 3.000000 11.008179 -0.750000
v 0.000025 10.008179 -0.750000
v 2.200000 12.500038 -0.750000
v 3.000000 12.500038 -0.750000
v 0.000000 0.000000 -1.500000
v 2.778628 11.778666 -1.500000
v 2.778628 11.135321 -1.500000
v 1.000000 0.000000 -1.500000
v 2.091432 11.778666 -1.500000
v 0.923535 8.663401 -1.500000
v 1.656229 11.345222 -1.500000
v 0.269797 9.964399 -1.500000
v 0.984469 8.923976 -1.500000
v 1.332853 9.696375 -1.500000
v 1.783298 10.346547 -1.500000
v 2.314530 10.864564 -1.500000
v 1.156241 10.847258 -1.500000
v 0.656254 10.349293 -1.500000
v 2.000000 12.000038 -1.500000
v 3.000000 12.000038 -1.500000
v 3.000000 11.008179 -1.500000
v 0.000050 10.008179 -1.500000
v 1.000000 8.018186 -1.500000
v 1.195120 8.852594 -1.500000
v 1.526335 9.586926 -1.500000
v 1.953119 10.202946 -1.500000
v 2.449593 10.687069 -1.500000
v 1.500012 11.502073 -1.500000
v 0.500037 10.506144 -1.500000
v 1.000025 11.004108 -1.500000
v 2.236583 10.827335 -1.400000
v 2.035795 11.650028 -1.400000
v 1.758474 10.361120 -1.400000
v 1.644112 11.259928 -1.400000
v 1.353074 9.775966 -1.400000
v 1.194123 10.811760 -1.400000
v 1.039528 9.080807 -1.400000
v 0.744134 10.363591 -1.400000
v 2.654271 11.650028 -1.400000
v 2.654271 11.071016 -1.400000
v 0.396323 10.017187 -1.400000
v 0.984687 8.846289 -1.400000
v 2.200000 12.500038 -1.470000
v 3.000000 12.500038 -1.470000
vn -0.9585 0.2241 -0.1762
vn -0.0000 -0.0000 1.0000
vn -0.6727 0.6899 0.2675
vn 0.6264 -0.6289 0.4605
vn 0.5274 0.2650 0.8072
vn -0.7901 0.5474 0.2759
vn 0.5039 -0.8638 -0.0000
vn 0.6981 -0.7160 -0.0000
vn 0.8220 -0.5695 -0.0000
vn 0.9116 -0.4112 -0.0000
vn 0.9737 -0.2277 -0.0000
vn -0.0000 -0.6137 0.7895
vn -0.9024 0.4070 0.1415
vn -0.5026 0.8616 0.0710
vn -0.6267 -0.0000 0.7793
vn -0.9285 0.3714 -0.0000
vn -0.0000 0.0599 0.9982
vn -0.0000 1.0000 -0.0000
vn -0.7057 0.7085 -0.0000
vn 1.0000 -0.0000 -0.0000
vn -1.0000 -0.0000 -0.0000
vn -0.9585 0.2241 0.1762
vn -0.0000 -0.0000 -1.0000
vn -0.6727 0.6899 -0.2675
vn 0.6264 -0.6289 -0.4605
vn 0.5274 0.2650 -0.8072
vn -0.7901 0.5474 -0.2759
vn -0.0000 -0.6137 -0.7895
vn -0.9024 0.4070 -0.1415
vn -0.5026 0.8616 -0.0710
vn -0.6267 -0.0000 -0.7793
vn -0.0000 0.0599 -0.9982
vt 0.139554 0.000251
vt 0.433088 0.999357
vt 0.188483 0.941332
vt 0.741466 0.646231
vt 0.856765 0.293703
vt 0.197438 0.892043
vt 0.836967 0.339721
vt 0.216168 0.014170
vt 0.667192 0.916034
vt 0.135835 0.931767
vt 0.706119 0.606057
vt 0.856765 0.586653
vt 0.741466 0.323491
vt 0.089721 0.676839
vt 0.108525 0.892501
vt 0.696939 0.559118
vt 0.021526 0.767413
vt 0.667694 0.409583
vt 0.090762 0.697651
vt 0.856136 0.565825
vt 0.106701 0.761676
vt 0.854374 0.499869
vt 0.850373 0.438409
vt 0.132162 0.817758
vt 0.165651 0.864840
vt 0.843608 0.381029
vt 0.077151 0.847391
vt 0.686392 0.505191
vt 0.045777 0.802281
vt 0.675845 0.451265
vt 0.771921 0.763533
vt 0.125748 0.947454
vt 0.433088 0.000251
vt 0.202362 0.961374
vt 0.667192 0.000251
vt 0.216168 0.885384
vt 0.000251 0.767013
vt 0.433088 0.220044
vt 0.104560 0.628471
vt 0.667192 0.291677
vt 0.667192 0.224950
vt 0.107894 0.695114
vt 0.667192 0.162222
vt 0.123048 0.755984
vt 0.667192 0.103867
vt 0.147171 0.809120
vt 0.667192 0.049870
vt 0.178469 0.853121
vt 0.094374 0.902344
vt 0.433088 0.055199
vt 0.031625 0.812123
vt 0.433088 0.165096
vt 0.062999 0.857233
vt 0.433088 0.110147
vt 0.821842 0.182143
vt 0.852380 0.386408
vt 0.770885 0.223996
vt 0.712782 0.594423
vt 0.858468 0.438050
vt 0.813856 0.130761
vt 0.764724 0.181394
vt 0.704520 0.552178
vt 0.815957 0.075369
vt 0.862069 0.493364
vt 0.757645 0.132449
vt 0.695028 0.503644
vt 0.828921 0.017420
vt 0.863655 0.552725
vt 0.750567 0.083505
vt 0.685536 0.455110
vt 0.809404 0.252903
vt 0.744595 0.630580
vt 0.864221 0.307815
vt 0.836466 0.216842
vt 0.846403 0.349231
vt 0.745096 0.045675
vt 0.678199 0.417597
vt 0.864221 0.571470
vt 0.744595 0.340114
vt 0.836466 0.000251
vt 0.134099 0.988614
vt 0.729988 0.761197
vt 0.195390 0.999749
vt 0.667694 0.761197
vt 0.491489 0.055199
vt 0.608792 0.224950
vt 0.608792 0.162222
vt 0.608792 0.103867
vt 0.608792 0.049870
vt 0.491489 0.999357
vt 0.771921 0.705133
vt 0.491489 0.000251
vt 0.608792 0.916034
vt 0.608792 0.291677
vt 0.491489 0.110147
vt 0.491489 0.165095
vt 0.608792 0.000251
vt 0.491489 0.220045
vt 0.729988 0.705133
vt 0.667694 0.705133
vt 0.355973 0.999749
vt 0.549890 0.999357
vt 0.404902 0.058668
vt 0.741466 0.000251
vt 0.856765 0.293202
vt 0.413856 0.107956
vt 0.836967 0.247183
vt 0.432586 0.985830
vt 0.550391 0.916034
vt 0.352253 0.068233
vt 0.706119 0.040424
vt 0.856765 0.000251
vt 0.741466 0.322990
vt 0.306139 0.323161
vt 0.324944 0.107498
vt 0.696939 0.087364
vt 0.237945 0.232586
vt 0.667694 0.236898
vt 0.307180 0.302349
vt 0.856136 0.021079
vt 0.323120 0.238323
vt 0.854374 0.087035
vt 0.850373 0.148496
vt 0.348580 0.182241
vt 0.382069 0.135160
vt 0.843608 0.205875
vt 0.293569 0.152609
vt 0.686392 0.141290
vt 0.262195 0.197719
vt 0.675845 0.195216
vt 0.771921 0.646732
vt 0.342167 0.052545
vt 0.549890 0.000251
vt 0.418780 0.038626
vt 0.550391 0.000251
vt 0.432586 0.114616
vt 0.216669 0.232987
vt 0.549889 0.220044
vt 0.320978 0.371528
vt 0.550391 0.291676
vt 0.550391 0.224950
vt 0.324313 0.304886
vt 0.550391 0.162222
vt 0.339467 0.244015
vt 0.550391 0.103867
vt 0.363589 0.190879
vt 0.550391 0.049870
vt 0.394887 0.146879
vt 0.310792 0.097656
vt 0.549890 0.055199
vt 0.248044 0.187876
vt 0.549889 0.165096
vt 0.279418 0.142766
vt 0.549890 0.110147
vt 0.821842 0.324164
vt 0.852380 0.200496
vt 0.770885 0.282311
vt 0.712782 0.052058
vt 0.858468 0.148854
vt 0.813856 0.375547
vt 0.764724 0.324914
vt 0.704520 0.094303
vt 0.815957 0.430938
vt 0.862069 0.093540
vt 0.757645 0.373858
vt 0.695028 0.142837
vt 0.828921 0.488888
vt 0.863655 0.034179
vt 0.750567 0.422802
vt 0.685536 0.191371
vt 0.809404 0.253404
vt 0.744595 0.015901
vt 0.864221 0.279090
vt 0.836466 0.289465
vt 0.846403 0.237673
vt 0.745096 0.460633
vt 0.678200 0.228884
vt 0.864221 0.015434
vt 0.744595 0.306367
vt 0.836466 0.506057
vt 0.350517 0.011386
vt 0.729988 0.649068
vt 0.411808 0.000251
vt 0.667694 0.649068
s 0
f 6/12/1 9/20/1 33/68/1 38/78/1
f 18/37/2 1/1/2 4/8/2 19/39/2
f 11/23/3 12/26/3 27/56/3 29/59/3
f 7/16/4 13/28/4 32/66/4 30/62/4
f 8/18/5 6/13/5 38/79/5 37/77/5
f 10/22/6 11/23/6 29/59/6 31/64/6
f 45/89/7 52/97/7 17/35/7 23/47/7
f 44/88/8 45/89/8 23/47/8 22/45/8
f 43/87/9 44/88/9 22/45/9 21/43/9
f 42/86/10 43/87/10 21/43/10 20/41/10
f 49/94/11 42/86/11 20/41/11 19/40/11
f 5/10/2 2/3/2 16/34/2 15/32/2
f 2/3/2 3/6/2 17/36/2 16/34/2
f 6/14/2 8/17/2 18/37/2 19/39/2
f 9/19/2 6/14/2 19/39/2 20/42/2
f 10/21/2 9/19/2 20/42/2 21/44/2
f 11/24/2 10/21/2 21/44/2 22/46/2
f 12/25/2 11/24/2 22/46/2 23/48/2
f 7/15/2 5/10/2 15/32/2 24/49/2
f 8/17/2 14/29/2 25/51/2 18/37/2
f 13/27/2 7/15/2 24/49/2 26/53/2
f 14/29/2 13/27/2 26/53/2 25/51/2
f 3/6/2 12/25/2 23/48/2 17/36/2
f 30/61/2 29/60/2 27/55/2 28/57/2
f 32/65/2 31/63/2 29/60/2 30/61/2
f 28/57/2 27/55/2 36/74/2 35/71/2
f 33/67/2 31/63/2 32/65/2 34/69/2
f 38/80/2 33/67/2 34/69/2 37/76/2
f 13/28/4 14/30/4 34/70/4 32/66/4
f 2/4/12 5/11/12 28/58/12 35/72/12
f 5/11/4 7/16/4 30/62/4 28/58/4
f 9/20/13 10/22/13 31/64/13 33/68/13
f 12/26/14 3/7/14 36/75/14 27/56/14
f 3/7/15 2/5/15 35/73/15 36/75/15
f 14/30/4 8/18/4 37/77/4 34/70/4
f 47/91/16 15/31/16 39/82/16 54/99/16
f 15/32/17 16/34/17 40/83/17 39/81/17
f 40/84/18 55/100/18 54/99/18 39/82/18
f 18/38/19 25/52/19 51/96/19 53/98/19
f 25/52/19 26/54/19 50/95/19 51/96/19
f 4/9/20 48/93/20 49/94/20 19/40/20
f 18/38/21 53/98/21 46/90/21 1/2/21
f 24/50/19 15/33/19 47/92/19 41/85/19
f 26/54/19 24/50/19 41/85/19 50/95/19
f 61/112/22 93/178/22 88/168/22 64/120/22
f 73/137/23 74/139/23 59/108/23 56/101/23
f 66/123/24 84/159/24 82/156/24 67/126/24
f 62/116/25 85/162/25 87/166/25 68/128/25
f 63/118/26 92/177/26 93/179/26 61/113/26
f 65/122/27 86/164/27 84/159/27 66/123/27
f 45/89/7 78/147/7 72/135/7 52/97/7
f 44/88/8 77/145/8 78/147/8 45/89/8
f 43/87/9 76/143/9 77/145/9 44/88/9
f 42/86/10 75/141/10 76/143/10 43/87/10
f 49/94/11 74/140/11 75/141/11 42/86/11
f 60/110/23 70/132/23 71/134/23 57/103/23
f 57/103/23 71/134/23 72/136/23 58/106/23
f 61/114/23 74/139/23 73/137/23 63/117/23
f 64/119/23 75/142/23 74/139/23 61/114/23
f 65/121/23 76/144/23 75/142/23 64/119/23
f 66/124/23 77/146/23 76/144/23 65/121/23
f 67/125/23 78/148/23 77/146/23 66/124/23
f 62/115/23 79/149/23 70/132/23 60/110/23
f 63/117/23 73/137/23 80/151/23 69/129/23
f 68/127/23 81/153/23 79/149/23 62/115/23
f 69/129/23 80/151/23 81/153/23 68/127/23
f 58/106/23 72/136/23 78/148/23 67/125/23
f 85/161/23 83/157/23 82/155/23 84/160/23
f 87/165/23 85/161/23 84/160/23 86/163/23
f 83/157/23 90/171/23 91/174/23 82/155/23
f 88/167/23 89/169/23 87/165/23 86/163/23
f 93/180/23 92/176/23 89/169/23 88/167/23
f 68/128/25 87/166/25 89/170/25 69/130/25
f 57/104/28 90/172/28 83/158/28 60/111/28
f 60/111/25 83/158/25 85/162/25 62/116/25
f 64/120/29 88/168/29 86/164/29 65/122/29
f 67/126/30 82/156/30 91/175/30 58/107/30
f 58/107/31 91/175/31 90/173/31 57/105/31
f 69/130/25 89/170/25 92/177/25 63/118/25
f 47/91/16 54/99/16 94/182/16 70/131/16
f 70/132/32 94/181/32 95/183/32 71/134/32
f 95/184/18 94/182/18 54/99/18 55/100/18
f 73/138/19 53/98/19 51/96/19 80/152/19
f 80/152/19 51/96/19 50/95/19 81/154/19
f 59/109/20 74/140/20 49/94/20 48/93/20
f 73/138/21 56/102/21 46/90/21 53/98/21
f 79/150/19 41/85/19 47/92/19 70/133/19
f 81/154/19 50/95/19 41/85/19 79/150/19
