# Blender 3.4.1
# www.blender.org
mtllib 3x6_wall_column.mtl
o 3x6_wall_column
v 0.000000 0.000000 -0.000000
v 3.000000 0.000000 -0.000000
v 0.000000 6.000000 0.000000
v 3.000000 6.000000 0.000000
v 0.750000 0.000000 -0.000000
v 1.500000 0.000000 -0.000000
v 2.250000 0.000000 -0.000000
v 2.250000 6.000000 0.000000
v 1.500000 6.000000 0.000000
v 0.750000 6.000000 0.000000
v 0.000000 4.500000 0.000000
v 0.000000 3.000000 0.000000
v 0.000000 1.500000 -0.000000
v 3.000000 1.500000 -0.000000
v 3.000000 3.000000 0.000000
v 3.000000 4.500000 0.000000
v 0.750000 1.500000 -0.000000
v 0.750000 3.000000 0.000000
v 0.750000 4.500000 0.000000
v 1.500000 1.500000 -0.000000
v 1.500000 3.000000 0.000000
v 1.500000 4.500000 0.000000
v 2.250000 1.500000 -0.000000
v 2.250000 3.000000 0.000000
v 2.250000 4.500000 0.000000
v 0.823448 4.594957 0.031931
v 1.426552 4.573448 0.031931
v 1.394289 5.894289 0.031931
v 0.848542 5.937307 0.031931
v 1.577033 4.594957 0.031931
v 2.187307 4.616466 0.031931
v 2.144289 5.926552 0.031931
v 1.605711 5.897874 0.031931
v 1.559108 0.077033 0.031931
v 2.183722 0.091372 0.031931
v 2.187307 1.426552 0.031931
v 1.591372 1.426552 0.031931
v 1.573448 1.573448 0.031931
v 2.180137 1.594957 0.031931
v 2.172967 2.905043 0.031931
v 1.591372 2.926552 0.031931
v 1.591372 3.084203 0.031931
v 2.183722 3.087787 0.031931
v 2.183722 4.430137 0.031931
v 1.559108 4.390704 0.031931
v 0.812693 0.094957 0.031931
v 1.401458 0.094957 0.031931
v 1.426552 1.426552 0.031931
v 0.809108 1.412213 0.031931
v 0.827033 1.584202 0.031931
v 1.426552 1.573448 0.031931
v 1.408628 2.922967 0.031931
v 0.819863 2.912213 0.031931
v 0.809108 3.073448 0.031931
v 1.444476 3.073448 0.031931
v 1.426552 4.426552 0.031931
v 0.805524 4.440892 0.031931
vn -0.0000 -0.0000 1.0000
vn -0.0056 -0.3546 0.9350
vn 0.3351 0.0038 0.9422
vn 0.0118 0.3541 0.9351
vn -0.3486 0.0031 0.9373
vn 0.0046 -0.2894 0.9572
vn 0.3558 0.0054 0.9346
vn -0.0076 0.3418 0.9397
vn -0.3298 0.0034 0.9441
vn 0.0037 -0.3544 0.9351
vn 0.4437 -0.0006 0.8962
vn -0.0000 0.3987 0.9171
vn -0.3907 0.0044 0.9205
vn 0.0056 -0.3547 0.9350
vn 0.3987 0.0010 0.9171
vn 0.0057 0.3550 0.9349
vn -0.3613 0.0023 0.9325
vn 0.0009 -0.3482 0.9374
vn 0.4340 -0.0000 0.9009
vn -0.0096 0.3361 0.9418
vn -0.3913 -0.0045 0.9203
vn -0.0000 -0.3187 0.9478
vn 0.3477 -0.0031 0.9376
vn -0.0039 0.3685 0.9296
vn -0.4643 -0.0006 0.8857
vn -0.0030 -0.3754 0.9269
vn 0.3612 0.0023 0.9325
vn -0.0029 0.3616 0.9323
vn -0.3987 -0.0010 0.9171
vn -0.0000 -0.3987 0.9171
vn 0.4437 0.0028 0.8962
vn 0.0045 0.4335 0.9011
vn -0.4866 -0.0006 0.8736
vt 0.000214 0.000214
vt 0.250535 0.000214
vt 0.000214 0.999786
vt 0.250535 0.999786
vt 0.125161 0.000214
vt 0.597045 0.334077
vt 0.598711 0.332940
vt 0.265554 0.335374
vt 0.263732 0.336808
vt 0.433275 0.334128
vt 0.432192 0.333008
vt 0.125589 0.000214
vt 0.429324 0.335661
vt 0.430883 0.336822
vt 0.125589 0.999786
vt 0.598356 0.994759
vt 0.597297 0.996250
vt 0.600029 0.336937
vt 0.600961 0.336005
vt 0.433527 0.996100
vt 0.432569 0.995113
vt 0.125161 0.999786
vt 0.764729 0.335374
vt 0.765894 0.337136
vt 0.000214 0.749893
vt 0.000214 0.500000
vt 0.000214 0.250107
vt 0.250535 0.250107
vt 0.250535 0.500000
vt 0.250535 0.749893
vt 0.125161 0.250107
vt 0.596970 0.004186
vt 0.598711 0.005401
vt 0.265088 0.666736
vt 0.263732 0.667988
vt 0.125161 0.500000
vt 0.265384 0.996745
vt 0.263879 0.995527
vt 0.429386 0.334758
vt 0.431143 0.333312
vt 0.125161 0.749893
vt 0.764457 0.665806
vt 0.765894 0.664675
vt 0.429234 0.003972
vt 0.431143 0.005773
vt 0.265435 0.665770
vt 0.264273 0.664347
vt 0.764528 0.334495
vt 0.766034 0.332994
vt 0.431704 0.005469
vt 0.433201 0.003972
vt 0.428857 0.666377
vt 0.430346 0.667862
vt 0.764822 0.003972
vt 0.766034 0.005455
vt 0.597452 0.665443
vt 0.598616 0.664184
vt 0.430346 0.995401
vt 0.429154 0.996799
vt 0.265616 0.334812
vt 0.263732 0.333344
vt 0.600688 0.665988
vt 0.599177 0.664475
vt 0.432887 0.666384
vt 0.431444 0.667576
vt 0.596864 0.335653
vt 0.598616 0.336645
vt 0.264074 0.005805
vt 0.265465 0.004411
vt 0.125589 0.250107
vt 0.430883 0.664361
vt 0.429205 0.665815
vt 0.600759 0.333975
vt 0.599273 0.332853
vt 0.125589 0.500000
vt 0.599714 0.005314
vt 0.601053 0.004213
vt 0.433683 0.665707
vt 0.432096 0.664487
vt 0.125589 0.749893
vt 0.596657 0.666268
vt 0.598356 0.667220
vt 0.431444 0.336948
vt 0.433095 0.335374
vt 0.748405 0.643940
vt 0.616706 0.648482
vt 0.624091 0.360073
vt 0.743271 0.350819
vt 0.449724 0.688248
vt 0.582993 0.692651
vt 0.574230 0.978741
vt 0.456613 0.972738
vt 0.278429 0.353605
vt 0.414818 0.356774
vt 0.415520 0.648323
vt 0.285392 0.648287
vt 0.748546 0.316956
vt 0.616074 0.312141
vt 0.617895 0.026072
vt 0.744896 0.021489
vt 0.577469 0.645811
vt 0.448122 0.645286
vt 0.447539 0.352171
vt 0.583946 0.360511
vt 0.583348 0.312205
vt 0.454786 0.312245
vt 0.449216 0.021481
vt 0.584041 0.024570
vt 0.281949 0.686365
vt 0.412858 0.683900
vt 0.409208 0.978583
vt 0.280644 0.976350
vt 0.416473 0.317274
vt 0.277734 0.317320
vt 0.281550 0.021856
vt 0.417156 0.018680
s 0
f 25/80/1 16/30/1 4/4/1 8/15/1
f 11/25/1 19/41/1 10/22/1 3/3/1
f 26/85/1 27/86/1 28/87/1 29/88/1
f 30/89/1 31/90/1 32/91/1 33/92/1
f 34/93/1 35/94/1 36/95/1 37/96/1
f 38/97/1 39/98/1 40/99/1 41/100/1
f 42/101/1 43/102/1 44/103/1 45/104/1
f 46/105/1 47/106/1 48/107/1 49/108/1
f 50/109/1 51/110/1 52/111/1 53/112/1
f 54/113/1 55/114/1 56/115/1 57/116/1
f 1/1/1 5/5/1 17/31/1 13/27/1
f 13/27/1 17/31/1 18/36/1 12/26/1
f 12/26/1 18/36/1 19/41/1 11/25/1
f 7/12/1 2/2/1 14/28/1 23/70/1
f 23/70/1 14/28/1 15/29/1 24/75/1
f 24/75/1 15/29/1 16/30/1 25/80/1
f 19/42/2 22/62/2 27/86/2 26/85/2
f 22/63/3 9/18/3 28/87/3 27/86/3
f 9/19/4 10/23/4 29/88/4 28/87/4
f 10/24/5 19/43/5 26/85/5 29/88/5
f 22/64/6 25/81/6 31/90/6 30/89/6
f 25/82/7 8/16/7 32/91/7 31/90/7
f 8/17/8 9/20/8 33/92/8 32/91/8
f 9/21/9 22/65/9 30/89/9 33/92/9
f 6/8/10 7/13/10 35/94/10 34/93/10
f 7/14/11 23/71/11 36/95/11 35/94/11
f 23/72/12 20/46/12 37/96/12 36/95/12
f 20/47/13 6/9/13 34/93/13 37/96/13
f 20/48/14 23/73/14 39/98/14 38/97/14
f 23/74/15 24/76/15 40/99/15 39/98/15
f 24/77/16 21/54/16 41/100/16 40/99/16
f 21/55/17 20/49/17 38/97/17 41/100/17
f 21/56/18 24/78/18 43/102/18 42/101/18
f 24/79/19 25/83/19 44/103/19 43/102/19
f 25/84/20 22/66/20 45/104/20 44/103/20
f 22/67/21 21/57/21 42/101/21 45/104/21
f 5/6/22 6/10/22 47/106/22 46/105/22
f 6/11/23 20/50/23 48/107/23 47/106/23
f 20/51/24 17/32/24 49/108/24 48/107/24
f 17/33/25 5/7/25 46/105/25 49/108/25
f 17/34/26 20/52/26 51/110/26 50/109/26
f 20/53/27 21/58/27 52/111/27 51/110/27
f 21/59/28 18/37/28 53/112/28 52/111/28
f 18/38/29 17/35/29 50/109/29 53/112/29
f 18/39/30 21/60/30 55/114/30 54/113/30
f 21/61/31 22/68/31 56/115/31 55/114/31
f 22/69/32 19/44/32 57/116/32 56/115/32
f 19/45/33 18/40/33 54/113/33 57/116/33
