# Blender 3.4.1
# www.blender.org
mtllib 4X3_stairs_top.mtl
o 4X3_stairs_top
v -0.000000 0.000000 -0.000000
v 4.000000 -0.000000 -0.000000
v 0.000000 0.367017 -0.000000
v 2.906386 3.000000 -0.000000
v 2.543088 3.000000 -0.000000
v 2.543088 2.546807 -0.000000
v 2.179790 2.546807 -0.000000
v 2.179790 2.183509 -0.000000
v 1.816491 2.183509 -0.000000
v 1.816491 1.820210 -0.000000
v 1.453193 1.820210 -0.000000
v 1.453193 1.456912 -0.000000
v 1.089895 1.456912 -0.000000
v 1.089895 1.093614 -0.000000
v 0.726597 1.093614 -0.000000
v 0.726597 0.730316 -0.000000
v 0.363298 0.730316 -0.000000
v 0.363298 0.367017 -0.000000
v 4.000000 3.000000 -0.000000
v 4.000000 2.546807 -0.000000
v 4.000000 2.183509 -0.000000
v 4.000000 1.820210 -0.000000
v 4.000000 1.456912 -0.000000
v 4.000000 1.093614 -0.000000
v 4.000000 0.730315 -0.000000
v 4.000000 0.367017 -0.000000
v 3.632984 -0.000000 -0.000000
v 3.269684 -0.000000 -0.000000
v 2.906388 -0.000000 -0.000000
v 2.543087 -0.000000 -0.000000
v 2.179790 -0.000000 -0.000000
v 1.453196 -0.000000 -0.000000
v 1.089893 -0.000000 -0.000000
v 0.726599 -0.000000 -0.000000
v 0.363296 -0.000000 -0.000000
v 3.632984 0.367017 -0.000000
v 3.632984 0.730315 -0.000000
v 3.632984 1.093614 -0.000000
v 3.632984 1.456912 -0.000000
v 3.632983 1.820210 -0.000000
v 3.632983 2.183509 -0.000000
v 3.632983 2.546807 -0.000000
v 3.632983 3.000000 -0.000000
v 3.269684 0.367017 -0.000000
v 3.269684 0.730315 -0.000000
v 3.269684 1.093614 -0.000000
v 3.269684 1.456912 -0.000000
v 3.269684 1.820210 -0.000000
v 3.269684 2.183509 -0.000000
v 3.269684 2.546807 -0.000000
v 3.269685 3.000000 -0.000000
v 2.906388 0.367017 -0.000000
v 2.906387 0.730315 -0.000000
v 2.906387 1.093614 -0.000000
v 2.906387 1.456912 -0.000000
v 2.906387 1.820210 -0.000000
v 2.906387 2.183509 -0.000000
v 2.906386 2.546807 -0.000000
v 2.543087 0.367017 -0.000000
v 2.543087 0.730315 -0.000000
v 2.543087 1.093614 -0.000000
v 2.543087 1.456912 -0.000000
v 2.543087 1.820210 -0.000000
v 2.543088 2.183509 -0.000000
v 2.179790 0.367017 -0.000000
v 2.179790 0.730315 -0.000000
v 2.179790 1.093614 -0.000000
v 2.179790 1.456912 -0.000000
v 2.179790 1.820210 -0.000000
v 1.816489 -0.000000 -0.000000
v 1.816490 0.367017 -0.000000
v 1.816490 0.730315 -0.000000
v 1.816490 1.093614 -0.000000
v 1.816491 1.456912 -0.000000
v 1.453195 0.367017 -0.000000
v 1.453194 0.730315 -0.000000
v 1.453194 1.093614 -0.000000
v 1.089894 0.367017 -0.000000
v 1.089894 0.730316 -0.000000
v 0.726598 0.367017 -0.000000
v -0.000000 0.000000 -4.000000
v 4.000000 0.000000 -4.000000
v -0.000000 0.367017 -4.000000
v 2.906386 3.000000 -4.000000
v 2.543088 3.000000 -4.000000
v 2.543087 2.546807 -4.000000
v 2.179790 2.546807 -4.000000
v 2.179790 2.183509 -4.000000
v 1.816491 2.183509 -4.000000
v 1.816491 1.820210 -4.000000
v 1.453193 1.820210 -4.000000
v 1.453193 1.456912 -4.000000
v 1.089895 1.456912 -4.000000
v 1.089894 1.093614 -4.000000
v 0.726596 1.093614 -4.000000
v 0.726596 0.730316 -4.000000
v 0.363298 0.730316 -4.000000
v 0.363298 0.367017 -4.000000
v 4.000000 3.000000 -4.000000
v 4.000000 2.546807 -4.000000
v 4.000000 2.183509 -4.000000
v 4.000000 1.820210 -4.000000
v 4.000000 1.456912 -4.000000
v 4.000000 1.093614 -4.000000
v 4.000000 0.730315 -4.000000
v 4.000000 0.367017 -4.000000
v 3.632984 0.000000 -4.000000
v 3.269684 0.000000 -4.000000
v 2.906387 0.000000 -4.000000
v 2.543087 0.000000 -4.000000
v 2.179790 0.000000 -4.000000
v 1.453196 0.000000 -4.000000
v 1.089893 0.000000 -4.000000
v 0.726599 0.000000 -4.000000
v 0.363295 0.000000 -4.000000
v 3.632984 0.367017 -4.000000
v 3.632983 0.730315 -4.000000
v 3.632983 1.093614 -4.000000
v 3.632983 1.456912 -4.000000
v 3.632983 1.820210 -4.000000
v 3.632983 2.183509 -4.000000
v 3.632983 2.546807 -4.000000
v 3.632983 3.000000 -4.000000
v 3.269684 0.367017 -4.000000
v 3.269684 0.730315 -4.000000
v 3.269684 1.093614 -4.000000
v 3.269684 1.456912 -4.000000
v 3.269684 1.820210 -4.000000
v 3.269684 2.183509 -4.000000
v 3.269684 2.546807 -4.000000
v 3.269684 3.000000 -4.000000
v 2.906387 0.367017 -4.000000
v 2.906387 0.730315 -4.000000
v 2.906387 1.093614 -4.000000
v 2.906387 1.456912 -4.000000
v 2.906387 1.820210 -4.000000
v 2.906386 2.183509 -4.000000
v 2.906386 2.546807 -4.000000
v 2.543087 0.367017 -4.000000
v 2.543087 0.730316 -4.000000
v 2.543087 1.093614 -4.000000
v 2.543087 1.456912 -4.000000
v 2.543087 1.820210 -4.000000
v 2.543087 2.183509 -4.000000
v 2.179790 0.367017 -4.000000
v 2.179790 0.730316 -4.000000
v 2.179790 1.093614 -4.000000
v 2.179790 1.456912 -4.000000
v 2.179790 1.820210 -4.000000
v 1.816489 0.000000 -4.000000
v 1.816489 0.367017 -4.000000
v 1.816490 0.730316 -4.000000
v 1.816490 1.093614 -4.000000
v 1.816491 1.456912 -4.000000
v 1.453195 0.367017 -4.000000
v 1.453194 0.730316 -4.000000
v 1.453193 1.093614 -4.000000
v 1.089893 0.367017 -4.000000
v 1.089894 0.730316 -4.000000
v 0.726597 0.367017 -4.000000
vn -1.0000 -0.0000 -0.0000
vn -0.0000 1.0000 -0.0000
vn 1.0000 -0.0000 -0.0000
vn -0.0000 -0.0000 1.0000
vn -0.0000 -0.0000 -1.0000
vt 0.399781 0.000157
vt 0.699812 0.400094
vt 0.699812 0.799718
vt 0.999843 0.000157
vt 0.399781 0.036824
vt 0.663145 0.400094
vt 0.400094 0.690459
vt 0.399781 0.590240
vt 0.400094 0.654164
vt 0.399781 0.553944
vt 0.445371 0.654164
vt 0.399781 0.508668
vt 0.445371 0.617868
vt 0.399781 0.472372
vt 0.481666 0.617868
vt 0.399781 0.436076
vt 0.481666 0.581572
vt 0.399781 0.399781
vt 0.517962 0.581572
vt 0.399781 0.363485
vt 0.517962 0.545277
vt 0.399781 0.327189
vt 0.554258 0.545277
vt 0.399781 0.290894
vt 0.554258 0.508981
vt 0.399781 0.254598
vt 0.590553 0.508981
vt 0.399781 0.218302
vt 0.590553 0.472685
vt 0.399781 0.182007
vt 0.626849 0.472685
vt 0.399781 0.145711
vt 0.626849 0.436390
vt 0.399781 0.109415
vt 0.663145 0.436390
vt 0.399781 0.073120
vt 0.700125 0.000157
vt 0.400094 0.799718
vt 0.399781 0.699499
vt 0.745402 0.000157
vt 0.445371 0.799718
vt 0.781698 0.000157
vt 0.481666 0.799718
vt 0.817993 0.000157
vt 0.517962 0.799718
vt 0.854289 0.000157
vt 0.554258 0.799718
vt 0.890585 0.000157
vt 0.590553 0.799718
vt 0.926880 0.000157
vt 0.626849 0.799718
vt 0.663145 0.799718
vt 0.963176 0.000157
vt 0.699812 0.763051
vt 0.699812 0.726755
vt 0.699812 0.690460
vt 0.699812 0.654164
vt 0.699812 0.617868
vt 0.699812 0.545277
vt 0.699812 0.508981
vt 0.699812 0.472686
vt 0.699812 0.436389
vt 0.663145 0.763051
vt 0.626849 0.763051
vt 0.590553 0.763051
vt 0.554258 0.763051
vt 0.517962 0.763051
vt 0.481666 0.763051
vt 0.445371 0.763051
vt 0.400094 0.763051
vt 0.399781 0.662831
vt 0.663145 0.726755
vt 0.626849 0.726755
vt 0.590553 0.726755
vt 0.554258 0.726755
vt 0.517962 0.726755
vt 0.481666 0.726755
vt 0.445371 0.726755
vt 0.400094 0.726755
vt 0.399781 0.626536
vt 0.663145 0.690460
vt 0.626849 0.690459
vt 0.590553 0.690459
vt 0.554258 0.690459
vt 0.517962 0.690459
vt 0.481666 0.690459
vt 0.445371 0.690459
vt 0.663145 0.654164
vt 0.626849 0.654164
vt 0.590553 0.654164
vt 0.554258 0.654164
vt 0.517962 0.654164
vt 0.481666 0.654164
vt 0.663145 0.617868
vt 0.626849 0.617868
vt 0.590553 0.617868
vt 0.554258 0.617868
vt 0.517962 0.617868
vt 0.699812 0.581572
vt 0.663145 0.581572
vt 0.626849 0.581572
vt 0.590553 0.581572
vt 0.554258 0.581572
vt 0.663145 0.545277
vt 0.626849 0.545277
vt 0.590553 0.545277
vt 0.663145 0.508981
vt 0.626849 0.508981
vt 0.663145 0.472686
vt 0.000157 0.000157
vt 0.699812 0.399781
vt 0.999843 0.399781
vt 0.699812 0.000157
vt 0.000157 0.036824
vt 0.663145 0.399781
vt 0.000157 0.590240
vt 0.400094 0.109415
vt 0.000157 0.553944
vt 0.400094 0.145711
vt 0.000157 0.508668
vt 0.445371 0.145711
vt 0.000157 0.472372
vt 0.445371 0.182007
vt 0.000157 0.436076
vt 0.481666 0.182007
vt 0.000157 0.399781
vt 0.481666 0.218302
vt 0.000157 0.363485
vt 0.517962 0.218302
vt 0.000157 0.327189
vt 0.517962 0.254598
vt 0.000157 0.290894
vt 0.554258 0.254598
vt 0.000157 0.254598
vt 0.554258 0.290894
vt 0.000157 0.218302
vt 0.590553 0.290894
vt 0.000157 0.182007
vt 0.590553 0.327189
vt 0.000157 0.145711
vt 0.626849 0.327189
vt 0.000157 0.109415
vt 0.626849 0.363485
vt 0.000157 0.073120
vt 0.663145 0.363485
vt 0.700125 0.399781
vt 0.000157 0.699499
vt 0.400094 0.000157
vt 0.745402 0.399781
vt 0.445371 0.000157
vt 0.781698 0.399781
vt 0.481666 0.000157
vt 0.817993 0.399781
vt 0.517962 0.000157
vt 0.854289 0.399781
vt 0.554258 0.000157
vt 0.890585 0.399781
vt 0.590553 0.000157
vt 0.926880 0.399781
vt 0.626849 0.000157
vt 0.963176 0.399781
vt 0.663145 0.000157
vt 0.699812 0.036824
vt 0.699812 0.073120
vt 0.699812 0.109415
vt 0.699812 0.145711
vt 0.699812 0.182007
vt 0.699812 0.254598
vt 0.699812 0.290894
vt 0.699812 0.327189
vt 0.699812 0.363485
vt 0.663145 0.036824
vt 0.626849 0.036824
vt 0.590553 0.036824
vt 0.554258 0.036824
vt 0.517962 0.036824
vt 0.481666 0.036824
vt 0.445371 0.036824
vt 0.000157 0.662831
vt 0.400094 0.036824
vt 0.663145 0.073120
vt 0.626849 0.073120
vt 0.590553 0.073120
vt 0.554258 0.073120
vt 0.517962 0.073120
vt 0.481666 0.073120
vt 0.445371 0.073120
vt 0.000157 0.626536
vt 0.400094 0.073120
vt 0.663145 0.109415
vt 0.626849 0.109415
vt 0.590553 0.109415
vt 0.554258 0.109415
vt 0.517962 0.109415
vt 0.481666 0.109415
vt 0.445371 0.109415
vt 0.663145 0.145711
vt 0.626849 0.145711
vt 0.590553 0.145711
vt 0.554258 0.145711
vt 0.517962 0.145711
vt 0.481666 0.145711
vt 0.663145 0.182007
vt 0.626849 0.182007
vt 0.590553 0.182007
vt 0.554258 0.182007
vt 0.517962 0.182007
vt 0.699812 0.218302
vt 0.663145 0.218302
vt 0.626849 0.218302
vt 0.590553 0.218302
vt 0.554258 0.218302
vt 0.663145 0.254598
vt 0.626849 0.254598
vt 0.590553 0.254598
vt 0.663145 0.290894
vt 0.626849 0.290894
vt 0.663145 0.327189
s 0
f 81/110/1 1/1/1 3/5/1 83/114/1
f 98/144/2 83/114/2 3/5/2 18/36/2
f 20/40/3 100/149/3 99/146/3 19/37/3
f 21/42/3 101/151/3 100/149/3 20/40/3
f 22/44/3 102/153/3 101/151/3 21/42/3
f 23/46/3 103/155/3 102/153/3 22/44/3
f 24/48/3 104/157/3 103/155/3 23/46/3
f 25/50/3 105/159/3 104/157/3 24/48/3
f 42/69/4 20/41/4 19/38/4 43/70/4
f 41/68/4 21/43/4 20/41/4 42/69/4
f 40/67/4 22/45/4 21/43/4 41/68/4
f 39/66/4 23/47/4 22/45/4 40/67/4
f 38/65/4 24/49/4 23/47/4 39/66/4
f 37/64/4 25/51/4 24/49/4 38/65/4
f 80/109/4 16/31/4 17/33/4 18/35/4
f 35/62/4 18/35/4 3/6/4 1/2/4
f 43/71/2 19/39/2 99/147/2 123/179/2
f 26/53/3 106/161/3 105/159/3 25/50/3
f 50/78/4 42/69/4 43/70/4 51/79/4
f 49/77/4 41/68/4 42/69/4 50/78/4
f 48/76/4 40/67/4 41/68/4 49/77/4
f 47/75/4 39/66/4 40/67/4 48/76/4
f 46/74/4 38/65/4 39/66/4 47/75/4
f 45/73/4 37/64/4 38/65/4 46/74/4
f 26/52/4 25/51/4 37/64/4 36/63/4
f 2/3/4 26/52/4 36/63/4 27/54/4
f 58/87/4 50/78/4 51/79/4 4/7/4
f 57/86/4 49/77/4 50/78/4 58/87/4
f 56/85/4 48/76/4 49/77/4 57/86/4
f 55/84/4 47/75/4 48/76/4 56/85/4
f 54/83/4 46/74/4 47/75/4 55/84/4
f 53/82/4 45/73/4 46/74/4 54/83/4
f 36/63/4 37/64/4 45/73/4 44/72/4
f 27/54/4 36/63/4 44/72/4 28/55/4
f 64/93/4 57/86/4 58/87/4 6/11/4
f 63/92/4 56/85/4 57/86/4 64/93/4
f 62/91/4 55/84/4 56/85/4 63/92/4
f 61/90/4 54/83/4 55/84/4 62/91/4
f 60/89/4 53/82/4 54/83/4 61/90/4
f 44/72/4 45/73/4 53/82/4 52/81/4
f 28/55/4 44/72/4 52/81/4 29/56/4
f 6/11/4 58/87/4 4/7/4 5/9/4
f 69/98/4 63/92/4 64/93/4 8/15/4
f 68/97/4 62/91/4 63/92/4 69/98/4
f 67/96/4 61/90/4 62/91/4 68/97/4
f 66/95/4 60/89/4 61/90/4 67/96/4
f 52/81/4 53/82/4 60/89/4 59/88/4
f 29/56/4 52/81/4 59/88/4 30/57/4
f 8/15/4 64/93/4 6/11/4 7/13/4
f 74/103/4 68/97/4 69/98/4 10/19/4
f 73/102/4 67/96/4 68/97/4 74/103/4
f 72/101/4 66/95/4 67/96/4 73/102/4
f 59/88/4 60/89/4 66/95/4 65/94/4
f 30/57/4 59/88/4 65/94/4 31/58/4
f 10/19/4 69/98/4 8/15/4 9/17/4
f 77/106/4 73/102/4 74/103/4 12/23/4
f 76/105/4 72/101/4 73/102/4 77/106/4
f 65/94/4 66/95/4 72/101/4 71/100/4
f 31/58/4 65/94/4 71/100/4 70/99/4
f 12/23/4 74/103/4 10/19/4 11/21/4
f 79/108/4 76/105/4 77/106/4 14/27/4
f 71/100/4 72/101/4 76/105/4 75/104/4
f 70/99/4 71/100/4 75/104/4 32/59/4
f 14/27/4 77/106/4 12/23/4 13/25/4
f 75/104/4 76/105/4 79/108/4 78/107/4
f 32/59/4 75/104/4 78/107/4 33/60/4
f 16/31/4 79/108/4 14/27/4 15/29/4
f 33/60/4 78/107/4 80/109/4 34/61/4
f 78/107/4 79/108/4 16/31/4 80/109/4
f 34/61/4 80/109/4 18/35/4 35/62/4
f 97/142/1 98/144/1 18/36/1 17/34/1
f 96/140/2 97/142/2 17/34/2 16/32/2
f 95/138/1 96/140/1 16/32/1 15/30/1
f 94/136/2 95/138/2 15/30/2 14/28/2
f 93/134/1 94/136/1 14/28/1 13/26/1
f 92/132/2 93/134/2 13/26/2 12/24/2
f 91/130/1 92/132/1 12/24/1 11/22/1
f 90/128/2 91/130/2 11/22/2 10/20/2
f 89/126/1 90/128/1 10/20/1 9/18/1
f 88/124/2 89/126/2 9/18/2 8/16/2
f 87/122/1 88/124/1 8/16/1 7/14/1
f 86/120/2 87/122/2 7/14/2 6/12/2
f 85/118/1 86/120/1 6/12/1 5/10/1
f 84/116/2 85/118/2 5/10/2 4/8/2
f 2/4/3 82/112/3 106/161/3 26/53/3
f 4/8/2 51/80/2 131/188/2 84/116/2
f 122/178/5 123/180/5 99/148/5 100/150/5
f 121/177/5 122/178/5 100/150/5 101/152/5
f 120/176/5 121/177/5 101/152/5 102/154/5
f 119/175/5 120/176/5 102/154/5 103/156/5
f 118/174/5 119/175/5 103/156/5 104/158/5
f 117/173/5 118/174/5 104/158/5 105/160/5
f 160/218/5 98/145/5 97/143/5 96/141/5
f 115/171/5 81/111/5 83/115/5 98/145/5
f 51/80/2 43/71/2 123/179/2 131/188/2
f 130/187/5 131/189/5 123/180/5 122/178/5
f 129/186/5 130/187/5 122/178/5 121/177/5
f 128/185/5 129/186/5 121/177/5 120/176/5
f 127/184/5 128/185/5 120/176/5 119/175/5
f 126/183/5 127/184/5 119/175/5 118/174/5
f 125/182/5 126/183/5 118/174/5 117/173/5
f 106/162/5 116/172/5 117/173/5 105/160/5
f 82/113/5 107/163/5 116/172/5 106/162/5
f 138/196/5 84/117/5 131/189/5 130/187/5
f 137/195/5 138/196/5 130/187/5 129/186/5
f 136/194/5 137/195/5 129/186/5 128/185/5
f 135/193/5 136/194/5 128/185/5 127/184/5
f 134/192/5 135/193/5 127/184/5 126/183/5
f 133/191/5 134/192/5 126/183/5 125/182/5
f 116/172/5 124/181/5 125/182/5 117/173/5
f 107/163/5 108/164/5 124/181/5 116/172/5
f 144/202/5 86/121/5 138/196/5 137/195/5
f 143/201/5 144/202/5 137/195/5 136/194/5
f 142/200/5 143/201/5 136/194/5 135/193/5
f 141/199/5 142/200/5 135/193/5 134/192/5
f 140/198/5 141/199/5 134/192/5 133/191/5
f 124/181/5 132/190/5 133/191/5 125/182/5
f 108/164/5 109/165/5 132/190/5 124/181/5
f 86/121/5 85/119/5 84/117/5 138/196/5
f 149/207/5 88/125/5 144/202/5 143/201/5
f 148/206/5 149/207/5 143/201/5 142/200/5
f 147/205/5 148/206/5 142/200/5 141/199/5
f 146/204/5 147/205/5 141/199/5 140/198/5
f 132/190/5 139/197/5 140/198/5 133/191/5
f 109/165/5 110/166/5 139/197/5 132/190/5
f 88/125/5 87/123/5 86/121/5 144/202/5
f 154/212/5 90/129/5 149/207/5 148/206/5
f 153/211/5 154/212/5 148/206/5 147/205/5
f 152/210/5 153/211/5 147/205/5 146/204/5
f 139/197/5 145/203/5 146/204/5 140/198/5
f 110/166/5 111/167/5 145/203/5 139/197/5
f 90/129/5 89/127/5 88/125/5 149/207/5
f 157/215/5 92/133/5 154/212/5 153/211/5
f 156/214/5 157/215/5 153/211/5 152/210/5
f 145/203/5 151/209/5 152/210/5 146/204/5
f 111/167/5 150/208/5 151/209/5 145/203/5
f 92/133/5 91/131/5 90/129/5 154/212/5
f 159/217/5 94/137/5 157/215/5 156/214/5
f 151/209/5 155/213/5 156/214/5 152/210/5
f 150/208/5 112/168/5 155/213/5 151/209/5
f 94/137/5 93/135/5 92/133/5 157/215/5
f 155/213/5 158/216/5 159/217/5 156/214/5
f 112/168/5 113/169/5 158/216/5 155/213/5
f 96/141/5 95/139/5 94/137/5 159/217/5
f 113/169/5 114/170/5 160/218/5 158/216/5
f 158/216/5 160/218/5 96/141/5 159/217/5
f 114/170/5 115/171/5 98/145/5 160/218/5
