# Blender 3.4.1
# www.blender.org
mtllib 4x4_stairs_base.mtl
o 4x4_stairs_base
v 2.519999 2.500000 -0.000000
v 2.160072 2.500000 -0.000000
v 2.160072 2.159559 -0.000000
v 1.800146 2.159559 -0.000000
v 1.800146 1.799632 -0.000000
v 1.440220 1.799632 -0.000000
v 1.440220 1.439706 -0.000000
v 1.080293 1.439706 -0.000000
v 1.080293 1.079780 -0.000000
v 0.720367 1.079780 -0.000000
v 0.720367 0.719853 -0.000000
v 0.360440 0.719853 -0.000000
v 0.360440 0.359926 -0.000000
v 0.000514 0.359927 -0.000000
v 0.000514 -0.000000 -0.000000
v 2.520000 -0.000000 -0.000000
v 2.160073 -0.000000 -0.000000
v 1.800145 -0.000000 -0.000000
v 1.440220 -0.000000 -0.000000
v 1.080292 0.000000 -0.000000
v 0.720367 -0.000000 -0.000000
v 0.360440 -0.000000 -0.000000
v 2.520000 0.359927 -0.000000
v 2.160073 0.359926 -0.000000
v 1.800145 0.359926 -0.000000
v 1.440220 0.359926 -0.000000
v 1.080292 0.359926 -0.000000
v 0.720367 0.359926 -0.000000
v 2.520000 0.719853 -0.000000
v 2.160073 0.719853 -0.000000
v 1.800145 0.719853 -0.000000
v 1.440220 0.719853 -0.000000
v 1.080293 0.719853 -0.000000
v 2.520000 1.079779 -0.000000
v 2.160073 1.079779 -0.000000
v 1.800146 1.079779 -0.000000
v 1.440220 1.079779 -0.000000
v 2.520000 1.439706 -0.000000
v 2.160073 1.439706 -0.000000
v 1.800146 1.439706 -0.000000
v 2.520000 1.799632 -0.000000
v 2.160072 1.799632 -0.000000
v 2.520000 2.159559 -0.000000
v 2.519999 2.500000 -4.000000
v 2.160072 2.500000 -4.000000
v 2.160072 2.159559 -4.000000
v 1.800146 2.159559 -4.000000
v 1.800146 1.799633 -4.000000
v 1.440219 1.799633 -4.000000
v 1.440219 1.439706 -4.000000
v 1.080293 1.439706 -4.000000
v 1.080293 1.079780 -4.000000
v 0.720366 1.079780 -4.000000
v 0.720366 0.719853 -4.000000
v 0.360440 0.719853 -4.000000
v 0.360440 0.359927 -4.000000
v 0.000514 0.359927 -4.000000
v 0.000514 0.000000 -4.000000
v 2.520000 0.000000 -4.000000
v 2.160073 0.000000 -4.000000
v 1.800144 0.000000 -4.000000
v 1.440219 0.000000 -4.000000
v 1.080292 0.000000 -4.000000
v 0.720367 0.000000 -4.000000
v 0.360439 0.000000 -4.000000
v 2.520000 0.359927 -4.000000
v 2.160073 0.359926 -4.000000
v 1.800144 0.359927 -4.000000
v 1.440219 0.359927 -4.000000
v 1.080292 0.359927 -4.000000
v 0.720367 0.359927 -4.000000
v 2.520000 0.719853 -4.000000
v 2.160073 0.719853 -4.000000
v 1.800145 0.719853 -4.000000
v 1.440219 0.719853 -4.000000
v 1.080292 0.719853 -4.000000
v 2.520000 1.079780 -4.000000
v 2.160073 1.079780 -4.000000
v 1.800145 1.079780 -4.000000
v 1.440219 1.079780 -4.000000
v 2.519999 1.439706 -4.000000
v 2.160073 1.439706 -4.000000
v 1.800145 1.439706 -4.000000
v 2.519999 1.799633 -4.000000
v 2.160072 1.799633 -4.000000
v 2.519999 2.159559 -4.000000
vn -0.0000 -0.0000 1.0000
vn -1.0000 -0.0000 -0.0000
vn -0.0000 1.0000 -0.0000
vn -0.0000 -0.0000 -1.0000
vn 1.0000 -0.0000 -0.0000
vt 0.530724 0.864694
vt 0.000168 0.000168
vt 0.530724 0.000168
vt 0.530724 0.816984
vt 0.000168 0.047878
vt 0.575851 0.816984
vt 0.000168 0.093005
vt 0.575851 0.769274
vt 0.000168 0.140715
vt 0.623561 0.769274
vt 0.000168 0.188425
vt 0.623561 0.721564
vt 0.000168 0.236135
vt 0.671271 0.721564
vt 0.000168 0.283845
vt 0.671271 0.673854
vt 0.000168 0.331555
vt 0.718981 0.673854
vt 0.000168 0.379265
vt 0.718981 0.626144
vt 0.000168 0.426976
vt 0.766691 0.626144
vt 0.000168 0.474686
vt 0.766691 0.578434
vt 0.000168 0.522396
vt 0.814401 0.578434
vt 0.000168 0.570106
vt 0.814401 0.530724
vt 0.000168 0.617816
vt 0.862111 0.530724
vt 0.000168 0.665526
vt 0.862111 0.864694
vt 0.862111 0.000168
vt 0.862111 0.816984
vt 0.862111 0.769274
vt 0.862111 0.721564
vt 0.862111 0.673854
vt 0.862111 0.626144
vt 0.862111 0.578434
vt 0.814401 0.864694
vt 0.814401 0.000168
vt 0.814401 0.816984
vt 0.814401 0.769274
vt 0.814401 0.721564
vt 0.814401 0.673854
vt 0.814401 0.626144
vt 0.766691 0.864694
vt 0.766691 0.000168
vt 0.766691 0.816984
vt 0.766691 0.769274
vt 0.766691 0.721564
vt 0.766691 0.673854
vt 0.718981 0.864694
vt 0.718981 0.000168
vt 0.718981 0.816984
vt 0.718981 0.769274
vt 0.718981 0.721564
vt 0.671271 0.864694
vt 0.671271 0.000168
vt 0.671271 0.816984
vt 0.671271 0.769274
vt 0.623561 0.864694
vt 0.623561 0.000168
vt 0.623561 0.816984
vt 0.575851 0.864694
vt 0.575851 0.000168
vt 0.530388 0.000168
vt 0.331555 0.999832
vt 0.530724 0.530388
vt 0.530388 0.047878
vt 0.331555 0.952122
vt 0.530388 0.093005
vt 0.286428 0.952122
vt 0.530388 0.140715
vt 0.286428 0.904412
vt 0.530388 0.188425
vt 0.238718 0.904412
vt 0.530388 0.236135
vt 0.238718 0.856702
vt 0.530388 0.283845
vt 0.191008 0.856702
vt 0.530388 0.331555
vt 0.191008 0.808992
vt 0.530388 0.379266
vt 0.143298 0.808992
vt 0.530388 0.426976
vt 0.143298 0.761282
vt 0.530388 0.474686
vt 0.095588 0.761282
vt 0.530388 0.522396
vt 0.095588 0.713572
vt 0.530388 0.570106
vt 0.047878 0.713572
vt 0.530388 0.617816
vt 0.047878 0.665862
vt 0.530388 0.665526
vt 0.000168 0.665862
vt 0.000168 0.999832
vt 0.862111 0.530388
vt 0.000168 0.952122
vt 0.000168 0.904412
vt 0.000168 0.856702
vt 0.000168 0.808992
vt 0.000168 0.761282
vt 0.000168 0.713571
vt 0.047878 0.999832
vt 0.814401 0.530388
vt 0.047878 0.952122
vt 0.047878 0.904412
vt 0.047878 0.856702
vt 0.047878 0.808992
vt 0.047878 0.761282
vt 0.095588 0.999832
vt 0.766691 0.530388
vt 0.095588 0.952122
vt 0.095588 0.904412
vt 0.095588 0.856702
vt 0.095588 0.808992
vt 0.143298 0.999832
vt 0.718981 0.530388
vt 0.143298 0.952122
vt 0.143298 0.904412
vt 0.143298 0.856702
vt 0.191008 0.999832
vt 0.671271 0.530388
vt 0.191008 0.952122
vt 0.191008 0.904412
vt 0.238718 0.999832
vt 0.623561 0.530388
vt 0.238718 0.952122
vt 0.286428 0.999832
vt 0.575851 0.530388
s 0
f 22/39/1 13/26/1 14/28/1 15/30/1
f 28/46/1 11/22/1 12/24/1 13/26/1
f 33/52/1 9/18/1 10/20/1 11/22/1
f 37/57/1 7/14/1 8/16/1 9/18/1
f 40/61/1 5/10/1 6/12/1 7/14/1
f 42/64/1 3/6/1 4/8/1 5/10/1
f 43/65/1 1/1/1 2/4/1 3/6/1
f 20/37/1 27/45/1 28/46/1 21/38/1
f 19/36/1 26/44/1 27/45/1 20/37/1
f 18/35/1 25/43/1 26/44/1 19/36/1
f 17/34/1 24/42/1 25/43/1 18/35/1
f 16/32/1 23/40/1 24/42/1 17/34/1
f 21/38/1 28/46/1 13/26/1 22/39/1
f 26/44/1 32/51/1 33/52/1 27/45/1
f 25/43/1 31/50/1 32/51/1 26/44/1
f 24/42/1 30/49/1 31/50/1 25/43/1
f 23/40/1 29/47/1 30/49/1 24/42/1
f 27/45/1 33/52/1 11/22/1 28/46/1
f 31/50/1 36/56/1 37/57/1 32/51/1
f 30/49/1 35/55/1 36/56/1 31/50/1
f 29/47/1 34/53/1 35/55/1 30/49/1
f 32/51/1 37/57/1 9/18/1 33/52/1
f 35/55/1 39/60/1 40/61/1 36/56/1
f 34/53/1 38/58/1 39/60/1 35/55/1
f 36/56/1 40/61/1 7/14/1 37/57/1
f 38/58/1 41/62/1 42/64/1 39/60/1
f 39/60/1 42/64/1 5/10/1 40/61/1
f 41/62/1 43/65/1 3/6/1 42/64/1
f 57/94/2 58/96/2 15/31/2 14/29/2
f 56/92/3 57/94/3 14/29/3 13/27/3
f 55/90/2 56/92/2 13/27/2 12/25/2
f 54/88/3 55/90/3 12/25/3 11/23/3
f 53/86/2 54/88/2 11/23/2 10/21/2
f 52/84/3 53/86/3 10/21/3 9/19/3
f 51/82/2 52/84/2 9/19/2 8/17/2
f 50/80/3 51/82/3 8/17/3 7/15/3
f 49/78/2 50/80/2 7/15/2 6/13/2
f 48/76/3 49/78/3 6/13/3 5/11/3
f 47/74/2 48/76/2 5/11/2 4/9/2
f 46/72/3 47/74/3 4/9/3 3/7/3
f 45/70/2 46/72/2 3/7/2 2/5/2
f 44/67/3 45/70/3 2/5/3 1/2/3
f 65/105/4 58/97/4 57/95/4 56/93/4
f 71/112/4 56/93/4 55/91/4 54/89/4
f 76/118/4 54/89/4 53/87/4 52/85/4
f 80/123/4 52/85/4 51/83/4 50/81/4
f 83/127/4 50/81/4 49/79/4 48/77/4
f 85/130/4 48/77/4 47/75/4 46/73/4
f 86/131/4 46/73/4 45/71/4 44/68/4
f 63/103/4 64/104/4 71/112/4 70/111/4
f 62/102/4 63/103/4 70/111/4 69/110/4
f 61/101/4 62/102/4 69/110/4 68/109/4
f 60/100/4 61/101/4 68/109/4 67/108/4
f 59/98/4 60/100/4 67/108/4 66/106/4
f 64/104/4 65/105/4 56/93/4 71/112/4
f 69/110/4 70/111/4 76/118/4 75/117/4
f 68/109/4 69/110/4 75/117/4 74/116/4
f 67/108/4 68/109/4 74/116/4 73/115/4
f 66/106/4 67/108/4 73/115/4 72/113/4
f 70/111/4 71/112/4 54/89/4 76/118/4
f 74/116/4 75/117/4 80/123/4 79/122/4
f 73/115/4 74/116/4 79/122/4 78/121/4
f 72/113/4 73/115/4 78/121/4 77/119/4
f 75/117/4 76/118/4 52/85/4 80/123/4
f 78/121/4 79/122/4 83/127/4 82/126/4
f 77/119/4 78/121/4 82/126/4 81/124/4
f 79/122/4 80/123/4 50/81/4 83/127/4
f 81/124/4 82/126/4 85/130/4 84/128/4
f 82/126/4 83/127/4 48/77/4 85/130/4
f 84/128/4 85/130/4 46/73/4 86/131/4
f 43/66/5 86/132/5 44/69/5 1/3/5
f 41/63/5 84/129/5 86/132/5 43/66/5
f 38/59/5 81/125/5 84/129/5 41/63/5
f 34/54/5 77/120/5 81/125/5 38/59/5
f 29/48/5 72/114/5 77/120/5 34/54/5
f 23/41/5 66/107/5 72/114/5 29/48/5
f 16/33/5 59/99/5 66/107/5 23/41/5
