# Blender 3.4.1
# www.blender.org
mtllib 4x4_stairs_mid.mtl
o 4x4_stairs_mid
v -0.000000 0.000000 -0.000000
v 4.000000 4.000000 -0.000000
v 3.632983 4.000000 -0.000000
v -0.000000 0.367017 -0.000000
v 3.632983 3.636701 -0.000000
v 3.269685 3.636701 -0.000000
v 3.269685 3.273403 -0.000000
v 2.906387 3.273403 -0.000000
v 2.906387 2.910105 -0.000000
v 2.543088 2.910105 -0.000000
v 2.543088 2.546807 -0.000000
v 2.179790 2.546807 -0.000000
v 2.179790 2.183509 -0.000000
v 1.816491 2.183509 -0.000000
v 1.816491 1.820210 -0.000000
v 1.453193 1.820210 -0.000000
v 1.453193 1.456912 -0.000000
v 1.089895 1.456912 -0.000000
v 1.089895 1.093614 -0.000000
v 0.726597 1.093614 -0.000000
v 0.726597 0.730316 -0.000000
v 0.363298 0.730316 -0.000000
v 0.363298 0.367017 -0.000000
v 4.000000 3.636701 -0.000000
v 4.000000 3.273403 -0.000000
v 4.000000 -0.000000 -0.000000
v 1.089893 -0.000000 -0.000000
v 0.726599 -0.000000 -0.000000
v 0.363296 -0.000000 -0.000000
v 3.632983 -0.000000 -0.000000
v 3.632983 2.910105 -0.000000
v 3.632983 3.273403 -0.000000
v 3.269684 -0.000000 -0.000000
v 3.269684 2.546807 -0.000000
v 3.269685 2.910105 -0.000000
v 2.906387 -0.000000 -0.000000
v 2.906387 2.183509 -0.000000
v 2.906386 2.546807 -0.000000
v 2.543087 -0.000000 -0.000000
v 2.543087 1.820210 -0.000000
v 2.543088 2.183509 -0.000000
v 2.179790 -0.000000 -0.000000
v 2.179790 1.456912 -0.000000
v 2.179790 1.820210 -0.000000
v 1.816490 -0.000000 -0.000000
v 1.816490 1.093614 -0.000000
v 1.816491 1.456912 -0.000000
v 1.453195 -0.000000 -0.000000
v 1.453194 0.730315 -0.000000
v 1.453194 1.093614 -0.000000
v 1.089894 0.367017 -0.000000
v 1.089894 0.730316 -0.000000
v 0.726598 0.367017 -0.000000
v -0.000000 0.000000 -4.000000
v 4.000000 4.000000 -4.000000
v 3.632983 4.000000 -4.000000
v -0.000000 0.367017 -4.000000
v 3.632983 3.636702 -4.000000
v 3.269684 3.636702 -4.000000
v 3.269684 3.273403 -4.000000
v 2.906386 3.273403 -4.000000
v 2.906386 2.910105 -4.000000
v 2.543088 2.910105 -4.000000
v 2.543088 2.546807 -4.000000
v 2.179790 2.546807 -4.000000
v 2.179790 2.183509 -4.000000
v 1.816491 2.183509 -4.000000
v 1.816491 1.820210 -4.000000
v 1.453193 1.820210 -4.000000
v 1.453193 1.456912 -4.000000
v 1.089894 1.456912 -4.000000
v 1.089894 1.093614 -4.000000
v 0.726596 1.093614 -4.000000
v 0.726596 0.730316 -4.000000
v 0.363298 0.730316 -4.000000
v 0.363298 0.367017 -4.000000
v 4.000000 3.636702 -4.000000
v 4.000000 3.273403 -4.000000
v 4.000000 -0.000000 -4.000000
v 1.089893 0.000000 -4.000000
v 0.726599 0.000000 -4.000000
v 0.363295 0.000000 -4.000000
v 3.632983 0.000000 -4.000000
v 3.632983 2.910105 -4.000000
v 3.632983 3.273403 -4.000000
v 3.269684 0.000000 -4.000000
v 3.269684 2.546807 -4.000000
v 3.269684 2.910105 -4.000000
v 2.906387 0.000000 -4.000000
v 2.906386 2.183509 -4.000000
v 2.906386 2.546807 -4.000000
v 2.543087 0.000000 -4.000000
v 2.543087 1.820210 -4.000000
v 2.543087 2.183509 -4.000000
v 2.179790 0.000000 -4.000000
v 2.179790 1.456912 -4.000000
v 2.179790 1.820210 -4.000000
v 1.816490 0.000000 -4.000000
v 1.816490 1.093614 -4.000000
v 1.816491 1.456912 -4.000000
v 1.453195 0.000000 -4.000000
v 1.453194 0.730316 -4.000000
v 1.453193 1.093614 -4.000000
v 1.089893 0.367017 -4.000000
v 1.089894 0.730316 -4.000000
v 0.726598 0.367017 -4.000000
v 4.000000 2.909692 -0.000000
v 4.000000 2.545980 -0.000000
v 4.000000 2.182269 -0.000000
v 4.000000 1.818557 -0.000000
v 4.000000 1.454846 -0.000000
v 4.000000 1.091134 -0.000000
v 4.000000 0.727423 -0.000000
v 4.000000 0.363711 -0.000000
v 4.000000 2.909692 -4.000000
v 4.000000 2.545980 -4.000000
v 4.000000 2.182269 -4.000000
v 4.000000 1.818557 -4.000000
v 4.000000 1.454846 -4.000000
v 4.000000 1.091134 -4.000000
v 4.000000 0.727423 -4.000000
v 4.000000 0.363711 -4.000000
v 3.632983 2.546396 -0.000000
v 3.632983 2.182685 -0.000000
v 3.269684 2.183097 -0.000000
v 3.632983 1.818974 -0.000000
v 3.269684 1.819386 -0.000000
v 2.906387 1.819798 -0.000000
v 3.632983 1.455262 -0.000000
v 3.269684 1.455675 -0.000000
v 2.906387 1.456087 -0.000000
v 2.543087 1.456500 -0.000000
v 3.632983 1.091551 -0.000000
v 3.269684 1.091964 -0.000000
v 2.906387 1.092376 -0.000000
v 2.543087 1.092789 -0.000000
v 2.179790 1.093201 -0.000000
v 3.632983 0.727840 -0.000000
v 3.269684 0.728252 -0.000000
v 2.906387 0.728665 -0.000000
v 2.543087 0.729078 -0.000000
v 2.179790 0.729490 -0.000000
v 1.816490 0.729903 -0.000000
v 3.632983 0.364128 -0.000000
v 3.269684 0.364541 -0.000000
v 2.906387 0.364954 -0.000000
v 2.543087 0.365366 -0.000000
v 2.179790 0.365779 -0.000000
v 1.816490 0.366192 -0.000000
v 1.453195 0.366605 -0.000000
v 3.632983 2.546396 -4.000000
v 3.632983 2.182685 -4.000000
v 3.269684 2.183097 -4.000000
v 3.632983 1.818974 -4.000000
v 3.269684 1.819386 -4.000000
v 2.906386 1.819798 -4.000000
v 3.632983 1.455263 -4.000000
v 3.269684 1.455675 -4.000000
v 2.906386 1.456087 -4.000000
v 2.543087 1.456500 -4.000000
v 3.632983 1.091551 -4.000000
v 3.269684 1.091964 -4.000000
v 2.906386 1.092376 -4.000000
v 2.543087 1.092789 -4.000000
v 2.179790 1.093201 -4.000000
v 3.632983 0.727840 -4.000000
v 3.269684 0.728253 -4.000000
v 2.906386 0.728665 -4.000000
v 2.543087 0.729078 -4.000000
v 2.179790 0.729490 -4.000000
v 1.816490 0.729903 -4.000000
v 3.632983 0.364128 -4.000000
v 3.269684 0.364541 -4.000000
v 2.906386 0.364954 -4.000000
v 2.543087 0.365367 -4.000000
v 2.179790 0.365779 -4.000000
v 1.816490 0.366192 -4.000000
v 1.453194 0.366605 -4.000000
vn -0.0000 -0.0000 1.0000
vn -1.0000 -0.0000 -0.0000
vn -0.0000 -0.0000 -1.0000
vn -0.0000 1.0000 -0.0000
vt 0.500171 0.500171
vt 0.499829 0.000171
vt 0.999829 0.999829
vt 0.499829 0.999488
vt 0.953983 0.999829
vt 0.499829 0.953642
vt 0.500171 0.546016
vt 0.499829 0.046017
vt 0.953983 0.954448
vt 0.499829 0.908261
vt 0.908602 0.954448
vt 0.499829 0.862880
vt 0.908602 0.909067
vt 0.499829 0.817499
vt 0.863221 0.909067
vt 0.499829 0.772117
vt 0.863221 0.863686
vt 0.499829 0.726736
vt 0.817840 0.863685
vt 0.499829 0.681355
vt 0.817840 0.818304
vt 0.499829 0.635973
vt 0.772458 0.818304
vt 0.499829 0.590592
vt 0.772458 0.772923
vt 0.499829 0.545211
vt 0.727077 0.772923
vt 0.499829 0.499830
vt 0.727077 0.727542
vt 0.499829 0.454448
vt 0.681696 0.727542
vt 0.499829 0.409067
vt 0.681696 0.682160
vt 0.499829 0.363686
vt 0.636314 0.682160
vt 0.499829 0.318304
vt 0.636314 0.636779
vt 0.499829 0.272923
vt 0.590933 0.636779
vt 0.499829 0.227542
vt 0.590933 0.591398
vt 0.499829 0.182161
vt 0.545552 0.591398
vt 0.499829 0.136779
vt 0.545552 0.546016
vt 0.499829 0.091398
vt 0.999829 0.954448
vt 0.999829 0.909067
vt 0.999829 0.500171
vt 0.636314 0.500171
vt 0.590934 0.500171
vt 0.545552 0.500171
vt 0.953984 0.500171
vt 0.953983 0.863686
vt 0.953983 0.909067
vt 0.908602 0.500171
vt 0.908602 0.818304
vt 0.908602 0.863686
vt 0.863221 0.500171
vt 0.863221 0.772923
vt 0.863221 0.818304
vt 0.817840 0.500171
vt 0.817840 0.727542
vt 0.817840 0.772923
vt 0.772458 0.500171
vt 0.772458 0.682160
vt 0.772458 0.727542
vt 0.727077 0.500171
vt 0.727077 0.636779
vt 0.727077 0.682160
vt 0.681696 0.500171
vt 0.681696 0.591398
vt 0.681696 0.636779
vt 0.636314 0.546016
vt 0.636314 0.591398
vt 0.590933 0.546016
vt 0.000171 0.000171
vt 0.500171 0.000171
vt 0.000171 0.999488
vt 0.999829 0.499829
vt 0.000171 0.953642
vt 0.999829 0.453984
vt 0.000171 0.046016
vt 0.546016 0.000171
vt 0.000171 0.908261
vt 0.954448 0.453984
vt 0.000171 0.862880
vt 0.954448 0.408602
vt 0.000171 0.817498
vt 0.909067 0.408602
vt 0.000171 0.772117
vt 0.909067 0.363221
vt 0.000171 0.726736
vt 0.863685 0.363221
vt 0.000171 0.681354
vt 0.863685 0.317840
vt 0.000171 0.635973
vt 0.818304 0.317840
vt 0.000171 0.590592
vt 0.818304 0.272458
vt 0.000171 0.545211
vt 0.772923 0.272458
vt 0.000171 0.499829
vt 0.772923 0.227077
vt 0.000171 0.454448
vt 0.727542 0.227077
vt 0.000171 0.409067
vt 0.727542 0.181696
vt 0.000171 0.363685
vt 0.682160 0.181696
vt 0.000171 0.318304
vt 0.682160 0.136314
vt 0.000171 0.272923
vt 0.636779 0.136314
vt 0.000171 0.227542
vt 0.636779 0.090933
vt 0.000171 0.182160
vt 0.591398 0.090933
vt 0.000171 0.136779
vt 0.591398 0.045552
vt 0.000171 0.091398
vt 0.546016 0.045552
vt 0.954448 0.499829
vt 0.909067 0.499829
vt 0.500171 0.499829
vt 0.500171 0.136314
vt 0.500171 0.090934
vt 0.500171 0.045552
vt 0.500171 0.453984
vt 0.863685 0.453984
vt 0.909067 0.453984
vt 0.500171 0.408602
vt 0.818304 0.408602
vt 0.863685 0.408602
vt 0.500171 0.363221
vt 0.772923 0.363221
vt 0.818304 0.363221
vt 0.500171 0.317840
vt 0.727542 0.317840
vt 0.772923 0.317840
vt 0.500171 0.272458
vt 0.682160 0.272458
vt 0.727542 0.272458
vt 0.500171 0.227077
vt 0.636779 0.227077
vt 0.682160 0.227077
vt 0.500171 0.181696
vt 0.591398 0.181696
vt 0.636779 0.181696
vt 0.546016 0.136314
vt 0.591398 0.136314
vt 0.546016 0.090933
vt 0.999829 0.863634
vt 0.999829 0.818201
vt 0.999829 0.772768
vt 0.999829 0.727335
vt 0.999829 0.681902
vt 0.999829 0.636469
vt 0.999829 0.591036
vt 0.999829 0.545604
vt 0.863634 0.499829
vt 0.818201 0.499829
vt 0.772768 0.499829
vt 0.727335 0.499829
vt 0.681902 0.499829
vt 0.636469 0.499829
vt 0.591036 0.499829
vt 0.545603 0.499829
vt 0.953983 0.818253
vt 0.953984 0.772820
vt 0.908602 0.772871
vt 0.953983 0.727387
vt 0.908602 0.727439
vt 0.863221 0.727490
vt 0.953983 0.681954
vt 0.908602 0.682006
vt 0.863221 0.682057
vt 0.817840 0.682109
vt 0.953983 0.636521
vt 0.908602 0.636573
vt 0.863221 0.636624
vt 0.817840 0.636676
vt 0.772458 0.636728
vt 0.953983 0.591089
vt 0.908602 0.591140
vt 0.863221 0.591192
vt 0.817840 0.591243
vt 0.772458 0.591295
vt 0.727077 0.591346
vt 0.953983 0.545656
vt 0.908602 0.545707
vt 0.863221 0.545759
vt 0.817840 0.545810
vt 0.772458 0.545862
vt 0.727077 0.545913
vt 0.681696 0.545965
vt 0.818253 0.453984
vt 0.772820 0.453984
vt 0.772871 0.408602
vt 0.727387 0.453984
vt 0.727439 0.408602
vt 0.727490 0.363221
vt 0.681954 0.453984
vt 0.682006 0.408602
vt 0.682057 0.363221
vt 0.682109 0.317840
vt 0.636521 0.453984
vt 0.636573 0.408602
vt 0.636624 0.363221
vt 0.636676 0.317840
vt 0.636728 0.272458
vt 0.591088 0.453984
vt 0.591140 0.408602
vt 0.591192 0.363221
vt 0.591243 0.317840
vt 0.591295 0.272458
vt 0.591346 0.227077
vt 0.545656 0.453984
vt 0.545707 0.408602
vt 0.545759 0.363221
vt 0.545810 0.317840
vt 0.545862 0.272458
vt 0.545913 0.227077
vt 0.545965 0.181696
s 0
f 5/9/1 24/47/1 2/3/1 3/5/1
f 22/44/2 75/119/2 76/121/2 23/46/2
f 32/55/1 25/48/1 24/47/1 5/9/1
f 145/191/1 33/56/1 30/53/1 144/190/1
f 53/76/1 21/41/1 22/43/1 23/45/1
f 29/52/1 23/45/1 4/7/1 1/1/1
f 35/58/1 31/54/1 32/55/1 7/13/1
f 146/192/1 36/59/1 33/56/1 145/191/1
f 7/13/1 32/55/1 5/9/1 6/11/1
f 38/61/1 34/57/1 35/58/1 9/17/1
f 147/193/1 39/62/1 36/59/1 146/192/1
f 9/17/1 35/58/1 7/13/1 8/15/1
f 41/64/1 37/60/1 38/61/1 11/21/1
f 148/194/1 42/65/1 39/62/1 147/193/1
f 11/21/1 38/61/1 9/17/1 10/19/1
f 44/67/1 40/63/1 41/64/1 13/25/1
f 149/195/1 45/68/1 42/65/1 148/194/1
f 13/25/1 41/64/1 11/21/1 12/23/1
f 47/70/1 43/66/1 44/67/1 15/29/1
f 150/196/1 48/71/1 45/68/1 149/195/1
f 15/29/1 44/67/1 13/25/1 14/27/1
f 50/73/1 46/69/1 47/70/1 17/33/1
f 51/74/1 27/50/1 48/71/1 150/196/1
f 17/33/1 47/70/1 15/29/1 16/31/1
f 52/75/1 49/72/1 50/73/1 19/37/1
f 19/37/1 50/73/1 17/33/1 18/35/1
f 84/130/3 85/131/3 78/124/3 115/161/3
f 21/41/1 52/75/1 19/37/1 20/39/1
f 27/50/1 51/74/1 53/76/1 28/51/1
f 51/74/1 52/75/1 21/41/1 53/76/1
f 28/51/1 53/76/1 23/45/1 29/52/1
f 21/42/4 74/117/4 75/119/4 22/44/4
f 20/40/2 73/115/2 74/117/2 21/42/2
f 19/38/4 72/113/4 73/115/4 20/40/4
f 18/36/2 71/111/2 72/113/2 19/38/2
f 17/34/4 70/109/4 71/111/4 18/36/4
f 16/32/2 69/107/2 70/109/2 17/34/2
f 15/30/4 68/105/4 69/107/4 16/32/4
f 14/28/2 67/103/2 68/105/2 15/30/2
f 13/26/4 66/101/4 67/103/4 14/28/4
f 12/24/2 65/99/2 66/101/2 13/26/2
f 11/22/4 64/97/4 65/99/4 12/24/4
f 10/20/2 63/95/2 64/97/2 11/22/2
f 9/18/4 62/93/4 63/95/4 10/20/4
f 8/16/2 61/91/2 62/93/2 9/18/2
f 7/14/4 60/89/4 61/91/4 8/16/4
f 6/12/2 59/87/2 60/89/2 7/14/2
f 5/10/4 58/85/4 59/87/4 6/12/4
f 3/6/2 56/81/2 58/85/2 5/10/2
f 4/8/2 57/83/2 54/77/2 1/2/2
f 151/197/3 87/133/3 88/134/3 84/130/3
f 23/46/4 76/121/4 57/83/4 4/8/4
f 2/4/4 55/79/4 56/81/4 3/6/4
f 58/86/3 56/82/3 55/80/3 77/123/3
f 85/131/3 58/86/3 77/123/3 78/124/3
f 106/152/3 76/122/3 75/120/3 74/118/3
f 82/128/3 54/78/3 57/84/3 76/122/3
f 88/134/3 60/90/3 85/131/3 84/130/3
f 153/199/3 90/136/3 91/137/3 87/133/3
f 60/90/3 59/88/3 58/86/3 85/131/3
f 91/137/3 62/94/3 88/134/3 87/133/3
f 156/202/3 93/139/3 94/140/3 90/136/3
f 62/94/3 61/92/3 60/90/3 88/134/3
f 94/140/3 64/98/3 91/137/3 90/136/3
f 160/206/3 96/142/3 97/143/3 93/139/3
f 64/98/3 63/96/3 62/94/3 91/137/3
f 97/143/3 66/102/3 94/140/3 93/139/3
f 165/211/3 99/145/3 100/146/3 96/142/3
f 66/102/3 65/100/3 64/98/3 94/140/3
f 100/146/3 68/106/3 97/143/3 96/142/3
f 171/217/3 102/148/3 103/149/3 99/145/3
f 68/106/3 67/104/3 66/102/3 97/143/3
f 103/149/3 70/110/3 100/146/3 99/145/3
f 178/224/3 104/150/3 105/151/3 102/148/3
f 70/110/3 69/108/3 68/106/3 100/146/3
f 105/151/3 72/114/3 103/149/3 102/148/3
f 72/114/3 71/112/3 70/110/3 103/149/3
f 74/118/3 73/116/3 72/114/3 105/151/3
f 80/126/3 81/127/3 106/152/3 104/150/3
f 104/150/3 106/152/3 74/118/3 105/151/3
f 81/127/3 82/128/3 76/122/3 106/152/3
f 144/190/1 30/53/1 26/49/1 114/160/1
f 32/55/1 31/54/1 107/153/1 25/48/1
f 31/54/1 123/169/1 108/154/1 107/153/1
f 35/58/1 34/57/1 123/169/1 31/54/1
f 34/57/1 125/171/1 124/170/1 123/169/1
f 123/169/1 124/170/1 109/155/1 108/154/1
f 38/61/1 37/60/1 125/171/1 34/57/1
f 37/60/1 128/174/1 127/173/1 125/171/1
f 125/171/1 127/173/1 126/172/1 124/170/1
f 124/170/1 126/172/1 110/156/1 109/155/1
f 41/64/1 40/63/1 128/174/1 37/60/1
f 40/63/1 132/178/1 131/177/1 128/174/1
f 128/174/1 131/177/1 130/176/1 127/173/1
f 127/173/1 130/176/1 129/175/1 126/172/1
f 126/172/1 129/175/1 111/157/1 110/156/1
f 44/67/1 43/66/1 132/178/1 40/63/1
f 43/66/1 137/183/1 136/182/1 132/178/1
f 132/178/1 136/182/1 135/181/1 131/177/1
f 131/177/1 135/181/1 134/180/1 130/176/1
f 130/176/1 134/180/1 133/179/1 129/175/1
f 129/175/1 133/179/1 112/158/1 111/157/1
f 47/70/1 46/69/1 137/183/1 43/66/1
f 46/69/1 143/189/1 142/188/1 137/183/1
f 137/183/1 142/188/1 141/187/1 136/182/1
f 136/182/1 141/187/1 140/186/1 135/181/1
f 135/181/1 140/186/1 139/185/1 134/180/1
f 134/180/1 139/185/1 138/184/1 133/179/1
f 133/179/1 138/184/1 113/159/1 112/158/1
f 50/73/1 49/72/1 143/189/1 46/69/1
f 49/72/1 150/196/1 149/195/1 143/189/1
f 143/189/1 149/195/1 148/194/1 142/188/1
f 142/188/1 148/194/1 147/193/1 141/187/1
f 141/187/1 147/193/1 146/192/1 140/186/1
f 140/186/1 146/192/1 145/191/1 139/185/1
f 139/185/1 145/191/1 144/190/1 138/184/1
f 138/184/1 144/190/1 114/160/1 113/159/1
f 52/75/1 51/74/1 150/196/1 49/72/1
f 151/197/3 84/130/3 115/161/3 116/162/3
f 152/198/3 151/197/3 116/162/3 117/163/3
f 152/198/3 153/199/3 87/133/3 151/197/3
f 154/200/3 155/201/3 153/199/3 152/198/3
f 154/200/3 152/198/3 117/163/3 118/164/3
f 155/201/3 156/202/3 90/136/3 153/199/3
f 158/204/3 159/205/3 156/202/3 155/201/3
f 157/203/3 158/204/3 155/201/3 154/200/3
f 157/203/3 154/200/3 118/164/3 119/165/3
f 159/205/3 160/206/3 93/139/3 156/202/3
f 163/209/3 164/210/3 160/206/3 159/205/3
f 162/208/3 163/209/3 159/205/3 158/204/3
f 161/207/3 162/208/3 158/204/3 157/203/3
f 161/207/3 157/203/3 119/165/3 120/166/3
f 164/210/3 165/211/3 96/142/3 160/206/3
f 169/215/3 170/216/3 165/211/3 164/210/3
f 168/214/3 169/215/3 164/210/3 163/209/3
f 167/213/3 168/214/3 163/209/3 162/208/3
f 166/212/3 167/213/3 162/208/3 161/207/3
f 166/212/3 161/207/3 120/166/3 121/167/3
f 170/216/3 171/217/3 99/145/3 165/211/3
f 176/222/3 177/223/3 171/217/3 170/216/3
f 175/221/3 176/222/3 170/216/3 169/215/3
f 174/220/3 175/221/3 169/215/3 168/214/3
f 173/219/3 174/220/3 168/214/3 167/213/3
f 172/218/3 173/219/3 167/213/3 166/212/3
f 172/218/3 166/212/3 121/167/3 122/168/3
f 177/223/3 178/224/3 102/148/3 171/217/3
f 98/144/3 101/147/3 178/224/3 177/223/3
f 95/141/3 98/144/3 177/223/3 176/222/3
f 92/138/3 95/141/3 176/222/3 175/221/3
f 89/135/3 92/138/3 175/221/3 174/220/3
f 86/132/3 89/135/3 174/220/3 173/219/3
f 83/129/3 86/132/3 173/219/3 172/218/3
f 83/129/3 172/218/3 122/168/3 79/125/3
f 101/147/3 80/126/3 104/150/3 178/224/3
