# Blender 3.4.1
# www.blender.org
mtllib 6x8_door_frame.mtl
o 5x8_door_frame
v -0.000000 8.000000 -2.000000
v 0.000000 0.000000 -2.000000
v -0.000000 7.299999 -2.000000
v 0.700000 8.000000 -2.000000
v 2.099999 8.000000 -2.000000
v 0.000000 5.900000 -2.000000
v 0.000000 4.499999 -2.000000
v 0.350035 7.649965 -2.000000
v 0.350035 6.599999 -2.000000
v 1.400000 7.649965 -2.000000
v 0.300000 0.000000 -2.000000
v 0.700000 0.000000 -1.600000
v 1.265686 0.000000 -2.000000
v 0.462448 0.000000 -1.900703
v 0.581665 0.000000 -1.720426
v 2.100000 7.299999 -1.600000
v 1.965085 7.699999 -2.000000
v 2.060087 7.418334 -1.720426
v 2.019877 7.537551 -1.900703
v 0.300000 6.035631 -2.000000
v 0.700000 5.900000 -1.600000
v 0.462448 5.980548 -1.900703
v 0.581665 5.940125 -1.720426
v 0.300000 4.499999 -2.000000
v 0.700000 4.499999 -1.600000
v 0.462448 4.499999 -1.900703
v 0.581665 4.499999 -1.720426
v 0.655836 6.500016 -2.000000
v 1.060349 6.370274 -1.600000
v 0.820117 6.447325 -1.900703
v 0.940679 6.408656 -1.720426
v 0.627069 7.369389 -2.000000
v 1.040925 6.957268 -1.600001
v 0.795144 7.202018 -1.900703
v 0.918491 7.079188 -1.720427
v 1.497698 7.344241 -2.000000
v 1.627469 6.940326 -1.600000
v 1.550400 7.180202 -1.900703
v 1.589078 7.059819 -1.720426
v 0.621895 0.000000 -2.000000
v 0.943790 0.000000 -2.000000
v 5.999999 8.000000 -2.000000
v 6.000000 0.000001 -2.000000
v 5.999999 7.300000 -2.000000
v 5.299999 8.000000 -2.000000
v 3.899999 8.000000 -2.000000
v 5.999999 5.900000 -2.000000
v 5.999999 4.500000 -2.000000
v 5.649964 7.649966 -2.000000
v 5.649964 6.600000 -2.000000
v 4.599999 7.649966 -2.000000
v 5.700000 0.000001 -2.000000
v 5.300000 0.000001 -1.600000
v 4.734314 0.000000 -2.000000
v 5.537552 0.000001 -1.900702
v 5.418335 0.000001 -1.720426
v 3.899999 7.300000 -1.600000
v 4.034914 7.699999 -2.000000
v 3.939912 7.418334 -1.720426
v 3.980122 7.537551 -1.900703
v 5.700000 6.035631 -2.000000
v 5.299999 5.900000 -1.600000
v 5.537551 5.980548 -1.900703
v 5.418334 5.940125 -1.720426
v 5.700000 4.500000 -2.000000
v 5.299999 4.500000 -1.600000
v 5.537551 4.500000 -1.900702
v 5.418334 4.500000 -1.720426
v 5.344163 6.500017 -2.000000
v 4.939651 6.370274 -1.600000
v 5.179882 6.447326 -1.900703
v 5.059320 6.408657 -1.720426
v 5.372931 7.369389 -2.000000
v 4.959074 6.957268 -1.600000
v 5.204855 7.202018 -1.900703
v 5.081508 7.079189 -1.720426
v 4.502301 7.344241 -2.000000
v 4.372530 6.940326 -1.600000
v 4.449599 7.180203 -1.900703
v 4.410922 7.059820 -1.720426
v 5.378105 0.000001 -2.000000
v 5.056210 0.000001 -2.000000
v 0.700000 0.000000 -1.000000
v 2.100000 7.299999 -1.000000
v 0.700000 4.499999 -1.000000
v 1.627469 6.940326 -1.000000
v 0.700000 5.900000 -1.000000
v 1.060348 6.370274 -1.000000
v 1.040925 6.957268 -1.000000
v 5.300000 0.000001 -1.000000
v 3.899999 7.300000 -1.000000
v 5.299999 4.500000 -1.000000
v 4.372530 6.940326 -1.000000
v 5.299999 5.900000 -1.000000
v 4.939651 6.370274 -1.000000
v 4.959074 6.957268 -1.000000
v -0.000000 8.000000 0.000000
v 0.000000 0.000000 -0.000000
v -0.000000 7.299999 0.000000
v 0.700000 8.000000 0.000000
v 2.099999 8.000000 0.000000
v -0.000000 5.900000 0.000000
v 0.000000 4.499999 -0.000000
v 0.350035 7.649965 0.000000
v 0.350035 6.599999 0.000000
v 1.399999 7.649965 0.000000
v 0.300000 0.000000 -0.000000
v 0.700000 0.000000 -0.400000
v 1.265686 0.000000 -0.000000
v 0.462448 0.000000 -0.099298
v 0.581665 0.000000 -0.279574
v 2.100000 7.299999 -0.400000
v 1.965085 7.699999 0.000000
v 2.060087 7.418334 -0.279574
v 2.019877 7.537551 -0.099297
v 0.300000 6.035631 0.000000
v 0.700000 5.900000 -0.400000
v 0.462448 5.980548 -0.099297
v 0.581665 5.940125 -0.279574
v 0.300000 4.499999 -0.000000
v 0.700000 4.499999 -0.400000
v 0.462448 4.499999 -0.099298
v 0.581665 4.499999 -0.279574
v 0.655836 6.500016 0.000000
v 1.060348 6.370274 -0.400000
v 0.820117 6.447325 -0.099297
v 0.940679 6.408656 -0.279574
v 0.627069 7.369389 0.000000
v 1.040925 6.957268 -0.400000
v 0.795144 7.202018 -0.099297
v 0.918491 7.079188 -0.279574
v 1.497698 7.344241 0.000000
v 1.627469 6.940326 -0.400000
v 1.550400 7.180202 -0.099297
v 1.589078 7.059819 -0.279574
v 0.621895 0.000000 -0.000000
v 0.943790 0.000000 -0.000000
v 5.999999 8.000000 0.000000
v 6.000000 0.000001 0.000000
v 5.999999 7.300000 0.000000
v 5.299999 8.000000 0.000000
v 3.899999 8.000000 0.000000
v 5.999999 5.900000 0.000000
v 5.999999 4.500000 0.000000
v 5.649964 7.649966 0.000000
v 5.649964 6.600000 0.000000
v 4.599999 7.649966 0.000000
v 5.700000 0.000001 0.000000
v 5.300000 0.000001 -0.400000
v 4.734314 0.000000 0.000000
v 5.537552 0.000001 -0.099297
v 5.418335 0.000001 -0.279574
v 3.899999 7.300000 -0.400000
v 4.034914 7.699999 0.000000
v 3.939912 7.418334 -0.279574
v 3.980122 7.537551 -0.099297
v 5.700000 6.035631 0.000000
v 5.299999 5.900000 -0.400000
v 5.537551 5.980548 -0.099297
v 5.418334 5.940125 -0.279574
v 5.700000 4.500000 0.000000
v 5.299999 4.500000 -0.400000
v 5.537551 4.500000 -0.099297
v 5.418334 4.500000 -0.279574
v 5.344163 6.500017 0.000000
v 4.939651 6.370274 -0.400000
v 5.179882 6.447326 -0.099297
v 5.059320 6.408657 -0.279574
v 5.372931 7.369389 0.000001
v 4.959074 6.957268 -0.400000
v 5.204855 7.202018 -0.099297
v 5.081508 7.079189 -0.279574
v 4.502301 7.344241 0.000000
v 4.372530 6.940326 -0.400000
v 4.449599 7.180203 -0.099297
v 4.410922 7.059820 -0.279574
v 5.378105 0.000001 0.000000
v 5.056210 0.000001 0.000000
vn 1.0000 -0.0000 -0.0000
vn -0.0000 -0.0000 -1.0000
vn -0.0000 -1.0000 -0.0000
vn -0.0000 1.0000 -0.0000
vn 0.7133 -0.0000 -0.7009
vn 0.8341 -0.0000 -0.5516
vn 0.5215 -0.0000 -0.8532
vn 0.5213 0.0172 -0.8532
vn 0.8337 0.0276 -0.5516
vn 0.7129 0.0236 -0.7009
vn -0.0151 -0.5213 -0.8532
vn -0.0241 -0.8338 -0.5516
vn -0.0206 -0.7130 -0.7009
vn 0.4140 -0.3172 -0.8532
vn 0.6621 -0.5073 -0.5516
vn 0.5662 -0.4338 -0.7009
vn 0.3159 -0.4150 -0.8532
vn 0.5052 -0.6637 -0.5516
vn 0.4320 -0.5676 -0.7009
vn -0.0000 -0.8341 -0.5516
vn -0.0000 -0.5215 -0.8532
vn -1.0000 -0.0000 -0.0000
vn -0.7133 -0.0000 -0.7009
vn -0.8341 -0.0000 -0.5516
vn -0.5215 -0.0000 -0.8532
vn -0.5213 0.0172 -0.8532
vn -0.8337 0.0276 -0.5516
vn -0.7129 0.0236 -0.7009
vn 0.0151 -0.5213 -0.8532
vn 0.0241 -0.8338 -0.5516
vn 0.0206 -0.7130 -0.7009
vn -0.4140 -0.3172 -0.8532
vn -0.6621 -0.5073 -0.5516
vn -0.5662 -0.4338 -0.7009
vn -0.3159 -0.4150 -0.8532
vn -0.5052 -0.6637 -0.5516
vn -0.4320 -0.5676 -0.7009
vn -0.9995 0.0331 -0.0000
vn -0.7938 -0.6082 -0.0000
vn 0.0289 -0.9996 -0.0000
vn -0.6057 -0.7957 -0.0000
vn -0.0000 -0.7133 0.7009
vn 0.9995 0.0331 -0.0000
vn 0.7938 -0.6082 -0.0000
vn -0.0289 -0.9996 -0.0000
vn 0.6057 -0.7957 -0.0000
vn -0.0000 -0.0000 1.0000
vn 0.7133 -0.0000 0.7009
vn 0.8341 -0.0000 0.5516
vn 0.5215 -0.0000 0.8532
vn 0.5213 0.0172 0.8532
vn 0.8337 0.0276 0.5516
vn 0.7129 0.0236 0.7009
vn -0.0151 -0.5213 0.8532
vn -0.0241 -0.8338 0.5516
vn -0.0206 -0.7130 0.7009
vn 0.4140 -0.3172 0.8532
vn 0.6621 -0.5073 0.5516
vn 0.5662 -0.4338 0.7009
vn 0.3159 -0.4150 0.8532
vn 0.5052 -0.6637 0.5516
vn 0.4320 -0.5676 0.7009
vn -0.0000 -0.8341 0.5516
vn -0.0000 -0.5215 0.8532
vn -0.7133 -0.0000 0.7009
vn -0.8341 -0.0000 0.5516
vn -0.5215 -0.0000 0.8532
vn -0.5213 0.0172 0.8532
vn -0.8337 0.0276 0.5516
vn -0.7129 0.0236 0.7009
vn 0.0151 -0.5213 0.8532
vn 0.0241 -0.8338 0.5516
vn 0.0206 -0.7130 0.7009
vn -0.4140 -0.3172 0.8532
vn -0.6621 -0.5073 0.5516
vn -0.5662 -0.4338 0.7009
vn -0.3159 -0.4150 0.8532
vn -0.5052 -0.6637 0.5516
vn -0.4320 -0.5676 0.7009
vn -0.0000 -0.7133 -0.7009
vt 0.498648 0.000000
vt 0.498648 0.664863
vt 0.498648 0.058176
vt 0.556823 0.000000
vt 0.673174 0.000000
vt 0.498648 0.174526
vt 0.498648 0.290877
vt 0.527738 0.029091
vt 0.527738 0.116351
vt 0.614999 0.029091
vt 0.523580 0.664863
vt 0.225503 0.664145
vt 0.797585 0.201044
vt 0.830828 0.234288
vt 0.273320 0.664145
vt 0.797585 0.281301
vt 0.241326 0.664145
vt 0.805837 0.214545
vt 0.259288 0.664145
vt 0.820819 0.224453
vt 0.532588 0.593166
vt 0.799299 0.048049
vt 0.529292 0.643965
vt 0.847116 0.036837
vt 0.661962 0.024932
vt 0.531270 0.607734
vt 0.813331 0.044732
vt 0.530955 0.627039
vt 0.831293 0.041390
vt 0.523580 0.163255
vt 0.225503 0.162538
vt 0.535724 0.212431
vt 0.273320 0.173810
vt 0.536158 0.263260
vt 0.241326 0.167115
vt 0.536432 0.229405
vt 0.259288 0.170475
vt 0.535661 0.248671
vt 0.523580 0.290877
vt 0.225503 0.290160
vt 0.273320 0.290160
vt 0.241326 0.290160
vt 0.259288 0.290160
vt 0.553153 0.124660
vt 0.584433 0.224346
vt 0.583049 0.272051
vt 0.583955 0.240836
vt 0.583444 0.258501
vt 0.550762 0.052409
vt 0.657850 0.211149
vt 0.651417 0.651888
vt 0.630009 0.265998
vt 0.626583 0.595746
vt 0.646151 0.229841
vt 0.640753 0.632646
vt 0.638413 0.250412
vt 0.634129 0.611737
vt 0.623118 0.054499
vt 0.578879 0.634826
vt 0.580201 0.587124
vt 0.579318 0.618348
vt 0.579817 0.600679
vt 0.797585 0.227797
vt 0.797585 0.254549
vt 0.997295 0.000000
vt 0.997295 0.664863
vt 0.997295 0.058176
vt 0.939119 0.000000
vt 0.822768 0.000000
vt 0.997295 0.174526
vt 0.997295 0.290877
vt 0.968204 0.029091
vt 0.968204 0.116351
vt 0.880944 0.029091
vt 0.972362 0.664863
vt 0.225503 0.664145
vt 0.797585 0.649827
vt 0.830828 0.616584
vt 0.177686 0.664145
vt 0.797585 0.569571
vt 0.209680 0.664145
vt 0.805837 0.636326
vt 0.191718 0.664145
vt 0.820819 0.626418
vt 0.661042 0.483430
vt 0.799299 0.197643
vt 0.847116 0.208856
vt 0.833981 0.024932
vt 0.657746 0.432631
vt 0.659724 0.468861
vt 0.813331 0.200960
vt 0.831293 0.204302
vt 0.659409 0.449556
vt 0.972362 0.163255
vt 0.225503 0.162538
vt 0.664950 0.421719
vt 0.177686 0.173810
vt 0.665385 0.370890
vt 0.209680 0.167115
vt 0.665659 0.404745
vt 0.191718 0.170475
vt 0.664888 0.385478
vt 0.972362 0.290877
vt 0.225503 0.290160
vt 0.177686 0.290160
vt 0.209680 0.290160
vt 0.191717 0.290160
vt 0.942790 0.124660
vt 0.713659 0.409804
vt 0.712275 0.362098
vt 0.713182 0.393314
vt 0.712670 0.375648
vt 0.945180 0.052409
vt 0.787077 0.423000
vt 0.779872 0.424708
vt 0.759236 0.368152
vt 0.755037 0.480850
vt 0.775378 0.404308
vt 0.769207 0.443950
vt 0.767640 0.383738
vt 0.762584 0.464858
vt 0.872824 0.054499
vt 0.707333 0.441769
vt 0.708655 0.489471
vt 0.707773 0.458247
vt 0.708271 0.475916
vt 0.797585 0.623075
vt 0.797585 0.596323
vt 0.880692 0.234288
vt 0.323184 0.664145
vt 0.749435 0.048049
vt 0.530653 0.541236
vt 0.323184 0.290160
vt 0.579418 0.541236
vt 0.323184 0.173809
vt 0.531467 0.317879
vt 0.583844 0.317879
vt 0.631995 0.317879
vt 0.631232 0.541236
vt 0.880692 0.616584
vt 0.127821 0.664145
vt 0.749435 0.197643
vt 0.659107 0.535359
vt 0.127821 0.290160
vt 0.707872 0.535359
vt 0.127821 0.173809
vt 0.660694 0.316270
vt 0.713071 0.316270
vt 0.761221 0.316270
vt 0.759686 0.535359
vt 0.498648 0.000001
vt 0.498648 0.664863
vt 0.498648 0.058176
vt 0.440472 0.000001
vt 0.324121 0.000001
vt 0.498647 0.174527
vt 0.498647 0.290878
vt 0.469557 0.029091
vt 0.469557 0.116352
vt 0.382297 0.029091
vt 0.473715 0.664863
vt 0.420866 0.664145
vt 0.963800 0.201044
vt 0.930557 0.234288
vt 0.373049 0.664145
vt 0.963800 0.281301
vt 0.405043 0.664145
vt 0.955548 0.214545
vt 0.387081 0.664145
vt 0.940565 0.224453
vt 0.699570 0.048049
vt 0.532588 0.489307
vt 0.529292 0.438508
vt 0.651753 0.036837
vt 0.335334 0.024933
vt 0.531270 0.474739
vt 0.685538 0.044732
vt 0.530955 0.455433
vt 0.667576 0.041390
vt 0.473715 0.163255
vt 0.420866 0.162538
vt 0.535724 0.423328
vt 0.373049 0.173809
vt 0.536158 0.372499
vt 0.405043 0.167115
vt 0.536432 0.406354
vt 0.387081 0.170475
vt 0.535661 0.387087
vt 0.473715 0.290878
vt 0.420866 0.290160
vt 0.373049 0.290160
vt 0.405043 0.290160
vt 0.387081 0.290160
vt 0.444142 0.124661
vt 0.584433 0.411413
vt 0.583049 0.363707
vt 0.583955 0.394923
vt 0.583444 0.377257
vt 0.446533 0.052410
vt 0.657850 0.424609
vt 0.651417 0.430584
vt 0.630009 0.369761
vt 0.626583 0.486727
vt 0.646151 0.405917
vt 0.640753 0.449827
vt 0.638413 0.385347
vt 0.634129 0.470735
vt 0.374177 0.054499
vt 0.578879 0.447646
vt 0.580201 0.495349
vt 0.579319 0.464125
vt 0.579817 0.481794
vt 0.963800 0.227797
vt 0.963800 0.254549
vt 0.000001 0.000000
vt 0.000000 0.664863
vt 0.000001 0.058176
vt 0.058176 0.000000
vt 0.174527 0.000000
vt 0.000000 0.174526
vt 0.000000 0.290877
vt 0.029091 0.029091
vt 0.029091 0.116351
vt 0.116352 0.029091
vt 0.024932 0.664863
vt 0.030140 0.664145
vt 0.963800 0.649827
vt 0.930557 0.616584
vt 0.077956 0.664145
vt 0.963800 0.569571
vt 0.045963 0.664145
vt 0.955548 0.636326
vt 0.063925 0.664145
vt 0.940565 0.626418
vt 0.699570 0.197643
vt 0.661042 0.587288
vt 0.651753 0.208856
vt 0.163315 0.024933
vt 0.657746 0.638088
vt 0.685538 0.200960
vt 0.659724 0.601857
vt 0.667576 0.204302
vt 0.659410 0.621162
vt 0.024932 0.163255
vt 0.030140 0.162538
vt 0.664950 0.210822
vt 0.077956 0.173809
vt 0.665385 0.261651
vt 0.045963 0.167115
vt 0.665659 0.227796
vt 0.063925 0.170475
vt 0.664888 0.247062
vt 0.024932 0.290877
vt 0.030140 0.290160
vt 0.077956 0.290160
vt 0.045963 0.290160
vt 0.063925 0.290160
vt 0.054505 0.124660
vt 0.713659 0.222737
vt 0.712275 0.270442
vt 0.713181 0.239227
vt 0.712670 0.256892
vt 0.052115 0.052409
vt 0.787077 0.209541
vt 0.779872 0.646011
vt 0.759236 0.264389
vt 0.755037 0.589869
vt 0.775378 0.228232
vt 0.769207 0.626769
vt 0.767640 0.248803
vt 0.762584 0.605860
vt 0.124471 0.054499
vt 0.707333 0.628949
vt 0.708655 0.581247
vt 0.707772 0.612471
vt 0.708271 0.594802
vt 0.963800 0.623075
vt 0.963800 0.596323
s 0
f 87/135/1 85/133/1 25/41/1 21/33/1
f 32/49/2 10/10/2 17/25/2 36/58/2
f 3/3/2 1/1/2 4/4/2 8/8/2
f 91/142/3 84/131/3 16/22/3 57/86/3
f 20/30/2 9/9/2 32/49/2 28/44/2
f 17/25/2 10/10/2 4/4/2 5/5/2
f 6/6/2 3/3/2 9/9/2 20/30/2
f 7/7/2 6/6/2 20/30/2 24/39/2
f 8/8/2 4/4/2 10/10/2 32/49/2
f 9/9/2 3/3/2 8/8/2 32/49/2
f 2/2/2 7/7/2 24/39/2 11/11/2
f 15/20/4 12/14/4 13/16/4 41/64/4
f 25/41/5 12/15/5 15/19/5 27/43/5
f 27/43/6 15/19/6 14/17/6 26/42/6
f 26/42/7 14/17/7 11/12/7 24/40/7
f 21/33/5 25/41/5 27/43/5 23/37/5
f 23/37/6 27/43/6 26/42/6 22/35/6
f 22/35/7 26/42/7 24/40/7 20/31/7
f 28/45/8 32/50/8 34/54/8 30/47/8
f 30/47/9 34/54/9 35/56/9 31/48/9
f 31/48/10 35/56/10 33/52/10 29/46/10
f 32/51/11 36/59/11 38/61/11 34/55/11
f 34/55/12 38/61/12 39/62/12 35/57/12
f 35/57/13 39/62/13 37/60/13 33/53/13
f 20/32/14 28/45/14 30/47/14 22/36/14
f 22/36/15 30/47/15 31/48/15 23/38/15
f 23/38/16 31/48/16 29/46/16 21/34/16
f 36/59/17 17/23/17 19/28/17 38/61/17
f 38/61/18 19/28/18 18/26/18 39/62/18
f 39/62/19 18/26/19 16/21/19 37/60/19
f 11/13/4 14/18/4 40/63/4
f 14/18/4 15/20/4 41/64/4 40/63/4
f 90/140/4 53/78/4 54/80/4 13/16/4 12/14/4 83/129/4
f 60/92/20 59/91/20 18/27/20 19/29/20
f 58/87/21 60/92/21 19/29/21 17/24/21
f 5/5/2 46/69/2 58/88/2 17/25/2
f 94/146/22 62/97/22 66/105/22 92/144/22
f 73/113/2 77/122/2 58/88/2 51/74/2
f 44/67/2 49/72/2 45/68/2 42/65/2
f 61/94/2 69/108/2 73/113/2 50/73/2
f 58/88/2 46/69/2 45/68/2 51/74/2
f 47/70/2 61/94/2 50/73/2 44/67/2
f 48/71/2 65/103/2 61/94/2 47/70/2
f 49/72/2 73/113/2 51/74/2 45/68/2
f 50/73/2 73/113/2 49/72/2 44/67/2
f 43/66/2 52/75/2 65/103/2 48/71/2
f 56/84/4 82/128/4 54/80/4 53/78/4
f 66/105/23 68/107/23 56/83/23 53/79/23
f 68/107/24 67/106/24 55/81/24 56/83/24
f 67/106/25 65/104/25 52/76/25 55/81/25
f 62/97/23 64/101/23 68/107/23 66/105/23
f 64/101/24 63/99/24 67/106/24 68/107/24
f 63/99/25 61/95/25 65/104/25 67/106/25
f 69/109/26 71/111/26 75/118/26 73/114/26
f 71/111/27 72/112/27 76/120/27 75/118/27
f 72/112/28 70/110/28 74/116/28 76/120/28
f 73/115/29 75/119/29 79/125/29 77/123/29
f 75/119/30 76/121/30 80/126/30 79/125/30
f 76/121/31 74/117/31 78/124/31 80/126/31
f 61/96/32 63/100/32 71/111/32 69/109/32
f 63/100/33 64/102/33 72/112/33 71/111/33
f 64/102/34 62/98/34 70/110/34 72/112/34
f 77/123/35 79/125/35 60/93/35 58/89/35
f 79/125/36 80/126/36 59/90/36 60/93/36
f 80/126/37 78/124/37 57/85/37 59/90/37
f 52/77/4 81/127/4 55/82/4
f 55/82/4 81/127/4 82/128/4 56/84/4
f 70/110/38 95/148/38 96/149/38 74/116/38
f 62/98/39 94/147/39 95/148/39 70/110/39
f 74/117/40 96/150/40 93/145/40 78/124/40
f 78/124/41 93/145/41 91/143/41 57/85/41
f 66/105/22 53/79/22 90/141/22 92/144/22
f 155/240/42 114/177/42 112/171/42 153/235/42
f 29/46/43 33/52/43 89/138/43 88/137/43
f 21/34/44 29/46/44 88/137/44 87/136/44
f 33/53/45 37/60/45 86/134/45 89/139/45
f 37/60/46 16/21/46 84/132/46 86/134/46
f 25/41/1 85/133/1 83/130/1 12/15/1
f 87/135/1 117/183/1 121/191/1 85/133/1
f 128/199/47 132/208/47 113/175/47 106/160/47
f 99/153/47 104/158/47 100/154/47 97/151/47
f 91/142/3 153/235/3 112/171/3 84/131/3
f 116/180/47 124/194/47 128/199/47 105/159/47
f 113/175/47 101/155/47 100/154/47 106/160/47
f 102/156/47 116/180/47 105/159/47 99/153/47
f 103/157/47 120/189/47 116/180/47 102/156/47
f 104/158/47 128/199/47 106/160/47 100/154/47
f 105/159/47 128/199/47 104/158/47 99/153/47
f 98/152/47 107/161/47 120/189/47 103/157/47
f 111/170/4 137/214/4 109/166/4 108/164/4
f 121/191/48 123/193/48 111/169/48 108/165/48
f 123/193/49 122/192/49 110/167/49 111/169/49
f 122/192/50 120/190/50 107/162/50 110/167/50
f 117/183/48 119/187/48 123/193/48 121/191/48
f 119/187/49 118/185/49 122/192/49 123/193/49
f 118/185/50 116/181/50 120/190/50 122/192/50
f 124/195/51 126/197/51 130/204/51 128/200/51
f 126/197/52 127/198/52 131/206/52 130/204/52
f 127/198/53 125/196/53 129/202/53 131/206/53
f 128/201/54 130/205/54 134/211/54 132/209/54
f 130/205/55 131/207/55 135/212/55 134/211/55
f 131/207/56 129/203/56 133/210/56 135/212/56
f 116/182/57 118/186/57 126/197/57 124/195/57
f 118/186/58 119/188/58 127/198/58 126/197/58
f 119/188/59 117/184/59 125/196/59 127/198/59
f 132/209/60 134/211/60 115/178/60 113/173/60
f 134/211/61 135/212/61 114/176/61 115/178/61
f 135/212/62 133/210/62 112/172/62 114/176/62
f 107/163/4 136/213/4 110/168/4
f 110/168/4 136/213/4 137/214/4 111/170/4
f 109/166/4 150/230/4 149/228/4 90/140/4 83/129/4 108/164/4
f 156/242/63 115/179/63 114/177/63 155/240/63
f 154/237/64 113/174/64 115/179/64 156/242/64
f 113/175/47 154/238/47 142/219/47 101/155/47
f 94/146/22 92/144/22 162/255/22 158/247/22
f 169/263/47 147/224/47 154/238/47 173/272/47
f 140/217/47 138/215/47 141/218/47 145/222/47
f 157/244/47 146/223/47 169/263/47 165/258/47
f 154/238/47 147/224/47 141/218/47 142/219/47
f 143/220/47 140/217/47 146/223/47 157/244/47
f 144/221/47 143/220/47 157/244/47 161/253/47
f 145/222/47 141/218/47 147/224/47 169/263/47
f 146/223/47 140/217/47 145/222/47 169/263/47
f 139/216/47 144/221/47 161/253/47 148/225/47
f 152/234/4 149/228/4 150/230/4 178/278/4
f 162/255/65 149/229/65 152/233/65 164/257/65
f 164/257/66 152/233/66 151/231/66 163/256/66
f 163/256/67 151/231/67 148/226/67 161/254/67
f 158/247/65 162/255/65 164/257/65 160/251/65
f 160/251/66 164/257/66 163/256/66 159/249/66
f 159/249/67 163/256/67 161/254/67 157/245/67
f 165/259/68 169/264/68 171/268/68 167/261/68
f 167/261/69 171/268/69 172/270/69 168/262/69
f 168/262/70 172/270/70 170/266/70 166/260/70
f 169/265/71 173/273/71 175/275/71 171/269/71
f 171/269/72 175/275/72 176/276/72 172/271/72
f 172/271/73 176/276/73 174/274/73 170/267/73
f 157/246/74 165/259/74 167/261/74 159/250/74
f 159/250/75 167/261/75 168/262/75 160/252/75
f 160/252/76 168/262/76 166/260/76 158/248/76
f 173/273/77 154/239/77 156/243/77 175/275/77
f 175/275/78 156/243/78 155/241/78 176/276/78
f 176/276/79 155/241/79 153/236/79 174/274/79
f 148/227/4 151/232/4 177/277/4
f 151/232/4 152/234/4 178/278/4 177/277/4
f 166/260/38 170/266/38 96/149/38 95/148/38
f 158/248/39 166/260/39 95/148/39 94/147/39
f 170/267/40 174/274/40 93/145/40 96/150/40
f 174/274/41 153/236/41 91/143/41 93/145/41
f 162/255/22 92/144/22 90/141/22 149/229/22
f 125/196/43 88/137/43 89/138/43 129/202/43
f 117/184/44 87/136/44 88/137/44 125/196/44
f 129/203/45 89/139/45 86/134/45 133/210/45
f 133/210/46 86/134/46 84/132/46 112/172/46
f 121/191/1 108/165/1 83/130/1 85/133/1
f 59/91/80 57/86/80 16/22/80 18/27/80
