# Blender 3.4.1
# www.blender.org
mtllib 6x6_wall_bricks.mtl
o 6x6_wall_bricks
v 6.000000 6.000000 0.000000
v 5.383002 4.483942 0.000000
v 4.463273 4.515296 0.000000
v 6.000000 0.000001 0.000000
v 4.546885 4.781809 0.000000
v 5.153070 4.760906 0.000000
v -0.000000 0.000000 -0.000000
v 3.627153 4.990839 0.000000
v 3.585348 4.755681 0.000000
v 4.160179 4.776583 0.000000
v 4.196760 4.996065 0.000000
v 1.296471 3.595564 0.000000
v 1.218086 3.391761 0.000000
v 2.059431 3.412663 0.000000
v 2.054204 3.606016 0.000000
v 1.233763 3.208859 0.000000
v 0.716414 3.167054 0.000000
v 0.622350 2.952798 0.000000
v 1.380084 2.994605 0.000000
v 1.604791 2.775123 0.000000
v 1.583888 2.607899 0.000000
v 2.210978 2.607899 0.000000
v 2.148268 2.796026 0.000000
v 3.580122 1.604557 0.000000
v 3.553993 1.453011 0.000000
v 4.311727 1.442560 0.000000
v 4.238566 1.620235 0.000000
v 6.000000 3.000000 0.000000
v -0.000000 3.000000 0.000000
v 4.403940 6.000000 0.000000
v 4.403940 0.000001 0.000000
v 3.520541 6.000000 0.000000
v 3.520541 0.000001 0.000000
v 2.597535 6.000000 0.000000
v 2.033351 3.449556 0.031254
v 2.027463 3.565355 0.032930
v 1.319191 3.545647 0.034461
v 1.281329 3.418174 0.032297
v 1.212375 3.182228 0.031741
v 0.738631 3.121009 0.034158
v 0.673706 2.988395 0.032336
v 1.307846 3.014065 0.034342
v 1.646324 2.751007 0.030634
v 1.638608 2.633108 0.032139
v 2.160617 2.633108 0.033563
v 2.132560 2.759892 0.032165
v 4.504726 4.561535 0.030673
v 5.311281 4.519119 0.032336
v 5.147259 4.738725 0.030489
v 4.562984 4.763267 0.030989
v 4.139847 4.808304 0.031861
v 4.157988 4.975503 0.030818
v 3.659811 4.935861 0.034752
v 3.619598 4.792346 0.032349
v 3.600091 1.592507 0.030382
v 3.602875 1.475186 0.032917
v 4.257625 1.468449 0.033563
v 4.224401 1.589498 0.031558
v -0.000000 1.500000 0.000000
v 0.896381 1.550089 0.000000
v 6.000000 1.000001 0.000000
v 0.298794 0.516697 0.000000
v 4.373202 0.480854 0.000000
v 3.531692 0.484337 0.000000
v 0.721937 5.158648 0.000000
v 2.605313 1.492681 0.000000
v 2.628708 0.497560 0.000000
v 2.640406 0.000000 0.000000
v -0.000001 5.192205 0.000000
v -0.000001 6.000000 0.000000
v 6.000000 5.192205 0.000000
vn -0.0000 -0.0000 1.0000
vn 0.0023 -0.0161 0.9999
vn 0.0002 0.0026 1.0000
vn -0.0030 0.0116 0.9999
vn -0.0007 0.0035 1.0000
vn 0.0046 -0.0052 1.0000
vn -0.0013 0.0189 0.9998
vn 0.7712 0.0243 0.6361
vn -0.0114 0.5972 0.8020
vn -0.5680 0.1941 0.7998
vn 0.0239 -0.7152 0.6985
vn -0.0678 0.6697 0.7395
vn -0.6212 0.2809 0.7315
vn 0.0362 -0.7650 0.6430
vn 0.5254 0.3375 0.7810
vn -0.5458 0.0592 0.8358
vn -0.0008 -0.7933 0.6088
vn 0.6747 0.1976 0.7111
vn -0.0218 0.7169 0.6968
vn -0.0272 -0.6181 0.7856
vn 0.5999 0.4783 0.6414
vn 0.0321 0.8357 0.5482
vn -0.7608 0.2301 0.6068
vn 0.7151 -0.0993 0.6920
vn -0.0248 0.6565 0.7540
vn -0.6811 0.1430 0.7181
vn 0.0234 -0.6868 0.7264
vn -0.6806 0.0660 0.7297
vn -0.0101 -0.8107 0.5853
vn 0.6610 0.2402 0.7109
vn -0.0086 0.8224 0.5689
vt 0.000137 0.952479
vt 0.999863 0.148295
vt 0.996471 0.149836
vt 0.240771 0.854547
vt 0.235794 0.708564
vt 0.999863 0.002227
vt 0.997950 0.000137
vt 0.952479 0.952479
vt 0.952822 0.013865
vt 0.955041 0.011291
vt 0.193492 0.721835
vt 0.953441 0.112247
vt 0.952752 0.110138
vt 0.196810 0.818051
vt 0.952479 0.000137
vt 0.993471 0.504147
vt 0.992382 0.505954
vt 0.160314 0.575852
vt 0.955329 0.513974
vt 0.952752 0.511535
vt 0.197640 0.569216
vt 0.194322 0.660456
vt 0.955714 0.417747
vt 0.953977 0.420244
vt 0.159485 0.666262
vt 0.990548 0.411924
vt 0.993471 0.413733
vt 0.952752 0.288961
vt 0.953774 0.286826
vt 0.381778 0.205917
vt 0.986041 0.274175
vt 0.988982 0.275533
vt 0.414126 0.193476
vt 0.410808 0.327017
vt 0.987231 0.411454
vt 0.988982 0.409116
vt 0.956530 0.411651
vt 0.954632 0.409228
vt 0.380119 0.326188
vt 0.443157 0.195964
vt 0.952752 0.250736
vt 0.954245 0.252692
vt 0.956245 0.168427
vt 0.957046 0.166726
vt 0.449792 0.113849
vt 0.990262 0.150109
vt 0.993282 0.151978
vt 0.483800 0.098918
vt 0.477164 0.219189
vt 0.993282 0.272431
vt 0.989544 0.273902
vt 0.958058 0.641224
vt 0.955924 0.642678
vt 0.512001 0.254855
vt 0.984617 0.638039
vt 0.987230 0.639478
vt 0.538543 0.251537
vt 0.987230 0.739012
vt 0.984092 0.740809
vt 0.538543 0.351071
vt 0.508683 0.341118
vt 0.954046 0.731433
vt 0.952752 0.728946
vt 0.697798 0.568387
vt 0.958716 0.517042
vt 0.955462 0.519567
vt 0.982964 0.514247
vt 0.985574 0.515802
vt 0.721852 0.564240
vt 0.723510 0.684510
vt 0.985574 0.636083
vt 0.982436 0.637766
vt 0.695309 0.672898
vt 0.954075 0.626549
vt 0.952752 0.624072
vt 0.476308 0.952479
vt 0.476308 0.000137
vt 0.000137 0.699146
vt 0.952479 0.699146
vt 0.000137 0.558930
vt 0.952479 0.558930
vt 0.000137 0.412427
vt 0.981225 0.405133
vt 0.962822 0.404766
vt 0.962474 0.292304
vt 0.982515 0.285672
vt 0.959300 0.247286
vt 0.965434 0.171714
vt 0.985971 0.160419
vt 0.986685 0.261153
vt 0.962029 0.649347
vt 0.980747 0.648163
vt 0.980567 0.731019
vt 0.960452 0.726521
vt 0.990864 0.008542
vt 0.992563 0.136727
vt 0.958755 0.109344
vt 0.958506 0.016524
vt 0.961153 0.423382
vt 0.987622 0.419917
vt 0.983075 0.499111
vt 0.960438 0.505993
vt 0.960595 0.522824
vt 0.979214 0.523511
vt 0.978918 0.627440
vt 0.959773 0.621915
vt 0.714393 0.000137
vt 0.706443 0.142414
vt 0.793755 0.952479
vt 0.870467 0.047562
vt 0.876156 0.694268
vt 0.875603 0.560700
vt 0.133679 0.114725
vt 0.715555 0.413661
vt 0.873504 0.417375
vt 0.952479 0.419232
vt 0.128353 0.000137
vt 0.000137 0.000137
vt 0.128353 0.952479
s 0
f 5/11/1 11/25/1 10/22/1 3/5/1
f 28/76/1 2/4/1 27/73/1 26/70/1
f 23/61/1 9/21/1 15/39/1 14/34/1
f 35/83/2 36/84/2 37/85/2 38/86/2
f 13/33/1 17/45/1 16/40/1 14/34/1
f 39/87/3 40/88/3 41/89/3 42/90/3
f 43/91/4 44/92/4 45/93/4 46/94/4
f 24/64/1 3/5/1 10/22/1 22/60/1
f 23/61/1 14/34/1 16/40/1 19/49/1
f 24/64/1 27/73/1 2/4/1 3/5/1
f 47/95/5 48/96/5 49/97/5 50/98/5
f 51/99/6 52/100/6 53/101/6 54/102/6
f 55/103/7 56/104/7 57/105/7 58/106/7
f 19/49/1 18/48/1 20/54/1 23/61/1
f 25/69/1 24/64/1 22/60/1 66/114/1
f 61/109/1 28/76/1 26/70/1 63/111/1
f 32/80/1 11/25/1 5/11/1 30/78/1
f 34/82/1 8/18/1 11/25/1 32/80/1
f 63/111/1 26/70/1 25/69/1 64/112/1
f 22/60/1 10/22/1 9/21/1 23/61/1
f 14/35/8 15/37/8 36/84/8 35/83/8
f 15/38/9 12/28/9 37/85/9 36/84/9
f 12/29/10 13/31/10 38/86/10 37/85/10
f 13/32/11 14/36/11 35/83/11 38/86/11
f 16/41/12 17/43/12 40/88/12 39/87/12
f 17/44/13 18/46/13 41/89/13 40/88/13
f 18/47/14 19/50/14 42/90/14 41/89/14
f 19/51/15 16/42/15 39/87/15 42/90/15
f 20/52/16 21/55/16 44/92/16 43/91/16
f 21/56/17 22/58/17 45/93/17 44/92/17
f 22/59/18 23/62/18 46/94/18 45/93/18
f 23/63/19 20/53/19 43/91/19 46/94/19
f 3/6/20 2/2/20 48/96/20 47/95/20
f 2/3/21 6/12/21 49/97/21 48/96/21
f 6/13/22 5/9/22 50/98/22 49/97/22
f 5/10/23 3/7/23 47/95/23 50/98/23
f 10/23/24 11/26/24 52/100/24 51/99/24
f 11/27/25 8/16/25 53/101/25 52/100/25
f 8/17/26 9/19/26 54/102/26 53/101/26
f 9/20/27 10/24/27 51/99/27 54/102/27
f 24/65/28 25/67/28 56/104/28 55/103/28
f 25/68/29 26/71/29 57/105/29 56/104/29
f 26/72/30 27/74/30 58/106/30 57/105/30
f 27/75/31 24/66/31 55/103/31 58/106/31
f 64/112/1 25/69/1 66/114/1 67/115/1
f 60/108/1 59/107/1 7/15/1 62/110/1
f 60/108/1 18/48/1 29/77/1 59/107/1
f 21/57/1 20/54/1 18/48/1 60/108/1
f 33/81/1 64/112/1 67/115/1 68/116/1
f 31/79/1 63/111/1 64/112/1 33/81/1
f 4/8/1 61/109/1 63/111/1 31/79/1
f 69/117/1 12/30/1 15/39/1 65/113/1
f 65/113/1 8/18/1 34/82/1 70/118/1
f 67/115/1 66/114/1 60/108/1 62/110/1
f 68/116/1 67/115/1 62/110/1 7/15/1
f 66/114/1 22/60/1 21/57/1 60/108/1
f 15/39/1 9/21/1 8/18/1 65/113/1
f 2/4/1 28/76/1 71/119/1
f 6/14/1 2/4/1 71/119/1 1/1/1
f 5/11/1 6/14/1 1/1/1 30/78/1
f 69/117/1 65/113/1 70/118/1
f 29/77/1 18/48/1 17/45/1 69/117/1
f 69/117/1 17/45/1 13/33/1 12/30/1
