# Blender 3.4.1
# www.blender.org
mtllib 6x6_arch_sharp_base.mtl
o 6x6_arch_sharp_base
v 6.000000 0.000000 0.000000
v 6.000000 0.000000 -1.500000
v 6.000000 6.000000 0.000000
v 6.000000 6.000000 -1.500000
v 5.500000 0.000000 0.000000
v 5.000000 0.000000 -0.500000
v 5.374335 0.000000 -0.041079
v 5.313582 0.000000 -0.189628
v 5.163729 0.000000 -0.259338
v 5.071228 0.000000 -0.375000
v 5.000000 0.000000 -1.000000
v 5.500000 0.000000 -1.500000
v 5.041079 0.000000 -1.125665
v 5.189628 0.000000 -1.186418
v 5.259338 0.000000 -1.336271
v 5.375000 0.000000 -1.428773
v 5.000000 6.000000 -0.500000
v 5.500000 6.000000 0.000000
v 5.071227 6.000000 -0.375000
v 5.163728 6.000000 -0.259338
v 5.313581 6.000000 -0.189628
v 5.374335 6.000000 -0.041079
v 5.500000 6.000000 -1.500000
v 5.000000 6.000000 -1.000000
v 5.375000 6.000000 -1.428773
v 5.259338 6.000000 -1.336271
v 5.189628 6.000000 -1.186418
v 5.041079 6.000000 -1.125665
v 0.000000 0.000000 -0.000000
v 0.000000 0.000000 -1.500000
v -0.000000 6.000000 -0.000000
v -0.000000 6.000000 -1.500000
v 0.500000 -0.000000 -0.000000
v 1.000000 -0.000000 -0.500000
v 0.625664 -0.000000 -0.041079
v 0.686418 -0.000000 -0.189628
v 0.836271 -0.000000 -0.259338
v 0.928772 -0.000000 -0.375000
v 1.000000 -0.000000 -1.000000
v 0.500000 -0.000000 -1.500000
v 0.958921 -0.000000 -1.125665
v 0.810372 -0.000000 -1.186419
v 0.740662 -0.000000 -1.336272
v 0.625000 -0.000000 -1.428773
v 0.999999 6.000000 -0.500000
v 0.499999 6.000000 -0.000000
v 0.928772 6.000000 -0.375000
v 0.836271 6.000000 -0.259338
v 0.686418 6.000000 -0.189628
v 0.625664 6.000000 -0.041079
v 0.499999 6.000000 -1.500000
v 0.999999 6.000000 -1.000000
v 0.624999 6.000000 -1.428773
v 0.740661 6.000000 -1.336272
v 0.810371 6.000000 -1.186419
v 0.958920 6.000000 -1.125665
vn -0.0000 -0.0000 1.0000
vn -1.0000 -0.0000 -0.0000
vn 1.0000 -0.0000 -0.0000
vn -0.0000 -0.0000 -1.0000
vn -0.9505 -0.0000 -0.3107
vn -0.3785 -0.0000 -0.9256
vn -0.9067 -0.0000 -0.4218
vn -0.6246 -0.0000 -0.7810
vn -0.4951 -0.0000 -0.8688
vn -0.8688 -0.0000 0.4951
vn -0.7810 -0.0000 0.6246
vn -0.4218 -0.0000 0.9067
vn -0.9256 -0.0000 0.3785
vn -0.3107 -0.0000 0.9505
vn 0.9505 -0.0000 -0.3107
vn 0.3785 -0.0000 -0.9256
vn 0.9067 -0.0000 -0.4218
vn 0.6246 -0.0000 -0.7810
vn 0.4951 -0.0000 -0.8688
vn 0.8688 -0.0000 0.4951
vn 0.7810 -0.0000 0.6246
vn 0.4218 -0.0000 0.9067
vn 0.9256 -0.0000 0.3785
vn 0.3107 -0.0000 0.9505
vt 0.272846 0.665995
vt 0.106387 0.665995
vt 0.272846 0.000159
vt 0.106387 0.000159
vt 0.328332 0.665995
vt 0.772846 0.665995
vt 0.343004 0.665995
vt 0.722104 0.665995
vt 0.360814 0.665995
vt 0.740445 0.665995
vt 0.756880 0.665995
vt 0.828332 0.665995
vt 0.050900 0.665995
vt 0.843004 0.665995
vt 0.860814 0.665995
vt 0.000159 0.665995
vt 0.018500 0.665995
vt 0.034935 0.665995
vt 0.772846 0.000159
vt 0.328332 0.000159
vt 0.756880 0.000159
vt 0.740445 0.000159
vt 0.722104 0.000159
vt 0.360814 0.000159
vt 0.343004 0.000159
vt 0.050901 0.000159
vt 0.828332 0.000159
vt 0.034935 0.000159
vt 0.018500 0.000159
vt 0.860814 0.000159
vt 0.000159 0.000159
vt 0.843004 0.000159
vt 0.633818 0.000159
vt 0.467359 0.000159
vt 0.633818 0.665995
vt 0.467359 0.665995
vt 0.689305 0.000159
vt 0.949099 0.665995
vt 0.703976 0.000159
vt 0.999841 0.665995
vt 0.721786 0.000159
vt 0.981500 0.665995
vt 0.965065 0.665995
vt 0.893613 0.665995
vt 0.411873 0.000159
vt 0.878942 0.665995
vt 0.861131 0.665995
vt 0.361131 0.000159
vt 0.379472 0.000159
vt 0.395908 0.000159
vt 0.949100 0.000159
vt 0.689305 0.665995
vt 0.965065 0.000159
vt 0.981500 0.000159
vt 0.999841 0.000159
vt 0.721786 0.665995
vt 0.703976 0.665995
vt 0.411873 0.665995
vt 0.893613 0.000159
vt 0.395908 0.665995
vt 0.379472 0.665995
vt 0.861131 0.000159
vt 0.361131 0.665995
vt 0.878942 0.000159
s 0
usemtl Material
f 5/5/1 1/1/1 3/3/1 18/20/1
f 11/12/2 6/6/2 17/19/2 24/27/2
f 1/1/3 2/2/3 4/4/3 3/3/3
f 2/2/4 12/13/4 23/26/4 4/4/4
f 11/12/5 24/27/5 28/32/5 13/14/5
f 13/14/6 28/32/6 27/30/6 14/15/6
f 14/16/7 27/31/7 26/29/7 15/17/7
f 15/17/8 26/29/8 25/28/8 16/18/8
f 16/18/9 25/28/9 23/26/9 12/13/9
f 17/19/10 6/6/10 10/11/10 19/21/10
f 19/21/11 10/11/11 9/10/11 20/22/11
f 20/22/12 9/10/12 8/8/12 21/23/12
f 21/24/13 8/9/13 7/7/13 22/25/13
f 22/25/14 7/7/14 5/5/14 18/20/14
f 33/37/1 46/52/1 31/35/1 29/33/1
f 39/44/3 52/59/3 45/51/3 34/38/3
f 29/33/2 31/35/2 32/36/2 30/34/2
f 30/34/4 32/36/4 51/58/4 40/45/4
f 39/44/15 41/46/15 56/64/15 52/59/15
f 41/46/16 42/47/16 55/62/16 56/64/16
f 42/48/17 43/49/17 54/61/17 55/63/17
f 43/49/18 44/50/18 53/60/18 54/61/18
f 44/50/19 40/45/19 51/58/19 53/60/19
f 45/51/20 47/53/20 38/43/20 34/38/20
f 47/53/21 48/54/21 37/42/21 38/43/21
f 48/54/22 49/55/22 36/40/22 37/42/22
f 49/56/23 50/57/23 35/39/23 36/41/23
f 50/57/24 46/52/24 33/37/24 35/39/24
