# Blender 3.4.1
# www.blender.org
mtllib 6x6_arch_straight_base.mtl
o 6x6_arch_straight_base
v 6.000000 0.000001 -0.000000
v 5.559183 0.000001 -0.000000
v 5.000000 0.000001 -0.461590
v 5.316562 0.000001 -0.000000
v 5.129938 0.000001 -0.070513
v 5.015125 0.000001 -0.237273
v 5.102826 0.000001 -0.346192
v 6.000000 6.001650 0.000000
v 5.000000 6.001651 -0.461590
v 5.103318 6.001650 -0.346192
v 5.015197 6.001650 -0.237273
v 5.130560 6.001650 -0.070513
v 5.318078 6.001651 0.000000
v 5.561861 6.001651 0.000000
v -0.000000 0.000000 -0.000000
v 0.440817 0.000000 -0.000000
v 1.000000 0.000000 -0.461590
v 0.683438 0.000000 -0.000000
v 0.870062 0.000000 -0.070513
v 0.984875 0.000000 -0.237274
v 0.897174 0.000000 -0.346192
v -0.000001 6.001650 -0.000000
v 0.999999 6.001650 -0.461590
v 0.896681 6.001650 -0.346192
v 0.984802 6.001650 -0.237274
v 0.869438 6.001650 -0.070513
v 0.681921 6.001650 -0.000000
v 0.438138 6.001650 -0.000000
v 6.000000 0.000001 -0.750000
v 5.000000 0.000001 -0.750000
v 5.000000 6.001651 -0.750000
v 6.000000 6.001650 -0.750000
v -0.000000 0.000000 -0.750000
v 1.000000 0.000000 -0.750000
v 0.999999 6.001650 -0.750000
v -0.000001 6.001650 -0.750000
v 6.000000 0.000001 -1.500000
v 5.559183 0.000001 -1.500000
v 5.000000 0.000001 -1.038410
v 5.316562 0.000001 -1.500000
v 5.129938 0.000001 -1.429487
v 5.015125 0.000001 -1.262726
v 5.102826 0.000001 -1.153808
v 6.000000 6.001650 -1.500000
v 5.000000 6.001651 -1.038410
v 5.103318 6.001650 -1.153808
v 5.015197 6.001650 -1.262727
v 5.130560 6.001650 -1.429487
v 5.318078 6.001651 -1.500000
v 5.561861 6.001651 -1.500000
v -0.000000 0.000000 -1.500000
v 0.440817 0.000000 -1.500000
v 1.000000 0.000000 -1.038410
v 0.683438 0.000000 -1.500000
v 0.870062 0.000000 -1.429487
v 0.984875 0.000000 -1.262727
v 0.897174 0.000000 -1.153808
v -0.000001 6.001650 -1.500000
v 0.999999 6.001650 -1.038411
v 0.896681 6.001650 -1.153808
v 0.984802 6.001650 -1.262727
v 0.869438 6.001650 -1.429488
v 0.681921 6.001650 -1.500000
v 0.438138 6.001650 -1.500000
vn 1.0000 -0.0000 -0.0000
vn -0.0000 -0.0000 1.0000
vn -0.7458 -0.0000 0.6662
vn -0.7782 -0.0000 -0.6281
vn -0.8230 -0.0000 0.5680
vn -0.3527 0.0001 0.9357
vn -1.0000 -0.0000 -0.0000
vn 0.7458 -0.0000 0.6662
vn 0.7782 -0.0000 -0.6281
vn 0.8230 -0.0000 0.5680
vn 0.3527 0.0001 0.9357
vn -0.0000 -0.0000 -1.0000
vn -0.7458 -0.0000 -0.6662
vn -0.7782 -0.0000 0.6281
vn -0.8230 -0.0000 -0.5680
vn -0.3527 0.0001 -0.9357
vn 0.7458 -0.0000 -0.6662
vn 0.7782 -0.0000 0.6281
vn 0.8230 -0.0000 -0.5680
vn 0.3527 0.0001 -0.9357
vt 0.534815 0.000148
vt 0.489302 0.000148
vt 0.924306 0.619792
vt 0.464253 0.000148
vt 0.443655 0.000149
vt 0.422752 0.000150
vt 0.908348 0.619792
vt 0.408314 0.000151
vt 0.534815 0.619792
vt 0.924306 0.000148
vt 0.908314 0.000148
vt 0.408325 0.619795
vt 0.422790 0.619794
vt 0.443725 0.619792
vt 0.464409 0.619792
vt 0.489579 0.619792
vt 0.126649 0.619795
vt 0.081136 0.619795
vt 0.892026 0.619792
vt 0.056087 0.619795
vt 0.035489 0.619794
vt 0.014586 0.619793
vt 0.907984 0.619792
vt 0.000148 0.619792
vt 0.126649 0.000151
vt 0.892026 0.000148
vt 0.908018 0.000148
vt 0.000159 0.000148
vt 0.014624 0.000149
vt 0.035560 0.000150
vt 0.056243 0.000151
vt 0.081413 0.000151
vt 0.612249 0.000148
vt 0.954083 0.619792
vt 0.954083 0.000148
vt 0.612249 0.619792
vt 0.204083 0.619795
vt 0.862249 0.619792
vt 0.862249 0.000148
vt 0.204083 0.000151
vt 0.689683 0.000148
vt 0.735196 0.000148
vt 0.983860 0.619792
vt 0.760245 0.000148
vt 0.780843 0.000149
vt 0.801746 0.000150
vt 0.999818 0.619792
vt 0.816184 0.000151
vt 0.689683 0.619792
vt 0.983860 0.000148
vt 0.999852 0.000148
vt 0.816173 0.619795
vt 0.801708 0.619794
vt 0.780772 0.619792
vt 0.760089 0.619792
vt 0.734919 0.619792
vt 0.281517 0.619795
vt 0.327030 0.619795
vt 0.832472 0.619792
vt 0.352079 0.619795
vt 0.372677 0.619794
vt 0.393580 0.619793
vt 0.816514 0.619792
vt 0.408018 0.619792
vt 0.281517 0.000151
vt 0.832472 0.000148
vt 0.816480 0.000148
vt 0.408007 0.000148
vt 0.393542 0.000149
vt 0.372607 0.000150
vt 0.351923 0.000151
vt 0.326753 0.000151
s 0
f 32/36/1 8/9/1 1/1/1 29/33/1
f 8/9/2 14/16/2 2/2/2 1/1/2
f 9/10/3 3/3/3 7/7/3 10/11/3
f 10/12/4 7/8/4 6/6/4 11/13/4
f 11/13/5 6/6/5 5/5/5 12/14/5
f 12/14/6 5/5/6 4/4/6 13/15/6
f 13/15/2 4/4/2 2/2/2 14/16/2
f 36/40/7 33/37/7 15/17/7 22/25/7
f 22/25/2 15/17/2 16/18/2 28/32/2
f 23/26/8 24/27/8 21/23/8 17/19/8
f 24/28/9 25/29/9 20/22/9 21/24/9
f 25/29/10 26/30/10 19/21/10 20/22/10
f 26/30/11 27/31/11 18/20/11 19/21/11
f 27/31/2 28/32/2 16/18/2 18/20/2
f 17/19/1 34/38/1 35/39/1 23/26/1
f 3/3/7 9/10/7 31/35/7 30/34/7
f 32/36/1 29/33/1 37/41/1 44/49/1
f 44/49/12 37/41/12 38/42/12 50/56/12
f 45/50/13 46/51/13 43/47/13 39/43/13
f 46/52/14 47/53/14 42/46/14 43/48/14
f 47/53/15 48/54/15 41/45/15 42/46/15
f 48/54/16 49/55/16 40/44/16 41/45/16
f 49/55/12 50/56/12 38/42/12 40/44/12
f 36/40/7 58/65/7 51/57/7 33/37/7
f 58/65/12 64/72/12 52/58/12 51/57/12
f 59/66/17 53/59/17 57/63/17 60/67/17
f 60/68/18 57/64/18 56/62/18 61/69/18
f 61/69/19 56/62/19 55/61/19 62/70/19
f 62/70/20 55/61/20 54/60/20 63/71/20
f 63/71/12 54/60/12 52/58/12 64/72/12
f 53/59/1 59/66/1 35/39/1 34/38/1
f 39/43/7 30/34/7 31/35/7 45/50/7
