# Blender 3.4.1
# www.blender.org
mtllib 6x6_floor_bricks_plane.mtl
o 6x6_floor_bricks_plane
v 0.042181 0.037270 -5.936650
v 6.000000 0.000000 -6.000000
v -0.000000 0.000000 -0.000000
v 6.000000 -0.000000 -0.000001
v 0.081495 0.037270 -5.310327
v 0.749999 0.037270 -5.939674
v 1.451770 0.037270 -5.930601
v 3.749999 0.000000 -6.000000
v 4.500000 0.000000 -6.000000
v 2.951893 0.037270 -0.060204
v 2.250000 0.037270 -0.045083
v 1.566252 0.037270 -0.054156
v 2.924675 0.037270 -0.704917
v 2.212114 0.041062 -0.799983
v 1.500000 0.041062 -0.787886
v 0.806031 0.041062 -0.787886
v 2.212114 0.041062 -1.431873
v 1.503024 0.041062 -1.456066
v 0.787886 0.041062 -1.450018
v 5.202952 0.037270 -2.300072
v 4.500000 0.037270 -2.284951
v 3.702555 0.030797 -2.318614
v 2.981854 0.030797 -2.312566
v 2.321637 0.030797 -2.291396
v 5.209001 0.037270 -2.940856
v 4.462562 0.041062 -3.052560
v 3.750000 0.041062 -3.037439
v 3.046510 0.041062 -3.052560
v 2.309541 0.030797 -2.946508
v 4.459537 0.041062 -3.685344
v 3.750000 0.041062 -3.712562
v 3.055583 0.041062 -3.703490
v 5.194963 0.030797 -4.555037
v 4.503024 0.030797 -4.573182
v 3.808060 0.030797 -4.561086
v 2.199189 0.041063 -4.547786
v 0.837100 0.041063 -4.532665
v 5.197987 0.030797 -5.182868
v 4.484879 0.030797 -5.191940
v 3.826205 0.030797 -5.197988
v 2.184068 0.041063 -5.205238
v 1.448746 0.037270 -5.319399
v 0.749999 0.037270 -5.310327
v -0.000001 0.000000 -5.250000
v -0.000001 0.000000 -6.000000
v 0.812906 0.041063 -5.184069
v 0.749999 0.000000 -6.000000
v 1.499999 0.000000 -6.000000
v 2.250000 0.000000 -4.500000
v 0.750000 0.000000 -4.500000
v 2.249999 0.000000 -5.250000
v 1.500000 0.000000 -5.250000
v 0.749999 0.000000 -5.250000
v 5.250000 -0.000000 -4.500000
v 4.500000 0.000000 -4.500000
v 3.750000 0.000000 -4.500000
v 5.250000 0.000000 -5.250000
v 4.512096 0.000000 -5.253025
v 3.749999 0.000000 -5.250000
v 4.500000 0.037270 -2.965049
v 3.666265 0.030797 -2.952556
v 3.000000 0.030797 -2.952556
v 4.500000 -0.000000 -3.750000
v 3.750000 0.000000 -3.750000
v 3.000000 0.000000 -3.750000
v 3.827289 0.037270 -2.287976
v 3.000000 -0.000000 -2.250000
v 2.250000 0.000000 -2.250000
v 3.806120 0.037270 -2.949929
v 3.000000 0.000000 -3.000000
v 2.250000 0.000000 -3.000000
v 5.250000 -0.000000 -2.250000
v 4.500000 -0.000000 -2.250000
v 3.750000 -0.000000 -2.250000
v 5.250000 -0.000000 -3.000001
v 4.500000 -0.000000 -3.000000
v 3.750000 -0.000000 -3.000000
v 2.250000 0.037270 -0.704917
v 1.551131 0.037270 -0.686772
v 0.750000 0.000000 -0.750000
v 2.250000 -0.000000 -1.500000
v 1.500000 0.000000 -1.500000
v 0.750000 0.000000 -1.500000
v 3.000000 -0.000000 -0.000000
v 2.250000 -0.000000 -0.000000
v 1.500000 -0.000000 -0.000000
v 3.000000 -0.000000 -0.750000
v 2.250000 -0.000000 -0.750000
v 1.500000 -0.000000 -0.750000
v -0.000000 0.000000 -4.500000
v 6.000000 -0.000000 -4.500000
v 6.000000 -0.000000 -3.000001
v -0.000000 0.000000 -3.000000
v 1.125000 0.000000 -3.000000
v 4.500000 -0.000000 -0.000001
v 3.750000 -0.000000 -0.000000
vn -0.0000 1.0000 -0.0000
vn 0.0038 0.6989 0.7152
vn -0.5164 0.8562 0.0148
vn -0.0000 0.8507 0.5256
vn -0.0011 0.8566 -0.5159
vn 0.0031 0.8676 -0.4973
vn 0.0031 0.8676 0.4973
vn 0.5996 0.8003 0.0013
vn -0.0044 0.8030 -0.5959
vn 0.5755 0.8178 -0.0062
vn -0.4816 0.8763 0.0083
vn -0.0055 0.9005 0.4348
vn 0.0035 0.9083 0.4183
vn 0.0036 0.9022 -0.4312
vn 0.0010 0.8780 -0.4786
vn 0.4988 0.8667 0.0011
vn -0.4173 0.9088 -0.0055
vn 0.0070 0.7401 0.6725
vn -0.0070 0.7405 0.6721
vn 0.0116 0.7814 -0.6239
vn -0.0044 0.7163 -0.6978
vn 0.7254 0.6883 -0.0016
vn -0.6269 0.7791 -0.0041
vn 0.0017 0.9055 0.4243
vn 0.0077 0.8586 0.5126
vn -0.0000 0.8388 -0.5445
vn -0.0022 0.8542 -0.5200
vn 0.4265 0.9044 -0.0112
vn -0.4253 0.9050 0.0037
vn 0.0068 0.7538 0.6571
vn -0.0015 0.7001 0.7140
vn 0.0103 0.7860 -0.6182
vn -0.0069 0.7542 -0.6566
vn 0.6463 0.7631 0.0028
vn -0.4883 0.8727 0.0073
vn 0.0056 0.7318 0.6815
vn -0.0000 0.6781 0.7350
vn 0.0098 0.8080 -0.5891
vn -0.0027 0.7534 -0.6576
vn 0.7350 0.6781 -0.0000
vn -0.6589 0.7522 0.0085
vn 0.0060 0.8174 0.5760
vn -0.0038 0.8008 0.5989
vn -0.0000 0.7707 -0.6372
vn -0.0071 0.8253 -0.5646
vn 0.5178 0.8554 -0.0101
vn -0.5364 0.8440 0.0059
vt 0.113345 0.804613
vt 0.796675 0.000195
vt 0.000195 0.796674
vt 0.000195 0.000195
vt 0.196522 0.809796
vt 0.113017 0.898559
vt 0.114186 0.991702
vt 0.796674 0.298875
vt 0.796675 0.199315
vt 0.093801 0.991201
vt 0.095433 0.898066
vt 0.094133 0.807303
vt 0.008103 0.987822
vt 0.892192 0.196642
vt 0.893705 0.102128
vt 0.893701 0.009948
vt 0.808216 0.196634
vt 0.805150 0.102530
vt 0.805654 0.007660
vt 0.805656 0.619416
vt 0.803851 0.712711
vt 0.298361 0.990793
vt 0.298982 0.895102
vt 0.301491 0.807424
vt 0.890863 0.618564
vt 0.806393 0.211872
vt 0.804438 0.306403
vt 0.805979 0.399736
vt 0.214534 0.806096
vt 0.890603 0.212383
vt 0.893800 0.306596
vt 0.892604 0.398794
vt 0.402261 0.989973
vt 0.399987 0.898089
vt 0.401552 0.805808
vt 0.892460 0.602107
vt 0.893863 0.421289
vt 0.318947 0.990282
vt 0.317820 0.895641
vt 0.317033 0.808222
vt 0.805180 0.600391
vt 0.195352 0.991305
vt 0.196522 0.898543
vt 0.204593 0.797936
vt 0.205937 0.798976
vt 0.697114 0.796675
vt 0.104998 0.797065
vt 0.103588 0.799016
vt 0.807381 0.418366
vt 0.103605 0.898567
vt 0.796674 0.597555
vt 0.103738 0.998118
vt 0.104977 0.999805
vt 0.900828 0.608846
vt 0.898796 0.610784
vt 0.597555 0.497995
vt 0.900828 0.409726
vt 0.898202 0.408507
vt 0.597555 0.697115
vt 0.697115 0.497995
vt 0.797115 0.609142
vt 0.799237 0.610702
vt 0.697115 0.597555
vt 0.205801 0.998124
vt 0.204575 0.999713
vt 0.797132 0.509582
vt 0.205937 0.898551
vt 0.797065 0.410022
vt 0.798642 0.408383
vt 0.697114 0.697115
vt 0.410643 0.997271
vt 0.409561 0.998346
vt 0.597555 0.099755
vt 0.597555 0.199315
vt 0.410530 0.897690
vt 0.597555 0.298875
vt 0.410643 0.798110
vt 0.409635 0.797065
vt 0.697115 0.099755
vt 0.309147 0.997189
vt 0.310034 0.998300
vt 0.697516 0.197709
vt 0.308743 0.899259
vt 0.697115 0.298875
vt 0.309002 0.798115
vt 0.310108 0.797329
vt 0.893909 0.712652
vt 0.214213 0.986158
vt 0.214017 0.897735
vt 0.497995 0.199315
vt 0.900753 0.206965
vt 0.899229 0.204735
vt 0.497995 0.298875
vt 0.901180 0.306582
vt 0.497995 0.398435
vt 0.900818 0.406207
vt 0.898790 0.407992
vt 0.804314 0.802096
vt 0.308242 0.897506
vt 0.298875 0.398435
vt 0.308353 0.797920
vt 0.306968 0.797065
vt 0.298875 0.497995
vt 0.892409 0.804662
vt 0.398435 0.398435
vt 0.797132 0.405914
vt 0.798985 0.407992
vt 0.206510 0.897750
vt 0.206327 0.798209
vt 0.207421 0.797209
vt 0.398435 0.497995
vt 0.797390 0.613144
vt 0.798977 0.611452
vt 0.298875 0.099755
vt 0.797065 0.712703
vt 0.298875 0.199315
vt 0.308353 0.997081
vt 0.307442 0.998331
vt 0.797262 0.812382
vt 0.799257 0.813513
vt 0.298875 0.298875
vt 0.900111 0.613068
vt 0.898707 0.611175
vt 0.398435 0.099755
vt 0.398435 0.199315
vt 0.797567 0.206860
vt 0.799419 0.204458
vt 0.900688 0.712626
vt 0.797065 0.306387
vt 0.206730 0.997288
vt 0.207901 0.997991
vt 0.900688 0.812106
vt 0.899061 0.813635
vt 0.007961 0.898236
vt 0.010063 0.805485
vt 0.901124 0.002504
vt 0.898774 0.000730
vt 0.099755 0.697115
vt 0.797683 0.201718
vt 0.799161 0.204058
vt 0.199315 0.497995
vt 0.797168 0.102164
vt 0.199315 0.597555
vt 0.797065 0.002641
vt 0.799048 0.000195
vt 0.199315 0.697115
vt 0.103197 0.997585
vt 0.101775 0.999316
vt 0.000195 0.398435
vt 0.103197 0.898054
vt 0.000195 0.597555
vt 0.102829 0.798474
vt 0.101337 0.797207
vt 0.000350 0.997838
vt 0.002095 0.998983
vt 0.099755 0.398435
vt 0.900760 0.201702
vt 0.898834 0.204067
vt 0.000195 0.898232
vt 0.099755 0.497995
vt 0.099755 0.597555
vt 0.901124 0.102144
vt 0.000330 0.798685
vt 0.001673 0.797065
vt 0.597555 0.796675
vt 0.597555 0.000195
vt 0.398435 0.000195
vt 0.398435 0.796675
vt 0.398435 0.647335
vt 0.000195 0.199315
vt 0.000195 0.298875
s 0
f 43/43/1 6/6/1 1/1/1 5/5/1
f 2/2/1 9/9/1 58/82/1 57/79/1
f 51/60/1 8/8/1 48/51/1 52/63/1
f 49/56/1 59/84/1 8/8/1 51/60/1
f 65/95/1 56/76/1 59/84/1 49/56/1
f 63/90/1 54/73/1 55/74/1 64/93/1
f 33/33/1 38/38/1 39/39/1 34/34/1
f 34/34/1 39/39/1 40/40/1 35/35/1
f 64/93/1 55/74/1 56/76/1 65/95/1
f 36/36/2 37/37/2 50/57/2 49/54/2
f 41/41/1 46/49/1 37/37/1 36/36/1
f 26/26/1 30/30/1 31/31/1 27/27/1
f 27/27/1 31/31/1 32/32/1 28/28/1
f 20/20/1 25/25/1 60/87/1 21/21/1
f 21/21/1 60/87/1 69/104/1 66/98/1
f 22/22/1 61/88/1 62/89/1 23/23/1
f 23/23/1 62/89/1 29/29/1 24/24/1
f 14/14/1 17/17/1 18/18/1 15/15/1
f 15/15/1 18/18/1 19/19/1 16/16/1
f 10/10/1 13/13/1 78/134/1 11/11/1
f 11/11/1 78/134/1 79/135/1 12/12/1
f 80/138/1 3/3/1 86/151/1 89/161/1
f 58/82/1 9/9/1 8/8/1 59/84/1
f 65/95/1 49/56/1 71/111/1 70/105/1
f 42/42/1 7/7/1 6/6/1 43/43/1
f 91/166/1 2/2/1 57/79/1 54/73/1
f 95/170/1 4/4/1 72/114/1 73/116/1
f 75/124/1 54/73/1 63/90/1 76/125/1
f 5/5/3 1/1/3 45/47/3 44/44/3
f 43/43/4 5/5/4 44/45/4 53/67/4
f 1/1/5 6/6/5 47/50/5 45/48/5
f 6/6/6 7/7/6 48/52/6 47/50/6
f 42/42/7 43/43/7 53/67/7 52/64/7
f 7/7/8 42/42/8 52/65/8 48/53/8
f 46/49/9 41/41/9 51/61/9 52/66/9 53/68/9
f 41/41/10 36/36/10 49/55/10 51/62/10
f 37/37/11 46/49/11 53/69/11 50/58/11
f 33/33/12 34/34/12 55/75/12 54/71/12
f 34/34/13 35/35/13 56/77/13 55/75/13
f 39/39/14 38/38/14 57/80/14 58/83/14
f 40/40/15 39/39/15 58/83/15 59/85/15
f 38/38/16 33/33/16 54/72/16 57/81/16
f 35/35/17 40/40/17 59/86/17 56/78/17
f 26/26/18 27/27/18 77/129/18 76/126/18
f 27/27/19 28/28/19 70/106/19 77/129/19
f 31/31/20 30/30/20 63/91/20 64/94/20
f 32/32/21 31/31/21 64/94/21 65/96/21
f 30/30/22 26/26/22 76/127/22 63/92/22
f 28/28/23 32/32/23 65/97/23 70/107/23
f 22/22/24 23/23/24 67/99/24 74/117/24
f 23/23/25 24/24/25 68/101/25 67/99/25
f 62/89/26 61/88/26 77/130/26 70/108/26
f 29/29/27 62/89/27 70/108/27 71/109/27
f 61/88/28 22/22/28 74/118/28 77/131/28
f 24/24/29 29/29/29 71/110/29 68/102/29
f 20/20/30 21/21/30 73/115/30 72/112/30
f 21/21/31 66/98/31 74/119/31 73/115/31
f 60/87/32 25/25/32 75/122/32 76/128/32
f 69/104/33 60/87/33 76/128/33 77/132/33
f 25/25/34 20/20/34 72/113/34 75/123/34
f 66/98/35 69/104/35 77/133/35 74/120/35
f 14/14/36 15/15/36 89/162/36 88/157/36
f 15/15/37 16/16/37 80/136/37 89/162/37
f 18/18/38 17/17/38 81/139/38 82/142/38
f 19/19/39 18/18/39 82/142/39 83/144/39
f 17/17/40 14/14/40 88/158/40 81/140/40
f 16/16/41 19/19/41 83/145/41 80/137/41
f 10/10/42 11/11/42 85/150/42 84/147/42
f 11/11/43 12/12/43 86/152/43 85/150/43
f 78/134/44 13/13/44 87/154/44 88/159/44
f 79/135/45 78/134/45 88/159/45 89/163/45
f 13/13/46 10/10/46 84/148/46 87/155/46
f 12/12/47 79/135/47 89/164/47 86/153/47
f 50/59/1 53/70/1 44/46/1 90/165/1
f 92/167/1 91/166/1 54/73/1 75/124/1
f 4/4/1 92/167/1 75/124/1 72/114/1
f 93/168/1 3/3/1 80/138/1 83/146/1
f 50/59/1 90/165/1 93/168/1 94/169/1
f 94/169/1 93/168/1 83/146/1 82/143/1
f 49/56/1 50/59/1 94/169/1 71/111/1
f 96/171/1 95/170/1 73/116/1 74/121/1
f 84/149/1 96/171/1 74/121/1 67/100/1 87/156/1
f 71/111/1 94/169/1 82/143/1 68/103/1
f 87/156/1 67/100/1 81/141/1 88/160/1
f 68/103/1 82/143/1 81/141/1 67/100/1
