# Blender 3.4.1
# www.blender.org
mtllib column_top.mtl
o Cube.001
v 1.500000 2.000000 -4.000000
v 0.099497 0.186401 -0.009191
v 0.000000 0.000000 -4.000000
v 0.099497 2.116047 -3.839339
v 2.900503 0.186401 -0.009191
v 3.000000 0.000000 -4.000000
v 2.900503 2.116047 -3.839339
v 0.000000 0.000000 -2.000000
v 0.099497 2.116047 -1.938836
v 3.000000 0.000000 -2.000000
v 2.900503 2.116047 -1.938836
v 1.500000 0.000000 0.000000
v 1.500000 2.000000 -2.000000
v 2.349497 2.116047 -3.839339
v 2.349497 0.186401 -0.009191
v 2.250000 2.000000 -2.000000
v 0.650503 2.116047 -1.938836
v 0.650503 2.116047 -3.839339
v 0.650503 0.186401 -0.009191
v 2.900503 1.116047 -0.938836
v 0.099497 1.116047 -0.938836
v 1.500000 1.000000 -1.000000
v 2.349497 1.116047 -0.938836
v 0.650503 1.116047 -0.938836
v 0.099497 1.616047 -1.438836
v 0.000000 0.000000 -1.000000
v 3.000000 0.000000 -1.000000
v 2.900503 1.616047 -1.438836
v 1.500000 1.500000 -1.500000
v 2.349497 1.616047 -1.438836
v 0.650503 1.616047 -1.438836
v 0.000000 2.000000 -2.000000
v 0.000000 2.000000 -4.000000
v 2.250000 2.000000 -4.000000
v 3.000000 2.000000 -4.000000
v 3.000000 1.000000 -1.000000
v 3.000000 0.000000 0.000000
v 0.750000 0.000000 0.000000
v 0.000000 0.000000 0.000000
v 0.000000 1.500000 -1.500000
v 3.000000 2.000000 -2.000000
v 2.250000 0.000000 0.000000
v 2.250000 1.000000 -1.000000
v 2.349497 2.116047 -1.938836
v 0.750000 2.000000 -4.000000
v 0.750000 2.000000 -2.000000
v 0.750000 1.000000 -1.000000
v 3.000000 1.500000 -1.500000
v 0.000000 1.000000 -1.000000
v 2.250000 1.500000 -1.500000
v 0.750000 1.500000 -1.500000
vn -1.0000 -0.0000 -0.0000
vn 1.0000 -0.0000 -0.0000
vn -0.0000 0.7071 0.7071
vn -0.0000 1.0000 -0.0000
vn -0.7592 0.6509 -0.0000
vn -0.0000 0.8106 -0.5855
vn 0.7831 0.4397 0.4397
vn -0.0000 0.0492 0.9988
vn -0.7831 0.4397 0.4397
vn 0.7592 0.6509 -0.0000
vt 0.745564 0.443953
vt 0.888399 0.029293
vt 0.313922 0.000000
vt 0.023993 0.926148
vt 0.888399 0.885964
vt 0.627843 0.627843
vt 0.244953 0.926148
vt 0.313922 0.313922
vt 0.023993 0.627843
vt 0.888399 0.457628
vt 0.627843 0.313922
vt 0.244953 0.627843
vt 0.888399 0.457628
vt 0.745564 0.443952
vt 0.745564 0.757874
vt 0.745564 0.000000
vt 0.158466 0.926148
vt 0.974886 0.885964
vt 0.627843 0.757874
vt 0.627843 0.000000
vt 0.134473 0.637444
vt 1.000000 0.463720
vt 0.110480 0.627843
vt 0.974886 0.457628
vt 0.110480 0.926148
vt 0.974886 0.029293
vt 0.888399 0.679605
vt 0.888399 0.235652
vt 0.745564 0.221976
vt 0.974886 0.679605
vt 0.974886 0.235652
vt 0.888399 0.346640
vt 0.313922 0.470882
vt 0.627843 0.156961
vt 0.888399 0.568616
vt 0.745564 0.110988
vt 0.974886 0.568616
vt 0.974886 0.346640
vt 0.000000 0.313922
vt 0.000000 0.637444
vt 0.863285 0.451537
vt 0.000000 0.000000
vt 0.000000 0.951365
vt 0.008376 0.957256
vt 0.627843 0.443953
vt 0.142849 0.957256
vt 0.134473 0.951365
vt 0.313922 0.627843
vt 0.260570 0.957256
vt 0.268946 0.951365
vt 0.470883 0.156961
vt 0.863285 0.685696
vt 0.627843 0.000000
vt 0.863285 0.907672
vt 0.872782 0.915257
vt 0.863285 0.443952
vt 0.990503 0.000000
vt 1.000000 0.007585
vt 0.313922 0.627843
vt 0.872782 0.000000
vt 0.863285 0.007585
vt 0.078480 0.392402
vt 0.863285 0.340549
vt 0.313922 0.313922
vt 0.268946 0.637444
vt 0.863285 0.463720
vt 0.627843 0.443952
vt 0.990503 0.915257
vt 1.000000 0.907672
vt 0.627843 0.221976
vt 1.000000 0.685696
vt 0.158466 0.627843
vt 0.974886 0.457628
vt 0.863285 0.443953
vt 0.126097 0.957256
vt 0.134473 0.951365
vt 0.863285 0.757874
vt 0.863285 0.000000
vt 0.134473 0.637444
vt 1.000000 0.451537
vt 0.863285 0.221976
vt 1.000000 0.229561
vt 0.392402 0.235441
vt 0.863285 0.574708
vt 0.156961 0.470882
vt 0.863285 0.229561
vt 0.627843 0.110988
vt 1.000000 0.574708
vt 0.863285 0.110988
vt 1.000000 0.340549
s 0
f 8/8/1 32/39/1 33/42/1 3/3/1
f 27/34/2 48/83/2 36/51/2 37/53/2
f 24/31/3 21/28/3 2/2/3 19/26/3
f 18/25/4 4/4/4 9/9/4 17/23/4
f 6/6/2 35/48/2 41/64/2 10/11/2
f 26/33/1 40/62/1 32/39/1 8/8/1
f 34/45/4 1/1/4 13/15/4 16/19/4
f 43/70/3 22/29/3 12/14/3 42/67/3
f 20/27/3 23/30/3 15/18/3 5/5/3
f 7/7/4 14/17/4 44/72/4 11/12/4
f 1/1/4 45/74/4 46/77/4 13/15/4
f 22/29/3 47/81/3 38/56/3 12/14/3
f 29/36/3 51/89/3 47/81/3 22/29/3
f 28/35/3 30/37/3 23/30/3 20/27/3
f 50/87/3 29/36/3 22/29/3 43/70/3
f 31/38/3 25/32/3 21/28/3 24/31/3
f 17/24/3 9/10/3 25/32/3 31/38/3
f 16/20/3 13/16/3 29/36/3 50/87/3
f 11/13/3 44/73/3 30/37/3 28/35/3
f 13/16/3 46/78/3 51/89/3 29/36/3
f 39/59/1 49/85/1 40/62/1 26/33/1
f 10/11/2 41/64/2 48/83/2 27/34/2
f 9/9/5 4/4/5 33/43/5 32/40/5
f 14/17/6 7/7/6 35/49/6 34/46/6
f 20/27/7 5/5/7 37/54/7 36/52/7
f 19/26/8 2/2/8 39/60/8 38/57/8
f 25/32/9 9/10/9 32/41/9 40/63/9
f 7/7/10 11/12/10 41/65/10 35/50/10
f 5/5/8 15/18/8 42/68/8 37/55/8
f 15/18/9 23/30/9 43/71/9 42/69/9
f 44/72/5 14/17/5 34/47/5 16/21/5
f 4/4/6 18/25/6 45/75/6 33/44/6
f 18/25/10 17/23/10 46/79/10 45/76/10
f 24/31/7 19/26/7 38/58/7 47/82/7
f 28/35/7 20/27/7 36/52/7 48/84/7
f 2/2/9 21/28/9 49/86/9 39/61/9
f 23/30/9 30/37/9 50/88/9 43/71/9
f 31/38/7 24/31/7 47/82/7 51/90/7
f 21/28/9 25/32/9 40/63/9 49/86/9
f 11/13/7 28/35/7 48/84/7 41/66/7
f 30/37/9 44/73/9 16/22/9 50/88/9
f 17/24/7 31/38/7 51/90/7 46/80/7
