# Blender v2.93.3 OBJ File: ''
# www.blender.org
mtllib PARED.mtl
o monstruo_pared_low
v 2.206314 0.818001 0.215110
v 2.211672 1.113095 0.215110
v 2.105503 1.167110 0.426636
v 2.100403 0.886181 0.426636
v 2.248395 3.135851 0.215111
v 2.255302 3.516284 0.215111
v 2.147039 3.454938 0.426638
v 2.140464 3.092767 0.426638
v 1.182564 0.894136 0.215110
v 1.186191 1.177935 0.215110
v 1.152745 1.177935 0.665594
v 1.149221 0.894136 0.665594
v 1.231637 0.000155 0.215110
v 1.239778 0.107594 0.426636
v 1.235988 0.894136 0.426636
v 0.425009 0.900702 0.665594
v 0.427419 1.186871 0.665594
v 1.163271 1.910509 0.665594
v 0.434617 1.926520 0.665594
v 0.439425 0.000155 0.215110
v 1.139454 0.107594 0.665594
v 0.418330 0.107594 0.665594
v 1.197023 2.025655 0.215110
v 1.295837 3.123268 0.426638
v 1.310749 3.489139 0.426638
v 1.239778 1.177935 0.426636
v 1.292834 1.098343 0.854073
v 2.058378 1.087517 0.854073
v 2.120738 2.006256 0.426636
v 1.251099 2.025655 0.426636
v 1.266012 2.391526 0.426637
v 1.201583 2.382567 0.215110
v 2.191466 0.000155 0.215110
v 2.086267 0.107594 0.426636
v 2.227674 1.994554 0.215110
v 1.277025 3.552210 0.215111
v 1.288881 0.894136 0.854073
v 2.053392 0.886181 0.854073
v 2.039573 0.107594 0.854073
v 1.277927 0.107594 0.854073
v 0.496362 2.262891 0.215110
v 1.171422 2.401760 0.534291
v 0.481982 2.284762 0.534291
v 0.555341 4.781895 0.215111
v 0.306266 4.793880 0.215111
v 0.281767 4.639183 0.534292
v 0.513579 4.628028 0.534292
v 1.263983 3.425122 0.215111
v 0.926628 3.284430 0.215111
v 0.874020 2.971564 0.215110
v 1.207925 2.878892 0.215110
v 0.434617 2.041667 0.215110
v -0.000012 0.000155 0.215110
v -0.000012 0.107594 0.665594
v -0.000012 1.191904 0.665594
v -0.000012 1.935648 0.665594
v -0.000012 0.904401 0.665594
v 1.119566 3.718654 0.215111
v 0.962107 3.885098 0.215111
v 0.892153 3.793385 0.534292
v 1.038700 3.638477 0.534292
v 0.837862 2.953143 0.534292
v 1.168738 2.844776 0.534292
v 0.938868 3.357223 0.215111
v 0.914586 3.354605 0.534292
v 0.902620 3.283441 0.534292
v 0.256880 3.809726 0.600119
v 0.260508 4.639183 0.600119
v 0.239250 4.639183 0.665946
v 0.235917 3.809726 0.665946
v 0.327895 2.533832 0.496491
v 1.041850 2.563865 0.496491
v 1.043534 2.636459 0.496491
v 0.326460 2.641858 0.496491
v -0.342933 2.482801 -0.534291
v -0.000012 2.467787 -0.534291
v 0.342908 2.482801 -0.534291
v -0.000012 2.077343 -0.534291
v -0.000012 4.652741 0.665946
v 0.239250 5.205319 0.665946
v -0.000012 5.218878 0.665946
v 0.863415 3.292501 0.534292
v 0.842277 3.329569 0.534292
v 0.821840 3.330779 0.591802
v 0.842736 3.288460 0.591802
v 0.277842 3.809726 0.534292
v -0.000012 2.050795 0.215110
v 0.426061 2.130681 0.534291
v -0.000012 2.077343 0.534291
v 1.154149 3.552426 0.534292
v -0.000012 3.817116 0.665946
v 0.276523 2.973729 0.600118
v 0.247610 3.251989 0.600119
v 0.227404 3.251989 0.665946
v 0.253958 2.982984 0.665945
v 0.253753 3.330534 0.600119
v 0.234042 3.343191 0.665946
v -0.000012 2.697920 0.600118
v 0.305437 2.695469 0.600118
v 0.280512 2.713979 0.665945
v -0.000012 2.716429 0.665945
v 0.281767 5.205319 0.534292
v 0.260508 5.205319 0.600119
v 0.291564 5.237341 0.215111
v 0.473299 3.134344 0.534292
v 0.763185 3.186575 0.534292
v 0.737969 3.206142 0.591802
v 0.488521 3.173714 0.591802
v 0.692807 3.461179 0.534292
v 0.682594 3.437325 0.591802
v 0.411135 3.410942 0.534292
v 0.420892 3.408247 0.591802
v 0.267816 3.251989 0.534292
v 0.281479 3.251043 0.591802
v 0.292869 3.321705 0.591802
v 0.305810 3.308585 0.578256
v 0.301216 3.263595 0.578256
v 0.824499 3.298480 0.578256
v 0.812622 3.309591 0.578256
v 0.273464 3.317877 0.534292
v 1.079920 2.515068 0.534291
v 1.077748 2.671415 0.534291
v -0.000012 2.643938 0.496491
v 0.330362 2.676959 0.534291
v -0.000012 2.679410 0.534291
v -0.000012 5.218878 0.600119
v -0.000012 5.251371 0.215111
v -0.000012 5.218878 0.534292
v -0.000012 3.343191 0.665946
v 0.430870 0.793603 0.912157
v 1.114985 0.787725 0.912157
v 1.105748 0.107594 0.912157
v 0.028903 0.107594 0.912157
v 0.424554 0.107594 0.912157
v 0.028903 0.796914 0.912157
v 0.299089 2.964474 0.534292
v 0.803696 3.407892 0.534292
v 0.342908 2.482801 0.534291
v -0.000012 2.520038 0.496491
v -0.000012 2.982984 0.665945
v -0.000012 2.467787 0.534291
v -2.206339 0.818001 0.215110
v -2.100428 0.886181 0.426636
v -2.105528 1.167110 0.426636
v -2.211697 1.113095 0.215110
v -2.248420 3.135851 0.215111
v -2.140489 3.092767 0.426638
v -2.147064 3.454938 0.426638
v -2.255327 3.516284 0.215111
v -1.182589 0.894136 0.215110
v -1.149246 0.894136 0.665594
v -1.152770 1.177935 0.665594
v -1.186216 1.177935 0.215110
v -1.236012 0.894136 0.426636
v -1.239802 0.107594 0.426636
v -1.231662 0.000155 0.215110
v -0.425034 0.900702 0.665594
v -0.427444 1.186871 0.665594
v -0.434642 1.926520 0.665594
v -1.163296 1.910509 0.665594
v -0.439450 0.000155 0.215110
v -0.418355 0.107594 0.665594
v -1.139479 0.107594 0.665594
v -1.197048 2.025655 0.215110
v -1.293548 3.123268 0.426638
v -1.307689 3.489139 0.426638
v -2.058403 1.087517 0.854073
v -1.292858 1.098343 0.854073
v -1.239802 1.177935 0.426636
v -1.251124 2.025655 0.426636
v -2.120763 2.006256 0.426636
v -1.201608 2.382567 0.215110
v -1.265265 2.391526 0.426637
v -2.086292 0.107594 0.426636
v -2.191491 0.000155 0.215110
v -2.227699 1.994554 0.215110
v -1.277050 3.552210 0.215111
v -1.288906 0.894136 0.854073
v -2.053417 0.886181 0.854073
v -1.277952 0.107594 0.854073
v -2.039598 0.107594 0.854073
v -0.496387 2.262891 0.215110
v -0.482007 2.284762 0.534291
v -1.171447 2.401760 0.534291
v -0.555366 4.781895 0.215111
v -0.513604 4.628028 0.534292
v -0.281792 4.639183 0.534292
v -0.306291 4.793880 0.215111
v -1.264007 3.425122 0.215111
v -1.207950 2.878892 0.215110
v -0.874045 2.971564 0.215110
v -0.926652 3.284430 0.215111
v -0.434642 2.041667 0.215110
v -1.119591 3.718654 0.215111
v -1.038724 3.638477 0.534292
v -0.892178 3.793385 0.534292
v -0.962132 3.885098 0.215111
v -1.155435 2.851439 0.534292
v -0.817896 2.935373 0.534292
v -0.902644 3.283441 0.534292
v -0.894620 3.374595 0.534292
v -0.938892 3.357223 0.215111
v -0.256905 3.809726 0.600119
v -0.235942 3.809726 0.665946
v -0.239274 4.639183 0.665946
v -0.260533 4.639183 0.600119
v -0.327920 2.533832 0.496491
v -0.326484 2.641858 0.496491
v -1.043559 2.636459 0.496491
v -1.041875 2.563865 0.496491
v -0.239274 5.205319 0.665946
v -0.863440 3.292501 0.534292
v -0.842761 3.288460 0.591802
v -0.821865 3.330779 0.591802
v -0.842302 3.329569 0.534292
v -0.277867 3.809726 0.534292
v -0.408317 2.126239 0.534291
v -1.123077 3.547983 0.534292
v -0.276548 2.973729 0.600118
v -0.253983 2.982984 0.665945
v -0.227429 3.251989 0.665946
v -0.247635 3.251989 0.600119
v -0.253778 3.330534 0.600119
v -0.234067 3.343191 0.665946
v -0.280537 2.713979 0.665945
v -0.305462 2.695469 0.600118
v -0.260533 5.205319 0.600119
v -0.281792 5.205319 0.534292
v -0.291589 5.237341 0.215111
v -0.473324 3.134344 0.534292
v -0.488546 3.173714 0.591802
v -0.737994 3.206142 0.591802
v -0.763210 3.186575 0.534292
v -0.682619 3.437325 0.591802
v -0.692832 3.461179 0.534292
v -0.420917 3.408247 0.591802
v -0.411160 3.410942 0.534292
v -0.267841 3.251989 0.534292
v -0.281504 3.251043 0.591802
v -0.292894 3.321705 0.591802
v -0.305835 3.308585 0.578256
v -0.812647 3.309591 0.578256
v -0.824524 3.298480 0.578256
v -0.301241 3.263595 0.578256
v -0.273489 3.317877 0.534292
v -1.077773 2.671415 0.534291
v -1.079945 2.515068 0.534291
v -0.330386 2.676959 0.534291
v -1.115010 0.787725 0.912157
v -0.430895 0.793603 0.912157
v -1.105773 0.107594 0.912157
v -0.028928 0.107594 0.912157
v -0.028928 0.796914 0.912157
v -0.424579 0.107594 0.912157
v -0.299114 2.964474 0.534292
v -0.803721 3.407892 0.534292
v -0.342933 2.482801 0.534291
v 2.206314 0.818001 -0.215110
v 2.100403 0.886181 -0.426636
v 2.105503 1.167110 -0.426636
v 2.211672 1.113095 -0.215110
v 2.248395 3.135851 -0.215109
v 2.140464 3.092767 -0.426636
v 2.147039 3.454938 -0.426635
v 2.255302 3.516284 -0.215109
v 1.182564 0.894136 -0.215110
v 1.149221 0.894136 -0.665594
v 1.152745 1.177935 -0.665594
v 1.186191 1.177935 -0.215110
v 1.235988 0.894136 -0.426637
v 1.239778 0.107594 -0.426637
v 1.231637 0.000155 -0.215110
v 0.425009 0.900702 -0.665594
v 0.427419 1.186871 -0.665594
v 0.434617 1.926520 -0.665594
v 1.163271 1.910509 -0.665594
v 0.439425 0.000155 -0.215110
v 0.418330 0.107594 -0.665594
v 1.139454 0.107594 -0.665594
v 1.197023 2.025655 -0.215110
v 1.295837 3.123268 -0.426636
v 1.310749 3.489139 -0.426635
v 2.058378 1.087517 -0.854073
v 1.292834 1.098343 -0.854073
v 1.239778 1.177935 -0.426637
v 1.251099 2.025655 -0.426636
v 2.120738 2.006256 -0.426636
v 1.201583 2.382567 -0.215110
v 1.266012 2.391526 -0.426636
v 2.086267 0.107594 -0.426637
v 2.191466 0.000155 -0.215110
v 2.227674 1.994554 -0.215110
v 1.277025 3.552210 -0.215109
v 1.288881 0.894136 -0.854073
v 2.053392 0.886181 -0.854073
v 1.277927 0.107594 -0.854073
v 2.039573 0.107594 -0.854073
v 0.496362 2.262891 -0.215110
v 0.481982 2.284762 -0.534291
v 1.171422 2.401760 -0.534291
v 0.555341 4.781895 -0.215109
v 0.513579 4.628028 -0.534290
v 0.281767 4.639183 -0.534290
v 0.306266 4.793880 -0.215109
v 1.263983 3.425122 -0.215109
v 1.207925 2.878892 -0.215110
v 0.874020 2.971564 -0.215110
v 0.926628 3.284430 -0.215109
v 0.434617 2.041667 -0.215110
v -0.000012 0.000155 -0.215110
v -0.000012 0.107594 -0.665594
v -0.000012 1.191904 -0.665594
v -0.000012 1.935648 -0.665594
v -0.000012 0.904401 -0.665594
v 1.119566 3.718654 -0.215109
v 1.038700 3.638477 -0.534290
v 0.892153 3.793385 -0.534290
v 0.962107 3.885098 -0.215109
v 1.150968 2.844776 -0.534291
v 0.826756 2.939816 -0.534291
v 0.902620 3.283441 -0.534290
v 0.905701 3.363490 -0.534290
v 0.938868 3.357223 -0.215109
v 0.256880 3.809726 -0.600117
v 0.235917 3.809726 -0.665944
v 0.239250 4.639183 -0.665944
v 0.260508 4.639183 -0.600117
v 0.327895 2.533832 -0.496491
v 0.326460 2.641858 -0.496491
v 1.043534 2.636459 -0.496491
v 1.041850 2.563865 -0.496491
v -0.000012 4.652741 -0.665944
v -0.000012 5.218878 -0.665944
v 0.239250 5.205319 -0.665944
v 0.863415 3.292501 -0.534290
v 0.842736 3.288460 -0.591800
v 0.821840 3.330779 -0.591800
v 0.842277 3.329569 -0.534290
v 0.277842 3.809726 -0.534290
v -0.000012 2.050795 -0.215110
v 0.423840 2.115133 -0.534291
v 1.125274 3.523551 -0.534290
v -0.000012 3.817116 -0.665944
v 0.276523 2.973729 -0.600118
v 0.253958 2.982984 -0.665945
v 0.227404 3.251989 -0.665944
v 0.247610 3.251989 -0.600117
v 0.253753 3.330534 -0.600117
v 0.234042 3.343191 -0.665944
v -0.000012 2.697920 -0.600118
v -0.000012 2.716429 -0.665945
v 0.280512 2.713979 -0.665945
v 0.305437 2.695469 -0.600118
v 0.260508 5.205319 -0.600117
v 0.281767 5.205319 -0.534290
v 0.291564 5.237341 -0.215109
v 0.473299 3.134344 -0.534290
v 0.488521 3.173714 -0.591800
v 0.737969 3.206142 -0.591800
v 0.763185 3.186575 -0.534290
v 0.682594 3.437325 -0.591800
v 0.692807 3.461179 -0.534290
v 0.420892 3.408247 -0.591800
v 0.411135 3.410942 -0.534290
v 0.267816 3.251989 -0.534290
v 0.281479 3.251043 -0.591800
v 0.292869 3.321705 -0.591800
v 0.305810 3.308585 -0.578254
v 0.812622 3.309591 -0.578254
v 0.824499 3.298480 -0.578254
v 0.301216 3.263595 -0.578254
v 0.273464 3.317877 -0.534290
v 1.077748 2.671415 -0.534291
v 1.079920 2.515068 -0.534291
v -0.000012 2.643938 -0.496491
v -0.000012 2.679410 -0.534291
v 0.330362 2.676959 -0.534291
v -0.000012 5.218878 -0.600117
v -0.000012 5.218878 -0.534290
v -0.000012 5.251371 -0.215109
v -0.000012 3.343191 -0.665944
v 1.114985 0.787725 -0.912157
v 0.430870 0.793603 -0.912157
v 1.105748 0.107594 -0.912157
v 0.028903 0.107594 -0.912157
v 0.028903 0.796914 -0.912157
v 0.424554 0.107594 -0.912157
v 0.299089 2.964474 -0.534291
v 0.803696 3.407892 -0.534290
v -0.000012 2.520038 -0.496491
v -0.000012 2.982984 -0.665945
v -2.206339 0.818001 -0.215110
v -2.211697 1.113095 -0.215110
v -2.105528 1.167110 -0.426636
v -2.100428 0.886181 -0.426636
v -2.248420 3.135851 -0.215109
v -2.255327 3.516284 -0.215109
v -2.147064 3.454938 -0.426635
v -2.140489 3.092767 -0.426636
v -1.182589 0.894136 -0.215110
v -1.186216 1.177935 -0.215110
v -1.152770 1.177935 -0.665594
v -1.149246 0.894136 -0.665594
v -1.231662 0.000155 -0.215110
v -1.239802 0.107594 -0.426637
v -1.236012 0.894136 -0.426637
v -0.425034 0.900702 -0.665594
v -0.427444 1.186871 -0.665594
v -1.163296 1.910509 -0.665594
v -0.434642 1.926520 -0.665594
v -0.439450 0.000155 -0.215110
v -1.139479 0.107594 -0.665594
v -0.418355 0.107594 -0.665594
v -1.197048 2.025655 -0.215110
v -1.293548 3.123268 -0.426636
v -1.307689 3.489139 -0.426635
v -1.239802 1.177935 -0.426637
v -1.292858 1.098343 -0.854073
v -2.058403 1.087517 -0.854073
v -2.120763 2.006256 -0.426636
v -1.251124 2.025655 -0.426636
v -1.201608 2.382567 -0.215110
v -1.265265 2.391526 -0.426636
v -2.191491 0.000155 -0.215110
v -2.086292 0.107594 -0.426637
v -2.227699 1.994554 -0.215110
v -1.277050 3.552210 -0.215109
v -1.288906 0.894136 -0.854073
v -2.053417 0.886181 -0.854073
v -2.039598 0.107594 -0.854073
v -1.277952 0.107594 -0.854073
v -0.496387 2.262891 -0.215110
v -1.171447 2.401760 -0.534291
v -0.482007 2.284762 -0.534291
v -0.555366 4.781895 -0.215109
v -0.306291 4.793880 -0.215109
v -0.281792 4.639183 -0.534290
v -0.513604 4.628028 -0.534290
v -1.264007 3.425122 -0.215109
v -0.926652 3.284430 -0.215109
v -0.874045 2.971564 -0.215110
v -1.207950 2.878892 -0.215110
v -0.434642 2.041667 -0.215110
v -1.119591 3.718654 -0.215109
v -0.962132 3.885098 -0.215109
v -0.892178 3.793385 -0.534290
v -1.038724 3.638477 -0.534290
v -0.824560 2.939816 -0.534291
v -1.153214 2.842554 -0.534291
v -0.938892 3.357223 -0.215109
v -0.914610 3.354605 -0.534290
v -0.902644 3.283441 -0.534290
v -0.256905 3.809726 -0.600117
v -0.260533 4.639183 -0.600117
v -0.239274 4.639183 -0.665944
v -0.235942 3.809726 -0.665944
v -0.327920 2.533832 -0.496491
v -1.041875 2.563865 -0.496491
v -1.043559 2.636459 -0.496491
v -0.326484 2.641858 -0.496491
v -0.239274 5.205319 -0.665944
v -0.863440 3.292501 -0.534290
v -0.842302 3.329569 -0.534290
v -0.821865 3.330779 -0.591800
v -0.842761 3.288460 -0.591800
v -0.277867 3.809726 -0.534290
v -0.419423 2.115133 -0.534291
v -1.140847 3.543541 -0.534290
v -0.276548 2.973729 -0.600118
v -0.247635 3.251989 -0.600117
v -0.227429 3.251989 -0.665944
v -0.253983 2.982984 -0.665945
v -0.253778 3.330534 -0.600117
v -0.234067 3.343191 -0.665944
v -0.305462 2.695469 -0.600118
v -0.280537 2.713979 -0.665945
v -0.281792 5.205319 -0.534290
v -0.260533 5.205319 -0.600117
v -0.291589 5.237341 -0.215109
v -0.473324 3.134344 -0.534290
v -0.763210 3.186575 -0.534290
v -0.737994 3.206142 -0.591800
v -0.488546 3.173714 -0.591800
v -0.692832 3.461179 -0.534290
v -0.682619 3.437325 -0.591800
v -0.411160 3.410942 -0.534290
v -0.420917 3.408247 -0.591800
v -0.267841 3.251989 -0.534290
v -0.281504 3.251043 -0.591800
v -0.292894 3.321705 -0.591800
v -0.305835 3.308585 -0.578254
v -0.301241 3.263595 -0.578254
v -0.824524 3.298480 -0.578254
v -0.812647 3.309591 -0.578254
v -0.273489 3.317877 -0.534290
v -1.079945 2.515068 -0.534291
v -1.077773 2.671415 -0.534291
v -0.330386 2.676959 -0.534291
v -0.430895 0.793603 -0.912157
v -1.115010 0.787725 -0.912157
v -1.105773 0.107594 -0.912157
v -0.028928 0.107594 -0.912157
v -0.424579 0.107594 -0.912157
v -0.028928 0.796914 -0.912157
v -0.299114 2.964474 -0.534291
v -0.803721 3.407892 -0.534290
v 2.234581 2.374987 0.215110
v 2.234581 2.374987 -0.215110
v -2.234606 2.374987 0.215110
v -2.234606 2.374987 -0.215110
v -0.000012 3.251989 0.665946
v -2.241513 2.755419 -0.215110
v -2.241513 2.755419 0.215110
v -2.127338 2.368426 -0.426636
v -2.133914 2.730597 -0.426636
v -1.279407 2.757397 -0.426636
v -2.127338 2.368426 0.426636
v -1.279407 2.757397 0.426637
v -2.133914 2.730597 0.426637
v -0.000012 3.251989 -0.665944
v 2.241488 2.755419 0.215110
v 2.241488 2.755419 -0.215110
v 2.127313 2.368426 -0.426636
v 1.280924 2.757397 -0.426636
v 2.133889 2.730597 -0.426636
v 2.127313 2.368426 0.426636
v 2.133889 2.730597 0.426637
v 1.280924 2.757397 0.426637
vt 0.526052 0.248882
vt 0.526052 0.221727
vt 0.547867 0.216936
vt 0.547867 0.242787
vt 0.526052 0.035594
vt 0.526052 0.000587
vt 0.547867 0.006411
vt 0.547867 0.039737
vt 0.966263 0.082960
vt 0.966365 0.109073
vt 0.924805 0.109196
vt 0.924703 0.083083
vt 0.748242 0.644572
vt 0.749096 0.562187
vt 0.768501 0.572220
vt 0.768320 0.644608
vt 0.659898 0.138093
vt 0.593235 0.138553
vt 0.592968 0.112425
vt 0.659723 0.111764
vt 0.592188 0.044950
vt 0.659234 0.043818
vt 0.358624 0.161782
vt 0.358624 0.088895
vt 0.401233 0.097376
vt 0.401233 0.163723
vt 0.966671 0.187072
vt 0.925076 0.176602
vt 0.002869 0.796445
vt 0.080616 0.795050
vt 0.080616 0.828377
vt 0.003629 0.830127
vt 0.288020 0.927995
vt 0.208364 0.927995
vt 0.213336 0.888005
vt 0.283777 0.887984
vt 0.000961 0.617402
vt 0.080616 0.617852
vt 0.080616 0.695070
vt 0.000587 0.695402
vt 0.768697 0.782397
vt 0.748360 0.781502
vt 0.748333 0.748668
vt 0.768416 0.748715
vt 0.358624 0.000587
vt 0.380452 0.010265
vt 0.380452 0.088146
vt 0.748267 0.670682
vt 0.768340 0.670728
vt 0.526052 0.140616
vt 0.547867 0.139718
vt 0.707052 0.980746
vt 0.707052 0.890679
vt 0.727327 0.893992
vt 0.727419 0.970999
vt 0.213233 0.869213
vt 0.283574 0.869455
vt 0.587417 0.224336
vt 0.587430 0.242866
vt 0.419778 0.014561
vt 0.419778 0.084636
vt 0.807976 0.572296
vt 0.807958 0.644669
vt 0.817406 0.669025
vt 0.830120 0.604454
vt 0.858543 0.612537
vt 0.846113 0.675664
vt 0.386754 0.663492
vt 0.389510 0.642129
vt 0.421769 0.647578
vt 0.417207 0.668441
vt 0.932957 0.487415
vt 0.903403 0.471370
vt 0.901526 0.442241
vt 0.932957 0.436895
vt 0.000587 0.901190
vt 0.012957 0.836552
vt 0.033426 0.831300
vt 0.033426 0.901460
vt 0.358624 0.202213
vt 0.401233 0.202213
vt 0.699022 0.111352
vt 0.699022 0.043195
vt 0.699022 0.137807
vt 0.588603 0.002128
vt 0.658884 0.000985
vt 0.389714 0.773867
vt 0.390038 0.751945
vt 0.422262 0.754580
vt 0.421874 0.774676
vt 0.845153 0.561331
vt 0.861308 0.533845
vt 0.888127 0.546376
vt 0.872038 0.574076
vt 0.064223 0.863631
vt 0.064011 0.870418
vt 0.034599 0.868890
vt 0.034806 0.862254
vt 0.122686 0.284775
vt 0.198223 0.284368
vt 0.198249 0.290667
vt 0.122712 0.291066
vt 0.165560 0.528857
vt 0.168741 0.463189
vt 0.175421 0.463076
vt 0.175498 0.529052
vt 0.347691 0.442316
vt 0.316141 0.440935
vt 0.284591 0.442315
vt 0.316141 0.405012
vt 0.919750 0.585910
vt 0.897746 0.587157
vt 0.897746 0.535092
vt 0.919750 0.533845
vt 0.177870 0.870263
vt 0.183367 0.870286
vt 0.183391 0.876623
vt 0.178821 0.876408
vt 0.558794 0.561014
vt 0.558433 0.484700
vt 0.614952 0.483197
vt 0.580121 0.559988
vt 0.811654 0.729316
vt 0.811516 0.689319
vt 0.842001 0.690173
vt 0.841119 0.729670
vt 0.065136 0.906315
vt 0.034937 0.897472
vt 0.919750 0.662760
vt 0.898052 0.663440
vt 0.046407 0.284563
vt 0.071875 0.285232
vt 0.071901 0.291502
vt 0.047292 0.290895
vt 0.079047 0.285038
vt 0.080226 0.291291
vt 0.919750 0.770403
vt 0.891586 0.770513
vt 0.893873 0.764206
vt 0.919750 0.764095
vt 0.198198 0.278068
vt 0.249754 0.277859
vt 0.249780 0.284159
vt 0.212168 0.248859
vt 0.252575 0.248769
vt 0.164099 0.906260
vt 0.167564 0.880518
vt 0.172412 0.884305
vt 0.170337 0.904751
vt 0.197827 0.882739
vt 0.192660 0.885589
vt 0.199006 0.909388
vt 0.193486 0.907820
vt 0.172131 0.928610
vt 0.177943 0.926636
vt 0.186502 0.925180
vt 0.189243 0.463773
vt 0.193345 0.463076
vt 0.193345 0.511328
vt 0.192252 0.510306
vt 0.180067 0.923867
vt 0.184080 0.923066
vt 0.181400 0.878880
vt 0.180212 0.877907
vt 0.193498 0.927905
vt 0.226170 0.395131
vt 0.226001 0.388453
vt 0.230892 0.383915
vt 0.230892 0.398301
vt 0.206163 0.683031
vt 0.206294 0.713069
vt 0.201548 0.713428
vt 0.201394 0.683031
vt 0.206634 0.779044
vt 0.201897 0.782192
vt 0.623131 0.794884
vt 0.599082 0.794915
vt 0.599082 0.788845
vt 0.621167 0.788819
vt 0.625925 0.830493
vt 0.599082 0.830520
vt 0.599082 0.800988
vt 0.625096 0.800940
vt 0.699022 0.000586
vt 0.919750 0.706347
vt 0.898224 0.706345
vt 0.659447 0.162837
vt 0.596469 0.163264
vt 0.807976 0.663457
vt 0.547867 0.314432
vt 0.587427 0.314510
vt 0.213226 0.796841
vt 0.283294 0.797811
vt 0.924422 0.010713
vt 0.901779 0.073343
vt 0.901526 0.010763
vt 0.966671 0.000586
vt 0.526052 0.324140
vt 0.696357 0.226045
vt 0.659931 0.225990
vt 0.696453 0.162581
vt 0.597212 0.225886
vt 0.423918 0.100477
vt 0.423918 0.163151
vt 0.423918 0.199552
vt 0.396726 0.870139
vt 0.396726 0.796829
vt 0.419567 0.796829
vt 0.419567 0.860250
vt 0.249805 0.290458
vt 0.919750 0.776707
vt 0.889300 0.776819
vt 0.077868 0.278785
vt 0.122661 0.278483
vt 0.045522 0.278231
vt 0.071849 0.278961
vt 0.178445 0.930081
vt 0.186192 0.930081
vt 0.596611 0.452633
vt 0.610363 0.440524
vt 0.617016 0.442827
vt 0.606813 0.447730
vt 0.065136 0.834455
vt 0.035702 0.831300
vt 0.932957 0.499169
vt 0.903839 0.478147
vt 0.612308 0.437113
vt 0.615915 0.436280
vt 0.603086 0.427368
vt 0.609957 0.405891
vt 0.558030 0.439448
vt 0.570696 0.448010
vt 0.628435 0.468945
vt 0.639057 0.461028
vt 0.389470 0.795656
vt 0.420871 0.788238
vt 0.206634 0.387421
vt 0.204395 0.453128
vt 0.198552 0.451746
vt 0.200957 0.383915
vt 0.164098 0.559017
vt 0.175498 0.559090
vt 0.563265 0.380480
vt 0.576415 0.422562
vt 0.557510 0.433386
vt 0.560387 0.406933
vt 0.019194 0.277500
vt 0.020938 0.283894
vt 0.022682 0.290289
vt 0.640399 0.395920
vt 0.632028 0.379970
vt 0.640646 0.355161
vt 0.632227 0.365586
vt 0.577214 0.344396
vt 0.564419 0.362617
vt 0.896379 0.739470
vt 0.919750 0.739493
vt 0.532869 0.325313
vt 0.572069 0.330220
vt 0.203367 0.483307
vt 0.197433 0.483307
vt 0.101547 0.367933
vt 0.123362 0.374028
vt 0.123362 0.399879
vt 0.101547 0.395088
vt 0.101547 0.581221
vt 0.123362 0.577078
vt 0.123362 0.610405
vt 0.101547 0.616229
vt 0.966263 0.292358
vt 0.924703 0.292235
vt 0.924805 0.266122
vt 0.966365 0.266245
vt 0.742970 0.478541
vt 0.763048 0.478505
vt 0.763229 0.550893
vt 0.743824 0.560926
vt 0.738146 0.138093
vt 0.738322 0.111764
vt 0.805076 0.112425
vt 0.804810 0.138553
vt 0.738810 0.043818
vt 0.805857 0.044950
vt 0.358624 0.242643
vt 0.401233 0.240702
vt 0.401233 0.307049
vt 0.358624 0.315530
vt 0.925076 0.198716
vt 0.966671 0.188245
vt 0.083859 0.651082
vt 0.084549 0.617402
vt 0.161819 0.619146
vt 0.161819 0.652473
vt 0.315897 0.927984
vt 0.320140 0.887972
vt 0.390581 0.887993
vt 0.395553 0.927984
vt 0.082164 0.830121
vt 0.081789 0.752121
vt 0.161819 0.752453
vt 0.161819 0.829671
vt 0.743088 0.341611
vt 0.763405 0.340719
vt 0.763144 0.374398
vt 0.743060 0.374445
vt 0.380452 0.316279
vt 0.380452 0.394160
vt 0.358624 0.403839
vt 0.763067 0.452384
vt 0.742995 0.452430
vt 0.123362 0.477097
vt 0.101547 0.476200
vt 0.184466 0.382742
vt 0.164099 0.372995
vt 0.164188 0.295705
vt 0.184465 0.292675
vt 0.390684 0.869202
vt 0.320343 0.869443
vt 0.162925 0.373950
vt 0.162912 0.392479
vt 0.419778 0.319789
vt 0.419778 0.389864
vt 0.802686 0.478444
vt 0.802704 0.550817
vt 0.816564 0.789576
vt 0.845289 0.783016
vt 0.857545 0.846176
vt 0.829101 0.854182
vt 0.243793 0.663528
vt 0.213336 0.668504
vt 0.208755 0.647639
vt 0.241019 0.642161
vt 0.779673 0.902326
vt 0.779673 0.952846
vt 0.748242 0.947500
vt 0.750118 0.918371
vt 0.196939 0.797759
vt 0.164099 0.797759
vt 0.164675 0.727601
vt 0.185100 0.733021
vt 0.809441 0.002128
vt 0.739160 0.000985
vt 0.240940 0.773887
vt 0.208796 0.774784
vt 0.208364 0.754674
vt 0.240588 0.751984
vt 0.843956 0.897366
vt 0.871252 0.885240
vt 0.888127 0.912430
vt 0.860667 0.924518
vt 0.194245 0.426518
vt 0.164901 0.429006
vt 0.164099 0.420625
vt 0.193776 0.419743
vt 0.122530 0.007378
vt 0.122561 0.001076
vt 0.198207 0.001519
vt 0.198180 0.007826
vt 0.165175 0.589194
vt 0.175115 0.589125
vt 0.174198 0.655095
vt 0.167520 0.654897
vt 0.941754 0.535092
vt 0.941754 0.587157
vt 0.922662 0.375904
vt 0.921712 0.382050
vt 0.917141 0.382264
vt 0.917166 0.375927
vt 0.506943 0.561014
vt 0.485615 0.559988
vt 0.450785 0.483197
vt 0.507304 0.484700
vt 0.841037 0.767504
vt 0.810614 0.769299
vt 0.165340 0.394267
vt 0.196260 0.383915
vt 0.941448 0.663440
vt 0.046082 0.007497
vt 0.046981 0.001151
vt 0.071655 0.000587
vt 0.071619 0.006872
vt 0.078809 0.007076
vt 0.079997 0.000811
vt 0.945627 0.764206
vt 0.947913 0.770513
vt 0.249776 0.008033
vt 0.249750 0.014337
vt 0.198153 0.014133
vt 0.252575 0.043449
vt 0.212137 0.043364
vt 0.936434 0.411901
vt 0.930195 0.410392
vt 0.928120 0.389947
vt 0.932969 0.386159
vt 0.907872 0.391230
vt 0.902705 0.388380
vt 0.907046 0.413461
vt 0.901526 0.415029
vt 0.928401 0.434251
vt 0.922589 0.432277
vt 0.914030 0.430821
vt 0.245588 0.340230
vt 0.248597 0.293698
vt 0.249690 0.292675
vt 0.249690 0.340927
vt 0.920465 0.429508
vt 0.916452 0.428707
vt 0.919132 0.384521
vt 0.920320 0.383548
vt 0.907034 0.433546
vt 0.207976 0.387084
vt 0.212698 0.383915
vt 0.212698 0.398301
vt 0.207807 0.393763
vt 0.201548 0.652635
vt 0.206294 0.652994
vt 0.201897 0.583871
vt 0.206634 0.587019
vt 0.575032 0.794884
vt 0.576996 0.788819
vt 0.572238 0.830493
vt 0.573067 0.800940
vt 0.941276 0.706345
vt 0.801576 0.163264
vt 0.738598 0.162837
vt 0.802704 0.459656
vt 0.123362 0.302383
vt 0.162922 0.302305
vt 0.390691 0.796829
vt 0.320622 0.797799
vt 0.924422 0.364605
vt 0.901526 0.364555
vt 0.901779 0.301974
vt 0.966671 0.374731
vt 0.101547 0.292675
vt 0.701687 0.226045
vt 0.701592 0.162581
vt 0.738114 0.225990
vt 0.800832 0.225887
vt 0.423918 0.241275
vt 0.423918 0.303948
vt 0.423918 0.204873
vt 0.312034 0.870151
vt 0.289193 0.860261
vt 0.289193 0.796841
vt 0.312034 0.796841
vt 0.249801 0.001729
vt 0.950200 0.776819
vt 0.077622 0.013339
vt 0.122500 0.013680
vt 0.045183 0.013844
vt 0.071582 0.013160
vt 0.922088 0.435722
vt 0.914340 0.435722
vt 0.469126 0.452632
vt 0.458923 0.447729
vt 0.450560 0.444666
vt 0.455374 0.440524
vt 0.196260 0.455637
vt 0.166919 0.461903
vt 0.779673 0.890572
vt 0.750554 0.911594
vt 0.449822 0.436279
vt 0.453429 0.437113
vt 0.457619 0.404256
vt 0.462651 0.427367
vt 0.495041 0.448010
vt 0.507707 0.439448
vt 0.437302 0.468944
vt 0.429541 0.460618
vt 0.241161 0.795668
vt 0.208994 0.786478
vt 0.206634 0.579192
vt 0.200957 0.582698
vt 0.198552 0.514867
vt 0.204395 0.513485
vt 0.502473 0.380480
vt 0.505350 0.406933
vt 0.508227 0.433386
vt 0.489322 0.422562
vt 0.018782 0.014527
vt 0.020543 0.008118
vt 0.022304 0.001710
vt 0.426564 0.396533
vt 0.433710 0.379970
vt 0.425091 0.355161
vt 0.433510 0.365585
vt 0.488523 0.344396
vt 0.501318 0.362617
vt 0.943121 0.739470
vt 0.495303 0.329811
vt 0.486470 0.248882
vt 0.464654 0.242787
vt 0.464655 0.216936
vt 0.486470 0.221727
vt 0.486470 0.035594
vt 0.464655 0.039737
vt 0.464655 0.006411
vt 0.486470 0.000587
vt 0.954037 0.882104
vt 0.912477 0.881981
vt 0.912578 0.855868
vt 0.954139 0.855992
vt 0.747069 0.644538
vt 0.726999 0.644591
vt 0.726755 0.572233
vt 0.746143 0.562187
vt 0.574634 0.699694
vt 0.574810 0.673364
vt 0.641564 0.674026
vt 0.641298 0.700153
vt 0.575298 0.605419
vt 0.642345 0.606551
vt 0.319042 0.161782
vt 0.276433 0.163723
vt 0.276433 0.097376
vt 0.319042 0.088895
vt 0.912850 0.788462
vt 0.954444 0.777992
vt 0.724982 0.849608
vt 0.724180 0.883336
vt 0.647139 0.881574
vt 0.647137 0.848236
vt 0.081790 0.962449
vt 0.086033 0.922437
vt 0.156474 0.922458
vt 0.161446 0.962449
vt 0.727002 0.670701
vt 0.727016 0.748554
vt 0.647102 0.748196
vt 0.647307 0.670941
vt 0.746759 0.781487
vt 0.726375 0.782169
vt 0.747069 0.748592
vt 0.297214 0.088146
vt 0.297214 0.010265
vt 0.319042 0.000587
vt 0.747066 0.670638
vt 0.464655 0.139718
vt 0.486470 0.140616
vt 0.667470 0.980746
vt 0.647103 0.970999
vt 0.647195 0.893992
vt 0.667470 0.890679
vt 0.156577 0.903667
vt 0.086236 0.903909
vt 0.425091 0.242866
vt 0.425104 0.224336
vt 0.257888 0.084636
vt 0.257888 0.014561
vt 0.687376 0.644687
vt 0.687295 0.572343
vt 0.816060 0.327158
vt 0.845012 0.321686
vt 0.854880 0.385263
vt 0.826154 0.392191
vt 0.351883 0.664509
vt 0.320921 0.669281
vt 0.316020 0.647810
vt 0.349233 0.641886
vt 0.965561 0.448649
vt 0.965561 0.499169
vt 0.934130 0.493824
vt 0.936006 0.464694
vt 0.164099 0.656538
vt 0.196938 0.656268
vt 0.196938 0.726428
vt 0.176469 0.721176
vt 0.319042 0.202213
vt 0.276433 0.202213
vt 0.535510 0.672953
vt 0.535510 0.604795
vt 0.535510 0.699408
vt 0.645929 0.563729
vt 0.575648 0.562585
vt 0.348419 0.773825
vt 0.316233 0.774582
vt 0.315897 0.754456
vt 0.348040 0.751742
vt 0.839339 0.435914
vt 0.866966 0.424235
vt 0.882914 0.450916
vt 0.855752 0.463247
vt 0.864482 0.491100
vt 0.892444 0.481858
vt 0.894715 0.488870
vt 0.866500 0.497585
vt 0.122251 0.174331
vt 0.122129 0.167998
vt 0.197966 0.167924
vt 0.197973 0.174229
vt 0.177747 0.589194
vt 0.187687 0.589125
vt 0.186770 0.655095
vt 0.180092 0.654897
vt 0.199181 0.146150
vt 0.250765 0.146141
vt 0.249533 0.167914
vt 0.964816 0.705152
vt 0.952193 0.696265
vt 0.965939 0.692355
vt 0.966240 0.705258
vt 0.290215 0.640713
vt 0.268887 0.639686
vt 0.234057 0.562895
vt 0.290576 0.564399
vt 0.811194 0.266644
vt 0.840661 0.266500
vt 0.841140 0.305648
vt 0.811006 0.306640
vt 0.900353 0.513225
vt 0.874160 0.532672
vt 0.122493 0.146253
vt 0.047222 0.182299
vt 0.046648 0.175980
vt 0.070840 0.170122
vt 0.071765 0.176394
vt 0.078732 0.175785
vt 0.079397 0.169521
vt 0.012805 0.159280
vt 0.018722 0.158037
vt 0.023339 0.182444
vt 0.017853 0.185728
vt 0.249536 0.174213
vt 0.249539 0.180513
vt 0.197982 0.180532
vt 0.252488 0.209590
vt 0.212081 0.209679
vt 0.968313 0.718839
vt 0.966189 0.719392
vt 0.963547 0.712277
vt 0.965253 0.711110
vt 0.975164 0.708352
vt 0.972885 0.709697
vt 0.980260 0.717203
vt 0.978611 0.718579
vt 0.976052 0.730426
vt 0.973253 0.743484
vt 0.998624 0.736174
vt 0.999413 0.538726
vt 0.959850 0.686998
vt 0.955667 0.689597
vt 0.986619 0.533845
vt 0.981018 0.749738
vt 0.996830 0.744418
vt 0.999413 0.733947
vt 0.968602 0.691601
vt 0.951373 0.698395
vt 0.971008 0.742419
vt 0.980689 0.728693
vt 0.220105 0.387084
vt 0.224828 0.383915
vt 0.224828 0.398301
vt 0.219936 0.393763
vt 0.808647 0.332873
vt 0.803877 0.332873
vt 0.804031 0.302477
vt 0.808777 0.302836
vt 0.804380 0.233713
vt 0.809117 0.236861
vt 0.623100 0.905622
vt 0.621138 0.911679
vt 0.599082 0.911650
vt 0.599082 0.905589
vt 0.625901 0.870062
vt 0.625062 0.899574
vt 0.599082 0.899523
vt 0.599082 0.870016
vt 0.535510 0.562187
vt 0.076834 0.147152
vt 0.638064 0.724865
vt 0.575086 0.724437
vt 0.687375 0.663467
vt 0.464655 0.314432
vt 0.425094 0.314510
vt 0.156584 0.831294
vt 0.086516 0.832264
vt 0.912196 0.954352
vt 0.889300 0.954301
vt 0.889553 0.891721
vt 0.954444 0.964478
vt 0.486470 0.324140
vt 0.538176 0.787646
vt 0.538080 0.724182
vt 0.574602 0.787591
vt 0.637320 0.787487
vt 0.253748 0.163151
vt 0.253748 0.100477
vt 0.253748 0.199552
vt 0.312034 0.944634
vt 0.289193 0.934744
vt 0.289193 0.871324
vt 0.312034 0.871324
vt 0.006927 0.160506
vt 0.012369 0.189016
vt 0.077801 0.182051
vt 0.122374 0.180617
vt 0.047772 0.188568
vt 0.073024 0.182454
vt 0.978697 0.734822
vt 0.981776 0.732337
vt 0.252398 0.532331
vt 0.242196 0.527428
vt 0.232811 0.523343
vt 0.238646 0.520222
vt 0.965561 0.436895
vt 0.936443 0.457917
vt 0.233094 0.515978
vt 0.236701 0.516811
vt 0.240074 0.484363
vt 0.245923 0.507066
vt 0.278313 0.527709
vt 0.290980 0.519146
vt 0.220574 0.548643
vt 0.212609 0.538069
vt 0.348595 0.795656
vt 0.315913 0.788198
vt 0.964818 0.973268
vt 0.959141 0.976775
vt 0.956736 0.908944
vt 0.962579 0.907561
vt 0.176671 0.559017
vt 0.188070 0.559090
vt 0.285745 0.460179
vt 0.288622 0.486632
vt 0.291499 0.513085
vt 0.272594 0.502261
vt 0.023006 0.195368
vt 0.023175 0.188907
vt 0.210245 0.475618
vt 0.216982 0.459669
vt 0.208364 0.434859
vt 0.216782 0.445284
vt 0.271795 0.424095
vt 0.042546 0.152943
vt 0.277145 0.408488
vt 0.955617 0.877383
vt 0.961551 0.877383
vt 0.061965 0.367933
vt 0.061965 0.395088
vt 0.040150 0.399879
vt 0.040150 0.374028
vt 0.061965 0.581221
vt 0.061965 0.616229
vt 0.040150 0.610405
vt 0.040150 0.577078
vt 0.489828 0.871192
vt 0.489930 0.897305
vt 0.448370 0.897428
vt 0.448268 0.871315
vt 0.641840 0.316065
vt 0.642783 0.233713
vt 0.662170 0.243763
vt 0.661911 0.316123
vt 0.496386 0.699694
vt 0.429723 0.700153
vt 0.429456 0.674026
vt 0.496211 0.673364
vt 0.428676 0.606551
vt 0.495722 0.605419
vt 0.319042 0.242643
vt 0.319042 0.315530
vt 0.276433 0.307049
vt 0.276433 0.240702
vt 0.490235 0.975304
vt 0.448641 0.964834
vt 0.663718 0.521139
vt 0.741774 0.519768
vt 0.741773 0.553103
vt 0.664453 0.554864
vt 0.571065 0.919973
vt 0.491408 0.919973
vt 0.496381 0.879982
vt 0.566822 0.879961
vt 0.661902 0.342233
vt 0.741594 0.342475
vt 0.741797 0.419726
vt 0.661874 0.420096
vt 0.642098 0.453010
vt 0.641819 0.420121
vt 0.662456 0.453713
vt 0.319042 0.403839
vt 0.297214 0.394160
vt 0.297214 0.316279
vt 0.641838 0.342165
vt 0.061965 0.476200
vt 0.040150 0.477097
vt 0.224048 0.382742
vt 0.224048 0.292675
vt 0.244325 0.295705
vt 0.244415 0.372995
vt 0.496277 0.861191
vt 0.566619 0.861433
vt 0.000600 0.392479
vt 0.000587 0.373950
vt 0.257888 0.389864
vt 0.257888 0.319789
vt 0.701630 0.243881
vt 0.701534 0.316226
vt 0.815666 0.206132
vt 0.825694 0.141090
vt 0.854427 0.147989
vt 0.844624 0.211576
vt 0.278674 0.664518
vt 0.281308 0.641886
vt 0.314536 0.647789
vt 0.309648 0.669269
vt 0.032017 0.953153
vt 0.002463 0.937107
vt 0.000587 0.907978
vt 0.032017 0.902633
vt 0.164099 0.869090
vt 0.175937 0.804352
vt 0.196362 0.798932
vt 0.196939 0.869090
vt 0.425091 0.563729
vt 0.495372 0.562585
vt 0.282199 0.773841
vt 0.282574 0.751759
vt 0.314723 0.754469
vt 0.314384 0.774606
vt 0.838852 0.097358
vt 0.855204 0.069989
vt 0.882501 0.082093
vt 0.866395 0.109203
vt 0.863651 0.042049
vt 0.865616 0.035548
vt 0.893626 0.044650
vt 0.891705 0.051006
vt 0.121976 0.117747
vt 0.197945 0.118054
vt 0.197941 0.124370
vt 0.121837 0.124309
vt 0.178132 0.528857
vt 0.181314 0.463189
vt 0.187993 0.463076
vt 0.188070 0.529052
vt 0.249539 0.124361
vt 0.588603 0.270198
vt 0.589242 0.266069
vt 0.595216 0.265879
vt 0.594594 0.270458
vt 0.342064 0.640713
vt 0.341704 0.564399
vt 0.398223 0.562896
vt 0.363392 0.639687
vt 0.810614 0.226651
vt 0.840761 0.227756
vt 0.873831 0.000587
vt 0.900353 0.018379
vt 0.035060 0.124121
vt 0.063446 0.117042
vt 0.064732 0.124449
vt 0.037234 0.130002
vt 0.072771 0.115225
vt 0.074585 0.122826
vt 0.006897 0.133147
vt 0.013208 0.133970
vt 0.197953 0.111742
vt 0.249544 0.111754
vt 0.249542 0.118057
vt 0.212056 0.082573
vt 0.252492 0.082657
vt 0.610662 0.303755
vt 0.592002 0.284065
vt 0.597884 0.282328
vt 0.613426 0.297547
vt 0.593796 0.247110
vt 0.599110 0.250019
vt 0.615433 0.230538
vt 0.617139 0.236274
vt 0.632504 0.309537
vt 0.632779 0.303902
vt 0.632036 0.233638
vt 0.245588 0.342797
vt 0.249690 0.342100
vt 0.249690 0.390351
vt 0.248597 0.389329
vt 0.065088 0.110763
vt 0.069168 0.110062
vt 0.070531 0.111651
vt 0.064129 0.113044
vt 0.597209 0.267583
vt 0.596569 0.269041
vt 0.632310 0.235736
vt 0.597406 0.267038
vt 0.596830 0.270307
vt 0.632431 0.301488
vt 0.632779 0.227218
vt 0.214041 0.395131
vt 0.213871 0.388453
vt 0.218763 0.383915
vt 0.218763 0.398301
vt 0.808777 0.362911
vt 0.804031 0.363270
vt 0.809117 0.428886
vt 0.804380 0.432034
vt 0.575064 0.905622
vt 0.577026 0.911679
vt 0.572263 0.870062
vt 0.573101 0.899574
vt 0.495935 0.724437
vt 0.432957 0.724865
vt 0.701532 0.335007
vt 0.040150 0.302383
vt 0.000590 0.302305
vt 0.496271 0.788819
vt 0.566339 0.789788
vt 0.447987 0.798945
vt 0.425344 0.861576
vt 0.425091 0.798995
vt 0.490235 0.788819
vt 0.061965 0.292675
vt 0.532845 0.787646
vt 0.496419 0.787591
vt 0.532941 0.724182
vt 0.433700 0.787487
vt 0.253748 0.303948
vt 0.253748 0.241275
vt 0.253748 0.204873
vt 0.396726 0.944622
vt 0.396726 0.871312
vt 0.419567 0.871312
vt 0.419567 0.934733
vt 0.000587 0.132321
vt 0.074349 0.108406
vt 0.122196 0.111643
vt 0.032679 0.118047
vt 0.059304 0.110961
vt 0.379883 0.532331
vt 0.393635 0.520223
vt 0.400288 0.522526
vt 0.390085 0.527429
vt 0.032017 0.964907
vt 0.002899 0.943884
vt 0.395580 0.516812
vt 0.399187 0.515979
vt 0.386358 0.507067
vt 0.392003 0.484364
vt 0.341302 0.519147
vt 0.353968 0.527709
vt 0.411706 0.548644
vt 0.421102 0.539909
vt 0.282037 0.795668
vt 0.313908 0.787799
vt 0.964818 0.781498
vt 0.962579 0.847205
vt 0.956736 0.845823
vt 0.959141 0.777992
vt 0.346537 0.460179
vt 0.359687 0.502261
vt 0.340782 0.513085
vt 0.343659 0.486632
vt 0.007416 0.122430
vt 0.010315 0.128195
vt 0.422240 0.475415
vt 0.415300 0.459670
vt 0.423918 0.434860
vt 0.415500 0.445285
vt 0.360487 0.424096
vt 0.354729 0.408489
vt 0.526052 0.105608
vt 0.486470 0.105608
vt 0.101547 0.511207
vt 0.061965 0.511207
vt 0.532869 0.361236
vt 0.940667 0.714733
vt 0.919750 0.714736
vt 0.898833 0.714733
vt 0.061965 0.546214
vt 0.101547 0.546214
vt 0.741797 0.453065
vt 0.741787 0.486416
vt 0.663074 0.487409
vt 0.040150 0.510424
vt 0.040150 0.543751
vt 0.082479 0.718441
vt 0.161819 0.719126
vt 0.083169 0.684761
vt 0.161819 0.685800
vt 0.123362 0.510424
vt 0.123362 0.543751
vt 0.744779 0.233713
vt 0.764390 0.239682
vt 0.763949 0.273360
vt 0.744490 0.245461
vt 0.763665 0.307039
vt 0.743080 0.295952
vt 0.644886 0.561014
vt 0.644490 0.549262
vt 0.642586 0.498723
vt 0.067923 0.148299
vt 0.526052 0.070601
vt 0.486470 0.070601
vt 0.647109 0.781535
vt 0.725695 0.815876
vt 0.647124 0.814882
vt 0.464655 0.106391
vt 0.464655 0.073064
vt 0.080616 0.728397
vt 0.001347 0.729083
vt 0.080616 0.761723
vt 0.002108 0.762764
vt 0.547867 0.106391
vt 0.547867 0.073064
vt 0.743787 0.889506
vt 0.744211 0.877754
vt 0.746221 0.827214
vt 0.768979 0.816079
vt 0.748344 0.827161
vt 0.749784 0.877651
vt 0.769286 0.849761
vt 0.750083 0.889399
vt 0.769740 0.883441
vn 0.8920 -0.0162 0.4518
vn 0.9972 -0.0126 0.0739
vn -0.9879 -0.0311 0.1517
vn 0.0000 -0.0000 1.0000
vn 0.0000 -0.9727 0.2320
vn 0.9973 -0.0135 0.0727
vn 0.0130 0.9830 0.1830
vn -0.9628 0.0259 0.2691
vn 0.0000 -0.8916 0.4529
vn -0.9690 0.0127 0.2466
vn 0.0370 0.9569 0.2879
vn 0.9940 -0.0208 0.1075
vn 0.0000 -1.0000 -0.0000
vn -0.9944 0.0045 0.1059
vn 0.1668 -0.9831 0.0749
vn 0.0432 0.8977 0.4384
vn 0.0208 0.9685 0.2483
vn 0.6842 0.6473 0.3359
vn 0.8678 0.3936 0.3033
vn 0.2876 0.9511 0.1122
vn 0.9835 -0.1654 0.0735
vn 0.9522 -0.0040 0.3054
vn 0.0000 0.0000 -1.0000
vn 0.8399 0.4447 0.3112
vn 0.0505 -0.9826 0.1786
vn 0.9507 -0.2981 0.0859
vn 0.9942 -0.0039 0.1079
vn 0.5578 -0.8204 0.1255
vn 0.9486 0.0961 0.3014
vn 0.9553 -0.0051 0.2956
vn -0.0081 -0.9630 0.2693
vn 0.9516 -0.0000 0.3073
vn 0.9982 0.0145 0.0579
vn 0.1376 -0.8766 0.4611
vn 0.6058 0.7344 0.3060
vn -0.1408 0.9648 0.2221
vn 0.6345 -0.6909 0.3464
vn -0.3955 -0.8367 0.3788
vn 0.6349 -0.0877 0.7676
vn -0.5793 -0.3553 0.7336
vn 0.0060 -0.6193 0.7851
vn -0.0512 0.7687 0.6376
vn -0.5551 0.8211 0.1326
vn -0.7229 -0.0015 0.6909
vn -0.0050 -0.7309 0.6825
vn -0.0055 -0.7321 0.6812
vn 0.0542 0.9985 0.0088
vn 0.0478 0.9937 0.1012
vn 0.0203 0.9687 0.2476
vn 0.0081 0.9175 0.3977
vn -0.9921 0.0157 0.1244
vn 0.9939 -0.0178 0.1089
vn 0.9909 -0.0128 0.1338
vn -0.9694 0.0127 0.2452
vn 0.9905 0.0232 0.1352
vn 0.0078 0.9171 0.3985
vn -0.9932 -0.0000 0.1165
vn 0.0499 0.9987 0.0081
vn -0.0074 -0.9630 0.2694
vn 0.9552 -0.0074 0.2958
vn 0.9483 0.1009 0.3010
vn 0.9522 -0.0043 0.3054
vn -0.0302 -0.9995 -0.0093
vn 0.1920 0.9728 -0.1295
vn 0.2189 -0.0257 0.9754
vn 0.9526 -0.0717 0.2957
vn 0.9800 -0.1788 0.0869
vn 0.6489 0.7014 0.2950
vn -0.0255 0.5949 0.8034
vn 0.9425 0.1003 0.3188
vn 0.9426 0.0955 0.3199
vn -0.0253 0.5881 0.8084
vn -0.8920 -0.0162 0.4518
vn -0.9972 -0.0126 0.0739
vn 0.9879 -0.0311 0.1517
vn -0.9973 -0.0135 0.0727
vn -0.0130 0.9830 0.1830
vn 0.9632 0.0249 0.2675
vn 0.9690 0.0127 0.2466
vn -0.0369 0.9569 0.2882
vn -0.9940 -0.0208 0.1075
vn 0.9944 0.0045 0.1059
vn -0.1668 -0.9831 0.0749
vn -0.0432 0.8977 0.4384
vn -0.0208 0.9685 0.2483
vn -0.6842 0.6473 0.3359
vn -0.8678 0.3936 0.3033
vn -0.2519 0.9578 0.1384
vn -0.9939 -0.0256 0.1070
vn -0.9522 -0.0040 0.3054
vn -0.8399 0.4447 0.3112
vn -0.0464 -0.9838 0.1732
vn -0.9356 -0.3337 0.1153
vn -0.9916 0.0101 0.1286
vn -0.5358 -0.8242 0.1834
vn -0.9486 0.0961 0.3014
vn -0.9553 -0.0051 0.2956
vn 0.0081 -0.9630 0.2693
vn -0.9516 -0.0000 0.3073
vn -0.9982 0.0145 0.0579
vn -0.1376 -0.8766 0.4611
vn -0.6058 0.7344 0.3060
vn 0.1408 0.9648 0.2221
vn -0.6345 -0.6909 0.3464
vn 0.3955 -0.8367 0.3788
vn -0.6349 -0.0877 0.7676
vn 0.5793 -0.3553 0.7336
vn -0.0060 -0.6193 0.7851
vn 0.0512 0.7687 0.6376
vn 0.5551 0.8211 0.1326
vn 0.7229 -0.0015 0.6909
vn 0.0050 -0.7309 0.6825
vn 0.0055 -0.7321 0.6812
vn -0.0542 0.9985 0.0087
vn -0.0478 0.9937 0.1012
vn -0.0203 0.9687 0.2476
vn -0.0081 0.9175 0.3977
vn 0.9921 0.0157 0.1244
vn -0.9939 -0.0178 0.1089
vn -0.9909 -0.0128 0.1338
vn 0.9694 0.0127 0.2452
vn -0.9905 0.0232 0.1352
vn -0.0078 0.9171 0.3985
vn 0.9932 -0.0000 0.1165
vn -0.0499 0.9987 0.0081
vn 0.0074 -0.9630 0.2694
vn -0.9552 -0.0074 0.2958
vn -0.9483 0.1009 0.3010
vn -0.9522 -0.0043 0.3054
vn 0.0302 -0.9995 -0.0093
vn -0.1920 0.9728 -0.1295
vn -0.2189 -0.0257 0.9754
vn -0.9526 -0.0717 0.2957
vn -0.9731 -0.2022 0.1104
vn -0.6855 0.6451 0.3375
vn 0.0255 0.5949 0.8034
vn -0.9425 0.1003 0.3188
vn -0.9426 0.0955 0.3199
vn 0.0253 0.5881 0.8084
vn 0.8920 -0.0162 -0.4518
vn 0.9972 -0.0126 -0.0739
vn -0.9879 -0.0311 -0.1517
vn 0.0000 -0.9727 -0.2320
vn 0.9973 -0.0135 -0.0727
vn 0.0130 0.9830 -0.1830
vn -0.9628 0.0259 -0.2691
vn 0.0000 -0.8916 -0.4529
vn -0.9690 0.0127 -0.2466
vn 0.0370 0.9569 -0.2879
vn 0.9940 -0.0208 -0.1075
vn -0.9944 0.0045 -0.1059
vn 0.1668 -0.9831 -0.0749
vn 0.0432 0.8977 -0.4384
vn 0.0208 0.9685 -0.2483
vn 0.6842 0.6473 -0.3359
vn 0.8678 0.3936 -0.3033
vn 0.2715 0.9518 -0.1425
vn 0.9910 -0.0993 -0.0896
vn 0.9522 -0.0040 -0.3054
vn 0.8399 0.4447 -0.3112
vn 0.0330 -0.9873 -0.1552
vn 0.9529 -0.2923 -0.0812
vn 0.9907 0.0149 -0.1355
vn 0.5328 -0.8370 -0.1250
vn 0.9486 0.0961 -0.3014
vn 0.9553 -0.0051 -0.2956
vn -0.0081 -0.9630 -0.2693
vn 0.9516 0.0000 -0.3073
vn 0.9982 0.0145 -0.0579
vn 0.1376 -0.8766 -0.4611
vn 0.6058 0.7344 -0.3060
vn -0.1408 0.9648 -0.2221
vn 0.6345 -0.6909 -0.3464
vn -0.3955 -0.8367 -0.3788
vn 0.6349 -0.0877 -0.7676
vn -0.5793 -0.3553 -0.7336
vn 0.0060 -0.6193 -0.7851
vn -0.0512 0.7687 -0.6376
vn -0.5551 0.8211 -0.1326
vn -0.7229 -0.0015 -0.6909
vn -0.0050 -0.7309 -0.6825
vn -0.0055 -0.7321 -0.6812
vn 0.0542 0.9985 -0.0088
vn 0.0478 0.9937 -0.1012
vn 0.0203 0.9687 -0.2476
vn 0.0081 0.9175 -0.3977
vn -0.9921 0.0157 -0.1244
vn 0.9939 -0.0178 -0.1089
vn 0.9909 -0.0128 -0.1338
vn -0.9694 0.0127 -0.2452
vn 0.9905 0.0232 -0.1352
vn 0.0078 0.9171 -0.3985
vn -0.9932 0.0000 -0.1165
vn 0.0499 0.9987 -0.0081
vn -0.0074 -0.9630 -0.2694
vn 0.9552 -0.0074 -0.2958
vn 0.9483 0.1009 -0.3010
vn 0.9522 -0.0043 -0.3054
vn -0.0302 -0.9995 0.0093
vn 0.1920 0.9728 0.1295
vn 0.2189 -0.0257 -0.9754
vn 0.9526 -0.0717 -0.2957
vn 0.9765 -0.1911 -0.0992
vn 0.7045 0.6110 -0.3609
vn -0.0255 0.5949 -0.8034
vn 0.9425 0.1003 -0.3188
vn 0.9426 0.0955 -0.3199
vn -0.0253 0.5881 -0.8084
vn -0.8920 -0.0162 -0.4518
vn -0.9972 -0.0126 -0.0739
vn 0.9879 -0.0311 -0.1517
vn -0.9973 -0.0135 -0.0727
vn -0.0130 0.9830 -0.1830
vn 0.9632 0.0249 -0.2675
vn 0.9690 0.0127 -0.2466
vn -0.0369 0.9569 -0.2882
vn -0.9940 -0.0208 -0.1075
vn 0.9944 0.0045 -0.1059
vn -0.1668 -0.9831 -0.0749
vn -0.0432 0.8977 -0.4384
vn -0.0208 0.9685 -0.2483
vn -0.6842 0.6473 -0.3359
vn -0.8678 0.3936 -0.3033
vn -0.2726 0.9510 -0.1459
vn -0.9835 -0.1654 -0.0735
vn -0.9522 -0.0040 -0.3054
vn -0.8399 0.4447 -0.3112
vn -0.0331 -0.9873 -0.1555
vn -0.9492 -0.3019 -0.0891
vn -0.9911 0.0126 -0.1322
vn -0.5580 -0.8203 -0.1258
vn -0.9486 0.0961 -0.3014
vn -0.9553 -0.0051 -0.2956
vn 0.0081 -0.9630 -0.2693
vn -0.9516 0.0000 -0.3073
vn -0.9982 0.0145 -0.0579
vn -0.1376 -0.8766 -0.4611
vn -0.6058 0.7344 -0.3060
vn 0.1408 0.9648 -0.2221
vn -0.6345 -0.6909 -0.3464
vn 0.3955 -0.8367 -0.3788
vn -0.6349 -0.0877 -0.7676
vn 0.5793 -0.3553 -0.7336
vn -0.0060 -0.6193 -0.7851
vn 0.0512 0.7687 -0.6376
vn 0.5551 0.8211 -0.1326
vn 0.7229 -0.0015 -0.6909
vn 0.0050 -0.7309 -0.6825
vn 0.0055 -0.7321 -0.6812
vn -0.0542 0.9985 -0.0087
vn -0.0478 0.9937 -0.1012
vn 0.9995 0.0331 0.0000
vn -0.0203 0.9687 -0.2476
vn -0.0081 0.9175 -0.3977
vn 0.9921 0.0157 -0.1244
vn -0.9939 -0.0178 -0.1089
vn -0.9909 -0.0128 -0.1338
vn 0.9694 0.0127 -0.2452
vn -0.9905 0.0232 -0.1352
vn -0.0078 0.9171 -0.3985
vn 0.9932 0.0000 -0.1165
vn -0.0499 0.9987 -0.0081
vn 0.0074 -0.9630 -0.2694
vn -0.9552 -0.0074 -0.2958
vn -0.9483 0.1009 -0.3010
vn -0.9522 -0.0043 -0.3054
vn 0.0302 -0.9995 0.0093
vn -0.1920 0.9728 0.1295
vn -0.2189 -0.0257 -0.9754
vn -0.9526 -0.0717 -0.2957
vn -0.9756 -0.1942 -0.1024
vn -0.6719 0.6673 -0.3213
vn 0.0255 0.5949 -0.8034
vn -0.9425 0.1003 -0.3188
vn -0.9426 0.0955 -0.3199
vn 0.0253 0.5881 -0.8084
vn 0.0481 0.9988 0.0000
vn 0.9107 0.4131 0.0000
vn 0.7264 0.6872 0.0000
vn 0.0367 0.9993 0.0000
vn 0.9998 -0.0182 0.0000
vn -0.9998 -0.0182 -0.0000
vn -0.0367 0.9993 0.0000
vn -0.7264 0.6872 0.0000
vn -0.9107 0.4131 0.0000
vn -0.0481 0.9988 0.0000
vn -0.9995 0.0331 0.0000
vn 0.9810 0.0541 0.1862
vn 0.9510 0.0732 0.3003
vn 0.9506 0.0226 0.3096
vn 0.9810 0.0541 -0.1862
vn 0.9510 0.0732 -0.3003
vn 0.9506 0.0226 -0.3096
vn -0.9783 0.0555 -0.1995
vn -0.9482 0.0738 -0.3089
vn -0.9490 0.0234 -0.3145
vn -0.9490 0.0234 0.3145
vn -0.9482 0.0738 0.3089
vn -0.9783 0.0555 0.1995
usemtl Default_OBJ
s off
f 1/1/1 2/2/1 3/3/1 4/4/1
f 5/5/1 6/6/1 7/7/1 8/8/1
f 9/9/2 10/10/2 11/11/2 12/12/2
f 9/13/3 13/14/3 14/15/3 15/16/3
f 16/17/4 12/18/4 11/19/4 17/20/4
f 17/20/4 11/19/4 18/21/4 19/22/4
f 20/23/5 13/24/5 21/25/5 22/26/5
f 10/10/6 23/27/6 18/28/6 11/11/6
f 24/29/4 8/30/4 7/31/4 25/32/4
f 3/33/7 26/34/7 27/35/7 28/36/7
f 26/37/4 3/38/4 29/39/4 30/40/4
f 31/41/8 32/42/8 23/43/8 30/44/8
f 13/24/9 33/45/9 34/46/9 14/47/9
f 23/43/10 10/48/10 26/49/10 30/44/10
f 2/2/1 35/50/1 29/51/1 3/3/1
f 6/52/11 36/53/11 25/54/11 7/55/11
f 37/56/4 38/57/4 28/36/4 27/35/4
f 4/4/12 3/3/12 28/58/12 38/59/12
f 14/47/13 34/46/13 39/60/13 40/61/13
f 15/16/14 14/15/14 40/62/14 37/63/14
f 41/64/15 32/65/15 42/66/15 43/67/15
f 44/68/16 45/69/16 46/70/16 47/71/16
f 48/72/4 49/73/4 50/74/4 51/75/4
f 32/76/4 41/77/4 52/78/4 23/79/4
f 53/80/5 20/23/5 22/26/5 54/81/5
f 55/82/4 17/20/4 19/22/4 56/83/4
f 57/84/4 16/17/4 17/20/4 55/82/4
f 23/85/17 52/86/17 19/22/17 18/21/17
f 58/87/18 59/88/18 60/89/18 61/90/18
f 59/88/19 44/68/19 47/71/19 60/89/19
f 51/91/20 50/92/20 62/93/20 63/94/20
f 49/95/21 64/96/21 65/97/21 66/98/21
f 67/99/22 68/100/22 69/101/22 70/102/22
f 71/103/4 72/104/4 73/105/4 74/106/4
f 75/107/23 76/108/23 77/109/23 78/110/23
f 79/111/4 69/112/4 80/113/4 81/114/4
f 82/115/24 83/116/24 84/117/24 85/118/24
f 46/119/4 86/120/4 60/121/4 47/122/4
f 87/123/25 52/124/25 88/125/25 89/126/25
f 52/124/26 41/64/26 43/67/26 88/125/26
f 32/65/27 51/91/27 63/94/27 42/66/27
f 64/96/28 36/127/28 90/128/28 65/97/28
f 91/129/4 70/130/4 69/112/4 79/111/4
f 92/131/29 93/132/29 94/133/29 95/134/29
f 96/135/30 67/99/30 70/102/30 97/136/30
f 98/137/31 99/138/31 100/139/31 101/140/31
f 68/100/32 46/141/32 102/142/32 103/143/32
f 46/141/33 45/144/33 104/145/33 102/142/33
f 105/146/34 106/147/34 107/148/34 108/149/34
f 83/116/35 109/150/35 110/151/35 84/117/35
f 109/150/36 111/152/36 112/153/36 110/151/36
f 106/147/37 82/115/37 85/118/37 107/148/37
f 113/154/38 105/146/38 108/149/38 114/155/38
f 114/155/4 108/149/4 107/148/4 85/118/4
f 112/153/4 115/156/4 84/117/4 110/151/4
f 116/157/4 117/158/4 118/159/4 119/160/4
f 117/161/39 116/162/39 115/156/39 114/155/39
f 119/163/40 118/164/40 85/118/40 84/117/40
f 116/162/41 119/163/41 84/117/41 115/156/41
f 118/164/42 117/161/42 114/155/42 85/118/42
f 111/152/43 120/165/43 115/156/43 112/153/43
f 73/166/44 72/167/44 121/168/44 122/169/44
f 123/170/45 74/171/45 124/172/45 125/173/45
f 74/171/46 73/174/46 122/175/46 124/172/46
f 103/176/47 126/177/47 81/178/47 80/179/47
f 104/180/48 127/181/48 128/182/48 102/183/48
f 52/86/49 87/184/49 56/83/49 19/22/49
f 129/185/4 97/186/4 70/130/4 91/129/4
f 12/18/50 16/17/50 130/187/50 131/188/50
f 26/49/51 15/16/51 37/63/51 27/189/51
f 34/190/52 4/4/52 38/59/52 39/191/52
f 40/192/4 39/193/4 38/57/4 37/56/4
f 21/194/53 12/12/53 131/195/53 132/196/53
f 10/48/54 9/13/54 15/16/54 26/49/54
f 13/197/55 9/9/55 12/12/55 21/194/55
f 33/198/1 1/1/1 4/4/1 34/190/1
f 133/199/4 134/200/4 130/187/4 135/201/4
f 134/200/4 132/202/4 131/188/4 130/187/4
f 16/17/56 57/84/56 135/201/56 130/187/56
f 22/26/13 21/25/13 132/203/13 134/204/13
f 54/81/13 22/26/13 134/204/13 133/205/13
f 57/206/57 54/207/57 133/208/57 135/209/57
f 102/183/58 128/182/58 126/177/58 103/176/58
f 69/101/32 68/100/32 103/143/32 80/210/32
f 125/211/59 124/212/59 99/138/59 98/137/59
f 120/213/60 86/214/60 67/99/60 96/135/60
f 136/215/61 113/216/61 93/132/61 92/131/61
f 86/214/62 46/141/62 68/100/62 67/99/62
f 113/154/63 114/155/63 93/217/63
f 120/165/64 96/218/64 115/156/64
f 115/156/65 96/218/65 93/217/65 114/155/65
f 97/136/66 94/133/66 93/132/66 96/135/66
f 109/219/4 83/220/4 65/221/4 137/222/4
f 50/223/67 49/95/67 66/98/67 62/224/67
f 36/225/4 64/226/4 49/73/4 48/72/4
f 65/221/4 83/220/4 82/227/4 66/228/4
f 66/228/4 82/227/4 106/229/4 62/230/4
f 86/120/4 120/231/4 111/232/4
f 61/233/4 137/222/4 65/221/4 90/234/4
f 60/121/4 109/219/4 137/222/4 61/233/4
f 36/235/68 58/87/68 61/90/68 90/236/68
f 60/121/4 86/120/4 111/232/4 109/219/4
f 72/237/69 71/238/69 138/239/69 121/240/69
f 139/241/4 71/103/4 74/106/4 123/242/4
f 124/243/4 105/244/4 113/245/4 136/246/4
f 124/247/70 136/215/70 92/131/70 99/248/70
f 99/248/71 92/131/71 95/134/71 100/249/71
f 62/230/4 106/229/4 105/244/4 124/243/4
f 63/250/4 62/230/4 124/243/4 122/251/4
f 42/252/4 63/250/4 122/251/4 121/253/4
f 43/254/4 42/252/4 121/253/4 138/255/4
f 100/139/4 95/256/4 140/257/4 101/140/4
f 43/254/4 138/255/4 89/258/4 88/259/4
f 71/238/72 139/260/72 141/261/72 138/239/72
f 142/262/73 143/263/73 144/264/73 145/265/73
f 146/266/73 147/267/73 148/268/73 149/269/73
f 150/270/74 151/271/74 152/272/74 153/273/74
f 150/274/75 154/275/75 155/276/75 156/277/75
f 157/278/4 158/279/4 152/280/4 151/281/4
f 158/279/4 159/282/4 160/283/4 152/280/4
f 161/284/5 162/285/5 163/286/5 156/287/5
f 153/273/76 152/272/76 160/288/76 164/289/76
f 165/290/4 166/291/4 148/292/4 147/293/4
f 144/294/77 167/295/77 168/296/77 169/297/77
f 169/298/4 170/299/4 171/300/4 144/301/4
f 172/302/78 173/303/78 170/304/78 164/305/78
f 156/287/9 155/306/9 174/307/9 175/308/9
f 164/305/79 170/304/79 169/309/79 153/310/79
f 145/265/73 144/264/73 171/311/73 176/312/73
f 149/313/80 148/314/80 166/315/80 177/316/80
f 178/317/4 168/296/4 167/295/4 179/318/4
f 143/263/81 179/319/81 167/320/81 144/264/81
f 155/306/13 180/321/13 181/322/13 174/307/13
f 154/275/82 178/323/82 180/324/82 155/276/82
f 182/325/83 183/326/83 184/327/83 172/328/83
f 185/329/84 186/330/84 187/331/84 188/332/84
f 189/333/4 190/334/4 191/335/4 192/336/4
f 172/337/4 164/338/4 193/339/4 182/340/4
f 53/80/5 54/81/5 162/285/5 161/284/5
f 55/82/4 56/83/4 159/282/4 158/279/4
f 57/84/4 55/82/4 158/279/4 157/278/4
f 164/341/85 160/283/85 159/282/85 193/342/85
f 194/343/86 195/344/86 196/345/86 197/346/86
f 197/346/87 196/345/87 186/330/87 185/329/87
f 190/347/88 198/348/88 199/349/88 191/350/88
f 192/351/89 200/352/89 201/353/89 202/354/89
f 203/355/90 204/356/90 205/357/90 206/358/90
f 207/359/4 208/360/4 209/361/4 210/362/4
f 79/111/4 81/114/4 211/363/4 205/364/4
f 212/365/91 213/366/91 214/367/91 215/368/91
f 187/369/4 186/370/4 196/371/4 216/372/4
f 87/123/92 89/126/92 217/373/92 193/374/92
f 193/374/93 217/373/93 183/326/93 182/325/93
f 172/328/94 184/327/94 198/348/94 190/347/94
f 202/354/95 201/353/95 218/375/95 177/376/95
f 91/129/4 79/111/4 205/364/4 204/377/4
f 219/378/96 220/379/96 221/380/96 222/381/96
f 223/382/97 224/383/97 204/356/97 203/355/97
f 98/137/98 101/140/98 225/384/98 226/385/98
f 206/358/99 227/386/99 228/387/99 187/388/99
f 187/388/100 228/387/100 229/389/100 188/390/100
f 230/391/101 231/392/101 232/393/101 233/394/101
f 215/368/102 214/367/102 234/395/102 235/396/102
f 235/396/103 234/395/103 236/397/103 237/398/103
f 233/394/104 232/393/104 213/366/104 212/365/104
f 238/399/105 239/400/105 231/392/105 230/391/105
f 239/400/4 213/366/4 232/393/4 231/392/4
f 236/397/4 234/395/4 214/367/4 240/401/4
f 241/402/4 242/403/4 243/404/4 244/405/4
f 244/406/106 239/400/106 240/401/106 241/407/106
f 242/408/107 214/367/107 213/366/107 243/409/107
f 241/407/108 240/401/108 214/367/108 242/408/108
f 243/409/109 213/366/109 239/400/109 244/406/109
f 237/398/110 236/397/110 240/401/110 245/410/110
f 209/411/111 246/412/111 247/413/111 210/414/111
f 123/170/112 125/173/112 248/415/112 208/416/112
f 208/416/113 248/415/113 246/417/113 209/418/113
f 227/419/114 211/420/114 81/178/114 126/177/114
f 229/421/115 228/422/115 128/182/115 127/181/115
f 193/342/116 159/282/116 56/83/116 87/184/116
f 224/423/4 129/185/4 91/129/4 204/377/4
f 151/281/117 249/424/117 250/425/117 157/278/117
f 169/309/118 168/426/118 178/323/118 154/275/118
f 174/427/119 181/428/119 179/319/119 143/263/119
f 180/429/4 178/317/4 179/318/4 181/430/4
f 163/431/120 251/432/120 249/433/120 151/271/120
f 153/310/121 169/309/121 154/275/121 150/274/121
f 156/434/122 163/431/122 151/271/122 150/270/122
f 175/435/73 174/427/73 143/263/73 142/262/73
f 252/436/4 253/437/4 250/425/4 254/438/4
f 254/438/4 250/425/4 249/424/4 251/439/4
f 157/278/123 250/425/123 253/437/123 57/84/123
f 162/285/13 254/440/13 251/441/13 163/286/13
f 54/81/13 252/442/13 254/440/13 162/285/13
f 57/443/124 253/444/124 252/445/124 54/446/124
f 228/422/125 227/419/125 126/177/125 128/182/125
f 205/357/99 211/447/99 227/386/99 206/358/99
f 125/211/126 98/137/126 226/385/126 248/448/126
f 245/449/127 223/382/127 203/355/127 216/450/127
f 255/451/128 219/378/128 222/381/128 238/452/128
f 216/450/129 203/355/129 206/358/129 187/388/129
f 238/399/130 222/453/130 239/400/130
f 245/410/131 240/401/131 223/454/131
f 240/401/132 239/400/132 222/453/132 223/454/132
f 224/383/133 223/382/133 222/381/133 221/380/133
f 235/455/4 256/456/4 201/457/4 215/458/4
f 191/459/134 199/460/134 200/352/134 192/351/134
f 177/461/4 189/333/4 192/336/4 202/462/4
f 201/457/4 200/463/4 212/464/4 215/458/4
f 200/463/4 199/465/4 233/466/4 212/464/4
f 216/372/4 237/467/4 245/468/4
f 195/469/4 218/470/4 201/457/4 256/456/4
f 196/371/4 195/469/4 256/456/4 235/455/4
f 177/471/135 218/472/135 195/344/135 194/343/135
f 196/371/4 235/455/4 237/467/4 216/372/4
f 210/473/136 247/474/136 257/475/136 207/476/136
f 139/241/4 123/242/4 208/360/4 207/359/4
f 248/477/4 255/478/4 238/479/4 230/480/4
f 248/481/137 226/482/137 219/378/137 255/451/137
f 226/482/138 225/483/138 220/379/138 219/378/138
f 199/465/4 248/477/4 230/480/4 233/466/4
f 198/484/4 246/485/4 248/477/4 199/465/4
f 184/486/4 247/487/4 246/485/4 198/484/4
f 183/488/4 257/489/4 247/487/4 184/486/4
f 225/384/4 101/140/4 140/257/4 220/490/4
f 183/488/4 217/491/4 89/258/4 257/489/4
f 207/476/139 257/475/139 141/261/139 139/260/139
f 258/492/140 259/493/140 260/494/140 261/495/140
f 262/496/140 263/497/140 264/498/140 265/499/140
f 266/500/141 267/501/141 268/502/141 269/503/141
f 266/504/142 270/505/142 271/506/142 272/507/142
f 273/508/23 274/509/23 268/510/23 267/511/23
f 274/509/23 275/512/23 276/513/23 268/510/23
f 277/514/143 278/515/143 279/516/143 272/517/143
f 269/503/144 268/502/144 276/518/144 280/519/144
f 281/520/23 282/521/23 264/522/23 263/523/23
f 260/524/145 283/525/145 284/526/145 285/527/145
f 285/528/23 286/529/23 287/530/23 260/531/23
f 288/532/146 289/533/146 286/529/146 280/534/146
f 272/517/147 271/535/147 290/536/147 291/537/147
f 280/534/148 286/529/148 285/528/148 269/538/148
f 261/495/140 260/494/140 287/539/140 292/540/140
f 265/541/149 264/542/149 282/543/149 293/544/149
f 294/545/23 284/526/23 283/525/23 295/546/23
f 259/493/150 295/547/150 283/548/150 260/494/150
f 271/535/13 296/549/13 297/550/13 290/536/13
f 270/505/151 294/551/151 296/552/151 271/506/151
f 298/553/152 299/554/152 300/555/152 288/556/152
f 301/557/153 302/558/153 303/559/153 304/560/153
f 305/561/23 306/562/23 307/563/23 308/564/23
f 288/565/23 280/566/23 309/567/23 298/568/23
f 310/569/143 311/570/143 278/515/143 277/514/143
f 312/571/23 313/572/23 275/512/23 274/509/23
f 314/573/23 312/571/23 274/509/23 273/508/23
f 280/574/154 276/513/154 275/512/154 309/575/154
f 315/576/155 316/577/155 317/578/155 318/579/155
f 318/579/156 317/578/156 302/558/156 301/557/156
f 306/580/157 319/581/157 320/582/157 307/583/157
f 308/584/158 321/585/158 322/586/158 323/587/158
f 324/588/159 325/589/159 326/590/159 327/591/159
f 328/592/23 329/593/23 330/594/23 331/595/23
f 332/596/23 333/597/23 334/598/23 326/590/23
f 335/599/160 336/600/160 337/601/160 338/602/160
f 303/603/23 302/604/23 317/605/23 339/606/23
f 340/607/161 78/608/161 341/609/161 309/610/161
f 309/610/162 341/609/162 299/554/162 298/553/162
f 288/556/163 300/555/163 319/581/163 306/580/163
f 323/587/164 322/586/164 342/611/164 293/612/164
f 343/613/23 332/596/23 326/590/23 325/589/23
f 344/614/165 345/615/165 346/616/165 347/617/165
f 348/618/166 349/619/166 325/589/166 324/588/166
f 350/620/167 351/621/167 352/622/167 353/623/167
f 327/591/168 354/624/168 355/625/168 303/626/168
f 303/626/169 355/625/169 356/627/169 304/628/169
f 357/629/170 358/630/170 359/631/170 360/632/170
f 338/602/171 337/601/171 361/633/171 362/634/171
f 362/634/172 361/633/172 363/635/172 364/636/172
f 360/632/173 359/631/173 336/600/173 335/599/173
f 365/637/174 366/638/174 358/630/174 357/629/174
f 366/638/23 336/600/23 359/631/23 358/630/23
f 363/635/23 361/633/23 337/601/23 367/639/23
f 368/640/23 369/641/23 370/642/23 371/643/23
f 371/644/175 366/638/175 367/639/175 368/645/175
f 369/641/176 337/601/176 336/600/176 370/642/176
f 368/646/177 367/639/177 337/601/177 369/647/177
f 370/648/178 336/600/178 366/638/178 371/649/178
f 364/636/179 363/635/179 367/639/179 372/650/179
f 330/651/180 373/652/180 374/653/180 331/654/180
f 375/655/181 376/656/181 377/657/181 329/658/181
f 329/658/182 377/657/182 373/659/182 330/660/182
f 354/661/183 334/662/183 333/663/183 378/664/183
f 356/665/184 355/666/184 379/667/184 380/668/184
f 309/575/185 275/512/185 313/572/185 340/669/185
f 349/619/23 381/670/23 343/613/23 325/589/23
f 267/511/186 382/671/186 383/672/186 273/508/186
f 285/528/187 284/673/187 294/551/187 270/505/187
f 290/674/188 297/675/188 295/547/188 259/493/188
f 296/676/23 294/545/23 295/546/23 297/677/23
f 279/678/189 384/679/189 382/680/189 267/501/189
f 269/538/190 285/528/190 270/505/190 266/504/190
f 272/681/191 279/678/191 267/501/191 266/500/191
f 291/682/140 290/674/140 259/493/140 258/492/140
f 385/683/23 386/684/23 383/672/23 387/685/23
f 387/685/23 383/672/23 382/671/23 384/686/23
f 273/508/192 383/672/192 386/684/192 314/573/192
f 278/515/13 387/687/13 384/688/13 279/516/13
f 311/570/13 385/689/13 387/687/13 278/515/13
f 314/690/193 386/691/193 385/692/193 311/693/193
f 355/666/194 354/661/194 378/664/194 379/667/194
f 326/590/168 334/598/168 354/624/168 327/591/168
f 376/694/195 350/620/195 353/623/195 377/695/195
f 372/696/196 348/618/196 324/588/196 339/697/196
f 388/698/197 344/614/197 347/617/197 365/699/197
f 339/697/198 324/588/198 327/591/198 303/626/198
f 365/637/199 347/700/199 366/638/199
f 372/650/200 367/639/200 348/701/200
f 367/639/201 366/638/201 347/700/201 348/701/201
f 349/619/202 348/618/202 347/617/202 346/616/202
f 362/702/23 389/703/23 322/704/23 338/705/23
f 307/583/203 320/582/203 321/585/203 308/584/203
f 293/706/23 305/561/23 308/564/23 323/707/23
f 322/704/23 321/708/23 335/709/23 338/705/23
f 321/708/23 320/710/23 360/711/23 335/709/23
f 339/606/23 364/712/23 372/713/23
f 316/714/23 342/715/23 322/704/23 389/703/23
f 317/605/23 316/714/23 389/703/23 362/702/23
f 293/716/204 342/717/204 316/577/204 315/576/204
f 317/605/23 362/702/23 364/712/23 339/606/23
f 331/718/205 374/719/205 77/720/205 328/721/205
f 390/722/23 375/723/23 329/593/23 328/592/23
f 377/724/23 388/725/23 365/726/23 357/727/23
f 377/728/206 353/729/206 344/614/206 388/698/206
f 353/729/207 352/622/207 345/615/207 344/614/207
f 320/710/23 377/724/23 357/727/23 360/711/23
f 319/730/23 373/731/23 377/724/23 320/710/23
f 300/732/23 374/733/23 373/731/23 319/730/23
f 299/734/23 77/109/23 374/733/23 300/732/23
f 352/622/23 351/621/23 391/735/23 345/615/23
f 299/734/23 341/736/23 78/110/23 77/109/23
f 328/721/208 77/720/208 76/737/208 390/738/208
f 392/739/209 393/740/209 394/741/209 395/742/209
f 396/743/209 397/744/209 398/745/209 399/746/209
f 400/747/210 401/748/210 402/749/210 403/750/210
f 400/751/211 404/752/211 405/753/211 406/754/211
f 407/755/23 403/756/23 402/757/23 408/758/23
f 408/758/23 402/757/23 409/759/23 410/760/23
f 411/761/143 404/762/143 412/763/143 413/764/143
f 401/748/212 414/765/212 409/766/212 402/749/212
f 415/767/23 399/768/23 398/769/23 416/770/23
f 394/771/213 417/772/213 418/773/213 419/774/213
f 417/775/23 394/776/23 420/777/23 421/778/23
f 422/779/214 414/780/214 421/778/214 423/781/214
f 404/762/147 424/782/147 425/783/147 405/784/147
f 414/780/215 401/785/215 417/775/215 421/778/215
f 393/740/209 426/786/209 420/787/209 394/741/209
f 397/788/216 427/789/216 416/790/216 398/791/216
f 428/792/23 429/793/23 419/774/23 418/773/23
f 395/742/217 394/741/217 419/794/217 429/795/217
f 405/784/13 425/783/13 430/796/13 431/797/13
f 406/754/218 405/753/218 431/798/218 428/799/218
f 432/800/219 422/801/219 433/802/219 434/803/219
f 435/804/220 436/805/220 437/806/220 438/807/220
f 439/808/23 440/809/23 441/810/23 442/811/23
f 422/812/23 432/813/23 443/814/23 414/815/23
f 310/569/143 411/761/143 413/764/143 311/570/143
f 312/571/23 408/758/23 410/760/23 313/572/23
f 314/573/23 407/755/23 408/758/23 312/571/23
f 414/816/221 443/817/221 410/760/221 409/759/221
f 444/818/222 445/819/222 446/820/222 447/821/222
f 445/819/223 435/804/223 438/807/223 446/820/223
f 442/822/224 441/823/224 448/824/224 449/825/224
f 440/826/225 450/827/225 451/828/225 452/829/225
f 453/830/226 454/831/226 455/832/226 456/833/226
f 457/834/23 458/835/23 459/836/23 460/837/23
f 332/596/23 455/832/23 461/838/23 333/597/23
f 462/839/227 463/840/227 464/841/227 465/842/227
f 437/843/23 466/844/23 446/845/23 438/846/23
f 340/607/228 443/847/228 467/848/228 78/608/228
f 443/847/229 432/800/229 434/803/229 467/848/229
f 422/801/230 442/822/230 449/825/230 433/802/230
f 450/827/231 427/849/231 468/850/231 451/828/231
f 343/613/23 456/833/23 455/832/23 332/596/23
f 469/851/232 470/852/232 471/853/232 472/854/232
f 473/855/233 453/830/233 456/833/233 474/856/233
f 350/620/234 475/857/234 476/858/234 351/621/234
f 454/831/235 437/859/235 477/860/235 478/861/235
f 437/859/236 436/862/236 479/863/236 477/860/236
f 480/864/237 481/865/237 482/866/237 483/867/237
f 463/840/238 484/868/238 485/869/238 464/841/238
f 484/868/239 486/870/239 487/871/239 485/869/239
f 481/865/240 462/839/240 465/842/240 482/866/240
f 488/872/241 480/864/241 483/867/241 489/873/241
f 489/873/23 483/867/23 482/866/23 465/842/23
f 487/871/23 490/874/23 464/841/23 485/869/23
f 491/875/23 492/876/23 493/877/23 494/878/23
f 492/879/242 491/880/242 490/881/242 489/882/242
f 494/883/243 493/884/243 465/842/243 464/841/243
f 491/885/244 494/886/244 464/841/244 490/874/244
f 493/887/245 492/888/245 489/873/245 465/842/245
f 486/870/246 495/889/246 490/874/246 487/871/246
f 459/890/247 458/891/247 496/892/247 497/893/247
f 375/655/248 460/894/248 498/895/248 376/656/248
f 460/894/249 459/896/249 497/897/249 498/895/249
f 478/898/250 378/664/250 333/663/250 461/899/250
f 479/900/251 380/668/251 379/667/251 477/901/251
f 45/144/252 304/628/252 356/627/252 104/145/252
f 443/817/253 340/669/253 313/572/253 410/760/253
f 381/670/23 474/856/23 456/833/23 343/613/23
f 403/756/254 407/755/254 499/902/254 500/903/254
f 417/775/255 406/754/255 428/799/255 418/904/255
f 425/905/256 395/742/256 429/795/256 430/906/256
f 431/907/23 430/908/23 429/793/23 428/792/23
f 412/909/257 403/750/257 500/910/257 501/911/257
f 401/785/258 400/751/258 406/754/258 417/775/258
f 404/912/259 400/747/259 403/750/259 412/909/259
f 424/913/209 392/739/209 395/742/209 425/905/209
f 502/914/23 503/915/23 499/902/23 504/916/23
f 503/915/23 501/917/23 500/903/23 499/902/23
f 407/755/260 314/573/260 504/916/260 499/902/260
f 413/764/13 412/763/13 501/918/13 503/919/13
f 311/570/13 413/764/13 503/919/13 502/920/13
f 314/921/261 311/922/261 502/923/261 504/924/261
f 477/901/262 379/667/262 378/664/262 478/898/262
f 455/832/235 454/831/235 478/861/235 461/838/235
f 376/694/263 498/925/263 475/857/263 350/620/263
f 495/926/264 466/927/264 453/830/264 473/855/264
f 505/928/265 488/929/265 470/852/265 469/851/265
f 466/927/266 437/859/266 454/831/266 453/830/266
f 488/929/267 489/882/267 470/852/267
f 495/926/268 473/855/268 490/881/268
f 490/881/269 473/855/269 470/852/269 489/882/269
f 474/856/270 471/853/270 470/852/270 473/855/270
f 484/930/23 463/931/23 451/932/23 506/933/23
f 441/823/271 440/826/271 452/829/271 448/824/271
f 427/934/23 450/935/23 440/809/23 439/808/23
f 451/932/23 463/931/23 462/936/23 452/937/23
f 452/937/23 462/936/23 481/938/23 448/939/23
f 466/844/23 495/940/23 486/941/23
f 447/942/23 506/933/23 451/932/23 468/943/23
f 446/845/23 484/930/23 506/933/23 447/942/23
f 427/944/272 444/818/272 447/821/272 468/945/272
f 446/845/23 466/844/23 486/941/23 484/930/23
f 458/946/273 457/947/273 75/948/273 496/949/273
f 390/722/23 457/834/23 460/837/23 375/723/23
f 498/950/23 480/951/23 488/952/23 505/953/23
f 498/954/274 505/928/274 469/851/274 475/955/274
f 475/955/275 469/851/275 472/854/275 476/858/275
f 448/939/23 481/938/23 480/951/23 498/950/23
f 449/956/23 448/939/23 498/950/23 497/957/23
f 433/958/23 449/956/23 497/957/23 496/959/23
f 434/960/23 433/958/23 496/959/23 75/107/23
f 476/858/23 472/854/23 391/735/23 351/621/23
f 434/960/23 75/107/23 78/110/23 467/961/23
f 457/947/276 390/738/276 76/737/276 75/948/276
f 45/69/277 44/68/277 301/557/277 304/560/277
f 44/68/278 59/88/278 318/579/278 301/557/278
f 59/88/279 58/87/279 315/576/279 318/579/279
f 58/87/279 36/235/279 293/716/279 315/576/279
f 36/53/280 6/52/280 265/541/280 293/544/280
f 507/962/281 35/50/281 292/540/281 508/963/281
f 35/50/281 2/2/281 261/495/281 292/540/281
f 2/2/281 1/1/281 258/492/281 261/495/281
f 1/1/281 33/198/281 291/682/281 258/492/281
f 33/45/13 13/24/13 272/517/13 291/537/13
f 13/24/13 20/23/13 277/514/13 272/517/13
f 20/23/13 53/80/13 310/569/13 277/514/13
f 161/284/13 411/761/13 310/569/13 53/80/13
f 156/287/13 404/762/13 411/761/13 161/284/13
f 175/308/13 424/782/13 404/762/13 156/287/13
f 142/262/282 392/739/282 424/913/282 175/435/282
f 145/265/282 393/740/282 392/739/282 142/262/282
f 176/312/282 426/786/282 393/740/282 145/265/282
f 509/964/282 510/965/282 426/786/282 176/312/282
f 177/316/283 427/789/283 397/788/283 149/313/283
f 194/343/284 444/818/284 427/944/284 177/471/284
f 197/346/284 445/819/284 444/818/284 194/343/284
f 185/329/285 435/804/285 445/819/285 197/346/285
f 188/332/286 436/805/286 435/804/286 185/329/286
f 188/390/287 229/389/287 479/863/287 436/862/287
f 127/181/286 380/668/286 479/900/286 229/421/286
f 127/181/277 104/180/277 356/665/277 380/668/277
f 257/489/4 89/258/4 138/255/4 141/966/4
f 221/967/4 511/968/4 129/185/4 224/423/4
f 94/969/4 97/186/4 129/185/4 511/968/4
f 220/490/4 140/257/4 511/968/4 221/967/4
f 95/256/4 94/969/4 511/968/4 140/257/4
f 149/269/282 397/744/282 396/743/282 146/266/282
f 146/266/282 396/743/282 512/970/282 513/971/282
f 513/971/282 512/970/282 510/965/282 509/964/282
f 421/778/23 420/777/23 514/972/23 423/781/23
f 423/781/23 514/972/23 515/973/23 516/974/23
f 516/974/23 515/973/23 399/768/23 415/767/23
f 426/786/209 510/965/209 514/975/209 420/787/209
f 510/965/209 512/970/209 515/976/209 514/975/209
f 512/970/209 396/743/209 399/746/209 515/976/209
f 170/299/4 173/977/4 517/978/4 171/300/4
f 173/977/4 518/979/4 519/980/4 517/978/4
f 518/979/4 165/290/4 147/293/4 519/980/4
f 176/312/73 171/311/73 517/981/73 509/964/73
f 509/964/73 517/981/73 519/982/73 513/971/73
f 513/971/73 519/982/73 147/267/73 146/266/73
f 177/983/288 166/984/288 165/985/288 189/986/288
f 189/986/289 165/985/289 518/987/289 190/988/289
f 190/988/290 518/987/290 173/303/290 172/302/290
f 427/989/291 439/990/291 415/767/291 416/770/291
f 439/990/292 442/991/292 516/974/292 415/767/292
f 442/991/293 422/779/293 423/781/293 516/974/293
f 471/853/23 474/856/23 381/670/23 520/992/23
f 346/616/23 520/992/23 381/670/23 349/619/23
f 472/854/23 471/853/23 520/992/23 391/735/23
f 345/615/23 391/735/23 520/992/23 346/616/23
f 6/6/281 5/5/281 262/496/281 265/499/281
f 5/5/281 521/993/281 522/994/281 262/496/281
f 521/993/281 507/962/281 508/963/281 522/994/281
f 286/529/23 289/533/23 523/995/23 287/530/23
f 289/533/23 524/996/23 525/997/23 523/995/23
f 524/996/23 281/520/23 263/523/23 525/997/23
f 292/540/140 287/539/140 523/998/140 508/963/140
f 508/963/140 523/998/140 525/999/140 522/994/140
f 522/994/140 525/999/140 263/497/140 262/496/140
f 30/40/4 29/39/4 526/1000/4 31/1001/4
f 31/1001/4 526/1000/4 527/1002/4 528/1003/4
f 528/1003/4 527/1002/4 8/30/4 24/29/4
f 35/50/1 507/962/1 526/1004/1 29/51/1
f 507/962/1 521/993/1 527/1005/1 526/1004/1
f 521/993/1 5/5/1 8/8/1 527/1005/1
f 293/1006/294 282/521/294 281/520/294 305/1007/294
f 305/1007/295 281/520/295 524/996/295 306/1008/295
f 306/1008/296 524/996/296 289/533/296 288/532/296
f 528/1009/297 51/1010/297 32/42/297 31/41/297
f 48/1011/298 51/1010/298 528/1009/298 24/1012/298
f 36/1013/299 48/1011/299 24/1012/299 25/1014/299
