# Blender v2.93.3 OBJ File: 'FOLIGEDEF - copia.blend'
# www.blender.org
mtllib cumulo hierba 1.mtl
o Plane.177_Plane.180
v 0.139017 0.093528 -0.484685
v 0.118992 0.227319 -0.473819
v 0.210709 0.447003 -0.497898
v 0.138799 0.039971 -0.485145
v 0.269703 0.501442 -0.541054
v 0.289750 0.478674 -0.488930
v 0.254408 0.469448 -0.466283
v 0.220499 0.449514 -0.445511
v 0.189271 0.419017 -0.432810
v 0.162880 0.388073 -0.427501
v 0.134031 0.296880 -0.418251
v 0.121547 0.232208 -0.414460
v 0.119936 0.162475 -0.417868
v 0.136478 0.098397 -0.436106
v 0.127622 0.039971 -0.454850
v 0.107494 0.039971 -0.497451
v 0.101053 0.088973 -0.511084
v 0.078070 0.156821 -0.506479
v 0.076460 0.222785 -0.509887
v 0.084905 0.293167 -0.512063
v 0.114735 0.391835 -0.521365
v 0.143162 0.450540 -0.522361
v 0.183924 0.482576 -0.530544
v 0.222137 0.499368 -0.534570
v 0.174522 0.415952 -0.487976
v 0.118717 0.159496 -0.474401
v 0.158952 0.387227 -0.485301
v 0.238911 0.462355 -0.507519
v 0.129176 0.292237 -0.476852
v 0.280659 0.467471 -0.520856
vt 0.674646 0.171037
vt 0.673629 0.184374
vt 0.660683 0.185216
vt 0.660524 0.171037
vt 0.674646 0.151677
vt 0.660304 0.151460
vt 0.649217 0.195129
vt 0.660802 0.195813
vt 0.660915 0.205885
vt 0.651760 0.205885
vt 0.671086 0.196420
vt 0.674646 0.130166
vt 0.660053 0.129064
vt 0.674646 0.113818
vt 0.659869 0.112701
vt 0.673629 0.097899
vt 0.659695 0.097219
vt 0.671086 0.083272
vt 0.659526 0.082161
vt 0.665492 0.069935
vt 0.659389 0.069935
vt 0.668035 0.205885
vt 0.646166 0.111666
vt 0.647183 0.096609
vt 0.647183 0.186094
vt 0.646166 0.171037
vt 0.648709 0.081121
vt 0.646166 0.151247
vt 0.646166 0.128015
vt 0.652778 0.069935
vn -0.6499 0.7521 0.1093
vn -0.8056 0.5816 0.1130
vn 0.1307 0.5842 0.8010
vn -0.4789 0.8770 0.0394
vn -0.9507 0.3048 0.0574
vn -0.9835 0.1745 0.0477
vn -0.9994 0.0128 0.0317
vn -0.9616 -0.2743 0.0084
vn -0.9781 0.1096 -0.1769
vn -0.2501 0.9557 -0.1549
vn -0.6342 0.0100 0.7731
vn -0.1195 0.5869 0.8008
vn -0.2599 0.5457 0.7967
vn -0.5590 -0.2681 0.7846
vn -0.5971 0.2535 0.7610
vn -0.5561 0.3122 0.7703
vn -0.4903 0.0817 0.8677
vn -0.6332 0.1166 0.7652
usemtl Material.001
s off
f 9/1/1 8/2/1 3/3/1 25/4/1
f 10/5/2 9/1/2 25/4/2 27/6/2
f 24/7/3 28/8/3 30/9/3 5/10/3
f 8/2/4 7/11/4 28/8/4 3/3/4
f 11/12/5 10/5/5 27/6/5 29/13/5
f 12/14/6 11/12/6 29/13/6 2/15/6
f 13/16/7 12/14/7 2/15/7 26/17/7
f 14/18/8 13/16/8 26/17/8 1/19/8
f 15/20/9 14/18/9 1/19/9 4/21/9
f 30/9/10 28/8/10 7/11/10 6/22/10
f 26/17/11 2/15/11 19/23/11 18/24/11
f 3/3/12 28/8/12 24/7/12 23/25/12
f 25/4/13 3/3/13 23/25/13 22/26/13
f 1/19/14 26/17/14 18/24/14 17/27/14
f 29/13/15 27/6/15 21/28/15 20/29/15
f 27/6/16 25/4/16 22/26/16 21/28/16
f 4/21/17 1/19/17 17/27/17 16/30/17
f 2/15/18 29/13/18 20/29/18 19/23/18
o Plane.182_Plane.185
v -0.028405 0.130650 -0.399589
v -0.011195 0.344074 -0.431600
v -0.112490 0.694515 -0.319256
v -0.027713 0.045215 -0.399166
v -0.153443 0.781357 -0.210085
v -0.225777 0.745036 -0.262087
v -0.198438 0.730320 -0.323210
v -0.171370 0.698521 -0.380581
v -0.140819 0.649872 -0.424838
v -0.110256 0.600509 -0.455003
v -0.079861 0.455038 -0.492576
v -0.066522 0.351873 -0.508552
v -0.061393 0.240635 -0.505414
v -0.067509 0.138416 -0.466616
v -0.039299 0.045215 -0.449356
v 0.024814 0.045215 -0.410129
v 0.045330 0.123383 -0.397576
v 0.071962 0.231615 -0.423822
v 0.077090 0.336841 -0.420684
v 0.067728 0.449115 -0.410394
v 0.036070 0.606510 -0.371894
v -0.000983 0.700158 -0.345701
v -0.048203 0.751261 -0.299132
v -0.095660 0.778048 -0.260339
v -0.072893 0.644982 -0.364144
v -0.010319 0.235882 -0.431064
v -0.054461 0.599160 -0.381331
v -0.141698 0.719005 -0.281755
v -0.022128 0.447631 -0.418646
v -0.185726 0.727166 -0.227448
vt 0.674646 0.171037
vt 0.673629 0.184374
vt 0.660683 0.185216
vt 0.660524 0.171037
vt 0.674646 0.151677
vt 0.660304 0.151460
vt 0.649217 0.195129
vt 0.660802 0.195813
vt 0.660915 0.205885
vt 0.651760 0.205885
vt 0.671086 0.196420
vt 0.674646 0.130166
vt 0.660053 0.129064
vt 0.674646 0.113818
vt 0.659869 0.112701
vt 0.673629 0.097899
vt 0.659695 0.097219
vt 0.671086 0.083272
vt 0.659526 0.082161
vt 0.665492 0.069935
vt 0.659389 0.069935
vt 0.668035 0.205885
vt 0.646166 0.111666
vt 0.647183 0.096609
vt 0.647183 0.186094
vt 0.646166 0.171037
vt 0.648709 0.081121
vt 0.646166 0.151247
vt 0.646166 0.128015
vt 0.652778 0.069935
vn 0.4836 0.7521 -0.4478
vn 0.6117 0.5816 -0.5362
vn -0.5485 0.5842 -0.5982
vn 0.3789 0.8770 -0.2955
vn 0.7636 0.3048 -0.5692
vn 0.7963 0.1745 -0.5791
vn 0.8184 0.0128 -0.5745
vn 0.7996 -0.2743 -0.5343
vn 0.9150 0.1096 -0.3884
vn 0.2941 0.9557 -0.0076
vn 0.1065 0.0100 -0.9943
vn -0.3391 0.5869 -0.7352
vn -0.2194 0.5457 -0.8087
vn 0.0373 -0.2681 -0.9627
vn 0.0821 0.2535 -0.9638
vn 0.0427 0.3122 -0.9491
vn -0.0658 0.0817 -0.9945
vn 0.1100 0.1166 -0.9871
usemtl Material.001
s off
f 39/31/19 38/32/19 33/33/19 55/34/19
f 40/35/20 39/31/20 55/34/20 57/36/20
f 54/37/21 58/38/21 60/39/21 35/40/21
f 38/32/22 37/41/22 58/38/22 33/33/22
f 41/42/23 40/35/23 57/36/23 59/43/23
f 42/44/24 41/42/24 59/43/24 32/45/24
f 43/46/25 42/44/25 32/45/25 56/47/25
f 44/48/26 43/46/26 56/47/26 31/49/26
f 45/50/27 44/48/27 31/49/27 34/51/27
f 60/39/28 58/38/28 37/41/28 36/52/28
f 56/47/29 32/45/29 49/53/29 48/54/29
f 33/33/30 58/38/30 54/37/30 53/55/30
f 55/34/31 33/33/31 53/55/31 52/56/31
f 31/49/32 56/47/32 48/54/32 47/57/32
f 59/43/33 57/36/33 51/58/33 50/59/33
f 57/36/34 55/34/34 52/56/34 51/58/34
f 34/51/35 31/49/35 47/57/35 46/60/35
f 32/45/36 59/43/36 50/59/36 49/53/36
o Plane.184_Plane.187
v -0.065114 0.083329 -0.511167
v -0.057115 0.173622 -0.509210
v -0.121349 0.315042 -0.546993
v -0.062662 0.047659 -0.509756
v -0.171875 0.347575 -0.556788
v -0.154746 0.332535 -0.590011
v -0.127153 0.328555 -0.583144
v -0.100608 0.317336 -0.575890
v -0.078689 0.298785 -0.566002
v -0.062541 0.279550 -0.555044
v -0.040464 0.220388 -0.543480
v -0.029801 0.177992 -0.537863
v -0.027359 0.131554 -0.534092
v -0.040681 0.087704 -0.532394
v -0.042884 0.048826 -0.518290
v -0.054274 0.048903 -0.488945
v -0.060275 0.081564 -0.480556
v -0.050779 0.127950 -0.472940
v -0.054862 0.171889 -0.471940
v -0.063168 0.218316 -0.476462
v -0.086080 0.282408 -0.488629
v -0.102408 0.320125 -0.503124
v -0.126583 0.339338 -0.519735
v -0.146846 0.348607 -0.536715
v -0.098476 0.296301 -0.533416
v -0.054010 0.128452 -0.507424
v -0.088667 0.277971 -0.526526
v -0.139663 0.323715 -0.556525
v -0.066370 0.216308 -0.514067
v -0.165489 0.324845 -0.570691
vt 0.674646 0.171037
vt 0.673629 0.184374
vt 0.660683 0.185216
vt 0.660524 0.171037
vt 0.674646 0.151677
vt 0.660304 0.151460
vt 0.649217 0.195129
vt 0.660802 0.195813
vt 0.660915 0.205885
vt 0.651760 0.205885
vt 0.671086 0.196420
vt 0.674646 0.130166
vt 0.660053 0.129064
vt 0.674646 0.113818
vt 0.659869 0.112701
vt 0.673629 0.097899
vt 0.659695 0.097219
vt 0.671086 0.083272
vt 0.659526 0.082161
vt 0.665492 0.069935
vt 0.659389 0.069935
vt 0.668035 0.205885
vt 0.646166 0.111666
vt 0.647183 0.096609
vt 0.647183 0.186094
vt 0.646166 0.171037
vt 0.648709 0.081121
vt 0.646166 0.151247
vt 0.646166 0.128015
vt 0.652778 0.069935
vn 0.4708 0.7998 0.3725
vn 0.5925 0.6411 0.4878
vn 0.4484 0.5980 -0.6643
vn 0.2939 0.9099 0.2929
vn 0.6716 0.3738 0.6397
vn 0.6964 0.2460 0.6741
vn 0.7074 0.0854 0.7016
vn 0.6853 -0.2042 0.6990
vn 0.5348 0.1739 0.8269
vn -0.0095 0.9659 0.2587
vn 0.9941 0.0795 -0.0735
vn 0.6197 0.6186 -0.4830
vn 0.7159 0.5875 -0.3772
vn 0.9709 -0.2028 -0.1274
vn 0.9424 0.3193 -0.0995
vn 0.9167 0.3751 -0.1374
vn 0.9588 0.1437 -0.2452
vn 0.9800 0.1855 -0.0721
usemtl Material.001
s off
f 69/61/37 68/62/37 63/63/37 85/64/37
f 70/65/38 69/61/38 85/64/38 87/66/38
f 84/67/39 88/68/39 90/69/39 65/70/39
f 68/62/40 67/71/40 88/68/40 63/63/40
f 71/72/41 70/65/41 87/66/41 89/73/41
f 72/74/42 71/72/42 89/73/42 62/75/42
f 73/76/43 72/74/43 62/75/43 86/77/43
f 74/78/44 73/76/44 86/77/44 61/79/44
f 75/80/45 74/78/45 61/79/45 64/81/45
f 90/69/46 88/68/46 67/71/46 66/82/46
f 86/77/47 62/75/47 79/83/47 78/84/47
f 63/63/48 88/68/48 84/67/48 83/85/48
f 85/64/49 63/63/49 83/85/49 82/86/49
f 61/79/50 86/77/50 78/84/50 77/87/50
f 89/73/51 87/66/51 81/88/51 80/89/51
f 87/66/52 85/64/52 82/86/52 81/88/52
f 64/81/53 61/79/53 77/87/53 76/90/53
f 62/75/54 89/73/54 80/89/54 79/83/54
o Plane.185_Plane.188
v 0.063007 0.110647 -0.505053
v 0.039577 0.294963 -0.535944
v 0.074750 0.549357 -0.746459
v 0.068662 0.040487 -0.481167
v 0.079424 0.588684 -0.866583
v 0.153985 0.573928 -0.831533
v 0.145151 0.579713 -0.772831
v 0.137010 0.570400 -0.712350
v 0.124391 0.543460 -0.656714
v 0.108808 0.511831 -0.612029
v 0.102064 0.403570 -0.534448
v 0.101906 0.323672 -0.489730
v 0.105165 0.231575 -0.459722
v 0.109591 0.136467 -0.463021
v 0.089109 0.055084 -0.444058
v 0.026872 0.043770 -0.460623
v 0.001168 0.104232 -0.487941
v -0.023620 0.200649 -0.491637
v -0.036390 0.286008 -0.522602
v -0.039034 0.375036 -0.564486
v -0.032310 0.492799 -0.646446
v -0.013706 0.561878 -0.701926
v 0.012242 0.590128 -0.763848
v 0.041850 0.600707 -0.812820
v 0.054731 0.521893 -0.688032
v 0.046738 0.206114 -0.505695
v 0.046308 0.489365 -0.657357
v 0.089471 0.558462 -0.789639
v 0.038328 0.376067 -0.577836
v 0.114265 0.549260 -0.844869
vt 0.674646 0.171037
vt 0.673629 0.184374
vt 0.660683 0.185216
vt 0.660524 0.171037
vt 0.674646 0.151677
vt 0.660304 0.151460
vt 0.649217 0.195129
vt 0.660802 0.195813
vt 0.660915 0.205885
vt 0.651760 0.205885
vt 0.671086 0.196420
vt 0.674646 0.130166
vt 0.660053 0.129064
vt 0.674646 0.113818
vt 0.659869 0.112701
vt 0.673629 0.097899
vt 0.659695 0.097219
vt 0.671086 0.083272
vt 0.659526 0.082161
vt 0.665492 0.069935
vt 0.659389 0.069935
vt 0.668035 0.205885
vt 0.646166 0.111666
vt 0.647183 0.096609
vt 0.647183 0.186094
vt 0.646166 0.171037
vt 0.648709 0.081121
vt 0.646166 0.151247
vt 0.646166 0.128015
vt 0.652778 0.069935
vn -0.4212 0.8595 0.2895
vn -0.5087 0.7288 0.4584
vn 0.6267 0.7497 0.2126
vn -0.3681 0.9261 0.0834
vn -0.6237 0.4793 0.6175
vn -0.6418 0.3599 0.6772
vn -0.6505 0.2060 0.7310
vn -0.6177 -0.0780 0.7825
vn -0.7976 0.2351 0.5555
vn -0.3635 0.9037 -0.2262
vn 0.1402 0.3425 0.9290
vn 0.4579 0.7985 0.3908
vn 0.3639 0.7845 0.5021
vn 0.2230 0.0697 0.9723
vn 0.1356 0.5617 0.8161
vn 0.1650 0.6120 0.7735
vn 0.3006 0.4098 0.8612
vn 0.1260 0.4406 0.8888
usemtl Material.001
s off
f 99/91/55 98/92/55 93/93/55 115/94/55
f 100/95/56 99/91/56 115/94/56 117/96/56
f 114/97/57 118/98/57 120/99/57 95/100/57
f 98/92/58 97/101/58 118/98/58 93/93/58
f 101/102/59 100/95/59 117/96/59 119/103/59
f 102/104/60 101/102/60 119/103/60 92/105/60
f 103/106/61 102/104/61 92/105/61 116/107/61
f 104/108/62 103/106/62 116/107/62 91/109/62
f 105/110/63 104/108/63 91/109/63 94/111/63
f 120/99/64 118/98/64 97/101/64 96/112/64
f 116/107/65 92/105/65 109/113/65 108/114/65
f 93/93/66 118/98/66 114/97/66 113/115/66
f 115/94/67 93/93/67 113/115/67 112/116/67
f 91/109/68 116/107/68 108/114/68 107/117/68
f 119/103/69 117/96/69 111/118/69 110/119/69
f 117/96/70 115/94/70 112/116/70 111/118/70
f 94/111/71 91/109/71 107/117/71 106/120/71
f 92/105/72 119/103/72 110/119/72 109/113/72
