# Blender v2.93.3 OBJ File: 'FOLIGEDEF - copia.blend'
# www.blender.org
mtllib hiedra grande.mtl
o Plane.076_Plane.077
v -0.803058 2.614848 -0.262347
v -1.020803 2.914249 -0.129731
v -0.039379 -2.189443 -0.220392
v -1.263394 3.129212 -0.129731
v -1.483511 2.941466 -0.000000
v -1.020803 3.336128 -0.000000
v -0.598923 3.227257 -0.000000
v -0.367569 2.859812 -0.132617
v -0.217869 2.356277 -0.000000
v -0.013733 2.002443 -0.000000
v -0.081779 1.308380 -0.000000
v -0.217869 0.791237 0.111089
v -0.136215 0.097175 -0.000000
v -0.054560 -0.678541 -0.000001
v 0.285666 -1.086812 -0.000001
v 0.421756 -1.522302 -0.000001
v 0.204011 -2.175535 -0.000001
v -0.272306 -2.202753 -0.090662
v -0.353960 -1.644782 -0.090662
v -0.353960 -1.263729 -0.000001
v -0.762231 -0.937113 -0.000001
v -0.871103 -0.079743 -0.000000
v -1.061630 0.995373 0.111089
v -0.803058 1.281163 -0.000000
v -1.007194 1.730261 -0.000000
v -0.884712 2.084096 -0.000000
v -1.252157 2.315450 -0.132617
v -1.469902 2.546804 -0.000000
v -0.558095 2.192968 -0.129731
v -0.490050 1.825524 -0.129731
v -0.503659 1.281162 -0.129731
v -0.598923 0.845673 -0.018641
v -0.571705 0.056348 -0.129731
v -0.326741 -0.719367 -0.129731
v -0.081779 -1.127639 -0.129731
v -0.013733 -1.644782 -0.129731
vt 0.426593 0.455155
vt 0.429455 0.506568
vt 0.391489 0.506568
vt 0.400601 0.453898
vt 0.317078 0.936919
vt 0.364155 0.966465
vt 0.317078 0.976742
vt 0.290008 0.957210
vt 0.462864 0.559238
vt 0.424899 0.597777
vt 0.394527 0.593923
vt 0.421861 0.555384
vt 0.266964 0.902234
vt 0.265445 0.939488
vt 0.341376 0.908657
vt 0.389971 0.931780
vt 0.291262 0.880395
vt 0.368710 0.868834
vt 0.406675 0.884249
vt 0.332264 0.858556
vt 0.376303 0.834148
vt 0.429455 0.850849
vt 0.318597 0.825156
vt 0.374785 0.782763
vt 0.421861 0.785333
vt 0.341376 0.782763
vt 0.364155 0.741655
vt 0.406675 0.736517
vt 0.312522 0.755786
vt 0.367192 0.667147
vt 0.415787 0.671001
vt 0.333783 0.654300
vt 0.345931 0.573369
vt 0.478050 0.518130
vt 0.391489 0.542538
vt 0.453752 0.456468
vn 0.2833 -0.0643 0.9569
vn -0.1418 -0.2910 0.9462
vn -0.3380 -0.2422 0.9094
vn 0.2744 0.1153 0.9547
vn -0.0281 -0.3857 0.9222
vn 0.3752 -0.1494 0.9148
vn -0.3663 0.1087 0.9241
vn 0.0727 0.4329 0.8985
vn -0.2635 -0.0994 0.9595
vn 0.2988 -0.0226 0.9540
vn -0.2814 0.0186 0.9594
vn 0.2963 0.0568 0.9534
vn -0.2862 0.2830 0.9154
vn 0.3410 0.1199 0.9324
vn -0.3013 -0.1628 0.9395
vn 0.3202 -0.0751 0.9444
vn -0.3362 -0.0708 0.9391
vn 0.3039 0.0658 0.9504
vn -0.2952 -0.0633 0.9533
vn 0.2403 0.2136 0.9469
vn -0.4625 0.0269 0.8862
vn 0.2805 -0.0753 0.9569
usemtl Material.001
s off
f 3/1/1 36/2/1 19/3/1 18/4/1
f 2/5/2 7/6/2 6/7/2 4/8/2
f 15/9/3 14/10/3 34/11/3 35/12/3
f 28/13/4 2/5/4 4/8/4 5/14/4
f 1/15/5 8/16/5 7/6/5 2/5/5
f 27/17/6 1/15/6 2/5/6 28/13/6
f 29/18/7 9/19/7 8/16/7 1/15/7
f 26/20/8 29/18/8 1/15/8 27/17/8
f 30/21/9 10/22/9 9/19/9 29/18/9
f 25/23/10 30/21/10 29/18/10 26/20/10
f 31/24/11 11/25/11 10/22/11 30/21/11
f 24/26/12 31/24/12 30/21/12 25/23/12
f 32/27/13 12/28/13 11/25/13 31/24/13
f 23/29/14 32/27/14 31/24/14 24/26/14
f 33/30/15 13/31/15 12/28/15 32/27/15
f 22/32/16 33/30/16 32/27/16 23/29/16
f 34/11/17 14/10/17 13/31/17 33/30/17
f 21/33/18 34/11/18 33/30/18 22/32/18
f 35/12/19 36/2/19 16/34/19 15/9/19
f 20/35/20 35/12/20 34/11/20 21/33/20
f 16/34/21 36/2/21 3/1/21 17/36/21
f 19/3/22 36/2/22 35/12/22 20/35/22
o Plane.077_Plane.078
v -0.053628 -0.931484 -0.081134
v -0.036486 -1.249437 -0.081134
v 1.642121 2.893521 -0.081134
v 0.038081 -1.518063 -0.081134
v 0.284775 -1.485493 -0.000000
v -0.233801 -1.553958 -0.000000
v -0.487403 -1.278057 -0.000000
v -0.482543 -0.904623 -0.000000
v -0.355094 -0.471147 -0.000000
v -0.336953 -0.120267 -0.132617
v 0.036779 0.348895 -0.000000
v 0.376882 0.658529 0.111090
v 0.642558 1.197706 -0.000000
v 0.946424 1.795822 -0.132616
v 0.891792 2.249645 0.000000
v 0.997240 2.627640 0.000000
v 1.459933 2.997316 0.000000
v 1.816478 2.794187 0.000000
v 1.614451 2.353244 0.000000
v 1.436231 2.078192 0.000000
v 1.578169 1.651484 -0.132616
v 1.255760 0.981698 -0.000000
v 0.890450 0.116549 0.111089
v 0.570142 0.031195 -0.000000
v 0.507446 -0.388447 -0.132617
v 0.253547 -0.586567 -0.000000
v 0.410569 -0.925418 -0.000000
v 0.459537 -1.194254 -0.000000
v -0.033132 -0.512393 -0.081134
v 0.089607 -0.215339 -0.213751
v 0.354030 0.171226 -0.081134
v 0.626474 0.441015 0.029955
v 0.975998 1.023495 -0.081134
v 1.161984 1.697991 -0.213751
v 1.176116 2.107260 -0.081134
v 1.368869 2.512369 -0.081134
vt 0.426593 0.455155
vt 0.429455 0.506568
vt 0.391489 0.506568
vt 0.400601 0.453898
vt 0.317078 0.936919
vt 0.364155 0.966465
vt 0.317078 0.976742
vt 0.290008 0.957210
vt 0.462864 0.559238
vt 0.424899 0.597777
vt 0.394527 0.593923
vt 0.421861 0.555384
vt 0.266964 0.902234
vt 0.265445 0.939488
vt 0.341376 0.908657
vt 0.389971 0.931780
vt 0.291262 0.880395
vt 0.368710 0.868834
vt 0.406675 0.884249
vt 0.332264 0.858556
vt 0.376303 0.834148
vt 0.429455 0.850849
vt 0.318597 0.825156
vt 0.374785 0.782763
vt 0.421861 0.785333
vt 0.341376 0.782763
vt 0.364155 0.741655
vt 0.406675 0.736517
vt 0.312522 0.755786
vt 0.367192 0.667147
vt 0.415787 0.671001
vt 0.333783 0.654300
vt 0.345931 0.573369
vt 0.478050 0.518130
vt 0.391489 0.542538
vt 0.453752 0.456468
vn -0.2707 0.1565 0.9499
vn 0.2067 0.1246 0.9704
vn 0.1709 -0.2821 0.9440
vn -0.2177 0.0390 0.9752
vn 0.1814 0.0032 0.9834
vn -0.1654 -0.0186 0.9860
vn 0.2080 -0.0361 0.9775
vn -0.2144 -0.0386 0.9760
vn 0.2558 0.3181 0.9129
vn -0.0291 0.4891 0.8717
vn 0.0767 -0.3469 0.9347
vn -0.3241 -0.1744 0.9298
vn 0.0101 -0.3673 0.9300
vn -0.3393 -0.0221 0.9404
vn 0.2877 0.0318 0.9572
vn -0.1413 0.2180 0.9657
vn 0.3167 0.0752 0.9455
vn -0.1882 0.2581 0.9476
vn 0.2097 -0.0799 0.9745
vn -0.2549 -0.3276 0.9098
vn 0.2025 -0.1985 0.9590
vn -0.2552 0.1392 0.9568
usemtl Material.001
s off
f 39/37/23 72/38/23 55/39/23 54/40/23
f 38/41/24 43/42/24 42/43/24 40/44/24
f 51/45/25 50/46/25 70/47/25 71/48/25
f 64/49/26 38/41/26 40/44/26 41/50/26
f 37/51/27 44/52/27 43/42/27 38/41/27
f 63/53/28 37/51/28 38/41/28 64/49/28
f 65/54/29 45/55/29 44/52/29 37/51/29
f 62/56/30 65/54/30 37/51/30 63/53/30
f 66/57/31 46/58/31 45/55/31 65/54/31
f 61/59/32 66/57/32 65/54/32 62/56/32
f 67/60/33 47/61/33 46/58/33 66/57/33
f 60/62/34 67/60/34 66/57/34 61/59/34
f 68/63/35 48/64/35 47/61/35 67/60/35
f 59/65/36 68/63/36 67/60/36 60/62/36
f 69/66/37 49/67/37 48/64/37 68/63/37
f 58/68/38 69/66/38 68/63/38 59/65/38
f 70/47/39 50/46/39 49/67/39 69/66/39
f 57/69/40 70/47/40 69/66/40 58/68/40
f 71/48/41 72/38/41 52/70/41 51/45/41
f 56/71/42 71/48/42 70/47/42 57/69/42
f 52/70/43 72/38/43 39/37/43 53/72/43
f 55/39/44 72/38/44 71/48/44 56/71/44
o Plane.078_Plane.079
v 1.094734 2.724531 -0.117079
v 1.173490 3.023804 -0.117079
v 0.960849 3.433336 -0.117079
v 0.749242 0.272558 -0.117079
v 0.527690 3.779863 -0.000000
v 0.882093 4.055509 -0.117079
v 1.291624 4.024006 -0.000000
v 1.283748 3.425461 -0.000000
v 1.535767 3.078934 -0.000000
v 1.323126 2.700904 -0.000000
v 1.386132 2.393756 -0.000000
v 1.086859 1.984224 -0.000000
v 1.094734 1.653449 -0.000000
v 0.842715 1.590444 -0.000000
v 0.905719 1.236041 -0.000000
v 0.787585 0.716252 -0.000000
v 0.897844 0.330348 -0.000000
v 0.614322 0.220089 -0.000000
v 0.259920 0.582367 -0.000000
v 0.165412 1.173037 -0.000000
v 0.401681 1.472310 -0.000000
v 0.244169 1.747956 -0.000000
v 0.511939 2.023602 -0.000000
v 0.637950 2.535516 -0.000000
v 0.763959 2.748158 -0.000000
v 0.850590 2.992302 -0.000000
v 0.606446 3.244321 -0.000000
v 0.976599 2.401631 -0.117079
v 0.771834 2.007851 -0.117079
v 0.653700 1.787334 -0.117079
v 0.551317 1.527439 -0.117079
v 0.496188 1.204540 -0.117079
v 0.527690 0.700501 -0.117079
vt 0.692300 0.440088
vt 0.667578 0.480484
vt 0.637698 0.469333
vt 0.677245 0.435135
vt 0.715913 0.738450
vt 0.739641 0.699793
vt 0.780067 0.704997
vt 0.751945 0.737707
vt 0.752823 0.794207
vt 0.707125 0.797181
vt 0.676366 0.720608
vt 0.667578 0.771161
vt 0.703610 0.696819
vt 0.730853 0.671543
vt 0.756339 0.669313
vt 0.693943 0.673773
vt 0.717671 0.641062
vt 0.763369 0.640319
vt 0.679882 0.653701
vt 0.694821 0.603892
vt 0.729974 0.601661
vt 0.681639 0.583076
vt 0.730853 0.570438
vt 0.665820 0.605379
vt 0.635940 0.579359
vt 0.670214 0.558543
vt 0.702731 0.564490
vt 0.653517 0.553339
vt 0.664063 0.528063
vt 0.709761 0.531036
vt 0.627152 0.525089
vt 0.696579 0.481971
vt 0.708883 0.445543
vn 0.3893 0.2838 0.8763
vn -0.3060 -0.1880 0.9333
vn -0.3053 -0.0177 0.9521
vn 0.2900 0.0395 0.9562
vn 0.2670 0.1844 0.9459
vn -0.3711 0.1597 0.9147
vn 0.3366 -0.1024 0.9361
vn -0.3431 0.0300 0.9388
vn 0.2984 -0.1360 0.9447
vn -0.2949 0.1850 0.9374
vn -0.2845 0.0569 0.9570
vn 0.3349 -0.1223 0.9343
vn 0.3273 -0.2546 0.9100
vn -0.2656 0.2915 0.9190
vn 0.3803 0.0392 0.9240
vn -0.3164 -0.0037 0.9486
vn 0.4589 -0.2149 0.8621
vn -0.3318 0.0281 0.9429
vn 0.3551 0.0409 0.9339
vn -0.4626 -0.1886 0.8663
usemtl Material.001
s off
f 76/73/45 105/74/45 91/75/45 90/76/45
f 75/77/46 74/78/46 81/79/46 80/80/46
f 80/80/47 79/81/47 78/82/47 75/77/47
f 99/83/48 75/77/48 78/82/48 77/84/48
f 98/85/49 74/78/49 75/77/49 99/83/49
f 81/79/50 74/78/50 73/86/50 82/87/50
f 97/88/51 73/86/51 74/78/51 98/85/51
f 82/87/52 73/86/52 100/89/52 83/90/52
f 96/91/53 100/89/53 73/86/53 97/88/53
f 83/90/54 100/89/54 101/92/54 84/93/54
f 84/93/55 101/92/55 102/94/55 85/95/55
f 95/96/56 101/92/56 100/89/56 96/91/56
f 94/97/57 102/94/57 101/92/57 95/96/57
f 85/95/58 102/94/58 103/98/58 86/99/58
f 93/100/59 103/98/59 102/94/59 94/97/59
f 86/99/60 103/98/60 104/101/60 87/102/60
f 92/103/61 104/101/61 103/98/61 93/100/61
f 87/102/62 104/101/62 105/74/62 88/104/62
f 91/75/63 105/74/63 104/101/63 92/103/63
f 88/104/64 105/74/64 76/73/64 89/105/64
o Plane.079_Plane.080
v -0.539163 -1.039786 -0.000001
v -0.255641 -0.794068 -0.000001
v 0.216895 -1.030336 -0.000001
v 0.197993 -1.493421 -0.000001
v 0.056232 -2.003760 -0.000001
v 0.207444 -2.240028 -0.000001
v 0.179092 -2.542452 -0.000001
v -0.057175 -2.759819 -0.090662
v -0.019373 -3.052791 -0.090662
v -0.104429 -3.459172 -0.284984
v -0.473008 -3.534778 -0.284984
v -0.595868 -3.147298 -0.090662
v -0.520261 -2.854326 -0.090662
v -0.586415 -2.551903 -0.000001
v -0.425755 -2.343986 -0.000001
v -0.397402 -2.079366 -0.000001
v -0.501360 -1.597379 -0.000001
v -0.346910 -3.063729 -0.090662
v -0.314095 -2.790271 -0.090662
v -0.232057 -2.505874 -0.000001
v -0.166427 -2.336329 -0.000001
v -0.139081 -2.090217 -0.000001
v -0.128143 -1.592522 -0.000001
v -0.515095 -1.394798 -0.000001
v -0.171896 -1.264372 -0.000001
v -0.299246 -3.499134 -0.284984
v -0.368123 -0.891551 -0.000001
vt 0.802066 0.685823
vt 0.789514 0.676621
vt 0.811411 0.641429
vt 0.854795 0.663521
vt 0.828430 0.472610
vt 0.791881 0.471578
vt 0.797200 0.430478
vt 0.818939 0.434250
vt 0.824212 0.500266
vt 0.795543 0.497391
vt 0.850577 0.520784
vt 0.804697 0.524237
vt 0.853740 0.549331
vt 0.812021 0.540241
vt 0.836867 0.571634
vt 0.815072 0.563473
vt 0.852686 0.619807
vt 0.816293 0.610453
vt 0.772537 0.491345
vt 0.764101 0.463689
vt 0.770428 0.662628
vt 0.773114 0.629117
vt 0.774646 0.609994
vt 0.786247 0.564497
vt 0.765155 0.519892
vt 0.783083 0.539518
vt 0.777810 0.427113
vn 0.0000 -0.0000 1.0000
vn 0.0410 -0.4203 0.9065
vn -0.0031 -0.3381 0.9411
vn 0.0582 -0.2962 0.9534
vn 0.1142 -0.4048 0.9072
usemtl Material.001
s off
f 107/106/65 132/107/65 130/108/65 108/109/65
f 114/110/66 123/111/66 131/112/66 115/113/66
f 113/114/65 124/115/65 123/111/65 114/110/65
f 112/116/67 125/117/67 124/115/67 113/114/67
f 111/118/65 126/119/65 125/117/65 112/116/65
f 110/120/65 127/121/65 126/119/65 111/118/65
f 109/122/65 128/123/65 127/121/65 110/120/65
f 108/109/65 130/108/65 128/123/65 109/122/65
f 123/111/65 124/115/65 118/124/65 117/125/65
f 130/108/65 132/107/65 106/126/65 129/127/65
f 127/121/65 128/123/65 122/128/65 121/129/65
f 124/115/68 125/117/68 119/130/68 118/124/68
f 128/123/65 130/108/65 129/127/65 122/128/65
f 125/117/65 126/119/65 120/131/65 119/130/65
f 131/112/69 123/111/69 117/125/69 116/132/69
f 126/119/65 127/121/65 121/129/65 120/131/65
