# Blender v2.93.3 OBJ File: 'FOLIGEDEF - copia.blend'
# www.blender.org
mtllib hiedra grande frondosa.mtl
o Plane.080_Plane.081
v -0.637495 2.614848 -0.262347
v -0.855240 2.914249 -0.129731
v 0.126184 -2.189443 -0.220392
v -1.097831 3.129212 -0.129731
v -1.317948 2.941466 -0.000000
v -0.855240 3.336128 -0.000000
v -0.433360 3.227257 -0.000000
v -0.202006 2.859812 -0.132617
v -0.052306 2.356277 -0.000000
v 0.151830 2.002443 -0.000000
v 0.083784 1.308380 -0.000000
v -0.052306 0.791237 0.111089
v 0.029348 0.097175 -0.000000
v 0.111003 -0.678541 -0.000001
v 0.451229 -1.086812 -0.000001
v 0.587319 -1.522302 -0.000001
v 0.369574 -2.175535 -0.000001
v -0.106743 -2.202753 -0.090662
v -0.188396 -1.644782 -0.090662
v -0.188396 -1.263729 -0.000001
v -0.596668 -0.937113 -0.000001
v -0.705540 -0.079743 -0.000000
v -0.896067 0.995373 0.111089
v -0.637495 1.281163 -0.000000
v -0.841631 1.730261 -0.000000
v -0.719149 2.084096 -0.000000
v -1.086594 2.315450 -0.132617
v -1.304338 2.546804 -0.000000
v -0.392532 2.192968 -0.129731
v -0.324487 1.825524 -0.129731
v -0.338096 1.281162 -0.129731
v -0.433359 0.845673 -0.018641
v -0.406141 0.056348 -0.129731
v -0.161178 -0.719367 -0.129731
v 0.083784 -1.127639 -0.129731
v 0.151830 -1.644782 -0.129731
vt 0.426593 0.455155
vt 0.429455 0.506568
vt 0.391489 0.506568
vt 0.400601 0.453898
vt 0.317078 0.936919
vt 0.364155 0.966465
vt 0.317078 0.976742
vt 0.290008 0.957210
vt 0.462864 0.559238
vt 0.424899 0.597777
vt 0.394527 0.593923
vt 0.421861 0.555384
vt 0.266964 0.902234
vt 0.265445 0.939488
vt 0.341376 0.908657
vt 0.389971 0.931780
vt 0.291262 0.880395
vt 0.368710 0.868834
vt 0.406675 0.884249
vt 0.332264 0.858556
vt 0.376303 0.834148
vt 0.429455 0.850849
vt 0.318597 0.825156
vt 0.374785 0.782763
vt 0.421861 0.785333
vt 0.341376 0.782763
vt 0.364155 0.741655
vt 0.406675 0.736517
vt 0.312522 0.755786
vt 0.367192 0.667147
vt 0.415787 0.671001
vt 0.333783 0.654300
vt 0.345931 0.573369
vt 0.478050 0.518130
vt 0.391489 0.542538
vt 0.453752 0.456468
vn 0.2833 -0.0643 0.9569
vn -0.1418 -0.2910 0.9462
vn -0.3380 -0.2422 0.9094
vn 0.2744 0.1153 0.9547
vn -0.0281 -0.3857 0.9222
vn 0.3752 -0.1494 0.9148
vn -0.3663 0.1087 0.9241
vn 0.0727 0.4329 0.8985
vn -0.2635 -0.0994 0.9595
vn 0.2988 -0.0226 0.9540
vn -0.2814 0.0186 0.9594
vn 0.2963 0.0568 0.9534
vn -0.2862 0.2830 0.9154
vn 0.3410 0.1199 0.9324
vn -0.3013 -0.1628 0.9395
vn 0.3202 -0.0751 0.9444
vn -0.3362 -0.0708 0.9391
vn 0.3039 0.0658 0.9504
vn -0.2952 -0.0633 0.9533
vn 0.2403 0.2136 0.9469
vn -0.4625 0.0269 0.8862
vn 0.2805 -0.0753 0.9569
usemtl Material.001
s off
f 3/1/1 36/2/1 19/3/1 18/4/1
f 2/5/2 7/6/2 6/7/2 4/8/2
f 15/9/3 14/10/3 34/11/3 35/12/3
f 28/13/4 2/5/4 4/8/4 5/14/4
f 1/15/5 8/16/5 7/6/5 2/5/5
f 27/17/6 1/15/6 2/5/6 28/13/6
f 29/18/7 9/19/7 8/16/7 1/15/7
f 26/20/8 29/18/8 1/15/8 27/17/8
f 30/21/9 10/22/9 9/19/9 29/18/9
f 25/23/10 30/21/10 29/18/10 26/20/10
f 31/24/11 11/25/11 10/22/11 30/21/11
f 24/26/12 31/24/12 30/21/12 25/23/12
f 32/27/13 12/28/13 11/25/13 31/24/13
f 23/29/14 32/27/14 31/24/14 24/26/14
f 33/30/15 13/31/15 12/28/15 32/27/15
f 22/32/16 33/30/16 32/27/16 23/29/16
f 34/11/17 14/10/17 13/31/17 33/30/17
f 21/33/18 34/11/18 33/30/18 22/32/18
f 35/12/19 36/2/19 16/34/19 15/9/19
f 20/35/20 35/12/20 34/11/20 21/33/20
f 16/34/21 36/2/21 3/1/21 17/36/21
f 19/3/22 36/2/22 35/12/22 20/35/22
o Plane.081_Plane.082
v 0.103751 -0.931484 -0.080226
v 0.120805 -1.249437 -0.081961
v 1.790799 2.893521 -0.251797
v 0.194990 -1.518063 -0.089505
v 0.448626 -1.485493 -0.033747
v -0.067288 -1.553958 0.018721
v -0.319589 -1.278057 0.044380
v -0.314754 -0.904623 0.043888
v -0.187959 -0.471147 0.030993
v -0.183329 -0.120267 -0.102778
v 0.201904 0.348895 -0.008656
v 0.551501 0.658529 0.067453
v 0.804574 1.197706 -0.069946
v 1.093462 1.795822 -0.232627
v 1.052529 2.249645 -0.095163
v 1.157436 2.627640 -0.105832
v 1.617754 2.997316 -0.152646
v 1.972469 2.794187 -0.188720
v 1.771479 2.353244 -0.168280
v 1.594174 2.078192 -0.150248
v 1.721966 1.651484 -0.296545
v 1.414629 0.981698 -0.131988
v 1.062433 0.116549 0.015492
v 0.732529 0.031195 -0.062620
v 0.656737 -0.388447 -0.188212
v 0.417558 -0.586567 -0.030588
v 0.573775 -0.925418 -0.046475
v 0.622492 -1.194254 -0.051429
v 0.124142 -0.512393 -0.082300
v 0.232834 -0.215339 -0.226654
v 0.509318 0.171226 -0.121472
v 0.791603 0.441015 -0.038517
v 1.128093 1.023495 -0.184401
v 1.299708 1.697991 -0.335154
v 1.327185 2.107260 -0.204648
v 1.518949 2.512369 -0.224150
vt 0.426593 0.455155
vt 0.429455 0.506568
vt 0.391489 0.506568
vt 0.400601 0.453898
vt 0.317078 0.936919
vt 0.364155 0.966465
vt 0.317078 0.976742
vt 0.290008 0.957210
vt 0.462864 0.559238
vt 0.424899 0.597777
vt 0.394527 0.593923
vt 0.421861 0.555384
vt 0.266964 0.902234
vt 0.265445 0.939488
vt 0.341376 0.908657
vt 0.389971 0.931780
vt 0.291262 0.880395
vt 0.368710 0.868834
vt 0.406675 0.884249
vt 0.332264 0.858556
vt 0.376303 0.834148
vt 0.429455 0.850849
vt 0.318597 0.825156
vt 0.374785 0.782763
vt 0.421861 0.785333
vt 0.341376 0.782763
vt 0.364155 0.741655
vt 0.406675 0.736517
vt 0.312522 0.755786
vt 0.367192 0.667147
vt 0.415787 0.671001
vt 0.333783 0.654300
vt 0.345931 0.573369
vt 0.478050 0.518130
vt 0.391489 0.542538
vt 0.453752 0.456468
vn -0.1732 0.1565 0.9724
vn 0.3039 0.1246 0.9445
vn 0.2655 -0.2821 0.9219
vn -0.1179 0.0390 0.9923
vn 0.2799 0.0032 0.9600
vn -0.0648 -0.0186 0.9977
vn 0.3058 -0.0361 0.9514
vn -0.1146 -0.0386 0.9927
vn 0.3469 0.3181 0.8823
vn 0.0592 0.4891 0.8702
vn 0.1709 -0.3469 0.9222
vn -0.2284 -0.1744 0.9578
vn 0.1042 -0.3673 0.9242
vn -0.2424 -0.0221 0.9699
vn 0.3831 0.0318 0.9232
vn -0.0429 0.2180 0.9750
vn 0.4108 0.0752 0.9086
vn -0.0913 0.2581 0.9618
vn 0.3072 -0.0799 0.9483
vn -0.1615 -0.3276 0.9309
vn 0.2985 -0.1985 0.9336
vn -0.1571 0.1392 0.9777
usemtl Material.001
s off
f 39/37/23 72/38/23 55/39/23 54/40/23
f 38/41/24 43/42/24 42/43/24 40/44/24
f 51/45/25 50/46/25 70/47/25 71/48/25
f 64/49/26 38/41/26 40/44/26 41/50/26
f 37/51/27 44/52/27 43/42/27 38/41/27
f 63/53/28 37/51/28 38/41/28 64/49/28
f 65/54/29 45/55/29 44/52/29 37/51/29
f 62/56/30 65/54/30 37/51/30 63/53/30
f 66/57/31 46/58/31 45/55/31 65/54/31
f 61/59/32 66/57/32 65/54/32 62/56/32
f 67/60/33 47/61/33 46/58/33 66/57/33
f 60/62/34 67/60/34 66/57/34 61/59/34
f 68/63/35 48/64/35 47/61/35 67/60/35
f 59/65/36 68/63/36 67/60/36 60/62/36
f 69/66/37 49/67/37 48/64/37 68/63/37
f 58/68/38 69/66/38 68/63/38 59/65/38
f 70/47/39 50/46/39 49/67/39 69/66/39
f 57/69/40 70/47/40 69/66/40 58/68/40
f 71/48/41 72/38/41 52/70/41 51/45/41
f 56/71/42 71/48/42 70/47/42 57/69/42
f 52/70/43 72/38/43 39/37/43 53/72/43
f 55/39/44 72/38/44 71/48/44 56/71/44
o Plane.082_Plane.083
v 1.260297 2.724531 -0.117079
v 1.339053 3.023804 -0.117079
v 1.126412 3.433336 -0.117079
v 0.914805 0.272558 -0.117079
v 0.693253 3.779863 -0.000000
v 1.047656 4.055509 -0.117079
v 1.457187 4.024006 -0.000000
v 1.449311 3.425461 -0.000000
v 1.701330 3.078934 -0.000000
v 1.488689 2.700904 -0.000000
v 1.551695 2.393756 -0.000000
v 1.252422 1.984224 -0.000000
v 1.260297 1.653449 -0.000000
v 1.008278 1.590444 -0.000000
v 1.071282 1.236041 -0.000000
v 0.953149 0.716252 -0.000000
v 1.063407 0.330348 -0.000000
v 0.779886 0.220089 -0.000000
v 0.425483 0.582367 -0.000000
v 0.330975 1.173037 -0.000000
v 0.567244 1.472310 -0.000000
v 0.409732 1.747956 -0.000000
v 0.677502 2.023602 -0.000000
v 0.803513 2.535516 -0.000000
v 0.929522 2.748158 -0.000000
v 1.016153 2.992302 -0.000000
v 0.772009 3.244321 -0.000000
v 1.142163 2.401631 -0.117079
v 0.937397 2.007851 -0.117079
v 0.819263 1.787334 -0.117079
v 0.716880 1.527439 -0.117079
v 0.661751 1.204540 -0.117079
v 0.693253 0.700501 -0.117079
vt 0.692300 0.440088
vt 0.667578 0.480484
vt 0.637698 0.469333
vt 0.677245 0.435135
vt 0.715913 0.738450
vt 0.739641 0.699793
vt 0.780067 0.704997
vt 0.751945 0.737707
vt 0.752823 0.794207
vt 0.707125 0.797181
vt 0.676366 0.720608
vt 0.667578 0.771161
vt 0.703610 0.696819
vt 0.730853 0.671543
vt 0.756339 0.669313
vt 0.693943 0.673773
vt 0.717671 0.641062
vt 0.763369 0.640319
vt 0.679882 0.653701
vt 0.694821 0.603892
vt 0.729974 0.601661
vt 0.681639 0.583076
vt 0.730853 0.570438
vt 0.665820 0.605379
vt 0.635940 0.579359
vt 0.670214 0.558543
vt 0.702731 0.564490
vt 0.653517 0.553339
vt 0.664063 0.528063
vt 0.709761 0.531036
vt 0.627152 0.525089
vt 0.696579 0.481971
vt 0.708883 0.445543
vn 0.3893 0.2838 0.8763
vn -0.3060 -0.1880 0.9333
vn -0.3053 -0.0177 0.9521
vn 0.2900 0.0395 0.9562
vn 0.2670 0.1844 0.9459
vn -0.3711 0.1597 0.9147
vn 0.3366 -0.1024 0.9361
vn -0.3431 0.0300 0.9388
vn 0.2984 -0.1360 0.9447
vn -0.2949 0.1850 0.9374
vn -0.2845 0.0569 0.9570
vn 0.3349 -0.1223 0.9343
vn 0.3273 -0.2546 0.9100
vn -0.2656 0.2915 0.9190
vn 0.3803 0.0392 0.9240
vn -0.3164 -0.0037 0.9486
vn 0.4589 -0.2149 0.8621
vn -0.3318 0.0281 0.9429
vn 0.3551 0.0409 0.9339
vn -0.4626 -0.1886 0.8663
usemtl Material.001
s off
f 76/73/45 105/74/45 91/75/45 90/76/45
f 75/77/46 74/78/46 81/79/46 80/80/46
f 80/80/47 79/81/47 78/82/47 75/77/47
f 99/83/48 75/77/48 78/82/48 77/84/48
f 98/85/49 74/78/49 75/77/49 99/83/49
f 81/79/50 74/78/50 73/86/50 82/87/50
f 97/88/51 73/86/51 74/78/51 98/85/51
f 82/87/52 73/86/52 100/89/52 83/90/52
f 96/91/53 100/89/53 73/86/53 97/88/53
f 83/90/54 100/89/54 101/92/54 84/93/54
f 84/93/55 101/92/55 102/94/55 85/95/55
f 95/96/56 101/92/56 100/89/56 96/91/56
f 94/97/57 102/94/57 101/92/57 95/96/57
f 85/95/58 102/94/58 103/98/58 86/99/58
f 93/100/59 103/98/59 102/94/59 94/97/59
f 86/99/60 103/98/60 104/101/60 87/102/60
f 92/103/61 104/101/61 103/98/61 93/100/61
f 87/102/62 104/101/62 105/74/62 88/104/62
f 91/75/63 105/74/63 104/101/63 92/103/63
f 88/104/64 105/74/64 76/73/64 89/105/64
o Plane.083_Plane.084
v -0.373600 -1.124445 -0.000001
v -0.090078 -0.878726 -0.000001
v 0.382459 -1.114994 -0.000001
v 0.363556 -1.578080 -0.000001
v 0.221796 -2.088419 -0.000001
v 0.373007 -2.324687 -0.000001
v 0.344656 -2.627110 -0.000001
v 0.108388 -2.844477 -0.090662
v 0.146190 -3.137450 -0.090662
v 0.061134 -3.543831 -0.284984
v -0.307445 -3.619437 -0.284984
v -0.430305 -3.231956 -0.090662
v -0.354698 -2.938984 -0.090662
v -0.420852 -2.636561 -0.000001
v -0.260192 -2.428645 -0.000001
v -0.231839 -2.164025 -0.000001
v -0.335797 -1.682037 -0.000001
v -0.181347 -3.148388 -0.090662
v -0.148532 -2.874929 -0.090662
v -0.066494 -2.590532 -0.000001
v -0.000864 -2.420988 -0.000001
v 0.026482 -2.174875 -0.000001
v 0.037421 -1.677181 -0.000001
v -0.349532 -1.479457 -0.000001
v -0.006333 -1.349031 -0.000001
v -0.133682 -3.583793 -0.284984
v -0.202560 -0.976210 -0.000001
vt 0.802066 0.685823
vt 0.789514 0.676621
vt 0.811411 0.641429
vt 0.854795 0.663521
vt 0.828430 0.472610
vt 0.791881 0.471578
vt 0.797200 0.430478
vt 0.818939 0.434250
vt 0.824212 0.500266
vt 0.795543 0.497391
vt 0.850577 0.520784
vt 0.804697 0.524237
vt 0.853740 0.549331
vt 0.812021 0.540241
vt 0.836867 0.571634
vt 0.815072 0.563473
vt 0.852686 0.619807
vt 0.816293 0.610453
vt 0.772537 0.491345
vt 0.764101 0.463689
vt 0.770428 0.662628
vt 0.773114 0.629117
vt 0.774646 0.609994
vt 0.786247 0.564497
vt 0.765155 0.519892
vt 0.783083 0.539518
vt 0.777810 0.427113
vn 0.0000 -0.0000 1.0000
vn 0.0410 -0.4203 0.9065
vn -0.0031 -0.3381 0.9411
vn 0.0582 -0.2962 0.9534
vn 0.1142 -0.4048 0.9072
usemtl Material.001
s off
f 107/106/65 132/107/65 130/108/65 108/109/65
f 114/110/66 123/111/66 131/112/66 115/113/66
f 113/114/65 124/115/65 123/111/65 114/110/65
f 112/116/67 125/117/67 124/115/67 113/114/67
f 111/118/65 126/119/65 125/117/65 112/116/65
f 110/120/65 127/121/65 126/119/65 111/118/65
f 109/122/65 128/123/65 127/121/65 110/120/65
f 108/109/65 130/108/65 128/123/65 109/122/65
f 123/111/65 124/115/65 118/124/65 117/125/65
f 130/108/65 132/107/65 106/126/65 129/127/65
f 127/121/65 128/123/65 122/128/65 121/129/65
f 124/115/68 125/117/68 119/130/68 118/124/68
f 128/123/65 130/108/65 129/127/65 122/128/65
f 125/117/65 126/119/65 120/131/65 119/130/65
f 131/112/69 123/111/69 117/125/69 116/132/69
f 126/119/65 127/121/65 121/129/65 120/131/65
o Plane.086_Plane.087
v 0.470597 0.682783 0.073542
v 0.462567 0.309779 0.033973
v -0.027507 0.123790 -0.031974
v -0.356703 0.450025 -0.029336
v -0.638703 0.897938 -0.009552
v -0.914119 0.946812 -0.030655
v -1.118410 1.171563 -0.026699
v -1.112484 1.500240 -0.083499
v -1.353993 1.670262 -0.088775
v -1.578843 2.026613 -0.269324
v -1.388424 2.347021 -0.217885
v -1.038630 2.155392 -0.008318
v -0.872883 1.902477 -0.018870
v -0.613994 1.737463 0.080137
v -0.567850 1.479763 0.057715
v -0.391464 1.280515 0.053758
v 0.033760 1.031330 0.068266
v -1.143259 1.917044 -0.043063
v -0.963329 1.708572 -0.047643
v -0.816745 1.447402 0.030682
v -0.735440 1.285050 0.021523
v -0.572042 1.099024 0.017706
v -0.211981 0.755261 0.016180
v 0.192468 0.904698 0.070183
v 0.059470 0.565857 0.022286
v -1.478195 2.195968 -0.242135
v 0.465752 0.457761 0.049672
vt 0.802066 0.685823
vt 0.789514 0.676621
vt 0.811411 0.641429
vt 0.854795 0.663521
vt 0.828430 0.472610
vt 0.791881 0.471578
vt 0.797200 0.430478
vt 0.818939 0.434250
vt 0.824212 0.500266
vt 0.795543 0.497391
vt 0.850577 0.520784
vt 0.804697 0.524237
vt 0.853740 0.549331
vt 0.812021 0.540241
vt 0.836867 0.571634
vt 0.815072 0.563473
vt 0.852686 0.619807
vt 0.816293 0.610453
vt 0.772537 0.491345
vt 0.764101 0.463689
vt 0.770428 0.662628
vt 0.773114 0.629117
vt 0.774646 0.609994
vt 0.786247 0.564497
vt 0.765155 0.519892
vt 0.783083 0.539518
vt 0.777810 0.427113
vn -0.0942 -0.1030 0.9902
vn -0.4230 0.1602 0.8919
vn -0.3361 0.1334 0.9323
vn -0.3472 0.0591 0.9359
vn -0.4605 0.0962 0.8824
usemtl Material.001
s off
f 134/133/70 159/134/70 157/135/70 135/136/70
f 141/137/71 150/138/71 158/139/71 142/140/71
f 140/141/70 151/142/70 150/138/70 141/137/70
f 139/143/72 152/144/72 151/142/72 140/141/72
f 138/145/70 153/146/70 152/144/70 139/143/70
f 137/147/70 154/148/70 153/146/70 138/145/70
f 136/149/70 155/150/70 154/148/70 137/147/70
f 135/136/70 157/135/70 155/150/70 136/149/70
f 150/138/70 151/142/70 145/151/70 144/152/70
f 157/135/70 159/134/70 133/153/70 156/154/70
f 154/148/70 155/150/70 149/155/70 148/156/70
f 151/142/73 152/144/73 146/157/73 145/151/73
f 155/150/70 157/135/70 156/154/70 149/155/70
f 152/144/70 153/146/70 147/158/70 146/157/70
f 158/139/74 150/138/74 144/152/74 143/159/74
f 153/146/70 154/148/70 148/156/70 147/158/70
o Plane.084_Plane.085
v 0.123169 0.362296 -0.163279
v 0.089963 0.792356 -0.098501
v 0.288794 -0.224060 0.196896
v 0.034513 1.164041 -0.349187
v -0.139923 1.086112 -0.494525
v 0.234319 1.219182 -0.276055
v 0.481064 0.880542 0.030445
v 0.505812 0.635519 0.191265
v 0.425598 0.178693 0.181521
v 0.485135 -0.128053 0.304469
v 0.086158 -0.323146 0.085875
v -0.189222 -0.188914 -0.137319
v -0.408385 0.157613 -0.301308
v -0.233897 0.562618 -0.369793
v 0.059581 0.066079 0.076187
vt 0.937942 0.290227
vt 0.919154 0.313568
vt 0.887516 0.299443
vt 0.916517 0.285318
vt 0.883122 0.358173
vt 0.922669 0.369325
vt 0.911701 0.401038
vt 0.891032 0.398318
vt 0.964853 0.352226
vt 0.958701 0.373042
vt 0.916517 0.339588
vt 0.930579 0.403522
vt 0.868182 0.327693
vt 0.952549 0.319516
vt 0.958701 0.294983
vn -0.5738 -0.0188 0.8188
vn -0.7137 0.2968 0.6344
vn -0.5522 0.0708 0.8307
vn -0.3853 0.4625 0.7985
vn -0.4639 0.0824 0.8820
vn -0.6125 0.3353 0.7158
vn -0.4038 0.1715 0.8986
vn -0.5472 0.3460 0.7622
usemtl Material.001
s off
f 162/160/75 174/161/75 171/162/75 170/163/75
f 173/164/76 161/165/76 163/166/76 164/167/76
f 167/168/77 166/169/77 161/165/77 160/170/77
f 161/165/78 166/169/78 165/171/78 163/166/78
f 172/172/79 160/170/79 161/165/79 173/164/79
f 160/170/80 174/161/80 168/173/80 167/168/80
f 168/173/81 174/161/81 162/160/81 169/174/81
f 171/162/82 174/161/82 160/170/82 172/172/82
o Plane.085_Plane.086
v 0.293066 1.629666 -0.148456
v 0.455276 2.150222 -0.051191
v 0.587258 0.789298 -0.026070
v 0.288003 2.679725 -0.194986
v -0.011857 2.649601 -0.149298
v 0.534261 2.694939 -0.325446
v 0.918159 2.159108 -0.318837
v 1.014745 1.813198 -0.216343
v 0.804089 1.266012 -0.159581
v 0.875044 0.847121 -0.123597
v 0.290245 0.729622 0.074583
v -0.100333 0.997923 0.158884
v -0.326737 1.503840 0.243784
v -0.128255 1.989718 0.030115
v 0.376190 1.216833 0.102767
vt 0.937942 0.290227
vt 0.919154 0.313568
vt 0.887516 0.299443
vt 0.916517 0.285318
vt 0.883122 0.358173
vt 0.922669 0.369325
vt 0.911701 0.401038
vt 0.891032 0.398318
vt 0.964853 0.352226
vt 0.958701 0.373042
vt 0.916517 0.339588
vt 0.930579 0.403522
vt 0.868182 0.327693
vt 0.952549 0.319516
vt 0.958701 0.294983
vn 0.2311 -0.0968 0.9681
vn 0.0810 0.2646 0.9609
vn 0.2748 -0.0150 0.9614
vn 0.4497 0.3488 0.8222
vn 0.3714 -0.0257 0.9281
vn 0.2143 0.2725 0.9380
vn 0.4428 0.0493 0.8953
vn 0.2925 0.2649 0.9189
usemtl Material.001
s off
f 177/175/83 189/176/83 186/177/83 185/178/83
f 188/179/84 176/180/84 178/181/84 179/182/84
f 182/183/85 181/184/85 176/180/85 175/185/85
f 176/180/86 181/184/86 180/186/86 178/181/86
f 187/187/87 175/185/87 176/180/87 188/179/87
f 175/185/88 189/176/88 183/188/88 182/183/88
f 183/188/89 189/176/89 177/175/89 184/189/89
f 186/177/90 189/176/90 175/185/90 187/187/90
