# Blender v2.93.3 OBJ File: 'FOLIGEDEF - copia.blend'
# www.blender.org
mtllib hierbajo2.mtl
o Plane.101_Plane.102
v -0.454296 0.108293 -0.294146
v -0.192950 0.108293 -0.109815
v -0.687217 0.108293 -0.800166
v -0.025545 0.108293 0.197605
v -0.177133 -0.007853 0.307886
v 0.112899 -0.007853 0.096886
v 0.063645 -0.007852 -0.309749
v -0.052886 -0.007852 -0.504910
v -0.375525 -0.007852 -0.672664
v -0.519841 -0.007852 -0.895728
v -0.859958 -0.007852 -0.701540
v -0.938539 -0.007852 -0.412125
v -0.850149 -0.007852 -0.077802
v -0.527439 -0.007853 0.056539
v -0.632050 0.108293 -0.506143
vt 0.937942 0.290227
vt 0.919154 0.313568
vt 0.887516 0.299443
vt 0.916517 0.285318
vt 0.883122 0.358173
vt 0.922669 0.369325
vt 0.911701 0.401038
vt 0.891032 0.398318
vt 0.964853 0.352226
vt 0.958701 0.373042
vt 0.916517 0.339588
vt 0.930579 0.403522
vt 0.868182 0.327693
vt 0.952549 0.319516
vt 0.958701 0.294983
vn 0.4419 -0.8969 0.0177
vn 0.2878 -0.9198 -0.2667
vn -0.2081 -0.9559 0.2072
vn -0.4274 -0.8947 0.1297
vn 0.1537 -0.9471 -0.2816
vn -0.1908 -0.9489 0.2514
vn -0.3998 -0.9035 0.1542
vn 0.2605 -0.9571 -0.1269
usemtl Material.001
s off
f 3/1/1 15/2/1 12/3/1 11/4/1
f 14/5/2 2/6/2 4/7/2 5/8/2
f 8/9/3 7/10/3 2/6/3 1/11/3
f 2/6/4 7/10/4 6/12/4 4/7/4
f 13/13/5 1/11/5 2/6/5 14/5/5
f 1/11/6 15/2/6 9/14/6 8/9/6
f 9/14/7 15/2/7 3/1/7 10/15/7
f 12/3/8 15/2/8 1/11/8 13/13/8
o Plane.102_Plane.103
v 0.288779 0.117340 -0.209792
v 0.074765 0.135529 -0.189918
v 0.628616 0.088458 -0.052191
v -0.144934 0.154200 -0.274324
v -0.122198 0.073649 -0.397275
v -0.178392 0.078425 -0.162034
v 0.024200 0.061207 0.025006
v 0.168916 0.048908 0.074098
v 0.407028 0.028672 0.018881
v 0.578120 0.014131 0.070122
v 0.667251 0.006556 -0.178426
v 0.581147 0.013874 -0.361306
v 0.390099 0.030110 -0.494111
v 0.166529 0.049111 -0.421723
v 0.472134 0.101757 -0.178870
vt 0.937942 0.290227
vt 0.919154 0.313568
vt 0.887516 0.299443
vt 0.916517 0.285318
vt 0.883122 0.358173
vt 0.922669 0.369325
vt 0.911701 0.401038
vt 0.891032 0.398318
vt 0.964853 0.352226
vt 0.958701 0.373042
vt 0.916517 0.339588
vt 0.930579 0.403522
vt 0.868182 0.327693
vt 0.952549 0.319516
vt 0.958701 0.294983
vn -0.4223 -0.8642 0.2734
vn -0.1235 -0.9126 0.3897
vn -0.0573 -0.9545 -0.2927
vn 0.1643 -0.9119 -0.3761
vn -0.0145 -0.9493 0.3140
vn -0.0984 -0.9439 -0.3151
vn 0.1267 -0.9176 -0.3768
vn -0.1964 -0.9439 0.2656
usemtl Material.001
s off
f 18/16/9 30/17/9 27/18/9 26/19/9
f 29/20/10 17/21/10 19/22/10 20/23/10
f 23/24/11 22/25/11 17/21/11 16/26/11
f 17/21/12 22/25/12 21/27/12 19/22/12
f 28/28/13 16/26/13 17/21/13 29/20/13
f 16/26/14 30/17/14 24/29/14 23/24/14
f 24/29/15 30/17/15 18/16/15 25/30/15
f 27/18/16 30/17/16 16/26/16 28/28/16
