# Blender 3.4.1
# www.blender.org
mtllib 4x4_stairs_base_parapet.mtl
o 4x4_stairs_base_parapet
v 2.500000 2.500000 0.000000
v 2.160073 2.159559 0.000000
v 1.800147 1.799632 0.000000
v 1.080293 1.079780 0.000000
v 0.720367 0.719853 0.000000
v 0.000514 -0.000000 0.000000
v 2.500000 1.799632 -0.000000
v 2.500000 1.083151 -0.000000
v 2.500000 0.719853 -0.000000
v 2.500000 -0.000000 -0.000000
v 2.500000 3.367017 0.000000
v 2.160073 3.000000 0.000000
v 1.800147 2.659559 0.000000
v 1.080293 1.939706 0.000000
v 0.720367 1.579780 0.000000
v 0.000514 0.859927 0.000000
v 2.500000 3.767017 0.000000
v 2.160073 3.400000 0.000000
v 0.000514 1.259927 0.000000
v 1.080293 2.339706 0.000000
v 1.595287 2.854699 0.000000
v 0.515507 1.774920 0.000000
v 2.500000 2.500000 -1.000000
v 2.160073 2.159559 -1.000000
v 1.800147 1.799633 -1.000000
v 1.080293 1.079780 -1.000000
v 0.720367 0.719853 -1.000000
v 0.000514 0.000000 -1.000000
v 2.500000 1.799632 -1.000000
v 2.500000 1.083151 -1.000000
v 2.500000 0.719853 -1.000000
v 2.500000 -0.000000 -1.000000
v 2.500000 3.367017 -1.000000
v 2.160073 3.000000 -1.000000
v 1.800147 2.659559 -1.000000
v 1.080293 1.939706 -1.000000
v 0.720367 1.579780 -1.000000
v 0.000514 0.859927 -1.000000
v 2.500000 3.767017 -1.000000
v 2.160073 3.400000 -1.000000
v 0.000514 1.259927 -1.000000
v 1.080293 2.339706 -1.000000
v 1.595287 2.854699 -1.000000
v 0.515507 1.774920 -1.000000
vn -0.0000 -0.0000 1.0000
vn -1.0000 -0.0000 -0.0000
vn -0.7071 0.7071 -0.0000
vn -0.6872 0.7265 -0.0000
vn -0.7337 0.6795 -0.0000
vn 0.6897 0.7241 -0.0000
vn -0.0000 -0.0000 -1.0000
vt 0.000142 0.211168
vt 0.056758 0.267869
vt 0.116705 0.327817
vt 0.236599 0.447711
vt 0.296546 0.507658
vt 0.416440 0.627552
vt 0.833305 0.930692
vt 0.000142 0.327817
vt 0.000142 0.447149
vt 0.000142 0.507658
vt 0.000142 0.627552
vt 0.000142 0.066763
vt 0.833305 0.150082
vt 0.056758 0.127891
vt 0.116705 0.184593
vt 0.833305 0.232597
vt 0.236599 0.304487
vt 0.833305 0.467643
vt 0.296546 0.364434
vt 0.833305 0.552421
vt 0.833305 0.787468
vt 0.416440 0.484328
vt 0.833305 0.000142
vt 0.000142 0.000142
vt 0.833305 0.083460
vt 0.056758 0.061270
vt 0.416440 0.417706
vt 0.833305 0.720846
vt 0.236599 0.237865
vt 0.833305 0.401022
vt 0.150825 0.152091
vt 0.833305 0.279719
vt 0.330666 0.331932
vt 0.833305 0.599544
vt 0.833021 0.211168
vt 0.776405 0.267869
vt 0.716458 0.327816
vt 0.596564 0.447710
vt 0.536617 0.507658
vt 0.999858 0.930691
vt 0.416723 0.627552
vt 0.833021 0.327816
vt 0.833021 0.447149
vt 0.833021 0.507658
vt 0.833021 0.627552
vt 0.833022 0.066763
vt 0.999858 0.150082
vt 0.776406 0.127891
vt 0.716458 0.184593
vt 0.999858 0.232597
vt 0.999858 0.467643
vt 0.596564 0.304487
vt 0.999858 0.552421
vt 0.536617 0.364434
vt 0.999858 0.787468
vt 0.416723 0.484328
vt 0.999858 0.000142
vt 0.833021 0.000142
vt 0.999858 0.083460
vt 0.776406 0.061269
vt 0.999858 0.720846
vt 0.416723 0.417706
vt 0.999858 0.401022
vt 0.596564 0.237865
vt 0.682338 0.152091
vt 0.999858 0.279719
vt 0.999858 0.599544
vt 0.502497 0.331932
s 0
f 9/10/1 5/5/1 6/6/1 10/11/1
f 2/2/1 1/1/1 11/12/1 12/14/1
f 3/3/1 2/2/1 12/14/1 13/15/1
f 1/1/1 2/2/1 3/3/1 7/8/1
f 6/6/1 5/5/1 15/19/1 16/22/1
f 16/21/2 38/55/2 28/40/2 6/7/2
f 19/28/2 41/61/2 38/55/2 16/21/2
f 14/18/3 36/51/3 37/53/3 15/20/3
f 15/19/1 22/33/1 19/27/1 16/22/1
f 12/13/4 34/47/4 35/50/4 13/16/4
f 18/25/2 40/59/2 34/47/2 12/13/2
f 3/3/1 4/4/1 8/9/1 7/8/1
f 17/23/5 39/57/5 40/59/5 18/25/5
f 5/5/1 4/4/1 14/17/1 15/19/1
f 22/34/3 44/67/3 41/61/3 19/28/3
f 13/15/1 21/31/1 20/29/1 14/17/1
f 37/53/6 44/67/6 22/34/6 15/20/6
f 12/14/1 11/12/1 17/24/1 18/26/1
f 8/9/1 4/4/1 5/5/1 9/10/1
f 4/4/1 3/3/1 13/15/1 14/17/1
f 21/32/3 43/66/3 42/63/3 20/30/3
f 20/30/2 42/63/2 36/51/2 14/18/2
f 31/44/7 32/45/7 28/41/7 27/39/7
f 24/36/7 34/48/7 33/46/7 23/35/7
f 25/37/7 35/49/7 34/48/7 24/36/7
f 23/35/7 29/42/7 25/37/7 24/36/7
f 28/41/7 38/56/7 37/54/7 27/39/7
f 37/54/7 38/56/7 41/62/7 44/68/7
f 25/37/7 29/42/7 30/43/7 26/38/7
f 27/39/7 37/54/7 36/52/7 26/38/7
f 35/49/7 36/52/7 42/64/7 43/65/7
f 34/48/7 40/60/7 39/58/7 33/46/7
f 30/43/7 31/44/7 27/39/7 26/38/7
f 26/38/7 36/52/7 35/49/7 25/37/7
f 35/50/6 43/66/6 21/32/6 13/16/6
