# Blender v2.93.3 OBJ File: 'FOLIGEDEF - copia.blend'
# www.blender.org
mtllib ud mixta grande.mtl
o Plane.131_Plane.134
v 1.101149 -4.042167 -0.781667
v 0.993258 -2.958359 -0.785508
v -0.506982 -6.391421 -0.794140
v 0.885368 -1.874550 -0.789348
v 0.087002 -4.143163 -0.792873
v -0.006909 -1.963409 -0.799208
v 0.128064 -3.044520 -0.795068
v -0.441544 -5.290352 -0.796065
v -0.453037 -6.933326 -0.792220
v 0.735663 -7.362223 -0.777761
v 0.275701 -6.313477 -0.785491
v 0.614012 -6.827062 -0.780429
v 0.438635 -5.202698 -0.786340
v 0.099228 -7.425603 -0.784793
v -0.474263 -5.840887 -0.795103
v 0.357168 -5.758087 -0.785915
v 0.536126 -1.909765 -0.915980
v -0.156013 -5.809628 -0.914359
v 0.602954 -4.092216 -0.909945
v -0.142690 -6.355577 -0.912888
v 0.006701 -5.246148 -0.913885
v 0.100831 -6.878603 -0.908872
v 0.589851 -2.998968 -0.912738
v 0.452683 -7.390839 -0.903660
vt 0.243939 0.762165
vt 0.243939 0.864978
vt 0.198543 0.864978
vt 0.187913 0.762165
vt 0.243939 0.967790
vt 0.204618 0.967790
vt 0.159060 0.505134
vt 0.127169 0.556540
vt 0.080093 0.556540
vt 0.101353 0.505134
vt 0.157541 0.659353
vt 0.108946 0.659353
vt 0.166653 0.453728
vt 0.134762 0.453727
vt 0.142355 0.607946
vt 0.084648 0.607946
vt 0.049113 0.607946
vt 0.039394 0.556540
vt 0.130206 0.762165
vt 0.058832 0.659353
vt 0.146911 0.864978
vt 0.039394 0.505134
vt 0.095279 0.453727
vt 0.143874 0.967790
vn -0.2715 -0.0122 0.9624
vn -0.3177 -0.0205 0.9480
vn -0.2501 -0.1320 0.9592
vn -0.2760 0.1466 0.9499
vn -0.2906 -0.1242 0.9488
vn -0.2664 0.0581 0.9621
vn -0.2665 0.0181 0.9637
vn 0.3296 -0.0037 0.9441
vn 0.2464 -0.1234 0.9613
vn 0.2335 -0.0008 0.9724
vn 0.2255 0.2149 0.9503
vn 0.2250 0.0229 0.9741
vn 0.2998 -0.0522 0.9526
vn 0.2410 0.0727 0.9678
usemtl Material.001
s off
f 1/1/1 2/2/1 23/3/1 19/4/1
f 2/2/2 4/5/2 17/6/2 23/3/2
f 12/7/3 11/8/3 20/9/3 22/10/3
f 13/11/4 1/1/4 19/4/4 21/12/4
f 10/13/5 12/7/5 22/10/5 24/14/5
f 16/15/6 13/11/6 21/12/6 18/16/6
f 11/8/7 16/15/7 18/16/7 20/9/7
f 20/9/8 18/16/8 15/17/8 3/18/8
f 21/12/9 19/4/9 5/19/9 8/20/9
f 19/4/10 23/3/10 7/21/10 5/19/10
f 24/14/11 22/10/11 9/22/11 14/23/11
f 23/3/12 17/6/12 6/24/12 7/21/12
f 18/16/13 21/12/13 8/20/13 15/17/13
f 22/10/14 20/9/14 3/18/14 9/22/14
o Plane.132_Plane.135
v 0.044996 -0.193596 -1.002522
v -0.172748 0.105804 -1.002522
v 0.808676 -4.997888 -1.002522
v -0.415340 0.320767 -1.002522
v -0.635456 0.133021 -0.886377
v -0.172748 0.527683 -0.886377
v 0.249132 0.418812 -0.886377
v 0.480486 0.051367 -0.886377
v 0.630186 -0.452168 -0.886377
v 0.834322 -0.806002 -0.886377
v 0.766276 -1.500064 -0.886377
v 0.630186 -2.017208 -0.886377
v 0.711840 -2.711270 -0.886377
v 0.793495 -3.486985 -0.886377
v 1.133721 -3.895256 -0.886377
v 1.269811 -4.330746 -0.886377
v 1.052066 -4.983980 -0.886377
v 0.575749 -5.011198 -0.886377
v 0.494095 -4.453227 -0.886377
v 0.494095 -4.072174 -0.886377
v 0.085824 -3.745557 -0.886377
v -0.023048 -2.888187 -0.886377
v -0.213576 -1.813071 -0.886377
v 0.044996 -1.527282 -0.886377
v -0.159139 -1.078183 -0.886377
v -0.036658 -0.724348 -0.886377
v -0.404102 -0.492994 -0.886377
v -0.621847 -0.261641 -0.886377
v 0.289960 -0.615477 -1.002522
v 0.358005 -0.982921 -1.002522
v 0.344396 -1.527282 -1.002522
v 0.249132 -1.962771 -1.002522
v 0.276350 -2.752096 -1.002522
v 0.521313 -3.527812 -1.002522
v 0.766276 -3.936083 -1.002522
v 0.834322 -4.453227 -1.002522
vt 0.426593 0.455155
vt 0.429455 0.506568
vt 0.391489 0.506568
vt 0.400601 0.453898
vt 0.317078 0.936919
vt 0.364155 0.966465
vt 0.317078 0.976742
vt 0.290008 0.957210
vt 0.462864 0.559238
vt 0.424899 0.597777
vt 0.394527 0.593923
vt 0.421861 0.555384
vt 0.266964 0.902234
vt 0.265445 0.939488
vt 0.341376 0.908657
vt 0.389971 0.931780
vt 0.291262 0.880395
vt 0.368710 0.868834
vt 0.406675 0.884249
vt 0.332264 0.858556
vt 0.376303 0.834148
vt 0.429455 0.850849
vt 0.318597 0.825156
vt 0.374785 0.782763
vt 0.421861 0.785333
vt 0.341376 0.782763
vt 0.364155 0.741655
vt 0.406675 0.736517
vt 0.312522 0.755786
vt 0.367192 0.667147
vt 0.415787 0.671001
vt 0.333783 0.654300
vt 0.345931 0.573369
vt 0.478050 0.518130
vt 0.391489 0.542538
vt 0.453752 0.456468
vn 0.3752 0.0191 0.9268
vn -0.1283 -0.2632 0.9562
vn -0.3079 -0.2207 0.9255
vn 0.2479 0.1042 0.9632
vn -0.1837 -0.1237 0.9752
vn 0.1574 0.1291 0.9791
vn -0.2363 -0.1008 0.9664
vn 0.1933 0.1813 0.9642
vn -0.2378 -0.0897 0.9672
vn 0.2700 -0.0204 0.9627
vn -0.2539 0.0167 0.9671
vn 0.2677 0.0513 0.9621
vn -0.2752 0.0668 0.9591
vn 0.2656 -0.1303 0.9552
vn -0.2739 -0.0201 0.9616
vn 0.2919 0.0341 0.9558
vn -0.3045 -0.0641 0.9503
vn 0.2747 0.0595 0.9597
vn -0.2667 -0.0572 0.9621
vn 0.2174 0.1933 0.9568
vn -0.3352 0.0681 0.9397
vn 0.3494 0.0265 0.9366
usemtl Material.001
s off
f 27/25/15 60/26/15 43/27/15 42/28/15
f 26/29/16 31/30/16 30/31/16 28/32/16
f 39/33/17 38/34/17 58/35/17 59/36/17
f 52/37/18 26/29/18 28/32/18 29/38/18
f 25/39/19 32/40/19 31/30/19 26/29/19
f 51/41/20 25/39/20 26/29/20 52/37/20
f 53/42/21 33/43/21 32/40/21 25/39/21
f 50/44/22 53/42/22 25/39/22 51/41/22
f 54/45/23 34/46/23 33/43/23 53/42/23
f 49/47/24 54/45/24 53/42/24 50/44/24
f 55/48/25 35/49/25 34/46/25 54/45/25
f 48/50/26 55/48/26 54/45/26 49/47/26
f 56/51/27 36/52/27 35/49/27 55/48/27
f 47/53/28 56/51/28 55/48/28 48/50/28
f 57/54/29 37/55/29 36/52/29 56/51/29
f 46/56/30 57/54/30 56/51/30 47/53/30
f 58/35/31 38/34/31 37/55/31 57/54/31
f 45/57/32 58/35/32 57/54/32 46/56/32
f 59/36/33 60/26/33 40/58/33 39/33/33
f 44/59/34 59/36/34 58/35/34 45/57/34
f 40/58/35 60/26/35 27/25/35 41/60/35
f 43/27/36 60/26/36 59/36/36 44/59/36
