# Blender 3.4.1
# www.blender.org
mtllib 24x24_square_ceiling.mtl
o 24x24_square_ceiling_low
v 19.426666 -0.000000 19.426666
v 21.933334 0.352906 20.066666
v 21.933334 0.352906 21.933334
v 22.573334 -0.000000 19.426666
v 19.426666 -0.000000 22.573334
v 20.066666 0.352906 21.933334
v 22.573334 -0.000000 22.573334
v 20.066666 0.352906 20.066666
v 19.426666 0.150978 19.426666
v 19.426666 0.150977 22.573334
v 19.959999 0.150977 19.959999
v 19.959999 0.150977 22.040001
v 22.040001 0.150977 19.959999
v 22.040001 0.150977 22.040001
v 22.573334 0.150978 19.426666
v 22.573334 0.150977 22.573334
v 18.000000 0.000000 18.000000
v 24.000000 0.000000 18.000000
v 18.000000 -0.000001 24.000000
v 24.000000 -0.000001 24.000000
v 16.573334 -0.000000 19.426666
v 14.066667 0.352906 20.066666
v 14.066667 0.352906 21.933334
v 13.426667 -0.000000 19.426666
v 16.573334 -0.000000 22.573334
v 15.933333 0.352906 21.933334
v 13.426667 -0.000000 22.573334
v 15.933333 0.352906 20.066666
v 16.573334 0.150978 19.426666
v 16.573334 0.150977 22.573334
v 16.040001 0.150977 19.959999
v 16.040001 0.150977 22.040001
v 13.960000 0.150977 19.959999
v 13.960000 0.150977 22.040001
v 13.426667 0.150978 19.426666
v 13.426667 0.150977 22.573334
v 12.000000 0.000000 18.000000
v 12.000000 -0.000001 24.000000
v 19.426666 -0.000000 16.573334
v 21.933334 0.352906 15.933333
v 21.933334 0.352906 14.066667
v 22.573334 -0.000000 16.573334
v 19.426666 -0.000000 13.426667
v 20.066666 0.352906 14.066667
v 22.573334 -0.000000 13.426667
v 20.066666 0.352906 15.933333
v 19.426666 0.150978 16.573334
v 19.426666 0.150977 13.426667
v 19.959999 0.150977 16.040001
v 19.959999 0.150977 13.960000
v 22.040001 0.150977 16.040001
v 22.040001 0.150977 13.960000
v 22.573334 0.150978 16.573334
v 22.573334 0.150977 13.426667
v 18.000000 -0.000001 12.000000
v 24.000000 -0.000001 12.000000
v 16.573334 -0.000000 16.573334
v 14.066667 0.352906 15.933333
v 14.066667 0.352906 14.066667
v 13.426667 -0.000000 16.573334
v 16.573334 -0.000000 13.426667
v 15.933333 0.352906 14.066667
v 13.426667 -0.000000 13.426667
v 15.933333 0.352906 15.933333
v 16.573334 0.150978 16.573334
v 16.573334 0.150977 13.426667
v 16.040001 0.150977 16.040001
v 16.040001 0.150977 13.960000
v 13.960000 0.150977 16.040001
v 13.960000 0.150977 13.960000
v 13.426667 0.150978 16.573334
v 13.426667 0.150977 13.426667
v 12.000000 -0.000001 12.000000
v 4.573333 -0.000000 19.426666
v 2.066667 0.352906 20.066666
v 2.066667 0.352906 21.933334
v 1.426667 -0.000000 19.426666
v 4.573333 -0.000000 22.573334
v 3.933333 0.352906 21.933334
v 1.426667 -0.000000 22.573334
v 3.933333 0.352906 20.066666
v 4.573333 0.150978 19.426666
v 4.573333 0.150977 22.573334
v 4.040000 0.150977 19.959999
v 4.040000 0.150977 22.040001
v 1.960000 0.150977 19.959999
v 1.960000 0.150977 22.040001
v 1.426667 0.150978 19.426666
v 1.426667 0.150977 22.573334
v 6.000000 0.000000 18.000000
v 0.000000 0.000000 18.000000
v 6.000000 -0.000001 24.000000
v 0.000000 -0.000001 24.000000
v 7.426667 -0.000000 19.426666
v 9.933333 0.352906 20.066666
v 9.933333 0.352906 21.933334
v 10.573333 -0.000000 19.426666
v 7.426667 -0.000000 22.573334
v 8.066667 0.352906 21.933334
v 10.573333 -0.000000 22.573334
v 8.066667 0.352906 20.066666
v 7.426667 0.150978 19.426666
v 7.426667 0.150977 22.573334
v 7.960000 0.150977 19.959999
v 7.960000 0.150977 22.040001
v 10.040000 0.150977 19.959999
v 10.040000 0.150977 22.040001
v 10.573333 0.150978 19.426666
v 10.573333 0.150977 22.573334
v 4.573333 -0.000000 16.573334
v 2.066667 0.352906 15.933333
v 2.066667 0.352906 14.066667
v 1.426667 -0.000000 16.573334
v 4.573333 -0.000000 13.426667
v 3.933333 0.352906 14.066667
v 1.426667 -0.000000 13.426667
v 3.933333 0.352906 15.933333
v 4.573333 0.150978 16.573334
v 4.573333 0.150977 13.426667
v 4.040000 0.150977 16.040001
v 4.040000 0.150977 13.960000
v 1.960000 0.150977 16.040001
v 1.960000 0.150977 13.960000
v 1.426667 0.150978 16.573334
v 1.426667 0.150977 13.426667
v 6.000000 -0.000001 12.000000
v 0.000000 -0.000001 12.000000
v 7.426667 -0.000000 16.573334
v 9.933333 0.352906 15.933333
v 9.933333 0.352906 14.066667
v 10.573333 -0.000000 16.573334
v 7.426667 -0.000000 13.426667
v 8.066667 0.352906 14.066667
v 10.573333 -0.000000 13.426667
v 8.066667 0.352906 15.933333
v 7.426667 0.150978 16.573334
v 7.426667 0.150977 13.426667
v 7.960000 0.150977 16.040001
v 7.960000 0.150977 13.960000
v 10.040000 0.150977 16.040001
v 10.040000 0.150977 13.960000
v 10.573333 0.150978 16.573334
v 10.573333 0.150977 13.426667
v 19.426666 -0.000000 4.573333
v 21.933334 0.352906 3.933333
v 21.933334 0.352906 2.066667
v 22.573334 -0.000000 4.573333
v 19.426666 -0.000000 1.426667
v 20.066666 0.352906 2.066667
v 22.573334 -0.000000 1.426667
v 20.066666 0.352906 3.933333
v 19.426666 0.150978 4.573333
v 19.426666 0.150977 1.426667
v 19.959999 0.150977 4.040000
v 19.959999 0.150977 1.960000
v 22.040001 0.150977 4.040000
v 22.040001 0.150977 1.960000
v 22.573334 0.150978 4.573333
v 22.573334 0.150977 1.426667
v 18.000000 0.000000 6.000000
v 24.000000 0.000000 6.000000
v 18.000000 -0.000001 0.000000
v 24.000000 -0.000001 0.000000
v 16.573334 -0.000000 4.573333
v 14.066667 0.352906 3.933333
v 14.066667 0.352906 2.066667
v 13.426667 -0.000000 4.573333
v 16.573334 -0.000000 1.426667
v 15.933333 0.352906 2.066667
v 13.426667 -0.000000 1.426667
v 15.933333 0.352906 3.933333
v 16.573334 0.150978 4.573333
v 16.573334 0.150977 1.426667
v 16.040001 0.150977 4.040000
v 16.040001 0.150977 1.960000
v 13.960000 0.150977 4.040000
v 13.960000 0.150977 1.960000
v 13.426667 0.150978 4.573333
v 13.426667 0.150977 1.426667
v 12.000000 0.000000 6.000000
v 12.000000 -0.000001 0.000000
v 19.426666 -0.000000 7.426667
v 21.933334 0.352906 8.066667
v 21.933334 0.352906 9.933333
v 22.573334 -0.000000 7.426667
v 19.426666 -0.000000 10.573333
v 20.066666 0.352906 9.933333
v 22.573334 -0.000000 10.573333
v 20.066666 0.352906 8.066667
v 19.426666 0.150978 7.426667
v 19.426666 0.150977 10.573333
v 19.959999 0.150977 7.960000
v 19.959999 0.150977 10.040000
v 22.040001 0.150977 7.960000
v 22.040001 0.150977 10.040000
v 22.573334 0.150978 7.426667
v 22.573334 0.150977 10.573333
v 16.573334 -0.000000 7.426667
v 14.066667 0.352906 8.066667
v 14.066667 0.352906 9.933333
v 13.426667 -0.000000 7.426667
v 16.573334 -0.000000 10.573333
v 15.933333 0.352906 9.933333
v 13.426667 -0.000000 10.573333
v 15.933333 0.352906 8.066667
v 16.573334 0.150978 7.426667
v 16.573334 0.150977 10.573333
v 16.040001 0.150977 7.960000
v 16.040001 0.150977 10.040000
v 13.960000 0.150977 7.960000
v 13.960000 0.150977 10.040000
v 13.426667 0.150978 7.426667
v 13.426667 0.150977 10.573333
v 4.573333 -0.000000 4.573333
v 2.066667 0.352906 3.933333
v 2.066667 0.352906 2.066667
v 1.426667 -0.000000 4.573333
v 4.573333 -0.000000 1.426667
v 3.933333 0.352906 2.066667
v 1.426667 -0.000000 1.426667
v 3.933333 0.352906 3.933333
v 4.573333 0.150978 4.573333
v 4.573333 0.150977 1.426667
v 4.040000 0.150977 4.040000
v 4.040000 0.150977 1.960000
v 1.960000 0.150977 4.040000
v 1.960000 0.150977 1.960000
v 1.426667 0.150978 4.573333
v 1.426667 0.150977 1.426667
v 6.000000 0.000000 6.000000
v 0.000000 0.000000 6.000000
v 6.000000 -0.000001 0.000000
v 0.000000 -0.000001 0.000000
v 7.426667 -0.000000 4.573333
v 9.933333 0.352906 3.933333
v 9.933333 0.352906 2.066667
v 10.573333 -0.000000 4.573333
v 7.426667 -0.000000 1.426667
v 8.066667 0.352906 2.066667
v 10.573333 -0.000000 1.426667
v 8.066667 0.352906 3.933333
v 7.426667 0.150978 4.573333
v 7.426667 0.150977 1.426667
v 7.960000 0.150977 4.040000
v 7.960000 0.150977 1.960000
v 10.040000 0.150977 4.040000
v 10.040000 0.150977 1.960000
v 10.573333 0.150978 4.573333
v 10.573333 0.150977 1.426667
v 4.573333 -0.000000 7.426667
v 2.066667 0.352906 8.066667
v 2.066667 0.352906 9.933333
v 1.426667 -0.000000 7.426667
v 4.573333 -0.000000 10.573333
v 3.933333 0.352906 9.933333
v 1.426667 -0.000000 10.573333
v 3.933333 0.352906 8.066667
v 4.573333 0.150978 7.426667
v 4.573333 0.150977 10.573333
v 4.040000 0.150977 7.960000
v 4.040000 0.150977 10.040000
v 1.960000 0.150977 7.960000
v 1.960000 0.150977 10.040000
v 1.426667 0.150978 7.426667
v 1.426667 0.150977 10.573333
v 7.426667 -0.000000 7.426667
v 9.933333 0.352906 8.066667
v 9.933333 0.352906 9.933333
v 10.573333 -0.000000 7.426667
v 7.426667 -0.000000 10.573333
v 8.066667 0.352906 9.933333
v 10.573333 -0.000000 10.573333
v 8.066667 0.352906 8.066667
v 7.426667 0.150978 7.426667
v 7.426667 0.150977 10.573333
v 7.960000 0.150977 7.960000
v 7.960000 0.150977 10.040000
v 10.040000 0.150977 7.960000
v 10.040000 0.150977 10.040000
v 10.573333 0.150978 7.426667
v 10.573333 0.150977 10.573333
vn -0.0000 -1.0000 -0.0000
vn 0.8842 -0.4671 -0.0000
vn -0.0000 -0.4671 0.8842
vn -0.0000 -0.0000 -1.0000
vn -0.8842 -0.4671 -0.0000
vn -0.0000 -0.0000 1.0000
vn -0.0000 -0.4671 -0.8842
vn 1.0000 -0.0000 -0.0000
vn -1.0000 -0.0000 -0.0000
vt 0.919644 0.461018
vt 0.153226 0.153226
vt 0.979188 0.909527
vt 0.575513 0.975641
vt 0.636724 0.913101
vt 0.866641 0.737986
vt 0.636724 0.975641
vt 0.866641 0.800527
vt 0.529604 0.975641
vt 0.919644 0.566444
vt 0.047799 0.153226
vt 0.924702 0.566444
vt 0.909527 0.461018
vt 0.979188 0.804100
vt 0.153226 0.047799
vt 0.606118 0.913101
vt 0.804100 0.800527
vt 0.529604 0.913101
vt 0.909527 0.566444
vt 0.047799 0.047799
vt 0.924702 0.461018
vt 0.606118 0.975641
vt 0.575513 0.913101
vt 0.804100 0.737986
vt 0.914585 0.461018
vt 0.105426 0.804100
vt 0.974130 0.909527
vt 0.914585 0.461018
vt 0.000000 0.804100
vt 0.974130 0.804100
vt 0.613770 0.979216
vt 0.583164 0.909527
vt 0.087558 0.821968
vt 0.613770 0.909527
vt 0.017869 0.821968
vt 0.521953 0.909527
vt 0.583164 0.979216
vt 0.644375 0.909527
vt 0.087558 0.891657
vt 0.644375 0.979216
vt 0.017869 0.891657
vt 0.521953 0.979216
vt 0.914585 0.566444
vt 0.105426 0.909527
vt 0.929760 0.566444
vt 0.914585 0.566444
vt 0.000000 0.909527
vt 0.929760 0.461018
vt 0.201025 0.201025
vt 0.000000 0.201025
vt 0.201025 0.000000
vt 0.000000 0.000000
vt 0.972068 0.210854
vt 0.248824 0.153226
vt 0.982185 0.210854
vt 0.852756 0.975642
vt 0.613770 0.975641
vt 0.909527 0.000000
vt 0.613770 0.913101
vt 0.909527 0.062542
vt 0.806848 0.913100
vt 0.972068 0.316280
vt 0.354251 0.153226
vt 0.992301 0.210854
vt 0.977126 0.000000
vt 0.982185 0.105427
vt 0.248824 0.047799
vt 0.453091 0.913101
vt 0.972068 0.062542
vt 0.806848 0.975641
vt 0.977126 0.105427
vt 0.354251 0.047799
vt 0.992301 0.105427
vt 0.453091 0.975641
vt 0.852756 0.913101
vt 0.972068 0.000000
vt 0.977126 0.210854
vt 0.316279 0.804100
vt 0.987243 0.210854
vt 0.972068 0.000000
vt 0.316279 0.909527
vt 0.987243 0.105427
vt 0.445439 0.979216
vt 0.845105 0.909527
vt 0.298410 0.821968
vt 0.445439 0.909527
vt 0.298410 0.891657
vt 0.799196 0.979216
vt 0.845105 0.979216
vt 0.621421 0.979216
vt 0.228722 0.821968
vt 0.621421 0.909527
vt 0.228722 0.891657
vt 0.799196 0.909527
vt 0.977126 0.316280
vt 0.210853 0.804100
vt 0.987243 0.210854
vt 0.972068 0.105427
vt 0.210853 0.909527
vt 0.987243 0.105427
vt 0.402050 0.201025
vt 0.402050 0.000000
vt 1.000000 0.737986
vt 0.153226 0.248824
vt 0.964013 0.909527
vt 0.445439 0.975641
vt 0.776242 0.913101
vt 0.187623 0.909527
vt 0.776242 0.975641
vt 0.125082 0.909527
vt 0.544907 0.975641
vt 1.000000 0.632559
vt 0.047799 0.248825
vt 0.969650 0.737986
vt 0.934241 0.737986
vt 0.964013 0.804100
vt 0.153226 0.354251
vt 0.737985 0.975641
vt 0.125082 0.972069
vt 0.544907 0.913101
vt 0.934241 0.632559
vt 0.047799 0.354251
vt 0.969650 0.632559
vt 0.737985 0.913101
vt 0.445439 0.913101
vt 0.187623 0.972069
vt 0.994942 0.737986
vt 0.909527 0.316280
vt 0.969072 0.909527
vt 0.939299 0.737986
vt 0.804100 0.316280
vt 0.969072 0.804100
vt 0.745637 0.909527
vt 0.437788 0.909527
vt 0.891658 0.298410
vt 0.745637 0.979216
vt 0.821969 0.298410
vt 0.552559 0.909527
vt 0.437788 0.979216
vt 0.768591 0.909527
vt 0.891658 0.228722
vt 0.768591 0.979216
vt 0.821969 0.228722
vt 0.552559 0.979216
vt 0.994942 0.632559
vt 0.909527 0.210854
vt 0.964591 0.737986
vt 0.939299 0.632559
vt 0.804100 0.210854
vt 0.964591 0.632559
vt 0.201025 0.402050
vt 0.000000 0.402050
vt 0.965169 0.461018
vt 0.248824 0.248825
vt 0.964591 0.737986
vt 0.491348 0.913100
vt 0.720889 0.913101
vt 0.909527 0.148312
vt 0.720889 0.975641
vt 0.972068 0.148312
vt 0.806848 0.913100
vt 0.965169 0.566444
vt 0.354251 0.248825
vt 0.969072 0.909527
vt 0.924702 0.671871
vt 0.964591 0.632559
vt 0.248824 0.354251
vt 0.476045 0.975641
vt 0.972068 0.210853
vt 0.806848 0.975641
vt 0.924702 0.566444
vt 0.354251 0.354251
vt 0.969072 0.804100
vt 0.476045 0.913101
vt 0.491348 0.975641
vt 0.909527 0.210853
vt 0.960111 0.461018
vt 0.804100 0.210854
vt 0.959533 0.737986
vt 0.919644 0.671871
vt 0.909527 0.210854
vt 0.959533 0.632559
vt 0.468393 0.909527
vt 0.483696 0.979216
vt 0.821969 0.192985
vt 0.468393 0.979216
vt 0.891658 0.192985
vt 0.814499 0.979216
vt 0.483696 0.909527
vt 0.728540 0.909527
vt 0.821969 0.123296
vt 0.728540 0.979216
vt 0.891658 0.123296
vt 0.814499 0.909527
vt 0.960111 0.566444
vt 0.804100 0.105427
vt 0.974130 0.909527
vt 0.919644 0.566444
vt 0.909527 0.105427
vt 0.974130 0.804100
vt 0.402050 0.402050
vt 0.985403 0.461018
vt 0.650874 0.153226
vt 0.982185 0.316280
vt 0.822150 0.913100
vt 0.590815 0.975641
vt 0.000000 0.909527
vt 0.590815 0.913101
vt 0.000000 0.972069
vt 0.690283 0.913100
vt 0.985403 0.566444
vt 0.756301 0.153226
vt 0.954475 0.737986
vt 0.992301 0.316279
vt 0.982185 0.210854
vt 0.650874 0.047799
vt 0.514302 0.913101
vt 0.062541 0.972069
vt 0.690283 0.975641
vt 0.992301 0.421706
vt 0.756301 0.047799
vt 0.954475 0.632559
vt 0.514302 0.975641
vt 0.822150 0.975641
vt 0.062541 0.909527
vt 0.990461 0.461018
vt 0.804100 0.105427
vt 0.987243 0.316280
vt 0.987243 0.316279
vt 0.804100 0.000000
vt 0.987243 0.210854
vt 0.506650 0.979216
vt 0.829802 0.979215
vt 0.821969 0.087557
vt 0.506650 0.909527
vt 0.821969 0.017868
vt 0.682632 0.979215
vt 0.829802 0.909527
vt 0.598467 0.979216
vt 0.891658 0.087557
vt 0.598467 0.909527
vt 0.891658 0.017870
vt 0.682632 0.909527
vt 0.990461 0.566444
vt 0.909527 0.105427
vt 0.949416 0.737986
vt 0.987243 0.421706
vt 0.909527 0.000000
vt 0.949416 0.632559
vt 0.603075 0.201025
vt 0.804100 0.201025
vt 0.603075 0.000000
vt 0.804100 0.000000
vt 0.972068 0.421706
vt 0.555276 0.153226
vt 0.984825 0.737986
vt 0.674981 0.975641
vt 0.629072 0.913101
vt 0.250165 0.909527
vt 0.629072 0.975641
vt 0.250165 0.972069
vt 0.753288 0.975641
vt 0.972068 0.316279
vt 0.449849 0.153226
vt 0.944936 0.566444
vt 0.939299 0.632559
vt 0.984825 0.632559
vt 0.555276 0.047799
vt 0.476045 0.913101
vt 0.187623 0.972069
vt 0.753288 0.913101
vt 0.939299 0.737985
vt 0.449849 0.047799
vt 0.944936 0.461018
vt 0.476045 0.975641
vt 0.674981 0.913101
vt 0.187623 0.909527
vt 0.977126 0.421706
vt 0.421706 0.804100
vt 0.979766 0.737986
vt 0.944358 0.632559
vt 0.421706 0.909527
vt 0.979766 0.632559
vt 0.483696 0.979216
vt 0.682632 0.909527
vt 0.439575 0.821968
vt 0.483696 0.909527
vt 0.439575 0.891657
vt 0.745637 0.909527
vt 0.682632 0.979216
vt 0.636724 0.909527
vt 0.509264 0.821968
vt 0.636724 0.979216
vt 0.509264 0.891657
vt 0.745637 0.979216
vt 0.977126 0.316279
vt 0.527132 0.804100
vt 0.949994 0.566444
vt 0.944358 0.737985
vt 0.527132 0.909527
vt 0.949994 0.461018
vt 0.992301 0.000000
vt 0.650874 0.248825
vt 0.960111 0.566444
vt 0.460742 0.913101
vt 0.783894 0.913101
vt 0.972068 0.335936
vt 0.783894 0.975641
vt 0.909527 0.335936
vt 0.659678 0.975642
vt 0.992301 0.105426
vt 0.756301 0.248825
vt 0.970227 0.566444
vt 0.987243 0.210853
vt 0.960111 0.461018
vt 0.650874 0.354251
vt 0.567861 0.975642
vt 0.909527 0.273394
vt 0.659678 0.913101
vt 0.987243 0.316279
vt 0.756301 0.354251
vt 0.970227 0.461018
vt 0.567861 0.913101
vt 0.460742 0.975642
vt 0.972068 0.273394
vt 0.987243 0.000000
vt 0.804100 0.527132
vt 0.955052 0.566444
vt 0.992301 0.210853
vt 0.804100 0.632559
vt 0.955052 0.461018
vt 0.560210 0.909527
vt 0.453091 0.979216
vt 0.821969 0.545000
vt 0.560210 0.979216
vt 0.821969 0.614689
vt 0.652027 0.909527
vt 0.453091 0.909527
vt 0.791545 0.909527
vt 0.891658 0.545000
vt 0.791545 0.979216
vt 0.891658 0.614689
vt 0.652027 0.979216
vt 0.987243 0.105426
vt 0.909527 0.527132
vt 0.975286 0.566444
vt 0.992301 0.316279
vt 0.909527 0.632559
vt 0.975286 0.461018
vt 0.603075 0.402050
vt 0.804100 0.402050
vt 0.997360 0.105427
vt 0.555276 0.248825
vt 0.965169 0.566444
vt 0.498999 0.975641
vt 0.736192 0.913101
vt 0.375247 0.909527
vt 0.736192 0.975641
vt 0.375247 0.972068
vt 0.891013 0.913100
vt 0.997360 0.000000
vt 0.449849 0.248825
vt 0.964013 0.909527
vt 0.977126 0.421706
vt 0.965169 0.461018
vt 0.555276 0.354251
vt 0.629072 0.913100
vt 0.437788 0.972068
vt 0.891013 0.975641
vt 0.977126 0.316279
vt 0.449849 0.354251
vt 0.964013 0.804100
vt 0.629072 0.975641
vt 0.498999 0.913101
vt 0.437788 0.909527
vt 0.992301 0.105427
vt 0.909527 0.316280
vt 0.970227 0.566444
vt 0.982185 0.421706
vt 0.909527 0.421707
vt 0.970227 0.461018
vt 0.621421 0.979216
vt 0.491348 0.909527
vt 0.891658 0.334148
vt 0.621421 0.909527
vt 0.891658 0.403837
vt 0.883362 0.979216
vt 0.491348 0.979216
vt 0.728540 0.909527
vt 0.821969 0.334148
vt 0.728540 0.979216
vt 0.821969 0.403837
vt 0.883362 0.909527
vt 0.992301 0.000000
vt 0.804100 0.316280
vt 0.958955 0.909527
vt 0.982185 0.316279
vt 0.804100 0.421707
vt 0.958955 0.804100
vt 0.997360 0.210854
vt 0.153226 0.650875
vt 0.953896 0.804100
vt 0.575513 0.975641
vt 0.875710 0.913101
vt 0.125082 0.909527
vt 0.875710 0.975642
vt 0.062541 0.909527
vt 0.537256 0.975641
vt 0.997360 0.105427
vt 0.047799 0.650875
vt 0.997360 0.421706
vt 0.934819 0.566444
vt 0.953896 0.909526
vt 0.153226 0.756301
vt 0.697935 0.975642
vt 0.062541 0.972069
vt 0.537256 0.913101
vt 0.934819 0.461018
vt 0.047799 0.756301
vt 0.997360 0.316279
vt 0.697935 0.913101
vt 0.575513 0.913101
vt 0.125082 0.972069
vt 0.992301 0.210854
vt 0.804100 0.421705
vt 0.948838 0.804100
vt 0.939877 0.566444
vt 0.909527 0.421705
vt 0.948838 0.909526
vt 0.705586 0.909527
vt 0.567861 0.909527
vt 0.821969 0.439573
vt 0.705586 0.979216
vt 0.891658 0.439573
vt 0.544907 0.909527
vt 0.567861 0.979216
vt 0.868059 0.909527
vt 0.821969 0.509262
vt 0.868059 0.979216
vt 0.891658 0.509262
vt 0.544907 0.979216
vt 0.992301 0.105427
vt 0.804100 0.527132
vt 0.992301 0.421706
vt 0.939877 0.461018
vt 0.909527 0.527132
vt 0.992301 0.316279
vt 0.201025 0.603075
vt 0.000000 0.603075
vt 0.201025 0.804100
vt 0.000000 0.804100
vt 0.934241 0.632559
vt 0.248824 0.650875
vt 0.944358 0.632559
vt 0.860407 0.913100
vt 0.713238 0.913101
vt 0.312706 0.909527
vt 0.713238 0.975642
vt 0.312706 0.972068
vt 0.791545 0.913100
vt 0.934241 0.737986
vt 0.354251 0.650875
vt 0.959533 0.632559
vt 0.924702 0.566444
vt 0.944358 0.737985
vt 0.248824 0.756301
vt 0.468393 0.975642
vt 0.250165 0.972068
vt 0.791545 0.975641
vt 0.924702 0.461018
vt 0.354251 0.756301
vt 0.959533 0.737985
vt 0.468393 0.913101
vt 0.860407 0.975641
vt 0.250165 0.909527
vt 0.929183 0.632559
vt 0.105427 0.909527
vt 0.949416 0.632559
vt 0.919644 0.566444
vt 0.210853 0.909527
vt 0.949416 0.737985
vt 0.460742 0.909527
vt 0.852756 0.979216
vt 0.123296 0.891658
vt 0.460742 0.979216
vt 0.192984 0.891658
vt 0.799196 0.979216
vt 0.852756 0.909527
vt 0.720889 0.909527
vt 0.123296 0.821969
vt 0.720889 0.979216
vt 0.192984 0.821969
vt 0.799196 0.909527
vt 0.929183 0.737986
vt 0.105427 0.804100
vt 0.954474 0.632559
vt 0.919644 0.461018
vt 0.210853 0.804100
vt 0.954474 0.737985
vt 0.402050 0.603075
vt 0.402050 0.804101
vt 0.919644 0.566444
vt 0.153226 0.555276
vt 0.995519 0.566444
vt 0.583164 0.975641
vt 0.921618 0.975641
vt 0.929184 0.800527
vt 0.921618 0.913100
vt 0.866642 0.800527
vt 0.521953 0.975641
vt 0.919644 0.671871
vt 0.047799 0.555276
vt 0.994942 0.632559
vt 0.909527 0.566444
vt 0.995519 0.461018
vt 0.153226 0.449850
vt 0.898664 0.913100
vt 0.866642 0.737986
vt 0.521953 0.913101
vt 0.909527 0.671871
vt 0.047799 0.449850
vt 0.994942 0.737985
vt 0.898664 0.975641
vt 0.583164 0.913101
vt 0.929184 0.737986
vt 0.914585 0.566444
vt 0.316279 0.909527
vt 0.990461 0.566444
vt 0.914585 0.566444
vt 0.421706 0.909527
vt 0.990461 0.461018
vt 0.906316 0.979216
vt 0.590815 0.909527
vt 0.334148 0.891657
vt 0.906316 0.909527
vt 0.403837 0.891657
vt 0.514302 0.909527
vt 0.590815 0.979216
vt 0.913967 0.979216
vt 0.334148 0.821968
vt 0.913967 0.909527
vt 0.403837 0.821968
vt 0.514302 0.979216
vt 0.914585 0.671871
vt 0.316279 0.804100
vt 0.989883 0.632559
vt 0.914585 0.671871
vt 0.421706 0.804100
vt 0.989883 0.737985
vt 0.972068 0.105427
vt 0.248824 0.555276
vt 0.982185 0.000000
vt 0.837453 0.975642
vt 0.891013 0.975641
vt 0.909527 0.273395
vt 0.891013 0.913100
vt 0.972068 0.273395
vt 0.822150 0.913100
vt 0.972068 0.210854
vt 0.354251 0.555276
vt 0.979766 0.737986
vt 0.974708 0.632559
vt 0.982185 0.105426
vt 0.248824 0.449850
vt 0.506650 0.913100
vt 0.972068 0.210854
vt 0.822150 0.975641
vt 0.974708 0.737986
vt 0.354251 0.449850
vt 0.979766 0.632559
vt 0.506650 0.975641
vt 0.837453 0.913101
vt 0.909527 0.210854
vt 0.977126 0.105427
vt 0.527132 0.804100
vt 0.977126 0.000000
vt 0.969650 0.632559
vt 0.632559 0.804100
vt 0.977126 0.105426
vt 0.498999 0.979216
vt 0.829802 0.909527
vt 0.545000 0.821969
vt 0.498999 0.909527
vt 0.614689 0.821969
vt 0.814499 0.979216
vt 0.829802 0.979216
vt 0.898664 0.979216
vt 0.545000 0.891658
vt 0.898664 0.909527
vt 0.614689 0.891658
vt 0.814499 0.909527
vt 0.977126 0.210854
vt 0.527132 0.909526
vt 0.974708 0.737986
vt 0.969650 0.737986
vt 0.632559 0.909526
vt 0.974708 0.632559
vt 0.987243 0.316279
vt 0.650874 0.650875
vt 0.999422 0.909527
vt 0.760939 0.913100
vt 0.705586 0.913101
vt 0.972068 0.398477
vt 0.705586 0.975642
vt 0.909527 0.398477
vt 0.652027 0.975642
vt 0.987243 0.421706
vt 0.756301 0.650875
vt 0.958955 0.804100
vt 0.984247 0.804100
vt 0.999422 0.804100
vt 0.650874 0.756301
vt 0.560210 0.975642
vt 0.909527 0.335935
vt 0.652027 0.913101
vt 0.984247 0.909526
vt 0.756301 0.756301
vt 0.958955 0.909526
vt 0.560210 0.913101
vt 0.760939 0.975641
vt 0.972068 0.335935
vt 0.982185 0.316279
vt 0.909527 0.632559
vt 0.994364 0.909527
vt 0.989305 0.804100
vt 0.804100 0.632559
vt 0.994364 0.804100
vt 0.552559 0.909527
vt 0.753288 0.979215
vt 0.891658 0.650428
vt 0.552559 0.979216
vt 0.821969 0.650428
vt 0.644375 0.909527
vt 0.753288 0.909527
vt 0.713238 0.909527
vt 0.891658 0.720117
vt 0.713238 0.979216
vt 0.821969 0.720117
vt 0.644375 0.979216
vt 0.982185 0.421706
vt 0.909527 0.737986
vt 0.953896 0.804100
vt 0.989305 0.909526
vt 0.804100 0.737986
vt 0.953896 0.909526
vt 0.603075 0.603075
vt 0.804100 0.603075
vt 0.603075 0.804101
vt 0.804100 0.804101
vt 0.985403 0.566444
vt 0.555276 0.650875
vt 0.934819 0.461018
vt 0.768591 0.975641
vt 0.868059 0.913101
vt 0.909527 0.398477
vt 0.868059 0.975642
vt 0.909527 0.461018
vt 0.883362 0.913100
vt 0.985403 0.461018
vt 0.449849 0.650875
vt 0.987243 0.105426
vt 0.979188 0.909527
vt 0.934819 0.566444
vt 0.555276 0.756301
vt 0.529604 0.975642
vt 0.972068 0.461018
vt 0.883362 0.975641
vt 0.979188 0.804100
vt 0.449849 0.756301
vt 0.987243 0.000000
vt 0.529604 0.913101
vt 0.768591 0.913101
vt 0.972068 0.398477
vt 0.980344 0.566444
vt 0.843412 0.804100
vt 0.929760 0.461018
vt 0.984247 0.909527
vt 0.843412 0.909527
vt 0.929760 0.566444
vt 0.537256 0.909527
vt 0.760939 0.909527
vt 0.825543 0.821969
vt 0.537256 0.979216
vt 0.825543 0.891658
vt 0.875710 0.979216
vt 0.760939 0.979216
vt 0.860407 0.909527
vt 0.755854 0.821969
vt 0.860407 0.979216
vt 0.755854 0.891658
vt 0.875710 0.909527
vt 0.980344 0.461018
vt 0.737985 0.804100
vt 0.982185 0.105426
vt 0.984247 0.804100
vt 0.737985 0.909527
vt 0.982185 0.000000
vt 0.984825 0.632559
vt 0.650874 0.555276
vt 0.982185 0.210853
vt 0.837453 0.913100
vt 0.906316 0.975641
vt 0.312706 0.972068
vt 0.906316 0.913100
vt 0.375247 0.972068
vt 0.697935 0.913100
vt 0.984825 0.737985
vt 0.756301 0.555276
vt 0.982185 0.210854
vt 0.949994 0.566444
vt 0.982185 0.316279
vt 0.650874 0.449850
vt 0.606118 0.913100
vt 0.375247 0.909527
vt 0.697935 0.975641
vt 0.949994 0.461018
vt 0.756301 0.449850
vt 0.982185 0.105427
vt 0.606118 0.975641
vt 0.837453 0.975641
vt 0.312706 0.909527
vt 0.989883 0.632559
vt 0.843411 0.804100
vt 0.977126 0.210853
vt 0.955052 0.566444
vt 0.948838 0.804100
vt 0.977126 0.316279
vt 0.598467 0.979216
vt 0.845105 0.979215
vt 0.861280 0.821969
vt 0.598467 0.909527
vt 0.930969 0.821969
vt 0.690283 0.979215
vt 0.845105 0.909527
vt 0.913967 0.979216
vt 0.861280 0.891658
vt 0.913967 0.909527
vt 0.930969 0.891658
vt 0.690283 0.909527
vt 0.989883 0.737985
vt 0.843411 0.909527
vt 0.977126 0.210854
vt 0.955052 0.461018
vt 0.948838 0.909527
vt 0.977126 0.105427
vt 0.975286 0.566444
vt 0.555276 0.555276
vt 0.994364 0.909527
vt 0.667329 0.975641
vt 0.929270 0.975641
vt 0.972068 0.085771
vt 0.929270 0.913100
vt 0.972068 0.148312
vt 0.783893 0.975641
vt 0.975286 0.461018
vt 0.449849 0.555276
vt 0.997360 0.210853
vt 0.939877 0.461018
vt 0.994364 0.804100
vt 0.555276 0.449850
vt 0.667329 0.975642
vt 0.909527 0.148312
vt 0.783893 0.913101
vt 0.939877 0.566444
vt 0.449849 0.449850
vt 0.997360 0.316279
vt 0.667329 0.913101
vt 0.909527 0.085771
vt 0.980344 0.566444
vt 0.737986 0.909527
vt 0.989305 0.909527
vt 0.944936 0.461018
vt 0.737986 0.804100
vt 0.989305 0.804100
vt 0.659678 0.909527
vt 0.674981 0.909527
vt 0.720117 0.891658
vt 0.659678 0.979215
vt 0.720117 0.821969
vt 0.776242 0.909527
vt 0.674981 0.979216
vt 0.921618 0.979216
vt 0.650428 0.891658
vt 0.921618 0.909527
vt 0.650428 0.821969
vt 0.776242 0.979216
vt 0.980344 0.461018
vt 0.632559 0.909527
vt 0.992301 0.210853
vt 0.944936 0.566444
vt 0.632559 0.804100
vt 0.992301 0.316279
s 0
f 17/49/1 18/50/1 4/11/1 1/2/1
f 8/22/2 6/16/2 12/34/2 11/31/2
f 2/4/3 8/23/3 11/32/3 13/37/3
f 7/19/4 5/13/4 10/28/4 16/46/4
f 2/5/5 13/38/5 14/40/5 3/7/5
f 1/1/6 4/10/6 15/43/6 9/25/6
f 8/24/1 2/6/1 3/8/1 6/17/1
f 9/26/1 15/44/1 13/39/1 11/33/1
f 11/33/1 12/35/1 10/29/1 9/26/1
f 12/35/1 14/41/1 16/47/1 10/29/1
f 15/44/1 16/47/1 14/41/1 13/39/1
f 17/49/1 1/2/1 5/15/1 19/51/1
f 6/18/7 3/9/7 14/42/7 12/36/7
f 5/14/8 1/3/8 9/27/8 10/30/8
f 20/52/1 7/20/1 4/11/1 18/50/1
f 20/52/1 19/51/1 5/15/1 7/20/1
f 16/48/9 15/45/9 4/12/9 7/21/9
f 17/49/1 21/54/1 24/63/1 37/101/1
f 28/74/5 31/83/5 32/86/5 26/68/5
f 22/56/3 33/89/3 31/84/3 28/75/3
f 27/71/4 36/98/4 30/80/4 25/65/4
f 22/57/2 23/59/2 34/92/2 33/90/2
f 21/53/6 29/77/6 35/95/6 24/62/6
f 28/76/1 26/69/1 23/60/1 22/58/1
f 29/78/1 31/85/1 33/91/1 35/96/1
f 31/85/1 29/78/1 30/81/1 32/87/1
f 32/87/1 30/81/1 36/99/1 34/93/1
f 35/96/1 33/91/1 34/93/1 36/99/1
f 17/49/1 19/51/1 25/67/1 21/54/1
f 26/70/7 32/88/7 34/94/7 23/61/7
f 25/66/9 30/82/9 29/79/9 21/55/9
f 38/102/1 37/101/1 24/63/1 27/72/1
f 38/102/1 27/72/1 25/67/1 19/51/1
f 36/100/8 27/73/8 24/64/8 35/97/8
f 17/49/1 39/104/1 42/113/1 18/50/1
f 46/124/2 49/133/2 50/136/2 44/118/2
f 40/106/7 51/139/7 49/134/7 46/125/7
f 45/121/6 54/148/6 48/130/6 43/115/6
f 40/107/5 41/109/5 52/142/5 51/140/5
f 39/103/4 47/127/4 53/145/4 42/112/4
f 46/126/1 44/119/1 41/110/1 40/108/1
f 47/128/1 49/135/1 51/141/1 53/146/1
f 49/135/1 47/128/1 48/131/1 50/137/1
f 50/137/1 48/131/1 54/149/1 52/143/1
f 53/146/1 51/141/1 52/143/1 54/149/1
f 17/49/1 55/151/1 43/117/1 39/104/1
f 44/120/3 50/138/3 52/144/3 41/111/3
f 43/116/8 48/132/8 47/129/8 39/105/8
f 56/152/1 18/50/1 42/113/1 45/122/1
f 56/152/1 45/122/1 43/117/1 55/151/1
f 54/150/9 45/123/9 42/114/9 53/147/9
f 17/49/1 37/101/1 60/163/1 57/154/1
f 64/174/5 62/168/5 68/186/5 67/183/5
f 58/156/7 64/175/7 67/184/7 69/189/7
f 63/171/6 61/165/6 66/180/6 72/198/6
f 58/157/2 69/190/2 70/192/2 59/159/2
f 57/153/4 60/162/4 71/195/4 65/177/4
f 64/176/1 58/158/1 59/160/1 62/169/1
f 65/178/1 71/196/1 69/191/1 67/185/1
f 67/185/1 68/187/1 66/181/1 65/178/1
f 68/187/1 70/193/1 72/199/1 66/181/1
f 71/196/1 72/199/1 70/193/1 69/191/1
f 17/49/1 57/154/1 61/167/1 55/151/1
f 62/170/3 59/161/3 70/194/3 68/188/3
f 61/166/9 57/155/9 65/179/9 66/182/9
f 73/201/1 63/172/1 60/163/1 37/101/1
f 73/201/1 55/151/1 61/167/1 63/172/1
f 72/200/8 71/197/8 60/164/8 63/173/8
f 90/250/1 74/203/1 77/212/1 91/251/1
f 81/223/5 84/232/5 85/235/5 79/217/5
f 75/205/3 86/238/3 84/233/3 81/224/3
f 80/220/4 89/247/4 83/229/4 78/214/4
f 75/206/2 76/208/2 87/241/2 86/239/2
f 74/202/6 82/226/6 88/244/6 77/211/6
f 81/225/1 79/218/1 76/209/1 75/207/1
f 82/227/1 84/234/1 86/240/1 88/245/1
f 84/234/1 82/227/1 83/230/1 85/236/1
f 85/236/1 83/230/1 89/248/1 87/242/1
f 88/245/1 86/240/1 87/242/1 89/248/1
f 90/250/1 92/252/1 78/216/1 74/203/1
f 79/219/7 85/237/7 87/243/7 76/210/7
f 78/215/9 83/231/9 82/228/9 74/204/9
f 93/253/1 91/251/1 77/212/1 80/221/1
f 93/253/1 80/221/1 78/216/1 92/252/1
f 89/249/8 80/222/8 77/213/8 88/246/8
f 90/250/1 37/101/1 97/264/1 94/255/1
f 101/275/2 99/269/2 105/287/2 104/284/2
f 95/257/3 101/276/3 104/285/3 106/290/3
f 100/272/4 98/266/4 103/281/4 109/299/4
f 95/258/5 106/291/5 107/293/5 96/260/5
f 94/254/6 97/263/6 108/296/6 102/278/6
f 101/277/1 95/259/1 96/261/1 99/270/1
f 102/279/1 108/297/1 106/292/1 104/286/1
f 104/286/1 105/288/1 103/282/1 102/279/1
f 105/288/1 107/294/1 109/300/1 103/282/1
f 108/297/1 109/300/1 107/294/1 106/292/1
f 90/250/1 94/255/1 98/268/1 92/252/1
f 99/271/7 96/262/7 107/295/7 105/289/7
f 98/267/8 94/256/8 102/280/8 103/283/8
f 38/102/1 100/273/1 97/264/1 37/101/1
f 38/102/1 92/252/1 98/268/1 100/273/1
f 109/301/9 108/298/9 97/265/9 100/274/9
f 90/250/1 91/251/1 113/312/1 110/303/1
f 117/323/5 115/317/5 121/335/5 120/332/5
f 111/305/7 117/324/7 120/333/7 122/338/7
f 116/320/6 114/314/6 119/329/6 125/347/6
f 111/306/2 122/339/2 123/341/2 112/308/2
f 110/302/4 113/311/4 124/344/4 118/326/4
f 117/325/1 111/307/1 112/309/1 115/318/1
f 118/327/1 124/345/1 122/340/1 120/334/1
f 120/334/1 121/336/1 119/330/1 118/327/1
f 121/336/1 123/342/1 125/348/1 119/330/1
f 124/345/1 125/348/1 123/342/1 122/340/1
f 90/250/1 110/303/1 114/316/1 126/350/1
f 115/319/3 112/310/3 123/343/3 121/337/3
f 114/315/9 110/304/9 118/328/9 119/331/9
f 127/351/1 116/321/1 113/312/1 91/251/1
f 127/351/1 126/350/1 114/316/1 116/321/1
f 125/349/8 124/346/8 113/313/8 116/322/8
f 90/250/1 128/353/1 131/362/1 37/101/1
f 135/373/2 138/382/2 139/385/2 133/367/2
f 129/355/7 140/388/7 138/383/7 135/374/7
f 134/370/6 143/397/6 137/379/6 132/364/6
f 129/356/5 130/358/5 141/391/5 140/389/5
f 128/352/4 136/376/4 142/394/4 131/361/4
f 135/375/1 133/368/1 130/359/1 129/357/1
f 136/377/1 138/384/1 140/390/1 142/395/1
f 138/384/1 136/377/1 137/380/1 139/386/1
f 139/386/1 137/380/1 143/398/1 141/392/1
f 142/395/1 140/390/1 141/392/1 143/398/1
f 90/250/1 126/350/1 132/366/1 128/353/1
f 133/369/3 139/387/3 141/393/3 130/360/3
f 132/365/8 137/381/8 136/378/8 128/354/8
f 73/201/1 37/101/1 131/362/1 134/371/1
f 73/201/1 134/371/1 132/366/1 126/350/1
f 143/399/9 134/372/9 131/363/9 142/396/9
f 160/448/1 144/401/1 147/410/1 161/449/1
f 151/421/2 154/430/2 155/433/2 149/415/2
f 145/403/7 156/436/7 154/431/7 151/422/7
f 150/418/6 159/445/6 153/427/6 148/412/6
f 145/404/5 146/406/5 157/439/5 156/437/5
f 144/400/4 152/424/4 158/442/4 147/409/4
f 151/423/1 149/416/1 146/407/1 145/405/1
f 152/425/1 154/432/1 156/438/1 158/443/1
f 154/432/1 152/425/1 153/428/1 155/434/1
f 155/434/1 153/428/1 159/446/1 157/440/1
f 158/443/1 156/438/1 157/440/1 159/446/1
f 160/448/1 162/450/1 148/414/1 144/401/1
f 149/417/3 155/435/3 157/441/3 146/408/3
f 148/413/8 153/429/8 152/426/8 144/402/8
f 163/451/1 161/449/1 147/410/1 150/419/1
f 163/451/1 150/419/1 148/414/1 162/450/1
f 159/447/9 150/420/9 147/411/9 158/444/9
f 160/448/1 180/500/1 167/462/1 164/453/1
f 171/473/5 169/467/5 175/485/5 174/482/5
f 165/455/7 171/474/7 174/483/7 176/488/7
f 170/470/6 168/464/6 173/479/6 179/497/6
f 165/456/2 176/489/2 177/491/2 166/458/2
f 164/452/4 167/461/4 178/494/4 172/476/4
f 171/475/1 165/457/1 166/459/1 169/468/1
f 172/477/1 178/495/1 176/490/1 174/484/1
f 174/484/1 175/486/1 173/480/1 172/477/1
f 175/486/1 177/492/1 179/498/1 173/480/1
f 178/495/1 179/498/1 177/492/1 176/490/1
f 160/448/1 164/453/1 168/466/1 162/450/1
f 169/469/3 166/460/3 177/493/3 175/487/3
f 168/465/9 164/454/9 172/478/9 173/481/9
f 181/501/1 170/471/1 167/462/1 180/500/1
f 181/501/1 162/450/1 168/466/1 170/471/1
f 179/499/8 178/496/8 167/463/8 170/472/8
f 160/448/1 161/449/1 185/512/1 182/503/1
f 189/523/2 187/517/2 193/535/2 192/532/2
f 183/505/3 189/524/3 192/533/3 194/538/3
f 188/520/4 186/514/4 191/529/4 197/547/4
f 183/506/5 194/539/5 195/541/5 184/508/5
f 182/502/6 185/511/6 196/544/6 190/526/6
f 189/525/1 183/507/1 184/509/1 187/518/1
f 190/527/1 196/545/1 194/540/1 192/534/1
f 192/534/1 193/536/1 191/530/1 190/527/1
f 193/536/1 195/542/1 197/548/1 191/530/1
f 196/545/1 197/548/1 195/542/1 194/540/1
f 160/448/1 182/503/1 186/516/1 55/151/1
f 187/519/7 184/510/7 195/543/7 193/537/7
f 186/515/8 182/504/8 190/528/8 191/531/8
f 56/152/1 188/521/1 185/512/1 161/449/1
f 56/152/1 55/151/1 186/516/1 188/521/1
f 197/549/9 196/546/9 185/513/9 188/522/9
f 160/448/1 198/551/1 201/560/1 180/500/1
f 205/571/5 208/580/5 209/583/5 203/565/5
f 199/553/3 210/586/3 208/581/3 205/572/3
f 204/568/4 213/595/4 207/577/4 202/562/4
f 199/554/2 200/556/2 211/589/2 210/587/2
f 198/550/6 206/574/6 212/592/6 201/559/6
f 205/573/1 203/566/1 200/557/1 199/555/1
f 206/575/1 208/582/1 210/588/1 212/593/1
f 208/582/1 206/575/1 207/578/1 209/584/1
f 209/584/1 207/578/1 213/596/1 211/590/1
f 212/593/1 210/588/1 211/590/1 213/596/1
f 160/448/1 55/151/1 202/564/1 198/551/1
f 203/567/7 209/585/7 211/591/7 200/558/7
f 202/563/9 207/579/9 206/576/9 198/552/9
f 73/201/1 180/500/1 201/560/1 204/569/1
f 73/201/1 204/569/1 202/564/1 55/151/1
f 213/597/8 204/570/8 201/561/8 212/594/8
f 230/646/1 231/647/1 217/608/1 214/599/1
f 221/619/5 219/613/5 225/631/5 224/628/5
f 215/601/7 221/620/7 224/629/7 226/634/7
f 220/616/6 218/610/6 223/625/6 229/643/6
f 215/602/2 226/635/2 227/637/2 216/604/2
f 214/598/4 217/607/4 228/640/4 222/622/4
f 221/621/1 215/603/1 216/605/1 219/614/1
f 222/623/1 228/641/1 226/636/1 224/630/1
f 224/630/1 225/632/1 223/626/1 222/623/1
f 225/632/1 227/638/1 229/644/1 223/626/1
f 228/641/1 229/644/1 227/638/1 226/636/1
f 230/646/1 214/599/1 218/612/1 232/648/1
f 219/615/3 216/606/3 227/639/3 225/633/3
f 218/611/9 214/600/9 222/624/9 223/627/9
f 233/649/1 220/617/1 217/608/1 231/647/1
f 233/649/1 232/648/1 218/612/1 220/617/1
f 229/645/8 228/642/8 217/609/8 220/618/8
f 230/646/1 234/651/1 237/660/1 180/500/1
f 241/671/2 244/680/2 245/683/2 239/665/2
f 235/653/7 246/686/7 244/681/7 241/672/7
f 240/668/6 249/695/6 243/677/6 238/662/6
f 235/654/5 236/656/5 247/689/5 246/687/5
f 234/650/4 242/674/4 248/692/4 237/659/4
f 241/673/1 239/666/1 236/657/1 235/655/1
f 242/675/1 244/682/1 246/688/1 248/693/1
f 244/682/1 242/675/1 243/678/1 245/684/1
f 245/684/1 243/678/1 249/696/1 247/690/1
f 248/693/1 246/688/1 247/690/1 249/696/1
f 230/646/1 232/648/1 238/664/1 234/651/1
f 239/667/3 245/685/3 247/691/3 236/658/3
f 238/663/8 243/679/8 242/676/8 234/652/8
f 181/501/1 180/500/1 237/660/1 240/669/1
f 181/501/1 240/669/1 238/664/1 232/648/1
f 249/697/9 240/670/9 237/661/9 248/694/9
f 230/646/1 250/699/1 253/708/1 231/647/1
f 257/719/5 260/728/5 261/731/5 255/713/5
f 251/701/3 262/734/3 260/729/3 257/720/3
f 256/716/4 265/743/4 259/725/4 254/710/4
f 251/702/2 252/704/2 263/737/2 262/735/2
f 250/698/6 258/722/6 264/740/6 253/707/6
f 257/721/1 255/714/1 252/705/1 251/703/1
f 258/723/1 260/730/1 262/736/1 264/741/1
f 260/730/1 258/723/1 259/726/1 261/732/1
f 261/732/1 259/726/1 265/744/1 263/738/1
f 264/741/1 262/736/1 263/738/1 265/744/1
f 230/646/1 126/350/1 254/712/1 250/699/1
f 255/715/7 261/733/7 263/739/7 252/706/7
f 254/711/9 259/727/9 258/724/9 250/700/9
f 127/351/1 231/647/1 253/708/1 256/717/1
f 127/351/1 256/717/1 254/712/1 126/350/1
f 265/745/8 256/718/8 253/709/8 264/742/8
f 230/646/1 180/500/1 269/756/1 266/747/1
f 273/767/2 271/761/2 277/778/2 276/775/2
f 267/749/3 273/767/3 276/776/3 278/781/3
f 272/764/4 270/758/4 275/772/4 281/790/4
f 267/750/5 278/782/5 279/784/5 268/752/5
f 266/746/6 269/755/6 280/787/6 274/769/6
f 273/768/1 267/751/1 268/753/1 271/762/1
f 274/770/1 280/788/1 278/783/1 276/777/1
f 276/777/1 277/779/1 275/773/1 274/770/1
f 277/779/1 279/785/1 281/791/1 275/773/1
f 280/788/1 281/791/1 279/785/1 278/783/1
f 230/646/1 266/747/1 270/760/1 126/350/1
f 271/763/7 268/754/7 279/786/7 277/780/7
f 270/759/8 266/748/8 274/771/8 275/774/8
f 73/201/1 272/765/1 269/756/1 180/500/1
f 73/201/1 126/350/1 270/760/1 272/765/1
f 281/792/9 280/789/9 269/757/9 272/766/9
