# Blender 3.4.1
# www.blender.org
mtllib 24x6_square_ceiling.mtl
o 24x6_square_ceiling_low
v 4.573333 -0.000000 19.426666
v 2.066667 0.352906 20.066666
v 2.066667 0.352906 21.933334
v 1.426667 -0.000000 19.426666
v 4.573333 -0.000000 22.573334
v 3.933333 0.352906 21.933334
v 1.426667 -0.000000 22.573334
v 3.933333 0.352906 20.066666
v 4.573333 0.150978 19.426666
v 4.573333 0.150977 22.573334
v 4.040000 0.150977 19.959999
v 4.040000 0.150977 22.040001
v 1.960000 0.150977 19.959999
v 1.960000 0.150977 22.040001
v 1.426667 0.150978 19.426666
v 1.426667 0.150977 22.573334
v 6.000000 0.000000 18.000000
v 0.000000 0.000000 18.000000
v 6.000000 -0.000001 24.000000
v 0.000000 -0.000001 24.000000
v 4.573333 -0.000000 16.573334
v 2.066667 0.352906 15.933333
v 2.066667 0.352906 14.066667
v 1.426667 -0.000000 16.573334
v 4.573333 -0.000000 13.426667
v 3.933333 0.352906 14.066667
v 1.426667 -0.000000 13.426667
v 3.933333 0.352906 15.933333
v 4.573333 0.150978 16.573334
v 4.573333 0.150977 13.426667
v 4.040000 0.150977 16.040001
v 4.040000 0.150977 13.960000
v 1.960000 0.150977 16.040001
v 1.960000 0.150977 13.960000
v 1.426667 0.150978 16.573334
v 1.426667 0.150977 13.426667
v 6.000000 -0.000001 12.000000
v 0.000000 -0.000001 12.000000
v 4.573333 -0.000000 4.573333
v 2.066667 0.352906 3.933333
v 2.066667 0.352906 2.066667
v 1.426667 -0.000000 4.573333
v 4.573333 -0.000000 1.426667
v 3.933333 0.352906 2.066667
v 1.426667 -0.000000 1.426667
v 3.933333 0.352906 3.933333
v 4.573333 0.150978 4.573333
v 4.573333 0.150977 1.426667
v 4.040000 0.150977 4.040000
v 4.040000 0.150977 1.960000
v 1.960000 0.150977 4.040000
v 1.960000 0.150977 1.960000
v 1.426667 0.150978 4.573333
v 1.426667 0.150977 1.426667
v 6.000000 0.000000 6.000000
v 0.000000 0.000000 6.000000
v 6.000000 -0.000001 0.000000
v 0.000000 -0.000001 0.000000
v 4.573333 -0.000000 7.426667
v 2.066667 0.352906 8.066667
v 2.066667 0.352906 9.933333
v 1.426667 -0.000000 7.426667
v 4.573333 -0.000000 10.573333
v 3.933333 0.352906 9.933333
v 1.426667 -0.000000 10.573333
v 3.933333 0.352906 8.066667
v 4.573333 0.150978 7.426667
v 4.573333 0.150977 10.573333
v 4.040000 0.150977 7.960000
v 4.040000 0.150977 10.040000
v 1.960000 0.150977 7.960000
v 1.960000 0.150977 10.040000
v 1.426667 0.150978 7.426667
v 1.426667 0.150977 10.573333
vn -0.0000 -1.0000 -0.0000
vn -0.8842 -0.4671 -0.0000
vn -0.0000 -0.4671 0.8842
vn -0.0000 -0.0000 -1.0000
vn 0.8842 -0.4671 -0.0000
vn -0.0000 -0.0000 1.0000
vn -0.0000 -0.4671 -0.8842
vn -1.0000 -0.0000 -0.0000
vn 1.0000 -0.0000 -0.0000
vt 0.502924 0.155556
vt 0.190556 0.809444
vt 0.471470 0.286667
vt 0.364185 0.475556
vt 0.269031 0.475555
vt 0.381111 0.131111
vt 0.269031 0.397778
vt 0.381111 0.208889
vt 0.335639 0.397778
vt 0.502924 0.286667
vt 0.059444 0.809444
vt 0.458889 0.286667
vt 0.496633 0.155556
vt 0.471470 0.155556
vt 0.190556 0.940555
vt 0.269031 0.397778
vt 0.458889 0.208889
vt 0.335639 0.475555
vt 0.496633 0.286667
vt 0.059444 0.940555
vt 0.458889 0.417778
vt 0.269031 0.475555
vt 0.364185 0.397778
vt 0.458889 0.131111
vt 0.509215 0.155556
vt 0.250000 0.131111
vt 0.477761 0.286667
vt 0.490343 0.155556
vt 0.250000 0.000000
vt 0.477761 0.155556
vt 0.259516 0.480000
vt 0.354670 0.393333
vt 0.272222 0.108889
vt 0.259516 0.393333
vt 0.272222 0.022223
vt 0.326124 0.480000
vt 0.354670 0.480000
vt 0.278546 0.480000
vt 0.358889 0.108889
vt 0.278546 0.393333
vt 0.358889 0.022223
vt 0.326124 0.393333
vt 0.509215 0.286667
vt 0.381111 0.131111
vt 0.465180 0.286667
vt 0.490343 0.286667
vt 0.381111 0.000000
vt 0.465180 0.417778
vt 0.250000 0.750000
vt 0.000000 0.750000
vt 0.250000 1.000000
vt 0.000000 1.000000
vt 0.477761 0.286667
vt 0.190556 0.690555
vt 0.484052 0.286667
vt 0.259515 0.397778
vt 0.471470 0.422222
vt 0.381111 0.442223
vt 0.471470 0.500000
vt 0.381111 0.364445
vt 0.316608 0.475556
vt 0.477761 0.417778
vt 0.059444 0.690555
vt 0.484052 0.286667
vt 0.471470 0.417778
vt 0.484052 0.155556
vt 0.190556 0.559444
vt 0.297577 0.475555
vt 0.458889 0.364445
vt 0.316608 0.397778
vt 0.471470 0.286667
vt 0.059444 0.559444
vt 0.484052 0.155556
vt 0.297577 0.397778
vt 0.259515 0.475556
vt 0.458889 0.442223
vt 0.471470 0.286667
vt 0.381111 0.262222
vt 0.477761 0.286667
vt 0.465180 0.417778
vt 0.250000 0.262222
vt 0.477761 0.155556
vt 0.288062 0.393333
vt 0.250000 0.480000
vt 0.358889 0.284444
vt 0.288062 0.480000
vt 0.272223 0.284444
vt 0.307093 0.393333
vt 0.250000 0.393333
vt 0.480986 0.417778
vt 0.358889 0.371111
vt 0.480986 0.504445
vt 0.272223 0.371111
vt 0.307093 0.480000
vt 0.471470 0.417778
vt 0.381111 0.393333
vt 0.490343 0.286667
vt 0.465180 0.286667
vt 0.250000 0.393333
vt 0.490343 0.155556
vt 0.250000 0.500000
vt 0.000000 0.500000
vt 0.484052 0.286667
vt 0.190556 0.190556
vt 0.458889 0.155556
vt 0.354670 0.397778
vt 0.373701 0.475555
vt 0.381111 0.286667
vt 0.373701 0.397778
vt 0.458889 0.286667
vt 0.326124 0.475556
vt 0.484052 0.417778
vt 0.059444 0.190556
vt 0.496633 0.417778
vt 0.471470 0.286667
vt 0.458889 0.286667
vt 0.190556 0.059444
vt 0.288062 0.475556
vt 0.458889 0.364444
vt 0.326124 0.397778
vt 0.471470 0.155556
vt 0.059444 0.059444
vt 0.496633 0.286667
vt 0.288062 0.397778
vt 0.354670 0.475555
vt 0.381111 0.364444
vt 0.477761 0.286667
vt 0.381111 0.131111
vt 0.465180 0.155556
vt 0.250000 0.131111
vt 0.465180 0.286667
vt 0.278546 0.393333
vt 0.345154 0.480000
vt 0.358889 0.153333
vt 0.278546 0.480000
vt 0.272222 0.153333
vt 0.316608 0.393333
vt 0.345154 0.393333
vt 0.364185 0.480000
vt 0.358889 0.240000
vt 0.364185 0.393333
vt 0.272222 0.240000
vt 0.316608 0.480000
vt 0.477761 0.417778
vt 0.381111 0.262222
vt 0.502924 0.417778
vt 0.465180 0.155556
vt 0.250000 0.262222
vt 0.502924 0.286667
vt 0.250000 0.250000
vt 0.000000 0.250000
vt 0.250000 0.000000
vt 0.000000 0.000000
vt 0.490343 0.286667
vt 0.190556 0.309444
vt 0.502924 0.417778
vt 0.468404 0.500000
vt 0.480986 0.500000
vt 0.458889 0.286667
vt 0.480986 0.422222
vt 0.458889 0.208889
vt 0.345154 0.397778
vt 0.490343 0.417778
vt 0.059444 0.309444
vt 0.502924 0.286667
vt 0.490343 0.286667
vt 0.502924 0.286667
vt 0.190556 0.440555
vt 0.297577 0.475556
vt 0.381111 0.208889
vt 0.345154 0.475555
vt 0.490343 0.417778
vt 0.059444 0.440555
vt 0.502924 0.155556
vt 0.297577 0.397778
vt 0.468404 0.422223
vt 0.381111 0.286667
vt 0.496633 0.286667
vt 0.512222 0.000000
vt 0.509215 0.417778
vt 0.484052 0.286667
vt 0.512222 0.131111
vt 0.509215 0.286667
vt 0.307093 0.393333
vt 0.458889 0.417778
vt 0.490000 0.022222
vt 0.307093 0.480000
vt 0.490000 0.108889
vt 0.335639 0.480000
vt 0.458889 0.504445
vt 0.490501 0.504445
vt 0.403333 0.022222
vt 0.490501 0.417778
vt 0.403333 0.108889
vt 0.335639 0.393333
vt 0.496633 0.417778
vt 0.381111 0.000000
vt 0.496633 0.286667
vt 0.484052 0.417778
vt 0.381111 0.131111
vt 0.496633 0.155556
s 0
f 17/49/1 1/2/1 4/11/1 18/50/1
f 8/22/2 11/31/2 12/34/2 6/16/2
f 2/4/3 13/37/3 11/32/3 8/23/3
f 7/19/4 16/46/4 10/28/4 5/13/4
f 2/5/5 3/7/5 14/40/5 13/38/5
f 1/1/6 9/25/6 15/43/6 4/10/6
f 8/24/1 6/17/1 3/8/1 2/6/1
f 9/26/1 11/33/1 13/39/1 15/44/1
f 11/33/1 9/26/1 10/29/1 12/35/1
f 12/35/1 10/29/1 16/47/1 14/41/1
f 15/44/1 13/39/1 14/41/1 16/47/1
f 17/49/1 19/51/1 5/15/1 1/2/1
f 6/18/7 12/36/7 14/42/7 3/9/7
f 5/14/8 10/30/8 9/27/8 1/3/8
f 20/52/1 18/50/1 4/11/1 7/20/1
f 20/52/1 7/20/1 5/15/1 19/51/1
f 16/48/9 7/21/9 4/12/9 15/45/9
f 17/49/1 18/50/1 24/63/1 21/54/1
f 28/74/2 26/68/2 32/86/2 31/83/2
f 22/56/7 28/75/7 31/84/7 33/89/7
f 27/71/6 25/65/6 30/80/6 36/98/6
f 22/57/5 33/90/5 34/92/5 23/59/5
f 21/53/4 24/62/4 35/95/4 29/77/4
f 28/76/1 22/58/1 23/60/1 26/69/1
f 29/78/1 35/96/1 33/91/1 31/85/1
f 31/85/1 32/87/1 30/81/1 29/78/1
f 32/87/1 34/93/1 36/99/1 30/81/1
f 35/96/1 36/99/1 34/93/1 33/91/1
f 17/49/1 21/54/1 25/67/1 37/101/1
f 26/70/3 23/61/3 34/94/3 32/88/3
f 25/66/8 21/55/8 29/79/8 30/82/8
f 38/102/1 27/72/1 24/63/1 18/50/1
f 38/102/1 37/101/1 25/67/1 27/72/1
f 36/100/9 35/97/9 24/64/9 27/73/9
f 55/150/1 56/151/1 42/113/1 39/104/1
f 46/124/2 44/118/2 50/135/2 49/132/2
f 40/106/7 46/125/7 49/133/7 51/138/7
f 45/121/6 43/115/6 48/131/6 54/147/6
f 40/107/5 51/139/5 52/141/5 41/109/5
f 39/103/4 42/112/4 53/144/4 47/127/4
f 46/126/1 40/108/1 41/110/1 44/119/1
f 47/128/1 53/145/1 51/140/1 49/134/1
f 49/134/1 50/136/1 48/130/1 47/128/1
f 50/136/1 52/142/1 54/148/1 48/130/1
f 53/145/1 54/148/1 52/142/1 51/140/1
f 55/150/1 39/104/1 43/117/1 57/152/1
f 44/120/3 41/111/3 52/143/3 50/137/3
f 43/116/8 39/105/8 47/129/8 48/131/8
f 58/153/1 45/122/1 42/113/1 56/151/1
f 58/153/1 57/152/1 43/117/1 45/122/1
f 54/149/9 53/146/9 42/114/9 45/123/9
f 55/150/1 59/155/1 62/164/1 56/151/1
f 66/175/2 69/184/2 70/187/2 64/169/2
f 60/157/3 71/190/3 69/185/3 66/176/3
f 65/172/4 74/199/4 68/181/4 63/166/4
f 60/158/5 61/160/5 72/193/5 71/191/5
f 59/154/6 67/178/6 73/196/6 62/163/6
f 66/177/1 64/170/1 61/161/1 60/159/1
f 67/179/1 69/186/1 71/192/1 73/197/1
f 69/186/1 67/179/1 68/182/1 70/188/1
f 70/188/1 68/182/1 74/200/1 72/194/1
f 73/197/1 71/192/1 72/194/1 74/200/1
f 55/150/1 37/101/1 63/168/1 59/155/1
f 64/171/7 70/189/7 72/195/7 61/162/7
f 63/167/8 68/183/8 67/180/8 59/156/8
f 38/102/1 56/151/1 62/164/1 65/173/1
f 38/102/1 65/173/1 63/168/1 37/101/1
f 74/201/9 65/174/9 62/165/9 73/198/9
