# Blender 3.4.1
# www.blender.org
mtllib 26x10_ceiling.mtl
o 26x10_ceiling_low
v 12.666667 -0.000000 3.666667
v 12.666667 -0.000000 6.333333
v 12.666667 -0.000000 5.333333
v 12.666667 -0.000000 4.666667
v 12.666667 0.150978 3.666667
v 12.666667 0.150977 4.666667
v 12.666667 0.150977 5.333333
v 12.666667 0.150977 6.333333
v 6.666667 -0.000000 3.666667
v 7.466667 0.352906 4.466667
v 6.666667 -0.000000 6.333333
v 8.533333 0.352906 4.466667
v 8.533333 0.352906 5.533334
v 9.333334 -0.000000 3.666667
v 9.333333 -0.000000 6.333333
v 6.666667 -0.000000 5.333333
v 7.466667 0.352906 5.533334
v 9.333334 -0.000000 5.333333
v 6.666667 -0.000000 4.666667
v 9.333334 -0.000000 4.666667
v 6.666667 0.150977 4.666667
v 6.666667 0.150977 5.333333
v 6.666667 0.150977 6.333333
v 6.666667 0.150978 3.666667
v 7.333333 0.150977 4.333333
v 7.333333 0.150977 5.666667
v 9.333334 0.150978 3.666667
v 8.666666 0.150977 4.333333
v 8.666666 0.150977 5.666667
v 9.333333 0.150977 6.333333
v 9.333334 0.150977 4.666667
v 9.333334 0.150977 5.333333
v 0.000000 -0.000000 5.333333
v 0.999667 -0.000000 6.333333
v 0.999667 -0.000000 3.666667
v 2.866334 0.352906 4.466667
v 2.866334 0.352906 5.533334
v 3.666333 -0.000000 3.666667
v 3.666333 -0.000000 6.333333
v 0.999667 -0.000000 5.333333
v 1.799667 0.352906 5.533334
v 3.666333 -0.000000 5.333333
v 0.000000 -0.000000 4.666666
v 0.999667 -0.000000 4.666667
v 1.799667 0.352906 4.466667
v 3.666333 -0.000000 4.666667
v 0.000000 0.150977 5.333333
v 0.999667 0.150978 3.666667
v 0.999667 0.150977 4.666667
v 0.999667 0.150977 5.333333
v 1.666333 0.150977 4.333333
v 1.666333 0.150977 5.666667
v 0.999667 0.150977 6.333333
v 2.999667 0.150977 4.333333
v 2.999667 0.150977 5.666667
v 3.666333 0.150978 3.666667
v 3.666333 0.150977 4.666667
v 3.666333 0.150977 5.333333
v 3.666333 0.150977 6.333333
v 0.000000 0.150977 4.666666
v 12.666667 0.000000 0.000000
v 6.666667 0.000000 0.000000
v 9.333334 0.000000 0.000000
v 0.000000 0.000000 0.000000
v 0.999667 0.000000 0.000000
v 3.666333 0.000000 0.000000
v 13.333333 -0.000000 3.666667
v 13.333333 -0.000000 6.333333
v 13.333333 -0.000000 5.333333
v 13.333333 -0.000000 4.666667
v 13.333333 0.150978 3.666667
v 13.333333 0.150977 4.666667
v 13.333333 0.150977 5.333333
v 13.333333 0.150977 6.333333
v 19.333332 -0.000000 3.666667
v 19.333332 -0.000000 6.333333
v 18.533333 0.352906 4.466666
v 17.466667 0.352906 4.466666
v 17.466667 0.352906 5.533334
v 16.666666 -0.000000 3.666667
v 16.666668 -0.000000 6.333333
v 19.333332 -0.000000 5.333333
v 18.533333 0.352906 5.533334
v 16.666666 -0.000000 5.333333
v 19.333332 -0.000000 4.666667
v 16.666666 -0.000000 4.666667
v 19.333332 0.150978 3.666667
v 19.333332 0.150977 4.666667
v 19.333332 0.150977 5.333333
v 18.666666 0.150977 4.333333
v 18.666666 0.150977 5.666667
v 19.333332 0.150977 6.333333
v 16.666666 0.150978 3.666667
v 17.333334 0.150977 4.333333
v 17.333334 0.150977 5.666667
v 16.666668 0.150977 6.333333
v 16.666666 0.150977 4.666667
v 16.666666 0.150977 5.333333
v 26.000000 -0.000000 5.333333
v 25.000332 -0.000000 3.666667
v 25.000332 -0.000000 6.333333
v 24.200335 0.352906 5.533334
v 23.133665 0.352906 4.466666
v 22.333668 -0.000000 6.333333
v 22.333668 -0.000000 3.666667
v 25.000332 -0.000000 5.333333
v 23.133665 0.352906 5.533334
v 22.333668 -0.000000 5.333333
v 26.000000 -0.000000 4.666666
v 25.000332 -0.000000 4.666667
v 24.200335 0.352906 4.466666
v 22.333668 -0.000000 4.666667
v 26.000000 0.150977 5.333333
v 25.000332 0.150977 4.666667
v 25.000332 0.150977 5.333333
v 25.000332 0.150977 6.333333
v 24.333668 0.150977 4.333333
v 24.333668 0.150977 5.666667
v 25.000332 0.150978 3.666667
v 23.000332 0.150977 4.333333
v 23.000332 0.150977 5.666667
v 22.333668 0.150978 3.666667
v 22.333668 0.150977 4.666667
v 22.333668 0.150977 5.333333
v 22.333668 0.150977 6.333333
v 26.000000 0.150977 4.666666
v 13.333333 0.000000 0.000000
v 19.333332 0.000000 0.000000
v 16.666666 0.000000 0.000000
v 26.000000 0.000000 0.000000
v 25.000332 0.000000 0.000000
v 22.333668 0.000000 0.000000
v 19.333332 -0.000001 10.000000
v 13.333333 -0.000001 10.000000
v 0.999667 -0.000001 10.000000
v 3.666333 -0.000001 10.000000
v 6.666667 -0.000001 10.000000
v 9.333334 -0.000001 10.000000
v 12.666667 -0.000001 10.000000
v 25.000332 -0.000001 10.000000
v 22.333668 -0.000001 10.000000
v 16.666668 -0.000001 10.000000
v 26.000000 -0.000001 10.000000
v 0.000000 -0.000001 10.000000
vn -0.0000 -1.0000 -0.0000
vn -0.0000 -0.0000 1.0000
vn 1.0000 -0.0000 -0.0000
vn 0.8345 -0.5510 -0.0000
vn -1.0000 -0.0000 -0.0000
vn -0.0000 -0.5510 0.8345
vn -0.0000 -0.0000 -1.0000
vn -0.8345 -0.5510 -0.0000
vn -0.0000 -0.5510 -0.8345
vt 0.478959 0.523104
vt 0.513801 0.471795
vt 0.217949 0.487180
vt 0.517678 0.076923
vt 0.478960 0.523104
vt 0.141026 0.487180
vt 0.517678 0.115385
vt 0.179487 0.487180
vt 0.473153 0.164103
vt 0.513801 0.510257
vt 0.467346 0.420513
vt 0.179487 0.487180
vt 0.461538 0.487180
vt 0.484766 0.523104
vt 0.519607 0.471795
vt 0.519607 0.510257
vt 0.461539 0.420513
vt 0.423077 0.487180
vt 0.511871 0.115385
vt 0.467346 0.164103
vt 0.397436 0.487180
vt 0.511871 0.076923
vt 0.473153 0.523104
vt 0.358974 0.487180
vt 0.490573 0.266666
vt 0.514994 0.241026
vt 0.217949 0.256411
vt 0.502565 0.056410
vt 0.502565 0.123077
vt 0.502565 0.148718
vt 0.496380 0.369230
vt 0.517678 0.038462
vt 0.141026 0.256411
vt 0.502565 0.097436
vt 0.505687 0.415385
vt 0.461539 0.123077
vt 0.505687 0.374360
vt 0.461539 0.082051
vt 0.514994 0.364103
vt 0.484766 0.510257
vt 0.490573 0.164103
vt 0.217949 0.358974
vt 0.496380 0.266666
vt 0.520801 0.202564
vt 0.141026 0.358974
vt 0.517678 0.076923
vt 0.179487 0.256411
vt 0.484766 0.164103
vt 0.502565 0.082051
vt 0.514994 0.323078
vt 0.502565 0.107692
vt 0.179487 0.358974
vt 0.473153 0.292308
vt 0.520801 0.164103
vt 0.514994 0.279487
vt 0.478959 0.394898
vt 0.179487 0.256411
vt 0.484766 0.471795
vt 0.467346 0.292308
vt 0.179487 0.358974
vt 0.520800 0.279487
vt 0.423077 0.256410
vt 0.473153 0.394898
vt 0.511871 0.076923
vt 0.478959 0.164103
vt 0.397436 0.256410
vt 0.490573 0.369230
vt 0.511871 0.038462
vt 0.358974 0.256410
vt 0.496380 0.266666
vt 0.520800 0.241026
vt 0.461539 0.256410
vt 0.511871 0.051282
vt 0.435898 0.282051
vt 0.511871 0.153846
vt 0.384615 0.282051
vt 0.505687 0.317949
vt 0.511871 0.102564
vt 0.490573 0.510257
vt 0.496380 0.164103
vt 0.461538 0.358974
vt 0.511871 0.102564
vt 0.496380 0.420513
vt 0.435897 0.333333
vt 0.496380 0.369231
vt 0.384615 0.333333
vt 0.505687 0.369231
vt 0.490573 0.266666
vt 0.358974 0.358974
vt 0.514994 0.202564
vt 0.490573 0.471795
vt 0.461539 0.292308
vt 0.423077 0.358974
vt 0.467346 0.292308
vt 0.397436 0.358974
vt 0.514994 0.164103
vt 0.519607 0.471795
vt 0.179487 0.000000
vt 0.478959 0.497462
vt 0.517678 0.000000
vt 0.141026 0.038448
vt 0.490573 0.369231
vt 0.511871 0.115385
vt 0.217949 0.038448
vt 0.463846 0.466667
vt 0.505687 0.364103
vt 0.461539 0.041026
vt 0.505687 0.323077
vt 0.502564 0.041026
vt 0.514994 0.261539
vt 0.514994 0.356411
vt 0.490573 0.471795
vt 0.217949 0.141013
vt 0.478959 0.394898
vt 0.523485 0.038462
vt 0.141026 0.141013
vt 0.179487 0.038449
vt 0.517678 0.038462
vt 0.519607 0.510244
vt 0.496380 0.169231
vt 0.502564 0.082051
vt 0.514994 0.220513
vt 0.179487 0.141013
vt 0.484766 0.279500
vt 0.523485 0.000000
vt 0.523485 0.115385
vt 0.179487 0.000000
vt 0.511871 0.153846
vt 0.179487 0.038448
vt 0.523485 0.153833
vt 0.496380 0.210257
vt 0.463846 0.425641
vt 0.461539 0.082051
vt 0.514994 0.317949
vt 0.478959 0.279500
vt 0.179487 0.141013
vt 0.397436 0.000000
vt 0.525414 0.471795
vt 0.484766 0.369231
vt 0.517678 0.115385
vt 0.461539 0.038449
vt 0.423077 0.038449
vt 0.517678 0.153833
vt 0.511871 0.038462
vt 0.397436 0.038449
vt 0.525414 0.510244
vt 0.505687 0.215384
vt 0.473153 0.420513
vt 0.435898 0.064090
vt 0.505687 0.164103
vt 0.384616 0.064090
vt 0.505687 0.215385
vt 0.473153 0.497462
vt 0.511871 0.000000
vt 0.358975 0.038449
vt 0.473153 0.471795
vt 0.496380 0.369231
vt 0.435898 0.115372
vt 0.496380 0.317949
vt 0.384616 0.115372
vt 0.505687 0.266667
vt 0.520800 0.356411
vt 0.484766 0.471795
vt 0.461539 0.141013
vt 0.520800 0.317949
vt 0.473153 0.279500
vt 0.423077 0.141013
vt 0.478959 0.279500
vt 0.397436 0.141013
vt 0.517678 0.000000
vt 0.473153 0.394898
vt 0.358975 0.141013
vt 0.517678 0.038462
vt 0.423077 0.000000
vt 0.517678 0.115385
vt 0.358974 0.487180
vt 0.358974 0.256411
vt 0.358974 0.358974
vt 0.358974 0.000000
vt 0.358974 0.038448
vt 0.358974 0.141013
vt 0.478959 0.497462
vt 0.496380 0.471795
vt 0.217949 0.512820
vt 0.478960 0.497462
vt 0.514994 0.394872
vt 0.141026 0.512820
vt 0.514994 0.433334
vt 0.467346 0.292308
vt 0.179487 0.512820
vt 0.496380 0.510257
vt 0.179487 0.512820
vt 0.467346 0.164103
vt 0.461538 0.512820
vt 0.484766 0.497462
vt 0.490573 0.471795
vt 0.490573 0.510257
vt 0.461539 0.164103
vt 0.423077 0.512820
vt 0.520800 0.433334
vt 0.473153 0.292308
vt 0.397436 0.512820
vt 0.473153 0.497462
vt 0.520800 0.394872
vt 0.358974 0.512820
vt 0.490573 0.369230
vt 0.502187 0.471795
vt 0.217949 0.743589
vt 0.484766 0.369230
vt 0.514994 0.433334
vt 0.141026 0.743589
vt 0.505687 0.466667
vt 0.502563 0.123077
vt 0.514994 0.210257
vt 0.505687 0.425642
vt 0.502565 0.046154
vt 0.461538 0.123077
vt 0.502565 0.005128
vt 0.461538 0.164103
vt 0.514994 0.374359
vt 0.514994 0.202564
vt 0.490573 0.471794
vt 0.217949 0.641026
vt 0.484766 0.266666
vt 0.469652 0.471795
vt 0.141026 0.641026
vt 0.514994 0.471796
vt 0.179487 0.743589
vt 0.484766 0.394899
vt 0.502563 0.164103
vt 0.514994 0.415384
vt 0.514994 0.169231
vt 0.467346 0.420513
vt 0.179487 0.641026
vt 0.469652 0.510257
vt 0.502187 0.510257
vt 0.473153 0.279501
vt 0.179487 0.743589
vt 0.514994 0.241026
vt 0.179487 0.641026
vt 0.467346 0.292308
vt 0.496380 0.369230
vt 0.496380 0.471795
vt 0.461539 0.743590
vt 0.496380 0.510257
vt 0.423077 0.743590
vt 0.478959 0.279501
vt 0.520800 0.471796
vt 0.397436 0.743590
vt 0.478959 0.394899
vt 0.514994 0.471796
vt 0.435898 0.717949
vt 0.505687 0.215384
vt 0.505687 0.420513
vt 0.384616 0.717949
vt 0.505687 0.164103
vt 0.490573 0.369230
vt 0.520800 0.433334
vt 0.358975 0.743590
vt 0.520800 0.202564
vt 0.496380 0.471794
vt 0.461539 0.641026
vt 0.514994 0.420513
vt 0.511871 0.051282
vt 0.435898 0.666667
vt 0.511871 0.000000
vt 0.384616 0.666667
vt 0.505687 0.369230
vt 0.490573 0.266666
vt 0.358974 0.641026
vt 0.463846 0.471795
vt 0.520800 0.241026
vt 0.461539 0.292308
vt 0.423077 0.641026
vt 0.473153 0.420513
vt 0.463846 0.510257
vt 0.397436 0.641026
vt 0.517678 0.115372
vt 0.179487 1.000000
vt 0.507994 0.471795
vt 0.484766 0.497461
vt 0.217949 0.961551
vt 0.484766 0.266666
vt 0.514994 0.356411
vt 0.141026 0.961552
vt 0.514994 0.271795
vt 0.502565 0.000000
vt 0.505687 0.312820
vt 0.496380 0.220514
vt 0.496380 0.466667
vt 0.461539 0.041025
vt 0.484766 0.164103
vt 0.507994 0.510257
vt 0.141026 0.858987
vt 0.514994 0.279487
vt 0.484766 0.394897
vt 0.217949 0.858987
vt 0.179487 0.961552
vt 0.514994 0.394872
vt 0.517678 0.076923
vt 0.496380 0.425642
vt 0.502565 0.041025
vt 0.505687 0.271795
vt 0.179487 0.858987
vt 0.484766 0.279501
vt 0.507994 0.471795
vt 0.523485 0.076910
vt 0.179487 1.000000
vt 0.507994 0.510257
vt 0.179487 0.961551
vt 0.523485 0.038462
vt 0.514994 0.312821
vt 0.496380 0.261539
vt 0.461539 0.000000
vt 0.514994 0.317949
vt 0.473153 0.164103
vt 0.179487 0.858987
vt 0.397436 1.000000
vt 0.523485 0.115372
vt 0.502187 0.510257
vt 0.423077 0.961551
vt 0.517678 0.038462
vt 0.520800 0.394872
vt 0.397436 0.961551
vt 0.523485 0.076923
vt 0.490573 0.266666
vt 0.520800 0.356411
vt 0.358975 0.961551
vt 0.505687 0.317949
vt 0.505687 0.266668
vt 0.435898 0.935910
vt 0.505687 0.266667
vt 0.384616 0.935910
vt 0.496380 0.317949
vt 0.502187 0.471795
vt 0.478959 0.497461
vt 0.461539 0.961551
vt 0.505687 0.215385
vt 0.505687 0.471795
vt 0.435898 0.884628
vt 0.505687 0.420513
vt 0.384616 0.884628
vt 0.496380 0.266666
vt 0.520800 0.279487
vt 0.478959 0.394897
vt 0.461539 0.858987
vt 0.520800 0.317949
vt 0.478959 0.164103
vt 0.423077 0.858987
vt 0.478959 0.279501
vt 0.397436 0.858987
vt 0.513801 0.471795
vt 0.490573 0.164103
vt 0.358975 0.858987
vt 0.513801 0.510257
vt 0.423077 1.000000
vt 0.517678 0.076910
vt 0.358974 0.512820
vt 0.358974 0.743589
vt 0.358974 0.641026
vt 0.358974 1.000000
vt 0.358974 0.961551
vt 0.358974 0.858987
vt 0.000000 0.743589
vt 0.000000 0.512820
vt 0.000000 0.038448
vt 0.000000 0.141013
vt 0.000000 0.256411
vt 0.000000 0.358974
vt 0.000000 0.487180
vt 0.000000 0.961552
vt 0.000000 0.858987
vt 0.000000 0.641026
vt 0.000000 1.000000
vt 0.000000 0.000000
s 0
f 71/194/1 72/199/1 6/18/1 5/13/1
f 67/182/2 71/195/2 5/14/2 1/1/2
f 2/4/3 3/7/3 7/19/3 8/22/3
f 4/10/3 1/2/3 5/15/3 6/16/3
f 65/180/1 66/181/1 38/113/1 35/104/1
f 45/131/4 41/120/4 52/150/4 51/147/4
f 14/40/5 20/58/5 31/91/5 27/79/5
f 12/34/6 10/28/6 25/73/6 28/82/6
f 15/43/7 11/31/7 23/67/7 30/88/7
f 12/35/8 28/83/8 29/85/8 13/37/8
f 18/52/1 3/8/1 2/6/1 15/45/1
f 7/20/7 3/9/7 18/53/7 32/94/7
f 11/32/3 16/46/3 22/64/3 23/68/3
f 9/25/2 14/41/2 27/80/2 24/70/2
f 10/29/1 12/36/1 13/38/1 17/49/1
f 19/55/3 9/26/3 24/71/3 21/61/3
f 31/93/1 6/18/1 7/21/1 32/95/1
f 24/72/1 27/81/1 28/84/1 25/74/1
f 25/74/1 26/76/1 22/66/1 21/62/1
f 29/86/1 32/95/1 30/89/1
f 26/76/1 29/86/1 30/89/1 23/69/1
f 31/93/1 32/95/1 29/86/1 28/84/1
f 22/66/1 26/76/1 23/69/1
f 20/59/2 4/11/2 6/17/2 31/92/2
f 17/50/9 13/39/9 29/87/9 26/77/9
f 24/72/1 25/74/1 21/62/1
f 28/84/1 27/81/1 31/93/1
f 138/369/1 15/45/1 2/6/1 139/370/1
f 14/42/1 1/3/1 4/12/1 20/60/1
f 18/54/5 15/44/5 30/90/5 32/96/5
f 138/369/1 137/368/1 11/33/1 15/45/1
f 137/368/1 136/367/1 39/116/1 11/33/1
f 38/111/5 46/134/5 57/165/5 56/162/5
f 36/105/6 45/132/6 51/148/6 54/156/6
f 39/114/7 34/99/7 53/153/7 59/171/7
f 36/106/8 54/157/8 55/159/8 37/108/8
f 33/98/1 40/117/1 34/101/1
f 42/123/1 16/47/1 11/33/1 39/116/1
f 22/65/7 16/48/7 42/124/7 58/168/7
f 34/100/3 40/118/3 50/144/3 53/154/3
f 35/102/2 38/112/2 56/163/2 48/139/2
f 45/133/1 36/107/1 37/109/1 41/121/1
f 44/128/3 35/103/3 48/140/3 49/143/3
f 22/66/1 58/169/1 57/167/1 21/62/1
f 43/127/1 35/104/1 44/129/1
f 48/141/1 56/164/1 54/158/1 51/149/1
f 51/149/1 52/151/1 50/145/1 49/142/1
f 55/160/1 58/169/1 59/172/1
f 52/151/1 55/160/1 59/172/1 53/155/1
f 57/167/1 58/169/1 55/160/1 54/158/1
f 49/142/1 50/145/1 47/137/1 60/174/1
f 50/145/1 52/151/1 53/155/1
f 46/135/2 19/56/2 21/63/2 57/166/2
f 41/122/9 37/110/9 55/161/9 52/152/9
f 48/141/1 51/149/1 49/142/1
f 54/158/1 56/164/1 57/167/1
f 38/113/1 9/27/1 19/57/1 46/136/1
f 43/126/2 44/130/2 49/143/2 60/175/2
f 40/119/7 33/97/7 47/138/7 50/146/7
f 42/125/5 39/115/5 59/173/5 58/170/5
f 136/367/1 135/366/1 34/101/1 39/116/1
f 63/178/1 61/176/1 1/3/1 14/42/1
f 43/127/1 64/179/1 65/180/1 35/104/1
f 66/181/1 62/177/1 9/27/1 38/113/1
f 62/177/1 63/178/1 14/42/1 9/27/1
f 72/199/1 73/202/1 7/21/1 6/18/1
f 10/30/4 17/51/4 26/78/4 25/75/4
f 8/23/7 74/203/7 68/185/7 2/5/7
f 67/184/1 1/3/1 61/176/1 127/358/1
f 68/186/5 74/204/5 73/200/5 69/188/5
f 70/191/5 72/197/5 71/196/5 67/183/5
f 117/329/8 118/332/8 102/286/8 111/312/8
f 80/221/3 93/260/3 97/272/3 86/239/3
f 94/263/6 90/251/6 77/212/6 78/215/6
f 96/269/7 92/257/7 76/209/7 81/224/7
f 94/264/4 78/216/4 79/218/4 95/266/4
f 84/233/7 69/189/7 73/201/7 98/275/7
f 81/226/1 68/187/1 69/190/1 84/234/1
f 76/210/5 92/258/5 89/248/5 82/227/5
f 75/206/2 87/242/2 93/261/2 80/222/2
f 77/213/1 83/230/1 79/219/1 78/217/1
f 85/236/5 88/245/5 87/243/5 75/207/5
f 87/244/1 90/252/1 94/265/1 93/262/1
f 88/246/1 89/249/1 91/255/1 90/252/1
f 95/267/1 96/270/1 98/277/1
f 91/255/1 92/259/1 96/270/1 95/267/1
f 94/265/1 95/267/1 98/277/1 97/274/1
f 83/231/9 91/254/9 95/268/9 79/220/9
f 89/249/1 92/259/1 91/255/1
f 123/349/1 124/351/1 89/249/1 88/246/1
f 87/244/1 88/246/1 90/252/1
f 94/265/1 97/274/1 93/262/1
f 86/240/1 70/192/1 67/184/1 80/223/1
f 97/273/2 72/198/2 70/193/2 86/241/2
f 84/235/3 98/276/3 96/271/3 81/225/3
f 97/274/1 98/277/1 73/202/1 72/199/1
f 105/295/3 122/344/3 123/347/3 112/315/3
f 120/338/6 117/330/6 111/313/6 103/289/6
f 125/353/7 116/326/7 101/283/7 104/292/7
f 120/339/4 103/290/4 107/301/4 121/341/4
f 99/279/1 101/285/1 106/298/1
f 104/294/1 76/211/1 82/228/1 108/304/1
f 108/305/7 82/229/7 89/250/7 124/350/7
f 101/284/5 116/327/5 115/323/5 106/299/5
f 111/314/1 102/287/1 107/302/1 103/291/1
f 110/309/5 114/320/5 119/335/5 100/280/5
f 109/308/1 110/310/1 100/282/1
f 114/321/1 115/324/1 118/333/1 117/331/1
f 121/342/1 125/354/1 124/351/1
f 118/333/1 116/328/1 125/354/1 121/342/1
f 120/340/1 121/342/1 124/351/1 123/349/1
f 113/318/1 115/324/1 114/321/1 126/356/1
f 115/324/1 116/328/1 118/333/1
f 102/288/9 118/334/9 121/343/9 107/303/9
f 123/348/2 88/247/2 85/237/2 112/316/2
f 119/337/1 114/321/1 117/331/1
f 120/340/1 123/349/1 122/346/1
f 112/317/1 85/238/1 75/208/1 105/297/1
f 109/307/2 126/357/2 114/322/2 110/311/2
f 106/300/7 115/325/7 113/319/7 99/278/7
f 108/306/3 124/352/3 125/355/3 104/293/3
f 100/281/2 119/336/2 122/345/2 105/296/2
f 105/297/1 132/363/1 131/362/1 100/282/1
f 80/223/1 67/184/1 127/358/1 129/360/1
f 105/297/1 75/208/1 128/359/1 132/363/1
f 100/282/1 131/362/1 130/361/1 109/308/1
f 80/223/1 129/360/1 128/359/1 75/208/1
f 90/253/8 91/256/8 83/232/8 77/214/8
f 73/202/1 74/205/1 8/24/1 7/21/1
f 120/340/1 122/346/1 119/337/1 117/331/1
f 101/285/1 140/371/1 141/372/1 104/294/1
f 104/294/1 141/372/1 133/364/1 76/211/1
f 76/211/1 133/364/1 142/373/1 81/226/1
f 99/279/1 143/374/1 140/371/1 101/285/1
f 81/226/1 142/373/1 134/365/1 68/187/1
f 68/187/1 134/365/1 139/370/1 2/6/1
f 34/101/1 135/366/1 144/375/1 33/98/1
