# Blender 3.4.1
# www.blender.org
mtllib 26x21_ceiling.mtl
o 26x21_ceiling_low
v 12.666667 -0.000001 9.166667
v 12.666667 -0.000001 10.166667
v 12.666667 0.150977 9.166667
v 12.666667 0.150977 10.166667
v 6.666667 -0.000001 9.166667
v 9.333334 -0.000001 9.166667
v 6.666667 -0.000001 10.166667
v 7.466667 0.352906 9.966666
v 8.533333 0.352906 9.966666
v 9.333334 -0.000001 10.166667
v 6.666667 0.150977 9.166667
v 6.666667 0.150977 10.166667
v 7.333333 0.150977 9.833333
v 8.666666 0.150977 9.833333
v 9.333334 0.150977 9.166667
v 9.333334 0.150977 10.166667
v 0.999667 -0.000001 9.166667
v 1.799667 0.352906 9.966666
v 2.866334 0.352906 9.966666
v 3.666333 -0.000001 9.166667
v 0.000000 -0.000001 10.166667
v 0.999667 -0.000001 10.166667
v 3.666333 -0.000001 10.166667
v 0.999667 0.150977 9.166667
v 0.999667 0.150977 10.166667
v 1.666333 0.150977 9.833333
v 3.666333 0.150977 9.166667
v 2.999667 0.150977 9.833333
v 3.666333 0.150977 10.166667
v 0.000000 0.150977 10.166667
v 12.666667 -0.000000 2.166667
v 12.666667 -0.000000 4.833333
v 12.666667 -0.000000 3.833333
v 12.666667 -0.000000 3.166667
v 12.666667 0.150978 2.166667
v 12.666667 0.150977 3.166667
v 12.666667 0.150977 3.833333
v 12.666667 0.150977 4.833333
v 6.666667 -0.000000 2.166667
v 7.466667 0.352906 2.966667
v 6.666667 -0.000000 4.833333
v 8.533333 0.352906 2.966667
v 8.533333 0.352906 4.033334
v 9.333334 -0.000000 2.166667
v 9.333333 -0.000000 4.833333
v 6.666667 -0.000000 3.833333
v 7.466667 0.352906 4.033334
v 9.333334 -0.000000 3.833333
v 6.666667 -0.000000 3.166667
v 9.333334 -0.000000 3.166667
v 6.666667 0.150977 3.166667
v 6.666667 0.150977 3.833333
v 6.666667 0.150977 4.833333
v 6.666667 0.150978 2.166667
v 7.333333 0.150977 2.833333
v 7.333333 0.150977 4.166667
v 9.333334 0.150978 2.166667
v 8.666666 0.150977 2.833333
v 8.666666 0.150977 4.166667
v 9.333333 0.150977 4.833333
v 9.333334 0.150977 3.166667
v 9.333334 0.150977 3.833333
v 0.000000 -0.000000 3.833333
v 0.999667 -0.000000 4.833333
v 0.999667 -0.000000 2.166667
v 2.866334 0.352906 2.966667
v 2.866334 0.352906 4.033334
v 3.666333 -0.000000 2.166667
v 3.666333 -0.000000 4.833333
v 0.999667 -0.000000 3.833333
v 1.799667 0.352906 4.033334
v 3.666333 -0.000000 3.833333
v 0.000000 -0.000000 3.166667
v 0.999667 -0.000000 3.166667
v 1.799667 0.352906 2.966667
v 3.666333 -0.000000 3.166667
v 0.000000 0.150977 3.833333
v 0.999667 0.150978 2.166667
v 0.999667 0.150977 3.166667
v 0.999667 0.150977 3.833333
v 1.666333 0.150977 2.833333
v 1.666333 0.150977 4.166667
v 0.999667 0.150977 4.833333
v 2.999667 0.150977 2.833333
v 2.999667 0.150977 4.166667
v 3.666333 0.150978 2.166667
v 3.666333 0.150977 3.166667
v 3.666333 0.150977 3.833333
v 3.666333 0.150977 4.833333
v 0.000000 0.150977 3.166667
v 12.666667 0.000000 0.000000
v 6.666667 0.000000 0.000000
v 9.333334 0.000000 0.000000
v 0.000000 0.000000 0.000000
v 0.999667 0.000000 0.000000
v 3.666333 0.000000 0.000000
v 13.333333 -0.000001 9.166667
v 13.333333 -0.000001 10.166667
v 13.333333 0.150977 9.166667
v 13.333333 0.150977 10.166667
v 19.333332 -0.000001 9.166667
v 18.533333 0.352906 9.966666
v 16.666666 -0.000001 9.166667
v 19.333332 -0.000001 10.166667
v 17.466667 0.352906 9.966666
v 16.666666 -0.000001 10.166667
v 19.333332 0.150977 10.166667
v 19.333332 0.150977 9.166667
v 18.666666 0.150977 9.833333
v 16.666666 0.150977 9.166667
v 17.333334 0.150977 9.833333
v 16.666666 0.150977 10.166667
v 25.000332 -0.000001 9.166667
v 24.200335 0.352906 9.966666
v 22.333668 -0.000001 9.166667
v 26.000000 -0.000001 10.166667
v 25.000332 -0.000001 10.166667
v 23.133665 0.352906 9.966666
v 22.333668 -0.000001 10.166667
v 25.000332 0.150977 9.166667
v 25.000332 0.150977 10.166667
v 24.333668 0.150977 9.833333
v 22.333668 0.150977 9.166667
v 23.000332 0.150977 9.833333
v 22.333668 0.150977 10.166667
v 26.000000 0.150977 10.166667
v 13.333333 -0.000000 2.166667
v 13.333333 -0.000000 4.833333
v 13.333333 -0.000000 3.833333
v 13.333333 -0.000000 3.166667
v 13.333333 0.150978 2.166667
v 13.333333 0.150977 3.166667
v 13.333333 0.150977 3.833333
v 13.333333 0.150977 4.833333
v 19.333332 -0.000000 2.166667
v 19.333332 -0.000000 4.833333
v 18.533333 0.352906 2.966667
v 17.466667 0.352906 2.966667
v 17.466667 0.352906 4.033334
v 16.666666 -0.000000 2.166667
v 16.666668 -0.000000 4.833333
v 19.333332 -0.000000 3.833333
v 18.533333 0.352906 4.033334
v 16.666666 -0.000000 3.833333
v 19.333332 -0.000000 3.166667
v 16.666666 -0.000000 3.166667
v 19.333332 0.150978 2.166667
v 19.333332 0.150977 3.166667
v 19.333332 0.150977 3.833333
v 18.666666 0.150977 2.833333
v 18.666666 0.150977 4.166667
v 19.333332 0.150977 4.833333
v 16.666666 0.150978 2.166667
v 17.333334 0.150977 2.833333
v 17.333334 0.150977 4.166667
v 16.666668 0.150977 4.833333
v 16.666666 0.150977 3.166667
v 16.666666 0.150977 3.833333
v 26.000000 -0.000000 3.833333
v 25.000332 -0.000000 2.166667
v 25.000332 -0.000000 4.833333
v 24.200335 0.352906 4.033334
v 23.133665 0.352906 2.966667
v 22.333668 -0.000000 4.833333
v 22.333668 -0.000000 2.166667
v 25.000332 -0.000000 3.833333
v 23.133665 0.352906 4.033334
v 22.333668 -0.000000 3.833333
v 26.000000 -0.000000 3.166667
v 25.000332 -0.000000 3.166667
v 24.200335 0.352906 2.966667
v 22.333668 -0.000000 3.166667
v 26.000000 0.150977 3.833333
v 25.000332 0.150977 3.166667
v 25.000332 0.150977 3.833333
v 25.000332 0.150977 4.833333
v 24.333668 0.150977 2.833333
v 24.333668 0.150977 4.166667
v 25.000332 0.150978 2.166667
v 23.000332 0.150977 2.833333
v 23.000332 0.150977 4.166667
v 22.333668 0.150978 2.166667
v 22.333668 0.150977 3.166667
v 22.333668 0.150977 3.833333
v 22.333668 0.150977 4.833333
v 26.000000 0.150977 3.166667
v 13.333333 0.000000 0.000000
v 19.333332 0.000000 0.000000
v 16.666666 0.000000 0.000000
v 26.000000 0.000000 0.000000
v 25.000332 0.000000 0.000000
v 22.333668 0.000000 0.000000
v 12.666667 -0.000001 11.833333
v 12.666667 -0.000001 10.833333
v 12.666667 0.150977 11.833333
v 12.666667 0.150977 10.833333
v 6.666667 -0.000001 11.833333
v 8.533333 0.352906 11.033334
v 9.333334 -0.000001 11.833333
v 6.666667 -0.000001 10.833333
v 7.466667 0.352906 11.033334
v 9.333334 -0.000001 10.833333
v 6.666667 0.150977 11.833333
v 6.666667 0.150977 10.833333
v 7.333333 0.150977 11.166667
v 8.666666 0.150977 11.166667
v 9.333334 0.150977 11.833333
v 9.333334 0.150977 10.833333
v 0.000000 -0.000001 10.833333
v 0.999667 -0.000001 11.833333
v 3.666333 -0.000001 11.833333
v 2.866334 0.352906 11.033334
v 0.999667 -0.000001 10.833333
v 1.799667 0.352906 11.033334
v 3.666333 -0.000001 10.833333
v 0.999667 0.150977 10.833333
v 0.999667 0.150977 11.833333
v 1.666333 0.150977 11.166667
v 3.666333 0.150977 11.833333
v 2.999667 0.150977 11.166667
v 3.666333 0.150977 10.833333
v 0.000000 0.150977 10.833333
v 12.666667 -0.000002 18.833332
v 12.666667 -0.000001 16.166666
v 12.666667 -0.000002 17.166666
v 12.666667 -0.000002 17.833332
v 12.666667 0.150976 18.833332
v 12.666667 0.150976 17.833332
v 12.666667 0.150976 17.166666
v 12.666667 0.150976 16.166666
v 6.666667 -0.000001 16.166666
v 6.666667 -0.000002 18.833332
v 7.466667 0.352905 16.966665
v 9.333334 -0.000002 18.833332
v 8.533333 0.352905 18.033333
v 9.333333 -0.000001 16.166666
v 6.666667 -0.000002 17.166666
v 8.533333 0.352905 16.966665
v 9.333334 -0.000002 17.166666
v 6.666667 -0.000002 17.833332
v 7.466667 0.352905 18.033333
v 9.333334 -0.000002 17.833332
v 6.666667 0.150976 18.833332
v 6.666667 0.150976 17.833332
v 6.666667 0.150976 17.166666
v 6.666667 0.150976 16.166666
v 7.333333 0.150976 18.166666
v 7.333333 0.150976 16.833332
v 9.333334 0.150976 18.833332
v 8.666666 0.150976 18.166666
v 8.666666 0.150976 16.833332
v 9.333333 0.150976 16.166666
v 9.333334 0.150976 17.833332
v 9.333334 0.150976 17.166666
v 0.999667 -0.000002 18.833332
v 0.999667 -0.000001 16.166666
v 1.799667 0.352905 18.033333
v 1.799667 0.352905 16.966665
v 2.866334 0.352905 18.033333
v 2.866334 0.352905 16.966665
v 3.666333 -0.000002 18.833332
v 3.666333 -0.000001 16.166666
v 0.000000 -0.000002 17.166668
v 0.999667 -0.000002 17.166666
v 3.666333 -0.000002 17.166666
v 0.000000 -0.000002 17.833334
v 0.999667 -0.000002 17.833332
v 3.666333 -0.000002 17.833332
v 0.000000 0.150976 17.166668
v 0.999667 0.150976 18.833332
v 0.999667 0.150976 17.833332
v 0.999667 0.150976 17.166666
v 0.999667 0.150976 16.166666
v 1.666333 0.150976 18.166666
v 1.666333 0.150976 16.833332
v 3.666333 0.150976 18.833332
v 2.999667 0.150976 18.166666
v 2.999667 0.150976 16.833332
v 3.666333 0.150976 16.166666
v 3.666333 0.150976 17.833332
v 3.666333 0.150976 17.166666
v 0.000000 0.150976 17.833334
v 12.666667 -0.000002 21.000000
v 6.666667 -0.000002 21.000000
v 9.333334 -0.000002 21.000000
v 0.000000 -0.000002 21.000000
v 0.999667 -0.000002 21.000000
v 3.666333 -0.000002 21.000000
v 13.333333 -0.000001 11.833333
v 13.333333 -0.000001 10.833333
v 13.333333 0.150977 11.833333
v 13.333333 0.150977 10.833333
v 19.333332 -0.000001 11.833333
v 17.466667 0.352906 11.033334
v 16.666666 -0.000001 11.833333
v 19.333332 -0.000001 10.833333
v 18.533333 0.352906 11.033334
v 16.666666 -0.000001 10.833333
v 19.333332 0.150977 11.833333
v 19.333332 0.150977 10.833333
v 18.666666 0.150977 11.166667
v 17.333334 0.150977 11.166667
v 16.666666 0.150977 11.833333
v 16.666666 0.150977 10.833333
v 26.000000 -0.000001 10.833333
v 25.000332 -0.000001 11.833333
v 24.200335 0.352906 11.033334
v 23.133665 0.352906 11.033334
v 22.333668 -0.000001 11.833333
v 25.000332 -0.000001 10.833333
v 22.333668 -0.000001 10.833333
v 25.000332 0.150977 11.833333
v 25.000332 0.150977 10.833333
v 24.333668 0.150977 11.166667
v 22.333668 0.150977 11.833333
v 23.000332 0.150977 11.166667
v 22.333668 0.150977 10.833333
v 26.000000 0.150977 10.833333
v 13.333333 -0.000002 18.833332
v 13.333333 -0.000001 16.166666
v 13.333333 -0.000002 17.166666
v 13.333333 -0.000002 17.833332
v 13.333333 0.150976 18.833332
v 13.333333 0.150976 17.833332
v 13.333333 0.150976 17.166666
v 13.333333 0.150976 16.166666
v 19.333332 -0.000001 16.166666
v 19.333332 -0.000002 18.833332
v 18.533333 0.352905 18.033333
v 18.533333 0.352905 16.966665
v 17.466667 0.352905 18.033333
v 17.466667 0.352905 16.966665
v 16.666668 -0.000001 16.166666
v 16.666666 -0.000002 18.833332
v 19.333332 -0.000002 17.166666
v 16.666666 -0.000002 17.166666
v 19.333332 -0.000002 17.833332
v 16.666666 -0.000002 17.833332
v 19.333332 0.150976 17.833332
v 19.333332 0.150976 17.166666
v 19.333332 0.150976 16.166666
v 19.333332 0.150976 18.833332
v 18.666666 0.150976 18.166666
v 18.666666 0.150976 16.833332
v 16.666666 0.150976 18.833332
v 17.333334 0.150976 18.166666
v 17.333334 0.150976 16.833332
v 16.666668 0.150976 16.166666
v 16.666666 0.150976 17.833332
v 16.666666 0.150976 17.166666
v 26.000000 -0.000002 17.166668
v 26.000000 -0.000002 17.833334
v 25.000332 -0.000002 18.833332
v 24.200335 0.352905 18.033333
v 24.200335 0.352905 16.966665
v 25.000332 -0.000001 16.166666
v 22.333668 -0.000002 18.833332
v 22.333668 -0.000001 16.166666
v 25.000332 -0.000002 17.166666
v 23.133665 0.352905 16.966665
v 22.333668 -0.000002 17.166666
v 25.000332 -0.000002 17.833332
v 23.133665 0.352905 18.033333
v 22.333668 -0.000002 17.833332
v 26.000000 0.150976 17.166668
v 25.000332 0.150976 18.833332
v 25.000332 0.150976 17.833332
v 25.000332 0.150976 17.166666
v 24.333668 0.150976 18.166666
v 24.333668 0.150976 16.833332
v 25.000332 0.150976 16.166666
v 23.000332 0.150976 18.166666
v 23.000332 0.150976 16.833332
v 22.333668 0.150976 18.833332
v 22.333668 0.150976 17.833332
v 22.333668 0.150976 17.166666
v 22.333668 0.150976 16.166666
v 26.000000 0.150976 17.833334
v 13.333333 -0.000002 21.000000
v 19.333332 -0.000002 21.000000
v 16.666666 -0.000002 21.000000
v 26.000000 -0.000002 21.000000
v 25.000332 -0.000002 21.000000
v 22.333668 -0.000002 21.000000
vn 1.0000 -0.0000 -0.0000
vn -1.0000 -0.0000 -0.0000
vn -0.0000 -0.5510 0.8345
vn -0.8345 -0.5510 -0.0000
vn -0.0000 -1.0000 -0.0000
vn -0.0000 -0.0000 1.0000
vn -0.0000 -0.0000 -1.0000
vn 0.8345 -0.5510 -0.0000
vn -0.0000 -0.5510 -0.8345
vt 0.883714 0.997972
vt 0.021525 0.988468
vt 0.261374 0.451464
vt 0.883714 0.962331
vt 0.225732 0.451464
vt 0.967713 0.831643
vt 0.878333 0.997972
vt 0.867287 0.475225
vt 0.026906 0.988468
vt 0.878333 0.962331
vt 0.962332 0.831643
vt 0.902928 0.475225
vt 0.894477 0.997972
vt 0.261374 0.237613
vt 0.978475 0.950545
vt 0.932145 0.962331
vt 0.261374 0.332658
vt 0.978475 0.855500
vt 0.894477 0.962331
vt 0.225732 0.237613
vt 0.978475 0.855500
vt 0.809337 0.931441
vt 0.538456 0.931441
vt 0.304144 0.964707
vt 0.809337 0.969459
vt 0.654095 0.969460
vt 0.266126 0.964707
vt 0.932145 0.926689
vt 0.225732 0.332658
vt 0.967713 0.712837
vt 0.889096 0.997972
vt 0.867287 0.689075
vt 0.983856 0.950545
vt 0.889096 0.962331
vt 0.973094 0.855500
vt 0.902928 0.689075
vt 0.817962 0.926689
vt 0.891048 0.665316
vt 0.529832 0.926689
vt 0.817962 0.974211
vt 0.645471 0.974212
vt 0.891048 0.617792
vt 0.937526 0.962331
vt 0.867287 0.594030
vt 0.983856 0.855500
vt 0.937526 0.926689
vt 0.962332 0.712837
vt 0.902928 0.594030
vt 0.899858 0.997972
vt 0.261374 0.035630
vt 0.983856 0.285135
vt 0.495334 0.969460
vt 0.654095 0.931441
vt 0.228108 0.964707
vt 0.654095 0.969459
vt 0.495334 0.969460
vt 0.190090 0.964707
vt 0.921382 0.962331
vt 0.261374 0.130675
vt 0.983856 0.380180
vt 1.000000 0.427655
vt 0.225732 0.000000
vt 0.899858 0.962331
vt 0.225732 0.035630
vt 1.000000 0.463285
vt 0.921382 0.926689
vt 0.225732 0.130675
vt 0.978475 0.748563
vt 0.894477 0.997972
vt 0.867287 0.891058
vt 0.978475 0.285135
vt 0.894477 0.962331
vt 0.902929 0.891058
vt 0.994619 0.463285
vt 0.503958 0.974212
vt 0.662720 0.926689
vt 0.891048 0.867298
vt 0.926764 0.962331
vt 0.867287 0.796013
vt 0.978475 0.380180
vt 0.662720 0.974211
vt 0.486709 0.974212
vt 0.891048 0.819775
vt 0.926764 0.926689
vt 0.973094 0.748563
vt 0.902928 0.796013
vt 0.902928 0.926689
vt 0.994619 0.427655
vt 0.016143 0.988468
vt 0.916001 0.997973
vt 0.641554 0.475225
vt 0.910620 0.962331
vt 0.005381 0.988468
vt 0.415822 0.451464
vt 0.910620 0.997972
vt 0.451464 0.451464
vt 0.973094 0.000000
vt 0.916001 0.962331
vt 0.967713 0.356419
vt 0.677196 0.475225
vt 0.867286 0.451464
vt 0.021525 0.988468
vt 0.910620 0.997973
vt 0.910620 0.962331
vt 0.962332 0.356419
vt 0.831645 0.451464
vt 0.905239 0.997972
vt 0.967713 0.000000
vt 0.807883 0.451464
vt 0.905239 0.962331
vt 0.000000 0.988468
vt 0.772241 0.451464
vt 0.983857 0.285135
vt 0.953669 0.926689
vt 0.641554 0.689075
vt 0.723092 0.931441
vt 0.380180 0.926689
vt 0.766214 0.931441
vt 0.989238 0.380180
vt 0.921382 0.962331
vt 0.415822 0.237613
vt 0.723092 0.969459
vt 0.757590 0.969460
vt 0.418198 0.926689
vt 0.757590 0.931441
vt 0.418198 0.964707
vt 0.792088 0.969459
vt 0.994619 0.772241
vt 0.983857 0.190090
vt 0.641554 0.594030
vt 0.989238 0.285135
vt 0.916001 0.962331
vt 0.415822 0.332657
vt 0.921382 0.997972
vt 0.451464 0.237613
vt 0.973094 0.213875
vt 0.380180 0.964707
vt 0.792088 0.931441
vt 0.766214 0.969459
vt 0.451464 0.332657
vt 0.973094 0.118806
vt 0.916001 0.926689
vt 0.953669 0.962331
vt 0.978475 0.106937
vt 0.677196 0.689075
vt 0.994619 0.807883
vt 0.967713 0.237613
vt 0.677196 0.594030
vt 0.959050 0.962331
vt 0.831645 0.237612
vt 0.973094 0.106937
vt 0.916001 0.997972
vt 0.978475 0.213875
vt 0.807883 0.237612
vt 0.983857 0.380180
vt 0.916001 0.962331
vt 0.772242 0.237612
vt 0.989238 0.285135
vt 0.959050 0.926689
vt 0.867287 0.237613
vt 0.731716 0.926689
vt 0.843525 0.261374
vt 0.757590 0.926689
vt 0.796003 0.261374
vt 0.783463 0.926689
vt 0.757590 0.974211
vt 0.989238 0.772241
vt 0.989238 0.190090
vt 0.867286 0.332658
vt 0.731716 0.974211
vt 0.748965 0.974212
vt 0.843525 0.308896
vt 0.748965 0.926689
vt 0.796003 0.308896
vt 0.783463 0.974211
vt 0.983857 0.285135
vt 0.772241 0.332657
vt 0.910620 0.962331
vt 0.989238 0.807883
vt 0.962332 0.237613
vt 0.831645 0.332658
vt 0.967713 0.118806
vt 0.807883 0.332658
vt 0.910620 0.926689
vt 0.451464 0.000000
vt 0.994619 0.498915
vt 0.978475 0.475225
vt 0.905239 0.962331
vt 0.415822 0.035630
vt 0.983856 0.665315
vt 0.948288 0.926689
vt 0.641554 0.891058
vt 0.521207 0.969459
vt 0.478085 0.969460
vt 0.266126 0.964707
vt 0.478085 0.931441
vt 0.228108 0.964707
vt 0.460836 0.969459
vt 0.994619 0.558389
vt 0.983856 0.760360
vt 0.641554 0.796015
vt 0.978475 0.570270
vt 0.921382 0.962331
vt 0.415822 0.130675
vt 0.451464 0.035630
vt 0.905239 0.997972
vt 0.994619 0.534545
vt 0.486709 0.969459
vt 0.228108 0.926689
vt 0.460836 0.931441
vt 0.451464 0.130675
vt 0.973094 0.106937
vt 0.921382 0.926689
vt 1.000000 0.392025
vt 0.677196 0.926689
vt 0.948288 0.962331
vt 0.677196 0.891058
vt 1.000000 0.427655
vt 0.486709 0.931441
vt 0.521207 0.931441
vt 0.266126 0.926689
vt 0.994619 0.594031
vt 0.978475 0.000000
vt 0.677196 0.796013
vt 0.807884 0.000000
vt 1.000000 0.498915
vt 0.978475 0.665315
vt 0.953669 0.926689
vt 0.867287 0.035630
vt 0.953669 0.962331
vt 0.831645 0.035630
vt 0.994619 0.427655
vt 0.899858 0.997972
vt 0.807884 0.035630
vt 1.000000 0.534545
vt 0.478085 0.926689
vt 0.529832 0.926689
vt 0.843525 0.059391
vt 0.478085 0.974211
vt 0.796003 0.059391
vt 0.452211 0.926689
vt 0.983856 0.475225
vt 0.899858 0.962331
vt 0.772242 0.035630
vt 0.529832 0.974211
vt 0.469460 0.974212
vt 0.843525 0.106914
vt 0.469460 0.926689
vt 0.796003 0.106914
vt 0.452211 0.974211
vt 0.989238 0.558389
vt 0.978475 0.760360
vt 0.867287 0.130675
vt 0.989238 0.594031
vt 0.973094 0.000000
vt 0.831645 0.130675
vt 0.978475 0.106937
vt 0.807884 0.130675
vt 0.916001 0.926689
vt 0.983856 0.570270
vt 0.772242 0.130675
vt 0.916001 0.962331
vt 0.831645 0.000000
vt 0.994619 0.392025
vt 0.564330 0.475225
vt 0.564330 0.689075
vt 0.564330 0.594030
vt 0.564330 0.926689
vt 0.564330 0.891058
vt 0.564330 0.796015
vt 0.021525 0.964707
vt 0.926764 0.997972
vt 0.261374 0.475225
vt 0.926764 0.962331
vt 0.225732 0.475225
vt 0.967713 0.475225
vt 0.867287 0.451464
vt 0.026906 0.964707
vt 0.932145 0.997972
vt 0.932145 0.962331
vt 0.973094 0.475225
vt 0.902928 0.451464
vt 0.989238 0.487105
vt 0.261374 0.689076
vt 0.978475 0.190090
vt 0.826586 0.969460
vt 0.679969 0.969460
vt 0.114054 0.926689
vt 0.889096 0.997972
vt 0.261374 0.594031
vt 0.978475 0.285135
vt 0.989238 0.451464
vt 0.225732 0.689076
vt 0.973094 0.427750
vt 0.826586 0.931442
vt 0.602348 0.969460
vt 0.114054 0.964706
vt 0.889096 0.962331
vt 0.225732 0.594031
vt 0.967713 0.356419
vt 0.994619 0.451464
vt 0.902928 0.237612
vt 0.978475 0.427750
vt 0.994619 0.487105
vt 0.867287 0.237612
vt 0.983857 0.190090
vt 0.835211 0.974211
vt 0.891048 0.261374
vt 0.671344 0.974212
vt 0.883714 0.997972
vt 0.867287 0.332657
vt 0.983857 0.285135
vt 0.835211 0.926689
vt 0.610973 0.974212
vt 0.891047 0.308897
vt 0.883714 0.962331
vt 0.973094 0.356419
vt 0.902928 0.332657
vt 0.983856 0.154448
vt 0.261374 0.891059
vt 0.989238 0.190090
vt 0.688593 0.969460
vt 0.435447 0.969460
vt 0.000000 0.926689
vt 0.978475 0.986187
vt 0.261374 0.796014
vt 0.989238 0.285135
vt 0.994619 0.320765
vt 0.225732 0.926689
vt 0.983856 0.118806
vt 0.225732 0.891059
vt 0.994619 0.356394
vt 0.435447 0.931442
vt 0.610973 0.969460
vt 0.000000 0.964706
vt 0.978475 0.950545
vt 0.225732 0.796014
vt 0.973094 0.320812
vt 0.989238 0.154448
vt 0.867287 0.035629
vt 0.994619 0.190090
vt 0.989238 0.118806
vt 0.902928 0.035629
vt 1.000000 0.356394
vt 0.679969 0.974212
vt 0.444072 0.974213
vt 0.891048 0.059391
vt 0.973094 0.986187
vt 0.867287 0.130674
vt 0.994619 0.285135
vt 0.444072 0.926689
vt 0.619597 0.974212
vt 0.891048 0.106915
vt 0.973094 0.950545
vt 0.978475 0.320812
vt 0.902928 0.130674
vt 0.902928 0.000000
vt 1.000000 0.320765
vt 0.016143 0.964707
vt 0.994619 0.843524
vt 0.641554 0.451464
vt 0.005381 0.964707
vt 0.994619 0.772241
vt 0.415822 0.475225
vt 0.994619 0.736599
vt 0.962332 0.475224
vt 0.451464 0.475225
vt 0.994619 0.879166
vt 0.677196 0.451464
vt 0.967713 0.356419
vt 0.867286 0.475225
vt 0.021525 0.964707
vt 0.989238 0.843524
vt 0.989238 0.879166
vt 0.962332 0.356419
vt 0.831645 0.475225
vt 0.989238 0.736599
vt 0.967713 0.475224
vt 0.807883 0.475225
vt 0.000000 0.964707
vt 0.989238 0.772241
vt 0.772241 0.475225
vt 0.983857 0.760361
vt 0.449453 0.962331
vt 0.641554 0.237612
vt 0.978475 0.475225
vt 0.994619 0.451464
vt 0.415822 0.689076
vt 0.809337 0.931442
vt 0.602348 0.926689
vt 0.783463 0.969460
vt 0.809337 0.969460
vt 0.748965 0.931441
vt 0.564331 0.926689
vt 0.748965 0.969459
vt 0.564331 0.964707
vt 0.843835 0.931442
vt 0.994619 0.736599
vt 0.983857 0.855406
vt 0.641554 0.332657
vt 0.978475 0.380180
vt 0.910620 0.926689
vt 0.415822 0.594031
vt 0.994619 0.415822
vt 0.451464 0.689076
vt 0.978475 0.641624
vt 0.602348 0.964707
vt 0.843835 0.969460
vt 0.783463 0.931441
vt 0.962332 0.594030
vt 0.451464 0.594031
vt 0.910620 0.962330
vt 0.449453 0.997972
vt 0.967713 0.807907
vt 0.677196 0.237612
vt 0.994619 0.700957
vt 0.677196 0.332657
vt 0.967713 0.475224
vt 0.989238 0.760361
vt 0.444072 0.962331
vt 0.867287 0.689076
vt 0.444072 0.997972
vt 0.831645 0.689076
vt 0.973094 0.807907
vt 0.989238 0.415822
vt 0.807883 0.689076
vt 0.973094 0.641624
vt 0.800712 0.926689
vt 0.843525 0.665315
vt 0.774839 0.974212
vt 0.835211 0.974211
vt 0.796003 0.665315
vt 0.774839 0.926689
vt 0.983856 0.475225
vt 0.989238 0.451464
vt 0.772242 0.689076
vt 0.989238 0.736599
vt 0.989238 0.855406
vt 0.867286 0.594031
vt 0.800712 0.974211
vt 0.740341 0.926689
vt 0.843525 0.617793
vt 0.740341 0.974211
vt 0.796003 0.617793
vt 0.835211 0.926689
vt 0.983856 0.380180
vt 0.772241 0.594031
vt 0.905239 0.926689
vt 0.989238 0.700957
vt 0.962332 0.475224
vt 0.831645 0.594031
vt 0.967713 0.594030
vt 0.905239 0.962330
vt 0.807883 0.594031
vt 0.451464 0.926689
vt 1.000000 0.142555
vt 0.994619 0.665315
vt 0.994619 0.095045
vt 0.641554 0.035629
vt 0.978475 0.665316
vt 0.994619 0.629673
vt 0.415822 0.891059
vt 0.774839 0.931441
vt 0.114054 0.926689
vt 0.435447 0.969460
vt 0.418198 0.931442
vt 0.740341 0.931441
vt 0.076036 0.964706
vt 0.978475 0.570271
vt 0.415822 0.796014
vt 0.962332 0.986092
vt 0.994619 0.558389
vt 0.994619 0.000000
vt 0.641554 0.130674
vt 0.451464 0.891059
vt 0.994619 0.594031
vt 1.000000 0.178185
vt 0.740341 0.969459
vt 0.114054 0.964706
vt 0.435447 0.931442
vt 0.451464 0.796014
vt 0.978475 0.534687
vt 0.962332 0.950450
vt 0.994619 0.178186
vt 0.677196 0.000000
vt 0.994619 0.700957
vt 0.677196 0.035629
vt 0.994619 0.213816
vt 0.774839 0.969460
vt 0.418198 0.969460
vt 0.076036 0.926689
vt 0.994619 0.522748
vt 0.967713 0.700970
vt 0.677196 0.130674
vt 0.807884 0.926689
vt 0.994619 0.142555
vt 0.989238 0.700957
vt 0.831645 0.891059
vt 1.000000 0.213816
vt 0.989238 0.594031
vt 0.807884 0.891059
vt 0.994619 0.178185
vt 0.983856 0.665316
vt 0.989238 0.629673
vt 0.772242 0.891059
vt 0.766214 0.974212
vt 0.426823 0.974213
vt 0.843525 0.867298
vt 0.766214 0.926689
vt 0.796003 0.867298
vt 0.426823 0.974213
vt 0.989238 0.665315
vt 0.989238 0.095045
vt 0.867287 0.891059
vt 0.426823 0.926689
vt 0.731716 0.926689
vt 0.843525 0.819775
vt 0.731716 0.974211
vt 0.796003 0.819775
vt 0.426823 0.926689
vt 0.989238 0.558389
vt 0.989238 0.000000
vt 0.867287 0.796014
vt 0.989238 0.522748
vt 0.973094 0.700970
vt 0.831645 0.796014
vt 0.973094 0.534687
vt 0.807884 0.796014
vt 0.967713 0.950450
vt 0.983856 0.570271
vt 0.772242 0.796014
vt 0.967713 0.986092
vt 0.831645 0.926689
vt 1.000000 0.178186
vt 0.564330 0.451464
vt 0.564330 0.237612
vt 0.564330 0.332657
vt 0.564330 0.000000
vt 0.564330 0.035629
vt 0.564330 0.130674
vt 0.959050 0.962331
vt 0.010762 0.988468
vt 0.035642 0.475225
vt 0.967713 0.831643
vt 0.959050 0.997972
vt 0.000000 0.475225
vt 0.953669 0.962331
vt 0.005381 0.988468
vt 0.962332 0.475225
vt 0.962332 0.831643
vt 0.953669 0.997972
vt 0.926690 0.475225
vt 0.989238 0.475225
vt 1.000000 0.000000
vt 0.035642 0.689075
vt 0.654095 0.931441
vt 0.826586 0.969459
vt 0.266126 0.926689
vt 0.994619 0.950450
vt 0.989238 0.380180
vt 0.035642 0.594030
vt 0.973094 0.320813
vt 1.000000 0.035642
vt 0.000000 0.689075
vt 0.538456 0.969460
vt 0.826586 0.931441
vt 0.304144 0.926689
vt 0.967713 0.950449
vt 0.994619 0.914808
vt 0.000000 0.594030
vt 0.983857 0.475225
vt 0.994619 0.000000
vt 0.962332 0.689075
vt 0.978475 0.320813
vt 0.994619 0.035642
vt 0.926690 0.689075
vt 0.529832 0.974212
vt 0.817962 0.926689
vt 0.938570 0.665316
vt 0.645471 0.926689
vt 0.817962 0.974211
vt 0.938570 0.617792
vt 0.989238 0.950450
vt 0.983857 0.380180
vt 0.962332 0.594030
vt 0.962332 0.950449
vt 0.989238 0.914808
vt 0.926690 0.594030
vt 1.000000 0.392025
vt 0.000000 0.926689
vt 0.989238 0.665315
vt 0.926764 0.962331
vt 0.035642 0.891058
vt 0.994619 0.986187
vt 0.989238 0.570270
vt 0.035642 0.796013
vt 0.495334 0.931441
vt 0.469460 0.969459
vt 0.190090 0.926689
vt 0.000000 0.891058
vt 1.000000 0.356395
vt 0.926764 0.997972
vt 0.495334 0.931441
vt 0.469460 0.931441
vt 0.228108 0.926689
vt 0.973094 0.213875
vt 0.994619 0.950545
vt 0.000000 0.796013
vt 0.926690 0.891058
vt 0.994619 0.356395
vt 0.921382 0.997972
vt 0.983857 0.665315
vt 0.962332 0.891058
vt 0.921382 0.962331
vt 0.503958 0.926689
vt 0.460836 0.926689
vt 0.938571 0.867298
vt 0.989238 0.986187
vt 0.983857 0.570270
vt 0.962332 0.796013
vt 0.486709 0.926689
vt 0.460836 0.974211
vt 0.938571 0.819775
vt 0.978475 0.213875
vt 0.989238 0.950545
vt 0.926690 0.796013
vt 0.926690 0.926689
vt 0.994619 0.392025
vt 0.032287 0.988468
vt 0.983857 0.950546
vt 0.487106 0.475225
vt 0.994619 0.843525
vt 0.010762 0.988468
vt 0.190090 0.475225
vt 0.994619 0.807882
vt 0.225732 0.475225
vt 0.967713 0.475224
vt 0.983857 0.986189
vt 0.973094 0.237613
vt 0.451464 0.475225
vt 0.026906 0.988468
vt 0.978475 0.950546
vt 0.772241 0.475225
vt 0.978475 0.986189
vt 0.967713 0.237613
vt 0.736599 0.475225
vt 0.989238 0.807882
vt 0.973094 0.475224
vt 0.712838 0.475225
vt 0.677196 0.475225
vt 0.989238 0.843525
vt 0.016143 0.988468
vt 0.983857 0.570271
vt 0.994619 0.522749
vt 0.190090 0.689075
vt 0.978475 0.000000
vt 0.989238 0.154448
vt 0.487106 0.689076
vt 0.619597 0.969460
vt 0.342162 0.964706
vt 0.792088 0.931441
vt 0.967713 0.914845
vt 0.978475 0.095045
vt 0.487106 0.594031
vt 0.861084 0.969459
vt 0.705842 0.931442
vt 0.304144 0.926689
vt 0.983857 0.475225
vt 1.000000 0.071283
vt 0.190090 0.594030
vt 0.994619 0.487106
vt 0.225732 0.689075
vt 0.973094 0.914844
vt 0.705842 0.969460
vt 0.304144 0.964706
vt 0.792088 0.969459
vt 0.225732 0.594030
vt 0.967713 0.594030
vt 1.000000 0.106926
vt 0.989238 0.190090
vt 0.973094 0.534688
vt 0.451464 0.689076
vt 0.619597 0.931442
vt 0.861084 0.931441
vt 0.342162 0.926689
vt 0.967713 0.950487
vt 0.973094 0.356419
vt 0.451464 0.594031
vt 0.983857 0.000000
vt 0.983857 0.154448
vt 0.772241 0.689075
vt 0.983857 0.190090
vt 0.736599 0.689075
vt 0.978475 0.534688
vt 0.989238 0.487106
vt 0.967713 0.914844
vt 0.712838 0.689075
vt 0.989238 0.570271
vt 0.989238 0.522749
vt 0.677196 0.689075
vt 0.628222 0.926689
vt 0.852460 0.926689
vt 0.748480 0.665316
vt 0.628222 0.974211
vt 0.700958 0.665316
vt 0.800712 0.926689
vt 0.973094 0.914845
vt 0.983857 0.095045
vt 0.772241 0.594030
vt 0.852460 0.974211
vt 0.697218 0.926689
vt 0.748480 0.617792
vt 0.697218 0.974211
vt 0.700958 0.617792
vt 0.800712 0.974211
vt 0.989238 0.475225
vt 0.677196 0.594030
vt 0.994618 0.071283
vt 0.973094 0.950487
vt 0.967713 0.356419
vt 0.736599 0.594030
vt 0.973094 0.594030
vt 0.712838 0.594030
vt 0.994618 0.106926
vt 0.994619 0.190090
vt 0.948288 0.962330
vt 0.487106 0.891059
vt 0.983856 0.095045
vt 0.973094 0.986128
vt 0.190090 0.891058
vt 0.503958 0.931442
vt 0.645471 0.931441
vt 0.152072 0.964706
vt 0.503958 0.969460
vt 0.152072 0.926689
vt 0.662720 0.931441
vt 0.645471 0.969459
vt 0.521207 0.931442
vt 0.190090 0.964706
vt 0.521207 0.969460
vt 0.190090 0.926689
vt 0.662720 0.969459
vt 1.000000 0.071285
vt 0.994619 0.095045
vt 0.487106 0.796014
vt 0.983856 0.190090
vt 0.937526 0.997972
vt 0.190090 0.796013
vt 0.225732 0.926689
vt 0.994619 0.285076
vt 0.225732 0.891058
vt 0.973094 0.950485
vt 0.994619 0.249446
vt 0.225732 0.796013
vt 0.973094 0.807906
vt 0.937526 0.962330
vt 1.000000 0.249446
vt 0.451464 0.926689
vt 0.948288 0.997972
vt 0.451464 0.891059
vt 1.000000 0.213816
vt 1.000000 0.035643
vt 0.973094 0.427750
vt 0.451464 0.796014
vt 0.712839 0.926689
vt 1.000000 0.285076
vt 0.989238 0.190090
vt 0.942907 0.962330
vt 0.772241 0.891058
vt 0.942907 0.997972
vt 0.736600 0.891058
vt 0.994619 0.213816
vt 0.967713 0.950485
vt 0.712838 0.891058
vt 1.000000 0.249446
vt 0.978475 0.095045
vt 0.967713 0.986128
vt 0.677197 0.891058
vt 0.512583 0.926689
vt 0.636846 0.926689
vt 0.748480 0.867298
vt 0.512583 0.974211
vt 0.700958 0.867298
vt 0.671344 0.926689
vt 0.994619 0.071285
vt 0.989238 0.095045
vt 0.772241 0.796013
vt 0.636846 0.974211
vt 0.512583 0.926689
vt 0.748480 0.819775
vt 0.512583 0.974211
vt 0.700958 0.819775
vt 0.671344 0.974211
vt 0.978475 0.190090
vt 0.677196 0.796015
vt 0.942907 0.997972
vt 0.994619 0.035643
vt 0.978475 0.427750
vt 0.736600 0.796013
vt 0.967713 0.807906
vt 0.712838 0.796013
vt 0.942907 0.962330
vt 0.736600 0.926689
vt 0.994619 0.249446
vt 0.564329 0.475225
vt 0.564329 0.689076
vt 0.564329 0.594031
vt 0.564329 0.926689
vt 0.564329 0.891059
vt 0.564329 0.796014
vt 0.010762 0.964707
vt 0.942907 0.926689
vt 0.035642 0.451464
vt 0.942907 0.962331
vt 0.000000 0.451464
vt 0.962332 0.594031
vt 0.005381 0.964707
vt 0.948288 0.926689
vt 0.962332 0.451464
vt 0.948288 0.962331
vt 0.967713 0.594031
vt 0.926690 0.451464
vt 0.983856 0.095045
vt 0.926764 0.926689
vt 0.035642 0.237612
vt 0.602348 0.931441
vt 0.861084 0.969460
vt 0.152072 0.964706
vt 0.937526 0.962331
vt 0.983856 0.000000
vt 0.035642 0.332657
vt 0.926764 0.962331
vt 0.000000 0.237612
vt 0.978475 0.748562
vt 0.679969 0.931441
vt 0.861084 0.931442
vt 0.152072 0.926689
vt 0.937526 0.997972
vt 0.000000 0.332657
vt 0.962332 0.712837
vt 0.989238 0.095045
vt 0.932145 0.926689
vt 0.962332 0.237612
vt 0.932145 0.962331
vt 0.926690 0.237612
vt 0.973094 0.748562
vt 0.671344 0.926689
vt 0.869709 0.926689
vt 0.938571 0.261374
vt 0.610973 0.926689
vt 0.869709 0.974211
vt 0.938570 0.308897
vt 0.932145 0.962331
vt 0.989238 0.000000
vt 0.962332 0.332657
vt 0.932145 0.997972
vt 0.967713 0.712837
vt 0.926690 0.332657
vt 1.000000 0.106926
vt 0.000000 0.000000
vt 0.989238 0.380180
vt 0.937526 0.926689
vt 0.035642 0.035629
vt 0.688593 0.931441
vt 0.547081 0.931442
vt 0.038018 0.926689
vt 0.610973 0.931441
vt 0.547081 0.969460
vt 0.038018 0.964706
vt 0.953669 0.962331
vt 0.989238 0.285135
vt 0.035642 0.130674
vt 0.937526 0.962331
vt 0.000000 0.035629
vt 1.000000 0.142555
vt 0.953669 0.997972
vt 0.000000 0.130674
vt 0.978475 0.641624
vt 0.994619 0.380180
vt 0.942907 0.926689
vt 0.962332 0.035629
vt 0.942907 0.962331
vt 0.926690 0.035629
vt 0.994619 0.142555
vt 0.679969 0.926689
vt 0.555706 0.926689
vt 0.938571 0.059391
vt 0.948288 0.962331
vt 0.994619 0.285135
vt 0.962332 0.130674
vt 0.619597 0.926689
vt 0.555706 0.974213
vt 0.938571 0.106915
vt 0.948288 0.997972
vt 0.973094 0.641624
vt 0.926690 0.130674
vt 0.926690 0.000000
vt 0.994619 0.106926
vt 0.032287 0.964707
vt 0.889096 0.926689
vt 0.487106 0.451464
vt 0.010762 0.964707
vt 0.444072 0.962332
vt 0.190090 0.451464
vt 0.444072 0.926689
vt 0.967713 0.118806
vt 0.225732 0.451464
vt 0.889096 0.962332
vt 0.451464 0.451464
vt 0.962332 0.000000
vt 0.026906 0.964707
vt 0.772241 0.451464
vt 0.894477 0.926689
vt 0.894477 0.962332
vt 0.967713 0.000000
vt 0.736599 0.451464
vt 0.449453 0.926689
vt 0.962332 0.118806
vt 0.712838 0.451464
vt 0.677196 0.451464
vt 0.016143 0.964707
vt 0.449453 0.962332
vt 0.989238 0.760361
vt 0.883714 0.962332
vt 0.190090 0.237612
vt 0.973094 0.950545
vt 0.894477 0.926689
vt 0.487106 0.237613
vt 0.723092 0.931442
vt 0.878333 0.969460
vt 0.342162 0.926689
vt 0.723092 0.969460
vt 0.342162 0.964706
vt 0.843835 0.969460
vt 0.878333 0.931442
vt 0.688594 0.931442
vt 0.380180 0.926689
vt 0.688594 0.969460
vt 0.380180 0.964706
vt 0.843835 0.931442
vt 0.989238 0.665316
vt 0.989238 0.986189
vt 0.190090 0.332657
vt 0.994619 0.629673
vt 0.973094 0.855500
vt 0.487106 0.332658
vt 0.883714 0.926689
vt 0.225732 0.237612
vt 0.973094 0.594030
vt 0.967713 0.237612
vt 0.225732 0.332657
vt 0.989238 0.950546
vt 0.894477 0.962332
vt 0.967713 0.130674
vt 0.451464 0.237613
vt 0.994619 0.665316
vt 0.451464 0.332658
vt 0.962332 0.118806
vt 0.899858 0.962332
vt 0.736599 0.237612
vt 0.973094 0.130674
vt 0.889096 0.926689
vt 0.712838 0.237612
vt 0.967713 0.594030
vt 0.983857 0.760361
vt 0.889096 0.962332
vt 0.677196 0.237612
vt 0.978475 0.950545
vt 0.899858 0.926689
vt 0.772241 0.237612
vt 0.714467 0.926689
vt 0.869709 0.974211
vt 0.748480 0.261374
vt 0.714467 0.974211
vt 0.852460 0.974211
vt 0.700958 0.261374
vt 0.989238 0.629673
vt 0.978475 0.855500
vt 0.772241 0.332657
vt 0.869709 0.926689
vt 0.697218 0.926689
vt 0.748480 0.308897
vt 0.697218 0.974211
vt 0.700957 0.308897
vt 0.852460 0.926689
vt 0.983857 0.665316
vt 0.677196 0.332657
vt 0.983857 0.986189
vt 0.989238 0.665316
vt 0.967713 0.118806
vt 0.736599 0.332657
vt 0.962332 0.237612
vt 0.983857 0.950546
vt 0.712838 0.332657
vt 0.225732 0.000000
vt 0.994619 0.285135
vt 1.000000 0.463285
vt 0.451464 0.000000
vt 0.978475 0.855406
vt 0.899858 0.926689
vt 0.487106 0.035630
vt 0.714467 0.931442
vt 0.547081 0.969460
vt 0.038017 0.964706
vt 0.714467 0.969460
vt 0.076035 0.964706
vt 0.555706 0.969460
vt 0.989238 0.950449
vt 0.878333 0.962332
vt 0.190090 0.035629
vt 0.994619 0.380180
vt 0.978475 0.760361
vt 0.487106 0.130675
vt 0.989238 0.855404
vt 0.190090 0.130674
vt 0.994619 0.914808
vt 0.225732 0.035629
vt 0.878333 0.926689
vt 0.994619 0.320765
vt 0.628222 0.969460
vt 0.076035 0.926689
vt 0.555706 0.931442
vt 0.225732 0.130674
vt 0.973094 0.700968
vt 0.994619 0.879166
vt 0.899858 0.962332
vt 0.451464 0.035630
vt 1.000000 0.498915
vt 0.547081 0.931442
vt 0.628222 0.931442
vt 0.038017 0.926689
vt 0.994619 0.415823
vt 0.967713 0.237612
vt 0.451464 0.130675
vt 0.712838 0.000000
vt 1.000000 0.285135
vt 0.983856 0.855406
vt 0.905239 0.926689
vt 0.772241 0.035629
vt 0.905239 0.962332
vt 0.736600 0.035629
vt 0.994619 0.498915
vt 0.883714 0.926689
vt 0.712838 0.035629
vt 1.000000 0.320765
vt 0.705842 0.926689
vt 0.538456 0.974213
vt 0.748480 0.059391
vt 0.705842 0.974211
vt 0.700958 0.059391
vt 0.564330 0.974213
vt 0.983857 0.950449
vt 0.883714 0.962332
vt 0.677196 0.035629
vt 0.538456 0.926689
vt 0.636846 0.926689
vt 0.748480 0.106915
vt 0.636846 0.974211
vt 0.700958 0.106915
vt 0.564330 0.926689
vt 0.989238 0.380180
vt 0.983856 0.760361
vt 0.772241 0.130674
vt 0.989238 0.415823
vt 0.973094 0.237612
vt 0.736600 0.130674
vt 0.967713 0.700968
vt 0.712838 0.130674
vt 0.989238 0.879166
vt 0.983857 0.855404
vt 0.677196 0.130674
vt 0.989238 0.914808
vt 0.736600 0.000000
vt 0.994619 0.463285
vt 0.564329 0.451464
vt 0.564329 0.237613
vt 0.564329 0.332658
vt 0.564329 0.000000
vt 0.564329 0.035630
vt 0.564329 0.130675
s 0
f 2/4/1 1/1/1 3/7/1 4/10/1
f 6/16/2 10/28/2 16/46/2 15/43/2
f 9/25/3 8/22/3 13/37/3 14/40/3
f 14/41/4 206/580/4 198/556/4 9/26/4
f 6/17/5 1/3/5 2/5/5 10/29/5
f 7/19/1 5/13/1 11/31/1 12/34/1
f 10/30/6 2/6/6 4/11/6 16/47/6
f 11/32/5 15/44/5 14/42/5 13/38/5
f 204/576/5 12/36/5 13/38/5 205/579/5
f 206/582/5 14/42/5 16/48/5 208/588/5
f 208/586/7 196/550/7 194/544/7 202/568/7
f 214/603/8 218/615/8 26/75/8 18/52/8
f 11/32/5 13/38/5 12/36/5
f 14/42/5 15/44/5 16/48/5
f 20/58/2 23/66/2 29/84/2 27/78/2
f 19/55/3 18/53/3 26/76/3 28/81/3
f 28/82/4 220/621/4 212/597/4 19/56/4
f 20/59/5 5/14/5 7/20/5 23/67/5
f 22/63/1 17/49/1 24/69/1 25/72/1
f 23/68/6 7/21/6 12/35/6 29/85/6
f 21/62/5 17/50/5 22/64/5
f 24/70/5 27/79/5 28/83/5 26/77/5
f 216/609/5 25/73/5 26/77/5 218/617/5
f 220/623/5 28/83/5 29/86/5 221/626/5
f 222/627/5 30/87/5 25/73/5 216/609/5
f 221/624/7 204/574/7 200/562/7 215/606/7
f 24/70/5 26/77/5 25/73/5
f 28/83/5 27/79/5 29/86/5
f 21/61/6 22/65/6 25/74/6 30/88/6
f 131/371/5 132/376/5 36/106/5 35/101/5
f 127/359/6 131/372/6 35/102/6 31/89/6
f 32/92/1 33/95/1 37/107/1 38/110/1
f 34/98/1 31/90/1 35/103/1 36/104/1
f 95/269/5 96/270/5 68/201/5 65/192/5
f 75/219/8 71/208/8 82/239/8 81/236/8
f 44/128/2 50/146/2 61/179/2 57/167/2
f 42/122/3 40/116/3 55/161/3 58/170/3
f 45/131/7 41/119/7 53/155/7 60/176/7
f 42/123/4 58/171/4 59/173/4 43/125/4
f 48/140/5 33/96/5 32/94/5 45/133/5
f 37/108/7 33/97/7 48/141/7 62/182/7
f 41/120/1 46/134/1 52/152/1 53/156/1
f 39/113/6 44/129/6 57/168/6 54/158/6
f 40/117/5 42/124/5 43/126/5 47/137/5
f 49/143/1 39/114/1 54/159/1 51/149/1
f 61/181/5 36/106/5 37/109/5 62/183/5
f 54/160/5 57/169/5 58/172/5 55/162/5
f 55/162/5 56/164/5 52/154/5 51/150/5
f 59/174/5 62/183/5 60/177/5
f 56/164/5 59/174/5 60/177/5 53/157/5
f 61/181/5 62/183/5 59/174/5 58/172/5
f 52/154/5 56/164/5 53/157/5
f 50/147/6 34/99/6 36/105/6 61/180/6
f 47/138/9 43/127/9 59/175/9 56/165/9
f 54/160/5 55/162/5 51/150/5
f 58/172/5 57/169/5 61/181/5
f 6/17/5 45/133/5 32/94/5 1/3/5
f 44/130/5 31/91/5 34/100/5 50/148/5
f 48/142/2 45/132/2 60/178/2 62/184/2
f 6/17/5 5/14/5 41/121/5 45/133/5
f 5/14/5 20/59/5 69/204/5 41/121/5
f 68/199/2 76/222/2 87/254/2 86/251/2
f 66/193/3 75/220/3 81/237/3 84/245/3
f 69/202/7 64/187/7 83/242/7 89/260/7
f 66/194/4 84/246/4 85/248/4 67/196/4
f 63/185/5 70/205/5 64/189/5
f 64/189/5 17/50/5 21/62/5 63/185/5
f 72/211/5 46/135/5 41/121/5 69/204/5
f 52/153/7 46/136/7 72/212/7 88/257/7
f 64/188/1 70/206/1 80/233/1 83/243/1
f 65/190/6 68/200/6 86/252/6 78/227/6
f 75/221/5 66/195/5 67/197/5 71/209/5
f 74/216/1 65/191/1 78/228/1 79/230/1
f 52/154/5 88/258/5 87/256/5 51/150/5
f 73/215/5 65/192/5 74/217/5
f 78/229/5 86/253/5 84/247/5 81/238/5
f 81/238/5 82/240/5 80/234/5 79/231/5
f 85/249/5 88/258/5 89/261/5
f 82/240/5 85/249/5 89/261/5 83/244/5
f 87/256/5 88/258/5 85/249/5 84/247/5
f 79/231/5 80/234/5 77/225/5 90/263/5
f 80/234/5 82/240/5 83/244/5
f 76/223/6 49/144/6 51/151/6 87/255/6
f 71/210/9 67/198/9 85/250/9 82/241/9
f 78/229/5 81/238/5 79/231/5
f 84/247/5 86/253/5 87/256/5
f 68/201/5 39/115/5 49/145/5 76/224/5
f 73/214/6 74/218/6 79/232/6 90/264/6
f 70/207/7 63/186/7 77/226/7 80/235/7
f 72/213/2 69/203/2 89/262/2 88/259/2
f 20/59/5 17/50/5 64/189/5 69/204/5
f 93/267/5 91/265/5 31/91/5 44/130/5
f 99/277/5 100/282/5 4/12/5 3/8/5
f 73/215/5 94/268/5 95/269/5 65/192/5
f 96/270/5 92/266/5 39/115/5 68/201/5
f 92/266/5 93/267/5 44/130/5 39/115/5
f 132/376/5 133/379/5 37/109/5 36/106/5
f 40/118/8 47/139/8 56/166/8 55/163/8
f 38/111/7 134/380/7 128/362/7 32/93/7
f 127/361/5 31/91/5 91/265/5 187/535/5
f 201/565/8 205/577/8 13/39/8 8/23/8
f 97/271/6 99/278/6 3/9/6 1/2/6
f 128/364/5 97/273/5 1/3/5 32/94/5
f 325/919/5 229/649/5 230/650/5 326/920/5
f 98/274/2 100/280/2 99/279/2 97/272/2
f 103/289/1 110/310/1 112/316/1 106/298/1
f 111/313/3 109/307/3 102/286/3 105/295/3
f 105/296/8 294/826/8 302/850/8 111/314/8
f 106/299/5 98/275/5 97/273/5 103/290/5
f 104/292/2 107/301/2 108/304/2 101/283/2
f 125/356/5 317/896/5 300/845/5 107/302/5
f 108/305/5 109/308/5 111/315/5 110/311/5
f 300/845/5 301/849/5 109/308/5 107/302/5
f 302/852/5 304/858/5 112/318/5 111/315/5
f 307/864/4 114/322/4 122/345/4 314/885/4
f 112/317/6 100/281/6 98/276/6 106/300/6
f 108/305/5 107/302/5 109/308/5
f 111/315/5 112/318/5 110/311/5
f 115/325/1 123/348/1 125/354/1 119/336/1
f 124/351/3 122/346/3 114/323/3 118/333/3
f 118/334/8 308/867/8 316/891/8 124/352/8
f 119/337/5 104/293/5 101/284/5 115/326/5
f 117/330/2 121/342/2 120/339/2 113/319/2
f 116/329/5 117/331/5 113/320/5
f 120/340/5 122/347/5 124/353/5 123/349/5
f 313/883/5 314/887/5 122/347/5 121/343/5
f 316/893/5 317/896/5 125/356/5 124/353/5
f 318/897/5 313/883/5 121/343/5 126/357/5
f 112/318/5 304/858/5 292/822/5 100/282/5
f 125/355/6 107/303/6 104/294/6 119/338/6
f 120/340/5 121/343/5 122/347/5
f 124/353/5 125/356/5 123/349/5
f 116/328/6 126/358/6 121/344/6 117/332/6
f 128/363/2 134/381/2 133/377/2 129/365/2
f 130/368/2 132/374/2 131/373/2 127/360/2
f 177/506/4 178/509/4 162/463/4 171/489/4
f 140/398/1 153/437/1 157/449/1 146/416/1
f 154/440/3 150/428/3 137/389/3 138/392/3
f 156/446/7 152/434/7 136/386/7 141/401/7
f 154/441/8 138/393/8 139/395/8 155/443/8
f 144/410/7 129/366/7 133/378/7 158/452/7
f 141/403/5 103/290/5 97/273/5 128/364/5
f 141/403/5 128/364/5 129/367/5 144/411/5
f 136/387/2 152/435/2 149/425/2 142/404/2
f 135/383/6 147/419/6 153/438/6 140/399/6
f 137/390/5 143/407/5 139/396/5 138/394/5
f 145/413/2 148/422/2 147/420/2 135/384/2
f 147/421/5 150/429/5 154/442/5 153/439/5
f 148/423/5 149/426/5 151/432/5 150/429/5
f 155/444/5 156/447/5 158/454/5
f 151/432/5 152/436/5 156/447/5 155/444/5
f 154/442/5 155/444/5 158/454/5 157/451/5
f 143/408/9 151/431/9 155/445/9 139/397/9
f 149/426/5 152/436/5 151/432/5
f 183/526/5 184/528/5 149/426/5 148/423/5
f 147/421/5 148/423/5 150/429/5
f 154/442/5 157/451/5 153/439/5
f 146/417/5 130/369/5 127/361/5 140/400/5
f 157/450/6 132/375/6 130/370/6 146/418/6
f 144/412/1 158/453/1 156/448/1 141/402/1
f 159/455/5 116/329/5 113/320/5 161/462/5
f 136/388/5 101/284/5 103/290/5 141/403/5
f 157/451/5 158/454/5 133/379/5 132/376/5
f 165/472/1 182/521/1 183/524/1 172/492/1
f 180/515/3 177/507/3 171/490/3 163/466/3
f 185/530/7 176/503/7 161/460/7 164/469/7
f 180/516/8 163/467/8 167/478/8 181/518/8
f 159/455/5 161/462/5 166/475/5
f 164/470/5 115/326/5 101/284/5 136/388/5
f 164/470/5 136/388/5 142/405/5 168/481/5
f 168/482/7 142/406/7 149/427/7 184/527/7
f 161/461/2 176/504/2 175/500/2 166/476/2
f 171/491/5 162/464/5 167/479/5 163/468/5
f 170/486/2 174/497/2 179/512/2 160/457/2
f 161/462/5 113/320/5 115/326/5 164/470/5
f 169/485/5 170/487/5 160/459/5
f 174/498/5 175/501/5 178/510/5 177/508/5
f 181/519/5 185/531/5 184/528/5
f 178/510/5 176/505/5 185/531/5 181/519/5
f 180/517/5 181/519/5 184/528/5 183/526/5
f 173/495/5 175/501/5 174/498/5 186/533/5
f 175/501/5 176/505/5 178/510/5
f 162/465/9 178/511/9 181/520/9 167/480/9
f 183/525/6 148/424/6 145/414/6 172/493/6
f 179/514/5 174/498/5 177/508/5
f 180/517/5 183/526/5 182/523/5
f 172/494/5 145/415/5 135/385/5 165/474/5
f 169/484/6 186/534/6 174/499/6 170/488/6
f 166/477/7 175/502/7 173/496/7 159/456/7
f 168/483/1 184/529/1 185/532/1 164/471/1
f 160/458/6 179/513/6 182/522/6 165/473/6
f 206/581/9 205/578/9 201/566/9 198/557/9
f 165/474/5 192/540/5 191/539/5 160/459/5
f 140/400/5 127/361/5 187/535/5 189/537/5
f 165/474/5 135/385/5 188/536/5 192/540/5
f 160/459/5 191/539/5 190/538/5 169/485/5
f 140/400/5 189/537/5 188/536/5 135/385/5
f 150/430/4 151/433/4 143/409/4 137/391/4
f 297/835/4 102/287/4 109/309/4 301/847/4
f 194/545/1 196/551/1 195/547/1 193/541/1
f 199/559/2 207/583/2 208/587/2 202/569/2
f 8/24/5 9/27/5 198/558/5 201/567/5
f 5/15/6 6/18/6 15/45/6 11/33/6
f 197/553/7 203/571/7 207/584/7 199/560/7
f 202/570/5 194/546/5 193/543/5 199/561/5
f 200/563/1 204/575/1 203/572/1 197/554/1
f 196/552/5 208/588/5 16/48/5 4/12/5
f 203/573/5 205/579/5 206/582/5 207/585/5
f 220/622/9 218/616/9 214/604/9 212/598/9
f 203/573/5 204/576/5 205/579/5
f 206/582/5 208/588/5 207/585/5
f 211/594/2 219/618/2 221/625/2 215/607/2
f 18/54/5 19/57/5 212/599/5 214/605/5
f 17/51/6 20/60/6 27/80/6 24/71/6
f 210/591/7 217/612/7 219/619/7 211/595/7
f 209/590/5 213/600/5 210/593/5
f 215/608/5 200/564/5 197/555/5 211/596/5
f 204/576/5 221/626/5 29/86/5 12/36/5
f 217/613/5 218/617/5 220/623/5 219/620/5
f 217/613/5 216/609/5 218/617/5
f 220/623/5 221/626/5 219/620/5
f 209/589/7 222/628/7 216/610/7 213/601/7
f 213/602/1 216/611/1 217/614/1 210/592/1
f 234/664/5 223/631/5 283/805/5 285/807/5
f 319/899/7 223/629/7 227/641/7 323/911/7
f 224/632/1 230/651/1 229/647/1 225/635/1
f 226/638/1 228/644/1 227/642/1 223/630/1
f 263/749/5 209/590/5 210/593/5 256/730/5
f 292/822/5 196/552/5 4/12/5 100/282/5
f 247/701/8 248/704/8 233/659/8 241/683/8
f 234/662/2 249/707/2 253/719/2 242/686/2
f 250/710/9 247/702/9 241/684/9 235/665/9
f 252/716/6 246/698/6 231/653/6 236/668/6
f 250/711/4 235/666/4 238/674/4 251/713/4
f 236/670/5 224/634/5 225/636/5 239/677/5
f 239/678/6 225/637/6 229/648/6 254/722/6
f 231/654/1 246/699/1 245/695/1 237/671/1
f 232/656/7 243/689/7 249/708/7 234/663/7
f 241/685/5 233/660/5 238/675/5 235/667/5
f 240/680/1 244/692/1 243/690/1 232/657/1
f 228/646/5 253/721/5 254/723/5 229/649/5
f 243/691/5 247/703/5 250/712/5 249/709/5
f 244/693/5 245/697/5 248/705/5 247/703/5
f 251/714/5 252/717/5 254/723/5
f 248/705/5 246/700/5 252/717/5 251/714/5
f 250/712/5 251/714/5 254/723/5 253/721/5
f 245/697/5 246/700/5 248/705/5
f 253/720/7 228/645/7 226/639/7 242/687/7
f 233/661/3 248/706/3 251/715/3 238/676/3
f 243/691/5 244/693/5 247/703/5
f 250/712/5 253/721/5 249/709/5
f 236/670/5 199/561/5 193/543/5 224/634/5
f 242/688/5 226/640/5 223/631/5 234/664/5
f 239/679/2 254/724/2 252/718/2 236/669/2
f 211/596/5 197/555/5 231/655/5 262/748/5
f 231/655/5 197/555/5 199/561/5 236/670/5
f 274/779/8 275/782/8 258/734/8 257/731/8
f 261/743/2 276/785/2 280/797/2 268/762/2
f 277/788/9 274/780/9 257/732/9 259/737/9
f 279/794/6 273/776/6 256/728/6 262/746/6
f 277/789/4 259/738/4 260/740/4 278/791/4
f 263/749/5 256/730/5 264/751/5
f 262/748/5 231/655/5 237/672/5 265/754/5
f 265/755/6 237/673/6 245/696/6 281/800/6
f 256/729/1 273/777/1 272/773/1 264/752/1
f 255/725/7 270/767/7 276/786/7 261/744/7
f 257/733/5 258/735/5 260/741/5 259/739/5
f 267/759/1 271/770/1 270/768/1 255/726/1
f 244/693/5 280/799/5 281/801/5 245/697/5
f 266/758/5 267/760/5 255/727/5
f 270/769/5 274/781/5 277/790/5 276/787/5
f 271/771/5 272/774/5 275/783/5 274/781/5
f 278/792/5 279/795/5 281/801/5
f 275/783/5 273/778/5 279/795/5 278/792/5
f 277/790/5 278/792/5 281/801/5 280/799/5
f 269/765/5 272/774/5 271/771/5 282/803/5
f 272/774/5 273/778/5 275/783/5
f 280/798/7 244/694/7 240/681/7 268/763/7
f 258/736/3 275/784/3 278/793/3 260/742/3
f 270/769/5 271/771/5 274/781/5
f 277/790/5 280/799/5 276/787/5
f 268/764/5 240/682/5 232/658/5 261/745/5
f 266/757/7 282/804/7 271/772/7 267/761/7
f 264/753/6 272/775/6 269/766/6 263/750/6
f 265/756/2 281/802/2 279/796/2 262/747/2
f 256/730/5 210/593/5 211/596/5 262/748/5
f 323/912/5 227/643/5 228/646/5 324/916/5
f 261/745/5 288/810/5 287/809/5 255/727/5
f 234/664/5 285/807/5 284/806/5 232/658/5
f 294/827/9 297/836/9 301/848/9 302/851/9
f 255/727/5 287/809/5 286/808/5 266/758/5
f 284/806/5 288/810/5 261/745/5 232/658/5
f 229/649/5 325/919/5 324/916/5 228/646/5
f 224/633/6 320/902/6 326/921/6 230/652/6
f 223/631/5 319/901/5 379/1075/5 283/805/5
f 289/811/7 193/542/7 195/548/7 291/817/7
f 193/543/5 289/813/5 320/904/5 224/634/5
f 290/814/2 289/812/2 291/818/2 292/820/2
f 295/829/1 298/838/1 304/856/1 303/853/1
f 102/288/5 297/837/5 294/828/5 105/297/5
f 101/285/6 108/306/6 110/312/6 103/291/6
f 293/823/7 295/830/7 303/854/7 299/841/7
f 295/831/5 289/813/5 290/815/5 298/839/5
f 296/832/2 293/824/2 299/842/2 300/844/2
f 299/843/5 303/855/5 302/852/5 301/849/5
f 308/868/9 307/865/9 314/886/9 316/892/9
f 298/840/7 290/816/7 292/821/7 304/857/7
f 299/843/5 301/849/5 300/845/5
f 302/852/5 303/855/5 304/858/5
f 309/870/1 311/876/1 317/894/1 315/888/1
f 114/324/5 307/866/5 308/869/5 118/335/5
f 113/321/6 120/341/6 123/350/6 115/327/6
f 306/861/7 309/871/7 315/889/7 312/879/7
f 309/872/5 293/825/5 296/833/5 311/877/5
f 310/873/2 306/862/2 312/880/2 313/882/2
f 305/860/5 306/863/5 310/874/5
f 312/881/5 315/890/5 316/893/5 314/887/5
f 311/878/7 296/834/7 300/846/7 317/895/7
f 312/881/5 314/887/5 313/883/5
f 316/893/5 315/890/5 317/896/5
f 305/859/7 310/875/7 313/884/7 318/898/7
f 320/903/2 321/905/2 325/917/2 326/922/2
f 322/908/2 319/900/2 323/913/2 324/914/2
f 329/929/4 330/932/4 344/974/4 343/971/4
f 334/944/1 338/956/1 349/989/1 345/977/1
f 331/935/9 329/930/9 343/972/9 346/980/9
f 333/941/6 327/923/6 341/965/6 348/986/6
f 331/936/8 346/981/8 347/983/8 332/938/8
f 333/943/5 320/904/5 289/813/5 295/831/5
f 325/918/6 321/906/6 336/950/6 350/992/6
f 336/951/5 321/907/5 320/904/5 333/943/5
f 327/924/2 335/947/2 340/962/2 341/966/2
f 328/926/7 334/945/7 345/978/7 342/968/7
f 329/931/5 331/937/5 332/939/5 330/933/5
f 337/953/2 328/927/2 342/969/2 339/959/2
f 342/970/5 345/979/5 346/982/5 343/973/5
f 343/973/5 344/976/5 340/963/5 339/960/5
f 347/984/5 350/994/5 348/987/5
f 344/976/5 347/984/5 348/987/5 341/967/5
f 349/991/5 350/994/5 347/984/5 346/982/5
f 330/934/3 332/940/3 347/985/3 344/975/3
f 340/963/5 344/976/5 341/967/5
f 340/963/5 376/1068/5 375/1066/5 339/960/5
f 342/970/5 343/973/5 339/960/5
f 346/982/5 345/979/5 349/991/5
f 334/946/5 319/901/5 322/909/5 338/957/5
f 358/1015/5 327/925/5 293/825/5 309/872/5
f 338/958/7 322/910/7 324/915/7 349/990/7
f 336/952/1 333/942/1 348/988/1 350/993/1
f 356/1010/5 306/863/5 305/860/5 351/995/5
f 325/919/5 350/994/5 349/991/5 324/916/5
f 295/831/5 293/825/5 327/925/5 333/943/5
f 354/1002/4 355/1005/4 370/1049/4 369/1046/4
f 357/1011/1 364/1032/1 375/1064/1 374/1061/1
f 363/1029/9 354/1003/9 369/1047/9 372/1055/9
f 358/1014/6 356/1008/6 371/1052/6 377/1070/6
f 363/1030/8 372/1056/8 373/1058/8 360/1020/8
f 351/995/5 359/1017/5 356/1010/5
f 361/1023/5 335/948/5 327/925/5 358/1015/5
f 340/964/6 335/949/6 361/1024/6 376/1067/6
f 356/1009/2 359/1018/2 368/1043/2 371/1053/2
f 353/999/7 357/1012/7 374/1062/7 366/1037/7
f 354/1004/5 363/1031/5 360/1021/5 355/1006/5
f 362/1026/2 353/1000/2 366/1038/2 367/1040/2
f 309/872/5 306/863/5 356/1010/5 358/1015/5
f 352/998/5 353/1001/5 362/1027/5
f 366/1039/5 374/1063/5 372/1057/5 369/1048/5
f 369/1048/5 370/1050/5 368/1044/5 367/1041/5
f 373/1059/5 376/1068/5 377/1071/5
f 370/1050/5 373/1059/5 377/1071/5 371/1054/5
f 375/1066/5 376/1068/5 373/1059/5 372/1057/5
f 367/1041/5 368/1044/5 365/1035/5 378/1073/5
f 368/1044/5 370/1050/5 371/1054/5
f 355/1007/3 360/1022/3 373/1060/3 370/1051/3
f 364/1033/7 337/954/7 339/961/7 375/1065/7
f 366/1039/5 369/1048/5 367/1041/5
f 372/1057/5 374/1063/5 375/1066/5
f 357/1013/5 328/928/5 337/955/5 364/1034/5
f 352/997/7 362/1028/7 367/1042/7 378/1074/7
f 359/1019/6 351/996/6 365/1036/6 368/1045/6
f 361/1025/1 358/1016/1 377/1072/1 376/1069/1
f 357/1013/5 353/1001/5 383/1079/5 384/1080/5
f 357/1013/5 384/1080/5 380/1076/5 328/928/5
f 334/946/5 328/928/5 380/1076/5 381/1077/5
f 334/946/5 381/1077/5 379/1075/5 319/901/5
f 352/998/5 382/1078/5 383/1079/5 353/1001/5
f 133/379/5 134/382/5 38/112/5 37/109/5
f 291/819/5 195/549/5 196/552/5 292/822/5
f 180/517/5 182/523/5 179/514/5 177/508/5
