# Blender 3.4.1
# www.blender.org
mtllib 6x2_ceiling.mtl
o 6x2_ceiling_low
v -0.011667 0.000000 0.000000
v 5.988333 0.000000 0.000000
v -0.011667 -0.000001 2.000000
v 5.988333 -0.000001 2.000000
v 5.488333 -0.000000 0.666667
v 5.488333 -0.000000 1.333333
v 0.647807 0.352907 0.740785
v 0.647807 0.352906 1.259215
v 5.362193 0.352906 1.259215
v 5.362193 0.352907 0.740785
v 0.521667 -0.000000 1.333333
v 0.521667 -0.000000 0.666667
vn -0.0000 -1.0000 -0.0000
vn -0.9417 -0.3366 -0.0000
vn 0.9417 -0.3366 -0.0000
vn -0.0000 -0.2055 -0.9786
vn -0.0000 -0.2055 0.9786
vt 0.333333 0.000000
vt 0.333333 1.000000
vt 0.000000 0.000000
vt 0.000000 1.000000
vt 0.222222 0.916667
vt 0.539941 0.222222
vt 0.539941 0.827778
vt 0.111111 0.916667
vt 0.539941 0.111111
vt 0.419738 0.827778
vt 0.419738 0.000000
vt 0.539941 0.098758
vt 0.479840 0.021023
vt 0.333333 0.000000
vt 0.539941 0.012353
vt 0.479840 0.021023
vt 0.333333 0.785731
vt 0.602403 0.123464
vt 0.479839 0.806754
vt 0.419738 0.785731
vt 0.602403 0.209869
vt 0.479840 0.806754
vt 0.602403 0.000000
vt 0.419739 0.000000
vt 0.111111 0.088889
vt 0.602403 0.111111
vt 0.222222 0.088889
vt 0.539941 0.000000
s 0
f 7/11/1 10/20/1 9/17/1 8/14/1
f 1/1/1 2/2/1 5/5/1 12/27/1
f 5/5/1 2/2/1 4/4/1 6/8/1
f 11/25/1 6/8/1 4/4/1 3/3/1
f 5/6/2 6/9/2 9/18/2 10/21/2
f 11/23/3 12/26/3 7/12/3 8/15/3
f 6/10/4 11/24/4 8/16/4 9/19/4
f 1/1/1 12/27/1 11/25/1 3/3/1
f 12/28/5 5/7/5 10/22/5 7/13/5
