# Blender 3.4.1
# www.blender.org
mtllib 6x7_ceiling.mtl
o 6x7_ceiling_low
v 0.000000 -0.000000 3.833333
v 1.500924 -0.000000 4.833333
v 1.500924 -0.000000 2.166667
v 3.699076 0.352906 2.966667
v 3.699076 0.352906 4.033334
v 4.499076 -0.000000 2.166667
v 4.499076 -0.000000 4.833333
v 1.500924 -0.000000 3.833333
v 2.300924 0.352906 4.033334
v 4.499076 -0.000000 3.833333
v 0.000000 -0.000000 3.166666
v 1.500924 -0.000000 3.166667
v 2.300924 0.352906 2.966667
v 4.499076 -0.000000 3.166667
v 0.000000 0.150977 3.833333
v 1.500924 0.150978 2.166667
v 1.500924 0.150977 3.166667
v 1.500924 0.150977 3.833333
v 2.167590 0.150977 2.833333
v 2.167590 0.150977 4.166667
v 1.500924 0.150977 4.833333
v 3.832410 0.150977 2.833333
v 3.832410 0.150977 4.166667
v 4.499076 0.150978 2.166667
v 4.499076 0.150977 3.166667
v 4.499076 0.150977 3.833333
v 4.499076 0.150977 4.833333
v 0.000000 0.150977 3.166666
v 0.000000 0.000000 0.000000
v 1.500924 0.000000 0.000000
v 4.499076 0.000000 0.000000
v 1.500924 -0.000001 7.000000
v 4.499076 -0.000001 7.000000
v 0.000000 -0.000001 7.000000
v 6.000000 0.150977 3.833333
v 6.000000 0.150977 3.166667
v 6.000000 -0.000000 3.833333
v 6.000000 -0.000000 3.166667
v 6.000000 0.000000 0.000000
v 6.000000 -0.000001 7.000000
vn -0.0000 -1.0000 -0.0000
vn 0.8345 -0.5510 -0.0000
vn -1.0000 -0.0000 -0.0000
vn -0.0000 -0.5510 0.8345
vn -0.0000 -0.0000 -1.0000
vn -0.8345 -0.5510 -0.0000
vn 1.0000 -0.0000 -0.0000
vn -0.0000 -0.0000 1.0000
vn -0.0000 -0.5510 -0.8345
vt 0.249611 0.736108
vt 0.327159 0.736108
vt 1.000000 0.367827
vt 0.379270 0.736108
vt 0.449844 0.551968
vt 1.000000 0.367827
vt 0.360747 0.858793
vt 0.122685 0.184140
vt 0.130864 0.923998
vt 0.219924 0.883330
vt 0.000000 0.736108
vt 0.219924 0.752466
vt 0.130864 0.736108
vt 0.190237 0.923998
vt 0.323702 0.858793
vt 1.000000 0.735654
vt 0.122685 0.551968
vt 1.000000 0.000000
vt 0.379270 0.736108
vt 0.449844 0.184140
vt 0.327159 0.551968
vt 0.379270 0.858792
vt 0.249611 0.920248
vt 0.219924 0.752466
vt 0.130864 0.907640
vt 0.190238 0.752466
vt 0.323702 0.920248
vt 0.379270 0.858792
vt 0.327159 0.184140
vt 0.286657 0.736108
vt 0.000000 0.000000
vt 0.360747 0.736108
vt 0.000000 0.184140
vt 0.286657 0.920248
vt 0.219924 0.883330
vt 0.130864 0.752466
vt 0.000000 0.907640
vt 0.323702 0.736108
vt 0.000000 0.551968
vt 0.286657 0.920248
vt 0.777003 0.000000
vt 0.268134 0.736108
vt 0.981477 0.367827
vt 0.342225 0.858793
vt 0.981477 0.184140
vt 0.342225 0.736108
vt 0.858793 0.184140
vt 0.268134 0.920248
vt 0.360747 0.858792
vt 0.777003 0.184140
vt 0.268134 0.920248
vt 0.249611 0.899688
vt 0.160551 0.736108
vt 0.899688 0.265930
vt 0.249611 0.736108
vt 0.736108 0.265930
vt 0.160551 0.736108
vt 0.981477 0.367827
vt 0.360747 0.736108
vt 0.654318 0.184140
vt 0.160551 0.940356
vt 0.190237 0.899688
vt 0.899688 0.470178
vt 0.190237 0.736108
vt 0.736108 0.470178
vt 0.160551 0.940356
vt 0.342225 0.858793
vt 0.981477 0.735654
vt 0.981477 0.551968
vt 0.342225 0.736108
vt 0.858793 0.551968
vt 0.305179 0.920248
vt 0.305179 0.920248
vt 0.777003 0.551968
vt 0.397793 0.858792
vt 0.981477 0.000000
vt 0.654318 0.551968
vt 0.397793 0.736108
vt 0.858793 0.000000
vt 0.268134 0.736108
vt 0.327159 0.000000
vt 0.327159 0.184140
vt 0.327159 0.551968
vt 0.654318 0.551968
vt 0.654318 0.184140
vt 0.654318 0.736108
vt 0.305179 0.736108
vt 0.777003 0.736108
vt 0.858793 0.736108
vt 0.305179 0.736108
vt 0.323702 0.736108
vt 0.327159 0.000000
vt 0.000000 0.736108
vt 0.286657 0.736108
vt 0.327159 0.736108
vt 0.654318 0.000000
s 0
f 30/82/1 31/83/1 6/17/1 3/8/1
f 13/35/2 9/24/2 20/55/2 19/52/2
f 40/96/1 33/85/1 7/20/1 37/92/1
f 6/15/3 14/38/3 25/70/3 24/67/3
f 4/9/4 13/36/4 19/53/4 22/61/4
f 7/18/5 2/3/5 21/58/5 27/76/5
f 4/10/6 22/62/6 23/64/6 5/12/6
f 1/2/1 8/21/1 2/5/1
f 35/87/5 37/91/5 10/27/5 26/73/5
f 2/4/7 8/22/7 18/49/7 21/59/7
f 3/6/8 6/16/8 24/68/8 16/43/8
f 13/37/1 4/11/1 5/13/1 9/25/1
f 12/32/7 3/7/7 16/44/7 17/46/7
f 35/88/1 26/74/1 25/71/1 36/89/1
f 11/31/1 3/8/1 12/33/1
f 16/45/1 24/69/1 22/63/1 19/54/1
f 19/54/1 20/56/1 18/50/1 17/47/1
f 23/65/1 26/74/1 27/77/1
f 20/56/1 23/65/1 27/77/1 21/60/1
f 25/71/1 26/74/1 23/65/1 22/63/1
f 17/47/1 18/50/1 15/41/1 28/79/1
f 18/50/1 20/56/1 21/60/1
f 9/26/9 5/14/9 23/66/9 20/57/9
f 16/45/1 19/54/1 17/47/1
f 22/63/1 24/69/1 25/71/1
f 11/30/8 12/34/8 17/48/8 28/80/8
f 8/23/5 1/1/5 15/42/5 18/51/5
f 10/28/3 7/19/3 27/78/3 26/75/3
f 33/85/1 32/84/1 2/5/1 7/20/1
f 11/31/1 29/81/1 30/82/1 3/8/1
f 2/5/1 32/84/1 34/86/1 1/2/1
f 31/83/1 39/95/1 38/93/1 6/17/1
f 6/17/1 38/93/1 14/39/1
f 14/40/8 38/94/8 36/90/8 25/72/8
f 10/29/1 37/92/1 7/20/1
