# Blender 3.4.1
# www.blender.org
mtllib 23x23_cupula.mtl
o 23x23_cupula_low
v 1.241390 14.863994 -3.820604
v 2.361263 13.017479 -7.267221
v 3.250000 10.141466 -10.002472
v 3.820605 6.517478 -11.758613
v 4.017221 2.500257 -12.363736
v 2.361264 14.863994 -3.250000
v 4.491390 13.017479 -6.181868
v 6.181868 10.141466 -8.508612
v 7.267222 6.517478 -10.002474
v 7.641209 2.500257 -10.517222
v 3.250000 14.863994 -2.361264
v 6.181868 13.017479 -4.491390
v 8.508612 10.141466 -6.181868
v 10.002474 6.517478 -7.267222
v 10.517221 2.500257 -7.641211
v 3.820605 14.863994 -1.241390
v 7.267221 13.017479 -2.361264
v 10.002474 10.141466 -3.250000
v 11.758614 6.517478 -3.820605
v 12.363736 2.500257 -4.017223
v 4.017221 14.863994 -0.000000
v 7.641209 13.017479 -0.000000
v 10.517224 10.141466 0.000000
v 12.363739 6.517478 0.000000
v 13.000002 2.500257 -0.000002
v 3.820605 14.863994 1.241390
v 7.267221 13.017479 2.361263
v 10.002475 10.141466 3.250001
v 11.758615 6.517478 3.820606
v 12.363737 2.500257 4.017220
v 3.250000 14.863994 2.361264
v 6.181868 13.017479 4.491390
v 8.508614 10.141466 6.181870
v 10.002476 6.517478 7.267224
v 10.517224 2.500257 7.641209
v 2.361264 14.863994 3.250000
v 4.491390 13.017479 6.181868
v 6.181870 10.141466 8.508614
v 7.267225 6.517478 10.002476
v 7.641212 2.500257 10.517222
v 1.241390 14.863994 3.820605
v 2.361264 13.017479 7.267221
v 3.250002 10.141466 10.002476
v 3.820606 6.517478 11.758617
v 4.017224 2.500257 12.363737
v 0.000000 14.863994 4.017222
v 0.000000 13.017479 7.641209
v 0.000000 10.141466 10.517225
v 0.000000 6.517478 12.363743
v 0.000002 2.500257 13.000005
v -1.241390 14.863994 3.820605
v -2.361263 13.017479 7.267221
v -3.250001 10.141466 10.002476
v -3.820606 6.517478 11.758618
v -4.017220 2.500257 12.363739
v -2.361264 14.863994 3.250001
v -4.491390 13.017479 6.181868
v -6.181870 10.141466 8.508615
v -7.267226 6.517478 10.002478
v -7.641209 2.500257 10.517225
v -3.250001 14.863994 2.361264
v -6.181868 13.017479 4.491390
v -8.508615 10.141466 6.181870
v -10.002479 6.517478 7.267226
v -10.517224 2.500257 7.641212
v -3.820606 14.863994 1.241390
v -7.267221 13.017479 2.361264
v -10.002477 10.141466 3.250002
v -11.758618 6.517478 3.820607
v -12.363740 2.500257 4.017223
v 0.000000 14.863994 0.000000
v -4.017223 14.863994 0.000000
v -7.641209 13.017479 0.000000
v -10.517226 10.141466 0.000000
v -12.363743 6.517478 0.000000
v -13.000007 2.500257 0.000001
v -3.820606 14.863994 -1.241390
v -7.267221 13.017479 -2.361263
v -10.002477 10.141466 -3.250001
v -11.758618 6.517478 -3.820606
v -12.363741 2.500257 -4.017223
v -3.250001 14.863994 -2.361264
v -6.181868 13.017479 -4.491390
v -8.508615 10.141466 -6.181870
v -10.002478 6.517478 -7.267226
v -10.517228 2.500257 -7.641212
v -2.361264 14.863994 -3.250001
v -4.491390 13.017479 -6.181868
v -6.181871 10.141466 -8.508615
v -7.267226 6.517478 -10.002479
v -7.641213 2.500257 -10.517226
v -1.241390 14.863994 -3.820606
v -2.361264 13.017479 -7.267221
v -3.250003 10.141466 -10.002477
v -3.820607 6.517478 -11.758618
v -4.017224 2.500257 -12.363741
v -0.000000 14.863994 -4.017222
v -0.000000 13.017479 -7.641209
v -0.000001 10.141466 -10.517228
v -0.000000 6.517478 -12.363743
v -0.000002 2.500257 -13.000009
v 1.409371 14.587016 -4.337597
v 2.680783 14.587016 -3.689780
v 3.689780 14.587016 -2.680783
v 4.337597 14.587016 -1.409371
v 4.560820 14.587016 -0.000000
v 4.337597 14.587016 1.409371
v 3.689780 14.587016 2.680783
v 2.680783 14.587016 3.689780
v 1.409371 14.587016 4.337597
v 0.000000 14.587016 4.560820
v -1.409371 14.587016 4.337597
v -2.680783 14.587016 3.689781
v -3.689780 14.587016 2.680783
v -4.337598 14.587016 1.409371
v -4.560821 14.587016 0.000000
v -4.337598 14.587016 -1.409371
v -3.689781 14.587016 -2.680783
v -2.680783 14.587016 -3.689781
v -1.409371 14.587016 -4.337598
v -0.000000 14.587016 -4.560820
v 2.539011 12.442277 -7.814271
v 6.647216 12.442277 -4.829485
v 7.814271 12.442277 -2.539011
v 8.216412 12.442277 -0.000000
v 7.814272 12.442277 2.539011
v -4.829486 12.442277 6.647217
v -7.814272 12.442277 2.539011
v -7.814272 12.442277 -2.539011
v -2.539011 12.442277 -7.814272
v 0.000000 7.571404 11.522643
v 0.000000 8.437424 10.628821
v 3.560693 7.571404 10.958686
v 3.284487 8.437424 10.108609
v 6.772840 7.571404 9.322014
v 6.247464 8.437424 8.598896
v 9.322014 7.571404 6.772839
v 8.598895 8.437424 6.247463
v 10.958682 7.571404 3.560691
v 10.108609 8.437424 3.284486
v 11.522640 7.571404 0.000000
v 10.628819 8.437424 0.000000
v 10.958680 7.571404 -3.560691
v 10.108606 8.437424 -3.284485
v 9.322011 7.571404 -6.772837
v 8.598894 8.437424 -6.247462
v 6.772837 7.571404 -9.322011
v 6.247462 8.437424 -8.598894
v 3.560691 7.571404 -10.958680
v 3.284485 8.437424 -10.108606
v 1.241390 14.571122 -3.820604
v 2.361264 14.571122 -3.250000
v 3.250000 14.571122 -2.361264
v 3.820605 14.571122 -1.241390
v 4.017221 14.571122 -0.000000
v 3.820605 14.571122 1.241390
v 3.250000 14.571122 2.361264
v 2.361264 14.571122 3.250000
v 1.241390 14.571122 3.820605
v 0.000000 14.571122 4.017222
v -1.241390 14.571122 3.820605
v -2.361264 14.571122 3.250001
v -3.250001 14.571122 2.361264
v -3.820606 14.571122 1.241390
v -4.017223 14.571122 0.000000
v -3.820606 14.571122 -1.241390
v -3.250001 14.571122 -2.361264
v -2.361264 14.571122 -3.250001
v -1.241390 14.571122 -3.820606
v -0.000000 14.571122 -4.017222
v 1.409371 14.571122 -4.337597
v 2.680783 14.571122 -3.689780
v 3.689780 14.571122 -2.680783
v 4.337597 14.571122 -1.409371
v 4.560820 14.571122 -0.000000
v 4.337597 14.571122 1.409371
v 3.689780 14.571122 2.680783
v 2.680783 14.571122 3.689780
v 1.409371 14.571122 4.337597
v 0.000000 14.571122 4.560820
v -1.409371 14.571122 4.337597
v -2.680783 14.571122 3.689781
v -3.689780 14.571122 2.680783
v -4.337598 14.571122 1.409371
v -4.560821 14.571122 0.000000
v -4.337598 14.571122 -1.409371
v -3.689781 14.571122 -2.680783
v -2.680783 14.571122 -3.689781
v -1.409371 14.571122 -4.337598
v -0.000000 14.571122 -4.560820
v 4.663283 12.531134 -6.418458
v 2.451633 12.531134 -7.545351
v 6.418458 12.531134 -4.663283
v 7.545351 12.531134 -2.451633
v 7.933651 12.531134 -0.000000
v 7.545351 12.531134 2.451633
v 6.418458 12.531134 4.663283
v 4.663283 12.531134 6.418458
v 2.451633 12.531134 7.545351
v 0.000000 12.531134 7.933651
v -2.451633 12.531134 7.545351
v -4.663283 12.531134 6.418458
v -6.418458 12.531134 4.663283
v -7.545351 12.531134 2.451633
v -7.933651 12.531134 0.000000
v -7.545351 12.531134 -2.451633
v -6.418458 12.531134 -4.663283
v -4.663283 12.531134 -6.418458
v -2.451633 12.531134 -7.545351
v -0.000000 12.531134 -7.933651
v 4.829486 12.442277 6.647216
v 2.539011 12.442277 7.814272
v 0.000000 12.442277 8.216412
v -2.539011 12.442277 7.814272
v -6.647217 12.442277 4.829486
v 6.647216 12.442277 4.829486
v -0.000000 12.442277 -8.216413
v -4.829486 12.442277 -6.647217
v -6.647217 12.442277 -4.829486
v 4.829485 12.442277 -6.647216
v -8.216413 12.442277 0.000000
v 3.677954 7.633441 -11.319577
v 6.995884 7.633441 -9.629008
v 9.629008 7.633441 -6.995884
v 11.319577 7.633441 -3.677954
v 11.902109 7.633441 0.000000
v 11.319580 7.633441 3.677954
v 9.629011 7.633441 6.995885
v 6.995886 7.633441 9.629011
v 3.677955 7.633441 11.319583
v 0.000000 7.633441 11.902113
v -3.677955 7.633441 11.319583
v -6.995887 7.633441 9.629012
v -9.629013 7.633441 6.995887
v -11.319583 7.633441 3.677956
v -11.902114 7.633441 0.000000
v -11.319583 7.633441 -3.677955
v -9.629012 7.633441 -6.995886
v -6.995887 7.633441 -9.629013
v -3.677956 7.633441 -11.319583
v -0.000000 7.633441 -11.902114
v 3.392651 9.025505 -10.441508
v 6.453206 9.025505 -8.882077
v 8.882077 9.025505 -6.453206
v 10.441508 9.025505 -3.392651
v 10.978852 9.025505 0.000000
v 10.441511 9.025505 3.392652
v 8.882079 9.025505 6.453207
v 6.453209 9.025505 8.882079
v 3.392653 9.025505 10.441511
v 0.000000 9.025505 10.978855
v -3.392653 9.025505 10.441511
v -6.453209 9.025505 8.882081
v -8.882081 9.025505 6.453210
v -10.441512 9.025505 3.392653
v -10.978855 9.025505 0.000000
v -10.441512 9.025505 -3.392653
v -8.882081 9.025505 -6.453209
v -6.453210 9.025505 -8.882081
v -3.392654 9.025505 -10.441512
v -0.000001 9.025505 -10.978857
v -3.284487 8.437424 10.108609
v -3.560693 7.571404 10.958686
v -6.247464 8.437424 8.598897
v -6.772841 7.571404 9.322015
v -8.598898 8.437424 6.247465
v -9.322016 7.571404 6.772841
v -10.108610 8.437424 3.284487
v -10.958685 7.571404 3.560693
v -10.628821 8.437424 0.000000
v -11.522644 7.571404 0.000000
v -10.108610 8.437424 -3.284487
v -10.958685 7.571404 -3.560693
v -8.598898 8.437424 -6.247465
v -9.322015 7.571404 -6.772840
v -6.247466 8.437424 -8.598897
v -6.772841 7.571404 -9.322015
v -3.284488 8.437424 -10.108610
v -3.560694 7.571404 -10.958686
v -0.000001 8.437424 -10.628823
v -0.000000 7.571404 -11.522644
v 4.632575 0.000694 -14.257601
v 8.811681 0.000694 -12.128240
v 12.128238 0.000694 -8.811683
v 14.257601 0.000694 -4.632577
v 14.991329 0.000694 -0.000002
v 14.257602 0.000694 4.632574
v 12.128242 0.000694 8.811681
v 8.811685 0.000694 12.128240
v 4.632578 0.000694 14.257602
v 0.000002 0.000694 14.991331
v -4.632574 0.000694 14.257603
v -8.811681 0.000694 12.128243
v -12.128241 0.000694 8.811685
v -14.257605 0.000694 4.632577
v -14.991334 0.000694 0.000001
v -14.257606 0.000694 -4.632576
v -12.128245 0.000694 -8.811685
v -8.811687 0.000694 -12.128244
v -4.632578 0.000694 -14.257606
v -0.000002 0.000694 -14.991335
v 6.969574 0.949359 -9.592798
v 3.664122 0.949359 -11.277010
v 9.592797 0.949359 -6.969576
v 11.277010 0.949359 -3.664124
v 11.857350 0.949359 -0.000001
v 11.277011 0.949359 3.664122
v 9.592799 0.949359 6.969575
v 6.969578 0.949359 9.592799
v 3.664125 0.949359 11.277011
v 0.000002 0.949359 11.857352
v -3.664122 0.949359 11.277013
v -6.969576 0.949359 9.592801
v -9.592799 0.949359 6.969578
v -11.277014 0.949359 3.664124
v -11.857354 0.949359 0.000000
v -11.277015 0.949359 -3.664124
v -9.592803 0.949359 -6.969578
v -6.969579 0.949359 -9.592801
v -3.664126 0.949359 -11.277015
v -0.000001 0.949359 -11.857355
v 7.127662 0.140168 -9.810387
v 3.747234 0.140168 -11.532801
v 9.810385 0.140168 -7.127664
v 11.532801 0.140168 -3.747236
v 12.126306 0.140168 -0.000002
v 11.532802 0.140168 3.747233
v 9.810388 0.140168 7.127663
v 7.127665 0.140168 9.810387
v 3.747236 0.140168 11.532802
v 0.000002 0.140168 12.126307
v -3.747233 0.140168 11.532804
v -7.127663 0.140168 9.810390
v -9.810388 0.140168 7.127665
v -11.532804 0.140168 3.747236
v -12.126309 0.140168 0.000001
v -11.532805 0.140168 -3.747235
v -9.810391 0.140168 -7.127666
v -7.127667 0.140168 -9.810390
v -3.747237 0.140168 -11.532805
v -0.000001 0.140168 -12.126310
v 4.632575 5.035662 -14.257601
v 8.811681 5.035662 -12.128240
v 12.128238 5.035662 -8.811683
v 14.257601 5.035662 -4.632577
v 14.991329 5.035662 -0.000002
v 14.257602 5.035662 4.632574
v 12.128242 5.035662 8.811681
v 8.811685 5.035662 12.128240
v 4.632578 5.035662 14.257602
v 0.000002 5.035662 14.991331
v -4.632574 5.035662 14.257603
v -8.811681 5.035662 12.128243
v -12.128241 5.035662 8.811685
v -14.257605 5.035662 4.632577
v -14.991334 5.035662 0.000001
v -14.257606 5.035662 -4.632576
v -12.128245 5.035662 -8.811685
v -8.811687 5.035662 -12.128244
v -4.632578 5.035662 -14.257606
v -0.000002 5.035662 -14.991335
vn -0.0000 -1.0000 -0.0000
vn -0.1546 -0.1546 0.9758
vn -0.1448 -0.3782 0.9143
vn -0.4485 -0.1546 0.8803
vn 0.4540 -0.0000 0.8910
vn -0.4203 -0.3782 0.8248
vn -0.6546 -0.3782 0.6546
vn -0.6986 -0.1546 0.6986
vn 0.3903 -0.5106 -0.7661
vn -0.8248 -0.3782 0.4203
vn -0.8803 -0.1546 0.4485
vn 0.9877 -0.0000 0.1564
vn -0.1345 -0.5106 -0.8492
vn -0.9143 -0.3782 0.1448
vn -0.9758 -0.1546 0.1546
vn -0.1564 -0.0000 0.9877
vn -0.7661 -0.5106 0.3903
vn -0.9143 -0.3782 -0.1448
vn -0.9758 -0.1546 -0.1546
vn -0.8803 -0.1546 -0.4485
vn 0.7071 -0.0000 -0.7071
vn 0.3903 -0.5106 0.7661
vn -0.8248 -0.3782 -0.4203
vn -0.6986 -0.1546 -0.6986
vn -0.8910 -0.0000 -0.4540
vn -0.6546 -0.3782 -0.6546
vn -0.4203 -0.3782 -0.8248
vn -0.4485 -0.1546 -0.8803
vn 0.8492 -0.5106 0.1345
vn -0.1448 -0.3782 -0.9143
vn -0.1546 -0.1546 -0.9758
vn -0.1564 -0.0000 -0.9877
vn 0.6080 -0.5106 -0.6080
vn 0.1448 -0.3782 -0.9143
vn 0.1546 -0.1546 -0.9758
vn -0.8910 -0.0000 0.4540
vn -0.7661 -0.5106 -0.3903
vn 0.4203 -0.3782 -0.8248
vn 0.4485 -0.1546 -0.8803
vn 0.6986 -0.1546 -0.6986
vn 0.8910 -0.0000 0.4540
vn 0.6546 -0.3782 -0.6546
vn 0.8803 -0.1546 -0.4485
vn 0.1345 -0.5106 0.8492
vn 0.8248 -0.3782 -0.4203
vn 0.9143 -0.3782 -0.1448
vn 0.9758 -0.1546 -0.1546
vn 0.1564 -0.0000 -0.9877
vn 0.9143 -0.3782 0.1448
vn 0.9758 -0.1546 0.1546
vn 0.7661 -0.5106 0.3903
vn 0.8248 -0.3782 0.4203
vn 0.8803 -0.1546 0.4485
vn 0.1564 -0.0000 0.9877
vn 0.7661 -0.5106 -0.3903
vn 0.6546 -0.3782 0.6546
vn 0.6986 -0.1546 0.6986
vn 0.4485 -0.1546 0.8803
vn -0.9877 -0.0000 0.1564
vn 0.4203 -0.3782 0.8248
vn 0.1448 -0.3782 0.9143
vn 0.1546 -0.1546 0.9758
vn -0.6080 -0.5106 -0.6080
vn 0.0717 -0.8887 0.4528
vn 0.2081 -0.8887 0.4085
vn 0.3242 -0.8887 0.3242
vn 0.4085 -0.8887 0.2081
vn 0.4528 -0.8887 0.0717
vn 0.4528 -0.8887 -0.0717
vn 0.4085 -0.8887 -0.2081
vn 0.3242 -0.8887 -0.3242
vn 0.2081 -0.8887 -0.4085
vn 0.0717 -0.8887 -0.4528
vn -0.0717 -0.8887 -0.4528
vn -0.2081 -0.8887 -0.4085
vn -0.3242 -0.8887 -0.3242
vn -0.4085 -0.8887 -0.2081
vn -0.4528 -0.8887 -0.0717
vn -0.4528 -0.8887 0.0717
vn -0.4085 -0.8887 0.2081
vn -0.3242 -0.8887 0.3242
vn -0.2081 -0.8887 0.4085
vn -0.0717 -0.8887 0.4528
vn 0.1113 -0.7027 0.7027
vn 0.3230 -0.7027 0.6339
vn 0.5031 -0.7027 0.5031
vn 0.6339 -0.7027 0.3230
vn 0.7027 -0.7027 0.1113
vn 0.7027 -0.7027 -0.1113
vn 0.6339 -0.7027 -0.3230
vn 0.5031 -0.7027 -0.5031
vn 0.3230 -0.7027 -0.6339
vn 0.1113 -0.7027 -0.7027
vn -0.1113 -0.7027 -0.7027
vn -0.3230 -0.7027 -0.6339
vn -0.5031 -0.7027 -0.5031
vn -0.6339 -0.7027 -0.3230
vn -0.7027 -0.7027 -0.1113
vn -0.7027 -0.7027 0.1113
vn -0.6339 -0.7027 0.3230
vn -0.5031 -0.7027 0.5031
vn -0.3230 -0.7027 0.6339
vn -0.1113 -0.7027 0.7027
vn -0.7681 0.5068 0.3914
vn 0.1095 -0.7139 0.6917
vn -0.1095 -0.7139 0.6917
vn -0.3179 -0.7139 0.6240
vn -0.4952 -0.7139 0.4952
vn -0.6240 -0.7139 0.3179
vn -0.6917 -0.7139 0.1095
vn -0.6917 -0.7139 -0.1095
vn -0.6240 -0.7139 -0.3179
vn -0.4952 -0.7139 -0.4952
vn -0.3179 -0.7139 -0.6240
vn -0.1095 -0.7139 -0.6917
vn 0.1095 -0.7139 -0.6917
vn 0.3179 -0.7139 -0.6240
vn 0.4952 -0.7139 -0.4952
vn 0.6240 -0.7139 -0.3179
vn 0.6917 -0.7139 -0.1095
vn 0.6917 -0.7139 0.1095
vn 0.6240 -0.7139 0.3179
vn 0.4952 -0.7139 0.4952
vn -0.0046 -0.9996 -0.0292
vn 0.0046 -0.9996 -0.0292
vn 0.0134 -0.9996 -0.0264
vn 0.0209 -0.9996 -0.0209
vn 0.0264 -0.9996 -0.0134
vn 0.0292 -0.9996 -0.0046
vn 0.0292 -0.9996 0.0046
vn 0.0264 -0.9996 0.0134
vn 0.0209 -0.9996 0.0209
vn 0.0134 -0.9996 0.0264
vn 0.0046 -0.9996 0.0292
vn -0.0046 -0.9996 0.0292
vn -0.0134 -0.9996 0.0264
vn -0.0209 -0.9996 0.0209
vn -0.0264 -0.9996 0.0134
vn -0.0292 -0.9996 0.0046
vn -0.0292 -0.9996 -0.0046
vn -0.0264 -0.9996 -0.0134
vn -0.0209 -0.9996 -0.0209
vn -0.0134 -0.9996 -0.0264
vn 0.4540 -0.0000 -0.8910
vn -0.7071 -0.0000 0.7071
vn -0.4540 -0.0000 -0.8910
vn 0.7071 -0.0000 0.7071
vn 0.9877 -0.0000 -0.1564
vn -0.9877 -0.0000 -0.1564
vn -0.7071 -0.0000 -0.7071
vn 0.8910 -0.0000 -0.4540
vn -0.4540 -0.0000 0.8910
vn -0.1376 -0.9529 0.2701
vn -0.0474 -0.9529 0.2995
vn 0.0474 -0.9529 0.2995
vn 0.1376 -0.9529 0.2701
vn 0.2144 -0.9529 0.2144
vn 0.2701 -0.9529 0.1376
vn 0.2995 -0.9529 0.0474
vn 0.2995 -0.9529 -0.0474
vn 0.2701 -0.9529 -0.1376
vn 0.2144 -0.9529 -0.2144
vn 0.1376 -0.9529 -0.2701
vn 0.0474 -0.9529 -0.2995
vn -0.0474 -0.9529 -0.2995
vn -0.1376 -0.9529 -0.2701
vn -0.2144 -0.9529 -0.2144
vn -0.2701 -0.9529 -0.1376
vn -0.2995 -0.9529 -0.0474
vn -0.2995 -0.9529 0.0474
vn -0.2701 -0.9529 0.1376
vn -0.2144 -0.9529 0.2144
vn 0.6080 -0.5106 0.6080
vn -0.8492 -0.5106 -0.1345
vn -0.1345 -0.5106 0.8492
vn -0.6080 -0.5106 0.6080
vn -0.3903 -0.5106 -0.7661
vn -0.8492 -0.5106 0.1345
vn 0.8492 -0.5106 -0.1345
vn -0.3903 -0.5106 0.7661
vn 0.1345 -0.5106 -0.8492
vn 0.1155 -0.9866 -0.1155
vn 0.6096 0.5068 0.6096
vn -0.1613 -0.9866 -0.0255
vn -0.8515 0.5068 0.1349
vn 0.0741 -0.9866 -0.1455
vn 0.3914 0.5068 0.7681
vn -0.1613 -0.9866 0.0255
vn -0.8515 0.5068 -0.1349
vn 0.0255 -0.9866 -0.1613
vn 0.1349 0.5068 0.8515
vn -0.1455 -0.9866 0.0741
vn -0.7681 0.5068 -0.3914
vn -0.1155 -0.9866 0.1155
vn -0.6096 0.5068 -0.6096
vn -0.0741 -0.9866 0.1455
vn -0.3914 0.5068 -0.7681
vn -0.0255 -0.9866 0.1613
vn -0.1349 0.5068 -0.8515
vn 0.0255 -0.9866 0.1613
vn 0.3179 -0.7139 0.6240
vn 0.1349 0.5068 -0.8515
vn -0.1455 -0.9866 -0.0741
vn 0.7681 0.5068 0.3914
vn 0.1455 -0.9866 -0.0741
vn -0.6096 0.5068 0.6096
vn -0.1155 -0.9866 -0.1155
vn 0.8515 0.5068 0.1349
vn 0.1613 -0.9866 -0.0255
vn -0.3914 0.5068 0.7681
vn -0.0741 -0.9866 -0.1455
vn 0.8515 0.5068 -0.1349
vn 0.1613 -0.9866 0.0255
vn -0.1349 0.5068 0.8515
vn -0.0255 -0.9866 -0.1613
vn 0.7681 0.5068 -0.3914
vn 0.1455 -0.9866 0.0741
vn 0.6096 0.5068 -0.6096
vn 0.1155 -0.9866 0.1155
vn 0.3914 0.5068 -0.7681
vn 0.0741 -0.9866 0.1455
vn 0.7204 0.5884 0.3671
vn 0.0486 -0.9988 -0.0077
vn 0.7204 0.5884 -0.3671
vn -0.5717 0.5884 -0.5717
vn 0.0439 -0.9988 -0.0223
vn 0.1265 0.5884 -0.7986
vn 0.7986 0.5884 -0.1265
vn -0.3671 0.5884 0.7204
vn 0.0348 -0.9988 -0.0348
vn 0.5717 0.5884 0.5717
vn -0.3671 0.5884 -0.7204
vn 0.0223 -0.9988 -0.0439
vn -0.5717 0.5884 0.5717
vn 0.3671 0.5884 -0.7204
vn 0.0077 -0.9988 -0.0486
vn 0.7986 0.5884 0.1265
vn -0.0077 -0.9988 -0.0486
vn -0.1265 0.5884 0.7986
vn -0.0223 -0.9988 -0.0439
vn -0.7986 0.5884 -0.1265
vn 0.4313 -0.3119 0.8466
vn -0.8466 -0.3119 0.4313
vn 0.6718 -0.3119 0.6718
vn -0.9384 -0.3119 -0.1486
vn -0.4313 -0.3119 -0.8466
vn 0.1486 -0.3119 -0.9384
vn -0.4313 -0.3119 0.8466
vn -0.8466 -0.3119 -0.4313
vn -0.1486 -0.3119 0.9384
vn -0.1486 -0.3119 -0.9384
vn -0.9384 -0.3119 0.1486
vn 0.9384 -0.3119 -0.1486
vn 0.8466 -0.3119 0.4313
vn 0.6718 -0.3119 -0.6718
vn 0.1486 -0.3119 0.9384
vn -0.6718 -0.3119 -0.6718
vn 0.4313 -0.3119 -0.8466
vn -0.6718 -0.3119 0.6718
vn 0.9384 -0.3119 0.1486
vn 0.8466 -0.3119 -0.4313
vn -0.0223 -0.9988 0.0439
vn 0.0486 -0.9988 0.0077
vn -0.0348 -0.9988 0.0348
vn 0.0439 -0.9988 0.0223
vn -0.7986 0.5884 0.1265
vn -0.0439 -0.9988 0.0223
vn -0.7204 0.5884 -0.3671
vn 0.0348 -0.9988 0.0348
vn 0.1265 0.5884 0.7986
vn 0.5717 0.5884 -0.5717
vn -0.0486 -0.9988 0.0077
vn 0.0223 -0.9988 0.0439
vn -0.0486 -0.9988 -0.0077
vn 0.3671 0.5884 0.7204
vn 0.0077 -0.9988 0.0486
vn -0.0439 -0.9988 -0.0223
vn -0.7204 0.5884 0.3671
vn -0.0077 -0.9988 0.0486
vn -0.1265 0.5884 -0.7986
vn -0.0348 -0.9988 -0.0348
vt 0.310612 0.329109
vt 0.243017 0.140450
vt 0.219050 0.311666
vt 0.310612 0.099439
vt 0.653649 0.750724
vt 0.647966 0.099315
vt 0.733568 0.016511
vt 0.733567 0.640486
vt 0.021263 0.639252
vt 0.464271 0.610550
vt 0.384548 0.549660
vt 0.004021 0.459058
vt 0.832350 0.024679
vt 0.906543 0.572110
vt 0.010025 0.750650
vt 0.530813 0.726433
vt 0.775949 0.010593
vt 0.850142 0.586196
vt 0.501339 0.004306
vt 0.452391 0.506236
vt 0.292869 0.326298
vt 0.219050 0.293702
vt 0.621132 0.740226
vt 0.710874 0.614939
vt 0.423896 0.634669
vt 0.359043 0.589173
vt 0.894463 0.518157
vt 0.483348 0.754786
vt 0.837441 0.529466
vt 0.458194 0.043267
vt 0.276863 0.318143
vt 0.219050 0.275738
vt 0.592775 0.721161
vt 0.692582 0.586078
vt 0.380931 0.653795
vt 0.325473 0.622111
vt 0.885038 0.463679
vt 0.432838 0.777271
vt 0.827530 0.472186
vt 0.422990 0.089529
vt 0.264160 0.305440
vt 0.219050 0.257774
vt 0.570783 0.695009
vt 0.679166 0.554653
vt 0.335989 0.667656
vt 0.285482 0.646862
vt 0.878289 0.408805
vt 0.380008 0.793566
vt 0.820434 0.414488
vt 0.396942 0.141499
vt 0.256005 0.289434
vt 0.219050 0.239810
vt 0.556865 0.663802
vt 0.670973 0.521479
vt 0.289713 0.676053
vt 0.241027 0.662215
vt 0.874233 0.353666
vt 0.325608 0.803437
vt 0.816170 0.356510
vt 0.380945 0.197388
vt 0.253195 0.271691
vt 0.219050 0.221846
vt 0.552103 0.629966
vt 0.668219 0.487421
vt 0.242766 0.678865
vt 0.194285 0.667417
vt 0.872880 0.298395
vt 0.270418 0.806743
vt 0.814747 0.298395
vt 0.375551 0.255270
vt 0.256005 0.253948
vt 0.219050 0.203881
vt 0.670973 0.453362
vt 0.556865 0.596130
vt 0.195821 0.676053
vt 0.147543 0.662215
vt 0.874233 0.243123
vt 0.215230 0.803437
vt 0.816170 0.240279
vt 0.380945 0.313154
vt 0.264160 0.237942
vt 0.219050 0.185918
vt 0.570783 0.564923
vt 0.679166 0.420189
vt 0.149545 0.667656
vt 0.103089 0.646862
vt 0.878289 0.187984
vt 0.160830 0.793566
vt 0.820434 0.182302
vt 0.396942 0.369042
vt 0.276863 0.225240
vt 0.219050 0.167953
vt 0.592775 0.538771
vt 0.692582 0.388763
vt 0.104604 0.653795
vt 0.063098 0.622111
vt 0.885038 0.133110
vt 0.107997 0.777271
vt 0.827531 0.124604
vt 0.422990 0.421013
vt 0.292869 0.217084
vt 0.219050 0.149989
vt 0.621132 0.519706
vt 0.710874 0.359902
vt 0.061638 0.634669
vt 0.029528 0.589173
vt 0.894463 0.078632
vt 0.057489 0.754786
vt 0.837441 0.067321
vt 0.458194 0.467275
vt 0.310612 0.214274
vt 0.219050 0.132025
vt 0.243017 0.320091
vt 0.733568 0.322641
vt 0.647966 0.340830
vt 0.653649 0.509209
vt 0.733567 0.334356
vt 0.021263 0.610550
vt 0.464271 0.639252
vt 0.384548 0.459058
vt 0.004021 0.549660
vt 0.906543 0.024679
vt 0.832350 0.572110
vt 0.010025 0.726433
vt 0.530813 0.750650
vt 0.850142 0.010593
vt 0.775949 0.586196
vt 0.501339 0.506236
vt 0.452391 0.004306
vt 0.292869 0.211463
vt 0.243017 0.302127
vt 0.710875 0.297094
vt 0.615449 0.330333
vt 0.423896 0.663372
vt 0.359043 0.498571
vt 0.820270 0.518157
vt 0.483348 0.779004
vt 0.763248 0.529468
vt 0.409245 0.043267
vt 0.276863 0.203308
vt 0.243017 0.284163
vt 0.692583 0.268233
vt 0.587093 0.311267
vt 0.380931 0.682498
vt 0.325473 0.531510
vt 0.810845 0.463679
vt 0.432838 0.801488
vt 0.753337 0.472186
vt 0.374042 0.089529
vt 0.264161 0.190605
vt 0.243017 0.266199
vt 0.565101 0.285115
vt 0.679166 0.236808
vt 0.335989 0.696359
vt 0.285481 0.556261
vt 0.804096 0.408805
vt 0.380008 0.817783
vt 0.746241 0.414488
vt 0.347993 0.141501
vt 0.310612 0.271691
vt 0.310612 0.156856
vt 0.256005 0.174599
vt 0.243017 0.248235
vt 0.551183 0.253908
vt 0.670974 0.203634
vt 0.289713 0.704756
vt 0.241027 0.571613
vt 0.800040 0.353666
vt 0.325608 0.827654
vt 0.741977 0.356510
vt 0.331997 0.197388
vt 0.243017 0.230271
vt 0.253195 0.156856
vt 0.668220 0.169575
vt 0.546420 0.220072
vt 0.242768 0.707568
vt 0.194285 0.576816
vt 0.798687 0.298395
vt 0.270418 0.830960
vt 0.740554 0.298395
vt 0.326602 0.255272
vt 0.256005 0.139113
vt 0.243017 0.212307
vt 0.551183 0.186236
vt 0.670974 0.135517
vt 0.195821 0.704756
vt 0.147543 0.571613
vt 0.800040 0.243123
vt 0.215230 0.827654
vt 0.741977 0.240279
vt 0.331997 0.313154
vt 0.264161 0.123107
vt 0.243017 0.194343
vt 0.565101 0.155029
vt 0.679166 0.102344
vt 0.149545 0.696359
vt 0.103089 0.556261
vt 0.804096 0.187984
vt 0.160830 0.817783
vt 0.746241 0.182302
vt 0.347993 0.369043
vt 0.243017 0.176378
vt 0.276863 0.110405
vt 0.692583 0.070918
vt 0.587093 0.128877
vt 0.104604 0.682498
vt 0.063098 0.531510
vt 0.810845 0.133110
vt 0.107997 0.801488
vt 0.753337 0.124604
vt 0.374042 0.421013
vt 0.243017 0.158415
vt 0.292869 0.102249
vt 0.615449 0.109812
vt 0.710875 0.042057
vt 0.061638 0.663372
vt 0.029528 0.498572
vt 0.820270 0.078632
vt 0.057489 0.779004
vt 0.763248 0.067321
vt 0.409245 0.467275
vt 0.662126 0.702043
vt 0.656444 0.147996
vt 0.172306 0.081686
vt 0.160161 0.341087
vt 0.642717 0.695777
vt 0.140295 0.345700
vt 0.625792 0.684398
vt 0.119975 0.343950
vt 0.612666 0.668789
vt 0.101189 0.336010
vt 0.604358 0.650162
vt 0.085775 0.322655
vt 0.601516 0.629966
vt 0.075240 0.305192
vt 0.604358 0.609770
vt 0.070614 0.285328
vt 0.612666 0.591144
vt 0.072350 0.265007
vt 0.625792 0.575535
vt 0.080277 0.246216
vt 0.642717 0.564155
vt 0.093622 0.230793
vt 0.656444 0.292149
vt 0.662126 0.557890
vt 0.111078 0.220246
vt 0.128560 0.204561
vt 0.637035 0.285883
vt 0.110659 0.194788
vt 0.620110 0.274504
vt 0.096652 0.179964
vt 0.606983 0.258895
vt 0.087909 0.161538
vt 0.598676 0.240268
vt 0.085286 0.141312
vt 0.595833 0.220072
vt 0.089037 0.121265
vt 0.598676 0.199876
vt 0.098798 0.103358
vt 0.606983 0.181250
vt 0.113613 0.089341
vt 0.620110 0.165641
vt 0.132033 0.080585
vt 0.637035 0.154261
vt 0.152257 0.077948
vt 0.342926 0.528914
vt 0.045645 0.438313
vt 0.859671 0.906183
vt 0.900941 0.661020
vt 0.296774 0.585516
vt 0.791990 0.879744
vt 0.265530 0.604853
vt 0.766972 0.852835
vt 0.230801 0.616846
vt 0.751011 0.819742
vt 0.194285 0.620911
vt 0.745528 0.783411
vt 0.322999 0.469182
vt 0.865107 0.898451
vt 0.265530 0.514251
vt 0.808244 0.853216
vt 0.194285 0.530309
vt 0.786799 0.783791
vt 0.091797 0.494915
vt 0.833262 0.687458
vt 0.609748 0.449608
vt 0.850467 0.628293
vt 0.620795 0.463550
vt 0.518867 0.436873
vt 0.573215 0.485944
vt 0.804900 0.652350
vt 0.587096 0.497068
vt 0.493592 0.396621
vt 0.545715 0.529520
vt 0.768846 0.689161
vt 0.561730 0.537262
vt 0.475062 0.352852
vt 0.528642 0.578135
vt 0.745739 0.735216
vt 0.545980 0.582106
vt 0.463751 0.306688
vt 0.522852 0.629335
vt 0.737785 0.786125
vt 0.540640 0.629335
vt 0.459948 0.259310
vt 0.528642 0.680537
vt 0.745739 0.837034
vt 0.545980 0.676564
vt 0.463751 0.211934
vt 0.545716 0.729152
vt 0.768846 0.883089
vt 0.561730 0.721409
vt 0.475062 0.165769
vt 0.573215 0.772727
vt 0.804900 0.919901
vt 0.587096 0.761604
vt 0.493592 0.122001
vt 0.609748 0.809063
vt 0.850467 0.943957
vt 0.620795 0.795122
vt 0.518867 0.081747
vt 0.653472 0.008368
vt 0.653472 0.836324
vt 0.901200 0.952967
vt 0.842387 0.619284
vt 0.661128 0.024425
vt 0.661128 0.820269
vt 0.550238 0.046042
vt 0.523618 0.465810
vt 0.238831 0.140450
vt 0.169704 0.089010
vt 0.157241 0.333884
vt 0.214864 0.311666
vt 0.139742 0.337946
vt 0.214864 0.293702
vt 0.121845 0.336406
vt 0.214864 0.275738
vt 0.214864 0.257774
vt 0.105298 0.329411
vt 0.091721 0.317648
vt 0.214864 0.239810
vt 0.082441 0.302267
vt 0.214864 0.221846
vt 0.078367 0.284771
vt 0.214864 0.203881
vt 0.079896 0.266872
vt 0.214864 0.185918
vt 0.086878 0.250320
vt 0.214864 0.167953
vt 0.214864 0.149989
vt 0.098632 0.236735
vt 0.214864 0.132025
vt 0.114008 0.227445
vt 0.131172 0.197240
vt 0.238831 0.320091
vt 0.115405 0.188632
vt 0.238831 0.302127
vt 0.103067 0.175574
vt 0.238831 0.284163
vt 0.095367 0.159345
vt 0.238831 0.266199
vt 0.093055 0.141530
vt 0.238831 0.248235
vt 0.238831 0.230271
vt 0.096360 0.123872
vt 0.104957 0.108099
vt 0.238831 0.212307
vt 0.118007 0.095753
vt 0.238831 0.194343
vt 0.238831 0.176378
vt 0.134231 0.088041
vt 0.238831 0.158415
vt 0.152044 0.085718
vt 0.825376 0.894125
vt 0.704396 0.619820
vt 0.859979 0.901958
vt 0.901250 0.665245
vt 0.727958 0.010653
vt 0.727957 0.646344
vt 0.794627 0.876430
vt 0.685403 0.589855
vt 0.770471 0.850447
vt 0.671474 0.557226
vt 0.755058 0.818492
vt 0.662968 0.522783
vt 0.749764 0.783411
vt 0.660108 0.487421
vt 0.662968 0.452059
vt 0.755058 0.748331
vt 0.770471 0.716376
vt 0.671474 0.417616
vt 0.794627 0.690393
vt 0.685403 0.384988
vt 0.825377 0.672698
vt 0.704396 0.355022
vt 0.901250 0.902338
vt 0.859979 0.664865
vt 0.727957 0.328498
vt 0.704397 0.301975
vt 0.866648 0.894505
vt 0.685404 0.272010
vt 0.835898 0.876809
vt 0.811742 0.850827
vt 0.671474 0.239381
vt 0.796330 0.818871
vt 0.662968 0.204938
vt 0.660109 0.169575
vt 0.791035 0.783791
vt 0.796330 0.748711
vt 0.662968 0.134214
vt 0.811742 0.716756
vt 0.671474 0.099771
vt 0.685404 0.067142
vt 0.835898 0.690773
vt 0.866648 0.673078
vt 0.704397 0.037177
vt 0.123039 0.604853
vt 0.766972 0.713987
vt 0.091797 0.585516
vt 0.791990 0.687078
vt 0.065571 0.559783
vt 0.823835 0.668751
vt 0.342926 0.438313
vt 0.045645 0.528914
vt 0.900941 0.906563
vt 0.859671 0.660640
vt 0.296772 0.494915
vt 0.833261 0.880124
vt 0.157768 0.616846
vt 0.751011 0.747081
vt 0.065571 0.469182
vt 0.865107 0.669131
vt 0.123039 0.514251
vt 0.808244 0.714367
vt 0.157768 0.526245
vt 0.792282 0.747461
vt 0.322999 0.559783
vt 0.823835 0.898071
vt 0.230801 0.526245
vt 0.792282 0.820122
vt 0.019747 0.736387
vt 0.521091 0.712170
vt 0.901086 0.958461
vt 0.842273 0.613789
vt 0.475399 0.739466
vt 0.848681 0.949155
vt 0.426775 0.761111
vt 0.801616 0.924306
vt 0.375917 0.776797
vt 0.764373 0.886283
vt 0.323548 0.786299
vt 0.740506 0.838711
vt 0.270418 0.789482
vt 0.732289 0.786125
vt 0.217290 0.786299
vt 0.740506 0.733540
vt 0.164921 0.776797
vt 0.764373 0.685967
vt 0.114063 0.761111
vt 0.801616 0.647945
vt 0.065439 0.739466
vt 0.848681 0.623095
vt 0.019747 0.712170
vt 0.521091 0.736387
vt 0.842273 0.958461
vt 0.901086 0.613789
vt 0.475399 0.763683
vt 0.789869 0.949155
vt 0.426775 0.785328
vt 0.742803 0.924306
vt 0.375917 0.801014
vt 0.705560 0.886283
vt 0.323548 0.810516
vt 0.681693 0.838711
vt 0.270418 0.813699
vt 0.673476 0.786125
vt 0.217290 0.810516
vt 0.681693 0.733540
vt 0.164921 0.801014
vt 0.705560 0.685967
vt 0.114063 0.785328
vt 0.742803 0.647945
vt 0.065439 0.763683
vt 0.789869 0.623095
vt 0.011540 0.653515
vt 0.473994 0.624812
vt 0.543430 0.039018
vt 0.516809 0.472834
vt 0.431847 0.649989
vt 0.511026 0.075900
vt 0.386995 0.669956
vt 0.484919 0.117478
vt 0.340080 0.684425
vt 0.465779 0.162689
vt 0.291775 0.693190
vt 0.454095 0.210373
vt 0.242766 0.696126
vt 0.450166 0.259310
vt 0.193760 0.693190
vt 0.454095 0.308248
vt 0.145454 0.684425
vt 0.465779 0.355933
vt 0.098539 0.669956
vt 0.484919 0.401143
vt 0.053687 0.649989
vt 0.511026 0.442721
vt 0.011540 0.624812
vt 0.473994 0.653515
vt 0.543430 0.479603
vt 0.516809 0.032249
vt 0.431847 0.678692
vt 0.484405 0.069131
vt 0.386995 0.698659
vt 0.458298 0.110709
vt 0.340080 0.713128
vt 0.439157 0.155919
vt 0.291775 0.721893
vt 0.427474 0.203604
vt 0.242768 0.724829
vt 0.423545 0.252541
vt 0.193760 0.721893
vt 0.427474 0.301479
vt 0.145454 0.713128
vt 0.439157 0.349164
vt 0.098539 0.698659
vt 0.458298 0.394374
vt 0.053687 0.678692
vt 0.484405 0.435952
vt 0.661128 0.438403
vt 0.661128 0.406291
vt 0.550238 0.472580
vt 0.523617 0.039273
vt 0.653472 0.422346
vt 0.842387 0.952967
vt 0.901200 0.619284
vt 0.620795 0.381144
vt 0.492246 0.074978
vt 0.609748 0.395085
vt 0.791654 0.943957
vt 0.587096 0.347627
vt 0.466971 0.115231
vt 0.573215 0.358749
vt 0.746088 0.919901
vt 0.561730 0.307431
vt 0.448441 0.159000
vt 0.545716 0.315174
vt 0.710034 0.883089
vt 0.545980 0.262586
vt 0.437130 0.205165
vt 0.528642 0.266559
vt 0.686926 0.837034
vt 0.540640 0.215357
vt 0.433327 0.252541
vt 0.522852 0.215357
vt 0.678972 0.786125
vt 0.545980 0.168128
vt 0.437130 0.299918
vt 0.528642 0.164158
vt 0.686926 0.735216
vt 0.448441 0.346083
vt 0.561730 0.123284
vt 0.545716 0.115542
vt 0.710034 0.689161
vt 0.466971 0.389852
vt 0.587096 0.083090
vt 0.573215 0.071966
vt 0.746088 0.652350
vt 0.620795 0.049572
vt 0.492246 0.430104
vt 0.609748 0.035630
vt 0.791654 0.628293
vt 0.214120 0.433350
vt 0.350362 0.004306
vt 0.006988 0.912641
vt 0.005133 0.924886
vt 0.147926 0.422751
vt 0.074026 0.912641
vt 0.088234 0.392239
vt 0.141063 0.912641
vt 0.040876 0.344791
vt 0.208101 0.912641
vt 0.010475 0.285043
vt 0.275140 0.912641
vt 0.000000 0.218828
vt 0.342177 0.912641
vt 0.010475 0.152614
vt 0.409215 0.912641
vt 0.040876 0.092866
vt 0.476253 0.912641
vt 0.088234 0.045418
vt 0.543291 0.912641
vt 0.147926 0.014905
vt 0.610328 0.912641
vt 0.350362 0.433349
vt 0.214120 0.004306
vt 0.677367 0.912641
vt 0.675512 0.924886
vt 0.284167 0.422751
vt 0.608474 0.924886
vt 0.224475 0.392239
vt 0.541437 0.924886
vt 0.177117 0.344791
vt 0.474399 0.924886
vt 0.146716 0.285043
vt 0.407360 0.924886
vt 0.136241 0.218828
vt 0.340323 0.924886
vt 0.146716 0.152614
vt 0.273285 0.924886
vt 0.177117 0.092866
vt 0.206247 0.924886
vt 0.224475 0.045418
vt 0.139208 0.924886
vt 0.284167 0.014905
vt 0.072171 0.924886
vt 0.478463 0.061901
vt 0.471821 0.692364
vt 0.517816 0.026365
vt 0.468868 0.484177
vt 0.519698 0.669576
vt 0.010526 0.689520
vt 0.421930 0.710323
vt 0.446354 0.104097
vt 0.370514 0.723277
vt 0.422595 0.151500
vt 0.318072 0.731100
vt 0.408004 0.202477
vt 0.265113 0.733716
vt 0.403084 0.255270
vt 0.212153 0.731100
vt 0.408004 0.308065
vt 0.422595 0.359042
vt 0.159710 0.723277
vt 0.108294 0.710323
vt 0.446354 0.406444
vt 0.058403 0.692364
vt 0.478463 0.448641
vt 0.517816 0.484177
vt 0.468868 0.026365
vt 0.010526 0.669576
vt 0.519698 0.689520
vt 0.471821 0.712308
vt 0.429515 0.061901
vt 0.421930 0.730266
vt 0.397406 0.104097
vt 0.373647 0.151500
vt 0.370514 0.743220
vt 0.359056 0.202477
vt 0.318072 0.751044
vt 0.354136 0.255272
vt 0.265113 0.753660
vt 0.359056 0.308065
vt 0.212153 0.751044
vt 0.159710 0.743220
vt 0.373647 0.359042
vt 0.108294 0.730267
vt 0.397406 0.406445
vt 0.058403 0.712308
vt 0.429515 0.448641
vt 0.476509 0.703614
vt 0.160653 0.383779
vt 0.525472 0.680309
vt 0.004752 0.700253
vt 0.214197 0.392352
vt 0.350438 0.045304
vt 0.425489 0.721980
vt 0.112369 0.359097
vt 0.372906 0.735228
vt 0.074062 0.320717
vt 0.319273 0.743229
vt 0.049471 0.272388
vt 0.265113 0.745904
vt 0.040998 0.218828
vt 0.210952 0.743229
vt 0.049471 0.165268
vt 0.157318 0.735228
vt 0.074062 0.116938
vt 0.112369 0.078558
vt 0.104736 0.721980
vt 0.160653 0.053877
vt 0.053715 0.703614
vt 0.350438 0.392352
vt 0.214197 0.045304
vt 0.004752 0.680309
vt 0.525472 0.700253
vt 0.296894 0.383779
vt 0.476509 0.723558
vt 0.248610 0.359097
vt 0.425489 0.741924
vt 0.210303 0.320717
vt 0.372906 0.755171
vt 0.319273 0.763172
vt 0.185712 0.272388
vt 0.265113 0.765848
vt 0.177239 0.218828
vt 0.210952 0.763172
vt 0.185712 0.165267
vt 0.157318 0.755171
vt 0.210303 0.116938
vt 0.104736 0.741924
vt 0.248610 0.078558
vt 0.053715 0.723558
vt 0.296894 0.053877
vt 0.006988 0.840677
vt 0.005133 0.996850
vt 0.074026 0.840677
vt 0.141063 0.840677
vt 0.208101 0.840677
vt 0.275140 0.840677
vt 0.342177 0.840677
vt 0.409215 0.840677
vt 0.476253 0.840677
vt 0.543291 0.840677
vt 0.610328 0.840677
vt 0.677367 0.840677
vt 0.675512 0.996850
vt 0.608474 0.996850
vt 0.541437 0.996850
vt 0.474399 0.996850
vt 0.407360 0.996850
vt 0.340323 0.996850
vt 0.273285 0.996850
vt 0.206247 0.996850
vt 0.139208 0.996850
vt 0.072171 0.996850
s 0
f 6/21/1 11/31/1 71/160/1 1/1/1
f 101/220/2 5/17/2 4/13/2 100/218/2
f 261/527/3 242/485/3 3/9/3 99/216/3
f 5/18/4 10/29/4 9/27/4 4/14/4
f 92/202/5 87/193/5 168/369/5 169/370/5
f 242/486/6 243/489/6 8/25/6 3/10/6
f 16/41/1 21/51/1 71/160/1 11/31/1
f 243/489/7 244/491/7 13/35/7 8/25/7
f 10/29/8 15/39/8 14/37/8 9/27/8
f 57/132/9 52/114/9 201/398/9 202/399/9
f 244/491/10 245/493/10 18/45/10 13/35/10
f 26/61/1 31/71/1 71/160/1 21/51/1
f 15/39/11 20/49/11 19/47/11 14/37/11
f 77/172/12 72/163/12 165/363/12 166/364/12
f 47/104/13 42/94/13 199/393/13 200/395/13
f 245/493/14 246/495/14 23/55/14 18/45/14
f 20/49/15 25/59/15 24/57/15 19/47/15
f 1/2/16 97/212/16 170/372/16 151/330/16
f 17/44/17 12/34/17 193/381/17 194/383/17
f 246/495/18 247/497/18 28/65/18 23/55/18
f 36/81/1 41/91/1 71/160/1 31/71/1
f 25/59/19 30/69/19 29/67/19 24/57/19
f 30/69/20 35/79/20 34/77/20 29/67/20
f 61/141/21 56/131/21 162/357/21 163/359/21
f 93/204/22 88/195/22 208/412/22 209/413/22
f 247/497/23 248/499/23 33/75/23 28/65/23
f 46/101/1 51/111/1 71/160/1 41/91/1
f 35/79/24 40/89/24 39/87/24 34/77/24
f 31/72/25 26/62/25 156/343/25 157/345/25
f 248/499/26 249/501/26 38/85/26 33/75/26
f 249/501/27 250/503/27 43/95/27 38/85/27
f 40/89/28 45/99/28 44/97/28 39/87/28
f 78/174/29 73/165/29 205/406/29 206/407/29
f 250/503/30 251/505/30 48/105/30 43/95/30
f 56/130/1 61/140/1 71/161/1 51/111/1
f 45/99/31 50/109/31 49/107/31 44/97/31
f 46/102/32 41/92/32 159/349/32 160/350/32
f 62/142/33 57/132/33 202/399/33 203/401/33
f 251/505/34 252/507/34 53/118/34 48/105/34
f 50/109/35 55/126/35 54/122/35 49/107/35
f 16/42/36 11/32/36 153/337/36 154/338/36
f 32/73/37 27/64/37 196/387/37 197/388/37
f 252/508/38 253/511/38 58/134/38 53/119/38
f 66/150/1 72/162/1 71/161/1 61/140/1
f 55/127/39 60/138/39 59/136/39 54/123/39
f 60/138/40 65/148/40 64/146/40 59/136/40
f 82/183/41 77/172/41 166/364/41 167/367/41
f 253/511/42 254/513/42 63/144/42 58/134/42
f 77/173/1 82/182/1 71/161/1 72/162/1
f 65/148/43 70/158/43 69/156/43 64/146/43
f 98/215/44 93/204/44 209/413/44 210/416/44
f 254/513/45 255/515/45 68/154/45 63/144/45
f 255/515/46 256/517/46 74/166/46 68/154/46
f 70/158/47 76/170/47 75/168/47 69/156/47
f 51/112/48 46/102/48 160/350/48 161/352/48
f 256/517/49 257/519/49 79/176/49 74/166/49
f 87/192/1 92/203/1 71/161/1 82/182/1
f 76/170/50 81/180/50 80/178/50 75/168/50
f 83/185/51 78/174/51 206/407/51 207/410/51
f 257/519/52 258/521/52 84/186/52 79/176/52
f 81/180/53 86/190/53 85/188/53 80/178/53
f 97/212/54 92/202/54 169/370/54 170/372/54
f 67/153/55 62/142/55 203/401/55 204/404/55
f 258/521/56 259/523/56 89/196/56 84/186/56
f 86/190/57 91/200/57 90/198/57 85/188/57
f 91/200/58 96/210/58 95/208/58 90/198/58
f 21/52/59 16/42/59 154/338/59 155/341/59
f 259/523/60 260/525/60 94/206/60 89/196/60
f 260/525/61 261/527/61 99/216/61 94/206/61
f 96/210/62 101/220/62 100/218/62 95/208/62
f 37/84/63 32/73/63 197/388/63 198/391/63
f 93/205/64 98/214/64 121/264/64 120/262/64
f 88/194/65 93/205/65 120/262/65 119/260/65
f 83/184/66 88/194/66 119/260/66 118/258/66
f 78/175/67 83/184/67 118/258/67 117/256/67
f 73/164/68 78/175/68 117/256/68 116/254/68
f 67/152/69 73/164/69 116/254/69 115/252/69
f 62/143/70 67/152/70 115/252/70 114/250/70
f 57/133/71 62/143/71 114/250/71 113/248/71
f 52/115/72 57/133/72 113/248/72 112/244/72
f 47/103/73 52/116/73 112/245/73 111/242/73
f 42/93/74 47/103/74 111/242/74 110/240/74
f 37/83/75 42/93/75 110/240/75 109/238/75
f 32/74/76 37/83/76 109/238/76 108/236/76
f 27/63/77 32/74/77 108/236/77 107/234/77
f 22/53/78 27/63/78 107/234/78 106/232/78
f 17/43/79 22/53/79 106/232/79 105/230/79
f 12/33/80 17/43/80 105/230/80 104/228/80
f 7/23/81 12/33/81 104/228/81 103/226/81
f 2/5/82 7/23/82 103/226/82 102/222/82
f 98/214/83 2/6/83 102/223/83 121/264/83
f 94/207/84 99/217/84 217/431/84 130/284/84
f 89/197/85 94/207/85 130/284/85 218/433/85
f 84/187/86 89/197/86 218/433/86 219/435/86
f 79/177/87 84/187/87 219/435/87 129/282/87
f 74/167/88 79/177/88 129/282/88 221/439/88
f 68/155/89 74/167/89 221/439/89 128/280/89
f 63/145/90 68/155/90 128/280/90 215/427/90
f 58/135/91 63/145/91 215/427/91 127/278/91
f 53/120/92 58/135/92 127/278/92 214/423/92
f 48/106/93 53/121/93 214/424/93 213/421/93
f 43/96/94 48/106/94 213/421/94 212/419/94
f 38/86/95 43/96/95 212/419/95 211/417/95
f 33/76/96 38/86/96 211/417/96 216/429/96
f 28/66/97 33/76/97 216/429/97 126/276/97
f 23/56/98 28/66/98 126/276/98 125/274/98
f 18/46/99 23/56/99 125/274/99 124/272/99
f 13/36/100 18/46/100 124/272/100 123/270/100
f 8/26/101 13/36/101 123/270/101 220/437/101
f 3/11/102 8/26/102 220/437/102 122/266/102
f 99/217/103 3/12/103 122/267/103 217/431/103
f 245/494/104 244/492/104 146/317/104 144/313/104
f 279/566/105 281/570/105 280/568/105 278/565/105
f 281/570/106 149/322/106 150/326/106 280/568/106
f 149/323/107 147/318/107 148/320/107 150/327/107
f 147/318/108 145/314/108 146/316/108 148/320/108
f 145/314/109 143/310/109 144/312/109 146/316/109
f 143/310/110 141/306/110 142/308/110 144/312/110
f 141/306/111 139/302/111 140/304/111 142/308/111
f 139/302/112 137/298/112 138/300/112 140/304/112
f 137/298/113 135/294/113 136/296/113 138/300/113
f 135/294/114 133/290/114 134/292/114 136/296/114
f 133/290/115 131/286/115 132/288/115 134/292/115
f 131/286/116 263/533/116 262/529/116 132/288/116
f 263/533/117 265/538/117 264/536/117 262/530/117
f 265/538/118 267/542/118 266/540/118 264/536/118
f 267/542/119 269/546/119 268/544/119 266/540/119
f 269/546/120 271/550/120 270/548/120 268/544/120
f 271/550/121 273/554/121 272/552/121 270/548/121
f 273/554/122 275/558/122 274/556/122 272/552/122
f 275/558/123 277/562/123 276/561/123 274/556/123
f 170/373/124 169/371/124 120/263/124 121/265/124
f 151/331/125 170/373/125 121/265/125 102/224/125
f 152/334/126 151/332/126 102/225/126 103/227/126
f 153/336/127 152/334/127 103/227/127 104/229/127
f 154/339/128 153/336/128 104/229/128 105/231/128
f 155/340/129 154/339/129 105/231/129 106/233/129
f 156/342/130 155/340/130 106/233/130 107/235/130
f 157/344/131 156/342/131 107/235/131 108/237/131
f 158/346/132 157/344/132 108/237/132 109/239/132
f 159/348/133 158/346/133 109/239/133 110/241/133
f 160/351/134 159/348/134 110/241/134 111/243/134
f 161/353/135 160/351/135 111/243/135 112/246/135
f 162/356/136 161/354/136 112/247/136 113/249/136
f 163/358/137 162/356/137 113/249/137 114/251/137
f 164/360/138 163/358/138 114/251/138 115/253/138
f 165/362/139 164/360/139 115/253/139 116/255/139
f 166/365/140 165/362/140 116/255/140 117/257/140
f 167/366/141 166/365/141 117/257/141 118/259/141
f 168/368/142 167/366/142 118/259/142 119/261/142
f 169/371/143 168/368/143 119/261/143 120/263/143
f 56/131/144 51/113/144 161/355/144 162/357/144
f 11/32/145 6/22/145 152/335/145 153/337/145
f 41/92/146 36/82/146 158/347/146 159/349/146
f 87/193/147 82/183/147 167/367/147 168/369/147
f 72/163/148 66/151/148 164/361/148 165/363/148
f 26/62/149 21/52/149 155/341/149 156/343/149
f 36/82/150 31/72/150 157/345/150 158/347/150
f 66/151/151 61/141/151 163/359/151 164/361/151
f 6/22/152 1/3/152 151/333/152 152/335/152
f 122/268/153 220/438/153 191/374/153 192/376/153
f 217/432/154 122/269/154 192/377/154 210/415/154
f 130/285/155 217/432/155 210/415/155 209/414/155
f 218/434/156 130/285/156 209/414/156 208/411/156
f 219/436/157 218/434/157 208/411/157 207/409/157
f 129/283/158 219/436/158 207/409/158 206/408/158
f 221/440/159 129/283/159 206/408/159 205/405/159
f 128/281/160 221/440/160 205/405/160 204/403/160
f 215/428/161 128/281/161 204/403/161 203/402/161
f 127/279/162 215/428/162 203/402/162 202/400/162
f 214/425/163 127/279/163 202/400/163 201/396/163
f 213/422/164 214/426/164 201/397/164 200/394/164
f 212/420/165 213/422/165 200/394/165 199/392/165
f 211/418/166 212/420/166 199/392/166 198/390/166
f 216/430/167 211/418/167 198/390/167 197/389/167
f 126/277/168 216/430/168 197/389/168 196/386/168
f 125/275/169 126/277/169 196/386/169 195/384/169
f 124/273/170 125/275/170 195/384/170 194/382/170
f 123/271/171 124/273/171 194/382/171 193/380/171
f 220/438/172 123/271/172 193/380/172 191/374/172
f 88/195/173 83/185/173 207/410/173 208/412/173
f 27/64/174 22/54/174 195/385/174 196/387/174
f 2/7/175 98/215/175 210/416/175 192/378/175
f 12/34/176 7/24/176 191/375/176 193/381/176
f 42/94/177 37/84/177 198/391/177 199/393/177
f 22/54/178 17/44/178 194/383/178 195/385/178
f 73/165/179 67/153/179 204/404/179 205/406/179
f 7/24/180 2/8/180 192/379/180 191/375/180
f 52/117/181 47/104/181 200/395/181 201/398/181
f 100/219/3 4/15/3 222/441/3 241/483/3
f 4/16/6 9/28/6 223/445/6 222/442/6
f 9/28/7 14/38/7 224/447/7 223/445/7
f 14/38/10 19/48/10 225/449/10 224/447/10
f 19/48/14 24/58/14 226/451/14 225/449/14
f 24/58/18 29/68/18 227/453/18 226/451/18
f 29/68/23 34/78/23 228/455/23 227/453/23
f 34/78/26 39/88/26 229/457/26 228/455/26
f 39/88/27 44/98/27 230/459/27 229/457/27
f 44/98/30 49/108/30 231/461/30 230/459/30
f 49/108/34 54/124/34 232/463/34 231/461/34
f 54/125/38 59/137/38 233/467/38 232/464/38
f 59/137/42 64/147/42 234/469/42 233/467/42
f 64/147/45 69/157/45 235/471/45 234/469/45
f 69/157/46 75/169/46 236/473/46 235/471/46
f 75/169/49 80/179/49 237/475/49 236/473/49
f 80/179/52 85/189/52 238/477/52 237/475/52
f 85/189/56 90/199/56 239/479/56 238/477/56
f 90/199/60 95/209/60 240/481/60 239/479/60
f 95/209/61 100/219/61 241/483/61 240/481/61
f 223/446/182 224/448/182 145/315/182 147/319/182
f 259/524/183 258/522/183 274/557/183 276/560/183
f 236/474/184 237/476/184 273/555/184 271/551/184
f 246/496/185 245/494/185 144/313/185 142/309/185
f 222/443/186 223/446/186 147/319/186 149/324/186
f 260/526/187 259/524/187 276/560/187 278/564/187
f 235/472/188 236/474/188 271/551/188 269/547/188
f 247/498/189 246/496/189 142/309/189 140/305/189
f 241/484/190 222/444/190 149/325/190 281/571/190
f 261/528/191 260/526/191 278/564/191 280/569/191
f 234/470/192 235/472/192 269/547/192 267/543/192
f 248/500/193 247/498/193 140/305/193 138/301/193
f 233/468/194 234/470/194 267/543/194 265/539/194
f 249/502/195 248/500/195 138/301/195 136/297/195
f 232/465/196 233/468/196 265/539/196 263/534/196
f 250/504/197 249/502/197 136/297/197 134/293/197
f 231/462/198 232/466/198 263/535/198 131/287/198
f 251/506/199 250/504/199 134/293/199 132/289/199
f 230/460/200 231/462/200 131/287/200 133/291/200
f 277/562/201 279/566/201 278/565/201 276/561/201
f 252/509/202 251/506/202 132/289/202 262/531/202
f 237/476/203 238/478/203 275/559/203 273/555/203
f 258/522/204 257/520/204 272/553/204 274/557/204
f 224/448/205 225/450/205 143/311/205 145/315/205
f 244/492/206 243/490/206 148/321/206 146/317/206
f 238/478/207 239/480/207 277/563/207 275/559/207
f 257/520/208 256/518/208 270/549/208 272/553/208
f 225/450/209 226/452/209 141/307/209 143/311/209
f 243/490/210 242/487/210 150/328/210 148/321/210
f 239/480/211 240/482/211 279/567/211 277/563/211
f 256/518/212 255/516/212 268/545/212 270/549/212
f 226/452/213 227/454/213 139/303/213 141/307/213
f 242/488/214 261/528/214 280/569/214 150/329/214
f 240/482/215 241/484/215 281/571/215 279/567/215
f 255/516/216 254/514/216 266/541/216 268/545/216
f 227/454/217 228/456/217 137/299/217 139/303/217
f 254/514/218 253/512/218 264/537/218 266/541/218
f 228/456/219 229/458/219 135/295/219 137/299/219
f 253/512/220 252/510/220 262/532/220 264/537/220
f 229/458/221 230/460/221 133/291/221 135/295/221
f 86/191/222 81/181/222 317/650/222 318/652/222
f 295/602/223 296/604/223 336/693/223 335/690/223
f 70/159/224 65/149/224 314/645/224 315/646/224
f 40/90/225 35/80/225 308/631/225 309/632/225
f 294/600/226 295/602/226 335/690/226 334/688/226
f 55/128/227 50/110/227 311/637/227 312/638/227
f 76/171/228 70/159/228 315/646/228 316/648/228
f 10/30/229 5/19/229 303/618/229 302/616/229
f 293/598/230 294/600/230 334/688/230 333/686/230
f 91/201/231 86/191/231 318/652/231 319/655/231
f 45/100/232 40/90/232 309/632/232 310/635/232
f 292/594/233 293/598/233 333/686/233 332/682/233
f 15/40/234 10/30/234 302/616/234 304/623/234
f 60/139/235 55/129/235 312/639/235 313/643/235
f 291/592/236 292/595/236 332/683/236 331/680/236
f 81/181/237 76/171/237 316/648/237 317/650/237
f 290/590/238 291/592/238 331/680/238 330/678/238
f 5/20/239 101/221/239 321/659/239 303/619/239
f 289/588/240 290/590/240 330/678/240 329/677/240
f 30/70/241 25/60/241 306/627/241 307/629/241
f 320/656/242 319/654/242 339/698/242 340/700/242
f 305/624/243 304/622/243 324/666/243 325/668/243
f 319/654/244 318/653/244 338/696/244 339/698/244
f 307/628/245 306/626/245 326/670/245 327/672/245
f 310/634/246 309/633/246 329/676/246 330/679/246
f 312/640/247 311/636/247 331/681/247 332/684/247
f 302/617/248 303/620/248 323/662/248 322/660/248
f 308/630/249 307/628/249 327/672/249 328/674/249
f 303/621/250 321/658/250 341/702/250 323/663/250
f 311/636/251 310/634/251 330/679/251 331/681/251
f 306/626/252 305/624/252 325/668/252 326/670/252
f 316/649/253 315/647/253 335/691/253 336/692/253
f 318/653/254 317/651/254 337/694/254 338/696/254
f 314/644/255 313/642/255 333/687/255 334/689/255
f 321/658/256 320/656/256 340/700/256 341/702/256
f 309/633/257 308/630/257 328/674/257 329/676/257
f 313/642/258 312/641/258 332/685/258 333/687/258
f 304/622/259 302/617/259 322/660/259 324/666/259
f 317/651/260 316/649/260 336/692/260 337/694/260
f 315/647/261 314/644/261 334/689/261 335/691/261
f 282/572/262 283/576/262 322/661/262 323/664/262
f 296/604/263 297/606/263 337/695/263 336/693/263
f 283/576/264 284/578/264 324/667/264 322/661/264
f 297/606/265 298/608/265 338/697/265 337/695/265
f 25/60/266 20/50/266 305/625/266 306/627/266
f 284/578/267 285/580/267 325/669/267 324/667/267
f 35/80/268 30/70/268 307/629/268 308/631/268
f 298/608/269 299/610/269 339/699/269 338/697/269
f 101/221/270 96/211/270 320/657/270 321/659/270
f 65/149/271 60/139/271 313/643/271 314/645/271
f 285/580/272 286/582/272 326/671/272 325/669/272
f 299/610/273 300/612/273 340/701/273 339/699/273
f 286/582/274 287/584/274 327/673/274 326/671/274
f 96/211/275 91/201/275 319/655/275 320/657/275
f 300/612/276 301/614/276 341/703/276 340/701/276
f 287/584/277 288/586/277 328/675/277 327/673/277
f 20/50/278 15/40/278 304/623/278 305/625/278
f 301/614/279 282/573/279 323/665/279 341/703/279
f 50/110/280 45/100/280 310/635/280 311/637/280
f 288/586/281 289/588/281 329/677/281 328/675/281
f 297/607/149 296/605/149 356/720/149 357/721/149
f 290/591/5 289/589/5 349/712/5 350/713/5
f 283/577/144 282/574/144 342/704/144 343/706/144
f 298/609/25 297/607/25 357/721/25 358/722/25
f 291/593/54 290/591/54 350/713/54 351/714/54
f 284/579/21 283/577/21 343/706/21 344/707/21
f 299/611/150 298/609/150 358/722/150 359/723/150
f 292/596/16 291/593/16 351/714/16 352/715/16
f 285/581/151 284/579/151 344/707/151 345/708/151
f 300/613/146 299/611/146 359/723/146 360/724/146
f 293/599/152 292/597/152 352/716/152 353/717/152
f 286/583/148 285/581/148 345/708/148 346/709/148
f 301/615/32 300/613/32 360/724/32 361/725/32
f 294/601/145 293/599/145 353/717/145 354/718/145
f 287/585/12 286/583/12 346/709/12 347/710/12
f 282/575/48 301/615/48 361/725/48 342/705/48
f 295/603/36 294/601/36 354/718/36 355/719/36
f 288/587/41 287/585/41 347/710/41 348/711/41
f 296/605/59 295/603/59 355/719/59 356/720/59
f 289/589/147 288/587/147 348/711/147 349/712/147
f 92/203/1 97/213/1 1/4/1 71/161/1
l 174 105
l 182 113
l 190 121
l 175 106
l 183 114
l 176 107
l 115 184
l 177 108
l 178 109
l 186 117
l 102 171
l 179 110
l 187 118
l 185 116
l 180 111
l 188 119
l 172 103
l 173 104
l 181 112
l 189 120
