# Blender v2.93.3 OBJ File: 'BANDERAS.blend'
# www.blender.org
mtllib Bandera_low.mtl
o Plane
v -3.176273 -26.050854 -0.000001
v 2.857084 -26.135777 -0.000001
v -3.127279 -0.027023 0.000001
v 2.857084 -0.027023 0.000001
v -3.097882 -23.160507 0.000000
v -3.127279 -23.779224 0.000000
v -3.078285 -24.397943 0.000000
v -3.058687 -25.016661 -0.000000
v -3.176273 -25.635376 -0.000000
v 2.896279 -25.720301 -0.000000
v 2.857084 -24.938271 -0.000000
v 2.759095 -24.319553 0.000000
v 2.759095 -23.700836 0.000000
v 2.759095 -23.082117 0.000000
v -1.631188 -25.734024 -0.025369
v -0.135098 -25.694828 -0.025369
v 1.360993 -26.008392 0.127688
v 1.360993 -0.027023 0.000001
v -0.135098 -0.027023 0.000001
v -1.631188 -0.027023 0.000001
v 1.360993 -25.592915 0.127688
v -0.135098 -25.279352 -0.025369
v -1.631188 -25.318548 -0.025369
v 1.360993 -24.974199 0.127688
v -0.135098 -24.660635 -0.025369
v -1.631188 -24.699831 -0.025369
v 1.360993 -24.355482 0.127688
v -0.135098 -24.041918 -0.025368
v -1.631188 -24.081114 -0.025368
v 1.360993 -23.736765 0.127688
v -0.135098 -23.423201 -0.025368
v -1.631188 -23.462397 -0.025368
v 1.360993 -23.118046 0.127689
v -0.135098 -22.804483 -0.025368
v -1.631188 -22.843678 -0.025368
v 2.791758 -15.397086 0.000000
v 2.824421 -7.712055 0.000001
v -3.117480 -7.738185 0.000001
v -3.107681 -15.449347 0.000000
v -1.631188 -15.238127 0.000000
v -1.631188 -7.632575 0.000001
v -0.135098 -15.211996 0.042330
v -0.135098 -7.619510 0.042330
v 1.360993 -15.421039 0.000000
v 1.360993 -7.724031 0.000001
vt 0.172948 0.295014
vt 0.116952 0.294546
vt 0.115761 0.000482
vt 0.173008 0.000494
vt 0.172709 0.994661
vt 0.115253 0.999518
vt 0.113764 0.983619
vt 0.172713 0.978764
vt 0.115268 0.953695
vt 0.172720 0.955091
vt 0.119013 0.930019
vt 0.172727 0.931420
vt 0.119027 0.906344
vt 0.172735 0.907753
vt 0.119047 0.882662
vt 0.172744 0.884094
vt 0.344759 0.909374
vt 0.287503 0.897255
vt 0.287501 0.873580
vt 0.343633 0.885698
vt 0.230260 0.895760
vt 0.230257 0.872085
vt 0.342885 0.933050
vt 0.287504 0.920929
vt 0.230261 0.919431
vt 0.342136 0.956725
vt 0.287504 0.944603
vt 0.230260 0.943103
vt 0.346635 0.980401
vt 0.287504 0.968278
vt 0.230258 0.966776
vt 0.346635 0.996299
vt 0.287504 0.984176
vt 0.230257 0.982673
vt 0.344358 0.295575
vt 0.287488 0.291529
vt 0.287505 0.000509
vt 0.344752 0.000513
vt 0.230219 0.291024
vt 0.230257 0.000501
vt 0.172908 0.589556
vt 0.230181 0.581544
vt 0.287451 0.582548
vt 0.343950 0.590629
vt 0.118157 0.588602
vn 0.0108 0.0006 0.9999
vn 0.0000 0.0000 1.0000
vn 0.0071 0.0014 1.0000
vn -0.0002 -0.0022 1.0000
vn 0.0836 -0.0039 0.9965
vn 0.0838 -0.0009 0.9965
vn -0.0090 -0.0003 0.9999
vn 0.0858 0.0045 0.9963
vn -0.0080 0.0023 0.9999
vn 0.0893 0.0036 0.9960
vn -0.0063 0.0018 1.0000
vn 0.0909 0.0000 0.9958
vn -0.0054 0.0000 1.0000
vn 0.0675 0.0042 0.9977
vn -0.0025 0.0029 1.0000
vn 0.0171 0.0002 0.9998
vn 0.0086 0.0000 0.9999
vn 0.0028 -0.0020 1.0000
vn 0.0137 -0.0009 0.9999
vn -0.0509 0.0000 0.9987
vn -0.0360 -0.0004 0.9993
vn 0.0173 0.0004 0.9998
vn 0.0086 0.0002 0.9999
vn 0.0175 -0.0009 0.9998
vn 0.0087 -0.0003 0.9999
vn 0.0168 -0.0006 0.9998
vn 0.0085 -0.0005 0.9999
vn 0.0164 0.0000 0.9998
vn 0.0088 0.0000 0.9999
vn -0.0537 0.0000 0.9985
vn -0.0106 0.0007 0.9999
vn -0.0070 0.0014 1.0000
vn -0.0001 0.0014 1.0000
vn 0.0000 0.0027 1.0000
vn 0.0079 0.0031 0.9999
vn -0.0112 -0.0006 0.9999
vn -0.0085 -0.0019 0.9999
vn 0.0049 -0.0009 1.0000
vn 0.0222 0.0040 0.9997
usemtl None
s 1
f 45/1/1 37/2/2 4/3/2 18/4/3
f 17/5/4 2/6/5 10/7/6 21/8/7
f 21/8/7 10/7/6 11/9/8 24/10/9
f 24/10/9 11/9/8 12/11/10 27/12/11
f 27/12/11 12/11/10 13/13/12 30/14/13
f 30/14/13 13/13/12 14/15/14 33/16/15
f 6/17/16 32/18/17 35/19/18 5/20/19
f 32/18/17 31/21/20 34/22/21 35/19/18
f 31/21/20 30/14/13 33/16/15 34/22/21
f 7/23/22 29/24/23 32/18/17 6/17/16
f 29/24/23 28/25/20 31/21/20 32/18/17
f 28/25/20 27/12/11 30/14/13 31/21/20
f 8/26/24 26/27/25 29/24/23 7/23/22
f 26/27/25 25/28/20 28/25/20 29/24/23
f 25/28/20 24/10/9 27/12/11 28/25/20
f 9/29/26 23/30/27 26/27/25 8/26/24
f 23/30/27 22/31/20 25/28/20 26/27/25
f 22/31/20 21/8/7 24/10/9 25/28/20
f 1/32/28 15/33/29 23/30/27 9/29/26
f 15/33/29 16/34/30 22/31/20 23/30/27
f 16/34/30 17/5/4 21/8/7 22/31/20
f 38/35/2 41/36/31 20/37/32 3/38/2
f 41/36/31 43/39/33 19/40/34 20/37/32
f 43/39/33 45/1/1 18/4/3 19/40/34
f 34/22/21 33/16/15 44/41/35 42/42/36
f 42/42/36 44/41/35 45/1/1 43/39/33
f 35/19/18 34/22/21 42/42/36 40/43/37
f 40/43/37 42/42/36 43/39/33 41/36/31
f 5/20/19 35/19/18 40/43/37 39/44/38
f 39/44/38 40/43/37 41/36/31 38/35/2
f 33/16/15 14/15/14 36/45/39 44/41/35
f 44/41/35 36/45/39 37/2/2 45/1/1
o Cylinder
v 3.540179 0.151944 -0.466492
v -3.823570 0.151944 -0.448182
v 3.540179 0.242952 -0.457528
v -3.823570 0.239380 -0.439570
v 3.540179 0.330462 -0.430982
v -3.823570 0.323456 -0.414066
v 3.540179 0.411113 -0.387874
v -3.823570 0.400940 -0.372649
v 3.540179 0.481803 -0.329859
v -3.823570 0.468856 -0.316912
v 3.540179 0.539817 -0.259169
v -3.823570 0.524593 -0.248996
v 3.540179 0.582926 -0.178519
v -3.823570 0.566010 -0.171512
v 3.540180 0.609472 -0.091008
v -3.823569 0.591514 -0.087436
v 3.540180 0.618436 0.000000
v -3.823569 0.600125 0.000000
v 3.540180 0.609472 0.091008
v -3.823569 0.591514 0.087436
v 3.540179 0.582926 0.178519
v -3.823570 0.566010 0.171512
v 3.540179 0.539817 0.259169
v -3.823570 0.524593 0.248996
v 3.540179 0.481803 0.329859
v -3.823570 0.468856 0.316912
v 3.540179 0.411113 0.387874
v -3.823570 0.400940 0.372649
v 3.540179 0.330462 0.430982
v -3.823570 0.323456 0.414066
v 3.540179 0.242952 0.457528
v -3.823570 0.239380 0.439570
v 3.540179 0.151944 0.466492
v -3.823570 0.151944 0.448182
v 3.540179 0.060936 0.457528
v -3.823570 0.064508 0.439570
v 3.540179 -0.026575 0.430982
v -3.823570 -0.019568 0.414066
v 3.540179 -0.107225 0.387874
v -3.823570 -0.097052 0.372649
v 3.540179 -0.177916 0.329859
v -3.823570 -0.164968 0.316912
v 3.540179 -0.235930 0.259169
v -3.823570 -0.220705 0.248996
v 3.540179 -0.279038 0.178519
v -3.823570 -0.262122 0.171512
v 3.540179 -0.305584 0.091008
v -3.823571 -0.287626 0.087436
v 3.540179 -0.314548 -0.000000
v -3.823571 -0.296238 -0.000000
v 3.540179 -0.305584 -0.091008
v -3.823571 -0.287626 -0.087436
v 3.540179 -0.279038 -0.178519
v -3.823570 -0.262122 -0.171512
v 3.540179 -0.235930 -0.259169
v -3.823570 -0.220705 -0.248996
v 3.540179 -0.177916 -0.329859
v -3.823570 -0.164968 -0.316912
v 3.540179 -0.107225 -0.387874
v -3.823570 -0.097052 -0.372649
v 3.540179 -0.026575 -0.430982
v -3.823570 -0.019568 -0.414066
v 3.540179 0.060936 -0.457528
v -3.823570 0.064508 -0.439570
v 3.540180 0.582926 0.000000
v 3.540180 0.539818 0.000000
v 3.540180 0.481804 0.000000
v 3.540180 0.411113 0.000000
v 3.540180 0.330463 0.000000
v 3.540179 0.242952 0.000000
v 3.540179 0.151944 0.000000
v 3.540179 0.060936 0.000000
v 3.540179 -0.026575 0.000000
v 3.540179 -0.107225 0.000000
v 3.540179 -0.177915 -0.000000
v 3.540179 -0.235930 -0.000000
v 3.540179 -0.279038 -0.000000
v -3.823569 0.566009 0.000000
v -3.823569 0.524593 0.000000
v -3.823569 0.468856 0.000000
v -3.823569 0.400940 0.000000
v -3.823569 0.323455 0.000000
v -3.823570 0.239380 0.000000
v -3.823570 0.151944 0.000000
v -3.823570 0.064508 0.000000
v -3.823570 -0.019568 0.000000
v -3.823571 -0.097053 0.000000
v -3.823571 -0.164969 0.000000
v -3.823571 -0.220706 -0.000000
v -3.823571 -0.262122 -0.000000
v 3.228612 0.151944 -0.466492
v -3.524212 0.151944 -0.448181
v -3.524212 0.239380 -0.439570
v 3.228612 0.242952 -0.457528
v -3.524212 0.323456 -0.414066
v 3.228612 0.330462 -0.430982
v -3.524212 0.400940 -0.372649
v 3.228612 0.411113 -0.387874
v -3.524212 0.468856 -0.316912
v 3.228612 0.481803 -0.329859
v -3.524212 0.524593 -0.248996
v 3.228612 0.539817 -0.259169
v -3.524212 0.566010 -0.171512
v 3.228612 0.582926 -0.178519
v -3.524209 0.591514 -0.087436
v 3.228615 0.609472 -0.091008
v -3.524209 0.600125 0.000000
v 3.228615 0.618435 0.000000
v -3.524209 0.591514 0.087436
v 3.228615 0.609472 0.091008
v -3.524212 0.566010 0.171512
v 3.228612 0.582926 0.178519
v -3.524212 0.524593 0.248996
v 3.228612 0.539817 0.259169
v -3.524212 0.468856 0.316912
v 3.228612 0.481803 0.329859
v -3.524212 0.400940 0.372649
v 3.228612 0.411113 0.387874
v -3.524212 0.323456 0.414066
v 3.228612 0.330462 0.430982
v -3.524212 0.239380 0.439570
v 3.228612 0.242952 0.457528
v -3.524212 0.151944 0.448181
v 3.228612 0.151944 0.466492
v -3.524212 0.064508 0.439570
v 3.228612 0.060936 0.457528
v -3.524212 -0.019568 0.414066
v 3.228612 -0.026575 0.430982
v -3.524212 -0.097052 0.372649
v 3.228612 -0.107225 0.387874
v -3.524212 -0.164968 0.316912
v 3.228612 -0.177916 0.329859
v -3.524212 -0.220705 0.248996
v 3.228612 -0.235930 0.259169
v -3.524212 -0.262122 0.171512
v 3.228612 -0.279038 0.178519
v -3.524214 -0.287626 0.087436
v 3.228610 -0.305584 0.091008
v -3.524214 -0.296238 -0.000000
v 3.228610 -0.314548 -0.000000
v -3.524214 -0.287626 -0.087436
v 3.228610 -0.305584 -0.091008
v -3.524212 -0.262122 -0.171512
v 3.228612 -0.279038 -0.178519
v -3.524212 -0.220705 -0.248996
v 3.228612 -0.235930 -0.259169
v -3.524212 -0.164968 -0.316912
v 3.228612 -0.177916 -0.329859
v -3.524212 -0.097052 -0.372649
v 3.228612 -0.107225 -0.387874
v -3.524212 -0.019568 -0.414066
v 3.228612 -0.026575 -0.430982
v -3.524212 0.064508 -0.439570
v 3.228612 0.060936 -0.457528
v 2.877435 0.151943 -0.411667
v -3.146645 0.151943 -0.411667
v -3.146644 0.232256 -0.403757
v 2.877436 0.232256 -0.403757
v -3.146644 0.309482 -0.380331
v 2.877436 0.309482 -0.380331
v -3.146644 0.380654 -0.342289
v 2.877436 0.380654 -0.342289
v -3.146644 0.443036 -0.291093
v 2.877436 0.443036 -0.291093
v -3.146644 0.494232 -0.228710
v 2.877436 0.494232 -0.228710
v -3.146644 0.532274 -0.157538
v 2.877436 0.532274 -0.157538
v -3.146638 0.555701 -0.080312
v 2.877443 0.555701 -0.080312
v -3.146638 0.563611 0.000000
v 2.877443 0.563611 0.000000
v -3.146638 0.555701 0.080312
v 2.877443 0.555701 0.080312
v -3.146644 0.532274 0.157538
v 2.877436 0.532274 0.157538
v -3.146644 0.494232 0.228710
v 2.877436 0.494232 0.228710
v -3.146644 0.443036 0.291093
v 2.877436 0.443036 0.291093
v -3.146644 0.380654 0.342289
v 2.877436 0.380653 0.342289
v -3.146644 0.309482 0.380331
v 2.877436 0.309482 0.380331
v -3.146644 0.232256 0.403757
v 2.877436 0.232256 0.403757
v -3.146644 0.151943 0.411667
v 2.877436 0.151943 0.411667
v -3.146644 0.071631 0.403757
v 2.877436 0.071631 0.403757
v -3.146644 -0.005595 0.380331
v 2.877436 -0.005595 0.380331
v -3.146644 -0.076767 0.342289
v 2.877436 -0.076767 0.342289
v -3.146644 -0.139149 0.291093
v 2.877436 -0.139149 0.291093
v -3.146644 -0.190345 0.228710
v 2.877436 -0.190345 0.228710
v -3.146644 -0.228387 0.157538
v 2.877436 -0.228387 0.157538
v -3.146650 -0.251814 0.080312
v 2.877431 -0.251814 0.080312
v -3.146650 -0.259724 -0.000000
v 2.877431 -0.259724 -0.000000
v -3.146650 -0.251814 -0.080312
v 2.877431 -0.251814 -0.080312
v -3.146644 -0.228387 -0.157538
v 2.877436 -0.228387 -0.157538
v -3.146644 -0.190345 -0.228710
v 2.877436 -0.190345 -0.228710
v -3.146644 -0.139149 -0.291093
v 2.877436 -0.139149 -0.291093
v -3.146644 -0.076767 -0.342289
v 2.877436 -0.076767 -0.342289
v -3.146644 -0.005595 -0.380331
v 2.877436 -0.005595 -0.380331
v -3.146644 0.071631 -0.403757
v 2.877436 0.071631 -0.403757
v -3.157810 0.151943 -0.351045
v -3.287097 0.151943 -0.351045
v -3.287097 0.083457 -0.344300
v -3.287097 0.017604 -0.324323
v -3.287097 -0.043087 -0.291883
v -3.287097 -0.096283 -0.248226
v -3.287097 -0.139940 -0.195030
v -3.287097 -0.172380 -0.134339
v -3.287098 -0.192357 -0.068486
v -3.287098 -0.199102 -0.000000
v -3.287098 -0.192357 0.068486
v -3.287097 -0.172380 0.134339
v -3.287097 -0.139940 0.195030
v -3.287097 -0.096283 0.248226
v -3.287097 -0.043087 0.291883
v -3.287097 0.017604 0.324323
v -3.287097 0.083457 0.344300
v -3.287097 0.151943 0.351045
v -3.287097 0.220428 0.344300
v -3.287097 0.286282 0.324323
v -3.287097 0.346973 0.291883
v -3.287097 0.400169 0.248226
v -3.287097 0.443826 0.195030
v -3.287097 0.476266 0.134339
v -3.287095 0.496243 0.068485
v -3.287095 0.502988 0.000000
v -3.287095 0.496243 -0.068485
v -3.287097 0.476266 -0.134339
v -3.287097 0.443826 -0.195030
v -3.287097 0.400169 -0.248226
v -3.287097 0.346973 -0.291883
v -3.287097 0.286282 -0.324323
v -3.287097 0.220428 -0.344300
v -3.157809 0.220428 -0.344300
v -3.157809 0.286282 -0.324323
v -3.157809 0.346973 -0.291883
v -3.157809 0.400169 -0.248226
v -3.157809 0.443826 -0.195030
v -3.157809 0.476266 -0.134339
v -3.157804 0.496243 -0.068485
v -3.157804 0.502988 0.000000
v -3.157804 0.496243 0.068485
v -3.157809 0.476266 0.134339
v -3.157809 0.443826 0.195030
v -3.157809 0.400169 0.248226
v -3.157809 0.346973 0.291883
v -3.157809 0.286282 0.324323
v -3.157809 0.220428 0.344300
v -3.157809 0.151943 0.351045
v -3.157809 0.083457 0.344300
v -3.157809 0.017604 0.324323
v -3.157809 -0.043087 0.291883
v -3.157809 -0.096283 0.248226
v -3.157809 -0.139940 0.195030
v -3.157809 -0.172380 0.134339
v -3.157813 -0.192357 0.068486
v -3.157813 -0.199102 -0.000000
v -3.157813 -0.192357 -0.068486
v -3.157809 -0.172380 -0.134339
v -3.157809 -0.139940 -0.195030
v -3.157809 -0.096283 -0.248226
v -3.157809 -0.043087 -0.291883
v -3.157809 0.017604 -0.324323
v -3.157809 0.083457 -0.344300
v 2.891195 0.217677 -0.330463
v 3.015265 0.217677 -0.330463
v 2.891195 0.280884 -0.311289
v 3.015265 0.280884 -0.311289
v 2.891195 0.339136 -0.280153
v 3.015265 0.339136 -0.280153
v 2.891195 0.390194 -0.238250
v 3.015265 0.390194 -0.238250
v 2.891195 0.432096 -0.187192
v 3.015265 0.432096 -0.187192
v 2.891195 0.463233 -0.128940
v 3.015265 0.463233 -0.128940
v 2.891200 0.482406 -0.065733
v 3.015267 0.482406 -0.065733
v 2.891200 0.488880 0.000000
v 3.015267 0.488880 0.000000
v 2.891200 0.482406 0.065733
v 3.015267 0.482406 0.065733
v 2.891195 0.463233 0.128940
v 3.015265 0.463233 0.128940
v 2.891195 0.432096 0.187192
v 3.015265 0.432096 0.187192
v 2.891195 0.390194 0.238250
v 3.015265 0.390194 0.238250
v 2.891195 0.339136 0.280153
v 3.015265 0.339136 0.280153
v 2.891195 0.280884 0.311289
v 3.015265 0.280884 0.311289
v 2.891195 0.217677 0.330463
v 3.015265 0.217677 0.330463
v 2.891195 0.151943 0.336937
v 3.015265 0.151943 0.336937
v 2.891195 0.086210 0.330463
v 3.015265 0.086210 0.330463
v 2.891195 0.023003 0.311289
v 3.015265 0.023003 0.311289
v 2.891195 -0.035249 0.280153
v 3.015265 -0.035249 0.280153
v 2.891195 -0.086307 0.238250
v 3.015265 -0.086307 0.238250
v 2.891195 -0.128209 0.187192
v 3.015265 -0.128209 0.187192
v 2.891195 -0.159346 0.128940
v 3.015265 -0.159346 0.128940
v 2.891190 -0.178519 0.065733
v 3.015263 -0.178519 0.065733
v 2.891190 -0.184993 -0.000000
v 3.015263 -0.184993 -0.000000
v 2.891190 -0.178519 -0.065733
v 3.015263 -0.178519 -0.065733
v 2.891195 -0.159345 -0.128940
v 3.015265 -0.159346 -0.128940
v 2.891195 -0.128209 -0.187192
v 3.015265 -0.128209 -0.187192
v 2.891195 -0.086307 -0.238250
v 3.015265 -0.086307 -0.238250
v 2.891195 -0.035249 -0.280153
v 3.015265 -0.035249 -0.280153
v 2.891195 0.023003 -0.311289
v 3.015265 0.023003 -0.311289
v 2.891195 0.086210 -0.330463
v 3.015265 0.086210 -0.330463
v 3.015264 0.151944 -0.336937
v 2.891194 0.151944 -0.336937
vt 0.833533 0.912273
vt 0.801354 0.912273
vt 0.801394 0.903547
vt 0.833572 0.903547
vt 0.801450 0.895694
vt 0.833629 0.895694
vt 0.801522 0.889016
vt 0.833701 0.889016
vt 0.859177 0.801423
vt 0.891355 0.801423
vt 0.891412 0.809276
vt 0.859234 0.809276
vt 0.891451 0.818002
vt 0.859273 0.818002
vt 0.891471 0.827265
vt 0.859293 0.827265
vt 0.891471 0.836710
vt 0.859292 0.836710
vt 0.891451 0.845973
vt 0.859272 0.845973
vt 0.891412 0.854699
vt 0.859233 0.854699
vt 0.891355 0.862552
vt 0.859177 0.862552
vt 0.891284 0.869231
vt 0.859104 0.869231
vt 0.923994 0.074363
vt 0.923994 0.106542
vt 0.916141 0.106599
vt 0.916141 0.074420
vt 0.907415 0.106638
vt 0.907415 0.074459
vt 0.898152 0.106658
vt 0.898152 0.074479
vt 0.888707 0.106658
vt 0.888707 0.074479
vt 0.879444 0.106638
vt 0.879444 0.074459
vt 0.870718 0.106599
vt 0.870718 0.074420
vt 0.862865 0.106542
vt 0.862865 0.074363
vt 0.856186 0.106470
vt 0.856186 0.074291
vt 0.917315 0.228299
vt 0.917315 0.260477
vt 0.909462 0.260534
vt 0.909462 0.228356
vt 0.900737 0.260573
vt 0.900737 0.228395
vt 0.891473 0.260593
vt 0.891473 0.228415
vt 0.882029 0.260593
vt 0.882029 0.228415
vt 0.872765 0.260574
vt 0.872765 0.228395
vt 0.864039 0.260534
vt 0.864039 0.228356
vt 0.856186 0.260477
vt 0.856186 0.228299
vt 0.833701 0.963502
vt 0.801522 0.963502
vt 0.801450 0.956823
vt 0.833629 0.956823
vt 0.801394 0.948970
vt 0.833572 0.948970
vt 0.801354 0.940244
vt 0.833533 0.940244
vt 0.801334 0.930981
vt 0.833513 0.930981
vt 0.658318 0.694095
vt 0.657253 0.690586
vt 0.666517 0.688743
vt 0.675961 0.688743
vt 0.801334 0.921536
vt 0.833513 0.921536
vt 0.729174 0.743190
vt 0.725376 0.743564
vt 0.725376 0.733734
vt 0.727293 0.724092
vt 0.731055 0.762289
vt 0.727293 0.753206
vt 0.733786 0.742736
vt 0.731055 0.715010
vt 0.736517 0.770463
vt 0.739993 0.742125
vt 0.736517 0.706836
vt 0.743468 0.777414
vt 0.747555 0.741380
vt 0.743468 0.699885
vt 0.751642 0.782875
vt 0.756183 0.740530
vt 0.751642 0.694423
vt 0.760725 0.786637
vt 0.765545 0.739608
vt 0.760725 0.690661
vt 0.770366 0.788555
vt 0.775282 0.738649
vt 0.770366 0.688743
vt 0.780197 0.788555
vt 0.785018 0.737690
vt 0.780197 0.688743
vt 0.789839 0.786637
vt 0.798921 0.782875
vt 0.794380 0.736768
vt 0.789839 0.690661
vt 0.807095 0.777414
vt 0.803008 0.735918
vt 0.798921 0.694423
vt 0.814046 0.770463
vt 0.810571 0.735173
vt 0.807095 0.699885
vt 0.819508 0.762289
vt 0.816777 0.734562
vt 0.814046 0.706836
vt 0.823270 0.753206
vt 0.821389 0.734108
vt 0.819508 0.715010
vt 0.825188 0.743564
vt 0.825188 0.733734
vt 0.823270 0.724092
vt 0.666517 0.784638
vt 0.684160 0.779285
vt 0.685225 0.782795
vt 0.675961 0.784638
vt 0.701804 0.773933
vt 0.693951 0.779181
vt 0.657253 0.782795
vt 0.682868 0.775025
vt 0.708482 0.767255
vt 0.648527 0.779181
vt 0.681128 0.769291
vt 0.713729 0.759402
vt 0.640674 0.773933
vt 0.679009 0.762305
vt 0.717344 0.750676
vt 0.633996 0.767255
vt 0.676591 0.754334
vt 0.719186 0.741413
vt 0.640674 0.699447
vt 0.648527 0.694200
vt 0.673967 0.745685
vt 0.719186 0.731968
vt 0.628749 0.759402
vt 0.671239 0.736690
vt 0.717344 0.722705
vt 0.625134 0.750676
vt 0.623292 0.741413
vt 0.668510 0.727696
vt 0.713729 0.713979
vt 0.623292 0.731968
vt 0.665887 0.719047
vt 0.708482 0.706126
vt 0.625134 0.722705
vt 0.663469 0.711076
vt 0.701804 0.699447
vt 0.628749 0.713979
vt 0.661350 0.704089
vt 0.693951 0.694200
vt 0.633996 0.706126
vt 0.659610 0.698356
vt 0.685225 0.690586
vt 0.900987 0.722593
vt 0.867495 0.722628
vt 0.867506 0.712986
vt 0.900997 0.712951
vt 0.797491 0.872994
vt 0.790278 0.877814
vt 0.787206 0.872067
vt 0.793357 0.867957
vt 0.900997 0.732423
vt 0.867506 0.732459
vt 0.765079 0.794745
vt 0.773754 0.794745
vt 0.773115 0.801230
vt 0.765718 0.801230
vt 0.901029 0.742065
vt 0.867537 0.742100
vt 0.748556 0.877814
vt 0.741342 0.872994
vt 0.745476 0.867957
vt 0.751627 0.872067
vt 0.901079 0.751147
vt 0.867587 0.751183
vt 0.897705 0.202798
vt 0.904540 0.202767
vt 0.901147 0.759321
vt 0.867656 0.759357
vt 0.833676 0.842942
vt 0.833692 0.835687
vt 0.795078 0.895967
vt 0.761587 0.896003
vt 0.761654 0.889051
vt 0.795146 0.889016
vt 0.782263 0.796437
vt 0.780371 0.802673
vt 0.795027 0.904141
vt 0.761536 0.904177
vt 0.735208 0.866860
vt 0.740245 0.862726
vt 0.794996 0.913223
vt 0.761505 0.913259
vt 0.890450 0.202814
vt 0.794986 0.922865
vt 0.761495 0.922901
vt 0.833645 0.849777
vt 0.794996 0.932696
vt 0.761505 0.932732
vt 0.790278 0.799757
vt 0.787206 0.805504
vt 0.795027 0.942337
vt 0.761536 0.942373
vt 0.730388 0.859647
vt 0.736135 0.856575
vt 0.795078 0.951420
vt 0.761587 0.951455
vt 0.883052 0.202814
vt 0.795146 0.959594
vt 0.761654 0.959629
vt 0.833601 0.855928
vt 0.693024 0.892049
vt 0.659532 0.892049
vt 0.659608 0.885098
vt 0.693099 0.885098
vt 0.797491 0.804577
vt 0.793357 0.809614
vt 0.692965 0.900223
vt 0.659473 0.900223
vt 0.727068 0.851632
vt 0.733304 0.849740
vt 0.692924 0.909305
vt 0.659432 0.909305
vt 0.875796 0.202798
vt 0.692903 0.918947
vt 0.659411 0.918947
vt 0.833544 0.861159
vt 0.692903 0.928778
vt 0.659411 0.928778
vt 0.803625 0.810711
vt 0.798588 0.814845
vt 0.692924 0.938419
vt 0.659432 0.938419
vt 0.725376 0.843123
vt 0.731861 0.842485
vt 0.692965 0.947502
vt 0.659473 0.947502
vt 0.868962 0.202767
vt 0.693024 0.955676
vt 0.659532 0.955676
vt 0.911218 0.048832
vt 0.917369 0.048788
vt 0.693099 0.962627
vt 0.659608 0.962627
vt 0.808445 0.817924
vt 0.802698 0.820996
vt 0.911639 0.182521
vt 0.911639 0.149030
vt 0.919813 0.149088
vt 0.919813 0.182580
vt 0.725376 0.834448
vt 0.731861 0.835087
vt 0.902557 0.182480
vt 0.902557 0.148989
vt 0.862811 0.202723
vt 0.892915 0.182459
vt 0.892915 0.148968
vt 0.904384 0.048863
vt 0.883084 0.182459
vt 0.883084 0.148968
vt 0.811765 0.825939
vt 0.805529 0.827831
vt 0.873443 0.182480
vt 0.873443 0.148988
vt 0.727068 0.825939
vt 0.733304 0.827831
vt 0.864360 0.182521
vt 0.864360 0.149029
vt 0.859205 0.950199
vt 0.859261 0.955430
vt 0.856186 0.182580
vt 0.856186 0.149088
vt 0.897128 0.048878
vt 0.901079 0.695694
vt 0.867587 0.695730
vt 0.867656 0.688779
vt 0.901147 0.688743
vt 0.859161 0.908469
vt 0.859130 0.915304
vt 0.901029 0.703868
vt 0.867537 0.703904
vt 0.813457 0.834448
vt 0.806972 0.835087
vt 0.730388 0.817924
vt 0.736135 0.820996
vt 0.738828 0.950818
vt 0.738779 0.944915
vt 0.703958 0.682400
vt 0.703958 0.034852
vt 0.711973 0.034887
vt 0.711973 0.682435
vt 0.884449 0.126184
vt 0.891550 0.126184
vt 0.719186 0.034940
vt 0.719186 0.682487
vt 0.628304 0.814006
vt 0.633124 0.806793
vt 0.639334 0.811890
vt 0.635389 0.817794
vt 0.725376 0.682554
vt 0.725376 0.035006
vt 0.731510 0.034940
vt 0.731510 0.682487
vt 0.711374 0.830530
vt 0.711374 0.839205
vt 0.703379 0.838418
vt 0.703379 0.831318
vt 0.738723 0.034887
vt 0.738723 0.682435
vt 0.633124 0.862942
vt 0.628304 0.855729
vt 0.635389 0.851942
vt 0.639334 0.857846
vt 0.746738 0.034852
vt 0.746738 0.682400
vt 0.738743 0.938355
vt 0.755247 0.034833
vt 0.755247 0.682381
vt 0.898514 0.126200
vt 0.763922 0.034834
vt 0.763922 0.682381
vt 0.709681 0.822022
vt 0.701994 0.824353
vt 0.772431 0.034853
vt 0.772431 0.682400
vt 0.639258 0.869077
vt 0.644355 0.862867
vt 0.780446 0.034888
vt 0.780446 0.682436
vt 0.738720 0.931391
vt 0.787659 0.034940
vt 0.787659 0.682487
vt 0.905074 0.126229
vt 0.650714 0.034833
vt 0.650714 0.682381
vt 0.644579 0.682447
vt 0.644579 0.034900
vt 0.706361 0.814006
vt 0.699276 0.817794
vt 0.637366 0.682499
vt 0.637366 0.034952
vt 0.646472 0.873896
vt 0.650259 0.866811
vt 0.629351 0.682536
vt 0.629351 0.034988
vt 0.738712 0.924290
vt 0.620843 0.682554
vt 0.620843 0.035006
vt 0.910978 0.126272
vt 0.612167 0.682554
vt 0.612167 0.035006
vt 0.701542 0.806793
vt 0.695332 0.811890
vt 0.603659 0.682536
vt 0.603659 0.034988
vt 0.654487 0.877216
vt 0.656819 0.869529
vt 0.595644 0.682499
vt 0.595644 0.034952
vt 0.738720 0.917326
vt 0.588431 0.682447
vt 0.588431 0.034900
vt 0.636770 0.951862
vt 0.636715 0.946841
vt 0.582296 0.682381
vt 0.582296 0.034833
vt 0.695407 0.800659
vt 0.690311 0.806869
vt 0.793848 0.682488
vt 0.793848 0.034940
vt 0.801061 0.034888
vt 0.801061 0.682436
vt 0.662995 0.878909
vt 0.663782 0.870914
vt 0.809076 0.034853
vt 0.809076 0.682400
vt 0.738743 0.910766
vt 0.817585 0.034834
vt 0.817585 0.682381
vt 0.636673 0.940937
vt 0.826260 0.034833
vt 0.826260 0.682381
vt 0.688194 0.795839
vt 0.684407 0.802924
vt 0.834769 0.034852
vt 0.834769 0.682400
vt 0.671670 0.878909
vt 0.670883 0.870914
vt 0.842784 0.034887
vt 0.842784 0.682435
vt 0.738779 0.904862
vt 0.849997 0.034940
vt 0.849997 0.682488
vt 0.636643 0.934377
vt 0.656903 0.682554
vt 0.656903 0.035006
vt 0.663037 0.034940
vt 0.663037 0.682487
vt 0.680179 0.792519
vt 0.677847 0.800207
vt 0.670251 0.034887
vt 0.670251 0.682435
vt 0.680179 0.877216
vt 0.677847 0.869529
vt 0.678266 0.034852
vt 0.678266 0.682400
vt 0.738828 0.899841
vt 0.686774 0.034833
vt 0.686774 0.682381
vt 0.636628 0.927413
vt 0.695450 0.034833
vt 0.695450 0.682381
vt 0.844721 0.717053
vt 0.844744 0.710494
vt 0.873011 0.922560
vt 0.859114 0.922560
vt 0.873027 0.915304
vt 0.873011 0.929958
vt 0.859114 0.929958
vt 0.873027 0.937213
vt 0.859130 0.937213
vt 0.873058 0.944048
vt 0.859161 0.944048
vt 0.873103 0.950199
vt 0.873159 0.955430
vt 0.868962 0.188870
vt 0.862811 0.188825
vt 0.875796 0.188901
vt 0.883052 0.188917
vt 0.890450 0.188916
vt 0.897705 0.188901
vt 0.904540 0.188870
vt 0.910691 0.188825
vt 0.910691 0.202723
vt 0.915922 0.188768
vt 0.915922 0.202666
vt 0.875640 0.034934
vt 0.875640 0.048832
vt 0.869489 0.048788
vt 0.869489 0.034890
vt 0.882475 0.034965
vt 0.882475 0.048863
vt 0.889730 0.034981
vt 0.889730 0.048878
vt 0.897128 0.034981
vt 0.904384 0.034965
vt 0.911218 0.034934
vt 0.917369 0.034890
vt 0.922601 0.034833
vt 0.922601 0.048731
vt 0.819747 0.849777
vt 0.819704 0.855928
vt 0.819778 0.842942
vt 0.819793 0.835687
vt 0.819794 0.828289
vt 0.833692 0.828289
vt 0.819779 0.821033
vt 0.833676 0.821033
vt 0.819748 0.814198
vt 0.833645 0.814198
vt 0.819704 0.808048
vt 0.833601 0.808048
vt 0.819647 0.802817
vt 0.833544 0.802817
vt 0.873058 0.908469
vt 0.859205 0.902319
vt 0.873103 0.902319
vt 0.756570 0.881134
vt 0.758462 0.874898
vt 0.756570 0.796437
vt 0.758462 0.802673
vt 0.803625 0.866860
vt 0.798588 0.862726
vt 0.864258 0.048731
vt 0.765079 0.882826
vt 0.765718 0.876341
vt 0.748555 0.799757
vt 0.751627 0.805504
vt 0.808445 0.859646
vt 0.802698 0.856575
vt 0.773754 0.882826
vt 0.773116 0.876341
vt 0.741342 0.804577
vt 0.745476 0.809614
vt 0.811765 0.851632
vt 0.805529 0.849740
vt 0.782263 0.881134
vt 0.780371 0.874898
vt 0.735208 0.810711
vt 0.740245 0.814845
vt 0.813457 0.843123
vt 0.806972 0.842484
vt 0.859104 0.794745
vt 0.831385 0.717068
vt 0.831407 0.710508
vt 0.831443 0.704604
vt 0.844780 0.704590
vt 0.860001 0.126326
vt 0.860001 0.112989
vt 0.865021 0.112934
vt 0.865021 0.126272
vt 0.870925 0.112892
vt 0.870925 0.126229
vt 0.877485 0.112863
vt 0.877485 0.126199
vt 0.884449 0.112847
vt 0.891550 0.112848
vt 0.898514 0.112863
vt 0.905074 0.112893
vt 0.910978 0.112934
vt 0.623433 0.951862
vt 0.623378 0.946841
vt 0.623336 0.940937
vt 0.623307 0.934377
vt 0.623291 0.927413
vt 0.623291 0.920312
vt 0.636628 0.920312
vt 0.623307 0.913348
vt 0.636643 0.913348
vt 0.623336 0.906788
vt 0.636673 0.906788
vt 0.623378 0.900885
vt 0.636715 0.900885
vt 0.738888 0.955839
vt 0.725551 0.955853
vt 0.725491 0.950833
vt 0.725442 0.944929
vt 0.725406 0.938369
vt 0.725383 0.931405
vt 0.725375 0.924304
vt 0.725383 0.917340
vt 0.725406 0.910780
vt 0.725442 0.904876
vt 0.725491 0.899856
vt 0.844829 0.750546
vt 0.831492 0.750560
vt 0.831443 0.744656
vt 0.844780 0.744642
vt 0.831407 0.738096
vt 0.844744 0.738082
vt 0.831385 0.731132
vt 0.844721 0.731118
vt 0.831377 0.724032
vt 0.844714 0.724018
vt 0.624984 0.847714
vt 0.632672 0.845382
vt 0.709681 0.847714
vt 0.701994 0.845382
vt 0.639258 0.800659
vt 0.644355 0.806869
vt 0.761737 0.966581
vt 0.623292 0.839205
vt 0.631287 0.838418
vt 0.706361 0.855729
vt 0.699276 0.851942
vt 0.646472 0.795839
vt 0.650259 0.802924
vt 0.623292 0.830530
vt 0.631287 0.831317
vt 0.701542 0.862942
vt 0.695332 0.857846
vt 0.654487 0.792519
vt 0.656819 0.800207
vt 0.624984 0.822022
vt 0.632672 0.824353
vt 0.695407 0.869077
vt 0.690311 0.862867
vt 0.662995 0.790827
vt 0.663782 0.798822
vt 0.844829 0.699569
vt 0.688194 0.873896
vt 0.684407 0.866811
vt 0.671670 0.790827
vt 0.670883 0.798822
vn 0.1909 0.0000 -0.9816
vn -0.6857 0.0000 -0.7279
vn -0.6857 0.1420 -0.7139
vn 0.1909 0.1915 -0.9627
vn -0.6857 0.2785 -0.6725
vn 0.1909 0.3756 -0.9069
vn -0.6857 0.4044 -0.6052
vn 0.1909 0.5453 -0.8162
vn -0.6857 0.5147 -0.5147
vn 0.1909 0.6941 -0.6941
vn -0.6857 0.6052 -0.4044
vn 0.1909 0.8162 -0.5453
vn -0.6857 0.6725 -0.2785
vn 0.1909 0.9069 -0.3756
vn -0.6857 0.7139 -0.1420
vn 0.1909 0.9627 -0.1915
vn -0.6857 0.7279 0.0000
vn 0.1909 0.9816 0.0000
vn -0.6857 0.7139 0.1420
vn 0.1909 0.9627 0.1915
vn -0.6857 0.6725 0.2785
vn 0.1909 0.9069 0.3756
vn -0.6857 0.6052 0.4044
vn 0.1909 0.8162 0.5453
vn -0.6857 0.5147 0.5147
vn 0.1909 0.6941 0.6941
vn -0.6857 0.4044 0.6052
vn 0.1909 0.5453 0.8162
vn -0.6857 0.2785 0.6725
vn 0.1909 0.3756 0.9069
vn -0.6857 0.1420 0.7139
vn 0.1909 0.1915 0.9627
vn -0.6857 0.0000 0.7279
vn 0.1909 0.0000 0.9816
vn -0.6857 -0.1420 0.7139
vn 0.1909 -0.1915 0.9627
vn -0.6857 -0.2785 0.6725
vn 0.1909 -0.3756 0.9069
vn -0.6857 -0.4044 0.6052
vn 0.1909 -0.5453 0.8162
vn -0.6857 -0.5147 0.5147
vn 0.1909 -0.6941 0.6941
vn -0.6857 -0.6052 0.4044
vn 0.1909 -0.8162 0.5453
vn -0.6857 -0.6725 0.2785
vn 0.1909 -0.9069 0.3756
vn -0.6857 -0.7139 0.1420
vn 0.1909 -0.9627 0.1915
vn -0.6857 -0.7279 0.0000
vn 0.1909 -0.9816 0.0000
vn -0.6857 -0.7139 -0.1420
vn 0.1909 -0.9627 -0.1915
vn -0.6857 -0.6725 -0.2785
vn 0.1909 -0.9069 -0.3756
vn -0.6857 -0.6052 -0.4044
vn 0.1909 -0.8162 -0.5453
vn -0.6857 -0.5147 -0.5147
vn 0.1909 -0.6941 -0.6941
vn -0.6857 -0.4044 -0.6052
vn 0.1909 -0.5453 -0.8162
vn -0.6857 -0.2785 -0.6725
vn 0.1909 -0.3756 -0.9069
vn -1.0000 0.0000 0.0000
vn -0.6857 -0.1420 -0.7139
vn 0.1909 -0.1915 -0.9627
vn 1.0000 0.0000 0.0000
vn 0.6857 0.7279 0.0000
vn 0.6857 0.7139 0.1420
vn 0.6857 0.6725 0.2785
vn 0.6857 0.6725 -0.2785
vn 0.6857 0.7139 -0.1420
vn 0.6857 0.6052 0.4044
vn 0.6857 0.6052 -0.4044
vn 0.6857 0.5147 0.5147
vn 0.6857 0.5147 -0.5147
vn 0.6857 0.4044 0.6052
vn 0.6857 0.4044 -0.6052
vn 0.6857 0.2785 0.6725
vn 0.6857 0.2785 -0.6725
vn 0.6857 0.1420 0.7139
vn 0.6857 0.1420 -0.7139
vn 0.6857 0.0000 0.7279
vn 0.6857 0.0000 -0.7279
vn 0.6857 -0.1420 0.7139
vn 0.6857 -0.1420 -0.7139
vn 0.6857 -0.2785 -0.6725
vn 0.6857 -0.2785 0.6725
vn 0.6857 -0.4044 -0.6052
vn 0.6857 -0.4044 0.6052
vn 0.6857 -0.5147 -0.5147
vn 0.6857 -0.5147 0.5147
vn 0.6857 -0.6052 -0.4044
vn 0.6857 -0.6052 0.4044
vn 0.6857 -0.6725 -0.2785
vn 0.6857 -0.6725 0.2785
vn 0.6857 -0.7139 -0.1420
vn 0.6857 -0.7279 0.0000
vn 0.6857 -0.7139 0.1420
vn -0.2652 -0.1881 -0.9456
vn -0.2652 0.0000 -0.9642
vn -0.6209 0.1529 -0.7688
vn -0.6209 0.0000 -0.7839
vn -0.6602 0.0000 -0.7511
vn -0.6602 0.1465 -0.7366
vn -0.2652 -0.3690 -0.8908
vn -0.6209 0.3000 0.7242
vn -0.6209 0.4355 0.6518
vn -0.6602 0.4172 0.6245
vn -0.6602 0.2874 0.6939
vn -0.2652 -0.5357 -0.8017
vn -0.6209 -0.6518 -0.4355
vn -0.6209 -0.7242 -0.3000
vn -0.6602 -0.6939 -0.2874
vn -0.6602 -0.6245 -0.4172
vn -0.2652 -0.6818 -0.6818
vn 0.1955 -0.8154 0.5448
vn 0.1955 -0.6934 0.6934
vn -0.2652 -0.8017 -0.5357
vn 0.1955 0.9807 0.0000
vn 0.1955 0.9619 -0.1913
vn -0.2652 -0.8908 -0.3690
vn -0.6209 0.5543 0.5543
vn -0.6602 0.5311 0.5311
vn -0.2652 -0.9456 -0.1881
vn -0.6209 -0.7688 -0.1529
vn -0.6602 -0.7366 -0.1465
vn -0.2652 -0.9642 0.0000
vn 0.1955 -0.9060 0.3753
vn -0.2652 -0.9456 0.1881
vn 0.1955 0.9619 0.1913
vn -0.2652 -0.8908 0.3690
vn -0.6209 0.6518 0.4355
vn -0.6602 0.6245 0.4172
vn -0.2652 -0.8017 0.5357
vn -0.6209 -0.7839 0.0000
vn -0.6602 -0.7511 0.0000
vn -0.2652 -0.6818 0.6818
vn 0.1955 -0.9619 0.1913
vn -0.2652 -0.5357 0.8017
vn 0.1955 0.9060 0.3753
vn -0.2652 -0.3690 0.8908
vn -0.6209 0.7242 0.2999
vn -0.6602 0.6939 0.2874
vn -0.2652 -0.1881 0.9456
vn -0.6209 -0.7688 0.1529
vn -0.6602 -0.7366 0.1465
vn -0.2652 0.0000 0.9642
vn 0.1955 -0.9807 0.0000
vn -0.2652 0.1881 0.9456
vn 0.1955 0.8154 0.5448
vn -0.2652 0.3690 0.8908
vn -0.6209 0.7688 0.1529
vn -0.6602 0.7366 0.1465
vn -0.2652 0.5357 0.8017
vn -0.6209 -0.7242 0.3000
vn -0.6602 -0.6939 0.2874
vn -0.2652 0.6818 0.6818
vn 0.1955 -0.9619 -0.1913
vn -0.2652 0.8017 0.5357
vn 0.1955 0.6934 0.6934
vn -0.2652 0.8908 0.3690
vn -0.6209 0.7839 0.0000
vn -0.6602 0.7511 0.0000
vn -0.2652 0.9456 0.1881
vn -0.6209 -0.6518 0.4355
vn -0.6602 -0.6245 0.4172
vn -0.2652 0.9642 0.0000
vn 0.1955 -0.9060 -0.3753
vn -0.2652 0.9456 -0.1881
vn 0.1955 0.5448 0.8154
vn -0.2652 0.8908 -0.3690
vn -0.6209 0.7688 -0.1529
vn -0.6602 0.7366 -0.1465
vn -0.2652 0.8017 -0.5357
vn -0.6209 -0.5543 0.5543
vn -0.6602 -0.5311 0.5311
vn -0.2652 0.6818 -0.6818
vn 0.1955 -0.8154 -0.5448
vn -0.2652 0.5357 -0.8017
vn 0.1955 0.3753 0.9060
vn -0.2652 0.3690 -0.8908
vn 0.1955 0.1913 -0.9619
vn 0.1955 0.0000 -0.9807
vn -0.2652 0.1881 -0.9456
vn -0.6209 0.7242 -0.2999
vn -0.6602 0.6939 -0.2874
vn -0.6209 -0.4355 0.6518
vn -0.6602 -0.4173 0.6245
vn -0.2739 -0.5343 0.7996
vn -0.2739 -0.6800 0.6800
vn 0.6209 0.0000 -0.7839
vn 0.6209 0.1529 -0.7688
vn -0.2739 0.8885 -0.3680
vn -0.2739 0.9432 -0.1876
vn -0.6209 0.3000 -0.7242
vn 0.6209 0.3000 -0.7242
vn 0.6602 0.1465 -0.7366
vn 0.6602 0.0000 -0.7510
vn -0.6209 0.4355 -0.6518
vn 0.6209 0.4355 -0.6518
vn 0.6209 0.4355 0.6518
vn 0.6209 0.3000 0.7242
vn 0.6602 0.2874 0.6939
vn 0.6602 0.4172 0.6245
vn -0.6209 0.5543 -0.5543
vn 0.6209 0.5543 -0.5543
vn 0.6209 -0.7242 -0.2999
vn 0.6209 -0.6518 -0.4355
vn 0.6602 -0.6245 -0.4172
vn 0.6602 -0.6939 -0.2874
vn -0.6209 0.6518 -0.4355
vn 0.6209 0.6518 -0.4355
vn -0.2739 -0.7996 0.5343
vn 0.6209 0.7242 -0.3000
vn -0.2739 0.9617 0.0000
vn 0.6209 0.7688 -0.1529
vn 0.6209 0.5543 0.5543
vn 0.6602 0.5311 0.5311
vn 0.6209 0.7839 0.0000
vn 0.6209 -0.7688 -0.1529
vn 0.6602 -0.7366 -0.1465
vn 0.6209 0.7688 0.1529
vn -0.2739 -0.8885 0.3680
vn 0.6209 0.7242 0.3000
vn -0.2739 0.9432 0.1876
vn 0.6209 0.6518 0.4355
vn 0.6602 0.6245 0.4172
vn 0.6209 -0.7839 0.0000
vn 0.6602 -0.7511 0.0000
vn -0.2739 -0.9432 0.1876
vn -0.2739 0.8885 0.3680
vn -0.6209 0.1529 0.7688
vn 0.6209 0.1529 0.7688
vn 0.6602 0.6939 0.2874
vn -0.6209 0.0000 0.7839
vn 0.6209 0.0000 0.7839
vn 0.6209 -0.7688 0.1529
vn 0.6602 -0.7366 0.1465
vn -0.6209 -0.1529 0.7688
vn 0.6209 -0.1529 0.7688
vn -0.2739 -0.9617 0.0000
vn -0.6209 -0.3000 0.7242
vn 0.6209 -0.3000 0.7242
vn -0.2739 0.7996 0.5343
vn 0.6209 -0.4355 0.6518
vn 0.6602 0.7366 0.1465
vn 0.6209 -0.5543 0.5543
vn 0.6209 -0.7242 0.2999
vn 0.6602 -0.6939 0.2874
vn 0.6209 -0.6518 0.4355
vn -0.2739 -0.9432 -0.1876
vn -0.2739 0.6800 0.6800
vn 0.6602 0.7510 0.0000
vn 0.6602 -0.6245 0.4172
vn -0.2739 -0.8885 -0.3680
vn -0.2739 0.5343 0.7996
vn 0.6602 0.7366 -0.1465
vn -0.6209 -0.5543 -0.5543
vn 0.6209 -0.5543 -0.5543
vn 0.6602 -0.5311 0.5311
vn -0.6209 -0.4355 -0.6518
vn 0.6209 -0.4355 -0.6518
vn -0.2739 -0.7996 -0.5343
vn -0.6209 -0.3000 -0.7242
vn 0.6209 -0.3000 -0.7242
vn -0.2739 0.3680 0.8885
vn -0.6209 -0.1529 -0.7688
vn 0.6209 -0.1529 -0.7688
vn -0.2739 0.0000 -0.9617
vn -0.2739 0.1876 -0.9432
vn -0.6602 -0.1465 -0.7366
vn 0.1955 -0.1913 -0.9619
vn -0.6602 -0.2874 -0.6939
vn 0.1955 -0.3753 -0.9060
vn -0.6602 -0.4172 -0.6245
vn 0.1955 -0.5448 -0.8154
vn -0.6602 -0.5311 -0.5311
vn 0.1955 -0.6934 -0.6934
vn 0.1955 -0.5448 0.8154
vn -0.6602 -0.2874 0.6939
vn 0.1955 -0.3753 0.9060
vn -0.6602 -0.1465 0.7366
vn 0.1955 -0.1913 0.9619
vn -0.6602 0.0000 0.7511
vn 0.1955 0.0000 0.9807
vn -0.6602 0.1465 0.7366
vn 0.1955 0.1913 0.9619
vn 0.1955 0.9060 -0.3753
vn -0.6602 0.6245 -0.4172
vn 0.1955 0.8154 -0.5448
vn -0.6602 0.5311 -0.5311
vn 0.1955 0.6934 -0.6934
vn -0.6602 0.4172 -0.6245
vn 0.1955 0.5448 -0.8154
vn -0.6602 0.2874 -0.6939
vn 0.1955 0.3753 -0.9060
vn 0.6602 0.2874 -0.6939
vn -0.2739 0.3680 -0.8885
vn 0.6602 0.4172 -0.6245
vn -0.2739 0.5343 -0.7996
vn 0.6602 0.5311 -0.5311
vn -0.2739 0.6800 -0.6800
vn 0.6602 0.6245 -0.4172
vn -0.2739 0.7996 -0.5343
vn 0.6602 0.6939 -0.2874
vn 0.6602 0.1465 0.7366
vn -0.2739 0.1876 0.9432
vn 0.6602 0.0000 0.7511
vn -0.2739 0.0000 0.9617
vn 0.6602 -0.1465 0.7366
vn -0.2739 -0.1876 0.9432
vn 0.6602 -0.2874 0.6939
vn -0.2739 -0.3680 0.8885
vn 0.6602 -0.4172 0.6245
vn 0.6602 -0.5311 -0.5311
vn -0.2739 -0.6800 -0.6800
vn 0.6602 -0.4172 -0.6245
vn -0.2739 -0.5343 -0.7996
vn 0.6602 -0.2874 -0.6939
vn -0.2739 -0.3680 -0.8885
vn 0.6602 -0.1465 -0.7366
vn -0.2739 -0.1876 -0.9432
usemtl None
s 1
f 137/46/40 47/47/41 49/48/42 138/49/43
f 138/49/43 49/48/42 51/50/44 140/51/45
f 140/51/45 51/50/44 53/52/46 142/53/47
f 142/54/47 53/55/46 55/56/48 144/57/49
f 144/57/49 55/56/48 57/58/50 146/59/51
f 146/59/51 57/58/50 59/60/52 148/61/53
f 148/61/53 59/60/52 61/62/54 150/63/55
f 150/63/55 61/62/54 63/64/56 152/65/57
f 152/65/57 63/64/56 65/66/58 154/67/59
f 154/67/59 65/66/58 67/68/60 156/69/61
f 156/69/61 67/68/60 69/70/62 158/71/63
f 158/72/63 69/73/62 71/74/64 160/75/65
f 160/75/65 71/74/64 73/76/66 162/77/67
f 162/77/67 73/76/66 75/78/68 164/79/69
f 164/79/69 75/78/68 77/80/70 166/81/71
f 166/81/71 77/80/70 79/82/72 168/83/73
f 168/83/73 79/82/72 81/84/74 170/85/75
f 170/85/75 81/84/74 83/86/76 172/87/77
f 172/87/77 83/86/76 85/88/78 174/89/79
f 174/90/79 85/91/78 87/92/80 176/93/81
f 176/93/81 87/92/80 89/94/82 178/95/83
f 178/95/83 89/94/82 91/96/84 180/97/85
f 180/97/85 91/96/84 93/98/86 182/99/87
f 182/99/87 93/98/86 95/100/88 184/101/89
f 184/101/89 95/100/88 97/102/90 186/103/91
f 186/103/91 97/102/90 99/104/92 188/105/93
f 188/106/93 99/107/92 101/108/94 190/109/95
f 190/109/95 101/108/94 103/110/96 192/111/97
f 192/111/97 103/110/96 105/112/98 194/113/99
f 194/113/99 105/112/98 107/114/100 196/115/101
f 135/116/102 95/117/88 93/118/86 91/119/84
f 196/115/101 107/114/100 109/120/103 198/121/104
f 198/121/104 109/120/103 47/47/41 137/46/40
f 110/122/105 62/123/106 64/124/107 66/125/108
f 110/122/105 58/126/109 60/127/110 62/123/106
f 111/128/105 110/122/105 66/125/108 68/129/111
f 111/128/105 56/130/112 58/126/109 110/122/105
f 112/131/105 111/128/105 68/129/111 70/132/113
f 112/131/105 54/133/114 56/130/112 111/128/105
f 113/134/105 112/131/105 70/132/113 72/135/115
f 113/134/105 52/136/116 54/133/114 112/131/105
f 114/137/105 113/134/105 72/135/115 74/138/117
f 114/137/105 50/139/118 52/136/116 113/134/105
f 115/140/105 114/137/105 74/138/117 76/141/119
f 48/142/120 50/139/118 114/137/105 115/140/105
f 116/143/105 115/140/105 76/141/119 78/144/121
f 46/145/122 48/142/120 115/140/105 116/143/105
f 117/146/105 116/143/105 78/144/121 80/147/123
f 108/148/124 46/145/122 116/143/105 117/146/105
f 106/149/125 108/148/124 117/146/105 118/150/105
f 118/150/105 117/146/105 80/147/123 82/151/126
f 104/152/127 106/149/125 118/150/105 119/153/105
f 119/153/105 118/150/105 82/151/126 84/154/128
f 102/155/129 104/152/127 119/153/105 120/156/105
f 120/156/105 119/153/105 84/154/128 86/157/130
f 100/158/131 102/155/129 120/156/105 121/159/105
f 121/159/105 120/156/105 86/157/130 88/160/132
f 98/161/133 100/158/131 121/159/105 122/162/105
f 122/162/105 121/159/105 88/160/132 90/163/134
f 96/164/135 98/161/133 122/162/105 94/165/136
f 94/165/136 122/162/105 90/163/134 92/166/137
f 59/167/52 123/168/102 63/169/56 61/170/54
f 63/169/56 123/168/102 67/171/60 65/172/58
f 57/173/50 124/174/102 123/168/102 59/167/52
f 123/168/102 124/174/102 69/175/62 67/171/60
f 55/176/48 125/177/102 124/174/102 57/173/50
f 124/174/102 125/177/102 71/178/64 69/175/62
f 53/179/46 126/180/102 125/177/102 55/176/48
f 125/177/102 126/180/102 73/181/66 71/178/64
f 51/182/44 127/183/102 126/180/102 53/179/46
f 126/180/102 127/183/102 75/184/68 73/181/66
f 99/185/92 97/186/90 95/117/88 135/116/102
f 127/183/102 128/187/102 77/188/70 75/184/68
f 51/182/44 49/189/42 128/187/102 127/183/102
f 128/187/102 129/190/102 79/191/72 77/188/70
f 49/189/42 47/192/41 129/190/102 128/187/102
f 47/192/41 109/193/103 130/194/102 129/190/102
f 129/190/102 130/194/102 81/195/74 79/191/72
f 109/193/103 107/196/100 131/197/102 130/194/102
f 130/194/102 131/197/102 83/198/76 81/195/74
f 107/196/100 105/199/98 132/200/102 131/197/102
f 131/197/102 132/200/102 85/201/78 83/198/76
f 105/199/98 103/202/96 133/203/102 132/200/102
f 132/200/102 133/203/102 87/204/80 85/201/78
f 103/202/96 101/205/94 134/206/102 133/203/102
f 133/203/102 134/206/102 89/207/82 87/204/80
f 101/205/94 99/185/92 135/116/102 134/206/102
f 134/206/102 135/116/102 91/119/84 89/207/82
f 108/208/124 199/209/138 136/210/139 46/211/122
f 202/212/140 201/213/141 264/214/142 297/215/143
f 106/216/125 197/217/144 199/209/138 108/208/124
f 228/218/145 226/219/146 309/220/147 310/221/148
f 104/222/127 195/223/149 197/217/144 106/216/125
f 254/224/150 252/225/151 322/226/152 323/227/153
f 102/228/129 193/229/154 195/223/149 104/222/127
f 176/93/81 178/95/83 276/230/155 277/231/156
f 100/232/131 191/233/157 193/229/154 102/228/129
f 150/63/55 152/65/57 289/234/158 290/235/159
f 98/236/133 189/237/160 191/238/157 100/239/131
f 226/219/146 224/240/161 308/241/162 309/220/147
f 96/242/135 187/243/163 189/237/160 98/236/133
f 252/225/151 250/244/164 321/245/165 322/226/152
f 94/246/136 185/247/166 187/243/163 96/242/135
f 178/95/83 180/97/85 275/248/167 276/230/155
f 92/249/137 183/250/168 185/247/166 94/246/136
f 152/65/57 154/67/59 288/251/169 289/234/158
f 90/252/134 181/253/170 183/250/168 92/249/137
f 224/240/161 222/254/171 307/255/172 308/241/162
f 88/256/132 179/257/173 181/253/170 90/252/134
f 250/244/164 248/258/174 320/259/175 321/245/165
f 86/260/130 177/261/176 179/257/173 88/256/132
f 180/97/85 182/99/87 274/262/177 275/248/167
f 84/263/128 175/264/178 177/261/176 86/260/130
f 154/67/59 156/69/61 287/265/179 288/251/169
f 82/266/126 173/267/180 175/268/178 84/269/128
f 222/254/171 220/270/181 306/271/182 307/255/172
f 80/272/123 171/273/183 173/267/180 82/266/126
f 248/258/174 246/274/184 319/275/185 320/259/175
f 78/276/121 169/277/186 171/273/183 80/272/123
f 182/99/87 184/101/89 273/278/187 274/262/177
f 76/279/119 167/280/188 169/277/186 78/276/121
f 156/69/61 158/71/63 286/281/189 287/265/179
f 74/282/117 165/283/190 167/280/188 76/279/119
f 220/270/181 218/284/191 305/285/192 306/271/182
f 72/286/115 163/287/193 165/283/190 74/282/117
f 246/274/184 244/288/194 318/289/195 319/275/185
f 70/290/113 161/291/196 163/287/193 72/286/115
f 184/101/89 186/103/91 272/292/197 273/278/187
f 68/293/111 159/294/198 161/291/196 70/290/113
f 158/72/63 160/75/65 285/295/199 286/296/189
f 66/297/108 157/298/200 159/294/198 68/293/111
f 218/284/191 216/299/201 304/300/202 305/285/192
f 64/301/107 155/302/203 157/303/200 66/304/108
f 244/288/194 242/305/204 317/306/205 318/289/195
f 62/307/106 153/308/206 155/302/203 64/301/107
f 186/103/91 188/105/93 271/309/207 272/292/197
f 60/310/110 151/311/208 153/308/206 62/307/106
f 160/75/65 162/77/67 284/312/209 285/295/199
f 58/313/109 149/314/210 151/311/208 60/310/110
f 216/299/201 214/315/211 303/316/212 304/300/202
f 56/317/112 147/318/213 149/314/210 58/313/109
f 242/305/204 240/319/214 316/320/215 317/306/205
f 54/321/114 145/322/216 147/318/213 56/317/112
f 188/106/93 190/109/95 270/323/217 271/324/207
f 52/325/116 143/326/218 145/322/216 54/321/114
f 162/77/67 164/79/69 283/327/219 284/312/209
f 50/328/118 141/329/220 143/330/218 52/331/116
f 137/46/40 138/49/43 296/332/221 265/333/222
f 48/334/120 139/335/223 141/329/220 50/328/118
f 214/315/211 212/336/224 302/337/225 303/316/212
f 46/211/122 136/210/139 139/335/223 48/334/120
f 240/319/214 238/338/226 315/339/227 316/320/215
f 177/261/176 175/264/178 365/340/228 367/341/229
f 200/342/230 201/343/141 202/344/140 203/345/231
f 151/311/208 149/314/210 339/346/232 341/347/233
f 203/345/231 202/344/140 204/348/234 205/349/235
f 200/350/230 203/351/231 328/352/236 391/353/237
f 205/354/235 204/355/234 206/356/238 207/357/239
f 227/358/240 229/359/241 354/360/242 352/361/243
f 207/357/239 206/356/238 208/362/244 209/363/245
f 253/364/246 255/365/247 380/366/248 378/367/249
f 209/363/245 208/362/244 210/368/250 211/369/251
f 179/257/173 177/261/176 367/341/229 369/370/252
f 211/369/251 210/368/250 212/371/224 213/372/253
f 153/308/206 151/311/208 341/347/233 343/373/254
f 213/372/253 212/371/224 214/374/211 215/375/255
f 225/376/256 227/358/240 352/361/243 350/377/257
f 215/375/255 214/374/211 216/378/201 217/379/258
f 251/380/259 253/364/246 378/367/249 376/381/260
f 217/379/258 216/378/201 218/382/191 219/383/261
f 181/253/170 179/257/173 369/370/252 371/384/262
f 219/383/261 218/382/191 220/385/181 221/386/263
f 155/302/203 153/308/206 343/373/254 345/387/264
f 221/388/263 220/389/181 222/390/171 223/391/265
f 223/392/265 225/376/256 350/377/257 348/393/266
f 223/391/265 222/390/171 224/394/161 225/395/256
f 249/396/267 251/380/259 376/381/260 374/397/268
f 225/395/256 224/394/161 226/398/146 227/399/240
f 183/250/168 181/253/170 371/384/262 373/400/269
f 227/399/240 226/398/146 228/401/145 229/402/241
f 157/303/200 155/302/203 345/387/264 347/403/270
f 229/402/241 228/401/145 230/404/271 231/405/272
f 221/406/263 223/392/265 348/393/266 346/407/273
f 231/405/272 230/404/271 232/408/274 233/409/275
f 247/410/276 249/396/267 374/397/268 372/411/277
f 233/409/275 232/408/274 234/412/278 235/413/279
f 185/247/166 183/250/168 373/400/269 375/414/280
f 235/413/279 234/412/278 236/415/281 237/416/282
f 159/294/198 157/298/200 347/417/270 349/418/283
f 237/416/282 236/415/281 238/419/226 239/420/284
f 219/421/261 221/406/263 346/407/273 344/422/285
f 239/423/284 238/424/226 240/425/214 241/426/286
f 245/427/287 247/410/276 372/411/277 370/428/288
f 241/426/286 240/425/214 242/429/204 243/430/289
f 187/243/163 185/247/166 375/414/280 377/431/290
f 243/430/289 242/429/204 244/432/194 245/433/287
f 161/291/196 159/294/198 349/418/283 351/434/291
f 245/433/287 244/432/194 246/435/184 247/436/276
f 217/437/258 219/421/261 344/422/285 342/438/292
f 247/436/276 246/435/184 248/439/174 249/440/267
f 243/441/289 245/427/287 370/428/288 368/442/293
f 249/440/267 248/439/174 250/443/164 251/444/259
f 189/237/160 187/243/163 377/431/290 379/445/294
f 251/444/259 250/443/164 252/446/151 253/447/246
f 163/287/193 161/291/196 351/434/291 353/448/295
f 253/449/246 252/450/151 254/451/150 255/452/247
f 215/453/255 217/437/258 342/438/292 340/454/296
f 255/452/247 254/451/150 256/455/297 257/456/298
f 241/457/286 243/441/289 368/442/293 366/458/299
f 257/456/298 256/455/297 258/459/300 259/460/301
f 191/238/157 189/237/160 379/445/294 381/461/302
f 259/460/301 258/459/300 260/462/303 261/463/304
f 165/283/190 163/287/193 353/448/295 355/464/305
f 261/463/304 260/462/303 262/465/306 263/466/307
f 139/335/223 136/210/139 390/467/308 329/468/309
f 263/466/307 262/465/306 201/343/141 200/342/230
f 327/469/310 266/470/311 265/333/222 264/471/142
f 326/472/312 267/473/313 266/470/311 327/469/310
f 325/474/314 268/475/315 267/473/313 326/472/312
f 324/476/316 269/477/317 268/475/315 325/474/314
f 323/478/153 270/323/217 269/477/317 324/476/316
f 322/479/152 271/324/207 270/323/217 323/478/153
f 321/480/165 272/292/197 271/309/207 322/481/152
f 320/482/175 273/278/187 272/292/197 321/480/165
f 319/483/185 274/262/177 273/278/187 320/482/175
f 318/484/195 275/248/167 274/262/177 319/483/185
f 317/485/205 276/230/155 275/248/167 318/484/195
f 316/486/215 277/231/156 276/230/155 317/485/205
f 315/487/227 278/488/318 277/231/156 316/486/215
f 314/489/319 279/490/320 278/488/318 315/487/227
f 313/491/321 280/492/322 279/493/320 314/494/319
f 312/495/323 281/496/324 280/492/322 313/491/321
f 311/497/325 282/498/326 281/496/324 312/495/323
f 310/499/148 283/327/219 282/498/326 311/497/325
f 309/500/147 284/312/209 283/327/219 310/499/148
f 308/501/162 285/295/199 284/312/209 309/500/147
f 307/502/172 286/296/189 285/295/199 308/501/162
f 306/503/182 287/504/179 286/296/189 307/502/172
f 305/505/192 288/251/169 287/265/179 306/506/182
f 304/507/202 289/234/158 288/251/169 305/505/192
f 303/508/212 290/235/159 289/234/158 304/507/202
f 302/509/225 291/510/327 290/235/159 303/508/212
f 301/511/328 292/512/329 291/510/327 302/509/225
f 300/513/330 293/514/331 292/512/329 301/511/328
f 299/515/332 294/516/333 293/514/331 300/513/330
f 298/517/334 295/518/335 294/516/333 299/515/332
f 297/519/143 296/332/221 295/520/335 298/521/334
f 264/471/142 265/333/222 296/332/221 297/519/143
f 148/61/53 150/63/55 290/235/159 291/510/327
f 174/90/79 176/93/81 277/231/156 278/488/318
f 256/522/297 254/224/150 323/227/153 324/523/316
f 230/524/271 228/218/145 310/221/148 311/525/325
f 204/526/234 202/212/140 297/215/143 298/527/334
f 146/59/51 148/61/53 291/510/327 292/512/329
f 172/87/77 174/89/79 278/528/318 279/493/320
f 198/121/104 137/46/40 265/333/222 266/470/311
f 258/529/300 256/522/297 324/523/316 325/530/314
f 232/531/274 230/524/271 311/525/325 312/532/323
f 206/533/238 204/526/234 298/527/334 299/534/332
f 144/57/49 146/59/51 292/512/329 293/514/331
f 170/85/75 172/87/77 279/493/320 280/492/322
f 196/115/101 198/121/104 266/470/311 267/473/313
f 260/535/303 258/529/300 325/530/314 326/536/312
f 234/537/278 232/531/274 312/532/323 313/538/321
f 208/539/244 206/533/238 299/534/332 300/540/330
f 142/54/47 144/57/49 293/514/331 294/516/333
f 168/83/73 170/85/75 280/492/322 281/496/324
f 194/113/99 196/115/101 267/473/313 268/475/315
f 262/541/306 260/535/303 326/536/312 327/542/310
f 236/543/281 234/537/278 313/538/321 314/544/319
f 210/545/250 208/539/244 300/540/330 301/546/328
f 140/547/45 142/54/47 294/516/333 295/518/335
f 166/81/71 168/83/73 281/496/324 282/498/326
f 192/111/97 194/113/99 268/475/315 269/477/317
f 201/213/141 262/541/306 327/542/310 264/214/142
f 238/338/226 236/543/281 314/544/319 315/339/227
f 212/336/224 210/545/250 301/546/328 302/337/225
f 138/49/43 140/51/45 295/520/335 296/332/221
f 164/79/69 166/81/71 282/498/326 283/327/219
f 190/109/95 192/111/97 269/477/317 270/323/217
f 390/467/308 391/548/237 328/549/236 329/468/309
f 329/468/309 328/549/236 330/550/336 331/551/337
f 331/552/337 330/553/336 332/554/338 333/555/339
f 333/555/339 332/554/338 334/556/340 335/557/341
f 335/557/341 334/556/340 336/558/342 337/559/343
f 337/559/343 336/558/342 338/560/344 339/346/232
f 339/346/232 338/560/344 340/561/296 341/347/233
f 341/347/233 340/561/296 342/562/292 343/373/254
f 343/373/254 342/562/292 344/563/285 345/387/264
f 345/387/264 344/563/285 346/564/273 347/403/270
f 347/417/270 346/565/273 348/566/266 349/418/283
f 349/418/283 348/566/266 350/567/257 351/434/291
f 351/434/291 350/567/257 352/568/243 353/448/295
f 353/448/295 352/568/243 354/569/242 355/464/305
f 355/464/305 354/569/242 356/570/345 357/571/346
f 357/571/346 356/570/345 358/572/347 359/573/348
f 359/573/348 358/572/347 360/574/349 361/575/350
f 361/575/350 360/574/349 362/576/351 363/577/352
f 363/578/352 362/579/351 364/580/353 365/340/228
f 365/340/228 364/580/353 366/581/299 367/341/229
f 367/341/229 366/581/299 368/582/293 369/370/252
f 369/370/252 368/582/293 370/583/288 371/384/262
f 371/384/262 370/583/288 372/584/277 373/400/269
f 373/400/269 372/584/277 374/585/268 375/414/280
f 375/414/280 374/585/268 376/586/260 377/431/290
f 377/431/290 376/586/260 378/587/249 379/445/294
f 379/445/294 378/587/249 380/588/248 381/461/302
f 381/589/302 380/590/248 382/591/354 383/592/355
f 383/592/355 382/591/354 384/593/356 385/594/357
f 385/594/357 384/593/356 386/595/358 387/596/359
f 387/596/359 386/595/358 388/597/360 389/598/361
f 389/598/361 388/597/360 391/548/237 390/467/308
f 255/365/247 257/599/298 382/600/354 380/366/248
f 229/359/241 231/601/272 356/602/345 354/360/242
f 203/351/231 205/603/235 330/604/336 328/352/236
f 149/314/210 147/318/213 337/559/343 339/346/232
f 175/264/178 173/605/180 363/578/352 365/340/228
f 136/210/139 199/209/138 389/598/361 390/467/308
f 257/599/298 259/606/301 384/607/356 382/600/354
f 231/601/272 233/608/275 358/609/347 356/602/345
f 205/603/235 207/610/239 332/611/338 330/604/336
f 147/318/213 145/322/216 335/557/341 337/559/343
f 173/267/180 171/273/183 361/575/350 363/577/352
f 199/209/138 197/217/144 387/596/359 389/598/361
f 259/606/301 261/612/304 386/613/358 384/607/356
f 233/608/275 235/614/279 360/615/349 358/609/347
f 207/610/239 209/616/245 334/617/340 332/611/338
f 145/322/216 143/326/218 333/555/339 335/557/341
f 171/273/183 169/277/186 359/573/348 361/575/350
f 197/217/144 195/223/149 385/594/357 387/596/359
f 261/612/304 263/618/307 388/619/360 386/613/358
f 235/614/279 237/620/282 362/621/351 360/615/349
f 209/616/245 211/622/251 336/623/342 334/617/340
f 143/330/218 141/329/220 331/551/337 333/624/339
f 169/277/186 167/280/188 357/571/346 359/573/348
f 195/223/149 193/229/154 383/592/355 385/594/357
f 263/618/307 200/350/230 391/353/237 388/619/360
f 237/620/282 239/625/284 364/626/353 362/621/351
f 211/622/251 213/627/253 338/628/344 336/623/342
f 141/329/220 139/335/223 329/468/309 331/551/337
f 167/280/188 165/283/190 355/464/305 357/571/346
f 193/229/154 191/233/157 381/589/302 383/592/355
f 239/625/284 241/457/286 366/458/299 364/626/353
f 213/627/253 215/453/255 340/454/296 338/628/344
