# Blender 3.4.1
# www.blender.org
mtllib 4x3_bridge_mid_parapet.mtl
o 4x3_bridge_mid_parapet
v 3.999999 3.000000 -0.000000
v 4.000000 1.000000 -0.000000
v 3.999999 3.867017 -0.000000
v -0.000001 3.867017 -1.000000
v 0.000000 1.000000 -1.000000
v -0.000001 3.007090 -1.000000
v 3.999999 3.000000 -1.000000
v -0.000001 3.867017 0.000000
v 4.000000 1.000000 -1.000000
v 3.999999 3.867017 -1.000000
v 0.000000 1.000000 0.000000
v -0.000001 3.007090 0.000000
vn -0.0000 -0.0000 1.0000
vn -0.0000 -0.0000 -1.0000
vn -0.0000 1.0000 -0.0000
vn -0.0000 -1.0000 -0.0000
vn 1.0000 -0.0000 -0.0000
vn -1.0000 -0.0000 -0.0000
vt 0.000000 0.000000
vt 0.574385 0.570037
vt 0.375000 0.545287
vt 0.000000 0.000000
vt 0.574385 0.570037
vt 0.000000 0.000000
vt 0.375000 0.686980
vt 0.000000 0.000000
vt 0.000000 0.000000
vt 0.574385 0.570037
vt 0.000000 0.000000
vt 0.422541 0.750000
vt 0.375000 0.545287
vt 0.000000 0.000000
vt 0.574385 0.570037
vt 0.375000 0.686980
vt 0.000000 0.000000
s 0
f 12/17/1 1/1/1 3/4/1 8/11/1
f 4/6/2 10/14/2 7/9/2 6/8/2
f 9/13/2 5/7/2 6/8/2 7/10/2
f 4/6/3 8/12/3 3/5/3 10/15/3
f 5/7/4 9/13/4 2/3/4 11/16/4
f 9/13/5 7/10/5 1/2/5 2/3/5
f 7/10/5 10/15/5 3/5/5 1/2/5
f 2/3/1 1/2/1 12/17/1 11/16/1
f 4/6/6 6/8/6 12/17/6 8/12/6
f 5/7/6 11/16/6 12/17/6 6/8/6
