# Blender 3.4.1
# www.blender.org
mtllib 4x4_bridge_base_parapet.mtl
o 4x4_bridge_base_parapet
v -0.000000 0.000000 -0.000000
v 4.000000 -0.000000 -0.000000
v 1.480515 -0.000000 -0.000000
v 3.999999 3.867017 -0.000000
v 1.480514 1.359926 -0.000000
v -0.000000 1.000000 -0.000000
v -0.000000 0.000000 -1.000000
v 1.480513 1.000000 -1.000000
v 4.000000 -0.000000 -1.000000
v 1.480515 -0.000000 -1.000000
v 3.999999 3.867017 -1.000000
v 1.480513 1.359927 -1.000000
v -0.000000 1.000000 -1.000000
v 4.000000 1.000000 -0.000000
v 4.000000 1.000000 -1.000000
v 1.480514 1.000000 -0.000000
vn -0.0000 -0.0000 1.0000
vn -1.0000 -0.0000 -0.0000
vn -0.0000 1.0000 -0.0000
vn -0.0000 -1.0000 -0.0000
vn 1.0000 -0.0000 -0.0000
vn -0.0000 -0.0000 -1.0000
vn -0.7054 0.7088 -0.0000
vt 0.375000 0.750000
vt 0.375000 0.545287
vt 0.375000 0.686980
vt 0.000000 0.000000
vt 0.574385 0.570037
vt 0.000000 0.000000
vt 0.422541 0.750000
vt 0.000000 0.000000
vt 0.400046 0.750000
vt 0.375000 0.750000
vt 0.400046 0.750000
vt 0.000000 0.000000
vt 0.375000 0.545287
vt 0.375000 0.686980
vt 0.574385 0.570037
vt 0.000000 0.000000
vt 0.422541 0.750000
vt 0.000000 0.000000
vt 0.400046 0.750000
vt 0.000000 0.000000
vt 0.426560 0.551688
vt 0.278026 0.404278
vt 0.426560 0.551688
vt 0.278026 0.404278
vt 0.400046 0.750000
vt 0.000000 0.000000
s 0
f 14/22/1 4/4/1 5/6/1 16/26/1
f 1/1/1 3/3/1 16/26/1 6/8/1
f 5/7/2 12/17/2 8/11/2 16/25/2
f 16/25/3 8/11/3 13/19/3 6/9/3
f 13/19/2 7/10/2 1/1/2 6/9/2
f 10/14/4 9/13/4 2/2/4 3/3/4
f 15/23/5 14/21/5 2/2/5 9/13/5
f 7/10/4 10/14/4 3/3/4 1/1/4
f 15/24/6 9/13/6 10/14/6 8/12/6
f 7/10/6 13/20/6 8/12/6 10/14/6
f 12/18/7 5/7/7 4/5/7 11/15/7
f 11/15/5 4/5/5 14/21/5 15/23/5
f 2/2/1 14/22/1 16/26/1 3/3/1
f 11/16/6 15/24/6 8/12/6 12/18/6
