# Blender 3.4.1
# www.blender.org
mtllib 6x6_arch_sharp_base.mtl
o 6x6_arch_sharp_base
v 6.000000 0.000000 0.000000
v 6.000000 0.000000 -1.500000
v 6.000000 6.000000 0.000000
v 6.000000 6.000000 -1.500000
v 5.500000 0.000000 0.000000
v 5.000000 0.000000 -0.500000
v 5.374335 0.000000 -0.041079
v 5.313582 0.000000 -0.189628
v 5.163729 0.000000 -0.259338
v 5.071228 0.000000 -0.375000
v 5.000000 0.000000 -1.000000
v 5.500000 0.000000 -1.500000
v 5.041079 0.000000 -1.125665
v 5.189628 0.000000 -1.186418
v 5.259338 0.000000 -1.336271
v 5.375000 0.000000 -1.428773
v 5.000000 6.000000 -0.500000
v 5.500000 6.000000 0.000000
v 5.071227 6.000000 -0.375000
v 5.163728 6.000000 -0.259338
v 5.313581 6.000000 -0.189628
v 5.374335 6.000000 -0.041079
v 5.500000 6.000000 -1.500000
v 5.000000 6.000000 -1.000000
v 5.375000 6.000000 -1.428773
v 5.259338 6.000000 -1.336271
v 5.189628 6.000000 -1.186418
v 5.041079 6.000000 -1.125665
v 0.000000 0.000000 -0.000000
v 0.000000 0.000000 -1.500000
v -0.000000 6.000000 -0.000000
v -0.000000 6.000000 -1.500000
v 0.500000 -0.000000 -0.000000
v 1.000000 -0.000000 -0.500000
v 0.625664 -0.000000 -0.041079
v 0.686418 -0.000000 -0.189628
v 0.836271 -0.000000 -0.259338
v 0.928772 -0.000000 -0.375000
v 1.000000 -0.000000 -1.000000
v 0.500000 -0.000000 -1.500000
v 0.958921 -0.000000 -1.125665
v 0.810372 -0.000000 -1.186419
v 0.740662 -0.000000 -1.336272
v 0.625000 -0.000000 -1.428773
v 0.999999 6.000000 -0.500000
v 0.499999 6.000000 -0.000000
v 0.928772 6.000000 -0.375000
v 0.836271 6.000000 -0.259338
v 0.686418 6.000000 -0.189628
v 0.625664 6.000000 -0.041079
v 0.499999 6.000000 -1.500000
v 0.999999 6.000000 -1.000000
v 0.624999 6.000000 -1.428773
v 0.740661 6.000000 -1.336272
v 0.810371 6.000000 -1.186419
v 0.958920 6.000000 -1.125665
vn -0.0000 -0.0000 1.0000
vn -1.0000 -0.0000 -0.0000
vn 1.0000 -0.0000 -0.0000
vn -0.0000 1.0000 -0.0000
vn -0.0000 -1.0000 -0.0000
vn -0.0000 -0.0000 -1.0000
vn -0.9505 -0.0000 -0.3107
vn -0.3785 -0.0000 -0.9256
vn -0.9067 -0.0000 -0.4218
vn -0.6246 -0.0000 -0.7810
vn -0.4951 -0.0000 -0.8688
vn -0.8688 -0.0000 0.4951
vn -0.7810 -0.0000 0.6246
vn -0.4218 -0.0000 0.9067
vn -0.9256 -0.0000 0.3785
vn -0.3107 -0.0000 0.9505
vn 0.9505 -0.0000 -0.3107
vn 0.3785 -0.0000 -0.9256
vn 0.9067 -0.0000 -0.4218
vn 0.6246 -0.0000 -0.7810
vn 0.4951 -0.0000 -0.8688
vn 0.8688 -0.0000 0.4951
vn 0.7810 -0.0000 0.6246
vn 0.4218 -0.0000 0.9067
vn 0.9256 -0.0000 0.3785
vn 0.3107 -0.0000 0.9505
vt 0.625000 0.750000
vt 0.375000 0.750000
vt 0.625000 0.750000
vt 0.375000 0.750000
vt 0.625000 0.718750
vt 0.541667 0.687500
vt 0.622718 0.710896
vt 0.614465 0.707099
vt 0.581777 0.690911
vt 0.562500 0.688984
vt 0.458333 0.687500
vt 0.375000 0.718750
vt 0.437389 0.688356
vt 0.427264 0.691451
vt 0.384096 0.703709
vt 0.378957 0.710938
vt 0.541667 0.687500
vt 0.625000 0.718750
vt 0.562500 0.688984
vt 0.581777 0.690911
vt 0.614465 0.707099
vt 0.622718 0.710896
vt 0.375000 0.718750
vt 0.458333 0.687500
vt 0.378957 0.710938
vt 0.384096 0.703709
vt 0.427264 0.691451
vt 0.437389 0.688356
vt 0.625000 0.750000
vt 0.375000 0.750000
vt 0.625000 0.750000
vt 0.375000 0.750000
vt 0.625000 0.718750
vt 0.541667 0.687500
vt 0.622718 0.710896
vt 0.614465 0.707099
vt 0.581777 0.690911
vt 0.562500 0.688984
vt 0.458333 0.687500
vt 0.375000 0.718750
vt 0.437389 0.688356
vt 0.427264 0.691451
vt 0.384096 0.703709
vt 0.378957 0.710938
vt 0.541667 0.687500
vt 0.625000 0.718750
vt 0.562500 0.688984
vt 0.581777 0.690911
vt 0.614465 0.707099
vt 0.622718 0.710896
vt 0.375000 0.718750
vt 0.458333 0.687500
vt 0.378957 0.710938
vt 0.384096 0.703709
vt 0.427264 0.691451
vt 0.437389 0.688356
s 0
f 5/5/1 1/1/1 3/3/1 18/18/1
f 11/11/2 6/6/2 17/17/2 24/24/2
f 1/1/3 2/2/3 4/4/3 3/3/3
f 19/19/4 28/28/4 24/24/4 17/17/4
f 12/12/5 2/2/5 1/1/5 5/5/5
f 2/2/6 12/12/6 23/23/6 4/4/6
f 11/11/7 24/24/7 28/28/7 13/13/7
f 13/13/8 28/28/8 27/27/8 14/14/8
f 14/14/9 27/27/9 26/26/9 15/15/9
f 15/15/10 26/26/10 25/25/10 16/16/10
f 16/16/11 25/25/11 23/23/11 12/12/11
f 17/17/12 6/6/12 10/10/12 19/19/12
f 19/19/13 10/10/13 9/9/13 20/20/13
f 20/20/14 9/9/14 8/8/14 21/21/14
f 21/21/15 8/8/15 7/7/15 22/22/15
f 22/22/16 7/7/16 5/5/16 18/18/16
f 20/20/4 27/27/4 28/28/4 19/19/4
f 21/21/4 26/26/4 27/27/4 20/20/4
f 25/25/4 26/26/4 21/21/4 22/22/4
f 23/23/4 25/25/4 22/22/4 18/18/4
f 4/4/4 23/23/4 18/18/4 3/3/4
f 11/11/5 13/13/5 10/10/5 6/6/5
f 13/13/5 14/14/5 9/9/5 10/10/5
f 14/14/5 15/15/5 8/8/5 9/9/5
f 15/15/5 16/16/5 7/7/5 8/8/5
f 16/16/5 12/12/5 5/5/5 7/7/5
f 33/33/1 46/46/1 31/31/1 29/29/1
f 39/39/3 52/52/3 45/45/3 34/34/3
f 29/29/2 31/31/2 32/32/2 30/30/2
f 47/47/4 45/45/4 52/52/4 56/56/4
f 40/40/5 33/33/5 29/29/5 30/30/5
f 30/30/6 32/32/6 51/51/6 40/40/6
f 39/39/17 41/41/17 56/56/17 52/52/17
f 41/41/18 42/42/18 55/55/18 56/56/18
f 42/42/19 43/43/19 54/54/19 55/55/19
f 43/43/20 44/44/20 53/53/20 54/54/20
f 44/44/21 40/40/21 51/51/21 53/53/21
f 45/45/22 47/47/22 38/38/22 34/34/22
f 47/47/23 48/48/23 37/37/23 38/38/23
f 48/48/24 49/49/24 36/36/24 37/37/24
f 49/49/25 50/50/25 35/35/25 36/36/25
f 50/50/26 46/46/26 33/33/26 35/35/26
f 48/48/4 47/47/4 56/56/4 55/55/4
f 49/49/4 48/48/4 55/55/4 54/54/4
f 53/53/4 50/50/4 49/49/4 54/54/4
f 51/51/4 46/46/4 50/50/4 53/53/4
f 32/32/4 31/31/4 46/46/4 51/51/4
f 39/39/5 34/34/5 38/38/5 41/41/5
f 41/41/5 38/38/5 37/37/5 42/42/5
f 42/42/5 37/37/5 36/36/5 43/43/5
f 43/43/5 36/36/5 35/35/5 44/44/5
f 44/44/5 35/35/5 33/33/5 40/40/5
