# Blender v2.93.3 OBJ File: 'murales.blend'
# www.blender.org
mtllib avegrande_low.mtl
o Plane.002
v -10.102646 -16.800266 0.460084
v 9.890772 -16.800266 0.460084
v -10.102646 21.252131 0.460085
v 9.890772 21.252131 0.460085
v -9.458515 20.748320 0.460085
v -9.458515 -16.296455 0.460084
v 9.246642 -16.296455 0.460084
v 9.246642 20.748320 0.460085
v -9.652678 20.924219 0.710360
v -9.652678 -16.472355 0.710360
v 9.440804 -16.472355 0.710360
v 9.440804 20.924219 0.710360
v -9.925469 21.146988 0.710360
v -9.925469 -16.695124 0.710360
v 9.713595 -16.695124 0.710360
v 9.713595 21.146988 0.710360
vt 0.017866 0.014187
vt 0.508474 0.014187
vt 0.508474 0.985814
vt 0.017866 0.985814
vt 0.513567 0.009573
vt 0.513567 0.990428
vt 0.000972 0.999028
vt 0.000972 0.000971
vt 0.005619 0.003729
vt 0.005619 0.996270
vt 0.545211 0.006064
vt 0.545211 0.496672
vt 0.537233 0.501764
vt 0.537233 0.000972
vt 0.525369 0.000971
vt 0.525369 0.999028
vt 0.520721 0.996270
vt 0.520721 0.003729
vt 0.012774 0.009573
vt 0.012774 0.990428
vt 0.563255 0.000972
vt 0.563255 0.525369
vt 0.556176 0.520721
vt 0.556176 0.005619
vt 0.547154 0.525369
vt 0.547154 0.000972
vt 0.554233 0.005619
vt 0.554233 0.520721
vt 0.527312 0.496672
vt 0.527312 0.006064
vt 0.535290 0.000972
vt 0.535290 0.501764
vn 0.3473 0.3698 0.8617
vn -0.3473 0.3698 0.8617
vn -0.3473 -0.3698 0.8617
vn 0.3473 -0.3698 0.8617
vn -0.1387 0.1357 0.9810
vn -0.1387 -0.1357 0.9810
vn -0.5773 0.5218 0.6279
vn -0.5773 -0.5218 0.6279
vn -0.3598 -0.4595 0.8120
vn -0.3598 0.4595 0.8120
vn 0.1387 0.1357 0.9810
vn 0.5773 -0.5218 0.6279
vn 0.5773 0.5218 0.6279
vn 0.3598 0.4595 0.8120
vn 0.3598 -0.4595 0.8120
vn 0.1387 -0.1357 0.9810
usemtl None
s 1
f 6/1/1 7/2/2 8/3/3 5/4/4
f 8/3/3 7/2/2 11/5/5 12/6/6
f 3/7/7 1/8/8 14/9/9 13/10/10
f 7/11/2 6/12/1 10/13/11 11/14/5
f 2/15/12 4/16/13 16/17/14 15/18/15
f 11/5/5 10/19/11 14/9/9 15/18/15
f 10/19/11 9/20/16 13/10/10 14/9/9
f 9/20/16 12/6/6 16/17/14 13/10/10
f 12/6/6 11/5/5 15/18/15 16/17/14
f 4/21/13 3/22/7 13/23/10 16/24/14
f 1/25/8 2/26/12 15/27/15 14/28/9
f 5/29/4 8/30/3 12/31/6 9/32/16
f 6/1/1 5/4/4 9/20/16 10/19/11
