# Blender v2.93.3 OBJ File: 'murales.blend'
# www.blender.org
mtllib CORZOGRANDE_LOW.mtl
o Plane.012_Plane.011
v -8.576490 -12.397572 0.460084
v 9.155139 -12.397572 0.460084
v -8.576490 14.049988 0.460085
v 9.155139 14.049988 0.460085
v -7.932361 13.546179 0.460085
v -7.932361 -11.893761 0.460084
v 8.511009 -11.893761 0.460084
v 8.511009 13.546179 0.460085
v -8.126523 13.722078 0.710360
v -8.126523 -12.069660 0.710360
v 8.705171 -12.069660 0.710360
v 8.705171 13.722078 0.710360
v -8.399315 13.944847 0.710360
v -8.399315 -12.292429 0.710360
v 8.977962 -12.292429 0.710360
v 8.977962 13.944847 0.710360
v 0.378929 -11.893761 0.460084
v 0.378929 13.546179 0.460085
v 0.378929 -12.397572 0.460084
v 0.378929 14.049988 0.460085
v 0.378929 -12.069660 0.710360
v 0.378929 13.722078 0.710360
v 0.378929 -12.292429 0.710360
v 0.378929 13.944847 0.710360
v -7.932361 0.460019 0.460085
v 8.511009 0.460019 0.460085
v -8.576490 0.460019 0.460085
v 9.155139 0.460019 0.460085
v -8.126523 0.460019 0.710360
v 8.705171 0.460019 0.710360
v -8.399315 0.460019 0.710360
v 8.977962 0.460019 0.710360
v 0.378929 0.460019 0.460085
vt 0.384994 0.557959
vt 0.050679 0.533092
vt 0.119203 0.048240
vt 0.425273 0.045215
vt 0.053638 0.904432
vt 0.037394 0.917618
vt 0.032567 0.531882
vt 0.783218 0.589159
vt 0.716108 0.996709
vt 0.701921 0.982617
vt 0.765006 0.587648
vt 0.000884 0.529794
vt 0.077624 0.007101
vt 0.092011 0.020992
vt 0.019110 0.530994
vt 0.354485 0.954625
vt 0.675120 0.954979
vt 0.689284 0.970783
vt 0.353059 0.972035
vt 0.751560 0.586533
vt 0.752881 0.086384
vt 0.767110 0.077009
vt 0.352150 0.983000
vt 0.023260 0.927141
vt 0.426652 0.027883
vt 0.104794 0.032645
vt 0.427533 0.016955
vt 0.733464 0.585023
vt 0.736452 0.099397
vt 0.428827 0.000884
vt 0.783218 0.065709
vt 0.350812 0.999116
vt 0.007302 0.938601
vn 0.0000 0.0000 1.0000
vn -0.4399 0.0000 0.8980
vn -0.3473 -0.3698 0.8617
vn 0.0000 -0.4610 0.8874
vn -0.3473 0.3698 0.8617
vn -0.1387 0.1357 0.9810
vn -0.8162 0.0000 0.5778
vn -0.5773 -0.5218 0.6279
vn -0.3598 -0.4595 0.8120
vn -0.4595 0.0000 0.8882
vn 0.8162 0.0000 0.5778
vn 0.5773 0.5218 0.6279
vn 0.3598 0.4595 0.8120
vn 0.4595 0.0000 0.8882
vn 0.0000 0.4610 0.8874
vn 0.3473 0.3698 0.8617
vn 0.1387 0.1357 0.9810
vn 0.4399 0.0000 0.8980
vn 0.1387 -0.1357 0.9810
vn -0.3598 0.4595 0.8120
vn 0.0000 -0.5535 0.8329
vn 0.3598 -0.4595 0.8120
vn -0.1387 -0.1357 0.9810
vn 0.0000 0.5535 0.8329
vn 0.3473 -0.3698 0.8617
vn 0.0000 0.9219 0.3873
vn -0.5773 0.5218 0.6279
vn 0.0000 -0.9219 0.3873
vn 0.5773 -0.5218 0.6279
usemtl None
s 1
f 33/1/1 26/2/2 8/3/3 18/4/4
f 26/2/2 7/5/5 11/6/6 30/7/2
f 27/8/7 1/9/8 14/10/9 31/11/10
f 28/12/11 4/13/12 16/14/13 32/15/14
f 17/16/15 6/17/16 10/18/17 21/19/15
f 29/20/18 9/21/19 13/22/20 31/11/10
f 21/19/15 10/18/17 14/10/9 23/23/21
f 30/7/2 11/6/6 15/24/22 32/15/14
f 22/25/4 12/26/23 16/14/13 24/27/24
f 25/28/18 5/29/25 9/21/19 29/20/18
f 20/30/26 3/31/27 13/22/20 24/27/24
f 19/32/28 2/33/29 15/24/22 23/23/21
f 18/4/4 8/3/3 12/26/23 22/25/4
f 5/29/25 18/4/4 22/25/4 9/21/19
f 1/9/8 19/32/28 23/23/21 14/10/9
f 4/13/12 20/30/26 24/27/24 16/14/13
f 9/21/19 22/25/4 24/27/24 13/22/20
f 11/6/6 21/19/15 23/23/21 15/24/22
f 7/5/5 17/16/15 21/19/15 11/6/6
f 25/28/18 33/1/1 18/4/4 5/29/25
f 6/17/16 17/16/15 33/1/1 25/28/18
f 6/17/16 25/28/18 29/20/18 10/18/17
f 12/26/23 30/7/2 32/15/14 16/14/13
f 10/18/17 29/20/18 31/11/10 14/10/9
f 2/33/29 28/12/11 32/15/14 15/24/22
f 3/31/27 27/8/7 31/11/10 13/22/20
f 8/3/3 26/2/2 30/7/2 12/26/23
f 17/16/15 7/5/5 26/2/2 33/1/1
