# Blender v2.93.3 OBJ File: 'murales.blend'
# www.blender.org
mtllib heroes_low.mtl
o Plane.015_Plane.019
v -10.771093 2.938439 0.460084
v 11.230787 2.938439 0.460084
v -10.771093 6.690162 0.460085
v 11.230787 6.690162 0.460085
v -10.126964 6.305274 0.460085
v -10.126964 3.323328 0.460084
v 10.586657 3.323328 0.460084
v 10.586657 6.305274 0.460085
v -10.321126 6.439653 0.710360
v -10.321126 3.188949 0.710360
v 10.780819 3.188949 0.710360
v 10.780819 6.439653 0.710360
v -10.593918 6.609839 0.710360
v -10.593918 3.018763 0.710360
v 11.053610 3.018763 0.710360
v 11.053610 6.609839 0.710360
v -0.358931 3.323328 0.460084
v -0.358931 6.305274 0.460085
v -0.358931 2.938439 0.460084
v -0.358931 6.690162 0.460085
v -0.358931 3.188949 0.710360
v -0.358931 6.439653 0.710360
v -0.358931 3.018763 0.710360
v -0.358931 6.609839 0.710360
v -10.126964 4.813770 0.460085
v 10.586657 4.813770 0.460085
v -10.771093 4.813770 0.460085
v 11.230787 4.813770 0.460085
v -10.321126 4.813770 0.710360
v 10.780819 4.813770 0.710360
v -10.593918 4.813770 0.710360
v 11.053610 4.813770 0.710360
v -0.358931 4.813770 0.460085
v -10.771093 -1.542777 0.460084
v 11.230787 -1.542777 0.460084
v -10.771093 2.208946 0.460084
v 11.230787 2.208946 0.460084
v -10.126964 1.824058 0.460084
v -10.126964 -1.157888 0.460084
v 10.586657 -1.157888 0.460084
v 10.586657 1.824058 0.460084
v -10.321126 1.958438 0.710360
v -10.321126 -1.292267 0.710359
v 10.780819 -1.292267 0.710359
v 10.780819 1.958438 0.710360
v -10.593918 2.128623 0.710360
v -10.593918 -1.462452 0.710359
v 11.053610 -1.462452 0.710359
v 11.053610 2.128623 0.710360
v -0.358931 -1.157888 0.460084
v -0.358931 1.824058 0.460084
v -0.358931 -1.542777 0.460084
v -0.358931 2.208946 0.460084
v -0.358931 -1.292267 0.710359
v -0.358931 1.958438 0.710360
v -0.358931 -1.462452 0.710359
v -0.358931 2.128623 0.710360
v -10.126964 0.332554 0.460084
v 10.586657 0.332554 0.460084
v -10.771093 0.332554 0.460084
v 11.230787 0.332554 0.460084
v -10.321126 0.332554 0.710360
v 10.780819 0.332554 0.710360
v -10.593918 0.332554 0.710360
v 11.053610 0.332554 0.710360
v -0.358931 0.332554 0.460084
v -10.771093 -6.119549 0.460084
v 11.230787 -6.119549 0.460084
v -10.771093 -2.367826 0.460084
v 11.230787 -2.367826 0.460084
v -10.126964 -2.752714 0.460084
v -10.126964 -5.734660 0.460084
v 10.586657 -5.734660 0.460084
v 10.586657 -2.752714 0.460084
v -10.321126 -2.618334 0.710360
v -10.321126 -5.869039 0.710359
v 10.780819 -5.869039 0.710359
v 10.780819 -2.618334 0.710360
v -10.593918 -2.448149 0.710360
v -10.593918 -6.039224 0.710359
v 11.053610 -6.039224 0.710359
v 11.053610 -2.448149 0.710360
v -0.358931 -5.734660 0.460084
v -0.358931 -2.752714 0.460084
v -0.358931 -6.119549 0.460084
v -0.358931 -2.367826 0.460084
v -0.358931 -5.869039 0.710359
v -0.358931 -2.618334 0.710360
v -0.358931 -6.039224 0.710359
v -0.358931 -2.448149 0.710360
v -10.126964 -4.244218 0.460084
v 10.586657 -4.244218 0.460084
v -10.771093 -4.244218 0.460084
v 11.230787 -4.244218 0.460084
v -10.321126 -4.244218 0.710360
v 10.780819 -4.244218 0.710360
v -10.593918 -4.244218 0.710360
v 11.053610 -4.244218 0.710360
v -0.358931 -4.244218 0.460084
v -10.771093 -10.527327 0.460084
v 11.230787 -10.527327 0.460084
v -10.771093 -6.775604 0.460084
v 11.230787 -6.775604 0.460084
v -10.126964 -7.160492 0.460084
v -10.126964 -10.142439 0.460084
v 10.586657 -10.142439 0.460084
v 10.586657 -7.160492 0.460084
v -10.321126 -7.026113 0.710360
v -10.321126 -10.276817 0.710359
v 10.780819 -10.276817 0.710359
v 10.780819 -7.026113 0.710360
v -10.593918 -6.855927 0.710360
v -10.593918 -10.447002 0.710359
v 11.053610 -10.447002 0.710359
v 11.053610 -6.855927 0.710360
v -0.358931 -10.142439 0.460084
v -0.358931 -7.160492 0.460084
v -0.358931 -10.527327 0.460084
v -0.358931 -6.775604 0.460084
v -0.358931 -10.276817 0.710359
v -0.358931 -7.026113 0.710360
v -0.358931 -10.447002 0.710359
v -0.358931 -6.855927 0.710360
v -10.126964 -8.651997 0.460084
v 10.586657 -8.651997 0.460084
v -10.771093 -8.651997 0.460084
v 11.230787 -8.651997 0.460084
v -10.321126 -8.651997 0.710360
v 10.780819 -8.651997 0.710360
v -10.593918 -8.651997 0.710360
v 11.053610 -8.651997 0.710360
v -0.358931 -8.651997 0.460084
v -10.771093 7.385818 0.460084
v 11.230787 7.385818 0.460084
v -10.771093 11.137541 0.460085
v 11.230787 11.137541 0.460085
v -10.126964 10.752653 0.460085
v -10.126964 7.770707 0.460084
v 10.586657 7.770707 0.460084
v 10.586657 10.752653 0.460085
v -10.321126 10.887033 0.710360
v -10.321126 7.636327 0.710360
v 10.780819 7.636327 0.710360
v 10.780819 10.887033 0.710360
v -10.593918 11.057218 0.710360
v -10.593918 7.466142 0.710360
v 11.053610 7.466142 0.710360
v 11.053610 11.057218 0.710360
v -0.358931 7.770707 0.460084
v -0.358931 10.752653 0.460085
v -0.358931 7.385818 0.460084
v -0.358931 11.137541 0.460085
v -0.358931 7.636327 0.710360
v -0.358931 10.887033 0.710360
v -0.358931 7.466142 0.710360
v -0.358931 11.057218 0.710360
v -10.126964 9.261148 0.460085
v 10.586657 9.261148 0.460085
v -10.771093 9.261148 0.460085
v 11.230787 9.261148 0.460085
v -10.321126 9.261148 0.710360
v 10.780819 9.261148 0.710360
v -10.593918 9.261148 0.710360
v 11.053610 9.261148 0.710360
v -0.358931 9.261148 0.460085
vt 0.477145 0.363555
vt 0.477145 0.742320
vt 0.425532 0.742320
vt 0.425532 0.363555
vt 0.528721 0.742320
vt 0.533371 0.749039
vt 0.477145 0.749039
vt 0.477145 0.003248
vt 0.542039 0.003248
vt 0.539260 0.009379
vt 0.477145 0.009379
vt 0.477145 0.764609
vt 0.412213 0.764609
vt 0.414993 0.758478
vt 0.477145 0.758478
vt 0.743502 0.388732
vt 0.743502 0.726749
vt 0.733713 0.733468
vt 0.733713 0.388732
vt 0.477145 0.018819
vt 0.420882 0.018819
vt 0.414993 0.009379
vt 0.533371 0.363555
vt 0.533371 0.018819
vt 0.539260 0.363555
vt 0.539260 0.758478
vt 0.420882 0.363555
vt 0.420882 0.749039
vt 0.414993 0.363555
vt 0.477145 0.025537
vt 0.425532 0.025537
vt 0.996752 0.404303
vt 0.996752 0.764609
vt 0.987694 0.758478
vt 0.987694 0.404303
vt 0.878817 0.404303
vt 0.878817 0.003248
vt 0.887875 0.009379
vt 0.887875 0.404303
vt 0.815139 0.388732
vt 0.815139 0.009967
vt 0.824928 0.003248
vt 0.824928 0.388732
vt 0.815139 0.726749
vt 0.824928 0.733468
vt 0.878817 0.764609
vt 0.887875 0.758478
vt 0.996752 0.003248
vt 0.987694 0.009379
vt 0.743502 0.009967
vt 0.733713 0.003248
vt 0.528721 0.025537
vt 0.528721 0.363555
vt 0.542039 0.764609
vt 0.412213 0.003248
vt 0.340823 0.363555
vt 0.340823 0.742320
vt 0.289211 0.742320
vt 0.289211 0.363555
vt 0.392399 0.742320
vt 0.397049 0.749039
vt 0.340823 0.749039
vt 0.340823 0.003248
vt 0.405718 0.003248
vt 0.402938 0.009379
vt 0.340823 0.009379
vt 0.340823 0.764609
vt 0.275892 0.764609
vt 0.278671 0.758478
vt 0.340823 0.758478
vt 0.776073 0.388732
vt 0.776073 0.726749
vt 0.766283 0.733468
vt 0.766284 0.388732
vt 0.340823 0.018819
vt 0.284560 0.018819
vt 0.278671 0.009379
vt 0.397049 0.363555
vt 0.397049 0.018819
vt 0.402938 0.363555
vt 0.402938 0.758478
vt 0.284560 0.363555
vt 0.284560 0.749039
vt 0.278671 0.363555
vt 0.340823 0.025537
vt 0.289211 0.025537
vt 0.950091 0.404303
vt 0.950090 0.764609
vt 0.941032 0.758478
vt 0.941032 0.404303
vt 0.909925 0.404303
vt 0.909925 0.003248
vt 0.918983 0.009379
vt 0.918983 0.404303
vt 0.749998 0.388732
vt 0.749998 0.009967
vt 0.759787 0.003248
vt 0.759787 0.388732
vt 0.749998 0.726749
vt 0.759787 0.733468
vt 0.909925 0.764609
vt 0.918983 0.758478
vt 0.950091 0.003248
vt 0.941033 0.009379
vt 0.776073 0.009967
vt 0.766284 0.003248
vt 0.392399 0.025537
vt 0.392399 0.363555
vt 0.405718 0.764609
vt 0.275892 0.003248
vt 0.204501 0.363555
vt 0.204501 0.742320
vt 0.152889 0.742320
vt 0.152889 0.363555
vt 0.256077 0.742320
vt 0.260727 0.749039
vt 0.204501 0.749039
vt 0.204501 0.003248
vt 0.269396 0.003248
vt 0.266616 0.009379
vt 0.204501 0.009379
vt 0.204501 0.764609
vt 0.139570 0.764609
vt 0.142349 0.758478
vt 0.204501 0.758478
vt 0.841213 0.388732
vt 0.841213 0.726749
vt 0.831424 0.733468
vt 0.831424 0.388732
vt 0.204501 0.018819
vt 0.148239 0.018819
vt 0.142349 0.009379
vt 0.260727 0.363555
vt 0.260727 0.018819
vt 0.266616 0.363555
vt 0.266616 0.758478
vt 0.148239 0.363555
vt 0.148239 0.749039
vt 0.142349 0.363555
vt 0.204501 0.025537
vt 0.152889 0.025537
vt 0.965644 0.404303
vt 0.965644 0.764609
vt 0.956586 0.758478
vt 0.956586 0.404303
vt 0.847709 0.404303
vt 0.847709 0.003248
vt 0.856767 0.009379
vt 0.856767 0.404303
vt 0.782569 0.388732
vt 0.782569 0.009967
vt 0.792358 0.003248
vt 0.792358 0.388732
vt 0.782569 0.726749
vt 0.792358 0.733468
vt 0.847709 0.764609
vt 0.856767 0.758478
vt 0.965644 0.003248
vt 0.956586 0.009379
vt 0.841213 0.009967
vt 0.831424 0.003248
vt 0.256077 0.025537
vt 0.256077 0.363555
vt 0.269396 0.764609
vt 0.139570 0.003248
vt 0.613467 0.363555
vt 0.613467 0.742320
vt 0.561854 0.742320
vt 0.561854 0.363555
vt 0.665043 0.742320
vt 0.669693 0.749039
vt 0.613467 0.749039
vt 0.613467 0.003248
vt 0.678361 0.003248
vt 0.675582 0.009379
vt 0.613467 0.009379
vt 0.613467 0.764609
vt 0.548535 0.764609
vt 0.551315 0.758478
vt 0.613467 0.758478
vt 0.808643 0.388732
vt 0.808643 0.726749
vt 0.798853 0.733468
vt 0.798853 0.388732
vt 0.613467 0.018819
vt 0.557204 0.018819
vt 0.551315 0.009379
vt 0.669693 0.363555
vt 0.669693 0.018819
vt 0.675582 0.363555
vt 0.675582 0.758478
vt 0.557204 0.363555
vt 0.557204 0.749039
vt 0.551315 0.363555
vt 0.613467 0.025537
vt 0.561854 0.025537
vt 0.981198 0.404303
vt 0.981198 0.764609
vt 0.972140 0.758478
vt 0.972140 0.404303
vt 0.925478 0.404303
vt 0.925478 0.003248
vt 0.934536 0.009379
vt 0.934536 0.404303
vt 0.717428 0.388732
vt 0.717428 0.009967
vt 0.727217 0.003248
vt 0.727217 0.388732
vt 0.717428 0.726749
vt 0.727217 0.733468
vt 0.925478 0.764609
vt 0.934536 0.758478
vt 0.981198 0.003248
vt 0.972140 0.009379
vt 0.808643 0.009967
vt 0.798853 0.003248
vt 0.665043 0.025537
vt 0.665043 0.363555
vt 0.678361 0.764609
vt 0.548535 0.003248
vt 0.068179 0.363555
vt 0.068179 0.742320
vt 0.016566 0.742320
vt 0.016566 0.363555
vt 0.119755 0.742320
vt 0.124405 0.749039
vt 0.068179 0.749039
vt 0.068179 0.003248
vt 0.133074 0.003248
vt 0.130295 0.009379
vt 0.068179 0.009379
vt 0.068179 0.764609
vt 0.003248 0.764609
vt 0.006027 0.758478
vt 0.068179 0.758478
vt 0.710932 0.388732
vt 0.710932 0.726749
vt 0.701143 0.733468
vt 0.701143 0.388732
vt 0.068179 0.018819
vt 0.011916 0.018819
vt 0.006027 0.009379
vt 0.124405 0.363555
vt 0.124405 0.018819
vt 0.130295 0.363555
vt 0.130295 0.758478
vt 0.011916 0.363555
vt 0.011916 0.749039
vt 0.006027 0.363555
vt 0.068179 0.025537
vt 0.016566 0.025537
vt 0.872321 0.404303
vt 0.872321 0.764609
vt 0.863263 0.758478
vt 0.863263 0.404303
vt 0.894371 0.404303
vt 0.894371 0.003248
vt 0.903429 0.009379
vt 0.903429 0.404303
vt 0.684857 0.388732
vt 0.684857 0.009967
vt 0.694647 0.003248
vt 0.694647 0.388732
vt 0.684857 0.726749
vt 0.694647 0.733468
vt 0.894371 0.764609
vt 0.903429 0.758478
vt 0.872321 0.003248
vt 0.863263 0.009379
vt 0.710932 0.009967
vt 0.701143 0.003248
vt 0.119755 0.025537
vt 0.119755 0.363555
vt 0.133074 0.764609
vt 0.003248 0.003248
vn 0.0000 0.0000 1.0000
vn -0.4399 0.0000 0.8980
vn -0.3435 -0.4216 0.8392
vn 0.0000 -0.5133 0.8582
vn -0.3435 0.4216 0.8392
vn -0.1534 0.1421 0.9779
vn -0.8162 0.0000 0.5778
vn -0.6057 -0.5255 0.5974
vn -0.3587 -0.4957 0.7909
vn -0.4595 0.0000 0.8882
vn 0.8162 0.0000 0.5778
vn 0.6057 0.5255 0.5974
vn 0.3587 0.4957 0.7909
vn 0.4595 0.0000 0.8882
vn 0.0000 0.5133 0.8582
vn 0.3435 0.4216 0.8392
vn 0.1534 0.1421 0.9779
vn 0.4399 0.0000 0.8980
vn 0.1534 -0.1421 0.9779
vn -0.3587 0.4957 0.7909
vn 0.0000 -0.5892 0.8079
vn 0.3587 -0.4957 0.7909
vn -0.1534 -0.1421 0.9779
vn 0.0000 0.5892 0.8079
vn 0.3435 -0.4216 0.8392
vn 0.0000 0.9521 0.3056
vn -0.6057 0.5255 0.5974
vn 0.0000 -0.9521 0.3056
vn 0.6057 -0.5255 0.5974
usemtl None
s 1
f 33/1/1 26/2/2 8/3/3 18/4/4
f 26/2/2 7/5/5 11/6/6 30/7/2
f 27/8/7 1/9/8 14/10/9 31/11/10
f 28/12/11 4/13/12 16/14/13 32/15/14
f 17/16/15 6/17/16 10/18/17 21/19/15
f 29/20/18 9/21/19 13/22/20 31/11/10
f 21/23/15 10/24/17 14/10/9 23/25/21
f 30/7/2 11/6/6 15/26/22 32/15/14
f 22/27/4 12/28/23 16/14/13 24/29/24
f 25/30/18 5/31/25 9/21/19 29/20/18
f 20/32/26 3/33/27 13/34/20 24/35/24
f 19/36/28 2/37/29 15/38/22 23/39/21
f 18/40/4 8/41/3 12/42/23 22/43/4
f 5/44/25 18/40/4 22/43/4 9/45/19
f 1/46/8 19/36/28 23/39/21 14/47/9
f 4/48/12 20/32/26 24/35/24 16/49/13
f 9/21/19 22/27/4 24/29/24 13/22/20
f 11/6/6 21/23/15 23/25/21 15/26/22
f 7/50/5 17/16/15 21/19/15 11/51/6
f 25/30/18 33/1/1 18/4/4 5/31/25
f 6/52/16 17/53/15 33/1/1 25/30/18
f 6/52/16 25/30/18 29/20/18 10/24/17
f 12/28/23 30/7/2 32/15/14 16/14/13
f 10/24/17 29/20/18 31/11/10 14/10/9
f 2/54/29 28/12/11 32/15/14 15/26/22
f 3/55/27 27/8/7 31/11/10 13/22/20
f 8/3/3 26/2/2 30/7/2 12/28/23
f 17/53/15 7/5/5 26/2/2 33/1/1
f 66/56/1 59/57/2 41/58/3 51/59/4
f 59/57/2 40/60/5 44/61/6 63/62/2
f 60/63/7 34/64/8 47/65/9 64/66/10
f 61/67/11 37/68/12 49/69/13 65/70/14
f 50/71/15 39/72/16 43/73/17 54/74/15
f 62/75/18 42/76/19 46/77/20 64/66/10
f 54/78/15 43/79/17 47/65/9 56/80/21
f 63/62/2 44/61/6 48/81/22 65/70/14
f 55/82/4 45/83/23 49/69/13 57/84/24
f 58/85/18 38/86/25 42/76/19 62/75/18
f 53/87/26 36/88/27 46/89/20 57/90/24
f 52/91/28 35/92/29 48/93/22 56/94/21
f 51/95/4 41/96/3 45/97/23 55/98/4
f 38/99/25 51/95/4 55/98/4 42/100/19
f 34/101/8 52/91/28 56/94/21 47/102/9
f 37/103/12 53/87/26 57/90/24 49/104/13
f 42/76/19 55/82/4 57/84/24 46/77/20
f 44/61/6 54/78/15 56/80/21 48/81/22
f 40/105/5 50/71/15 54/74/15 44/106/6
f 58/85/18 66/56/1 51/59/4 38/86/25
f 39/107/16 50/108/15 66/56/1 58/85/18
f 39/107/16 58/85/18 62/75/18 43/79/17
f 45/83/23 63/62/2 65/70/14 49/69/13
f 43/79/17 62/75/18 64/66/10 47/65/9
f 35/109/29 61/67/11 65/70/14 48/81/22
f 36/110/27 60/63/7 64/66/10 46/77/20
f 41/58/3 59/57/2 63/62/2 45/83/23
f 50/108/15 40/60/5 59/57/2 66/56/1
f 99/111/1 92/112/2 74/113/3 84/114/4
f 92/112/2 73/115/5 77/116/6 96/117/2
f 93/118/7 67/119/8 80/120/9 97/121/10
f 94/122/11 70/123/12 82/124/13 98/125/14
f 83/126/15 72/127/16 76/128/17 87/129/15
f 95/130/18 75/131/19 79/132/20 97/121/10
f 87/133/15 76/134/17 80/120/9 89/135/21
f 96/117/2 77/116/6 81/136/22 98/125/14
f 88/137/4 78/138/23 82/124/13 90/139/24
f 91/140/18 71/141/25 75/131/19 95/130/18
f 86/142/26 69/143/27 79/144/20 90/145/24
f 85/146/28 68/147/29 81/148/22 89/149/21
f 84/150/4 74/151/3 78/152/23 88/153/4
f 71/154/25 84/150/4 88/153/4 75/155/19
f 67/156/8 85/146/28 89/149/21 80/157/9
f 70/158/12 86/142/26 90/145/24 82/159/13
f 75/131/19 88/137/4 90/139/24 79/132/20
f 77/116/6 87/133/15 89/135/21 81/136/22
f 73/160/5 83/126/15 87/129/15 77/161/6
f 91/140/18 99/111/1 84/114/4 71/141/25
f 72/162/16 83/163/15 99/111/1 91/140/18
f 72/162/16 91/140/18 95/130/18 76/134/17
f 78/138/23 96/117/2 98/125/14 82/124/13
f 76/134/17 95/130/18 97/121/10 80/120/9
f 68/164/29 94/122/11 98/125/14 81/136/22
f 69/165/27 93/118/7 97/121/10 79/132/20
f 74/113/3 92/112/2 96/117/2 78/138/23
f 83/163/15 73/115/5 92/112/2 99/111/1
f 132/166/1 125/167/2 107/168/3 117/169/4
f 125/167/2 106/170/5 110/171/6 129/172/2
f 126/173/7 100/174/8 113/175/9 130/176/10
f 127/177/11 103/178/12 115/179/13 131/180/14
f 116/181/15 105/182/16 109/183/17 120/184/15
f 128/185/18 108/186/19 112/187/20 130/176/10
f 120/188/15 109/189/17 113/175/9 122/190/21
f 129/172/2 110/171/6 114/191/22 131/180/14
f 121/192/4 111/193/23 115/179/13 123/194/24
f 124/195/18 104/196/25 108/186/19 128/185/18
f 119/197/26 102/198/27 112/199/20 123/200/24
f 118/201/28 101/202/29 114/203/22 122/204/21
f 117/205/4 107/206/3 111/207/23 121/208/4
f 104/209/25 117/205/4 121/208/4 108/210/19
f 100/211/8 118/201/28 122/204/21 113/212/9
f 103/213/12 119/197/26 123/200/24 115/214/13
f 108/186/19 121/192/4 123/194/24 112/187/20
f 110/171/6 120/188/15 122/190/21 114/191/22
f 106/215/5 116/181/15 120/184/15 110/216/6
f 124/195/18 132/166/1 117/169/4 104/196/25
f 105/217/16 116/218/15 132/166/1 124/195/18
f 105/217/16 124/195/18 128/185/18 109/189/17
f 111/193/23 129/172/2 131/180/14 115/179/13
f 109/189/17 128/185/18 130/176/10 113/175/9
f 101/219/29 127/177/11 131/180/14 114/191/22
f 102/220/27 126/173/7 130/176/10 112/187/20
f 107/168/3 125/167/2 129/172/2 111/193/23
f 116/218/15 106/170/5 125/167/2 132/166/1
f 165/221/1 158/222/2 140/223/3 150/224/4
f 158/222/2 139/225/5 143/226/6 162/227/2
f 159/228/7 133/229/8 146/230/9 163/231/10
f 160/232/11 136/233/12 148/234/13 164/235/14
f 149/236/15 138/237/16 142/238/17 153/239/15
f 161/240/18 141/241/19 145/242/20 163/231/10
f 153/243/15 142/244/17 146/230/9 155/245/21
f 162/227/2 143/226/6 147/246/22 164/235/14
f 154/247/4 144/248/23 148/234/13 156/249/24
f 157/250/18 137/251/25 141/241/19 161/240/18
f 152/252/26 135/253/27 145/254/20 156/255/24
f 151/256/28 134/257/29 147/258/22 155/259/21
f 150/260/4 140/261/3 144/262/23 154/263/4
f 137/264/25 150/260/4 154/263/4 141/265/19
f 133/266/8 151/256/28 155/259/21 146/267/9
f 136/268/12 152/252/26 156/255/24 148/269/13
f 141/241/19 154/247/4 156/249/24 145/242/20
f 143/226/6 153/243/15 155/245/21 147/246/22
f 139/270/5 149/236/15 153/239/15 143/271/6
f 157/250/18 165/221/1 150/224/4 137/251/25
f 138/272/16 149/273/15 165/221/1 157/250/18
f 138/272/16 157/250/18 161/240/18 142/244/17
f 144/248/23 162/227/2 164/235/14 148/234/13
f 142/244/17 161/240/18 163/231/10 146/230/9
f 134/274/29 160/232/11 164/235/14 147/246/22
f 135/275/27 159/228/7 163/231/10 145/242/20
f 140/223/3 158/222/2 162/227/2 144/248/23
f 149/273/15 139/225/5 158/222/2 165/221/1
