# Blender v2.93.3 OBJ File: 'murales.blend'
# www.blender.org
mtllib historiacorzo_low.mtl
o Plane.010
v -3.964320 -5.406043 0.460084
v 3.967962 -5.406043 0.460084
v -3.964320 5.379013 0.460084
v 3.967962 5.379013 0.460084
v -3.445099 4.875203 0.460084
v -3.445099 -4.902233 0.460084
v 3.448742 -4.902233 0.460084
v 3.448742 4.875203 0.460084
v -3.522994 5.051103 0.710360
v -3.522994 -5.078132 0.710359
v 3.526636 -5.078132 0.710359
v 3.526636 5.051103 0.710360
v -3.836512 5.273871 0.710360
v -3.836512 -5.300901 0.710359
v 3.840154 -5.300901 0.710359
v 3.840154 5.273871 0.710360
v -2.236705 0.000595 0.482157
v 2.240347 0.000595 0.482157
v -2.682039 0.000595 0.482157
v 2.685681 0.000595 0.482157
v -2.287292 0.000595 0.688286
v 2.290934 0.000595 0.688286
v -2.595552 0.000595 0.688286
v 2.599194 0.000595 0.688286
vt 0.507773 0.278967
vt 0.760807 0.278967
vt 0.829103 0.554470
vt 0.439477 0.554470
vt 0.946033 0.288905
vt 0.964325 0.011811
vt 0.979138 0.001869
vt 0.958014 0.288905
vt 0.883576 0.305843
vt 0.905451 0.611419
vt 0.889833 0.605476
vt 0.871015 0.305843
vt 0.845402 0.307445
vt 0.867277 0.611419
vt 0.851659 0.605476
vt 0.832841 0.307445
vt 0.477595 0.562611
vt 0.477595 0.952237
vt 0.460405 0.956639
vt 0.460405 0.558208
vt 0.089428 0.301499
vt 0.019589 0.586943
vt 0.001869 0.599534
vt 0.072006 0.301499
vt 0.418019 0.014460
vt 0.019589 0.014460
vt 0.001869 0.001869
vt 0.435739 0.001869
vt 0.348180 0.301499
vt 0.365602 0.301499
vt 0.418019 0.586943
vt 0.435739 0.599534
vt 0.909189 0.287317
vt 0.927481 0.011811
vt 0.942294 0.001869
vt 0.921171 0.287317
vt 0.998131 0.453924
vt 0.998131 0.902241
vt 0.982877 0.895017
vt 0.982877 0.461148
vt 0.982877 0.450186
vt 0.982877 0.001869
vt 0.998131 0.009093
vt 0.998131 0.442962
vt 0.439477 0.952237
vt 0.439477 0.562611
vt 0.456667 0.558208
vt 0.456667 0.956639
vt 0.927481 0.564411
vt 0.942294 0.574353
vt 0.867277 0.001869
vt 0.851659 0.007812
vt 0.905451 0.001869
vt 0.889833 0.007812
vt 0.964325 0.564411
vt 0.979138 0.574353
vt 0.439477 0.001869
vt 0.829103 0.001869
vn 0.5712 0.0004 0.8208
vn -0.5712 0.0004 0.8208
vn -0.5845 -0.2666 0.7663
vn 0.5845 -0.2666 0.7663
vn -0.5842 0.2672 0.7664
vn -0.1462 0.1459 0.9784
vn -0.6923 0.0005 0.7216
vn -0.9236 -0.0006 0.3834
vn -0.6496 -0.5216 0.5531
vn -0.4943 -0.3849 0.7794
vn -0.4952 -0.0003 0.8688
vn 0.9236 -0.0006 0.3834
vn 0.6497 0.5213 0.5532
vn 0.4946 0.3845 0.7794
vn 0.4952 -0.0003 0.8688
vn 0.5842 0.2672 0.7664
vn 0.1462 0.1459 0.9784
vn 0.6923 0.0005 0.7216
vn 0.1462 -0.1457 0.9785
vn -0.4946 0.3845 0.7794
vn 0.4943 -0.3849 0.7794
vn -0.1462 -0.1457 0.9785
vn -0.6497 0.5213 0.5532
vn 0.6496 -0.5216 0.5531
usemtl None
s 1
f 17/1/1 18/2/2 8/3/3 5/4/4
f 18/5/2 7/6/5 11/7/6 22/8/7
f 19/9/8 1/10/9 14/11/10 23/12/11
f 20/13/12 4/14/13 16/15/14 24/16/15
f 7/17/5 6/18/16 10/19/17 11/20/6
f 21/21/18 9/22/19 13/23/20 23/24/11
f 11/25/6 10/26/17 14/27/10 15/28/21
f 22/29/7 11/25/6 15/28/21 24/30/15
f 9/22/19 12/31/22 16/32/14 13/23/20
f 17/33/1 5/34/4 9/35/19 21/36/18
f 4/37/13 3/38/23 13/39/20 16/40/14
f 1/41/9 2/42/24 15/43/21 14/44/10
f 5/45/4 8/46/3 12/47/22 9/48/19
f 6/49/16 17/33/1 21/36/18 10/50/17
f 12/31/22 22/29/7 24/30/15 16/32/14
f 10/26/17 21/21/18 23/24/11 14/27/10
f 2/51/24 20/13/12 24/16/15 15/52/21
f 3/53/23 19/9/8 23/12/11 13/54/20
f 8/55/3 18/5/2 22/8/7 12/56/22
f 6/57/16 7/58/5 18/2/2 17/1/1
