# Blender v2.93.3 OBJ File: 'murales.blend'
# www.blender.org
mtllib muraltortu_low.mtl
o low_Cube.001
v 1.416813 0.584424 1.000000
v 3.007659 10.093197 1.000000
v 1.614380 7.996349 1.000000
v 1.416813 7.143978 1.000000
v 8.969094 0.584424 1.000000
v 7.378248 10.093197 1.000000
v 1.945353 8.754114 1.000000
v 2.442351 9.437920 1.000000
v 7.943557 9.437920 1.000000
v 8.440555 8.754114 1.000000
v 8.771527 7.996349 1.000000
v 8.969094 7.143978 1.000000
v 3.902671 10.774361 1.000000
v 6.483236 10.774361 1.000000
v 5.026690 11.417681 1.000000
v 5.359218 11.417681 1.000000
v 1.882567 1.065319 1.000000
v 1.882567 7.152597 1.000000
v 8.503340 7.152597 1.000000
v 8.503340 1.065319 1.000000
v 2.778523 9.183006 1.000000
v 3.274741 9.758198 1.000000
v 2.342266 8.582774 1.000000
v 2.051744 7.917621 1.000000
v 7.111167 9.758198 1.000000
v 7.607385 9.183006 1.000000
v 8.043641 8.582774 1.000000
v 8.334164 7.917621 1.000000
v 6.325541 10.356111 1.000000
v 4.060367 10.356111 1.000000
v 5.338897 10.920807 1.000000
v 5.047011 10.920807 1.000000
v 3.936210 10.709400 1.127463
v 4.011341 10.453032 1.127463
v 2.513849 9.407698 1.127463
v 3.064463 10.045942 1.127463
v 2.029769 8.741668 1.127463
v 1.707400 8.003599 1.127463
v 1.514968 7.173384 1.127463
v 1.514968 0.747251 1.127463
v 8.870939 7.173384 1.127463
v 8.646633 7.110849 1.127463
v 5.031013 11.335999 1.127463
v 5.040694 11.042171 1.127463
v 8.870939 0.747251 1.127463
v 1.915773 7.908988 1.127463
v 5.345214 11.042171 1.127463
v 5.354896 11.335999 1.127463
v 7.321445 10.045942 1.127463
v 7.872059 9.407698 1.127463
v 8.356138 8.741668 1.127463
v 8.678508 8.003599 1.127463
v 8.470135 7.908988 1.127463
v 2.218871 8.602934 1.127463
v 6.449697 10.709400 1.127463
v 6.374567 10.453032 1.127463
v 8.167036 8.602934 1.127463
v 3.191708 9.829236 1.127463
v 2.674011 9.229147 1.127463
v 7.711897 9.229147 1.127463
v 7.194200 9.829236 1.127463
v 1.739273 0.908512 1.127463
v 1.739273 7.110849 1.127463
v 8.646633 0.908512 1.127463
vt 0.920713 0.109842
vt 0.916627 0.149457
vt 0.883873 0.149688
vt 0.888136 0.108358
vt 0.464199 0.307419
vt 0.876180 0.303172
vt 0.866046 0.341402
vt 0.475119 0.345432
vt 0.943764 0.208313
vt 0.946523 0.163799
vt 0.978871 0.163584
vt 0.976184 0.206940
vt 0.912424 0.226210
vt 0.913426 0.264912
vt 0.880534 0.270140
vt 0.879488 0.229762
vt 0.618586 0.761217
vt 0.616199 0.684311
vt 0.648433 0.683859
vt 0.650758 0.758766
vt 0.950077 0.118578
vt 0.982333 0.119539
vt 0.609564 0.772754
vt 0.611456 0.801938
vt 0.578385 0.802199
vt 0.576411 0.771752
vt 0.620477 0.779981
vt 0.652600 0.777042
vt 0.695108 0.503499
vt 0.691757 0.533893
vt 0.659322 0.528685
vt 0.662818 0.496975
vt 0.939061 0.007846
vt 0.928499 0.060973
vt 0.896259 0.057373
vt 0.907278 0.001946
vt 0.956913 0.062723
vt 0.988991 0.065135
vt 0.690067 0.571126
vt 0.657558 0.567529
vt 0.690050 0.668067
vt 0.692873 0.735548
vt 0.660485 0.739068
vt 0.657540 0.668666
vt 0.821472 0.404924
vt 0.790890 0.433905
vt 0.552166 0.436366
vt 0.520993 0.408022
vt 0.848310 0.374734
vt 0.493539 0.378391
vt 0.742311 0.464203
vt 0.601360 0.465656
vt 0.681207 0.492976
vt 0.663044 0.493163
vt 0.689045 0.611207
vt 0.656492 0.609345
vt 0.496621 0.496975
vt 0.496621 0.926234
vt 0.463593 0.920957
vt 0.463593 0.502856
vt 0.695108 0.751987
vt 0.662818 0.756218
vt 0.615349 0.619534
vt 0.647605 0.620765
vt 0.461072 0.004083
vt 0.873053 -0.000164
vt 0.013921 0.363557
vt 0.001946 0.322185
vt 0.015904 0.319068
vt 0.026888 0.358843
vt 0.459700 0.322185
vt 0.447725 0.363557
vt 0.434758 0.358843
vt 0.445742 0.319068
vt 0.033982 0.400338
vt 0.045749 0.393425
vt 0.001946 0.001946
vt 0.015904 0.009982
vt 0.459700 0.001946
vt 0.445742 0.009982
vt 0.427665 0.400338
vt 0.415897 0.393425
vt 0.064105 0.433529
vt 0.074072 0.424631
vt 0.363277 0.465335
vt 0.309029 0.498398
vt 0.304354 0.485622
vt 0.355358 0.454536
vt 0.397541 0.433529
vt 0.387574 0.424631
vt 0.098370 0.465335
vt 0.106288 0.454536
vt 0.220746 0.529624
vt 0.152617 0.498398
vt 0.157293 0.485622
vt 0.221348 0.514981
vt 0.240901 0.529624
vt 0.240298 0.514981
vt 0.942953 0.251314
vt 0.975394 0.248824
vt 0.913433 0.188472
vt 0.880541 0.190392
vt 0.616213 0.573903
vt 0.648447 0.576321
vt 0.966218 0.001946
vt 0.998054 0.005938
vt 0.943827 0.294653
vt 0.976245 0.291037
vt 0.617643 0.531530
vt 0.649839 0.535049
vt 0.611456 0.503074
vt 0.578339 0.496975
vt 0.620477 0.496975
vt 0.652600 0.501392
vt 0.939061 0.534499
vt 0.906653 0.544823
vt 0.540086 0.821363
vt 0.537285 0.788775
vt 0.569790 0.791384
vt 0.572518 0.823125
vt 0.533392 0.504124
vt 0.533392 0.879609
vt 0.500514 0.888713
vt 0.500514 0.496975
vt 0.540070 0.496975
vt 0.572518 0.505519
vt 0.966088 0.584410
vt 0.998054 0.574899
vn -0.3010 -0.3232 0.8972
vn -0.3314 -0.2651 0.9054
vn -0.3191 -0.2506 0.9140
vn -0.2723 -0.2870 0.9184
vn 0.3849 -0.0506 0.9216
vn -0.3849 -0.0506 0.9216
vn -0.3836 -0.1325 0.9139
vn 0.3836 -0.1325 0.9139
vn 0.7409 0.4113 0.5309
vn 0.6777 0.5331 0.5065
vn 0.3961 0.3163 0.8620
vn 0.4398 0.2607 0.8594
vn -0.3391 -0.0305 0.9402
vn -0.3462 -0.1067 0.9321
vn -0.2042 0.8210 0.5331
vn -0.4782 0.7252 0.4954
vn -0.2869 0.4309 0.8556
vn -0.1500 0.5201 0.8408
vn 0.5962 0.6290 0.4989
vn 0.3579 0.3838 0.8512
vn 0.3462 -0.1067 0.9321
vn 0.3391 -0.0305 0.9402
vn 0.2042 0.8210 0.5331
vn 0.1500 0.5201 0.8408
vn 0.3662 -0.2187 0.9044
vn 0.3302 -0.1822 0.9261
vn -0.1285 -0.4340 0.8917
vn -0.2414 -0.3618 0.9004
vn -0.2232 -0.3391 0.9138
vn -0.0807 -0.3299 0.9405
vn 0.4782 0.7252 0.4954
vn 0.2869 0.4309 0.8556
vn 0.3314 -0.2651 0.9054
vn 0.3191 -0.2506 0.9140
vn 0.2414 -0.3618 0.9004
vn 0.1285 -0.4340 0.8917
vn 0.0807 -0.3299 0.9405
vn 0.2232 -0.3391 0.9138
vn 0.3010 -0.3232 0.8972
vn -0.3662 -0.2187 0.9044
vn 0.2723 -0.2870 0.9184
vn -0.3742 -0.4212 0.8262
vn 0.3742 -0.4212 0.8262
vn 0.3657 -0.2426 0.8985
vn -0.3657 -0.2426 0.8985
vn -0.5962 0.6290 0.4989
vn -0.3579 0.3838 0.8512
vn 0.2799 0.2576 0.9248
vn -0.2799 0.2576 0.9248
vn -0.4643 0.1611 0.8708
vn -0.4733 0.0634 0.8786
vn 0.4733 0.0634 0.8786
vn 0.4643 0.1611 0.8708
vn -0.4398 0.2607 0.8594
vn 0.0953 0.0975 0.9906
vn -0.0953 0.0975 0.9906
vn -0.3302 -0.1822 0.9261
vn -0.3961 0.3163 0.8620
vn 0.7888 0.2500 0.5614
vn -0.6777 0.5331 0.5065
vn 0.7985 0.0776 0.5970
vn -0.7409 0.4113 0.5309
vn -0.7888 0.2500 0.5614
vn -0.7985 0.0776 0.5970
usemtl None
s 1
f 25/1/1 26/2/2 60/3/3 61/4/4
f 18/5/5 19/6/6 28/7/7 24/8/8
f 10/9/9 9/10/10 50/11/11 51/12/12
f 28/13/7 19/14/6 42/15/13 53/16/14
f 15/17/15 13/18/16 33/19/17 43/20/18
f 9/10/10 6/21/19 49/22/20 50/11/11
f 18/23/5 24/24/8 46/25/21 63/26/22
f 16/27/23 15/17/15 43/20/18 48/28/24
f 24/29/8 23/30/25 54/31/26 46/32/21
f 31/33/27 29/34/28 56/35/29 47/36/30
f 6/21/19 14/37/31 55/38/32 49/22/20
f 23/30/25 21/39/33 59/40/34 54/31/26
f 30/41/35 32/42/36 44/43/37 34/44/38
f 26/45/2 25/46/1 22/47/39 21/48/33
f 27/49/40 23/50/25 24/8/8 28/7/7
f 25/46/1 29/51/28 30/52/35 22/47/39
f 26/45/2 21/48/33 23/50/25 27/49/40
f 29/51/28 31/53/27 32/54/36 30/52/35
f 21/39/33 22/55/39 58/56/41 59/40/34
f 1/57/42 5/58/43 45/59/44 40/60/45
f 32/42/36 31/61/27 47/62/30 44/43/37
f 13/18/16 2/63/46 36/64/47 33/19/17
f 17/65/48 20/66/49 19/6/6 18/5/5
f 38/67/50 39/68/51 63/69/22 46/70/21
f 41/71/52 52/72/53 53/73/14 42/74/13
f 37/75/54 38/67/50 46/70/21 54/76/26
f 39/68/51 40/77/45 62/78/55 63/69/22
f 45/79/44 41/71/52 42/74/13 64/80/56
f 52/72/53 51/81/12 57/82/57 53/73/14
f 35/83/58 37/75/54 54/76/26 59/84/34
f 49/85/20 55/86/32 56/87/29 61/88/4
f 51/81/12 50/89/11 60/90/3 57/82/57
f 36/91/47 35/83/58 59/84/34 58/92/41
f 50/89/11 49/85/20 61/88/4 60/90/3
f 40/77/45 45/79/44 64/80/56 62/78/55
f 43/93/18 33/94/17 34/95/38 44/96/37
f 55/86/32 48/97/24 47/98/30 56/87/29
f 33/94/17 36/91/47 58/92/41 34/95/38
f 48/97/24 43/93/18 44/96/37 47/98/30
f 11/99/59 10/9/9 51/12/12 52/100/53
f 26/2/2 27/101/40 57/102/57 60/3/3
f 2/63/46 8/103/60 35/104/58 36/64/47
f 14/37/31 16/105/23 48/106/24 55/38/32
f 12/107/61 11/99/59 52/100/53 41/108/52
f 27/101/40 28/13/7 53/16/14 57/102/57
f 8/103/60 7/109/62 37/110/54 35/104/58
f 17/111/48 18/23/5 63/26/22 62/112/55
f 7/109/62 3/113/63 38/114/50 37/110/54
f 19/14/6 20/115/49 64/116/56 42/15/13
f 3/117/63 4/118/64 39/119/51 38/120/50
f 20/121/49 17/122/48 62/123/55 64/124/56
f 4/118/64 1/125/42 40/126/45 39/119/51
f 22/55/39 30/41/35 34/44/38 58/56/41
f 29/34/28 25/1/1 61/4/4 56/35/29
f 5/127/43 12/107/61 41/108/52 45/128/44
