# Blender v2.93.3 OBJ File: 'murales.blend'
# www.blender.org
mtllib muralserp_low.mtl
o Plane.004
v -6.763630 -8.304016 0.460084
v 6.588178 -8.304016 0.460084
v -6.763630 9.196201 0.460085
v 6.588178 9.196201 0.460085
v -6.119501 8.692392 0.460085
v -6.119501 -7.800206 0.460084
v 5.944048 -7.800206 0.460084
v 5.944048 8.692392 0.460085
v -6.313663 8.868292 0.710360
v -6.313663 -7.976105 0.710360
v 6.138210 -7.976105 0.710360
v 6.138210 8.868292 0.710360
v -6.586455 9.091061 0.710360
v -6.586455 -8.198874 0.710360
v 6.411001 -8.198874 0.710360
v 6.411001 9.091061 0.710360
v 0.034183 -7.800206 0.460084
v 0.034183 8.692392 0.460085
v 0.034183 -8.304016 0.460084
v 0.034183 9.196201 0.460085
v 0.034183 -7.976105 0.710360
v 0.034183 8.868292 0.710360
v 0.034183 -8.198874 0.710360
v 0.034183 9.091061 0.710360
v -6.119501 -0.651089 0.460085
v 5.944048 -0.651089 0.460085
v -6.763630 -0.651089 0.460085
v 6.588178 -0.651089 0.460085
v -6.313663 -0.651089 0.710360
v 6.138210 -0.651089 0.710360
v -6.586455 -0.651089 0.710360
v 6.411001 -0.651089 0.710360
v 0.034183 -0.651089 0.460085
vt 0.384994 0.557959
vt 0.050679 0.533092
vt 0.119203 0.048240
vt 0.425273 0.045215
vt 0.053638 0.904432
vt 0.037394 0.917618
vt 0.032567 0.531882
vt 0.783218 0.589159
vt 0.716108 0.996709
vt 0.701921 0.982617
vt 0.765006 0.587648
vt 0.000884 0.529794
vt 0.077624 0.007101
vt 0.092011 0.020992
vt 0.019110 0.530994
vt 0.354485 0.954625
vt 0.675120 0.954979
vt 0.689284 0.970783
vt 0.353059 0.972035
vt 0.751560 0.586533
vt 0.752881 0.086384
vt 0.767110 0.077009
vt 0.352150 0.983000
vt 0.023260 0.927141
vt 0.426652 0.027883
vt 0.104794 0.032645
vt 0.427533 0.016955
vt 0.733464 0.585023
vt 0.736452 0.099397
vt 0.428827 0.000884
vt 0.783218 0.065709
vt 0.350812 0.999116
vt 0.007302 0.938601
vn 0.0000 -0.0000 1.0000
vn -0.7901 -0.0000 0.6130
vn -0.8162 -0.0000 0.5778
vn 0.8162 -0.0000 0.5778
vn 0.0000 0.8181 0.5750
vn 0.7901 0.0000 0.6130
vn 0.0000 0.9219 0.3873
vn 0.0000 -0.9219 0.3873
vn 0.0000 -0.8181 0.5750
usemtl None
s off
f 33/1/1 26/2/1 8/3/1 18/4/1
f 26/2/2 7/5/2 11/6/2 30/7/2
f 27/8/3 1/9/3 14/10/3 31/11/3
f 28/12/4 4/13/4 16/14/4 32/15/4
f 17/16/5 6/17/5 10/18/5 21/19/5
f 29/20/1 9/21/1 13/22/1 31/11/1
f 21/19/1 10/18/1 14/10/1 23/23/1
f 30/7/1 11/6/1 15/24/1 32/15/1
f 22/25/1 12/26/1 16/14/1 24/27/1
f 25/28/6 5/29/6 9/21/6 29/20/6
f 20/30/7 3/31/7 13/22/7 24/27/7
f 19/32/8 2/33/8 15/24/8 23/23/8
f 18/4/9 8/3/9 12/26/9 22/25/9
f 5/29/9 18/4/9 22/25/9 9/21/9
f 1/9/8 19/32/8 23/23/8 14/10/8
f 4/13/7 20/30/7 24/27/7 16/14/7
f 9/21/1 22/25/1 24/27/1 13/22/1
f 11/6/1 21/19/1 23/23/1 15/24/1
f 7/5/5 17/16/5 21/19/5 11/6/5
f 25/28/1 33/1/1 18/4/1 5/29/1
f 6/17/1 17/16/1 33/1/1 25/28/1
f 6/17/6 25/28/6 29/20/6 10/18/6
f 12/26/1 30/7/1 32/15/1 16/14/1
f 10/18/1 29/20/1 31/11/1 14/10/1
f 2/33/4 28/12/4 32/15/4 15/24/4
f 3/31/3 27/8/3 31/11/3 13/22/3
f 8/3/2 26/2/2 30/7/2 12/26/2
f 17/16/1 7/5/1 26/2/1 33/1/1
