# Blender v2.93.3 OBJ File: 'murales.blend'
# www.blender.org
mtllib muralave_low.mtl
o Cube.001_Cube.002
v -3.764328 -8.152400 1.000000
v -1.787173 9.863752 1.000000
v -3.315533 7.766904 1.000000
v -3.764328 6.914534 1.000000
v 3.787954 -8.152400 1.000000
v 1.810799 9.863752 1.000000
v -2.801361 8.524669 1.000000
v -2.299494 9.208475 1.000000
v 2.323121 9.208475 1.000000
v 2.824987 8.524669 1.000000
v 3.339159 7.766904 1.000000
v 3.787954 6.914534 1.000000
v -1.152435 10.544915 1.000000
v 1.176061 10.544915 1.000000
v -0.111803 11.497030 1.000000
v 0.135430 11.497030 1.000000
v -3.298573 -7.671505 1.000000
v -3.298573 6.923152 1.000000
v 3.322199 6.923152 1.000000
v 3.322199 -7.671505 1.000000
v -2.017012 8.953561 1.000000
v -1.567305 9.528752 1.000000
v -2.457542 8.353329 1.000000
v -2.908874 7.688176 1.000000
v 1.590932 9.528752 1.000000
v 2.040639 8.953561 1.000000
v 2.481169 8.353329 1.000000
v 2.932500 7.688176 1.000000
v 1.033770 10.126666 1.000000
v -1.010144 10.126666 1.000000
v 0.120322 11.000156 1.000000
v -0.096695 11.000156 1.000000
v -1.122172 10.479955 1.127463
v -1.054380 10.223586 1.127463
v -2.239415 9.178253 1.127463
v -1.740410 9.816497 1.127463
v -2.728237 8.512223 1.127463
v -3.229044 7.774154 1.127463
v -3.666173 6.943939 1.127463
v -3.666173 -7.989573 1.127463
v 3.689799 6.943939 1.127463
v 3.465493 6.881405 1.127463
v -0.108590 11.415347 1.127463
v -0.101392 11.121520 1.127463
v 3.689799 -7.989573 1.127463
v -3.035299 7.679544 1.127463
v 0.125018 11.121520 1.127463
v 0.132216 11.415347 1.127463
v 1.764037 9.816497 1.127463
v 2.263041 9.178253 1.127463
v 2.751863 8.512223 1.127463
v 3.252670 7.774154 1.127463
v 3.058926 7.679544 1.127463
v -2.564431 8.373488 1.127463
v 1.145799 10.479955 1.127463
v 1.078007 10.223586 1.127463
v 2.588058 8.373488 1.127463
v -1.635659 9.599792 1.127463
v -2.104832 8.999703 1.127463
v 2.128458 8.999703 1.127463
v 1.659286 9.599792 1.127463
v -3.441867 -7.828312 1.127463
v -3.441867 6.881405 1.127463
v 3.465493 -7.828312 1.127463
vt 0.599082 0.899452
vt 0.621984 0.870250
vt 0.626444 0.872601
vt 0.602552 0.903068
vt 0.350748 0.766649
vt 0.687275 0.767141
vt 0.667410 0.805997
vt 0.370499 0.805563
vt 0.661883 0.848507
vt 0.636323 0.883227
vt 0.633271 0.881686
vt 0.658167 0.847869
vt 0.694562 0.765030
vt 0.673837 0.805568
vt 0.512388 0.999371
vt 0.459564 0.950899
vt 0.461107 0.947599
vt 0.512557 0.995219
vt 0.610233 0.916496
vt 0.607860 0.914090
vt 0.364073 0.805115
vt 0.343467 0.764516
vt 0.524954 0.999390
vt 0.524797 0.995237
vt 0.393390 0.839405
vt 0.387956 0.840422
vt 0.524223 0.974132
vt 0.570718 0.929802
vt 0.572959 0.934732
vt 0.524453 0.980302
vt 0.577919 0.951072
vt 0.576386 0.947768
vt 0.415737 0.869948
vt 0.411270 0.872286
vt 0.466828 0.929650
vt 0.513193 0.974116
vt 0.512945 0.980285
vt 0.464572 0.934573
vt 0.438552 0.899217
vt 0.644420 0.839772
vt 0.435073 0.902822
vt 0.328196 0.000339
vt 0.712070 0.000900
vt 0.707069 0.009170
vt 0.333173 0.008623
vt 0.427352 0.916228
vt 0.429732 0.913830
vt 0.351834 0.024817
vt 0.688361 0.025309
vt 0.354219 0.809909
vt 0.332062 0.767678
vt 0.705958 0.768225
vt 0.683678 0.810391
vt 0.379619 0.847462
vt 0.344562 0.016835
vt 0.695656 0.017349
vt 0.649851 0.840806
vt 0.404416 0.881351
vt 0.688074 0.810029
vt 0.401360 0.882883
vt 0.710949 0.766737
vt 0.375901 0.848088
vt 0.349823 0.809534
vt 0.327075 0.766175
vn -0.3437 -0.2925 0.8923
vn -0.3549 -0.2694 0.8952
vn -0.3499 -0.2645 0.8986
vn -0.3278 -0.2809 0.9020
vn 0.4159 -0.1302 0.9000
vn -0.4159 -0.1302 0.9000
vn -0.3786 -0.2324 0.8959
vn 0.3786 -0.2324 0.8959
vn 0.7244 0.5086 0.4653
vn 0.7079 0.5354 0.4606
vn 0.4166 0.3162 0.8523
vn 0.4256 0.3021 0.8530
vn -0.3171 -0.0596 0.9465
vn -0.3575 -0.2037 0.9114
vn -0.2788 0.8009 0.5299
vn -0.6233 0.6330 0.4590
vn -0.3741 0.3737 0.8488
vn -0.2312 0.5185 0.8232
vn 0.6741 0.5769 0.4612
vn 0.4029 0.3433 0.8484
vn 0.3575 -0.2037 0.9114
vn 0.3171 -0.0596 0.9465
vn 0.2788 0.8009 0.5299
vn 0.2312 0.5185 0.8232
vn 0.3621 -0.2573 0.8959
vn 0.3564 -0.2499 0.9003
vn -0.2091 -0.4353 0.8756
vn -0.3207 -0.3151 0.8932
vn -0.3086 -0.3086 0.8997
vn -0.1021 -0.2964 0.9496
vn 0.6233 0.6330 0.4590
vn 0.3741 0.3737 0.8488
vn 0.3549 -0.2694 0.8952
vn 0.3499 -0.2645 0.8986
vn 0.3207 -0.3151 0.8932
vn 0.2091 -0.4353 0.8756
vn 0.1021 -0.2964 0.9496
vn 0.3085 -0.3086 0.8997
vn 0.3437 -0.2925 0.8923
vn -0.3621 -0.2573 0.8959
vn 0.3278 -0.2809 0.9020
vn -0.3742 -0.4212 0.8262
vn 0.3742 -0.4212 0.8262
vn 0.3657 -0.2426 0.8985
vn -0.3657 -0.2426 0.8985
vn -0.6741 0.5770 0.4612
vn -0.4029 0.3433 0.8484
vn 0.2799 0.2576 0.9248
vn -0.2799 0.2576 0.9248
vn -0.4451 0.2745 0.8524
vn -0.5010 0.1544 0.8515
vn 0.5010 0.1544 0.8515
vn 0.4451 0.2745 0.8524
vn -0.4256 0.3021 0.8530
vn 0.0953 0.0975 0.9906
vn -0.0953 0.0975 0.9906
vn -0.3564 -0.2499 0.9003
vn -0.4166 0.3162 0.8523
vn 0.7542 0.4407 0.4867
vn -0.7079 0.5354 0.4606
vn 0.7996 0.1607 0.5786
vn -0.7244 0.5086 0.4653
vn -0.7542 0.4407 0.4867
vn -0.7996 0.1607 0.5786
usemtl None
s 1
f 25/1/1 26/2/2 60/3/3 61/4/4
f 18/5/5 19/6/6 28/7/7 24/8/8
f 10/9/9 9/10/10 50/11/11 51/12/12
f 28/7/7 19/6/6 42/13/13 53/14/14
f 15/15/15 13/16/16 33/17/17 43/18/18
f 9/10/10 6/19/19 49/20/20 50/11/11
f 18/5/5 24/8/8 46/21/21 63/22/22
f 16/23/23 15/15/15 43/18/18 48/24/24
f 24/8/8 23/25/25 54/26/26 46/21/21
f 31/27/27 29/28/28 56/29/29 47/30/30
f 6/19/19 14/31/31 55/32/32 49/20/20
f 23/25/25 21/33/33 59/34/34 54/26/26
f 30/35/35 32/36/36 44/37/37 34/38/38
f 26/2/2 25/1/1 22/39/39 21/33/33
f 27/40/40 23/25/25 24/8/8 28/7/7
f 25/1/1 29/28/28 30/35/35 22/39/39
f 26/2/2 21/33/33 23/25/25 27/40/40
f 29/28/28 31/27/27 32/36/36 30/35/35
f 21/33/33 22/39/39 58/41/41 59/34/34
f 1/42/42 5/43/43 45/44/44 40/45/45
f 32/36/36 31/27/27 47/30/30 44/37/37
f 13/16/16 2/46/46 36/47/47 33/17/17
f 17/48/48 20/49/49 19/6/6 18/5/5
f 38/50/50 39/51/51 63/22/22 46/21/21
f 41/52/52 52/53/53 53/14/14 42/13/13
f 37/54/54 38/50/50 46/21/21 54/26/26
f 39/51/51 40/45/45 62/55/55 63/22/22
f 45/44/44 41/52/52 42/13/13 64/56/56
f 52/53/53 51/12/12 57/57/57 53/14/14
f 35/58/58 37/54/54 54/26/26 59/34/34
f 49/20/20 55/32/32 56/29/29 61/4/4
f 51/12/12 50/11/11 60/3/3 57/57/57
f 36/47/47 35/58/58 59/34/34 58/41/41
f 50/11/11 49/20/20 61/4/4 60/3/3
f 40/45/45 45/44/44 64/56/56 62/55/55
f 43/18/18 33/17/17 34/38/38 44/37/37
f 55/32/32 48/24/24 47/30/30 56/29/29
f 33/17/17 36/47/47 58/41/41 34/38/38
f 48/24/24 43/18/18 44/37/37 47/30/30
f 11/59/59 10/9/9 51/12/12 52/53/53
f 26/2/2 27/40/40 57/57/57 60/3/3
f 2/46/46 8/60/60 35/58/58 36/47/47
f 14/31/31 16/23/23 48/24/24 55/32/32
f 12/61/61 11/59/59 52/53/53 41/52/52
f 27/40/40 28/7/7 53/14/14 57/57/57
f 8/60/60 7/62/62 37/54/54 35/58/58
f 17/48/48 18/5/5 63/22/22 62/55/55
f 7/62/62 3/63/63 38/50/50 37/54/54
f 19/6/6 20/49/49 64/56/56 42/13/13
f 3/63/63 4/64/64 39/51/51 38/50/50
f 20/49/49 17/48/48 62/55/55 64/56/56
f 4/64/64 1/42/42 40/45/45 39/51/51
f 22/39/39 30/35/35 34/38/38 58/41/41
f 29/28/28 25/1/1 61/4/4 56/29/29
f 5/43/43 12/61/61 41/52/52 45/44/44
