# Blender v2.93.3 OBJ File: 'murales.blend'
# www.blender.org
mtllib muraltortugrande_low.mtl
o Plane
v -9.226323 -4.898088 0.460084
v 9.245673 -4.898088 0.460084
v -9.226323 5.125035 0.460084
v 9.245673 5.125035 0.460084
v -8.582192 4.621225 0.460084
v -8.582192 -4.394278 0.460084
v 8.601542 -4.394278 0.460084
v 8.601542 4.621225 0.460084
v -8.776355 4.797125 0.710360
v -8.776355 -4.570177 0.710359
v 8.795705 -4.570177 0.710359
v 8.795705 4.797125 0.710360
v -9.049147 5.019894 0.710360
v -9.049147 -4.792946 0.710359
v 9.068497 -4.792946 0.710359
v 9.068497 5.019894 0.710360
vt 0.573933 0.057710
vt 0.572599 0.938344
vt 0.049841 0.942290
vt 0.051175 0.061655
vt 0.589633 0.955483
vt 0.034068 0.961239
vt 0.000789 0.007419
vt 0.622986 0.000788
vt 0.605881 0.021590
vt 0.019014 0.026570
vt 0.622986 0.992581
vt 0.000788 0.999212
vt 0.017893 0.978410
vt 0.604761 0.973430
vt 0.589706 0.038761
vt 0.034141 0.044516
vn 0.3473 0.3698 0.8617
vn -0.3473 0.3698 0.8617
vn -0.3473 -0.3698 0.8617
vn 0.3473 -0.3698 0.8617
vn -0.1387 0.1357 0.9810
vn -0.1387 -0.1357 0.9810
vn -0.5773 0.5218 0.6279
vn -0.5773 -0.5218 0.6279
vn -0.3598 -0.4595 0.8120
vn -0.3598 0.4595 0.8120
vn 0.5773 -0.5218 0.6279
vn 0.5773 0.5218 0.6279
vn 0.3598 0.4595 0.8120
vn 0.3598 -0.4595 0.8120
vn 0.1387 0.1357 0.9810
vn 0.1387 -0.1357 0.9810
usemtl None
s 1
f 6/1/1 7/2/2 8/3/3 5/4/4
f 8/3/3 7/2/2 11/5/5 12/6/6
f 3/7/7 1/8/8 14/9/9 13/10/10
f 2/11/11 4/12/12 16/13/13 15/14/14
f 7/2/2 6/1/1 10/15/15 11/5/5
f 10/15/15 9/16/16 13/10/10 14/9/9
f 11/5/5 10/15/15 14/9/9 15/14/14
f 12/6/6 11/5/5 15/14/14 16/13/13
f 9/16/16 12/6/6 16/13/13 13/10/10
f 6/1/1 5/4/4 9/16/16 10/15/15
f 4/12/12 3/7/7 13/10/10 16/13/13
f 1/8/8 2/11/11 15/14/14 14/9/9
f 5/4/4 8/3/3 12/6/6 9/16/16
