# Blender v2.93.3 OBJ File: 'murales.blend'
# www.blender.org
mtllib muralserp_low.mtl
o Plane.004
v -6.763630 -8.304016 0.460084
v 6.588178 -8.304016 0.460084
v -6.763630 9.196201 0.460085
v 6.588178 9.196201 0.460085
v -6.119501 8.692392 0.460085
v -6.119501 -7.800206 0.460084
v 5.944048 -7.800206 0.460084
v 5.944048 8.692392 0.460085
v -6.313663 8.868292 0.710360
v -6.313663 -7.976105 0.710360
v 6.138210 -7.976105 0.710360
v 6.138210 8.868292 0.710360
v -6.586455 9.091061 0.710360
v -6.586455 -8.198874 0.710360
v 6.411001 -8.198874 0.710360
v 6.411001 9.091061 0.710360
v 0.034183 -7.800206 0.460084
v 0.034183 8.692392 0.460085
v 0.034183 -8.304016 0.460084
v 0.034183 9.196201 0.460085
v 0.034183 -7.976105 0.710360
v 0.034183 8.868292 0.710360
v 0.034183 -8.198874 0.710360
v 0.034183 9.091061 0.710360
v -6.119501 -0.651089 0.460085
v 5.944048 -0.651089 0.460085
v -6.763630 -0.651089 0.460085
v 6.588178 -0.651089 0.460085
v -6.313663 -0.651089 0.710360
v 6.138210 -0.651089 0.710360
v -6.586455 -0.651089 0.710360
v 6.411001 -0.651089 0.710360
v 0.034183 -0.651089 0.460085
vt 0.388734 0.437469
vt 0.725552 0.437469
vt 0.725552 0.969977
vt 0.388734 0.969977
vt 0.725552 0.030023
vt 0.736618 0.019998
vt 0.736618 0.437469
vt 0.001309 0.437469
vt 0.001309 0.001309
vt 0.011407 0.007301
vt 0.011407 0.437469
vt 0.762262 0.437469
vt 0.762262 0.998691
vt 0.752164 0.992698
vt 0.752165 0.437469
vt 0.782215 0.349193
vt 0.782215 0.699907
vt 0.764881 0.710973
vt 0.764881 0.349193
vt 0.026954 0.437469
vt 0.026954 0.980002
vt 0.011407 0.992698
vt 0.388734 0.019998
vt 0.026954 0.019998
vt 0.388734 0.007301
vt 0.752165 0.007302
vt 0.388734 0.980002
vt 0.736618 0.980002
vt 0.388734 0.992698
vt 0.038020 0.437469
vt 0.038020 0.969977
vt 0.838170 0.374838
vt 0.838170 0.762262
vt 0.822788 0.752165
vt 0.822788 0.374838
vt 0.804786 0.374838
vt 0.804786 0.001309
vt 0.820168 0.011407
vt 0.820168 0.374838
vt 0.802168 0.363089
vt 0.802168 0.699907
vt 0.784834 0.710973
vt 0.784834 0.363089
vt 0.802168 0.012375
vt 0.784834 0.001309
vt 0.804786 0.762262
vt 0.820168 0.752164
vt 0.838170 0.001309
vt 0.822788 0.011407
vt 0.782215 0.012375
vt 0.764881 0.001309
vt 0.038020 0.030023
vt 0.388734 0.030023
vt 0.762262 0.001309
vt 0.001309 0.998691
vn 0.0000 0.0000 1.0000
vn -0.4399 0.0000 0.8980
vn -0.3473 -0.3698 0.8617
vn 0.0000 -0.4610 0.8874
vn -0.3473 0.3698 0.8617
vn -0.1387 0.1357 0.9810
vn -0.8162 0.0000 0.5778
vn -0.5773 -0.5218 0.6279
vn -0.3598 -0.4595 0.8120
vn -0.4595 0.0000 0.8882
vn 0.8162 0.0000 0.5778
vn 0.5773 0.5218 0.6279
vn 0.3598 0.4595 0.8120
vn 0.4595 0.0000 0.8882
vn 0.0000 0.4610 0.8874
vn 0.3473 0.3698 0.8617
vn 0.1387 0.1357 0.9810
vn 0.4399 0.0000 0.8980
vn 0.1387 -0.1357 0.9810
vn -0.3598 0.4595 0.8120
vn 0.0000 -0.5535 0.8329
vn 0.3598 -0.4595 0.8120
vn -0.1387 -0.1357 0.9810
vn 0.0000 0.5535 0.8329
vn 0.3473 -0.3698 0.8617
vn 0.0000 0.9219 0.3873
vn -0.5773 0.5218 0.6279
vn 0.0000 -0.9219 0.3873
vn 0.5773 -0.5218 0.6279
usemtl None
s 1
f 33/1/1 26/2/2 8/3/3 18/4/4
f 26/2/2 7/5/5 11/6/6 30/7/2
f 27/8/7 1/9/8 14/10/9 31/11/10
f 28/12/11 4/13/12 16/14/13 32/15/14
f 17/16/15 6/17/16 10/18/17 21/19/15
f 29/20/18 9/21/19 13/22/20 31/11/10
f 21/23/15 10/24/17 14/10/9 23/25/21
f 30/7/2 11/6/6 15/26/22 32/15/14
f 22/27/4 12/28/23 16/14/13 24/29/24
f 25/30/18 5/31/25 9/21/19 29/20/18
f 20/32/26 3/33/27 13/34/20 24/35/24
f 19/36/28 2/37/29 15/38/22 23/39/21
f 18/40/4 8/41/3 12/42/23 22/43/4
f 5/44/25 18/40/4 22/43/4 9/45/19
f 1/46/8 19/36/28 23/39/21 14/47/9
f 4/48/12 20/32/26 24/35/24 16/49/13
f 9/21/19 22/27/4 24/29/24 13/22/20
f 11/6/6 21/23/15 23/25/21 15/26/22
f 7/50/5 17/16/15 21/19/15 11/51/6
f 25/30/18 33/1/1 18/4/4 5/31/25
f 6/52/16 17/53/15 33/1/1 25/30/18
f 6/52/16 25/30/18 29/20/18 10/24/17
f 12/28/23 30/7/2 32/15/14 16/14/13
f 10/24/17 29/20/18 31/11/10 14/10/9
f 2/54/29 28/12/11 32/15/14 15/26/22
f 3/55/27 27/8/7 31/11/10 13/22/20
f 8/3/3 26/2/2 30/7/2 12/28/23
f 17/53/15 7/5/5 26/2/2 33/1/1
