# Blender v2.93.3 OBJ File: 'murales.blend'
# www.blender.org
mtllib serpientegrande_low.mtl
o Plane.003
v -20.996027 -5.961080 0.460084
v 22.232597 -5.961080 0.460084
v -20.996027 10.038923 0.460085
v 22.232597 10.038923 0.460085
v -20.351896 9.535113 0.460085
v -20.351896 -5.457270 0.460084
v 21.588469 -5.457270 0.460084
v 21.588469 9.535113 0.460085
v -20.546059 9.711013 0.710360
v -20.546059 -5.633169 0.710360
v 21.782631 -5.633169 0.710360
v 21.782631 9.711013 0.710360
v -20.818850 9.933782 0.710360
v -20.818850 -5.855937 0.710360
v 22.055422 -5.855937 0.710360
v 22.055422 9.933782 0.710360
v -12.902976 1.258620 0.710360
v -13.391992 -5.855936 0.710360
v -11.653882 9.933783 0.710360
v -13.156068 9.711011 0.710360
v -11.237406 -5.633168 0.710360
v -13.370914 -5.633168 0.710360
v -12.783521 10.038923 0.460085
v -11.763898 10.038923 0.460085
v -4.754676 9.933779 0.710360
v -2.723583 9.535111 0.460085
v -4.769691 9.535111 0.460085
v -2.714880 9.711010 0.710360
v 6.343805 -5.457269 0.460084
v 6.360398 -5.633169 0.710360
v 4.070948 -5.855936 0.710360
v 4.732598 10.053254 0.460085
v 14.750613 10.038922 0.460085
v 14.714367 9.933781 0.710360
v 12.311664 9.535112 0.460085
v 21.588469 1.949669 0.460085
v -20.996027 0.908365 0.460085
v 22.232597 1.985916 0.460085
v -20.546059 0.914891 0.710360
v -20.818850 0.914891 0.710360
v 22.055422 1.978352 0.710360
v -12.782470 1.361651 0.460085
v -11.763898 1.361651 0.460085
v -4.769690 -5.457268 0.460084
v 5.723948 1.361651 0.460085
v 4.693475 1.361651 0.460085
v 14.026280 1.666423 0.460085
v -13.405681 -5.961078 0.460084
v -13.355911 -5.457269 0.460084
v -13.355911 9.535112 0.460085
v -11.425606 9.711012 0.710360
v -13.355911 0.914891 0.460085
v -11.246892 10.038922 0.460085
v -11.246746 9.933781 0.710360
v -11.246359 9.535112 0.460085
v -11.246359 -5.457269 0.460084
v -11.216659 -5.961078 0.460084
v -11.224828 -5.855936 0.710360
v -11.246359 0.913590 0.460085
v -20.351896 0.914891 0.460085
v -4.236043 1.666424 0.460085
v -12.902976 9.933783 0.710360
v -11.653882 1.258620 0.710360
v -13.156068 1.075507 0.710360
v -4.236042 -5.961078 0.460084
v -4.415353 -5.855936 0.710360
v -4.748979 10.038921 0.460085
v -4.777080 9.711010 0.710360
v -4.769690 2.144166 0.460085
v -2.694713 10.038921 0.460085
v -2.702654 9.933779 0.710360
v -2.723583 -5.457268 0.460084
v -3.185301 -5.961078 0.460084
v 4.048235 -5.457268 0.460084
v 4.079568 -5.961078 0.460084
v 4.057679 -5.633168 0.710360
v 4.505344 9.933780 0.710360
v 4.048235 9.535111 0.460085
v 4.236365 9.711011 0.710360
v 4.048235 0.849885 0.460085
v 5.723949 10.038922 0.460085
v 5.912077 9.933781 0.710360
v 6.343807 9.535112 0.460085
v 6.398847 -5.961078 0.460084
v 6.383707 -5.855936 0.710360
v 12.311663 -5.457269 0.460084
v 12.936864 -5.961078 0.460084
v 12.361756 10.038921 0.460085
v 12.347978 9.933780 0.710360
v 12.326763 9.711011 0.710360
v 14.618840 -5.457269 0.460084
v 14.026278 -5.961078 0.460084
v 14.618840 9.535112 0.460085
v 14.658562 9.711012 0.710360
v 14.618840 2.232516 0.460085
v -11.425605 1.074206 0.710360
v -3.185301 1.666423 0.460085
v 6.343805 0.850151 0.460085
v 12.936866 1.666423 0.460085
v -2.723583 2.144164 0.460085
v 12.311663 2.232516 0.460085
v 21.782631 1.962324 0.710360
v -4.605526 -5.633167 0.710360
v -3.022664 -5.855936 0.710360
v -4.415353 1.789282 0.710360
v -3.022664 1.789282 0.710360
v -2.864892 2.026031 0.710360
v -4.605527 2.026032 0.710360
v -2.851897 -5.633168 0.710360
v 6.179192 9.711012 0.710360
v 12.499795 -5.633168 0.710360
v 12.748734 -5.855936 0.710360
v 14.214410 1.843340 0.710360
v 14.227818 -5.855936 0.710360
v 12.748734 1.843340 0.710360
v 5.912077 1.197036 0.710360
v 4.505343 1.197036 0.710360
v 14.454225 2.082817 0.710360
v 6.179192 1.013459 0.710360
v 4.236366 1.013194 0.710360
v 12.499795 2.082817 0.710360
v 14.454225 -5.633169 0.710360
v -2.863945 2.026031 0.577541
vt 0.035866 0.432346
vt 0.040373 0.602155
vt 0.031722 0.602193
vt 0.027254 0.425928
vt 0.728394 0.152180
vt 0.538246 0.154580
vt 0.532023 0.146999
vt 0.729068 0.143281
vt 0.203051 0.892633
vt 0.031106 0.859768
vt 0.037598 0.853104
vt 0.204401 0.884046
vt 0.206422 0.869102
vt 0.420036 0.888143
vt 0.426067 0.896498
vt 0.205264 0.877677
vt 0.730250 0.127757
vt 0.939832 0.147989
vt 0.933809 0.155403
vt 0.729699 0.136687
vt 0.042378 0.660382
vt 0.050466 0.840411
vt 0.043049 0.847111
vt 0.033862 0.661117
vt 0.430574 0.903825
vt 0.028150 0.661913
vt 0.526800 0.140005
vt 0.953603 0.347977
vt 0.928788 0.162015
vt 0.959212 0.345867
vt 0.472527 0.720507
vt 0.435532 0.911828
vt 0.464484 0.725013
vt 0.500036 0.334360
vt 0.520334 0.132087
vt 0.507438 0.327769
vt 0.025918 0.602055
vt 0.021417 0.422625
vt 0.240309 0.655728
vt 0.450519 0.734454
vt 0.490626 0.531076
vt 0.488686 0.545512
vt 0.482807 0.540116
vt 0.483038 0.530692
vt 0.020473 0.662660
vt 0.018123 0.602025
vt 0.489494 0.355299
vt 0.482026 0.355541
vt 0.261913 0.638426
vt 0.254370 0.643939
vt 0.236544 0.369931
vt 0.467143 0.356164
vt 0.468726 0.528953
vt 0.241665 0.592311
vt 0.477183 0.535716
vt 0.945167 0.350018
vt 0.921836 0.169552
vt 0.466198 0.298604
vt 0.474862 0.298324
vt 0.475907 0.356246
vt 0.214183 0.352785
vt 0.213789 0.324362
vt 0.222147 0.317197
vt 0.221604 0.359701
vt 0.488813 0.297713
vt 0.481156 0.297957
vt 0.532462 0.665782
vt 0.538070 0.732533
vt 0.529126 0.732956
vt 0.523492 0.666019
vt 0.522607 0.733083
vt 0.517420 0.665830
vt 0.006930 0.265350
vt 0.014093 0.258864
vt 0.458771 0.728812
vt 0.514687 0.733464
vt 0.509322 0.665947
vt 0.721143 0.370203
vt 0.951112 0.413668
vt 0.723879 0.438739
vt 0.966844 0.343916
vt 0.973383 0.410655
vt 0.965569 0.411585
vt 0.248655 0.649216
vt 0.959769 0.412589
vt 0.981687 0.589120
vt 0.751580 0.663610
vt 0.742269 0.656573
vt 0.974158 0.582564
vt 0.250761 0.599501
vt 0.229103 0.363213
vt 0.255391 0.604411
vt 0.263442 0.610753
vt 0.014139 0.416223
vt 0.027219 0.070780
vt 0.028094 0.250169
vt 0.019796 0.255900
vt 0.018189 0.070565
vt 0.012721 0.070285
vt 0.490626 0.087289
vt 0.482719 0.093666
vt 0.219005 0.090652
vt 0.467645 0.106494
vt 0.236023 0.309135
vt 0.699040 0.420127
vt 0.697681 0.389211
vt 0.706533 0.382058
vt 0.708014 0.426869
vt 0.476350 0.101236
vt 0.004567 0.070102
vt 0.959207 0.570927
vt 0.727435 0.644094
vt 0.512389 0.498662
vt 0.506112 0.493885
vt 0.521368 0.505286
vt 0.967971 0.577249
vt 0.498425 0.487434
vt 0.521992 0.317404
vt 0.513073 0.323702
vt 0.228646 0.313026
vt 0.730067 0.713638
vt 0.971286 0.785341
vt 0.738082 0.706801
vt 0.979415 0.777415
vt 0.715517 0.431868
vt 0.712506 0.377177
vt 0.228533 0.315872
vt 0.737170 0.650734
vt 0.743809 0.700002
vt 0.987178 0.772198
vt 0.751971 0.693164
vt 0.993268 0.763802
vn -0.0000 0.8181 0.5750
vn -0.7901 -0.0000 0.6130
vn -0.8162 -0.0000 0.5778
vn 0.7901 -0.0000 0.6130
vn 0.8162 0.0000 0.5778
vn 0.0000 -0.0000 1.0000
vn -0.0000 0.9219 0.3873
vn -0.0000 -0.9219 0.3873
vn 0.0000 0.9220 0.3873
vn 0.9017 0.0001 0.4323
vn 0.0000 -0.8181 0.5750
vn -0.0000 -0.8977 0.4407
vn -0.8385 0.0000 0.5449
vn -0.7814 0.0000 0.6240
vn -0.7994 0.0000 0.6009
vn 0.8130 0.0000 0.5823
vn -0.8362 -0.0000 0.5485
vn 0.0000 0.9247 0.3807
vn -0.0006 -0.8416 0.5401
vn -0.0009 0.9125 0.4091
vn -0.0000 -0.8166 0.5772
vn -0.9155 -0.0000 0.4024
vn 0.8052 0.0058 0.5929
vn -0.7993 -0.0000 0.6009
vn -0.0000 0.8582 0.5133
vn 0.8129 -0.0000 0.5824
vn 0.6462 -0.7632 0.0046
vn 0.0000 0.9043 0.4269
vn 0.0000 0.8355 0.5495
vn 0.8355 -0.0000 0.5495
vn -0.7889 -0.0007 0.6145
vn 0.7993 -0.0000 0.6009
vn 0.7700 -0.0017 0.6380
vn 0.0001 -0.8375 0.5465
vn 0.3638 0.0084 0.9314
vn 0.8321 -0.5545 0.0059
usemtl None
s off
f 44/1/1 56/2/1 21/3/1 103/4/1
f 36/5/2 7/6/2 11/7/2 102/8/2
f 37/9/3 1/10/3 14/11/3 40/12/3
f 60/13/4 5/14/4 9/15/4 39/16/4
f 38/17/5 4/18/5 16/19/5 41/20/5
f 49/21/1 6/22/1 10/23/1 22/24/1
f 39/16/6 9/15/6 13/25/6 40/12/6
f 22/24/6 10/23/6 14/11/6 18/26/6
f 102/8/6 11/7/6 15/27/6 41/20/6
f 94/28/6 12/29/6 16/19/6 34/30/6
f 23/31/7 3/32/7 13/25/7 62/33/7
f 92/34/8 2/35/8 15/27/8 114/36/8
f 56/2/1 49/21/1 22/24/1 21/3/1
f 21/3/6 22/24/6 18/26/6 58/37/6
f 103/4/6 21/3/6 58/37/6 66/38/6
f 52/39/6 50/40/6 5/14/6 60/13/6
f 53/41/7 24/42/7 19/43/7 54/44/7
f 48/45/8 57/46/8 58/37/8 18/26/8
f 67/47/9 53/41/9 54/44/9 25/48/9
f 42/49/10 23/31/10 62/33/10 17/50/10
f 69/51/6 27/52/6 55/53/6 59/54/6
f 19/43/6 51/55/6 54/44/6
f 93/56/11 8/57/11 12/29/11 94/28/11
f 27/52/11 26/58/11 28/59/11 68/60/11
f 61/61/12 97/62/12 106/63/12 105/64/12
f 70/65/7 67/47/7 25/48/7 71/66/7
f 68/60/6 28/59/6 71/66/6 25/48/6
f 29/67/1 74/68/1 76/69/1 30/70/1
f 30/70/6 76/69/6 31/71/6 85/72/6
f 97/62/13 73/73/13 104/74/13 106/63/13
f 5/14/11 50/40/11 20/75/11 9/15/11
f 75/76/8 84/77/8 85/72/8 31/71/8
f 95/78/6 93/56/6 35/79/6 101/80/6
f 33/81/9 88/82/9 89/83/9 34/30/9
f 50/40/14 52/39/14 64/84/14 20/75/14
f 35/79/11 93/56/11 94/28/11 90/85/11
f 1/10/8 48/45/8 18/26/8 14/11/8
f 90/85/6 94/28/6 34/30/6 89/83/6
f 9/15/6 20/75/6 62/33/6 13/25/6
f 81/86/15 45/87/15 116/88/15 82/89/15
f 59/54/16 55/53/16 51/55/16 96/90/16
f 69/51/17 44/1/17 103/4/17 108/91/17
f 2/35/5 38/17/5 41/20/5 15/27/5
f 3/32/3 37/9/3 40/12/3 13/25/3
f 6/22/4 60/13/4 39/16/4 10/23/4
f 10/23/6 39/16/6 40/12/6 14/11/6
f 49/21/6 52/39/6 60/13/6 6/22/6
f 56/2/6 59/54/6 52/39/6 49/21/6
f 44/1/6 69/51/6 59/54/6 56/2/6
f 96/90/6 51/55/6 19/43/6 63/92/6
f 96/90/6 63/92/6 17/50/6 64/84/6
f 17/50/6 62/33/6 20/75/6 64/84/6
f 43/93/18 42/49/18 17/50/18 63/92/18
f 52/39/19 59/54/19 96/90/19 64/84/19
f 51/55/6 68/60/6 25/48/6 54/44/6
f 57/46/8 65/94/8 66/38/8 58/37/8
f 55/53/11 27/52/11 68/60/11 51/55/11
f 74/95/1 72/96/1 109/97/1 76/98/1
f 76/98/6 109/97/6 104/74/6 31/99/6
f 32/100/20 70/65/20 71/66/20 77/101/20
f 80/102/6 78/103/6 26/58/6 100/104/6
f 99/105/21 47/106/21 113/107/21 115/108/21
f 28/59/6 79/109/6 77/101/6 71/66/6
f 73/73/8 75/110/8 31/99/8 104/74/8
f 26/58/11 78/103/11 79/109/11 28/59/11
f 101/80/6 35/79/6 83/111/6 98/112/6
f 88/82/7 81/86/7 82/89/7 89/83/7
f 111/113/6 30/70/6 85/72/6 112/114/6
f 86/115/1 29/67/1 30/70/1 111/113/1
f 110/116/6 90/85/6 89/83/6 82/89/6
f 84/77/8 87/117/8 112/114/8 85/72/8
f 83/111/11 35/79/11 90/85/11 110/116/11
f 7/6/6 36/5/6 95/78/6 91/118/6
f 7/6/1 91/118/1 122/119/1 11/7/1
f 11/7/6 122/119/6 114/36/6 15/27/6
f 4/18/7 33/81/7 34/30/7 16/19/7
f 36/5/6 8/57/6 93/56/6 95/78/6
f 24/42/22 43/93/22 63/92/22 19/43/22
f 27/52/6 69/51/6 100/104/6 26/58/6
f 86/115/6 101/80/6 98/112/6 29/67/6
f 74/95/6 80/102/6 100/104/6 72/96/6
f 72/96/23 100/104/23 123/120/23 109/97/23
f 29/67/6 98/112/6 80/121/6 74/68/6
f 78/122/24 80/121/24 120/123/24 79/124/24
f 8/57/2 36/5/2 102/8/2 12/29/2
f 12/29/6 102/8/6 41/20/6 16/19/6
f 101/80/24 86/115/24 111/113/24 121/125/24
f 95/78/25 101/80/25 121/125/25 118/126/25
f 108/91/6 105/64/6 106/63/6 107/127/6
f 66/38/6 105/64/6 108/91/6 103/4/6
f 65/94/26 61/61/26 105/64/26 66/38/26
f 100/104/27 107/127/27 123/120/27
f 100/104/28 69/51/28 108/91/28 107/127/28
f 119/128/6 110/116/6 82/89/6 116/88/6
f 122/119/6 118/126/6 113/107/6 114/36/6
f 119/128/6 116/88/6 117/129/6 120/123/6
f 117/129/6 77/130/6 79/124/6 120/123/6
f 112/114/6 115/108/6 121/125/6 111/113/6
f 113/107/6 118/126/6 121/125/6 115/108/6
f 45/87/29 46/131/29 117/129/29 116/88/29
f 98/112/30 83/111/30 110/116/30 119/128/30
f 47/106/31 92/34/31 114/36/31 113/107/31
f 87/117/32 99/105/32 115/108/32 112/114/32
f 46/131/33 32/132/33 77/130/33 117/129/33
f 91/118/30 95/78/30 118/126/30 122/119/30
f 80/121/34 98/112/34 119/128/34 120/123/34
f 104/74/35 109/97/35 123/120/35 106/63/35
f 107/127/36 106/63/36 123/120/36
