# Blender v2.93.3 OBJ File: 'murales.blend'
# www.blender.org
mtllib textotortuga_low.mtl
o Plane.001
v -3.256836 -5.010966 0.460084
v 3.260478 -5.010966 0.460084
v -3.256836 5.012156 0.460084
v 3.260478 5.012156 0.460084
v -2.830234 4.508347 0.460084
v -2.830234 -4.507156 0.460084
v 2.833877 -4.507156 0.460084
v 2.833877 4.508347 0.460084
v -2.894234 4.684246 0.710360
v -2.894234 -4.683056 0.710359
v 2.897876 -4.683056 0.710359
v 2.897876 4.684246 0.710360
v -3.151826 4.907015 0.710360
v -3.151826 -4.905825 0.710359
v 3.155468 -4.905825 0.710359
v 3.155468 4.907015 0.710360
vt 0.610930 0.917651
vt 0.077001 0.905326
vt 0.080065 0.082349
vt 0.613994 0.094674
vt 0.054526 0.937548
vt 0.054612 0.053434
vt 0.690165 0.010802
vt 0.690165 0.999170
vt 0.660469 0.970582
vt 0.662867 0.041245
vt 0.000830 0.989198
vt 0.000830 0.000830
vt 0.030526 0.029418
vt 0.028128 0.958755
vt 0.636383 0.946566
vt 0.636470 0.062452
vn 0.5200 0.3598 0.7747
vn -0.5200 0.3598 0.7747
vn -0.5200 -0.3598 0.7747
vn 0.5200 -0.3598 0.7747
vn -0.1592 0.1885 0.9691
vn -0.1592 -0.1885 0.9691
vn -0.6079 0.6081 0.5105
vn -0.6079 -0.6081 0.5105
vn -0.4495 -0.4493 0.7720
vn -0.4495 0.4493 0.7720
vn 0.6079 -0.6081 0.5105
vn 0.6079 0.6081 0.5105
vn 0.4495 0.4493 0.7720
vn 0.4495 -0.4493 0.7720
vn 0.1592 0.1885 0.9691
vn 0.1592 -0.1885 0.9691
usemtl None
s 1
f 6/1/1 7/2/2 8/3/3 5/4/4
f 8/3/3 7/2/2 11/5/5 12/6/6
f 3/7/7 1/8/8 14/9/9 13/10/10
f 2/11/11 4/12/12 16/13/13 15/14/14
f 7/2/2 6/1/1 10/15/15 11/5/5
f 10/15/15 9/16/16 13/10/10 14/9/9
f 11/5/5 10/15/15 14/9/9 15/14/14
f 12/6/6 11/5/5 15/14/14 16/13/13
f 9/16/16 12/6/6 16/13/13 13/10/10
f 6/1/1 5/4/4 9/16/16 10/15/15
f 4/12/12 3/7/7 13/10/10 16/13/13
f 1/8/8 2/11/11 15/14/14 14/9/9
f 5/4/4 8/3/3 12/6/6 9/16/16
