# Blender v2.93.3 OBJ File: ''
# www.blender.org
mtllib cuerpo2.mtl
o cuerpo_2_gancho_low
v 0.197355 0.165159 -0.897983
v 0.000021 0.167867 -0.915986
v -0.000749 0.499065 -0.852912
v 0.186406 0.493262 -0.827800
v 0.389994 0.158230 -0.858469
v 0.371880 0.489030 -0.786478
v 0.566435 0.145139 -0.777469
v 0.536107 0.468143 -0.718627
v 0.707066 0.129005 -0.657178
v 0.678235 0.444808 -0.615063
v 0.822572 0.111238 -0.519689
v 0.792190 0.416281 -0.498047
v 0.904655 0.087601 -0.370740
v 0.866577 0.390159 -0.361476
v 0.953502 0.063072 -0.214352
v 0.904873 0.350228 -0.216923
v 0.968747 0.048748 -0.132691
v 0.917009 0.340887 -0.137537
v 0.965373 -0.000228 0.108670
v 0.979372 0.039321 -0.051517
v 0.918545 0.336474 -0.071956
v 0.903992 0.304099 0.076371
v 0.924422 -0.031076 0.261935
v 0.862026 0.270955 0.216467
v 0.630931 -0.387013 0.521460
v 0.495436 -0.393557 0.621180
v 0.409513 -0.368405 0.519578
v 0.522101 -0.358208 0.440075
v 0.823919 -0.266487 -0.338049
v 0.874006 -0.292067 -0.191142
v 0.731488 -0.277549 -0.151584
v 0.685975 -0.261541 -0.275362
v 0.341509 -0.399223 0.694118
v 0.282010 -0.378601 0.580372
v 0.000002 -0.197310 -0.824768
v 0.173993 -0.200251 -0.809797
v 0.144149 -0.211670 -0.663746
v 0.000015 -0.209447 -0.675833
v 0.882049 -0.307063 -0.115223
v 0.890665 -0.319342 -0.037371
v 0.740314 -0.296051 -0.022192
v 0.740205 -0.284550 -0.086739
v 0.341460 -0.212407 -0.766037
v 0.282372 -0.218939 -0.626873
v 0.874762 -0.330385 0.118496
v 0.723272 -0.312931 0.104481
v 0.495755 -0.220441 -0.692502
v 0.409843 -0.228367 -0.566620
v 0.824149 -0.344268 0.266500
v 0.686480 -0.325821 0.228749
v 0.630771 -0.230263 -0.593696
v 0.521875 -0.234069 -0.484994
v 0.783180 -0.356860 0.333935
v 0.741565 -0.369703 0.402002
v 0.619182 -0.343188 0.344695
v 0.655689 -0.333454 0.289448
v 0.741655 -0.243653 -0.473846
v 0.613459 -0.248197 -0.385560
v 0.686333 -0.377784 0.461876
v 0.572586 -0.349258 0.395851
v 0.435243 -0.121114 0.360169
v 0.474893 -0.114951 0.320629
v 0.341163 -0.130956 0.424556
v 0.233080 -0.140461 0.465870
v 0.118212 -0.003970 -0.550941
v 0.000902 -0.009801 -0.563142
v 0.264691 -0.399791 0.729271
v 0.143603 -0.387653 0.615331
v 0.231717 -0.013568 -0.518804
v 0.105684 -0.385987 0.619260
v 0.067796 -0.384144 0.623203
v -0.000886 -0.150641 0.500266
v 0.058757 -0.150605 0.495904
v 0.337016 -0.016270 -0.469794
v 0.426032 -0.027563 -0.399220
v 0.500173 -0.041549 -0.319387
v 0.557298 -0.051768 -0.227314
v 0.596796 -0.062952 -0.128616
v 0.000245 -0.071836 -0.024403
v -0.119739 -0.013038 -0.551124
v 0.610958 -0.072756 -0.023786
v 0.606084 -0.067343 -0.076915
v 0.603932 -0.082970 0.082265
v 0.569189 -0.097481 0.184060
v 0.511822 -0.110776 0.277667
v 0.542092 -0.103205 0.232115
v -0.473415 -0.116148 0.318446
v -0.510894 -0.108728 0.276991
v -0.543230 -0.101655 0.232932
v 0.480566 0.470910 -0.642458
v 0.331060 0.486326 -0.707167
v 0.285184 0.457281 -0.611468
v 0.414642 0.446557 -0.555886
v 0.798703 0.312611 0.214907
v 0.848332 0.332387 0.081789
v 0.729497 0.328764 0.069864
v 0.690016 0.303291 0.184335
v 0.611631 0.454471 -0.554696
v 0.527898 0.432696 -0.479826
v 0.758482 0.301590 0.276032
v 0.660173 0.288240 0.238131
v 0.719426 0.433931 -0.447751
v 0.618948 0.416175 -0.385988
v 0.664148 0.277642 0.390191
v 0.718102 0.290407 0.336902
v 0.624471 0.276876 0.291319
v 0.575822 0.267424 0.337139
v 0.798853 0.404427 -0.326806
v 0.687839 0.394651 -0.281296
v 0.480641 0.236229 0.529059
v 0.611071 0.264060 0.443650
v 0.527413 0.262127 0.381195
v 0.413758 0.247268 0.455304
v 0.848318 0.380720 -0.194183
v 0.729441 0.376049 -0.166523
v 0.333208 0.215132 0.590361
v 0.284954 0.238251 0.512017
v 0.168689 0.493061 -0.747317
v 0.000007 0.494746 -0.761036
v 0.000252 0.464711 -0.658003
v 0.145224 0.466245 -0.644182
v 0.856631 0.369044 -0.125086
v 0.736671 0.363772 -0.107511
v 0.864950 0.356203 -0.056177
v 0.742799 0.354183 -0.047970
v 0.366169 0.273678 -0.493265
v 0.464345 0.262557 -0.424109
v -0.127783 0.292855 -0.569668
v -0.000397 0.200569 -0.043142
v 0.128077 0.291491 -0.569832
v -0.000016 0.292236 -0.582398
v 0.537446 0.253765 -0.336723
v 0.588759 0.242522 -0.240463
v 0.626882 0.221945 -0.141908
v 0.638624 0.208030 -0.092340
v 0.649225 0.195231 -0.042858
v 0.639978 0.170583 0.057963
v 0.603481 0.150082 0.157700
v 0.575969 0.138809 0.204442
v 0.541642 0.134289 0.247512
v 0.500960 0.126735 0.287413
v 0.454562 0.122354 0.319668
v 0.355685 0.111916 0.382322
v 0.242966 0.102244 0.430003
v 0.215435 0.234141 0.530202
v 0.186350 0.091469 0.451554
v 0.252465 0.283052 -0.543927
v 0.069897 0.229836 0.555610
v 0.145259 0.232491 0.546686
v 0.124223 0.089228 0.463506
v 0.000093 0.085420 0.476915
v -0.127272 0.088593 0.469886
v -0.069808 0.228898 0.557009
v 0.397609 -0.411562 0.801780
v 0.576327 -0.394245 0.715189
v 0.567036 -0.252700 0.685886
v 0.434432 -0.277047 0.760649
v 0.725272 -0.378425 0.593586
v 0.704463 -0.238850 0.582714
v 0.789846 -0.370442 0.525941
v 0.844617 -0.362597 0.451291
v 0.841098 -0.191728 0.432439
v 0.775754 -0.217264 0.515986
v 0.893768 -0.348239 0.375756
v 0.928412 -0.326839 0.298792
v 0.898128 -0.153962 0.344992
v 0.984802 -0.312367 0.115717
v 1.014692 -0.290742 -0.044672
v 1.009639 -0.275417 -0.132054
v 0.997908 -0.258790 -0.218474
v 0.939727 -0.233536 -0.386202
v 0.851429 -0.218814 -0.545279
v 0.726025 -0.203894 -0.687414
v 0.574285 -0.194474 -0.803557
v 0.395061 -0.181342 -0.887770
v 0.201806 -0.172067 -0.939927
v -0.000042 -0.169155 -0.955235
v 0.543968 0.135591 0.602573
v 0.686329 0.125860 0.519732
v 0.674935 0.225863 0.479426
v 0.539089 0.210856 0.581523
v 0.433351 0.147637 0.636401
v 0.391221 0.189593 0.627039
v 0.876880 0.057312 0.318393
v 0.826734 0.259177 0.285948
v 0.763931 0.110815 0.452603
v 0.819721 0.087982 0.386011
v 0.786749 0.242690 0.353273
v 0.732773 0.235174 0.416607
v -0.067653 -0.379289 0.624216
v 0.117283 -0.149666 0.488677
v -0.546453 0.129499 0.251369
v -0.505975 0.120943 0.292175
v -0.578025 0.136045 0.205424
v -0.196998 0.164984 -0.897821
v -0.190130 0.497212 -0.844453
v -0.387132 0.157043 -0.849856
v -0.371287 0.490185 -0.792692
v -0.559271 0.143606 -0.765802
v -0.538896 0.478853 -0.717700
v -0.702272 0.123961 -0.652068
v -0.686351 0.457477 -0.622374
v -0.818777 0.105925 -0.517191
v -0.804965 0.433255 -0.501575
v -0.903919 0.091219 -0.369595
v -0.892728 0.405707 -0.365776
v -0.960630 0.069871 -0.212488
v -0.939173 0.375137 -0.218045
v -0.979184 0.054839 -0.131584
v -0.954304 0.360253 -0.141349
v -0.979884 0.000291 0.109490
v -0.941655 0.313335 0.082799
v -0.963287 0.341750 -0.067518
v -0.992285 0.035703 -0.050545
v -0.929980 -0.029665 0.265611
v -0.890612 0.278489 0.231682
v -0.630799 -0.377522 0.522780
v -0.520783 -0.362775 0.437476
v -0.409039 -0.374100 0.518208
v -0.495573 -0.388243 0.621297
v -0.824051 -0.262854 -0.337450
v -0.680305 -0.266988 -0.272759
v -0.722327 -0.281928 -0.150322
v -0.874860 -0.280841 -0.189180
v -0.281973 -0.379845 0.579259
v -0.341158 -0.393073 0.694520
v -0.144089 -0.213887 -0.664791
v -0.174001 -0.200483 -0.809719
v -0.883429 -0.291192 -0.112198
v -0.729898 -0.289141 -0.086785
v -0.737177 -0.295912 -0.023067
v -0.891987 -0.301812 -0.035232
v -0.284314 -0.212722 -0.632610
v -0.341381 -0.206705 -0.764725
v -0.727052 -0.307533 0.105732
v -0.874918 -0.320520 0.118988
v -0.411757 -0.219625 -0.566284
v -0.495537 -0.215742 -0.691772
v -0.684088 -0.323296 0.229750
v -0.824179 -0.338196 0.267423
v -0.521002 -0.236029 -0.483959
v -0.630776 -0.230820 -0.594038
v -0.782923 -0.348124 0.335569
v -0.649449 -0.332976 0.286227
v -0.613211 -0.345364 0.340311
v -0.741698 -0.358414 0.403604
v -0.612489 -0.251298 -0.385393
v -0.741434 -0.249055 -0.474254
v -0.686204 -0.367846 0.463166
v -0.567441 -0.354730 0.389144
v -0.432857 -0.123770 0.356891
v -0.341383 -0.134965 0.424411
v -0.233602 -0.149649 0.467534
v -0.143988 -0.380359 0.617146
v -0.261863 -0.400000 0.739293
v -0.233585 -0.009540 -0.517798
v -0.105856 -0.379570 0.620771
v -0.059553 -0.149807 0.499545
v -0.342661 -0.016469 -0.477136
v -0.436265 -0.026495 -0.410398
v -0.512817 -0.037380 -0.328647
v -0.561988 -0.053339 -0.231539
v -0.601465 -0.067058 -0.129996
v -0.610336 -0.070585 -0.077572
v -0.615208 -0.076309 -0.024656
v -0.604181 -0.085190 0.082183
v -0.570708 -0.096417 0.185018
v -0.480663 0.475890 -0.642223
v -0.418664 0.441327 -0.562615
v -0.288007 0.449442 -0.620685
v -0.331012 0.484279 -0.707622
v -0.799671 0.309531 0.215814
v -0.688052 0.305127 0.183719
v -0.732234 0.326595 0.070425
v -0.849487 0.338975 0.083380
v -0.612469 0.462104 -0.553871
v -0.528717 0.433398 -0.480988
v -0.759399 0.293723 0.275635
v -0.654870 0.292394 0.236571
v -0.719481 0.437478 -0.447034
v -0.626708 0.412515 -0.394878
v -0.665404 0.263042 0.387692
v -0.573555 0.271572 0.334473
v -0.619476 0.282658 0.288510
v -0.719165 0.277204 0.335200
v -0.799372 0.411421 -0.325629
v -0.701661 0.387078 -0.288541
v -0.480727 0.243027 0.529998
v -0.413603 0.250502 0.455853
v -0.526969 0.262044 0.380361
v -0.611569 0.251449 0.441051
v -0.848611 0.385605 -0.193328
v -0.744148 0.365888 -0.173360
v -0.333422 0.221584 0.592629
v -0.285033 0.238750 0.512074
v -0.168754 0.491857 -0.747633
v -0.145250 0.456890 -0.650048
v -0.856953 0.373032 -0.124400
v -0.758137 0.351008 -0.113072
v -0.758681 0.339810 -0.049046
v -0.865298 0.360999 -0.055489
v -0.467218 0.256729 -0.428633
v -0.365726 0.274897 -0.492050
v -0.549794 0.239977 -0.347495
v -0.609106 0.225568 -0.252284
v -0.650294 0.201858 -0.153841
v -0.658690 0.187331 -0.101232
v -0.647421 0.163844 0.058451
v -0.663294 0.179916 -0.047172
v -0.608830 0.145002 0.159184
v -0.360803 0.102989 0.391842
v -0.463604 0.115124 0.331106
v -0.249831 0.091219 0.443671
v -0.215644 0.233266 0.530618
v -0.189037 0.088990 0.458788
v -0.250957 0.290495 -0.538021
v -0.145477 0.230615 0.547237
v -0.078729 0.205012 0.629958
v 0.069669 0.211824 0.611643
v -0.395864 -0.399438 0.797676
v -0.434964 -0.274993 0.762307
v -0.566301 -0.258034 0.683847
v -0.575468 -0.390414 0.713859
v -0.705319 -0.243226 0.584604
v -0.728236 -0.375108 0.597242
v -0.794756 -0.367212 0.530315
v -0.776527 -0.222968 0.514314
v -0.842437 -0.188332 0.434617
v -0.853940 -0.357779 0.456636
v -0.905492 -0.348357 0.380358
v -0.894797 -0.149603 0.346300
v -0.947995 -0.337361 0.299960
v -1.007785 -0.311463 0.130111
v -1.025120 -0.293593 -0.044250
v -1.014812 -0.279925 -0.131337
v -0.999720 -0.255129 -0.216023
v -0.940692 -0.233982 -0.391807
v -0.846946 -0.218317 -0.541680
v -0.729238 -0.193521 -0.688199
v -0.571645 -0.185044 -0.798520
v -0.391425 -0.174105 -0.875596
v -0.200936 -0.169360 -0.939932
v -0.549370 0.135218 0.613886
v -0.546341 0.217508 0.598204
v -0.691964 0.236533 0.496364
v -0.687694 0.120477 0.523813
v -0.432691 0.147632 0.631297
v -0.395918 0.189559 0.621700
v -0.879707 0.055612 0.321082
v -0.855935 0.270972 0.304333
v -0.764247 0.105264 0.453659
v -0.754179 0.245241 0.435548
v -0.810849 0.255993 0.373069
v -0.823460 0.082105 0.391201
v -0.117568 -0.151770 0.493931
v -0.694408 0.048190 0.427356
v -0.643481 0.064765 0.481129
v -0.751832 -0.125888 0.387247
v -0.779953 -0.032046 0.320717
v 0.741894 0.023754 0.372913
v 0.776100 -0.033469 0.314670
v -0.647748 -0.181807 0.524019
v -0.703837 -0.161391 0.455020
v 0.586106 -0.200631 0.577394
v 0.469949 -0.218965 0.657468
v 0.454834 0.099019 0.598950
v 0.574416 0.083692 0.531817
v -0.587957 -0.197283 0.580626
v -0.455548 0.097882 0.602248
v -0.344811 0.106557 0.624442
v 0.642510 0.067351 0.479769
v 0.358899 -0.241322 0.715604
v -0.739907 0.027461 0.369727
v 0.693853 0.047527 0.428114
v 0.750842 -0.127808 0.384242
v 0.704550 -0.160645 0.455856
v 0.646100 -0.185178 0.521479
v -0.470689 -0.214556 0.660065
v -0.573922 0.080299 0.531545
v 0.355391 0.102363 0.618663
v -0.358983 -0.239789 0.716119
v -0.351466 -0.293031 0.791829
v -0.341183 -0.402582 0.802790
v 0.343926 -0.288048 0.798897
v 0.347460 -0.416904 0.819759
v 0.258030 -0.243632 0.718260
v -0.265723 -0.256654 0.719796
v 0.682790 -0.025940 0.423991
v 0.633912 -0.022439 0.483991
v 0.564772 -0.018984 0.528793
v 0.446237 -0.016612 0.599958
v 0.346077 -0.012488 0.639588
v -0.684912 -0.024568 0.424312
v 0.078251 -0.389311 0.736893
v -0.082058 -0.383079 0.734338
v -0.342444 -0.010154 0.635211
v -0.447697 -0.009601 0.594592
v -0.565215 -0.019037 0.525096
v -0.631510 -0.019425 0.479487
v 0.178809 0.208133 0.594917
v -0.167033 0.201714 0.619418
v -0.251195 0.207826 0.603879
v 0.253156 0.212767 0.596311
v 0.081237 0.104708 0.642908
v -0.083414 0.105561 0.652907
v -0.176932 -0.391429 0.741362
v 0.168638 -0.393103 0.720011
v -0.248167 0.102727 0.634133
v 0.255543 -0.015069 0.656726
v -0.172432 0.113224 0.643535
v -0.079071 -0.010351 0.675277
v 0.077926 -0.007356 0.666416
v 0.171369 0.097172 0.639125
v 0.249874 0.103755 0.630653
v 0.171437 -0.011073 0.664230
v -0.081880 -0.246139 0.717490
v 0.084293 -0.242828 0.717519
v -0.168066 -0.009148 0.669649
v -0.255736 -0.011585 0.659159
v 0.173304 -0.244761 0.713659
v -0.172032 -0.243208 0.721007
vt 0.322873 0.316148
vt 0.323419 0.294665
vt 0.360128 0.295555
vt 0.359416 0.316243
vt 0.322285 0.337402
vt 0.359123 0.337066
vt 0.321775 0.358364
vt 0.357595 0.356658
vt 0.321657 0.378455
vt 0.356512 0.376138
vt 0.321737 0.398079
vt 0.355139 0.394286
vt 0.321500 0.416797
vt 0.354463 0.411568
vt 0.321507 0.434848
vt 0.352684 0.428447
vt 0.321473 0.444031
vt 0.353161 0.437289
vt 0.321415 0.470940
vt 0.322006 0.452979
vt 0.354042 0.444429
vt 0.354077 0.461195
vt 0.322132 0.488571
vt 0.354543 0.477670
vt 0.666666 0.517473
vt 0.677971 0.532016
vt 0.666796 0.541789
vt 0.657653 0.529716
vt 0.571082 0.499088
vt 0.587227 0.493130
vt 0.591741 0.508717
vt 0.578238 0.514061
vt 0.686423 0.548684
vt 0.673944 0.555555
vt 0.519794 0.590780
vt 0.520945 0.571680
vt 0.537064 0.574523
vt 0.536160 0.590328
vt 0.595624 0.491996
vt 0.604147 0.490819
vt 0.605965 0.507322
vt 0.598830 0.507561
vt 0.525368 0.553229
vt 0.540748 0.559295
vt 0.621220 0.492030
vt 0.619974 0.508778
vt 0.532966 0.536149
vt 0.547023 0.545165
vt 0.637757 0.497069
vt 0.633779 0.512399
vt 0.543401 0.521067
vt 0.555622 0.532657
vt 0.645434 0.501368
vt 0.653147 0.505721
vt 0.646828 0.519370
vt 0.640574 0.515573
vt 0.556255 0.508537
vt 0.566318 0.522323
vt 0.659920 0.511580
vt 0.652574 0.524313
vt 0.734973 0.643570
vt 0.728727 0.638219
vt 0.749939 0.617544
vt 0.754373 0.621363
vt 0.717585 0.624631
vt 0.742580 0.608417
vt 0.708936 0.609098
vt 0.736986 0.597531
vt 0.868848 0.562557
vt 0.868848 0.581411
vt 0.841273 0.577272
vt 0.842093 0.564893
vt 0.690460 0.557011
vt 0.678286 0.570591
vt 0.865123 0.599763
vt 0.839234 0.589433
vt 0.702741 0.588079
vt 0.702206 0.583700
vt 0.730893 0.573025
vt 0.731817 0.579325
vt 0.857964 0.616839
vt 0.834825 0.600789
vt 0.847448 0.631272
vt 0.828357 0.610725
vt 0.835103 0.643568
vt 0.820577 0.619197
vt 0.820971 0.653069
vt 0.811259 0.625852
vt 0.805107 0.659350
vt 0.801263 0.630640
vt 0.058474 0.837470
vt 0.117533 0.830451
vt 0.117533 0.843721
vt 0.114915 0.856373
vt 0.797187 0.660840
vt 0.789189 0.661976
vt 0.790336 0.632823
vt 0.795857 0.631955
vt 0.057299 0.904015
vt 0.051432 0.903937
vt 0.039919 0.901958
vt 0.772334 0.661005
vt 0.779674 0.632877
vt 0.756258 0.656166
vt 0.769203 0.630127
vt 0.748717 0.652620
vt 0.741637 0.648741
vt 0.759057 0.624867
vt 0.764036 0.627663
vt 0.026246 0.781970
vt 0.031253 0.778368
vt 0.036477 0.775358
vt 0.110121 0.868403
vt 0.103490 0.879247
vt 0.094704 0.888125
vt 0.085042 0.895273
vt 0.074310 0.900432
vt 0.063051 0.903597
vt 0.636501 0.362897
vt 0.629265 0.346524
vt 0.640203 0.341521
vt 0.646349 0.355688
vt 0.731742 0.397965
vt 0.717075 0.403346
vt 0.715910 0.390321
vt 0.728726 0.386039
vt 0.646260 0.377239
vt 0.654772 0.368090
vt 0.738551 0.393701
vt 0.734808 0.382841
vt 0.658114 0.389006
vt 0.665145 0.378063
vt 0.751314 0.383543
vt 0.745294 0.389342
vt 0.740689 0.378985
vt 0.745765 0.373709
vt 0.671653 0.397825
vt 0.676814 0.385637
vt 0.767218 0.363396
vt 0.757350 0.377723
vt 0.750642 0.368409
vt 0.759063 0.355972
vt 0.686433 0.403203
vt 0.689529 0.390224
vt 0.774352 0.347197
vt 0.765426 0.341856
vt 0.624853 0.328751
vt 0.623362 0.310274
vt 0.635120 0.310313
vt 0.636523 0.326195
vt 0.694077 0.404151
vt 0.696119 0.391031
vt 0.701742 0.405099
vt 0.702718 0.391740
vt 0.555667 0.869776
vt 0.541923 0.860694
vt 0.555622 0.844419
vt 0.566217 0.851402
vt 0.494794 0.465259
vt 0.435133 0.472818
vt 0.484925 0.439058
vt 0.491161 0.451687
vt 0.570436 0.875587
vt 0.577398 0.855457
vt 0.585477 0.878115
vt 0.589004 0.856948
vt 0.600249 0.878115
vt 0.600787 0.856591
vt 0.607289 0.876634
vt 0.606489 0.855586
vt 0.628517 0.869126
vt 0.614384 0.875206
vt 0.612048 0.854514
vt 0.621652 0.849676
vt 0.641173 0.859189
vt 0.629876 0.842426
vt 0.645933 0.852904
vt 0.633465 0.837961
vt 0.653861 0.838557
vt 0.650449 0.846103
vt 0.636305 0.833023
vt 0.638594 0.827427
vt 0.660722 0.814893
vt 0.657021 0.831171
vt 0.640139 0.821470
vt 0.642711 0.808973
vt 0.662010 0.797797
vt 0.643190 0.795636
vt 0.519817 0.835059
vt 0.512283 0.819620
vt 0.531881 0.811610
vt 0.538052 0.824043
vt 0.661448 0.789298
vt 0.642843 0.789105
vt 0.529803 0.848788
vt 0.545977 0.835117
vt 0.658719 0.771407
vt 0.660657 0.780469
vt 0.641661 0.782402
vt 0.638193 0.769686
vt 0.386263 0.506088
vt 0.380565 0.493341
vt 0.377204 0.480093
vt 0.652611 0.754839
vt 0.376049 0.473262
vt 0.375862 0.466532
vt 0.376881 0.453137
vt 0.421290 0.404678
vt 0.433070 0.404562
vt 0.444952 0.406229
vt 0.456768 0.410318
vt 0.467710 0.417695
vt 0.477376 0.427347
vt 0.415565 0.405460
vt 0.304690 0.581201
vt 0.299558 0.559959
vt 0.314454 0.554458
vt 0.317066 0.571155
vt 0.295460 0.539209
vt 0.310630 0.535948
vt 0.293683 0.529074
vt 0.292044 0.519020
vt 0.309920 0.513039
vt 0.310083 0.524998
vt 0.291200 0.509051
vt 0.291338 0.499506
vt 0.311183 0.500934
vt 0.288161 0.478687
vt 0.286634 0.460667
vt 0.286496 0.450921
vt 0.286608 0.441210
vt 0.286487 0.421563
vt 0.285627 0.401591
vt 0.285262 0.380779
vt 0.284805 0.359836
vt 0.285233 0.338045
vt 0.285803 0.316027
vt 0.286356 0.293804
vt 0.360734 0.534958
vt 0.351620 0.519322
vt 0.361616 0.512879
vt 0.368047 0.530452
vt 0.368281 0.545243
vt 0.374815 0.546188
vt 0.333810 0.493385
vt 0.355764 0.486229
vt 0.345729 0.509591
vt 0.340196 0.501438
vt 0.356687 0.494958
vt 0.359134 0.503790
vt 0.701385 0.567150
vt 0.000651 0.844289
vt 0.000523 0.837837
vt 0.000735 0.831297
vt 0.425192 0.540458
vt 0.419372 0.537897
vt 0.431167 0.541882
vt 0.323908 0.273166
vt 0.360614 0.274777
vt 0.324328 0.251821
vt 0.361219 0.254116
vt 0.324687 0.230888
vt 0.361736 0.233916
vt 0.324839 0.210738
vt 0.361494 0.214496
vt 0.325546 0.191007
vt 0.361334 0.195749
vt 0.326807 0.172149
vt 0.361008 0.177779
vt 0.327562 0.153550
vt 0.360509 0.160506
vt 0.327551 0.144253
vt 0.360417 0.151777
vt 0.326956 0.116923
vt 0.360360 0.126429
vt 0.359920 0.143378
vt 0.327137 0.134984
vt 0.327934 0.098665
vt 0.360727 0.108726
vt 0.670431 0.655629
vt 0.660636 0.643864
vt 0.669222 0.631399
vt 0.680851 0.640556
vt 0.576060 0.679438
vt 0.582723 0.663513
vt 0.596344 0.667747
vt 0.592562 0.684582
vt 0.675556 0.617317
vt 0.688420 0.623455
vt 0.537858 0.606081
vt 0.521991 0.609789
vt 0.601099 0.685277
vt 0.603363 0.668384
vt 0.610395 0.668984
vt 0.609628 0.685971
vt 0.541721 0.621354
vt 0.527439 0.627991
vt 0.624494 0.667463
vt 0.626569 0.683624
vt 0.549354 0.635062
vt 0.535953 0.644645
vt 0.638014 0.662381
vt 0.642773 0.677606
vt 0.558894 0.646722
vt 0.547217 0.659111
vt 0.650184 0.672873
vt 0.644168 0.658420
vt 0.650119 0.654278
vt 0.657584 0.668140
vt 0.570078 0.656427
vt 0.560806 0.670805
vt 0.664007 0.661879
vt 0.655417 0.649118
vt 0.723674 0.503529
vt 0.746333 0.522418
vt 0.742589 0.526913
vt 0.718286 0.509634
vt 0.736318 0.536696
vt 0.709443 0.524694
vt 0.732372 0.548140
vt 0.703967 0.541030
vt 0.840039 0.552225
vt 0.866024 0.544157
vt 0.679279 0.602096
vt 0.693134 0.614651
vt 0.835369 0.540581
vt 0.859380 0.526824
vt 0.701356 0.562687
vt 0.730630 0.566795
vt 0.829979 0.529680
vt 0.849250 0.511081
vt 0.822240 0.520576
vt 0.837322 0.497689
vt 0.813096 0.513391
vt 0.822924 0.487354
vt 0.802683 0.508866
vt 0.807310 0.480520
vt 0.791631 0.505742
vt 0.790805 0.477233
vt 0.381097 0.434552
vt 0.383632 0.428796
vt 0.386773 0.423629
vt 0.782823 0.477016
vt 0.785930 0.505394
vt 0.780274 0.505408
vt 0.774793 0.477155
vt 0.071200 0.771611
vt 0.053673 0.770454
vt 0.065465 0.770469
vt 0.769506 0.507380
vt 0.758130 0.480763
vt 0.759420 0.511464
vt 0.742600 0.488275
vt 0.735897 0.492972
vt 0.754689 0.514649
vt 0.750374 0.518265
vt 0.729428 0.497736
vt 0.015219 0.885175
vt 0.024170 0.893505
vt 0.019470 0.889710
vt 0.115477 0.817630
vt 0.112031 0.805345
vt 0.105758 0.794388
vt 0.097657 0.785118
vt 0.087523 0.778623
vt 0.076816 0.773173
vt 0.636614 0.257619
vt 0.645982 0.264546
vt 0.639571 0.278807
vt 0.629362 0.274006
vt 0.732312 0.222941
vt 0.728960 0.235202
vt 0.716328 0.230367
vt 0.717544 0.217466
vt 0.646416 0.243234
vt 0.654910 0.252480
vt 0.739073 0.227355
vt 0.734905 0.238845
vt 0.658406 0.231508
vt 0.664640 0.241752
vt 0.751799 0.237692
vt 0.745875 0.247773
vt 0.740698 0.242727
vt 0.745839 0.231780
vt 0.672034 0.222742
vt 0.676578 0.233555
vt 0.767535 0.257992
vt 0.759362 0.265343
vt 0.751008 0.252889
vt 0.757786 0.243612
vt 0.686840 0.217376
vt 0.689402 0.228949
vt 0.774644 0.274165
vt 0.765630 0.279458
vt 0.624875 0.291786
vt 0.636213 0.294393
vt 0.694521 0.216473
vt 0.696171 0.227449
vt 0.703222 0.227422
vt 0.702198 0.215593
vt 0.508154 0.752748
vt 0.529132 0.758249
vt 0.526466 0.770904
vt 0.505332 0.768911
vt 0.514183 0.737857
vt 0.534085 0.747077
vt 0.523698 0.724595
vt 0.541202 0.737609
vt 0.535014 0.714160
vt 0.549675 0.729871
vt 0.541611 0.710128
vt 0.554731 0.727107
vt 0.563803 0.702102
vt 0.570892 0.722086
vt 0.559932 0.724564
vt 0.548807 0.706721
vt 0.579681 0.701630
vt 0.582223 0.722165
vt 0.587477 0.703154
vt 0.588092 0.723350
vt 0.602649 0.707824
vt 0.599654 0.726980
vt 0.593927 0.724646
vt 0.595102 0.704875
vt 0.624840 0.719902
vt 0.615492 0.737121
vt 0.605286 0.729562
vt 0.610071 0.711050
vt 0.637608 0.732123
vt 0.624742 0.746222
vt 0.507494 0.802806
vt 0.527886 0.798308
vt 0.642944 0.739321
vt 0.628751 0.751645
vt 0.505178 0.785759
vt 0.526007 0.784594
vt 0.632429 0.757360
vt 0.647972 0.746637
vt 0.770350 0.318321
vt 0.770568 0.303042
vt 0.778962 0.302088
vt 0.776788 0.318313
vt 0.389769 0.511992
vt 0.403403 0.526937
vt 0.393674 0.517631
vt 0.471385 0.535194
vt 0.487717 0.517289
vt 0.480230 0.527143
vt 0.493030 0.505645
vt 0.495819 0.492696
vt 0.496464 0.479076
vt 0.466129 0.538175
vt 0.314214 0.006196
vt 0.325164 0.016204
vt 0.321289 0.032650
vt 0.307502 0.026913
vt 0.316894 0.050948
vt 0.302548 0.047488
vt 0.300400 0.057657
vt 0.315827 0.062102
vt 0.316349 0.074062
vt 0.298583 0.067922
vt 0.296938 0.077946
vt 0.317570 0.086045
vt 0.295634 0.087916
vt 0.293765 0.107797
vt 0.291637 0.127026
vt 0.291284 0.136764
vt 0.292211 0.146550
vt 0.291051 0.166971
vt 0.289956 0.186367
vt 0.289840 0.207117
vt 0.288654 0.228152
vt 0.288140 0.249659
vt 0.287118 0.271709
vt 0.362386 0.049478
vt 0.370844 0.053099
vt 0.366528 0.072235
vt 0.354963 0.066085
vt 0.368805 0.038150
vt 0.374815 0.036579
vt 0.339232 0.093423
vt 0.362170 0.099970
vt 0.349953 0.076458
vt 0.364597 0.081636
vt 0.363042 0.090839
vt 0.344786 0.084764
vt 0.002729 0.818668
vt 0.001429 0.824915
vt 0.379545 0.440557
vt 0.001927 0.857178
vt 0.005302 0.869425
vt 0.011317 0.880405
vt 0.703347 0.592439
vt 0.733070 0.585552
vt 0.399651 0.411293
vt 0.409923 0.406343
vt 0.390627 0.418950
vt 0.029124 0.897009
vt 0.413704 0.535084
vt 0.006804 0.806300
vt 0.013035 0.795116
vt 0.021516 0.785934
vt 0.730639 0.560565
vt 0.701351 0.558238
vt 0.449160 0.543221
vt 0.460716 0.540744
vt 0.437178 0.543221
vt 0.042035 0.772918
vt 0.506503 0.907705
vt 0.508875 0.898245
vt 0.516028 0.911575
vt 0.514237 0.919684
vt 0.520282 0.879161
vt 0.536264 0.882266
vt 0.537184 0.898719
vt 0.524485 0.896141
vt 0.857330 0.404208
vt 0.866767 0.395857
vt 0.881529 0.402882
vt 0.873915 0.408872
vt 0.546119 0.889126
vt 0.554835 0.897279
vt 0.552027 0.911844
vt 0.545052 0.904700
vt 0.898568 0.455973
vt 0.882302 0.446416
vt 0.895489 0.443001
vt 0.908998 0.450740
vt 0.897467 0.389989
vt 0.915345 0.392513
vt 0.922303 0.400444
vt 0.907301 0.398725
vt 0.561776 0.906032
vt 0.557544 0.919166
vt 0.510007 0.949558
vt 0.505940 0.937231
vt 0.514430 0.944416
vt 0.518338 0.956180
vt 0.886134 0.390568
vt 0.897761 0.399101
vt 0.913704 0.463422
vt 0.921603 0.456676
vt 0.512115 0.888515
vt 0.518656 0.903650
vt 0.876586 0.392905
vt 0.889647 0.400648
vt 0.858908 0.420617
vt 0.875785 0.421859
vt 0.873895 0.439411
vt 0.865868 0.430574
vt 0.881400 0.430134
vt 0.888367 0.437284
vt 0.570384 0.922702
vt 0.564717 0.933035
vt 0.505178 0.919112
vt 0.513711 0.929223
vt 0.927653 0.395752
vt 0.932642 0.404481
vt 0.577330 0.938048
vt 0.570316 0.945815
vt 0.326883 0.006434
vt 0.316282 0.000523
vt 0.319448 0.581729
vt 0.306099 0.586900
vt 0.932642 0.456337
vt 0.923915 0.466999
vt 0.580343 0.947468
vt 0.570849 0.956180
vt 0.589567 0.698535
vt 0.599279 0.699749
vt 0.646685 0.691069
vt 0.655434 0.686163
vt 0.663689 0.680284
vt 0.671636 0.673580
vt 0.583185 0.479369
vt 0.592782 0.477830
vt 0.640760 0.485277
vt 0.649536 0.489022
vt 0.658102 0.494206
vt 0.666532 0.499962
vt 0.553289 0.682727
vt 0.570035 0.692553
vt 0.678811 0.666103
vt 0.536602 0.670366
vt 0.524065 0.653383
vt 0.628075 0.698174
vt 0.514957 0.633868
vt 0.608951 0.700584
vt 0.507403 0.613143
vt 0.505178 0.591182
vt 0.691203 0.649031
vt 0.699879 0.629139
vt 0.547719 0.496685
vt 0.564826 0.486337
vt 0.674205 0.506837
vt 0.532512 0.510888
vt 0.520279 0.527877
vt 0.620370 0.479795
vt 0.511484 0.547727
vt 0.602497 0.477016
vt 0.506280 0.569040
vt 0.688037 0.522857
vt 0.698136 0.542234
vt 0.473119 0.684873
vt 0.473119 0.696973
vt 0.461998 0.696812
vt 0.460824 0.681019
vt 0.700304 0.623140
vt 0.700304 0.547683
vt 0.488809 0.696807
vt 0.489557 0.682538
vt 0.502025 0.676674
vt 0.502025 0.693820
vt 0.750504 0.221677
vt 0.742825 0.216673
vt 0.701325 0.204594
vt 0.692965 0.205647
vt 0.764066 0.234801
vt 0.757389 0.227950
vt 0.748825 0.397991
vt 0.741021 0.402260
vt 0.700373 0.411467
vt 0.693122 0.411532
vt 0.762622 0.385151
vt 0.755763 0.391782
vt 0.718138 0.207021
vt 0.620022 0.269568
vt 0.614257 0.289420
vt 0.684381 0.207299
vt 0.613284 0.310176
vt 0.779194 0.267213
vt 0.775417 0.250719
vt 0.667807 0.212399
vt 0.652574 0.222026
vt 0.639039 0.235018
vt 0.734936 0.212592
vt 0.628362 0.251198
vt 0.717136 0.410238
vt 0.620591 0.351014
vt 0.616036 0.330696
vt 0.684302 0.410348
vt 0.779194 0.353617
vt 0.773615 0.369866
vt 0.668023 0.405508
vt 0.652825 0.397309
vt 0.639764 0.384706
vt 0.733171 0.406151
vt 0.628215 0.369069
vt 0.189231 0.562716
vt 0.189231 0.575668
vt 0.179483 0.573205
vt 0.182823 0.567528
vt 0.690696 0.468157
vt 0.692468 0.474091
vt 0.681827 0.474091
vt 0.685654 0.461543
vt 0.334167 0.791382
vt 0.319026 0.789740
vt 0.324355 0.781408
vt 0.336069 0.775885
vt 0.333082 0.799888
vt 0.314735 0.798566
vt 0.332147 0.808997
vt 0.311508 0.807029
vt 0.330405 0.824307
vt 0.307197 0.821802
vt 0.329527 0.836284
vt 0.302969 0.834971
vt 0.332189 0.957818
vt 0.340090 0.957241
vt 0.338909 0.965329
vt 0.333536 0.972952
vt 0.679327 0.578875
vt 0.691744 0.577416
vt 0.691904 0.594945
vt 0.679802 0.593716
vt 0.329083 0.912672
vt 0.341950 0.912427
vt 0.342074 0.924705
vt 0.330110 0.925242
vt 0.341520 0.939776
vt 0.330615 0.940523
vt 0.340894 0.949159
vt 0.331605 0.949366
vt 0.769313 0.326558
vt 0.775180 0.330286
vt 0.769515 0.294761
vt 0.778014 0.292408
vt 0.767714 0.287071
vt 0.776212 0.283214
vt 0.767509 0.334243
vt 0.775095 0.338433
vt 0.341437 0.865794
vt 0.353569 0.867164
vt 0.352199 0.883348
vt 0.341107 0.883777
vt 0.679548 0.597910
vt 0.693021 0.605317
vt 0.678805 0.574734
vt 0.689678 0.567571
vt 0.341193 0.901879
vt 0.353105 0.902225
vt 0.354886 0.911170
vt 0.328608 0.846438
vt 0.302607 0.845976
vt 0.342089 0.893510
vt 0.352053 0.892995
vt 0.328228 0.883208
vt 0.328920 0.865995
vt 0.340856 0.855935
vt 0.353841 0.855192
vt 0.341921 0.847363
vt 0.354345 0.847139
vt 0.328712 0.855733
vt 0.301988 0.883214
vt 0.302514 0.865029
vt 0.328400 0.892992
vt 0.328333 0.902728
vt 0.342354 0.835839
vt 0.354886 0.838464
vt 0.343012 0.800387
vt 0.342181 0.792299
vt 0.343482 0.809859
vt 0.343175 0.824897
vt 0.302468 0.855257
vt 0.286925 0.883074
vt 0.286365 0.865605
vt 0.302133 0.893075
vt 0.300563 0.903276
vt 0.302210 0.913479
vt 0.306304 0.926695
vt 0.310094 0.941598
vt 0.313134 0.950109
vt 0.316933 0.959107
vt 0.322209 0.967245
vt 0.341052 0.784068
vt 0.286224 0.855582
vt 0.285807 0.893423
vt 0.284805 0.902673
vt 0.285547 0.845057
vn 0.1136 0.1988 -0.9734
vn 0.2102 0.2151 -0.9537
vn 0.4090 0.2081 -0.8885
vn 0.6260 0.1780 -0.7593
vn 0.7480 0.1380 -0.6492
vn 0.8792 0.1225 -0.4605
vn 0.9584 0.1437 -0.2467
vn 0.9757 0.1672 -0.1413
vn 0.9681 0.2088 0.1383
vn 0.9227 0.2282 0.3106
vn -0.0803 -0.9760 -0.2023
vn -0.1097 -0.9875 -0.1130
vn -0.0332 -0.9819 -0.1863
vn -0.0093 -0.9967 -0.0805
vn -0.1752 -0.9728 -0.1517
vn -0.0432 -0.9962 -0.0762
vn -0.1333 -0.9846 -0.1129
vn -0.0286 -0.9971 -0.0700
vn -0.0994 -0.9867 -0.1289
vn -0.0163 -0.9978 -0.0635
vn -0.0962 -0.9665 -0.2379
vn -0.0389 -0.9953 -0.0890
vn -0.0815 -0.9643 -0.2520
vn -0.0621 -0.9923 -0.1069
vn -0.5666 -0.4492 -0.6908
vn -0.4848 -0.4377 -0.7572
vn -0.3240 -0.4472 -0.8337
vn -0.0742 -0.4865 0.8705
vn -0.0017 -0.9900 -0.1411
vn -0.2607 -0.4924 0.8304
vn -0.0833 -0.4794 -0.8736
vn -0.3900 -0.4961 0.7758
vn -0.5462 -0.5100 0.6645
vn -0.6625 -0.5300 0.5293
vn -0.7359 -0.5397 0.4088
vn -0.8058 -0.5406 0.2418
vn 0.0379 -0.9927 -0.1143
vn -0.8579 -0.5124 -0.0373
vn -0.0014 -0.9952 -0.0977
vn -0.8641 -0.4818 -0.1455
vn -0.8229 -0.4712 -0.3175
vn -0.6931 -0.4764 -0.5410
vn -0.0185 -0.9882 -0.1524
vn -0.0106 -0.9925 -0.1219
vn -0.0223 -0.9896 -0.1422
vn -0.0041 -0.9940 -0.1095
vn -0.0249 0.9634 0.2670
vn -0.0840 0.9851 0.1498
vn -0.0404 0.9700 0.2397
vn -0.1505 0.9799 0.1306
vn -0.0436 0.9739 0.2230
vn -0.1591 0.9857 0.0562
vn -0.0113 0.9737 0.2276
vn -0.0751 0.9860 0.1489
vn -0.0074 0.9852 0.1712
vn -0.0096 0.9741 0.2260
vn -0.0227 0.9644 0.2634
vn -0.0060 0.9828 0.1845
vn -0.0140 0.9639 0.2659
vn -0.0259 0.9822 0.1860
vn -0.4789 0.4220 0.7698
vn 0.0054 0.9858 0.1676
vn -0.6210 0.4691 0.6280
vn -0.6839 0.5348 0.4963
vn -0.7341 0.5641 0.3780
vn -0.7919 0.5475 0.2704
vn -0.8660 0.4994 0.0251
vn -0.8440 0.5009 -0.1918
vn -0.7964 0.5131 -0.3200
vn -0.6351 0.5369 -0.5553
vn -0.4944 0.5602 -0.6646
vn -0.3649 0.5596 -0.7441
vn -0.0894 0.3987 0.9127
vn -0.3108 0.5330 -0.7870
vn -0.1745 0.3922 0.9032
vn -0.1119 0.5139 -0.8505
vn -0.3393 0.3988 0.8520
vn 0.0030 0.9763 0.2162
vn -0.0120 0.4829 -0.8756
vn -0.0288 0.9756 0.2176
vn -0.0141 0.9858 0.1675
vn -0.0152 0.9897 0.1425
vn 0.0185 0.9850 0.1716
vn 0.0094 0.9633 0.2682
vn 0.4332 0.1820 0.8827
vn 0.5965 0.1758 0.7831
vn 0.7827 0.0972 0.6148
vn 0.9159 0.0542 0.3977
vn 0.9569 0.0574 0.2847
vn 0.9846 0.0872 0.1514
vn 0.9824 0.1304 -0.1337
vn 0.9476 0.1261 -0.2935
vn 0.8752 0.1155 -0.4697
vn 0.7594 0.1088 -0.6415
vn 0.6310 0.0897 -0.7706
vn 0.4248 0.0816 -0.9016
vn 0.2340 0.1050 -0.9665
vn 0.0842 0.1197 -0.9892
vn 0.5193 0.3249 0.7904
vn 0.2648 0.3403 0.9023
vn 0.8718 0.2590 0.4158
vn 0.7428 0.3161 0.5903
vn -0.0235 -0.4711 -0.8817
vn -0.0065 -0.9888 -0.1490
vn -0.0246 0.9812 0.1912
vn -0.0698 0.1731 -0.9824
vn -0.2620 0.1668 -0.9505
vn -0.4280 0.1632 -0.8889
vn -0.5912 0.1248 -0.7968
vn -0.7403 0.0791 -0.6677
vn -0.8559 0.0489 -0.5149
vn -0.9486 0.0491 -0.3126
vn -0.9782 0.0693 -0.1959
vn -0.9844 0.1162 0.1319
vn -0.9289 0.1491 0.3391
vn 0.0124 -0.9902 -0.1389
vn 0.0221 -0.9933 -0.1133
vn 0.0167 -0.9934 -0.1134
vn 0.0166 -0.9960 -0.0883
vn 0.0400 -0.9922 -0.1182
vn -0.0011 -0.9976 -0.0696
vn 0.0615 -0.9918 -0.1122
vn 0.0295 -0.9981 -0.0545
vn 0.0699 -0.9869 -0.1452
vn 0.0621 -0.9941 -0.0894
vn 0.0214 -0.9804 -0.1957
vn 0.0542 -0.9933 -0.1022
vn 0.0044 -0.9861 -0.1661
vn 0.0321 -0.9946 -0.0983
vn 0.5926 -0.4396 -0.6750
vn 0.4985 -0.4356 -0.7495
vn 0.3302 -0.4459 -0.8319
vn 0.0896 -0.4943 0.8646
vn 0.0142 -0.9918 -0.1267
vn 0.2059 -0.5104 0.8349
vn 0.0350 -0.4780 -0.8776
vn 0.3806 -0.5020 0.7766
vn 0.5602 -0.4761 0.6779
vn 0.6789 -0.4694 0.5646
vn 0.7916 -0.4879 0.3679
vn 0.8328 -0.4992 0.2392
vn 0.0294 0.9850 0.1699
vn 0.8748 -0.4829 0.0394
vn 0.0073 -0.9958 -0.0913
vn 0.8655 -0.4863 -0.1200
vn 0.8135 -0.4781 -0.3310
vn 0.6883 -0.4488 -0.5699
vn 0.0015 -0.9915 -0.1304
vn -0.0228 -0.9931 -0.1146
vn 0.0102 -0.9917 -0.1280
vn 0.0188 -0.9900 -0.1395
vn 0.0916 0.9384 0.3333
vn 0.1041 0.9810 0.1634
vn 0.1149 0.9516 0.2850
vn 0.0885 0.9778 0.1900
vn 0.0742 0.9501 0.3030
vn 0.0388 0.9767 0.2111
vn 0.1103 0.9507 0.2899
vn -0.0048 0.9918 0.1275
vn 0.1430 0.9613 0.2356
vn 0.0384 0.9820 0.1851
vn -0.0114 0.9509 0.3094
vn 0.1613 0.9593 0.2317
vn 0.0319 0.9386 0.3436
vn 0.1505 0.9825 0.1094
vn 0.4729 0.4327 0.7676
vn 0.5655 0.4259 0.7063
vn 0.6815 0.4833 0.5495
vn 0.7619 0.5056 0.4047
vn 0.8111 0.5064 0.2927
vn 0.8674 0.4876 -0.0996
vn 0.8534 0.4611 -0.2432
vn 0.7882 0.4605 -0.4082
vn 0.6783 0.4631 -0.5705
vn 0.5056 0.4762 -0.7195
vn 0.4006 0.4719 -0.7854
vn 0.0573 0.4223 0.9047
vn 0.2476 0.4618 -0.8517
vn 0.1813 0.4674 0.8653
vn 0.0834 0.5008 -0.8615
vn 0.3046 0.4735 0.8265
vn -0.0045 0.9512 0.3087
vn -0.0049 0.9762 0.2168
vn -0.0222 0.9830 0.1820
vn -0.0379 0.9813 0.1888
vn -0.0137 0.9826 0.1855
vn -0.0423 0.9648 0.2597
vn -0.4444 0.1720 0.8791
vn -0.5697 0.1979 0.7977
vn -0.7448 0.1494 0.6504
vn -0.8541 0.1169 0.5069
vn -0.9379 0.0990 0.3326
vn -0.9898 0.0981 0.1036
vn -0.9787 0.1117 -0.1720
vn -0.9422 0.1223 -0.3120
vn -0.8560 0.1217 -0.5024
vn -0.7718 0.1252 -0.6234
vn -0.6005 0.1208 -0.7905
vn -0.4193 0.0906 -0.9033
vn -0.2846 0.1007 -0.9533
vn -0.0841 0.1204 -0.9892
vn -0.5496 0.1742 0.8171
vn -0.1334 0.2385 0.9619
vn -0.8636 0.1507 0.4811
vn -0.7334 0.1300 0.6673
vn 0.0175 -0.9892 -0.1452
vn 0.0058 0.9770 0.2133
vn 0.0210 0.9824 0.1855
vn -0.1952 0.5088 -0.8385
vn -0.5595 0.5430 -0.6262
vn -0.1170 0.9907 0.0700
vn 0.6558 0.3516 0.6680
vn 0.0378 -0.9870 -0.1561
vn 0.0106 -0.9903 -0.1389
vn -0.1641 -0.4662 -0.8693
vn -0.6357 -0.4667 -0.6149
vn -0.1091 -0.9686 -0.2235
vn 0.6823 0.1325 0.7190
vn 0.9906 0.1145 -0.0753
vn 0.0079 0.9703 0.2417
vn 0.0098 0.9763 0.2161
vn -0.7245 0.5310 -0.4395
vn -0.8240 0.5167 0.2325
vn -0.0112 0.9848 0.1732
vn -0.1720 0.9819 0.0794
vn -0.7491 -0.4790 -0.4576
vn 0.0001 -0.9964 -0.0846
vn -0.8436 -0.5312 0.0784
vn 0.0038 -0.9912 -0.1323
vn -0.0904 -0.9747 -0.2045
vn -0.1594 -0.9781 -0.1339
vn 0.9807 0.1846 -0.0639
vn 0.8245 0.0743 0.5609
vn 0.7922 0.2835 0.5405
vn -0.0307 0.9781 0.2059
vn -0.0175 0.9792 0.2019
vn 0.1912 0.4769 -0.8579
vn 0.6503 0.4699 -0.5970
vn 0.0172 0.9814 0.1914
vn -0.6829 0.1429 0.7164
vn -0.0223 -0.9858 -0.1665
vn -0.0172 -0.9879 -0.1541
vn 0.2116 -0.4726 -0.8555
vn 0.6183 -0.4393 -0.6517
vn 0.0062 -0.9843 -0.1765
vn -0.6767 0.1750 0.7151
vn -0.9879 0.1007 -0.1179
vn -0.0317 0.9885 0.1476
vn -0.0241 0.9802 0.1968
vn 0.7637 0.4679 -0.4447
vn 0.8484 0.5159 0.1183
vn 0.1874 0.9654 0.1812
vn 0.0600 0.9799 0.1900
vn 0.7332 -0.4588 -0.5019
vn 0.0037 -0.9978 -0.0665
vn 0.8695 -0.4877 0.0781
vn 0.0026 -0.9940 -0.1096
vn 0.0492 -0.9816 -0.1844
vn 0.0285 -0.9923 -0.1208
vn -0.9893 0.0819 -0.1212
vn -0.8197 0.1342 0.5568
vn -0.8062 0.1271 0.5778
vn -0.3648 -0.7190 0.5915
vn -0.3049 0.4773 0.8242
vn 0.3662 -0.4402 0.8198
vn -0.2654 0.8127 0.5187
vn -0.2622 0.7952 0.5467
vn 0.2177 0.8644 0.4531
vn 0.3021 -0.7020 0.6449
vn -0.2942 0.7966 0.5280
vn -0.1102 -0.4629 0.8795
vn 0.3597 -0.6948 0.6228
vn 0.1203 0.8468 0.5181
vn -0.3496 -0.7534 0.5569
vn 0.4025 -0.6820 0.6107
vn 0.2935 0.5020 0.8136
vn -0.3461 -0.3974 0.8499
vn 0.2513 0.8353 0.4889
vn 0.2789 0.7974 0.5351
vn -0.2687 0.8044 0.5298
vn 0.2359 0.8311 0.5036
vn -0.2730 -0.7608 0.5888
vn 0.1672 -0.5542 0.8154
vn -0.3396 -0.7269 0.5969
vn -0.1571 0.8251 0.5426
vn 0.4199 -0.6401 0.6434
vn -0.2197 0.1447 0.9648
vn 0.3482 0.1729 0.9213
vn 0.0454 0.8677 0.4950
vn 0.0546 0.8193 0.5707
vn -0.0994 -0.9692 -0.2253
vn -0.0393 -0.9923 -0.1176
vn -0.0561 -0.9941 -0.0925
vn 0.2093 -0.9547 -0.2115
vn 0.1673 -0.9756 -0.1421
vn 0.0926 -0.9948 -0.0420
vn -0.1536 -0.9689 -0.1941
vn -0.0660 -0.9950 -0.0746
vn -0.1175 -0.9596 -0.2558
vn -0.0459 -0.9933 -0.1062
vn -0.0955 -0.9651 -0.2437
vn -0.0579 -0.9916 -0.1157
vn -0.0543 -0.9668 -0.2497
vn -0.0653 -0.9925 -0.1036
vn -0.0442 -0.9693 -0.2421
vn -0.0564 -0.9867 -0.1526
vn -0.0091 -0.9753 -0.2208
vn -0.0158 -0.9984 -0.0544
vn -0.1617 -0.9717 -0.1722
vn -0.0509 -0.9973 -0.0526
vn 0.1399 -0.9689 -0.2043
vn 0.1046 -0.9939 -0.0358
vn 0.0921 -0.9777 -0.1888
vn 0.1200 -0.9865 -0.1110
vn 0.0745 -0.9795 -0.1871
vn 0.1672 -0.9855 -0.0304
vn 0.0403 -0.9755 -0.2161
vn 0.1918 -0.9787 -0.0733
vn 0.0028 -0.9736 -0.2281
vn 0.2129 -0.9607 -0.1781
vn 0.0018 -0.9775 -0.2111
vn 0.0286 -0.9961 -0.0838
vn 0.1944 -0.9556 -0.2213
vn 0.0634 -0.9978 -0.0194
vn 0.6111 0.1282 0.7811
vn -0.0423 -0.9953 -0.0874
vn -0.0120 -0.9902 -0.1388
vn -0.7013 0.0544 0.7108
vn -0.1123 0.9452 0.3067
vn -0.1856 0.9653 0.1840
vn -0.0510 0.9730 0.2249
vn 0.4329 0.7862 0.4411
vn 0.4042 0.9105 0.0872
vn 0.2998 0.8404 0.4514
vn -0.2376 0.9512 0.1967
vn -0.0238 0.9973 0.0698
vn -0.1558 0.9750 0.1587
vn -0.0100 0.9986 0.0524
vn -0.0033 0.8626 0.5059
vn -0.1389 0.9789 0.1496
vn -0.0676 0.9691 0.2373
vn -0.1214 0.9846 0.1260
vn -0.0744 0.9574 0.2790
vn -0.1238 0.9883 0.0893
vn -0.2027 0.9384 0.2799
vn -0.0828 0.9945 0.0645
vn -0.2587 0.9174 0.3024
vn -0.0296 0.9969 0.0732
vn 0.4279 0.8770 0.2187
vn 0.0251 0.9993 0.0274
vn 0.4622 0.8846 0.0616
vn 0.0180 0.9994 0.0280
vn 0.0381 0.8883 0.4576
vn 0.3751 0.9223 0.0930
vn 0.1563 0.8913 0.4255
vn 0.2538 0.9656 0.0570
vn 0.3713 0.7938 0.4817
vn 0.2028 0.9791 0.0137
vn 0.4664 0.7855 0.4068
vn 0.1276 0.9915 0.0239
vn 0.4877 0.8119 0.3208
vn 0.0913 0.9942 0.0562
vn -0.3791 0.0671 0.9229
vn 0.2388 0.1786 0.9545
vn 0.7466 0.2598 0.6124
vn 0.7193 0.2346 0.6539
vn 0.5809 0.2502 0.7746
vn 0.5056 0.2844 0.8146
vn 0.3787 0.3029 0.8746
vn -0.7430 -0.0894 0.6633
vn -0.0372 -0.9985 -0.0406
vn -0.2793 0.0006 0.9602
vn -0.5000 -0.0987 0.8604
vn -0.5665 -0.0999 0.8180
vn -0.7055 -0.1174 0.6990
vn 0.0554 0.9311 0.3607
vn -0.0502 0.9419 0.3321
vn -0.0183 0.9389 0.3436
vn -0.0015 0.9282 0.3722
vn 0.0056 0.9566 0.2913
vn 0.0624 0.9526 0.2979
vn 0.0823 0.2556 0.9633
vn 0.0788 -0.9946 -0.0677
vn -0.0607 -0.9975 -0.0374
vn -0.0503 -0.9979 -0.0399
vn -0.1045 -0.4771 -0.8726
vn 0.0635 -0.9970 -0.0441
vn 0.0975 -0.4803 -0.8717
vn -0.0853 0.2734 0.9581
vn 0.0911 0.2896 0.9528
vn -0.1556 0.2689 0.9505
vn -0.1021 0.2468 0.9637
vn 0.0561 0.1972 0.9788
vn 0.1150 0.3268 0.9381
vn 0.0190 0.3354 0.9419
vn 0.0919 0.2211 0.9709
vn 0.0449 0.2146 0.9757
vn 0.0230 0.1944 0.9807
vn -0.0726 0.1963 0.9778
vn -0.1346 0.2110 0.9682
vn -0.1740 0.1546 0.9725
vn 0.0910 0.2779 0.9563
vn 0.7321 -0.0878 0.6755
vn 0.5712 -0.0490 0.8194
vn 0.4989 -0.0497 0.8653
vn 0.2867 0.0687 0.9556
vn 0.1431 0.1930 0.9707
vn 0.0207 0.2336 0.9721
vn 0.0389 0.2100 0.9769
vn -0.0067 0.1269 0.9919
vn -0.0070 0.1954 0.9807
vn -0.0826 0.2291 0.9699
vn -0.1164 0.2898 0.9500
vn -0.3518 0.3274 0.8769
vn -0.5010 0.3144 0.8063
vn -0.5815 0.2898 0.7601
vn -0.7111 0.2489 0.6576
vn -0.7248 0.2429 0.6447
vn 0.7274 -0.1863 0.6604
vn 0.1171 0.0821 0.9897
vn 0.0527 0.1283 0.9903
vn -0.0349 0.1355 0.9902
vn -0.0746 0.0563 0.9956
usemtl roca
s off
f 1/1/1 2/2/1 3/3/1 4/4/1
f 5/5/2 1/1/2 4/4/2 6/6/2
f 7/7/3 5/5/3 6/6/3 8/8/3
f 9/9/4 7/7/4 8/8/4 10/10/4
f 11/11/5 9/9/5 10/10/5 12/12/5
f 13/13/6 11/11/6 12/12/6 14/14/6
f 15/15/7 13/13/7 14/14/7 16/16/7
f 17/17/8 15/15/8 16/16/8 18/18/8
f 19/19/9 20/20/9 21/21/9 22/22/9
f 23/23/10 19/19/10 22/22/10 24/24/10
f 25/25/11 26/26/11 27/27/11 28/28/11
f 29/29/12 30/30/12 31/31/12 32/32/12
f 26/26/13 33/33/13 34/34/13 27/27/13
f 35/35/14 36/36/14 37/37/14 38/38/14
f 39/39/15 40/40/15 41/41/15 42/42/15
f 36/36/16 43/43/16 44/44/16 37/37/16
f 40/40/17 45/45/17 46/46/17 41/41/17
f 43/43/18 47/47/18 48/48/18 44/44/18
f 45/45/19 49/49/19 50/50/19 46/46/19
f 47/47/20 51/51/20 52/52/20 48/48/20
f 53/53/21 54/54/21 55/55/21 56/56/21
f 51/51/22 57/57/22 58/58/22 52/52/22
f 59/59/23 25/25/23 28/28/23 60/60/23
f 57/57/24 29/29/24 32/32/24 58/58/24
f 60/61/25 28/62/25 61/63/25 62/64/25
f 28/62/26 27/65/26 63/66/26 61/63/26
f 27/65/27 34/67/27 64/68/27 63/66/27
f 38/69/28 37/70/28 65/71/28 66/72/28
f 34/34/29 33/33/29 67/73/29 68/74/29
f 37/70/30 44/75/30 69/76/30 65/71/30
f 70/77/31 71/78/31 72/79/31 73/80/31
f 44/75/32 48/81/32 74/82/32 69/76/32
f 48/81/33 52/83/33 75/84/33 74/82/33
f 52/83/34 58/85/34 76/86/34 75/84/34
f 58/85/35 32/87/35 77/88/35 76/86/35
f 32/87/36 31/89/36 78/90/36 77/88/36
f 79/91/37 80/92/37 66/93/37 65/94/37
f 42/95/38 41/96/38 81/97/38 82/98/38
f 82/99/39 81/100/39 83/101/39 79/91/39
f 41/96/40 46/102/40 83/103/40 81/97/40
f 46/102/41 50/104/41 84/105/41 83/103/41
f 56/106/42 55/107/42 85/108/42 86/109/42
f 87/110/43 88/111/43 89/112/43 79/91/43
f 69/113/44 74/114/44 79/91/44 65/94/44
f 75/115/45 76/116/45 79/91/45 74/114/45
f 77/117/46 78/118/46 79/91/46 76/116/46
f 90/119/47 91/120/47 92/121/47 93/122/47
f 94/123/48 95/124/48 96/125/48 97/126/48
f 98/127/49 90/119/49 93/122/49 99/128/49
f 100/129/50 94/123/50 97/126/50 101/130/50
f 102/131/51 98/127/51 99/128/51 103/132/51
f 104/133/52 105/134/52 106/135/52 107/136/52
f 108/137/53 102/131/53 103/132/53 109/138/53
f 110/139/54 111/140/54 112/141/54 113/142/54
f 114/143/55 108/137/55 109/138/55 115/144/55
f 116/145/56 110/139/56 113/142/56 117/146/56
f 118/147/57 119/148/57 120/149/57 121/150/57
f 122/151/58 114/143/58 115/144/58 123/152/58
f 91/120/59 118/147/59 121/150/59 92/121/59
f 95/124/60 124/153/60 125/154/60 96/125/60
f 99/155/61 93/156/61 126/157/61 127/158/61
f 128/159/62 129/160/62 130/161/62 131/162/62
f 103/163/63 99/155/63 127/158/63 132/164/63
f 109/165/64 103/163/64 132/164/64 133/166/64
f 115/167/65 109/165/65 133/166/65 134/168/65
f 123/169/66 115/167/66 134/168/66 135/170/66
f 96/171/67 125/172/67 136/173/67 137/174/67
f 97/175/68 96/171/68 137/174/68 138/176/68
f 101/177/69 97/175/69 138/176/69 139/178/69
f 107/179/70 106/180/70 140/181/70 141/182/70
f 113/183/71 112/184/71 142/185/71 143/186/71
f 117/187/72 113/183/72 143/186/72 144/188/72
f 121/189/73 120/190/73 131/191/73 130/192/73
f 145/193/74 117/187/74 144/188/74 146/194/74
f 92/195/75 121/189/75 130/192/75 147/196/75
f 148/197/76 149/198/76 150/199/76 151/200/76
f 93/156/77 92/195/77 147/196/77 126/157/77
f 129/160/78 152/201/78 151/202/78 150/203/78
f 151/200/79 153/204/79 148/197/79
f 146/205/80 144/206/80 143/207/80 129/160/80
f 134/208/81 133/209/81 132/210/81 129/160/81
f 127/211/82 126/212/82 129/160/82 132/210/82
f 126/212/83 147/213/83 130/161/83 129/160/83
f 129/160/84 135/214/84 134/208/84
f 154/215/85 155/216/85 156/217/85 157/218/85
f 155/216/86 158/219/86 159/220/86 156/217/86
f 160/221/87 161/222/87 162/223/87 163/224/87
f 164/225/88 165/226/88 23/23/88 166/227/88
f 165/226/89 167/228/89 19/19/89 23/23/89
f 167/228/90 168/229/90 20/20/90 19/19/90
f 169/230/91 170/231/91 15/15/91 17/17/91
f 170/231/92 171/232/92 13/13/92 15/15/92
f 171/232/93 172/233/93 11/11/93 13/13/93
f 172/233/94 173/234/94 9/9/94 11/11/94
f 173/234/95 174/235/95 7/7/95 9/9/95
f 174/235/96 175/236/96 5/5/96 7/7/96
f 175/236/97 176/237/97 1/1/97 5/5/97
f 176/237/98 177/238/98 2/2/98 1/1/98
f 178/239/99 179/240/99 180/241/99 181/242/99
f 182/243/100 178/239/100 181/242/100 183/244/100
f 184/245/101 23/23/101 24/24/101 185/246/101
f 186/247/102 187/248/102 188/249/102 189/250/102
f 190/251/103 72/79/103 71/78/103
f 191/252/104 73/253/104 72/254/104 79/91/104
f 192/255/105 193/256/105 129/160/105 194/257/105
f 195/258/106 196/259/106 3/3/106 2/2/106
f 197/260/107 198/261/107 196/259/107 195/258/107
f 199/262/108 200/263/108 198/261/108 197/260/108
f 201/264/109 202/265/109 200/263/109 199/262/109
f 203/266/110 204/267/110 202/265/110 201/264/110
f 205/268/111 206/269/111 204/267/111 203/266/111
f 207/270/112 208/271/112 206/269/112 205/268/112
f 209/272/113 210/273/113 208/271/113 207/270/113
f 211/274/114 212/275/114 213/276/114 214/277/114
f 215/278/115 216/279/115 212/275/115 211/274/115
f 217/280/116 218/281/116 219/282/116 220/283/116
f 221/284/117 222/285/117 223/286/117 224/287/117
f 220/283/118 219/282/118 225/288/118 226/289/118
f 35/35/119 38/38/119 227/290/119 228/291/119
f 229/292/120 230/293/120 231/294/120 232/295/120
f 228/291/121 227/290/121 233/296/121 234/297/121
f 232/295/122 231/294/122 235/298/122 236/299/122
f 234/297/123 233/296/123 237/300/123 238/301/123
f 236/299/124 235/298/124 239/302/124 240/303/124
f 238/301/125 237/300/125 241/304/125 242/305/125
f 243/306/126 244/307/126 245/308/126 246/309/126
f 242/305/127 241/304/127 247/310/127 248/311/127
f 249/312/128 250/313/128 218/281/128 217/280/128
f 248/311/129 247/310/129 222/285/129 221/284/129
f 250/314/130 87/315/130 251/316/130 218/317/130
f 218/317/131 251/316/131 252/318/131 219/319/131
f 219/319/132 252/318/132 253/320/132 225/321/132
f 38/69/133 66/72/133 80/322/133 227/323/133
f 225/288/134 254/324/134 255/325/134 226/289/134
f 227/323/135 80/322/135 256/326/135 233/327/135
f 257/328/136 258/329/136 72/79/136 190/251/136
f 233/327/137 256/326/137 259/330/137 237/331/137
f 237/331/138 259/330/138 260/332/138 241/333/138
f 241/333/139 260/332/139 261/334/139 247/335/139
f 247/335/140 261/334/140 262/336/140 222/337/140
f 222/337/141 262/336/141 263/338/141 223/339/141
f 129/160/142 141/340/142 140/341/142 139/342/142
f 230/343/143 264/344/143 265/345/143 231/346/143
f 264/347/144 79/91/144 266/348/144 265/349/144
f 231/346/145 265/345/145 266/350/145 235/351/145
f 235/351/146 266/350/146 267/352/146 239/353/146
f 244/354/147 89/355/147 88/356/147 245/357/147
f 62/358/148 79/91/148 86/359/148 85/360/148
f 256/361/149 80/92/149 79/91/149 259/362/149
f 260/363/150 259/362/150 79/91/150 261/364/150
f 262/365/151 261/364/151 79/91/151 263/366/151
f 268/367/152 269/368/152 270/369/152 271/370/152
f 272/371/153 273/372/153 274/373/153 275/374/153
f 276/375/154 277/376/154 269/368/154 268/367/154
f 278/377/155 279/378/155 273/372/155 272/371/155
f 280/379/156 281/380/156 277/376/156 276/375/156
f 282/381/157 283/382/157 284/383/157 285/384/157
f 286/385/158 287/386/158 281/380/158 280/379/158
f 288/387/159 289/388/159 290/389/159 291/390/159
f 292/391/160 293/392/160 287/386/160 286/385/160
f 294/393/161 295/394/161 289/388/161 288/387/161
f 296/395/162 297/396/162 120/149/162 119/148/162
f 298/397/163 299/398/163 293/392/163 292/391/163
f 271/370/164 270/369/164 297/396/164 296/395/164
f 275/374/165 274/373/165 300/399/165 301/400/165
f 277/401/166 302/402/166 303/403/166 269/404/166
f 281/405/167 304/406/167 302/402/167 277/401/167
f 287/407/168 305/408/168 304/406/168 281/405/168
f 293/409/169 306/410/169 305/408/169 287/407/169
f 299/411/170 307/412/170 306/410/170 293/409/170
f 274/413/171 308/414/171 309/415/171 300/416/171
f 273/417/172 310/418/172 308/414/172 274/413/172
f 279/419/173 194/420/173 310/418/173 273/417/173
f 283/421/174 193/422/174 192/423/174 284/424/174
f 289/425/175 311/426/175 312/427/175 290/428/175
f 295/429/176 313/430/176 311/426/176 289/425/176
f 297/431/177 128/432/177 131/191/177 120/190/177
f 314/433/178 315/434/178 313/430/178 295/429/178
f 270/435/179 316/436/179 128/432/179 297/431/179
f 153/204/180 151/200/180 152/437/180 317/438/180
f 269/404/181 303/403/181 316/436/181 270/435/181
f 148/439/182 153/440/182 318/441/182 319/442/182
f 315/443/183 129/160/183 311/444/183 313/445/183
f 306/446/184 129/160/184 304/447/184 305/448/184
f 302/449/185 304/447/185 129/160/185 303/450/185
f 303/450/186 129/160/186 128/159/186 316/451/186
f 129/160/187 306/446/187 307/452/187
f 320/453/188 321/454/188 322/455/188 323/456/188
f 323/456/189 322/455/189 324/457/189 325/458/189
f 326/459/190 327/460/190 328/461/190 329/462/190
f 330/463/191 331/464/191 215/278/191 332/465/191
f 332/465/192 215/278/192 211/274/192 333/466/192
f 333/466/193 211/274/193 214/277/193 334/467/193
f 335/468/194 209/272/194 207/270/194 336/469/194
f 336/469/195 207/270/195 205/268/195 337/470/195
f 337/470/196 205/268/196 203/266/196 338/471/196
f 338/471/197 203/266/197 201/264/197 339/472/197
f 339/472/198 201/264/198 199/262/198 340/473/198
f 340/473/199 199/262/199 197/260/199 341/474/199
f 341/474/200 197/260/200 195/258/200 342/475/200
f 342/475/201 195/258/201 2/2/201 177/238/201
f 343/476/202 344/477/202 345/478/202 346/479/202
f 347/480/203 348/481/203 344/477/203 343/476/203
f 349/482/204 350/483/204 216/279/204 215/278/204
f 351/484/205 352/485/205 353/486/205 354/487/205
f 355/488/206 79/91/206 72/254/206 258/489/206
f 150/203/207 146/205/207 129/160/207
f 143/207/208 142/490/208 141/340/208 129/160/208
f 149/198/209 145/193/209 146/194/209 150/199/209
f 112/184/210 107/179/210 141/182/210 142/185/210
f 111/140/211 104/133/211 107/136/211 112/141/211
f 179/240/212 186/247/212 189/250/212 180/241/212
f 64/491/213 191/252/213 79/91/213 63/492/213
f 61/493/214 63/492/214 79/91/214 62/358/214
f 34/67/215 68/494/215 191/495/215 64/68/215
f 55/107/216 60/61/216 62/64/216 85/108/216
f 54/54/217 59/59/217 60/60/217 55/55/217
f 158/219/218 160/221/218 163/224/218 159/220/218
f 168/229/219 169/230/219 17/17/219 20/20/219
f 137/496/220 136/497/220 135/214/220 129/160/220
f 138/498/221 137/496/221 129/160/221 139/342/221
f 106/180/222 101/177/222 139/178/222 140/181/222
f 125/172/223 123/169/223 135/170/223 136/173/223
f 124/153/224 122/151/224 123/152/224 125/154/224
f 105/134/225 100/129/225 101/130/225 106/135/225
f 50/104/226 56/106/226 86/109/226 84/105/226
f 78/118/227 82/99/227 79/91/227
f 31/89/228 42/95/228 82/98/228 78/90/228
f 84/499/229 86/359/229 79/91/229 83/101/229
f 49/49/230 53/53/230 56/56/230 50/50/230
f 30/30/231 39/39/231 42/42/231 31/31/231
f 20/20/232 17/17/232 18/18/232 21/21/232
f 161/222/233 164/225/233 166/227/233 162/223/233
f 187/248/234 184/245/234 185/246/234 188/249/234
f 152/201/235 129/160/235 315/443/235
f 311/444/236 129/160/236 193/256/236 312/500/236
f 317/438/237 152/437/237 315/434/237 314/433/237
f 290/428/238 312/427/238 193/422/238 283/421/238
f 291/390/239 290/389/239 283/382/239 282/381/239
f 346/479/240 345/478/240 352/485/240 351/484/240
f 253/501/241 252/502/241 79/91/241 355/488/241
f 251/503/242 87/110/242 79/91/242 252/502/242
f 225/321/243 253/320/243 355/504/243 254/505/243
f 245/357/244 88/356/244 87/315/244 250/314/244
f 246/309/245 245/308/245 250/313/245 249/312/245
f 325/458/246 324/457/246 327/460/246 326/459/246
f 334/467/247 214/277/247 209/272/247 335/468/247
f 308/506/248 129/160/248 307/452/248 309/507/248
f 310/508/249 194/257/249 129/160/249 308/506/249
f 284/424/250 192/423/250 194/420/250 279/419/250
f 300/416/251 309/415/251 307/412/251 299/411/251
f 301/400/252 300/399/252 299/398/252 298/397/252
f 285/384/253 284/383/253 279/378/253 278/377/253
f 239/353/254 267/352/254 89/355/254 244/354/254
f 263/366/255 79/91/255 264/347/255
f 223/339/256 263/338/256 264/344/256 230/343/256
f 267/509/257 266/348/257 79/91/257 89/112/257
f 240/303/258 239/302/258 244/307/258 243/306/258
f 224/287/259 223/286/259 230/293/259 229/292/259
f 214/277/260 213/276/260 210/273/260 209/272/260
f 329/462/261 328/461/261 331/464/261 330/463/261
f 354/487/262 353/486/262 350/483/262 349/482/262
f 351/510/263 354/511/263 356/512/263 357/513/263
f 215/514/264 331/515/264 358/516/264 359/517/264
f 23/518/265 184/519/265 360/520/265 361/521/265
f 328/522/266 327/523/266 362/524/266 363/525/266
f 331/515/267 328/522/267 363/525/267 358/516/267
f 156/526/268 159/527/268 364/528/268 365/529/268
f 179/530/269 178/531/269 366/532/269 367/533/269
f 327/523/270 324/534/270 368/535/270 362/524/270
f 347/536/271 343/537/271 369/538/271 370/539/271
f 186/540/272 179/530/272 367/533/272 371/541/272
f 157/542/273 156/526/273 365/529/273 372/543/273
f 354/511/274 349/544/274 373/545/274 356/512/274
f 187/546/275 186/540/275 371/541/275 374/547/275
f 166/548/276 23/518/276 361/521/276 375/549/276
f 349/544/277 215/514/277 359/517/277 373/545/277
f 163/550/278 162/551/278 376/552/278 377/553/278
f 162/551/279 166/548/279 375/549/279 376/552/279
f 324/534/280 322/554/280 378/555/280 368/535/280
f 159/527/281 163/550/281 377/553/281 364/528/281
f 343/537/282 346/556/282 379/557/282 369/538/282
f 178/531/283 182/558/283 380/559/283 366/532/283
f 346/556/284 351/510/284 357/513/284 379/557/284
f 322/554/285 321/560/285 381/561/285 378/555/285
f 184/519/286 187/546/286 374/547/286 360/520/286
f 382/562/287 321/454/287 320/453/287 383/563/287
f 384/564/288 385/565/288 154/215/288 157/218/288
f 386/566/289 384/567/289 157/542/289 372/543/289
f 381/561/290 321/560/290 382/568/290 387/569/290
f 336/570/291 224/287/291 229/292/291 335/571/291
f 332/572/292 240/303/292 243/306/292 330/573/292
f 329/574/293 246/309/293 249/312/293 326/575/293
f 170/576/294 169/577/294 39/39/294 30/30/294
f 165/578/295 164/579/295 53/53/295 49/49/295
f 161/580/296 160/581/296 59/59/296 54/54/296
f 338/582/297 248/311/297 221/284/297 337/583/297
f 326/575/298 249/312/298 217/280/298 325/584/298
f 339/585/299 242/305/299 248/311/299 338/582/299
f 330/573/300 243/306/300 246/309/300 329/574/300
f 340/586/301 238/301/301 242/305/301 339/585/301
f 333/587/302 236/299/302 240/303/302 332/572/302
f 341/588/303 234/297/303 238/301/303 340/586/303
f 334/589/304 232/295/304 236/299/304 333/587/304
f 342/590/305 228/291/305 234/297/305 341/588/305
f 335/571/306 229/292/306 232/295/306 334/589/306
f 177/591/307 35/35/307 228/291/307 342/590/307
f 323/592/308 220/283/308 226/289/308 320/593/308
f 337/583/309 221/284/309 224/287/309 336/570/309
f 325/584/310 217/280/310 220/283/310 323/592/310
f 172/594/311 171/595/311 29/29/311 57/57/311
f 160/581/312 158/596/312 25/25/312 59/59/312
f 173/597/313 172/594/313 57/57/313 51/51/313
f 164/579/314 161/580/314 54/54/314 53/53/314
f 174/598/315 173/597/315 51/51/315 47/47/315
f 167/599/316 165/578/316 49/49/316 45/45/316
f 175/600/317 174/598/317 47/47/317 43/43/317
f 168/601/318 167/599/318 45/45/318 40/40/318
f 176/602/319 175/600/319 43/43/319 36/36/319
f 169/577/320 168/601/320 40/40/320 39/39/320
f 177/591/321 176/602/321 36/36/321 35/35/321
f 155/603/322 154/604/322 33/33/322 26/26/322
f 171/595/323 170/576/323 30/30/323 29/29/323
f 158/596/324 155/603/324 26/26/324 25/25/324
f 382/605/325 383/606/325 255/607/325 387/608/325
f 383/609/326 320/593/326 226/289/326 255/325/326
f 385/610/327 67/73/327 33/33/327 154/604/327
f 385/611/328 384/612/328 386/613/328 67/614/328
f 353/615/329 285/384/329 278/377/329 350/616/329
f 213/617/330 301/400/330 298/397/330 210/618/330
f 345/619/331 291/390/331 282/381/331 352/620/331
f 188/621/332 185/622/332 100/129/332 105/134/332
f 21/623/333 18/624/333 122/151/333 124/153/333
f 180/625/334 189/626/334 104/133/334 111/140/334
f 212/627/335 275/374/335 301/400/335 213/617/335
f 198/628/336 271/370/336 296/395/336 196/629/336
f 210/618/337 298/397/337 292/391/337 208/630/337
f 196/629/338 296/395/338 119/148/338 3/631/338
f 348/632/339 294/393/339 288/387/339 344/633/339
f 208/630/340 292/391/340 286/385/340 206/634/340
f 344/633/341 288/387/341 291/390/341 345/619/341
f 206/634/342 286/385/342 280/379/342 204/635/342
f 352/620/343 282/381/343 285/384/343 353/615/343
f 204/635/344 280/379/344 276/375/344 202/636/344
f 350/616/345 278/377/345 272/371/345 216/637/345
f 202/636/346 276/375/346 268/367/346 200/638/346
f 216/637/347 272/371/347 275/374/347 212/627/347
f 200/638/348 268/367/348 271/370/348 198/628/348
f 22/639/349 21/623/349 124/153/349 95/124/349
f 6/640/350 4/641/350 118/147/350 91/120/350
f 18/624/351 16/642/351 114/143/351 122/151/351
f 4/641/352 3/631/352 119/148/352 118/147/352
f 183/643/353 181/644/353 110/139/353 116/145/353
f 16/642/354 14/645/354 108/137/354 114/143/354
f 181/644/355 180/625/355 111/140/355 110/139/355
f 14/645/356 12/646/356 102/131/356 108/137/356
f 189/626/357 188/621/357 105/134/357 104/133/357
f 12/646/358 10/647/358 98/127/358 102/131/358
f 185/622/359 24/648/359 94/123/359 100/129/359
f 10/647/360 8/649/360 90/119/360 98/127/360
f 24/648/361 22/639/361 95/124/361 94/123/361
f 8/649/362 6/640/362 91/120/362 90/119/362
f 116/650/363 380/651/363 182/652/363 183/653/363
f 348/654/364 347/655/364 370/656/364 294/657/364
f 388/658/365 376/659/365 375/660/365 361/661/365
f 389/662/366 377/663/366 376/659/366 388/658/366
f 390/664/367 364/665/367 377/663/367 389/662/367
f 391/666/368 365/667/368 364/665/368 390/664/368
f 392/668/369 372/669/369 365/667/369 391/666/369
f 393/670/370 356/671/370 373/672/370 359/673/370
f 71/674/371 394/675/371 395/676/371 190/677/371
f 396/678/372 370/679/372 369/680/372 397/681/372
f 397/681/373 369/680/373 379/682/373 398/683/373
f 398/683/374 379/682/374 357/684/374 399/685/374
f 399/685/375 357/684/375 356/671/375 393/670/375
f 149/686/376 148/439/376 319/442/376 400/687/376
f 153/440/377 317/688/377 401/689/377 318/441/377
f 317/688/378 314/690/378 402/691/378 401/689/378
f 145/692/379 149/686/379 400/687/379 403/693/379
f 145/692/380 403/693/380 116/145/380 117/146/380
f 314/690/381 295/394/381 294/393/381 402/691/381
f 404/694/382 319/695/382 318/696/382 405/697/382
f 257/698/383 406/699/383 255/325/383 254/324/383
f 70/700/384 68/74/384 67/73/384 407/701/384
f 71/674/385 70/700/385 407/701/385 394/675/385
f 68/494/386 70/77/386 73/80/386 191/495/386
f 190/677/387 395/676/387 406/699/387 257/698/387
f 254/505/388 355/504/388 258/329/388 257/328/388
f 408/702/389 402/703/389 294/704/389 370/679/389
f 409/705/390 386/706/390 372/669/390 392/668/390
f 408/702/391 410/707/391 401/708/391 402/703/391
f 410/707/392 405/697/392 318/696/392 401/708/392
f 411/709/393 412/710/393 404/694/393 405/697/393
f 404/694/394 413/711/394 400/712/394 319/695/394
f 413/711/395 414/713/395 403/714/395 400/712/395
f 415/715/396 409/705/396 414/713/396 413/711/396
f 412/710/397 415/715/397 413/711/397 404/694/397
f 416/716/398 417/717/398 412/710/398 411/709/398
f 418/718/399 411/709/399 405/697/399 410/707/399
f 419/719/400 418/718/400 410/707/400 408/702/400
f 419/719/401 408/702/401 370/679/401 396/678/401
f 403/714/402 414/713/402 380/720/402 116/721/402
f 371/722/403 389/662/403 388/658/403 374/723/403
f 367/724/404 390/664/404 389/662/404 371/722/404
f 366/725/405 391/666/405 390/664/405 367/724/405
f 380/720/406 392/668/406 391/666/406 366/725/406
f 414/713/407 409/705/407 392/668/407 380/720/407
f 420/726/408 386/706/408 409/705/408 415/715/408
f 417/717/409 420/726/409 415/715/409 412/710/409
f 395/727/410 394/728/410 417/717/410 416/716/410
f 421/729/411 416/716/411 411/709/411 418/718/411
f 387/730/412 421/729/412 418/718/412 419/719/412
f 387/730/413 419/719/413 396/678/413 381/731/413
f 381/731/414 396/678/414 397/681/414 378/732/414
f 378/732/415 397/681/415 398/683/415 368/733/415
f 368/733/416 398/683/416 399/685/416 362/734/416
f 362/734/417 399/685/417 393/670/417 363/735/417
f 363/735/418 393/670/418 359/673/418 358/736/418
f 374/723/419 388/658/419 361/661/419 360/737/419
f 394/728/420 407/738/420 420/726/420 417/717/420
f 406/739/421 395/727/421 416/716/421 421/729/421
f 255/740/422 406/739/422 421/729/422 387/730/422
f 407/738/423 67/741/423 386/706/423 420/726/423
