# Blender v2.93.3 OBJ File: ''
# www.blender.org
mtllib cuerpo3.mtl
o cuerpo_3_gancho_low
v 0.070757 1.149080 0.804634
v 0.130086 1.153398 0.800006
v 0.119908 1.245293 0.789649
v 0.072674 1.226309 0.788602
v 0.079288 0.966445 0.808379
v 0.155253 0.968851 0.797613
v 0.098523 1.309600 0.724386
v 0.062165 1.293901 0.722357
v 0.255208 1.180443 0.779544
v 0.209061 1.277210 0.775979
v 0.369561 1.223541 0.737559
v 0.302256 1.326442 0.742062
v 0.469865 1.281768 0.684550
v 0.383486 1.396008 0.700463
v 0.546270 1.347897 0.611977
v 0.441898 1.476357 0.640401
v 0.586750 1.419036 0.532356
v 0.481249 1.569491 0.573268
v 0.596047 1.500693 0.443738
v 0.507066 1.673042 0.510173
v 0.605653 1.602979 0.363501
v 0.518742 1.778957 0.451731
v 0.605500 1.692015 0.294020
v 0.510309 1.885564 0.390402
v 0.581050 1.783570 0.225523
v 0.486005 1.992571 0.330146
v 0.538076 1.869507 0.156176
v 0.441283 2.097556 0.274069
v 0.470382 1.948400 0.088530
v 0.368884 2.193611 0.228234
v 0.383095 2.019415 0.025810
v 0.284649 2.256232 0.199872
v 0.272908 2.074747 -0.024782
v 0.192285 2.297948 0.180051
v 0.141259 2.112682 -0.059735
v 0.095778 2.326024 0.168750
v -0.003289 2.117092 -0.064670
v -0.004103 2.346219 0.167062
v 0.422915 1.804676 0.430470
v 0.434032 1.720090 0.476989
v 0.175471 1.217610 -0.597064
v 0.000247 1.227645 -0.623372
v 0.000016 1.388419 -0.564993
v 0.171782 1.378419 -0.541052
v 0.344643 1.200811 -0.555728
v 0.333432 1.355567 -0.493216
v 0.502668 1.176613 -0.495807
v 0.485218 1.326424 -0.430414
v 0.648030 1.147876 -0.420314
v 0.622619 1.291545 -0.354995
v 0.760546 1.104128 -0.310881
v 0.725359 1.243314 -0.254532
v 0.832299 1.051792 -0.185232
v 0.800023 1.189047 -0.137609
v 0.871887 0.998120 -0.055004
v 0.844456 1.133452 -0.015872
v 0.880234 0.943698 0.076695
v 0.856645 1.075968 0.107702
v 0.862977 0.890239 0.208487
v 0.839994 1.017372 0.234427
v 0.824354 0.839683 0.340440
v 0.801896 0.962509 0.361065
v 0.758501 0.793473 0.469462
v 0.737742 0.912193 0.484448
v 0.644181 0.751190 0.574726
v 0.631095 0.866399 0.589453
v 0.504244 0.716724 0.658272
v 0.494609 0.828622 0.671293
v 0.346992 0.691418 0.720312
v 0.341551 0.800308 0.735872
v -0.067749 0.937839 0.798764
v -0.078913 0.967983 0.805540
v -0.155056 0.971262 0.793501
v -0.124629 0.829700 0.769441
v -0.002863 1.656593 -0.408106
v 0.166145 1.650990 -0.403774
v 0.324909 1.622098 -0.353900
v 0.465481 1.586718 -0.284881
v 0.573597 1.534119 -0.194456
v 0.659897 1.474764 -0.097590
v 0.723118 1.412679 0.003350
v 0.759398 1.345613 0.109868
v 0.775527 1.281735 0.220678
v 0.763304 1.220766 0.331451
v 0.729117 1.163177 0.446453
v 0.670663 1.110161 0.556742
v 0.572791 1.060334 0.648912
v 0.447389 1.018923 0.716137
v 0.307329 0.988579 0.765701
v 0.124117 0.825017 0.780036
v 0.370461 1.484396 0.621507
v 0.311350 1.420559 0.658614
v 0.162770 2.186669 0.273777
v 0.241739 2.143872 0.282571
v 0.396279 1.887418 0.388934
v 0.406532 1.559358 0.573527
v 0.082630 2.209380 0.270764
v 0.165512 1.337810 0.711658
v 0.355736 1.975849 0.347782
v 0.424212 1.640393 0.527505
v -0.000142 2.217752 0.266078
v 0.240945 1.372526 0.689182
v 0.304980 2.073882 0.305272
v 0.541687 1.418247 0.561439
v 0.489531 1.370289 0.634632
v 0.616575 1.427078 0.472569
v 0.566901 1.489641 0.428918
v 0.583825 1.539245 0.355614
v 0.583219 1.543155 0.353643
v 0.444686 1.696260 0.301755
v 0.403334 1.715986 0.284230
v 0.194301 1.266212 0.649805
v 0.102686 1.248789 0.674922
v 0.245826 1.291300 0.640002
v 0.292778 1.346276 0.606993
v 0.293929 1.789326 0.236614
v 0.156140 1.861512 0.196835
v 0.096640 1.874941 0.190190
v 0.183163 1.856241 0.197077
v 0.162110 1.263676 0.631164
v 0.257078 1.409863 0.545653
v 0.325511 1.444728 0.516981
v 0.381440 1.483222 0.479896
v 0.415485 1.529298 0.449793
v 0.449892 1.588933 0.405582
v 0.461045 1.642249 0.365227
v 0.450147 1.695795 0.302453
v 0.416416 1.720209 0.280903
v 0.368996 1.751929 0.260013
v 0.304116 1.789338 0.235426
v 0.333514 1.755745 0.256279
v 0.248680 1.826895 0.213209
v -0.000583 1.664745 0.672869
v -0.028291 1.663045 0.670847
v -0.058167 1.380635 0.638645
v 0.002343 1.381552 0.648214
v 0.101814 1.387514 0.608148
v 0.057275 1.381167 0.632270
v 0.146002 1.398183 0.583308
v 0.002981 1.879129 0.193063
v 0.005016 1.881103 0.190420
v 0.233922 1.873412 0.340203
v 0.258030 1.853017 0.367382
v 0.160595 1.702826 0.587125
v 0.079223 1.680294 0.646590
v 0.272548 1.828296 0.396981
v 0.054640 1.674777 0.660022
v 0.273550 1.804377 0.426340
v 0.029369 1.666373 0.669126
v 0.261483 1.781442 0.456537
v -0.000543 1.239743 0.691434
v -0.105374 1.231476 0.679374
v -0.041397 1.280375 0.716700
v -0.000382 1.273087 0.696949
v 0.244586 1.757143 0.489157
v 0.223297 1.735952 0.522094
v 0.194730 1.717949 0.554134
v 0.002083 1.921637 0.293844
v 0.056018 1.923434 0.289841
v 0.107941 1.917497 0.296273
v 0.156232 1.906235 0.302867
v 0.196653 1.892136 0.312810
v 0.051904 1.203753 0.784262
v 0.051563 1.114099 0.803060
v 0.066261 0.936590 0.804523
v 0.039945 1.282069 0.717521
v -0.045316 1.205186 0.788195
v -0.037550 1.196437 0.773836
v 0.000196 1.835480 0.442811
v -0.083604 1.873420 0.199628
v -0.170921 1.842373 0.224659
v 0.611643 0.447986 -0.556055
v 0.719359 0.430499 -0.448458
v 0.626284 0.433768 -0.388092
v 0.530393 0.447282 -0.481098
v 0.719337 0.272544 0.334347
v 0.611731 0.252853 0.441398
v 0.534535 0.283476 0.389365
v 0.623726 0.292598 0.294772
v 0.799301 0.408004 -0.326263
v 0.691618 0.406283 -0.279911
v 0.480655 0.237743 0.529525
v 0.417757 0.273067 0.474801
v 0.848385 0.384507 -0.193550
v 0.732366 0.383637 -0.165927
v 0.332440 0.236239 0.596117
v 0.286852 0.251641 0.521204
v -0.000031 0.490248 -0.762038
v 0.168686 0.485302 -0.749033
v 0.146155 0.476272 -0.648813
v 0.000131 0.478040 -0.656048
v 0.865126 0.358485 -0.055653
v 0.748096 0.360537 -0.046646
v 0.331148 0.478735 -0.708696
v 0.287560 0.470594 -0.613562
v 0.848537 0.327317 0.081071
v 0.736651 0.337112 0.072838
v 0.480641 0.467974 -0.643127
v 0.414113 0.456883 -0.552975
v 0.799271 0.297241 0.212461
v 0.696001 0.316948 0.189932
v 0.434536 0.422641 0.311863
v 0.512130 0.440611 0.238256
v 0.340378 0.406388 0.370564
v 0.234175 0.393411 0.417332
v 0.120353 0.574695 -0.520556
v -0.000360 0.570500 -0.527568
v 0.233792 0.578798 -0.495499
v 0.340779 0.574991 -0.454637
v 0.435004 0.566013 -0.394038
v 0.511937 0.551563 -0.318577
v 0.567049 0.532462 -0.231624
v -0.000037 0.491951 -0.041000
v 0.598122 0.509173 -0.138713
v 0.594967 0.465773 0.053380
v 0.565549 0.451949 0.150137
v 0.606611 0.485866 -0.042682
v 0.120407 0.386142 0.444585
v 0.302156 0.292743 0.616935
v 0.153655 0.297471 0.599588
v 0.165155 0.253696 0.580979
v -0.118689 0.572624 -0.521919
v -0.000997 1.111266 0.779821
v 0.010557 0.941511 0.771036
v -0.078343 1.673011 0.646223
v -0.054284 1.666732 0.660690
v -0.070574 1.150708 0.815964
v -0.070774 1.229283 0.793971
v -0.118976 1.248546 0.797148
v -0.130992 1.154159 0.810676
v -0.063095 1.292935 0.721159
v -0.098465 1.308363 0.723317
v -0.208391 1.275576 0.774271
v -0.254966 1.180595 0.779092
v -0.300628 1.325758 0.736003
v -0.371474 1.223913 0.741656
v -0.383003 1.392588 0.695191
v -0.474485 1.283480 0.693032
v -0.444487 1.475050 0.639589
v -0.551886 1.351148 0.619905
v -0.486884 1.568173 0.572254
v -0.603234 1.426816 0.537696
v -0.516906 1.671920 0.510819
v -0.624904 1.506977 0.453315
v -0.526836 1.779588 0.454123
v -0.613148 1.593324 0.377484
v -0.512147 1.883002 0.389486
v -0.592668 1.685195 0.297177
v -0.477371 1.988316 0.330745
v -0.566262 1.776801 0.222790
v -0.429108 2.090230 0.275246
v -0.528810 1.865393 0.154461
v -0.355003 2.180686 0.235559
v -0.465743 1.945112 0.090163
v -0.273099 2.251366 0.212209
v -0.376920 2.013698 0.030746
v -0.187563 2.306734 0.193982
v -0.266576 2.069324 -0.020474
v -0.095894 2.338805 0.185949
v -0.137891 2.100971 -0.049944
v -0.435750 1.722737 0.479899
v -0.424339 1.804311 0.430046
v -0.178563 1.222945 -0.611562
v -0.174561 1.382555 -0.551988
v -0.350089 1.207111 -0.571298
v -0.341626 1.364247 -0.511311
v -0.509971 1.182421 -0.508203
v -0.494132 1.334721 -0.446506
v -0.645309 1.145669 -0.416497
v -0.619970 1.291409 -0.355675
v -0.756380 1.102394 -0.308576
v -0.723478 1.240766 -0.252847
v -0.830543 1.051206 -0.184503
v -0.794810 1.185996 -0.139029
v -0.877489 0.997793 -0.054452
v -0.839290 1.127490 -0.014910
v -0.899992 0.945252 0.079224
v -0.863923 1.074170 0.111544
v -0.889641 0.892842 0.215022
v -0.857023 1.018944 0.238796
v -0.840805 0.841400 0.347200
v -0.815239 0.964041 0.366531
v -0.760999 0.793293 0.471942
v -0.744370 0.912640 0.489197
v -0.643697 0.751295 0.574238
v -0.633692 0.866158 0.592880
v -0.506543 0.716478 0.662589
v -0.499928 0.827496 0.680938
v -0.347008 0.691909 0.718409
v -0.341801 0.800330 0.735996
v -0.165241 1.647356 -0.390765
v -0.323322 1.628114 -0.356358
v -0.472791 1.595156 -0.291736
v -0.579655 1.537919 -0.198145
v -0.666460 1.478902 -0.100000
v -0.727943 1.416613 0.002925
v -0.762999 1.349093 0.111089
v -0.780349 1.283619 0.223827
v -0.784242 1.227131 0.342202
v -0.748238 1.168352 0.455589
v -0.679545 1.111177 0.563959
v -0.571972 1.060130 0.647531
v -0.450227 1.018596 0.722355
v -0.307987 0.988172 0.766278
v -0.313585 1.419500 0.660751
v -0.373366 1.490267 0.632126
v -0.235198 2.137972 0.287049
v -0.161699 2.181753 0.274722
v -0.396849 1.885740 0.384577
v -0.415952 1.560775 0.590697
v -0.082324 2.208938 0.268529
v -0.165500 1.339052 0.713653
v -0.362957 1.972354 0.336293
v -0.429109 1.640898 0.528694
v -0.240907 1.372831 0.693904
v -0.300279 2.073069 0.309189
v -0.440473 1.367871 0.642152
v -0.569231 1.391332 0.586560
v -0.569695 1.470518 0.521155
v -0.611220 1.519118 0.428295
v -0.656053 1.517862 0.320476
v -0.646366 1.563823 0.261829
v -0.635185 1.610377 0.206497
v -0.372864 1.721813 0.282545
v -0.188974 1.253013 0.662330
v -0.294643 1.287056 0.694379
v -0.374550 1.310058 0.676156
v -0.298051 1.760003 0.268693
v -0.169009 1.847042 0.221071
v -0.158084 1.258662 0.623491
v -0.261528 1.411084 0.553584
v -0.317976 1.449764 0.527094
v -0.350145 1.502704 0.508261
v -0.380799 1.565506 0.478207
v -0.406829 1.625152 0.437565
v -0.525207 1.671252 0.352824
v -0.438908 1.714899 0.302387
v -0.411577 1.726391 0.283616
v -0.371986 1.738337 0.273337
v -0.325612 1.757991 0.265435
v -0.222566 1.819936 0.240481
v -0.338050 1.734635 0.274794
v -0.107746 1.388059 0.619322
v -0.153921 1.399925 0.600020
v -0.236136 1.837004 0.371916
v -0.214060 1.856115 0.345643
v -0.159613 1.701916 0.585194
v -0.252090 1.815603 0.398646
v -0.259662 1.793912 0.427240
v -0.263016 1.767474 0.456560
v -0.247442 1.750781 0.486906
v -0.224542 1.731154 0.519904
v -0.195244 1.714739 0.553812
v -0.053375 1.917176 0.294360
v -0.103570 1.907838 0.294670
v -0.149087 1.894055 0.301215
v -0.182676 1.877353 0.312206
v -0.041569 1.112973 0.802325
v -0.609865 0.437768 -0.557345
v -0.530290 0.450562 -0.480399
v -0.625080 0.432924 -0.387202
v -0.719301 0.418207 -0.449540
v -0.719402 0.278863 0.335555
v -0.621944 0.290837 0.291873
v -0.529790 0.278628 0.387269
v -0.611938 0.261451 0.442955
v -0.690973 0.406915 -0.279493
v -0.799319 0.405925 -0.326645
v -0.413981 0.262130 0.459299
v -0.480896 0.250388 0.531534
v -0.730719 0.383377 -0.165496
v -0.848623 0.384034 -0.193616
v -0.284935 0.249582 0.513156
v -0.330820 0.238072 0.596650
v -0.145466 0.476612 -0.643307
v -0.168781 0.489403 -0.748281
v -0.745408 0.358952 -0.046944
v -0.865073 0.351773 -0.057128
v -0.285252 0.469885 -0.609261
v -0.331073 0.483401 -0.707881
v -0.731512 0.334224 0.071307
v -0.848507 0.324899 0.080598
v -0.414899 0.461103 -0.553576
v -0.480649 0.469152 -0.642944
v -0.689562 0.311436 0.185590
v -0.799341 0.301658 0.213388
v -0.508602 0.434423 0.233623
v -0.432081 0.418860 0.308917
v -0.339701 0.406940 0.370461
v -0.235025 0.393135 0.410779
v -0.231427 0.566938 -0.494981
v -0.335753 0.557873 -0.449601
v -0.425708 0.546903 -0.386644
v -0.499781 0.533424 -0.312015
v -0.559541 0.519378 -0.227938
v -0.599149 0.505711 -0.138241
v -0.600725 0.468032 0.054851
v -0.565547 0.450947 0.148718
v -0.613462 0.487592 -0.041884
v -0.118260 0.382163 0.430668
v 0.275221 0.401943 0.638669
v 0.142866 0.409374 0.614628
v 0.196725 0.590437 0.659319
v 0.103701 0.596721 0.645423
v 0.002175 0.879342 0.758184
v -0.384691 0.231271 0.658651
v -0.360105 0.466971 0.696636
v -0.522443 0.487754 0.629000
v -0.541760 0.238261 0.593184
v -0.669081 0.514906 0.541857
v -0.693083 0.249867 0.499072
v -0.789111 0.548551 0.430437
v -0.806479 0.273601 0.373848
v -0.881621 0.586999 0.302799
v -0.887334 0.308547 0.235599
v -0.930615 0.629088 0.159051
v -0.936241 0.350652 0.092369
v -0.946371 0.672468 0.012491
v -0.954285 0.383507 -0.061376
v -0.932973 0.716436 -0.134366
v -0.938641 0.401486 -0.214711
v -0.889212 0.760531 -0.279166
v -0.896948 0.428249 -0.362370
v -0.809456 0.805019 -0.419448
v -0.802034 0.459441 -0.492613
v -0.684956 0.837578 -0.536252
v -0.681057 0.483140 -0.611795
v -0.537906 0.865011 -0.629724
v -0.536525 0.491165 -0.710831
v -0.368898 0.884999 -0.698214
v -0.368848 0.509776 -0.781728
v -0.189387 0.901159 -0.747392
v -0.188695 0.515636 -0.829313
v 0.001284 0.901784 -0.752693
v -0.000686 0.519907 -0.842770
v 0.380438 0.222880 0.668369
v 0.545831 0.225219 0.600072
v 0.527389 0.487027 0.637919
v 0.362305 0.466526 0.705514
v 0.692628 0.246466 0.498695
v 0.674705 0.514003 0.549973
v 0.810923 0.273199 0.375560
v 0.797619 0.548641 0.436365
v 0.899197 0.299531 0.237771
v 0.866041 0.586433 0.295630
v 0.954073 0.330156 0.089723
v 0.910115 0.626409 0.153727
v 0.976075 0.360292 -0.064024
v 0.929625 0.669606 0.011202
v 0.958676 0.390873 -0.218979
v 0.917048 0.714090 -0.132014
v 0.902960 0.418839 -0.367663
v 0.872965 0.757530 -0.273594
v 0.809975 0.447429 -0.502115
v 0.806682 0.800883 -0.421121
v 0.688370 0.476432 -0.618822
v 0.682738 0.835322 -0.532347
v 0.538027 0.491580 -0.709953
v 0.527688 0.859469 -0.613986
v 0.366838 0.508091 -0.772988
v 0.362617 0.878973 -0.680446
v 0.186952 0.521172 -0.825213
v 0.185640 0.893021 -0.726570
v 0.235340 0.681678 0.737148
v 0.323156 0.463170 0.710872
v 0.350621 0.336377 0.696085
v -0.235047 0.682944 0.733386
v -0.323787 0.464373 0.704560
v -0.351143 0.337155 0.688301
v 0.146436 0.247647 0.549020
v -0.000197 0.250916 0.556385
v 0.001825 0.381525 0.442274
v -0.145663 0.247131 0.548826
v -0.293181 0.284084 0.627675
v -0.269783 0.400577 0.649466
v -0.197619 0.591726 0.652368
v -0.104780 0.718285 0.687508
v -0.000164 0.761974 0.687820
v 0.107716 0.721457 0.687776
v -0.165171 0.238789 0.590475
v -0.155199 0.295841 0.595863
v -0.141950 0.409212 0.616135
v -0.102245 0.597046 0.644654
v -0.055008 0.724990 0.675379
v 0.053097 0.721467 0.683842
v 0.000904 0.724217 0.672283
v 0.000898 0.596421 0.645427
v -0.000210 0.405464 0.626812
v 0.001352 0.299971 0.598835
v -0.001827 0.252408 0.585427
vt 0.500936 0.376610
vt 0.495729 0.373587
vt 0.500587 0.365553
vt 0.504131 0.369292
vt 0.492010 0.392820
vt 0.485199 0.389100
vt 0.977395 0.128374
vt 0.972493 0.127247
vt 0.974303 0.118129
vt 0.978125 0.118994
vt 0.485492 0.365598
vt 0.493758 0.358693
vt 0.476518 0.356415
vt 0.486926 0.349788
vt 0.469013 0.346321
vt 0.481665 0.339403
vt 0.462941 0.335723
vt 0.477881 0.328246
vt 0.459232 0.325125
vt 0.475718 0.316180
vt 0.457251 0.313283
vt 0.475453 0.303739
vt 0.456717 0.300255
vt 0.476457 0.291613
vt 0.456687 0.289010
vt 0.478201 0.279381
vt 0.457762 0.277478
vt 0.480616 0.267054
vt 0.458886 0.265869
vt 0.483748 0.254645
vt 0.459992 0.253794
vt 0.487461 0.242174
vt 0.460984 0.241292
vt 0.490170 0.231485
vt 0.461731 0.228456
vt 0.491934 0.221114
vt 0.462219 0.214906
vt 0.493180 0.210854
vt 0.462186 0.201081
vt 0.494401 0.200568
vt 0.929659 0.066914
vt 0.929729 0.054734
vt 0.938921 0.063077
vt 0.938435 0.072666
vt 0.577883 0.257247
vt 0.578128 0.239642
vt 0.595149 0.239772
vt 0.594832 0.257115
vt 0.577352 0.274565
vt 0.593978 0.274098
vt 0.576679 0.291404
vt 0.592994 0.290769
vt 0.576035 0.307715
vt 0.591860 0.306830
vt 0.575423 0.323668
vt 0.590672 0.322045
vt 0.574997 0.338817
vt 0.589734 0.337052
vt 0.574852 0.353269
vt 0.589057 0.351249
vt 0.575009 0.367450
vt 0.588598 0.365009
vt 0.575603 0.381717
vt 0.588539 0.379133
vt 0.576818 0.396273
vt 0.589176 0.393492
vt 0.578874 0.411293
vt 0.590669 0.408277
vt 0.581886 0.427143
vt 0.593179 0.423851
vt 0.585751 0.443452
vt 0.596619 0.439995
vt 0.590522 0.460056
vt 0.601039 0.456426
vt 0.491266 0.007785
vt 0.491773 0.011092
vt 0.484896 0.014854
vt 0.480688 0.000523
vt 0.376800 0.220468
vt 0.375862 0.202640
vt 0.406945 0.201824
vt 0.407061 0.218279
vt 0.378177 0.237761
vt 0.407886 0.234656
vt 0.380069 0.254599
vt 0.409392 0.250232
vt 0.382132 0.270644
vt 0.410979 0.264929
vt 0.384939 0.285624
vt 0.412828 0.278941
vt 0.388787 0.300083
vt 0.415073 0.292089
vt 0.393391 0.313446
vt 0.417896 0.304783
vt 0.398813 0.326020
vt 0.421743 0.316930
vt 0.405409 0.338514
vt 0.426718 0.328362
vt 0.413206 0.350674
vt 0.433147 0.339672
vt 0.422443 0.362467
vt 0.440729 0.350456
vt 0.433441 0.374018
vt 0.449879 0.360936
vt 0.445962 0.385071
vt 0.460394 0.370961
vt 0.459708 0.395397
vt 0.472167 0.380325
vt 0.480971 0.403515
vt 0.945564 0.111316
vt 0.939324 0.101693
vt 0.946352 0.099562
vt 0.952652 0.106465
vt 0.949291 0.012149
vt 0.958025 0.006873
vt 0.962284 0.020909
vt 0.954660 0.025533
vt 0.931345 0.042471
vt 0.940958 0.053779
vt 0.934835 0.090574
vt 0.942272 0.090996
vt 0.967288 0.003125
vt 0.970074 0.018236
vt 0.963495 0.124348
vt 0.967510 0.115481
vt 0.934989 0.030448
vt 0.944359 0.043913
vt 0.931566 0.078769
vt 0.939960 0.081914
vt 0.977016 0.000523
vt 0.978125 0.016515
vt 0.954039 0.118848
vt 0.959881 0.111735
vt 0.941456 0.019498
vt 0.948751 0.033081
vt 0.463589 0.809827
vt 0.462458 0.819248
vt 0.444608 0.811796
vt 0.448886 0.802686
vt 0.463201 0.828590
vt 0.435850 0.819273
vt 0.464957 0.837797
vt 0.440557 0.826937
vt 0.468477 0.846729
vt 0.438925 0.835690
vt 0.472992 0.855109
vt 0.439102 0.836089
vt 0.479134 0.863546
vt 0.451809 0.852851
vt 0.486443 0.872667
vt 0.452963 0.857559
vt 0.488905 0.787114
vt 0.483248 0.791713
vt 0.476377 0.784766
vt 0.484899 0.780473
vt 0.476503 0.796885
vt 0.472092 0.788592
vt 0.469991 0.803019
vt 0.466862 0.794449
vt 0.415846 0.839746
vt 0.408963 0.854038
vt 0.407890 0.860005
vt 0.409163 0.851325
vt 0.481428 0.638373
vt 0.481916 0.628843
vt 0.484407 0.631557
vt 0.385258 0.775885
vt 0.390895 0.776992
vt 0.396197 0.791037
vt 0.382191 0.777926
vt 0.397198 0.781675
vt 0.403925 0.793461
vt 0.416134 0.775981
vt 0.410690 0.797020
vt 0.423348 0.783000
vt 0.415438 0.801303
vt 0.433616 0.788212
vt 0.420097 0.807909
vt 0.430516 0.796655
vt 0.422307 0.814232
vt 0.434802 0.804459
vt 0.423755 0.822326
vt 0.434803 0.804896
vt 0.422599 0.826812
vt 0.425471 0.823747
vt 0.419403 0.831893
vt 0.423329 0.828094
vt 0.415635 0.838709
vt 0.419240 0.835438
vt 0.411881 0.844583
vt 0.898378 0.906624
vt 0.898305 0.909373
vt 0.870375 0.913530
vt 0.870304 0.907477
vt 0.496634 0.637951
vt 0.495194 0.642784
vt 0.500922 0.621796
vt 0.498508 0.633188
vt 0.408329 0.869262
vt 0.407993 0.869078
vt 0.904464 0.847801
vt 0.910388 0.848767
vt 0.921983 0.864594
vt 0.917939 0.865364
vt 0.870725 0.891720
vt 0.870922 0.880077
vt 0.900631 0.888006
vt 0.899334 0.898127
vt 0.899837 0.847576
vt 0.914076 0.866648
vt 0.870103 0.896801
vt 0.899025 0.900931
vt 0.892566 0.851417
vt 0.910942 0.868695
vt 0.869895 0.901840
vt 0.898386 0.903637
vt 0.886952 0.855069
vt 0.908361 0.871661
vt 0.998316 0.600079
vt 0.987957 0.598643
vt 0.995663 0.594457
vt 0.999477 0.596948
vt 0.881230 0.860780
vt 0.905743 0.875137
vt 0.876985 0.865562
vt 0.903549 0.878956
vt 0.873745 0.872484
vt 0.901909 0.883253
vt 0.940313 0.855875
vt 0.946010 0.869328
vt 0.940980 0.867518
vt 0.931955 0.853211
vt 0.935913 0.866336
vt 0.924897 0.851469
vt 0.931142 0.865046
vt 0.918054 0.850143
vt 0.926893 0.864151
vt 0.501877 0.512282
vt 0.501938 0.503232
vt 0.503987 0.506603
vt 0.504087 0.514398
vt 0.502620 0.485646
vt 0.504087 0.488536
vt 0.500338 0.527919
vt 0.500338 0.538154
vt 0.497511 0.536982
vt 0.497828 0.527579
vt 0.436979 0.575284
vt 0.441473 0.576024
vt 0.442425 0.586238
vt 0.440607 0.586026
vt 0.692287 0.435554
vt 0.676917 0.459373
vt 0.674687 0.457752
vt 0.672657 0.455552
vt 0.491852 0.880581
vt 0.455300 0.865632
vt 0.494786 0.889001
vt 0.457571 0.870625
vt 0.495979 0.897150
vt 0.461914 0.885882
vt 0.495736 0.905379
vt 0.680780 0.475892
vt 0.667325 0.475892
vt 0.670070 0.461543
vt 0.675631 0.468712
vt 0.670424 0.450427
vt 0.667813 0.440544
vt 0.667325 0.435637
vt 0.669388 0.422507
vt 0.670837 0.418843
vt 0.668139 0.426685
vt 0.673290 0.416005
vt 0.676823 0.413963
vt 0.680788 0.412827
vt 0.685721 0.412579
vt 0.689873 0.413871
vt 0.694343 0.415995
vt 0.404805 0.544268
vt 0.404805 0.585219
vt 0.387750 0.579997
vt 0.375862 0.570467
vt 0.698882 0.418548
vt 0.702769 0.422225
vt 0.431682 0.586238
vt 0.432481 0.576034
vt 0.667359 0.431029
vt 0.729700 0.699730
vt 0.740304 0.688896
vt 0.746247 0.698056
vt 0.737192 0.707686
vt 0.819342 0.687745
vt 0.830279 0.698190
vt 0.824668 0.706056
vt 0.815233 0.697329
vt 0.752518 0.680857
vt 0.757214 0.691498
vt 0.839308 0.710968
vt 0.833217 0.717452
vt 0.765799 0.675830
vt 0.768663 0.687286
vt 0.845889 0.725601
vt 0.838417 0.730315
vt 0.709867 0.760594
vt 0.710982 0.743897
vt 0.720954 0.745986
vt 0.720418 0.760440
vt 0.779657 0.673977
vt 0.780661 0.685549
vt 0.714758 0.727777
vt 0.724268 0.731947
vt 0.793546 0.675403
vt 0.792715 0.686503
vt 0.721082 0.712850
vt 0.730201 0.719308
vt 0.806933 0.680049
vt 0.804485 0.690363
vt 0.799414 0.361409
vt 0.792515 0.350536
vt 0.808043 0.340328
vt 0.814124 0.349151
vt 0.786295 0.337623
vt 0.803188 0.330369
vt 0.782028 0.324411
vt 0.799464 0.319450
vt 0.928825 0.362909
vt 0.917100 0.371349
vt 0.909378 0.357136
vt 0.919316 0.350492
vt 0.904363 0.378086
vt 0.899094 0.362249
vt 0.891388 0.383154
vt 0.888624 0.366558
vt 0.878363 0.386850
vt 0.877923 0.369523
vt 0.865224 0.388682
vt 0.867311 0.371192
vt 0.852448 0.388942
vt 0.856967 0.371357
vt 0.266200 0.611055
vt 0.273080 0.619738
vt 0.234993 0.657244
vt 0.258010 0.604149
vt 0.840406 0.387205
vt 0.847097 0.370110
vt 0.238876 0.597782
vt 0.248766 0.599742
vt 0.828822 0.383693
vt 0.837718 0.367268
vt 0.817994 0.378331
vt 0.829013 0.362844
vt 0.808151 0.370776
vt 0.820950 0.356788
vt 0.278864 0.629717
vt 0.282720 0.640635
vt 0.865174 0.921187
vt 0.859135 0.918314
vt 0.859011 0.903437
vt 0.863764 0.904493
vt 0.187202 0.638688
vt 0.190224 0.627779
vt 0.185969 0.650105
vt 0.195329 0.617921
vt 0.202148 0.609622
vt 0.210364 0.603340
vt 0.219485 0.599370
vt 0.229116 0.597571
vt 0.188178 0.673617
vt 0.186390 0.662050
vt 0.413773 0.544268
vt 0.422298 0.544907
vt 0.418898 0.553320
vt 0.413260 0.552991
vt 0.417485 0.570462
vt 0.410977 0.570403
vt 0.682414 0.460496
vt 0.679582 0.460188
vt 0.500772 0.027352
vt 0.504131 0.034922
vt 0.500382 0.038646
vt 0.495401 0.030316
vt 0.977140 0.601125
vt 0.977725 0.610693
vt 0.973990 0.611486
vt 0.972089 0.602072
vt 0.493099 0.045153
vt 0.484947 0.038243
vt 0.486194 0.054162
vt 0.475783 0.047342
vt 0.480597 0.064280
vt 0.468185 0.057382
vt 0.476734 0.075522
vt 0.462118 0.068066
vt 0.474214 0.087662
vt 0.457738 0.079252
vt 0.473413 0.100135
vt 0.455239 0.090654
vt 0.474712 0.112278
vt 0.455249 0.102144
vt 0.476386 0.124454
vt 0.455390 0.114484
vt 0.479182 0.136693
vt 0.456083 0.126479
vt 0.482259 0.148939
vt 0.457323 0.138040
vt 0.486185 0.160778
vt 0.458719 0.149713
vt 0.489994 0.171303
vt 0.459945 0.162029
vt 0.493025 0.181377
vt 0.460959 0.174931
vt 0.495057 0.191064
vt 0.461706 0.187982
vt 0.928458 0.662876
vt 0.937837 0.657302
vt 0.938398 0.666798
vt 0.929197 0.674990
vt 0.578202 0.221873
vt 0.595157 0.222283
vt 0.578095 0.204341
vt 0.594837 0.204991
vt 0.577801 0.187197
vt 0.594192 0.188148
vt 0.577346 0.170691
vt 0.593205 0.172000
vt 0.576870 0.154884
vt 0.591992 0.156497
vt 0.576544 0.139788
vt 0.591026 0.141874
vt 0.576400 0.125198
vt 0.590298 0.127309
vt 0.576655 0.110886
vt 0.590206 0.113205
vt 0.577398 0.096520
vt 0.590382 0.099138
vt 0.578739 0.081716
vt 0.591183 0.084442
vt 0.580718 0.066289
vt 0.592625 0.069232
vt 0.583383 0.050321
vt 0.594796 0.053322
vt 0.586794 0.033827
vt 0.597761 0.036929
vt 0.590947 0.017040
vt 0.601603 0.020228
vt 0.491731 0.396140
vt 0.376010 0.184708
vt 0.406956 0.185887
vt 0.377003 0.167074
vt 0.407358 0.170009
vt 0.378760 0.150000
vt 0.408562 0.153930
vt 0.381065 0.133867
vt 0.409915 0.139066
vt 0.383798 0.118530
vt 0.411704 0.125102
vt 0.387361 0.104361
vt 0.413928 0.112052
vt 0.391884 0.090597
vt 0.416718 0.099405
vt 0.397418 0.077782
vt 0.420469 0.087126
vt 0.403895 0.065466
vt 0.425658 0.075479
vt 0.411916 0.053168
vt 0.431946 0.064330
vt 0.421418 0.041164
vt 0.439715 0.053265
vt 0.432634 0.029445
vt 0.449051 0.042675
vt 0.445311 0.018358
vt 0.459734 0.032619
vt 0.459317 0.008085
vt 0.471634 0.023305
vt 0.945399 0.618690
vt 0.952175 0.623138
vt 0.945716 0.630213
vt 0.938789 0.628164
vt 0.950209 0.716899
vt 0.955068 0.703837
vt 0.962051 0.708752
vt 0.958273 0.723188
vt 0.940542 0.676162
vt 0.931893 0.687093
vt 0.941077 0.638053
vt 0.933895 0.639233
vt 0.969702 0.712002
vt 0.967096 0.727043
vt 0.967160 0.614192
vt 0.963187 0.605395
vt 0.943280 0.686147
vt 0.935943 0.698832
vt 0.939074 0.647946
vt 0.930197 0.650939
vt 0.977725 0.713542
vt 0.976057 0.729486
vt 0.959555 0.617744
vt 0.953865 0.611312
vt 0.949042 0.696699
vt 0.942565 0.709079
vt 0.966510 0.567330
vt 0.957421 0.577750
vt 0.944781 0.571617
vt 0.963358 0.558783
vt 0.944643 0.561471
vt 0.962383 0.548737
vt 0.938796 0.551990
vt 0.962679 0.539304
vt 0.929542 0.545099
vt 0.964364 0.529942
vt 0.928844 0.537709
vt 0.967323 0.520803
vt 0.928458 0.530489
vt 0.970747 0.511031
vt 0.945732 0.507015
vt 0.981217 0.505121
vt 0.990859 0.590360
vt 0.979880 0.595425
vt 0.984643 0.586443
vt 0.970164 0.589430
vt 0.977284 0.582407
vt 0.962838 0.585300
vt 0.970943 0.575823
vt 0.423716 0.898361
vt 0.413409 0.886015
vt 0.409616 0.877763
vt 0.414000 0.886173
vt 0.479641 0.659103
vt 0.484123 0.665792
vt 0.479614 0.667798
vt 0.355933 0.926890
vt 0.356066 0.921957
vt 0.375522 0.921329
vt 0.363279 0.935630
vt 0.382614 0.922834
vt 0.370509 0.939927
vt 0.389001 0.922473
vt 0.379730 0.941079
vt 0.396273 0.920572
vt 0.392082 0.947772
vt 0.403441 0.918105
vt 0.400094 0.941544
vt 0.417995 0.922082
vt 0.411055 0.939563
vt 0.423416 0.912768
vt 0.422379 0.941775
vt 0.425219 0.909806
vt 0.428704 0.937888
vt 0.426029 0.905675
vt 0.434803 0.934007
vt 0.423783 0.901166
vt 0.427900 0.905692
vt 0.416801 0.891244
vt 0.426314 0.902299
vt 0.494927 0.654470
vt 0.496361 0.659581
vt 0.498200 0.664318
vt 0.500922 0.675627
vt 0.912848 0.963799
vt 0.921120 0.943121
vt 0.924992 0.942867
vt 0.916558 0.961809
vt 0.872356 0.923718
vt 0.899316 0.914900
vt 0.902209 0.924931
vt 0.873412 0.935302
vt 0.909469 0.964573
vt 0.917391 0.942954
vt 0.871154 0.918781
vt 0.898693 0.912127
vt 0.899266 0.968044
vt 0.913882 0.942050
vt 0.894973 0.953580
vt 0.910260 0.940563
vt 0.888713 0.949304
vt 0.907995 0.937572
vt 0.882425 0.945186
vt 0.905591 0.933867
vt 0.877215 0.941475
vt 0.903632 0.929578
vt 0.944521 0.945396
vt 0.941460 0.935108
vt 0.946010 0.932024
vt 0.936423 0.949506
vt 0.937408 0.938114
vt 0.930841 0.952280
vt 0.933383 0.940623
vt 0.920738 0.958997
vt 0.929966 0.942422
vt 0.500830 0.512304
vt 0.498264 0.514699
vt 0.497511 0.506672
vt 0.500830 0.503079
vt 0.497904 0.488575
vt 0.499304 0.485646
vt 0.500796 0.526004
vt 0.498336 0.526532
vt 0.497511 0.516982
vt 0.500796 0.515746
vt 0.492920 0.782090
vt 0.491539 0.784214
vt 0.947431 0.503678
vt 0.988313 0.499047
vt 0.950426 0.500031
vt 0.993533 0.492288
vt 0.959940 0.487686
vt 0.997348 0.484904
vt 0.999477 0.477015
vt 0.697727 0.460125
vt 0.692873 0.460496
vt 0.711947 0.452575
vt 0.709862 0.455898
vt 0.706485 0.457552
vt 0.714414 0.445680
vt 0.713560 0.449321
vt 0.714792 0.436808
vt 0.714774 0.441809
vt 0.710477 0.429409
vt 0.713263 0.433255
vt 0.706975 0.425772
vt 0.702341 0.459107
vt 0.731666 0.820734
vt 0.738872 0.812560
vt 0.748296 0.821721
vt 0.742543 0.831236
vt 0.821351 0.830083
vt 0.816752 0.820505
vt 0.826105 0.811242
vt 0.831949 0.819301
vt 0.759247 0.828104
vt 0.754788 0.838969
vt 0.833242 0.799690
vt 0.840570 0.806206
vt 0.770829 0.831880
vt 0.768273 0.843648
vt 0.838515 0.786856
vt 0.846905 0.791276
vt 0.721886 0.774805
vt 0.711455 0.777267
vt 0.782813 0.833166
vt 0.782149 0.844969
vt 0.725529 0.788584
vt 0.715730 0.793286
vt 0.794698 0.831634
vt 0.795919 0.843168
vt 0.731337 0.801326
vt 0.722572 0.808057
vt 0.806140 0.827340
vt 0.809170 0.838160
vt 0.801318 0.231349
vt 0.815611 0.243819
vt 0.809404 0.252557
vt 0.793947 0.242252
vt 0.804441 0.262407
vt 0.787950 0.254428
vt 0.800664 0.272916
vt 0.783380 0.267525
vt 0.928825 0.234466
vt 0.918330 0.246062
vt 0.909252 0.238671
vt 0.917489 0.225519
vt 0.899634 0.232429
vt 0.905515 0.217830
vt 0.889505 0.227473
vt 0.892927 0.211776
vt 0.879109 0.224190
vt 0.880116 0.207392
vt 0.868792 0.222381
vt 0.867096 0.204941
vt 0.858516 0.221938
vt 0.854363 0.204594
vt 0.274280 0.696326
vt 0.267451 0.704583
vt 0.279560 0.686644
vt 0.848801 0.223072
vt 0.842334 0.206323
vt 0.250448 0.715381
vt 0.259492 0.711011
vt 0.839410 0.225839
vt 0.830797 0.209790
vt 0.830661 0.230324
vt 0.820026 0.215115
vt 0.822666 0.236409
vt 0.810168 0.222365
vt 0.282729 0.675938
vt 0.283758 0.664233
vt 0.848124 0.915706
vt 0.847783 0.902387
vt 0.191968 0.684437
vt 0.197521 0.694249
vt 0.204668 0.702478
vt 0.212836 0.709032
vt 0.221790 0.714090
vt 0.231091 0.717110
vt 0.240867 0.717580
vt 0.829378 0.907886
vt 0.829045 0.898592
vt 0.423985 0.544358
vt 0.423446 0.553287
vt 0.425803 0.570581
vt 0.418196 0.576819
vt 0.430636 0.581987
vt 0.405852 0.581987
vt 0.545482 0.004840
vt 0.569038 0.010359
vt 0.564271 0.027551
vt 0.539678 0.020994
vt 0.560053 0.044349
vt 0.533789 0.038001
vt 0.556508 0.060586
vt 0.529172 0.054527
vt 0.553583 0.076272
vt 0.525826 0.070618
vt 0.551221 0.091430
vt 0.523427 0.086246
vt 0.549340 0.106209
vt 0.520231 0.101843
vt 0.547790 0.120955
vt 0.516173 0.116903
vt 0.546612 0.136005
vt 0.513451 0.132233
vt 0.546000 0.151915
vt 0.511829 0.148533
vt 0.545241 0.168419
vt 0.509936 0.165635
vt 0.544689 0.185300
vt 0.507408 0.182971
vt 0.544288 0.202940
vt 0.506673 0.201208
vt 0.544123 0.220936
vt 0.505498 0.219755
vt 0.543841 0.239354
vt 0.505178 0.238636
vt 0.545171 0.474686
vt 0.538101 0.458070
vt 0.563561 0.450366
vt 0.568977 0.467489
vt 0.532572 0.440823
vt 0.558877 0.433765
vt 0.527727 0.424107
vt 0.554913 0.417421
vt 0.523014 0.408207
vt 0.551582 0.401903
vt 0.519078 0.392627
vt 0.548941 0.386919
vt 0.515580 0.377233
vt 0.547046 0.372207
vt 0.512707 0.361667
vt 0.545770 0.357442
vt 0.510275 0.345803
vt 0.544831 0.342339
vt 0.508662 0.329378
vt 0.543958 0.326168
vt 0.507596 0.312250
vt 0.543729 0.309818
vt 0.506116 0.294645
vt 0.543550 0.292698
vt 0.505755 0.276324
vt 0.543483 0.275296
vt 0.505560 0.257514
vt 0.543597 0.257445
vt 0.612237 0.475969
vt 0.594117 0.470924
vt 0.570222 0.471278
vt 0.557263 0.473511
vt 0.594154 0.006035
vt 0.612237 0.000523
vt 0.570161 0.006773
vt 0.557069 0.004923
vt 0.797414 0.308051
vt 0.780241 0.310375
vt 0.780267 0.295866
vt 0.797398 0.296324
vt 0.798380 0.284445
vt 0.780694 0.281476
vt 0.494756 0.648419
vt 0.480108 0.648656
vt 0.671311 0.453112
vt 0.464661 0.567822
vt 0.467837 0.555260
vt 0.477350 0.552876
vt 0.473906 0.564304
vt 0.462411 0.609632
vt 0.461957 0.591146
vt 0.472643 0.584453
vt 0.472624 0.600345
vt 0.479958 0.555048
vt 0.487858 0.544268
vt 0.496464 0.554699
vt 0.490250 0.564239
vt 0.470331 0.620566
vt 0.478567 0.609840
vt 0.484961 0.609323
vt 0.482098 0.596744
vt 0.491949 0.600333
vt 0.494908 0.611258
vt 0.479614 0.573464
vt 0.490121 0.580139
vt 0.811336 0.846901
vt 0.825294 0.838640
vt 0.715540 0.813722
vt 0.725200 0.828245
vt 0.796738 0.852237
vt 0.708023 0.797165
vt 0.781238 0.854246
vt 0.703058 0.779380
vt 0.766016 0.852683
vt 0.701351 0.760794
vt 0.846868 0.812134
vt 0.853140 0.796513
vt 0.751094 0.848840
vt 0.837731 0.827241
vt 0.737542 0.839919
vt 0.809177 0.670118
vt 0.823194 0.678595
vt 0.713979 0.707243
vt 0.722856 0.692161
vt 0.794156 0.664956
vt 0.707739 0.724293
vt 0.778650 0.663023
vt 0.702635 0.742171
vt 0.763068 0.664952
vt 0.846306 0.704455
vt 0.853140 0.720801
vt 0.748173 0.670639
vt 0.835837 0.690093
vt 0.734654 0.679975
vt 0.488334 0.620749
vt 0.496464 0.617733
vt 0.470698 0.544268
vt 0.478567 0.546363
vt 0.864600 0.871700
vt 0.858947 0.872775
vt 0.859489 0.858727
vt 0.865174 0.855293
vt 0.847555 0.874142
vt 0.847730 0.861014
vt 0.828805 0.878280
vt 0.829042 0.868826
vt 0.816067 0.883133
vt 0.816130 0.878098
vt 0.816167 0.893753
vt 0.816215 0.888524
vt 0.828962 0.888480
vt 0.847837 0.888194
vt 0.858632 0.888269
vt 0.863523 0.887899
vt 0.283758 0.652315
vt 0.816065 0.899159
vt 0.844524 0.742266
vt 0.841349 0.744166
vt 0.842312 0.758626
vt 0.845189 0.758734
vt 0.841848 0.773036
vt 0.846068 0.774920
vt 0.812200 0.888444
vt 0.993920 0.592643
vt 0.494196 0.775885
vt 0.495979 0.778709
vn -0.0005 0.1541 0.9880
vn 0.1124 0.0140 0.9936
vn -0.2914 0.6392 0.7117
vn 0.1266 0.1105 0.9858
vn 0.2784 0.1537 0.9481
vn 0.3598 0.1683 0.9177
vn 0.5193 0.2594 0.8143
vn 0.6443 0.3111 0.6987
vn 0.7875 0.2943 0.5416
vn 0.8550 0.2241 0.4677
vn 0.8987 0.2703 0.3453
vn 0.9210 0.3443 0.1822
vn 0.9125 0.4087 -0.0160
vn 0.8292 0.4919 -0.2654
vn 0.6853 0.5751 -0.4468
vn 0.5083 0.6567 -0.5571
vn 0.3314 0.7112 -0.6200
vn 0.0913 0.7224 -0.6854
vn -0.0632 0.4854 0.8720
vn 0.1539 0.3328 -0.9303
vn 0.2827 0.3489 -0.8935
vn 0.3964 0.3869 -0.8325
vn 0.4994 0.4123 -0.7620
vn 0.7220 0.3981 -0.5659
vn 0.8623 0.3486 -0.3673
vn 0.9426 0.2693 -0.1975
vn 0.9824 0.1866 0.0028
vn 0.9734 0.1340 0.1858
vn 0.9396 0.1105 0.3238
vn 0.8722 0.0850 0.4817
vn 0.6878 0.0073 0.7259
vn 0.5227 -0.0517 0.8510
vn 0.3898 -0.0920 0.9163
vn -0.1377 -0.2073 0.9685
vn 0.0943 0.4769 -0.8739
vn 0.0427 0.5979 -0.8004
vn 0.3262 0.4383 -0.8376
vn 0.3485 0.5745 -0.7406
vn 0.4479 0.4437 -0.7762
vn 0.5132 0.5525 -0.6568
vn 0.6026 0.4734 -0.6424
vn 0.7074 0.5030 -0.4965
vn 0.7485 0.4842 -0.4531
vn 0.8067 0.4657 -0.3638
vn 0.8423 0.4538 -0.2907
vn 0.8873 0.4218 -0.1866
vn 0.9094 0.4024 -0.1053
vn 0.9275 0.3734 0.0165
vn 0.9391 0.3382 0.0616
vn 0.9162 0.3426 0.2078
vn 0.9412 0.2418 0.2361
vn 0.8668 0.3259 0.3776
vn 0.9169 0.1780 0.3571
vn 0.8468 0.3372 0.4114
vn 0.8608 0.1050 0.4981
vn 0.7782 0.2567 0.5732
vn 0.6981 -0.0173 0.7158
vn 0.6218 0.1559 0.7675
vn 0.5132 -0.0907 0.8535
vn 0.4450 0.0692 0.8928
vn 0.3784 -0.1001 0.9202
vn 0.3321 0.0250 0.9429
vn 0.1980 -0.1367 0.9706
vn 0.1863 -0.0041 0.9825
vn -0.1703 0.6424 0.7472
vn 0.1531 0.5810 0.7994
vn -0.0037 0.4720 0.8816
vn -0.1101 0.5947 0.7964
vn 0.1203 0.6337 0.7641
vn -0.1387 0.6774 0.7224
vn 0.0591 0.4690 0.8812
vn -0.0447 0.5161 0.8553
vn 0.0717 0.6309 0.7725
vn -0.1025 0.6883 0.7182
vn 0.1179 0.4724 0.8735
vn -0.0608 0.5105 0.8577
vn -0.1670 0.6631 0.7297
vn 0.1632 0.5073 0.8462
vn -0.4448 -0.4462 -0.7765
vn -0.5940 -0.4190 -0.6868
vn -0.7820 -0.4812 -0.3960
vn -0.8119 -0.3689 -0.4524
vn -0.8471 -0.4259 -0.3178
vn -0.7894 -0.4088 0.4581
vn -0.7510 -0.2834 0.5964
vn -0.3406 0.5539 -0.7597
vn -0.4193 0.4713 -0.7759
vn -0.6929 0.4341 -0.5757
vn -0.0891 0.1535 -0.9841
vn -0.1266 -0.6822 -0.7201
vn -0.1513 0.9802 0.1280
vn -0.2867 0.6413 0.7117
vn -0.1124 0.6565 0.7459
vn -0.1539 0.7238 0.6726
vn -0.0305 0.7517 0.6588
vn 0.2990 0.7261 0.6191
vn 0.3925 0.6218 0.6777
vn 0.5760 0.6390 0.5099
vn 0.7285 0.4671 -0.5011
vn -0.7299 -0.6293 0.2668
vn 0.0598 -0.5179 -0.8534
vn 0.0325 -0.5064 -0.8617
vn -0.0920 -0.6040 -0.7917
vn -0.1270 -0.0932 0.9875
vn 0.4461 0.3904 0.8053
vn 0.3056 0.3514 0.8849
vn -0.0524 -0.6516 -0.7567
vn 0.6239 0.7767 -0.0864
vn 0.4550 -0.0329 0.8899
vn 0.6512 0.7513 0.1075
vn 0.4983 -0.0750 0.8637
vn 0.6713 0.6077 0.4243
vn 0.4422 -0.0805 0.8933
vn 0.6068 0.4324 0.6670
vn -0.0492 0.4913 -0.8696
vn 0.5760 0.3318 0.7471
vn 0.5717 0.2593 0.7784
vn 0.5489 0.1783 0.8167
vn 0.4869 0.0746 0.8703
vn -0.0635 0.8869 -0.4575
vn 0.1974 0.9024 -0.3830
vn 0.3742 0.8716 -0.3166
vn 0.5240 0.8117 -0.2580
vn 0.5621 0.7869 -0.2548
vn -0.4082 0.1918 0.8925
vn -0.1723 0.0031 0.9850
vn -0.5514 0.5140 0.6571
vn 0.6047 0.4669 0.6452
vn -0.0286 0.8027 0.5956
vn -0.4733 -0.1754 0.8633
vn -0.3318 -0.1691 0.9281
vn -0.2778 -0.2158 0.9361
vn -0.0776 -0.2229 0.9717
vn -0.0270 0.9304 -0.3654
vn 0.1766 0.8146 0.5525
vn 0.1249 0.7645 0.6324
vn 0.1236 0.7812 0.6119
vn 0.0871 0.8534 0.5139
vn 0.1299 0.8190 0.5589
vn 0.0950 -0.2090 0.9733
vn 0.0222 0.8632 0.5044
vn -0.2501 0.6797 0.6895
vn 0.1446 0.7943 0.5901
vn -0.0749 -0.9942 -0.0776
vn -0.1366 -0.9532 -0.2696
vn -0.0906 -0.9836 -0.1562
vn -0.1579 -0.9192 -0.3606
vn -0.0442 -0.9848 -0.1681
vn -0.0538 -0.9444 -0.3245
vn -0.0145 -0.9945 -0.1040
vn -0.0338 -0.9825 -0.1834
vn -0.0169 -0.9955 -0.0932
vn -0.0512 -0.9756 -0.2135
vn -0.0322 -0.9920 -0.1221
vn -0.0996 -0.9677 -0.2317
vn -0.0465 -0.9926 -0.1125
vn -0.1045 -0.9552 -0.2768
vn -0.4925 -0.6387 -0.5912
vn -0.3602 -0.6685 -0.6507
vn -0.1950 -0.6487 -0.7357
vn -0.0245 -0.8035 0.5949
vn -0.1485 -0.7807 0.6070
vn -0.3130 -0.7423 0.5924
vn -0.4114 -0.7252 0.5520
vn -0.5258 -0.7418 0.4163
vn -0.6415 -0.7347 0.2206
vn 0.0240 -0.9750 -0.2210
vn -0.6837 -0.7258 0.0762
vn -0.0212 -0.9893 -0.1442
vn -0.6758 -0.7326 -0.0819
vn -0.6452 -0.7326 -0.2170
vn -0.6232 -0.7146 -0.3178
vn -0.5710 -0.6562 -0.4933
vn 0.0164 -0.9758 -0.2182
vn -0.1217 -0.4067 0.9054
vn 0.0499 -0.9854 -0.1626
vn 0.0148 -0.9821 -0.1878
vn -0.0065 -0.9740 -0.2264
vn -0.0104 -0.9753 -0.2205
vn 0.0095 -0.9872 -0.1594
vn -0.2357 0.0884 0.9678
vn -0.4643 -0.0537 0.8841
vn -0.1295 0.7994 0.5867
vn 0.0227 0.1996 0.9796
vn -0.1287 -0.0633 0.9897
vn 0.3279 0.6907 0.6446
vn -0.2069 0.1576 0.9656
vn -0.2530 0.2013 0.9463
vn -0.2869 0.2361 0.9284
vn -0.4492 0.3046 0.8399
vn -0.5789 0.3365 0.7427
vn -0.6959 0.3158 0.6450
vn -0.8485 0.3039 0.4333
vn -0.9278 0.3152 0.1996
vn -0.9345 0.3463 0.0828
vn -0.9152 0.4028 -0.0138
vn -0.8223 0.5154 -0.2413
vn -0.6875 0.5971 -0.4133
vn -0.5530 0.6486 -0.5230
vn -0.3112 0.6942 -0.6490
vn -0.1754 0.7043 -0.6879
vn 0.0756 0.5170 0.8526
vn -0.0760 0.3453 -0.9354
vn -0.2510 0.3505 -0.9023
vn -0.4063 0.3619 -0.8390
vn -0.6056 0.3727 -0.7031
vn -0.7272 0.3828 -0.5698
vn -0.8600 0.3527 -0.3688
vn -0.9274 0.3210 -0.1922
vn -0.9555 0.2897 -0.0552
vn -0.9619 0.2250 0.1551
vn -0.9135 0.1480 0.3790
vn -0.8404 0.0652 0.5380
vn -0.6775 -0.0355 0.7346
vn -0.5610 -0.0934 0.8226
vn -0.3459 -0.1335 0.9287
vn 0.1320 -0.1544 0.9792
vn -0.0998 0.5108 -0.8539
vn -0.1363 0.5962 -0.7912
vn -0.2491 0.5066 -0.8254
vn -0.2739 0.5964 -0.7545
vn -0.4274 0.4836 -0.7639
vn -0.4883 0.5836 -0.6489
vn -0.6661 0.4482 -0.5961
vn -0.7072 0.5277 -0.4705
vn -0.7575 0.4531 -0.4700
vn -0.8091 0.4842 -0.3330
vn -0.8580 0.4161 -0.3011
vn -0.8898 0.4381 -0.1281
vn -0.9240 0.3632 -0.1193
vn -0.9121 0.4071 0.0478
vn -0.9387 0.3446 0.0064
vn -0.9062 0.3969 0.1459
vn -0.9489 0.2828 0.1402
vn -0.8919 0.3956 0.2191
vn -0.9205 0.1421 0.3640
vn -0.8339 0.3068 0.4587
vn -0.8423 0.0577 0.5359
vn -0.7421 0.2317 0.6290
vn -0.6597 -0.0348 0.7507
vn -0.5974 0.1166 0.7935
vn -0.5479 -0.0498 0.8350
vn -0.4613 0.0558 0.8855
vn -0.3293 -0.1050 0.9384
vn -0.2946 0.0205 0.9554
vn -0.1545 -0.1593 0.9751
vn -0.2128 -0.0343 0.9765
vn 0.0906 0.5338 0.8407
vn -0.1557 0.5104 0.8458
vn 0.0259 0.4805 0.8766
vn -0.0942 0.5167 0.8510
vn -0.1113 0.5239 0.8444
vn 0.1144 0.7047 0.7002
vn 0.0235 0.4742 0.8801
vn -0.0587 0.5469 0.8352
vn 0.0463 0.5766 0.8157
vn 0.0618 0.6480 0.7591
vn -0.1750 0.4340 0.8837
vn 0.0268 0.4880 0.8724
vn 0.0947 0.6311 0.7699
vn -0.1901 0.4913 0.8500
vn 0.3505 -0.2827 -0.8929
vn 0.5793 -0.4783 -0.6600
vn 0.6415 -0.4431 -0.6262
vn 0.7623 -0.4969 -0.4147
vn 0.7974 -0.5040 -0.3319
vn 0.8087 -0.5065 -0.2992
vn -0.0106 -0.2093 0.9778
vn 0.3021 0.4386 -0.8464
vn 0.0354 0.2690 -0.9625
vn 0.2248 -0.2095 -0.9516
vn 0.2329 -0.2323 -0.9444
vn 0.0833 -0.6284 -0.7734
vn 0.1846 0.9410 0.2837
vn 0.4553 0.6369 0.6221
vn 0.1007 0.7202 0.6864
vn 0.2882 0.6081 0.7397
vn -0.0577 0.6477 0.7597
vn -0.1144 0.5892 0.7999
vn -0.3648 0.6444 0.6721
vn -0.7581 0.6517 -0.0241
vn -0.6007 0.7522 0.2710
vn -0.5197 0.7968 0.3083
vn 0.3749 -0.4664 -0.8012
vn -0.0261 -0.3598 -0.9327
vn -0.0271 -0.3976 -0.9171
vn -0.4952 0.3045 0.8137
vn -0.3671 0.1630 0.9158
vn -0.0198 -0.6102 -0.7920
vn -0.5115 0.8473 -0.1431
vn -0.4889 0.0336 0.8717
vn -0.5372 0.8381 0.0948
vn -0.4412 -0.0391 0.8966
vn -0.4812 0.8648 0.1435
vn -0.3711 -0.0663 0.9262
vn -0.4668 0.4535 0.7592
vn -0.5413 0.3952 0.7422
vn -0.5160 0.2832 0.8085
vn -0.5071 0.1899 0.8407
vn -0.4862 0.1055 0.8675
vn -0.0772 0.9143 -0.3977
vn -0.2921 0.8780 -0.3793
vn -0.4357 0.8194 -0.3724
vn -0.5346 0.7794 -0.3266
vn -0.5454 0.8065 -0.2281
vn 0.5130 0.1890 0.8373
vn 0.3545 -0.0706 0.9324
vn 0.5705 0.5684 0.5928
vn -0.2014 0.6181 -0.7599
vn 0.3792 -0.1353 0.9154
vn 0.2082 -0.0820 0.9747
vn 0.3067 -0.1471 0.9404
vn 0.0434 -0.1291 0.9907
vn -0.1640 0.8046 0.5707
vn -0.1706 0.7816 0.6000
vn -0.1623 0.8107 0.5625
vn -0.1303 0.8717 0.4724
vn -0.1945 0.8169 0.5430
vn -0.1076 0.8541 0.5089
vn -0.1768 0.8023 0.5702
vn 0.1666 -0.9859 -0.0132
vn 0.0517 -0.9796 -0.1940
vn 0.1232 -0.9886 -0.0862
vn 0.0198 -0.9799 -0.1985
vn 0.0551 -0.9854 -0.1613
vn -0.0192 -0.9867 -0.1612
vn -0.0027 -0.9931 -0.1174
vn 0.0606 -0.9759 -0.2095
vn 0.0094 -0.9913 -0.1313
vn 0.0689 -0.9763 -0.2050
vn 0.0260 -0.9913 -0.1291
vn 0.0496 -0.9784 -0.2006
vn 0.1199 -0.9898 -0.0766
vn 0.0315 -0.9780 -0.2062
vn 0.4881 -0.6456 -0.5873
vn 0.3599 -0.6240 -0.6936
vn 0.2376 -0.6058 -0.7593
vn 0.0396 -0.7997 0.5991
vn 0.1803 -0.7902 0.5857
vn 0.2900 -0.7965 0.5306
vn 0.3785 -0.8131 0.4424
vn 0.4696 -0.8229 0.3199
vn 0.5641 -0.8005 0.2024
vn 0.0032 -0.9796 -0.2007
vn 0.6429 -0.7577 0.1121
vn 0.0079 -0.9820 -0.1887
vn 0.6920 -0.7202 -0.0492
vn 0.6832 -0.6938 -0.2276
vn 0.6436 -0.6716 -0.3671
vn 0.5737 -0.6489 -0.4998
vn -0.0446 -0.9708 -0.2355
vn -0.1511 -0.1872 0.9706
vn 0.0109 -0.9857 -0.1684
vn 0.0076 -0.9861 -0.1661
vn 0.0035 -0.9878 -0.1555
vn 0.0073 -0.9815 -0.1915
vn -0.1741 -0.1868 0.9668
vn 0.6211 0.2262 0.7503
vn 0.3894 -0.0494 0.9197
vn 0.2573 -0.3240 0.9104
vn -0.3725 -0.2952 0.8798
vn -0.3903 -0.1038 0.9148
vn -0.5259 -0.0850 0.8463
vn -0.7188 -0.0722 0.6915
vn -0.8451 -0.0829 0.5281
vn -0.9498 -0.0547 0.3080
vn -0.9938 -0.0038 0.1109
vn -0.9952 0.0446 -0.0871
vn -0.9617 0.0857 -0.2603
vn -0.8490 0.1192 -0.5148
vn -0.7026 0.1370 -0.6982
vn -0.5573 0.1707 -0.8126
vn -0.3942 0.1965 -0.8978
vn -0.2660 0.2046 -0.9420
vn -0.0511 0.2185 -0.9745
vn 0.3845 -0.1082 0.9168
vn 0.5502 -0.1017 0.8288
vn 0.7100 -0.1030 0.6967
vn 0.8741 -0.0301 0.4848
vn 0.9409 0.0545 0.3344
vn 0.9804 0.1086 0.1643
vn 0.9864 0.1529 -0.0607
vn 0.9431 0.1787 -0.2803
vn 0.8765 0.1572 -0.4550
vn 0.6937 0.1731 -0.6992
vn 0.5016 0.2210 -0.8364
vn 0.3711 0.2364 -0.8980
vn 0.2748 0.2416 -0.9306
vn 0.1180 0.2411 -0.9633
vn -0.3676 -0.0895 0.9257
vn -0.5359 -0.0718 0.8412
vn -0.6753 -0.0380 0.7365
vn -0.8232 0.0160 0.5675
vn -0.9310 0.0779 0.3565
vn -0.9824 0.1292 0.1347
vn -0.9790 0.1953 -0.0581
vn -0.9415 0.2551 -0.2202
vn -0.8672 0.3029 -0.3953
vn -0.7037 0.3445 -0.6214
vn -0.5681 0.3489 -0.7454
vn -0.3884 0.3582 -0.8490
vn -0.2608 0.3750 -0.8896
vn -0.0483 0.3791 -0.9241
vn 0.3777 -0.0396 0.9251
vn 0.5161 -0.0234 0.8562
vn 0.6764 0.0093 0.7365
vn 0.8839 0.0711 0.4621
vn 0.9427 0.1007 0.3180
vn 0.9747 0.1351 0.1782
vn 0.9853 0.1704 -0.0137
vn 0.9537 0.2046 -0.2205
vn 0.8964 0.2515 -0.3649
vn 0.7007 0.3218 -0.6368
vn 0.4821 0.3408 -0.8071
vn 0.3819 0.3507 -0.8551
vn 0.2585 0.3633 -0.8951
vn 0.1530 0.3676 -0.9173
vn 0.1739 -0.1452 0.9740
vn 0.1502 -0.0565 0.9870
vn 0.3019 -0.0958 0.9485
vn -0.1352 -0.1448 0.9802
vn -0.1580 -0.0760 0.9845
vn -0.3715 -0.0850 0.9245
vn -0.1407 -0.6157 -0.7753
vn -0.0116 -0.6310 -0.7757
vn 0.1313 -0.6375 -0.7592
vn 0.0618 -0.6608 -0.7480
vn -0.1401 0.2967 0.9447
vn 0.0401 0.8080 0.5878
vn 0.5646 -0.2408 0.7895
vn 0.4052 -0.5006 0.7650
vn -0.3005 -0.5488 0.7801
vn 0.2496 -0.5233 0.8148
vn -0.7194 -0.2652 0.6419
vn -0.4441 -0.5148 0.7333
vn -0.6259 -0.3369 0.7034
vn 0.6037 -0.2944 0.7409
vn -0.0695 -0.9821 -0.1748
vn -0.1228 -0.9177 -0.3779
vn -0.2092 -0.9656 -0.1543
vn -0.0316 -0.9521 -0.3042
vn -0.3112 -0.9376 -0.1552
vn -0.0457 -0.9509 -0.3060
vn -0.2345 -0.9531 -0.1912
vn -0.0113 -0.9456 -0.3253
vn 0.0016 -0.9887 -0.1499
vn -0.1404 -0.9669 -0.2131
vn 0.0277 -0.9859 -0.1651
vn -0.1989 -0.9337 -0.2978
vn 0.0006 -0.9846 -0.1747
vn -0.2370 -0.8814 -0.4086
vn 0.0673 -0.9864 -0.1502
vn 0.0743 -0.9496 -0.3045
vn 0.0562 -0.9798 -0.1919
vn 0.0562 -0.9390 -0.3394
vn 0.0213 -0.9788 -0.2037
vn 0.0564 -0.9136 -0.4026
vn 0.0071 -0.9816 -0.1906
vn 0.0233 -0.9234 -0.3830
vn -0.0485 -0.9888 -0.1408
vn 0.0205 -0.9821 -0.1872
vn 0.0166 -0.9862 -0.1649
vn 0.0334 -0.9757 -0.2167
vn 0.0519 -0.9876 -0.1483
vn 0.0712 -0.9597 -0.2717
vn -0.7282 -0.4135 0.5466
vn 0.5266 -0.5165 0.6752
vn 0.1301 -0.3832 0.9144
vn 0.2479 -0.2125 0.9452
vn 0.1874 -0.1360 0.9728
vn 0.1545 -0.3264 0.9325
vn -0.0759 -0.2637 0.9616
vn 0.0512 -0.1243 0.9909
vn 0.0389 -0.1918 0.9807
vn 0.0097 -0.3300 0.9439
vn 0.0292 -0.9744 -0.2228
vn -0.1270 -0.3152 0.9405
vn 0.0123 -0.2218 0.9750
vn -0.0485 -0.1182 0.9918
vn -0.0444 -0.2128 0.9761
vn 0.0163 -0.1788 0.9838
vn -0.0461 -0.9972 -0.0595
vn -0.0016 -0.9924 0.1231
vn 0.0567 -0.9952 -0.0795
vn 0.0091 -0.9883 -0.1520
vn -0.1448 -0.2835 0.9480
vn 0.1507 -0.5086 0.8477
vn 0.1738 0.3188 0.9318
vn 0.1400 0.4890 -0.8610
vn 0.2262 -0.0927 0.9697
vn -0.0463 0.5559 -0.8300
usemtl roca
s off
f 1/1/1 2/2/1 3/3/1 4/4/1
f 5/5/2 6/6/2 2/2/2 1/1/2
f 4/7/3 3/8/3 7/9/3 8/10/3
f 2/2/4 9/11/4 10/12/4 3/3/4
f 9/11/5 11/13/5 12/14/5 10/12/5
f 11/13/6 13/15/6 14/16/6 12/14/6
f 13/15/7 15/17/7 16/18/7 14/16/7
f 15/17/8 17/19/8 18/20/8 16/18/8
f 17/19/9 19/21/9 20/22/9 18/20/9
f 19/21/10 21/23/10 22/24/10 20/22/10
f 21/23/11 23/25/11 24/26/11 22/24/11
f 23/25/12 25/27/12 26/28/12 24/26/12
f 25/27/13 27/29/13 28/30/13 26/28/13
f 27/29/14 29/31/14 30/32/14 28/30/14
f 29/31/15 31/33/15 32/34/15 30/32/15
f 31/33/16 33/35/16 34/36/16 32/34/16
f 33/35/17 35/37/17 36/38/17 34/36/17
f 35/37/18 37/39/18 38/40/18 36/38/18
f 22/41/19 24/42/19 39/43/19 40/44/19
f 41/45/20 42/46/20 43/47/20 44/48/20
f 45/49/21 41/45/21 44/48/21 46/50/21
f 47/51/22 45/49/22 46/50/22 48/52/22
f 49/53/23 47/51/23 48/52/23 50/54/23
f 51/55/24 49/53/24 50/54/24 52/56/24
f 53/57/25 51/55/25 52/56/25 54/58/25
f 55/59/26 53/57/26 54/58/26 56/60/26
f 57/61/27 55/59/27 56/60/27 58/62/27
f 59/63/28 57/61/28 58/62/28 60/64/28
f 61/65/29 59/63/29 60/64/29 62/66/29
f 63/67/30 61/65/30 62/66/30 64/68/30
f 65/69/31 63/67/31 64/68/31 66/70/31
f 67/71/32 65/69/32 66/70/32 68/72/32
f 69/73/33 67/71/33 68/72/33 70/74/33
f 71/75/34 72/76/34 73/77/34 74/78/34
f 44/79/35 43/80/35 75/81/35 76/82/35
f 76/82/36 75/81/36 37/39/36 35/37/36
f 46/83/37 44/79/37 76/82/37 77/84/37
f 77/84/38 76/82/38 35/37/38 33/35/38
f 48/85/39 46/83/39 77/84/39 78/86/39
f 78/86/40 77/84/40 33/35/40 31/33/40
f 50/87/41 48/85/41 78/86/41 79/88/41
f 79/88/42 78/86/42 31/33/42 29/31/42
f 52/89/43 50/87/43 79/88/43 80/90/43
f 80/90/44 79/88/44 29/31/44 27/29/44
f 54/91/45 52/89/45 80/90/45 81/92/45
f 81/92/46 80/90/46 27/29/46 25/27/46
f 56/93/47 54/91/47 81/92/47 82/94/47
f 82/94/48 81/92/48 25/27/48 23/25/48
f 58/95/49 56/93/49 82/94/49 83/96/49
f 83/96/50 82/94/50 23/25/50 21/23/50
f 60/97/51 58/95/51 83/96/51 84/98/51
f 84/98/52 83/96/52 21/23/52 19/21/52
f 62/99/53 60/97/53 84/98/53 85/100/53
f 85/100/54 84/98/54 19/21/54 17/19/54
f 64/101/55 62/99/55 85/100/55 86/102/55
f 86/102/56 85/100/56 17/19/56 15/17/56
f 66/103/57 64/101/57 86/102/57 87/104/57
f 87/104/58 86/102/58 15/17/58 13/15/58
f 68/105/59 66/103/59 87/104/59 88/106/59
f 88/106/60 87/104/60 13/15/60 11/13/60
f 70/107/61 68/105/61 88/106/61 89/108/61
f 89/108/62 88/106/62 11/13/62 9/11/62
f 90/109/63 70/107/63 89/108/63 6/6/63
f 6/6/64 89/108/64 9/11/64 2/2/64
f 14/110/65 16/111/65 91/112/65 92/113/65
f 32/114/66 34/115/66 93/116/66 94/117/66
f 24/42/67 26/118/67 95/119/67 39/43/67
f 16/111/68 18/120/68 96/121/68 91/112/68
f 34/115/69 36/122/69 97/123/69 93/116/69
f 3/8/70 10/124/70 98/125/70 7/9/70
f 26/118/71 28/126/71 99/127/71 95/119/71
f 18/120/72 20/128/72 100/129/72 96/121/72
f 36/122/73 38/130/73 101/131/73 97/123/73
f 10/124/74 12/132/74 102/133/74 98/125/74
f 28/126/75 30/134/75 103/135/75 99/127/75
f 20/128/76 22/41/76 40/44/76 100/129/76
f 12/132/77 14/110/77 92/113/77 102/133/77
f 30/134/78 32/114/78 94/117/78 103/135/78
f 91/136/79 96/137/79 104/138/79 105/139/79
f 96/137/80 100/140/80 106/141/80 104/138/80
f 100/140/81 40/142/81 107/143/81 106/141/81
f 40/142/82 39/144/82 108/145/82 107/143/82
f 39/144/83 95/146/83 109/147/83 108/145/83
f 95/146/84 99/148/84 110/149/84 109/147/84
f 99/148/85 103/150/85 111/151/85 110/149/85
f 7/152/86 98/153/86 112/154/86 113/155/86
f 98/153/87 102/156/87 114/157/87 112/154/87
f 102/156/88 92/158/88 115/159/88 114/157/88
f 92/158/89 91/136/89 105/139/89 115/159/89
f 116/160/90 117/161/90 118/162/90 119/163/90
f 113/164/91 112/165/91 120/166/91
f 112/167/92 114/168/92 121/169/92 120/170/92
f 114/168/93 115/171/93 122/172/93 121/169/93
f 115/171/94 105/173/94 123/174/94 122/172/94
f 105/173/95 104/175/95 124/176/95 123/174/95
f 104/175/96 106/177/96 125/178/96 124/176/96
f 106/177/97 107/179/97 126/180/97 125/178/97
f 107/179/98 108/181/98 127/182/98 126/180/98
f 108/181/99 109/183/99 128/184/99 127/182/99
f 109/183/100 110/185/100 129/186/100 128/184/100
f 110/185/101 111/187/101 130/188/101 129/186/101
f 111/187/102 131/189/102 132/190/102 130/188/102
f 131/189/103 116/160/103 119/163/103 132/190/103
f 133/191/104 134/192/104 135/193/104 136/194/104
f 113/164/105 120/166/105 137/195/105 138/196/105
f 120/166/106 121/197/106 139/198/106 137/195/106
f 140/199/107 141/200/107 118/162/107 117/161/107
f 128/201/108 129/202/108 142/203/108 143/204/108
f 139/205/109 121/206/109 144/207/109 145/208/109
f 127/209/110 128/201/110 143/204/110 146/210/110
f 137/211/111 139/205/111 145/208/111 147/212/111
f 126/213/112 127/209/112 146/210/112 148/214/112
f 138/215/113 137/211/113 147/212/113 149/216/113
f 125/217/114 126/213/114 148/214/114 150/218/114
f 151/219/115 152/220/115 153/221/115 154/222/115
f 124/223/116 125/217/116 150/218/116 155/224/116
f 123/225/117 124/223/117 155/224/117 156/226/117
f 122/227/118 123/225/118 156/226/118 157/228/118
f 121/206/119 122/227/119 157/228/119 144/207/119
f 118/229/120 158/230/120 159/231/120
f 119/232/121 118/229/121 159/231/121 160/233/121
f 132/234/122 119/232/122 160/233/122 161/235/122
f 130/236/123 132/234/123 161/235/123 162/237/123
f 129/202/124 130/236/124 162/237/124 142/203/124
f 163/238/125 164/239/125 1/240/125 4/241/125
f 164/239/126 165/242/126 5/243/126 1/240/126
f 166/244/127 163/245/127 4/246/127 8/247/127
f 154/248/128 153/249/128 167/250/128 168/251/128
f 169/252/129 134/253/129 133/254/129 149/255/129
f 103/150/130 94/256/130 131/257/130 111/151/130
f 94/256/131 93/258/131 116/259/131 131/257/131
f 93/258/132 97/260/132 117/261/132 116/259/132
f 97/260/133 101/262/133 117/261/133
f 170/263/134 158/264/134 118/265/134 141/266/134
f 145/267/135 144/268/135 157/269/135 169/252/135
f 150/270/136 148/271/136 169/252/136 155/272/136
f 146/273/137 143/274/137 169/252/137 148/271/137
f 142/275/138 162/276/138 169/252/138 143/274/138
f 161/277/139 160/278/139 169/252/139 162/276/139
f 101/279/140 171/280/140 140/281/140 117/282/140
f 159/283/141 158/284/141 169/252/141 160/278/141
f 168/251/142 163/285/142 166/286/142 154/248/142
f 156/287/143 155/272/143 169/252/143 157/269/143
f 172/288/144 173/289/144 174/290/144 175/291/144
f 176/292/145 177/293/145 178/294/145 179/295/145
f 173/289/146 180/296/146 181/297/146 174/290/146
f 177/293/147 182/298/147 183/299/147 178/294/147
f 180/296/148 184/300/148 185/301/148 181/297/148
f 182/298/149 186/302/149 187/303/149 183/299/149
f 188/304/150 189/305/150 190/306/150 191/307/150
f 184/300/151 192/308/151 193/309/151 185/301/151
f 189/305/152 194/310/152 195/311/152 190/306/152
f 192/308/153 196/312/153 197/313/153 193/309/153
f 194/310/154 198/314/154 199/315/154 195/311/154
f 196/312/155 200/316/155 201/317/155 197/313/155
f 198/314/156 172/288/156 175/291/156 199/315/156
f 200/316/157 176/292/157 179/295/157 201/317/157
f 179/318/158 178/319/158 202/320/158 203/321/158
f 178/319/159 183/322/159 204/323/159 202/320/159
f 183/322/160 187/324/160 205/325/160 204/323/160
f 191/326/161 190/327/161 206/328/161 207/329/161
f 190/327/162 195/330/162 208/331/162 206/328/162
f 195/330/163 199/332/163 209/333/163 208/331/163
f 199/332/164 175/334/164 210/335/164 209/333/164
f 175/334/165 174/336/165 211/337/165 210/335/165
f 174/336/166 181/338/166 212/339/166 211/337/166
f 202/340/167 204/341/167 213/342/167 203/343/167
f 181/338/168 185/344/168 214/345/168 212/339/168
f 215/346/169 216/347/169 203/343/169 213/342/169
f 185/344/170 193/348/170 217/349/170 214/345/170
f 193/348/171 197/350/171 215/351/171 217/349/171
f 197/350/172 201/352/172 216/353/172 215/351/172
f 201/352/173 179/318/173 203/321/173 216/353/173
f 205/354/174 218/355/174 213/342/174 204/341/174
f 186/356/175 219/357/175 220/358/175 221/359/175
f 208/360/176 209/361/176 213/342/176 206/362/176
f 210/363/177 211/364/177 213/342/177 209/361/177
f 212/365/178 214/366/178 213/342/178 211/364/178
f 217/367/179 215/346/179 213/342/179 214/366/179
f 213/342/180 222/368/180 207/369/180 206/362/180
f 163/370/181 168/371/181 223/372/181 164/373/181
f 164/373/182 223/372/182 224/374/182 165/375/182
f 169/252/183 225/376/183 226/377/183 134/253/183
f 227/378/184 228/379/184 229/380/184 230/381/184
f 72/76/185 227/378/185 230/381/185 73/77/185
f 228/382/186 231/383/186 232/384/186 229/385/186
f 230/381/187 229/380/187 233/386/187 234/387/187
f 234/387/188 233/386/188 235/388/188 236/389/188
f 236/389/189 235/388/189 237/390/189 238/391/189
f 238/391/190 237/390/190 239/392/190 240/393/190
f 240/393/191 239/392/191 241/394/191 242/395/191
f 242/395/192 241/394/192 243/396/192 244/397/192
f 244/397/193 243/396/193 245/398/193 246/399/193
f 246/399/194 245/398/194 247/400/194 248/401/194
f 248/401/195 247/400/195 249/402/195 250/403/195
f 250/403/196 249/402/196 251/404/196 252/405/196
f 252/405/197 251/404/197 253/406/197 254/407/197
f 254/407/198 253/406/198 255/408/198 256/409/198
f 256/409/199 255/408/199 257/410/199 258/411/199
f 258/411/200 257/410/200 259/412/200 260/413/200
f 260/413/201 259/412/201 38/40/201 37/39/201
f 245/414/202 261/415/202 262/416/202 247/417/202
f 263/418/203 264/419/203 43/47/203 42/46/203
f 265/420/204 266/421/204 264/419/204 263/418/204
f 267/422/205 268/423/205 266/421/205 265/420/205
f 269/424/206 270/425/206 268/423/206 267/422/206
f 271/426/207 272/427/207 270/425/207 269/424/207
f 273/428/208 274/429/208 272/427/208 271/426/208
f 275/430/209 276/431/209 274/429/209 273/428/209
f 277/432/210 278/433/210 276/431/210 275/430/210
f 279/434/211 280/435/211 278/433/211 277/432/211
f 281/436/212 282/437/212 280/435/212 279/434/212
f 283/438/213 284/439/213 282/437/213 281/436/213
f 285/440/214 286/441/214 284/439/214 283/438/214
f 287/442/215 288/443/215 286/441/215 285/440/215
f 289/444/216 290/445/216 288/443/216 287/442/216
f 90/109/217 6/6/217 5/5/217 165/446/217
f 264/447/218 291/448/218 75/81/218 43/80/218
f 291/448/219 260/413/219 37/39/219 75/81/219
f 266/449/220 292/450/220 291/448/220 264/447/220
f 292/450/221 258/411/221 260/413/221 291/448/221
f 268/451/222 293/452/222 292/450/222 266/449/222
f 293/452/223 256/409/223 258/411/223 292/450/223
f 270/453/224 294/454/224 293/452/224 268/451/224
f 294/454/225 254/407/225 256/409/225 293/452/225
f 272/455/226 295/456/226 294/454/226 270/453/226
f 295/456/227 252/405/227 254/407/227 294/454/227
f 274/457/228 296/458/228 295/456/228 272/455/228
f 296/458/229 250/403/229 252/405/229 295/456/229
f 276/459/230 297/460/230 296/458/230 274/457/230
f 297/460/231 248/401/231 250/403/231 296/458/231
f 278/461/232 298/462/232 297/460/232 276/459/232
f 298/462/233 246/399/233 248/401/233 297/460/233
f 280/463/234 299/464/234 298/462/234 278/461/234
f 299/464/235 244/397/235 246/399/235 298/462/235
f 282/465/236 300/466/236 299/464/236 280/463/236
f 300/466/237 242/395/237 244/397/237 299/464/237
f 284/467/238 301/468/238 300/466/238 282/465/238
f 301/468/239 240/393/239 242/395/239 300/466/239
f 286/469/240 302/470/240 301/468/240 284/467/240
f 302/470/241 238/391/241 240/393/241 301/468/241
f 288/471/242 303/472/242 302/470/242 286/469/242
f 303/472/243 236/389/243 238/391/243 302/470/243
f 290/473/244 304/474/244 303/472/244 288/471/244
f 304/474/245 234/387/245 236/389/245 303/472/245
f 74/78/246 73/77/246 304/474/246 290/473/246
f 73/77/247 230/381/247 234/387/247 304/474/247
f 237/475/248 305/476/248 306/477/248 239/478/248
f 255/479/249 307/480/249 308/481/249 257/482/249
f 247/417/250 262/416/250 309/483/250 249/484/250
f 239/478/251 306/477/251 310/485/251 241/486/251
f 257/482/252 308/481/252 311/487/252 259/488/252
f 229/385/253 232/384/253 312/489/253 233/490/253
f 249/484/254 309/483/254 313/491/254 251/492/254
f 241/486/255 310/485/255 314/493/255 243/494/255
f 259/488/256 311/487/256 101/495/256 38/496/256
f 233/490/257 312/489/257 315/497/257 235/498/257
f 251/492/258 313/491/258 316/499/258 253/500/258
f 243/494/259 314/493/259 261/415/259 245/414/259
f 235/498/260 315/497/260 305/476/260 237/475/260
f 253/500/261 316/499/261 307/480/261 255/479/261
f 306/501/262 317/502/262 318/503/262 310/504/262
f 310/504/263 318/503/263 319/505/263 314/506/263
f 314/506/264 319/505/264 320/507/264 261/508/264
f 261/508/265 320/507/265 321/509/265 262/510/265
f 262/510/266 321/509/266 322/511/266 309/512/266
f 309/512/267 322/511/267 323/513/267 313/514/267
f 313/514/268 323/513/268 324/515/268 316/516/268
f 232/517/269 152/220/269 325/518/269 312/519/269
f 312/519/270 325/518/270 326/520/270 315/521/270
f 315/521/271 326/520/271 327/522/271 305/523/271
f 305/523/272 327/522/272 317/502/272 306/501/272
f 328/524/273 329/525/273 170/526/273 171/527/273
f 152/528/274 330/529/274 325/530/274
f 325/531/275 330/532/275 331/533/275 326/534/275
f 326/534/276 331/533/276 332/535/276 327/536/276
f 327/536/277 332/535/277 333/537/277 317/538/277
f 317/538/278 333/537/278 334/539/278 318/540/278
f 318/540/279 334/539/279 335/541/279 319/542/279
f 319/542/280 335/541/280 336/543/280 320/544/280
f 320/544/281 336/543/281 337/545/281 321/546/281
f 321/546/282 337/545/282 338/547/282 322/548/282
f 322/548/283 338/547/283 339/549/283 323/550/283
f 323/550/284 339/549/284 340/551/284 324/552/284
f 324/552/285 340/551/285 341/553/285 342/554/285
f 342/554/286 341/553/286 329/525/286 328/524/286
f 152/528/287 135/555/287 343/556/287 330/529/287
f 330/529/288 343/556/288 344/557/288 331/558/288
f 140/199/289 171/527/289 170/526/289 141/200/289
f 338/559/290 345/560/290 346/561/290 339/562/290
f 344/563/291 225/564/291 347/565/291 331/566/291
f 337/567/292 348/568/292 345/560/292 338/559/292
f 343/569/293 226/570/293 225/564/293 344/563/293
f 336/571/294 349/572/294 348/568/294 337/567/294
f 135/193/295 134/192/295 226/570/295 343/569/295
f 335/573/296 350/574/296 349/572/296 336/571/296
f 334/575/297 351/576/297 350/574/297 335/573/297
f 333/577/298 352/578/298 351/576/298 334/575/298
f 332/579/299 353/580/299 352/578/299 333/577/299
f 331/566/300 347/565/300 353/580/300 332/579/300
f 170/581/301 354/582/301 158/583/301
f 329/584/302 355/585/302 354/582/302 170/581/302
f 341/586/303 356/587/303 355/585/303 329/584/303
f 340/588/304 357/589/304 356/587/304 341/586/304
f 339/562/305 346/561/305 357/589/305 340/588/305
f 167/590/306 228/591/306 227/592/306 358/593/306
f 358/593/307 227/592/307 72/594/307 71/595/307
f 153/596/308 231/597/308 228/598/308 167/599/308
f 166/600/309 8/601/309 7/152/309 113/155/309
f 316/516/310 324/515/310 342/602/310 307/603/310
f 307/603/311 342/602/311 328/604/311 308/605/311
f 308/605/312 328/604/312 171/606/312 311/607/312
f 311/607/313 171/606/313 101/608/313
f 225/376/314 169/252/314 353/609/314 347/610/314
f 169/252/315 349/611/315 350/612/315 351/613/315
f 169/252/316 345/614/316 348/615/316 349/611/316
f 169/252/317 357/616/317 346/617/317 345/614/317
f 169/252/318 355/618/318 356/619/318 357/616/318
f 169/252/319 158/284/319 354/620/319 355/618/319
f 169/252/320 351/613/320 352/621/320 353/609/320
f 359/622/321 360/623/321 361/624/321 362/625/321
f 363/626/322 364/627/322 365/628/322 366/629/322
f 362/625/323 361/624/323 367/630/323 368/631/323
f 366/629/324 365/628/324 369/632/324 370/633/324
f 368/631/325 367/630/325 371/634/325 372/635/325
f 370/633/326 369/632/326 373/636/326 374/637/326
f 188/304/327 191/307/327 375/638/327 376/639/327
f 372/635/328 371/634/328 377/640/328 378/641/328
f 376/639/329 375/638/329 379/642/329 380/643/329
f 378/641/330 377/640/330 381/644/330 382/645/330
f 380/643/331 379/642/331 383/646/331 384/647/331
f 382/645/332 381/644/332 385/648/332 386/649/332
f 384/647/333 383/646/333 360/623/333 359/622/333
f 386/649/334 385/648/334 364/627/334 363/626/334
f 364/650/335 387/651/335 388/652/335 365/653/335
f 365/653/336 388/652/336 389/654/336 369/655/336
f 369/655/337 389/654/337 390/656/337 373/657/337
f 191/658/338 207/659/338 222/660/338 375/661/338
f 375/661/339 222/660/339 391/662/339 379/663/339
f 379/663/340 391/662/340 392/664/340 383/665/340
f 383/665/341 392/664/341 393/666/341 360/667/341
f 360/667/342 393/666/342 394/668/342 361/669/342
f 361/669/343 394/668/343 395/670/343 367/671/343
f 388/672/344 387/673/344 213/342/344 389/674/344
f 367/671/345 395/670/345 396/675/345 371/676/345
f 397/677/346 213/342/346 387/673/346 398/678/346
f 371/676/347 396/675/347 399/679/347 377/680/347
f 377/680/348 399/679/348 397/681/348 381/682/348
f 381/682/349 397/681/349 398/683/349 385/684/349
f 385/684/350 398/683/350 387/651/350 364/650/350
f 390/685/351 389/674/351 213/342/351 400/686/351
f 219/357/352 401/687/352 402/688/352 220/358/352
f 391/689/353 222/368/353 213/342/353 392/690/353
f 393/691/354 392/690/354 213/342/354 394/692/354
f 395/693/355 394/692/355 213/342/355 396/694/355
f 399/695/356 396/694/356 213/342/356 397/677/356
f 401/687/357 403/696/357 404/697/357 402/688/357
f 167/698/358 358/699/358 223/372/358 168/371/358
f 358/699/359 71/700/359 224/374/359 223/372/359
f 405/701/360 224/374/360 71/700/360 74/702/360
f 224/374/361 405/701/361 90/703/361 165/375/361
f 406/704/362 407/705/362 408/706/362 409/707/362
f 409/707/363 408/706/363 410/708/363 411/709/363
f 411/709/364 410/708/364 412/710/364 413/711/364
f 413/711/365 412/710/365 414/712/365 415/713/365
f 415/713/366 414/712/366 416/714/366 417/715/366
f 417/715/367 416/714/367 418/716/367 419/717/367
f 419/717/368 418/716/368 420/718/368 421/719/368
f 421/719/369 420/718/369 422/720/369 423/721/369
f 423/721/370 422/720/370 424/722/370 425/723/370
f 425/723/371 424/722/371 426/724/371 427/725/371
f 427/725/372 426/724/372 428/726/372 429/727/372
f 429/727/373 428/726/373 430/728/373 431/729/373
f 431/729/374 430/728/374 432/730/374 433/731/374
f 433/731/375 432/730/375 434/732/375 435/733/375
f 436/734/376 437/735/376 438/736/376 439/737/376
f 437/735/377 440/738/377 441/739/377 438/736/377
f 440/738/378 442/740/378 443/741/378 441/739/378
f 442/740/379 444/742/379 445/743/379 443/741/379
f 444/742/380 446/744/380 447/745/380 445/743/380
f 446/744/381 448/746/381 449/747/381 447/745/381
f 448/746/382 450/748/382 451/749/382 449/747/382
f 450/748/383 452/750/383 453/751/383 451/749/383
f 452/750/384 454/752/384 455/753/384 453/751/384
f 454/752/385 456/754/385 457/755/385 455/753/385
f 456/754/386 458/756/386 459/757/386 457/755/386
f 458/756/387 460/758/387 461/759/387 459/757/387
f 460/758/388 462/760/388 463/761/388 461/759/388
f 462/760/389 435/733/389 434/732/389 463/761/389
f 407/705/390 289/444/390 287/442/390 408/706/390
f 408/706/391 287/442/391 285/440/391 410/708/391
f 410/708/392 285/440/392 283/438/392 412/710/392
f 412/710/393 283/438/393 281/436/393 414/712/393
f 414/712/394 281/436/394 279/434/394 416/714/394
f 416/714/395 279/434/395 277/432/395 418/716/395
f 418/716/396 277/432/396 275/430/396 420/718/396
f 420/718/397 275/430/397 273/428/397 422/720/397
f 422/720/398 273/428/398 271/426/398 424/722/398
f 424/722/399 271/426/399 269/424/399 426/724/399
f 426/724/400 269/424/400 267/422/400 428/726/400
f 428/726/401 267/422/401 265/420/401 430/728/401
f 430/728/402 265/420/402 263/418/402 432/730/402
f 432/730/403 263/418/403 42/46/403 434/732/403
f 439/737/404 438/736/404 67/71/404 69/73/404
f 438/736/405 441/739/405 65/69/405 67/71/405
f 441/739/406 443/741/406 63/67/406 65/69/406
f 443/741/407 445/743/407 61/65/407 63/67/407
f 445/743/408 447/745/408 59/63/408 61/65/408
f 447/745/409 449/747/409 57/61/409 59/63/409
f 449/747/410 451/749/410 55/59/410 57/61/410
f 451/749/411 453/751/411 53/57/411 55/59/411
f 453/751/412 455/753/412 51/55/412 53/57/412
f 455/753/413 457/755/413 49/53/413 51/55/413
f 457/755/414 459/757/414 47/51/414 49/53/414
f 459/757/415 461/759/415 45/49/415 47/51/415
f 461/759/416 463/761/416 41/45/416 45/49/416
f 463/761/417 434/732/417 42/46/417 41/45/417
f 70/74/418 90/762/418 464/763/418 69/73/418
f 465/764/419 439/737/419 69/73/419 464/763/419
f 436/734/420 439/737/420 465/764/420 466/765/420
f 290/445/421 289/444/421 467/766/421 74/767/421
f 468/768/422 467/766/422 289/444/422 407/705/422
f 406/704/423 469/769/423 468/768/423 407/705/423
f 218/770/424 205/325/424 187/324/424 470/771/424
f 218/770/425 470/771/425 471/772/425 472/773/425
f 400/774/426 473/775/426 373/657/426 390/656/426
f 400/774/427 472/773/427 471/772/427 473/775/427
f 136/776/428 135/555/428 152/528/428 151/777/428
f 147/778/429 145/267/429 169/252/429 149/255/429
f 468/779/430 469/780/430 474/781/430 475/782/430
f 74/783/431 467/784/431 476/785/431 477/786/431
f 90/787/432 405/788/432 478/789/432 479/790/432
f 405/791/433 74/783/433 477/786/433 478/792/433
f 466/793/434 465/794/434 401/795/434 219/796/434
f 464/797/435 90/787/435 479/790/435 403/798/435
f 465/794/436 464/797/436 403/798/436 401/795/436
f 467/784/437 468/779/437 475/782/437 476/785/437
f 415/799/438 386/649/438 363/626/438 413/800/438
f 429/801/439 384/647/439 359/622/439 427/802/439
f 417/803/440 382/645/440 386/649/440 415/799/440
f 431/804/441 380/643/441 384/647/441 429/801/441
f 419/805/442 378/641/442 382/645/442 417/803/442
f 433/806/443 376/639/443 380/643/443 431/804/443
f 421/807/444 372/635/444 378/641/444 419/805/444
f 435/808/445 188/304/445 376/639/445 433/806/445
f 409/809/446 370/633/446 374/637/446 406/810/446
f 423/811/447 368/631/447 372/635/447 421/807/447
f 411/812/448 366/629/448 370/633/448 409/809/448
f 425/813/449 362/625/449 368/631/449 423/811/449
f 413/800/450 363/626/450 366/629/450 411/812/450
f 427/802/451 359/622/451 362/625/451 425/813/451
f 444/814/452 442/815/452 176/292/452 200/316/452
f 458/816/453 456/817/453 172/288/453 198/314/453
f 446/818/454 444/814/454 200/316/454 196/312/454
f 460/819/455 458/816/455 198/314/455 194/310/455
f 448/820/456 446/818/456 196/312/456 192/308/456
f 462/821/457 460/819/457 194/310/457 189/305/457
f 450/822/458 448/820/458 192/308/458 184/300/458
f 435/808/459 462/821/459 189/305/459 188/304/459
f 437/823/460 436/824/460 186/302/460 182/298/460
f 452/825/461 450/822/461 184/300/461 180/296/461
f 440/826/462 437/823/462 182/298/462 177/293/462
f 454/827/463 452/825/463 180/296/463 173/289/463
f 442/815/464 440/826/464 177/293/464 176/292/464
f 456/817/465 454/827/465 173/289/465 172/288/465
f 436/828/466 466/793/466 219/796/466 186/829/466
f 406/830/467 374/831/467 474/781/467 469/780/467
f 480/832/468 481/833/468 474/834/468 374/835/468
f 481/833/469 482/836/469 475/837/469 474/834/469
f 482/836/470 483/838/470 476/839/470 475/837/470
f 483/838/471 484/840/471 477/841/471 476/839/471
f 404/697/472 485/842/472 486/843/472 487/844/472
f 402/688/473 404/697/473 487/844/473 488/845/473
f 220/358/474 402/688/474 488/845/474 489/846/474
f 221/359/475 220/358/475 489/846/475 490/847/475
f 400/686/476 213/342/476 218/355/476 472/848/476
f 403/696/477 479/849/477 485/842/477 404/697/477
f 487/844/478 486/843/478 484/840/478 483/838/478
f 488/845/479 487/844/479 483/838/479 482/836/479
f 489/846/480 488/845/480 482/836/480 481/833/480
f 490/847/481 489/846/481 481/833/481 480/832/481
f 187/303/482 186/302/482 221/850/482 470/851/482
f 471/852/483 470/851/483 221/850/483 490/853/483
f 473/854/484 471/852/484 490/853/484 480/855/484
f 374/637/485 373/636/485 473/854/485 480/855/485
f 478/856/486 486/843/486 485/842/486 479/849/486
f 477/841/487 484/840/487 486/843/487 478/856/487
f 138/196/488 136/776/488 151/777/488 113/164/488
f 152/220/489 232/517/489 231/857/489 153/221/489
f 149/216/490 133/191/490 136/194/490 138/215/490
f 113/155/491 151/858/491 154/859/491 166/600/491
