# Blender v2.93.3 OBJ File: ''
# www.blender.org
mtllib cuerpo1.mtl
o cuerpo_1_gancho_low
v 0.189399 -1.500547 -0.755232
v -0.001478 -1.505396 -0.783991
v -0.000704 -1.119447 -0.915846
v 0.204627 -1.114497 -0.890183
v 0.202834 -0.651679 -0.910934
v 0.000628 -0.650948 -0.925322
v 0.000389 -0.194392 -0.933652
v 0.199093 -0.194552 -0.920712
v 0.374829 -1.479257 -0.696568
v 0.403832 -1.108958 -0.834584
v 0.396557 -0.652743 -0.854970
v 0.390183 -0.202844 -0.876700
v 0.551748 -1.458390 -0.607319
v 0.589876 -1.102506 -0.746288
v 0.576399 -0.655310 -0.765509
v 0.569461 -0.215409 -0.796869
v 0.703277 -1.430089 -0.493773
v 0.755901 -1.094737 -0.629833
v 0.734584 -0.659091 -0.650312
v 0.728398 -0.228959 -0.689367
v 0.824583 -1.400720 -0.365473
v 0.882059 -1.086356 -0.474781
v 0.863312 -0.664912 -0.506843
v 0.853325 -0.239546 -0.549846
v 0.906270 -1.372094 -0.222001
v 0.972814 -1.073714 -0.296809
v 0.958449 -0.671786 -0.343190
v 0.946914 -0.260051 -0.392297
v 0.962343 -1.356445 -0.057715
v 1.029796 -1.059692 -0.113086
v 1.018036 -0.678684 -0.165622
v 1.007335 -0.282015 -0.223567
v 0.976635 -1.345415 0.151363
v 1.041651 -1.044658 0.080554
v 1.033823 -0.685819 0.016726
v 1.027172 -0.309105 -0.048203
v 0.952226 -1.347166 0.358642
v 1.010646 -1.031481 0.266526
v 1.008915 -0.693258 0.200838
v 1.005059 -0.332215 0.128423
v 0.898376 -1.358044 0.537954
v 0.951851 -1.088504 0.461040
v 0.952889 -0.701010 0.377607
v 0.949820 -0.356184 0.298318
v 0.810011 -1.375698 0.698058
v 0.860204 -1.064212 0.631489
v 0.859428 -0.708466 0.542765
v 0.856365 -0.375127 0.457070
v 0.700594 -1.397441 0.837513
v 0.734718 -1.039981 0.781321
v 0.738237 -0.712699 0.694787
v 0.732345 -0.393649 0.597718
v 0.556112 -1.418945 0.953931
v 0.581954 -1.025686 0.906964
v 0.588826 -0.714471 0.825270
v 0.573730 -0.410326 0.709669
v 0.384539 -1.439494 1.030272
v 0.402307 -1.019471 0.999607
v 0.407304 -0.716410 0.919994
v 0.399070 -0.424070 0.802873
v 0.195296 -1.457038 1.069479
v 0.227426 -0.939410 1.051024
v 0.320369 -0.720573 0.962076
v 0.351444 -0.435893 0.815898
v 0.171482 -1.847152 1.042354
v 0.039589 -1.855333 1.048332
v 0.040886 -1.858137 0.924531
v 0.150838 -1.849541 0.903640
v 0.040872 -1.745610 0.801368
v 0.127945 -1.736551 0.791035
v -0.003078 -1.893161 -0.646434
v 0.161927 -1.858721 -0.619301
v 0.151636 -1.867676 -0.466839
v 0.501787 -1.797693 0.962439
v 0.346727 -1.830588 1.011926
v 0.297007 -1.830227 0.868112
v 0.432093 -1.802440 0.822347
v 0.645149 -1.755924 -0.354552
v 0.752863 -1.702392 -0.247949
v 0.648785 -1.719906 -0.161300
v 0.551160 -1.756888 -0.247240
v 0.912762 -1.628602 0.221300
v 0.889246 -1.641156 0.443001
v 0.765509 -1.669649 0.397515
v 0.780199 -1.660002 0.220629
v 0.642612 -1.755927 0.870418
v 0.550353 -1.758268 0.748772
v 0.506755 -1.804872 -0.457835
v 0.433194 -1.797664 -0.329888
v 0.887935 -1.641604 -0.000422
v 0.765265 -1.671452 0.038698
v 0.758495 -1.709528 0.769517
v 0.648447 -1.721367 0.661436
v 0.339833 -1.825243 -0.548631
v 0.298623 -1.839397 -0.412922
v 0.825405 -1.660893 -0.141414
v 0.720903 -1.693491 -0.077290
v 0.842300 -1.671011 0.620277
v 0.721275 -1.689447 0.540314
v 0.253618 -1.706244 -0.314332
v 0.128595 -1.734235 -0.356264
v 0.250758 -1.709688 0.763413
v 0.369451 -1.670425 -0.247412
v 0.467674 -1.637720 -0.174349
v 0.546416 -1.606196 -0.098606
v 0.039330 -1.454905 0.777658
v 0.125654 -1.451456 0.767665
v 0.601963 -1.582990 -0.025085
v 0.641237 -1.563486 0.070065
v 0.651349 -1.555749 0.222488
v 0.638453 -1.565103 0.370026
v 0.603656 -1.581309 0.489500
v 0.542814 -1.610588 0.589152
v 0.462914 -1.643387 0.663343
v 0.362778 -1.679900 0.723297
v 0.459146 -1.357225 -0.156139
v 0.358797 -1.392485 -0.220343
v 0.535499 -1.324255 -0.083251
v -0.002358 -1.306920 0.248677
v 0.236975 -1.420838 -0.277272
v 0.584334 -1.298510 -0.013477
v 0.613272 -1.279953 0.077312
v 0.628838 -1.278857 0.217661
v 0.610812 -1.289060 0.361732
v 0.576597 -1.305974 0.472599
v 0.519167 -1.332378 0.565270
v 0.449572 -1.361577 0.641448
v 0.355667 -1.395337 0.703221
v 0.249284 -1.426427 0.744606
v 0.120492 -1.438962 -0.318843
v -0.579719 -1.323002 -0.000533
v -0.525675 -1.339654 -0.073282
v -0.450859 -1.367101 -0.144486
v 0.000555 -1.444756 -0.341854
v 0.040596 -1.461641 1.079340
v 0.123549 -1.077811 1.072495
v -0.000190 -1.872785 -0.464456
v -0.030118 -1.366004 1.078663
v -0.040357 -1.461878 1.079047
v 0.030032 -1.366010 1.079319
v -0.041076 -1.858468 0.925263
v -0.041057 -1.744449 0.803717
v -0.063855 -1.100571 1.069355
v 0.064272 -1.099527 1.073190
v 0.051733 -0.948260 0.950652
v -0.039822 -0.937292 0.944666
v 0.874143 -0.277838 -0.188577
v 0.823578 -0.256900 -0.336385
v 0.682855 -0.277801 -0.274014
v 0.722293 -0.289724 -0.151492
v 0.341077 -0.399866 0.693143
v 0.495148 -0.388212 0.620767
v 0.408922 -0.379033 0.517732
v 0.281636 -0.388202 0.577657
v 0.173890 -0.197946 -0.808685
v -0.000010 -0.194988 -0.823856
v 0.000509 -0.230090 -0.681414
v 0.144310 -0.229685 -0.667302
v 0.891302 -0.302147 -0.035242
v 0.735326 -0.310734 -0.024852
v 0.262710 -0.414413 0.735801
v 0.143323 -0.392223 0.614509
v 0.341038 -0.206787 -0.764083
v 0.283271 -0.233341 -0.633011
v 0.874139 -0.321064 0.118857
v 0.722160 -0.330815 0.101807
v 0.495168 -0.213234 -0.690901
v 0.412733 -0.245241 -0.575358
v 0.823419 -0.341845 0.266687
v 0.680500 -0.348928 0.224342
v 0.630018 -0.221402 -0.592224
v 0.529512 -0.261020 -0.496751
v 0.741068 -0.359554 0.403108
v 0.613705 -0.361512 0.338848
v 0.741524 -0.235671 -0.472592
v 0.623467 -0.274263 -0.394596
v 0.630215 -0.378793 0.522186
v 0.521391 -0.370600 0.437653
v 0.501950 -0.430551 -0.305489
v 0.555066 -0.443879 -0.213318
v -0.039903 -1.453006 0.778563
v 0.589077 -0.460231 -0.115877
v 0.600311 -0.470746 -0.012278
v 0.590958 -0.484891 0.091674
v 0.558722 -0.503837 0.191981
v 0.505902 -0.519464 0.284903
v 0.432668 -0.527919 0.367003
v 0.339120 -0.529651 0.430258
v 0.230633 -0.532359 0.477417
v 0.002333 -0.399027 -0.543252
v 0.120654 -0.407807 -0.542122
v 0.118704 -0.535693 0.506717
v 0.232113 -0.411343 -0.512411
v 0.067377 -0.391105 0.621797
v 0.002399 -0.531562 0.513807
v 0.332833 -0.409975 -0.453670
v 0.426346 -0.417106 -0.384380
v -0.000063 -0.488581 -0.014972
v -0.038933 -1.855324 1.048051
v -0.000281 -1.733473 -0.359400
v -0.192469 -1.503603 -0.765091
v -0.206494 -1.119030 -0.896403
v -0.201918 -0.650359 -0.906407
v -0.195320 -0.205519 -0.915635
v -0.380319 -1.484158 -0.708614
v -0.407763 -1.115274 -0.843290
v -0.399405 -0.651929 -0.856215
v -0.387859 -0.219127 -0.868328
v -0.557576 -1.462562 -0.615802
v -0.589820 -1.104951 -0.750666
v -0.581086 -0.655095 -0.773793
v -0.560241 -0.225134 -0.784273
v -0.710567 -1.434585 -0.501377
v -0.745782 -1.096012 -0.621997
v -0.740537 -0.659941 -0.656447
v -0.712605 -0.239266 -0.673427
v -0.831553 -1.403810 -0.368564
v -0.874276 -1.085585 -0.469497
v -0.873364 -0.664818 -0.513710
v -0.840391 -0.257099 -0.542344
v -0.916480 -1.376334 -0.226719
v -0.963614 -1.077823 -0.292271
v -0.968076 -0.670522 -0.347438
v -0.934626 -0.282482 -0.389178
v -0.970449 -1.358972 -0.058866
v -1.026155 -1.067188 -0.108790
v -1.022212 -0.676956 -0.167784
v -0.995316 -0.300147 -0.221331
v -0.993698 -1.349325 0.153231
v -1.046836 -1.052929 0.081802
v -1.033436 -0.684198 0.017677
v -1.023780 -0.315913 -0.048101
v -0.972386 -1.351563 0.360414
v -1.028505 -1.038214 0.275269
v -1.019967 -0.691421 0.206864
v -1.005007 -0.341214 0.126702
v -0.906392 -1.359036 0.540217
v -0.969046 -1.014643 0.456734
v -0.968258 -0.699256 0.384136
v -0.946062 -0.359592 0.296679
v -0.814537 -1.375792 0.700201
v -0.868751 -1.053905 0.635795
v -0.871529 -0.706045 0.550124
v -0.855185 -0.380286 0.456050
v -0.698924 -1.398177 0.833690
v -0.742205 -1.035817 0.784416
v -0.742244 -0.711897 0.697231
v -0.729032 -0.395364 0.594978
v -0.550312 -1.420081 0.943200
v -0.583279 -1.028112 0.906647
v -0.586665 -0.715193 0.822241
v -0.574160 -0.408541 0.708970
v -0.380984 -1.439124 1.019573
v -0.403021 -1.023330 0.993994
v -0.407521 -0.716117 0.920315
v -0.400290 -0.428806 0.794438
v -0.193565 -1.457102 1.064434
v -0.220528 -0.941015 1.035317
v -0.320639 -0.720749 0.960633
v -0.342826 -0.441555 0.800397
v -0.169554 -1.843213 1.028057
v -0.152629 -1.852685 0.906399
v -0.128338 -1.734125 0.794991
v -0.151357 -1.869526 -0.463397
v -0.175430 -1.884603 -0.629241
v -0.502959 -1.797216 0.957371
v -0.433838 -1.800974 0.825812
v -0.298108 -1.833669 0.871132
v -0.343696 -1.829819 0.999032
v -0.649058 -1.754564 -0.359123
v -0.550964 -1.761652 -0.244545
v -0.648723 -1.723619 -0.159839
v -0.762004 -1.708593 -0.252287
v -0.915412 -1.627903 0.221618
v -0.780326 -1.657881 0.220590
v -0.764936 -1.663790 0.397958
v -0.893003 -1.642197 0.441822
v -0.641623 -1.756109 0.872807
v -0.551894 -1.761147 0.748946
v -0.508011 -1.805546 -0.459828
v -0.434274 -1.802094 -0.329428
v -0.891309 -1.641289 -0.004387
v -0.765167 -1.672469 0.038849
v -0.748861 -1.709307 0.763893
v -0.648914 -1.722023 0.661811
v -0.345396 -1.846901 -0.563474
v -0.297910 -1.840052 -0.410819
v -0.838341 -1.666699 -0.146260
v -0.720282 -1.695121 -0.076550
v -0.833287 -1.668455 0.616020
v -0.720738 -1.685668 0.540958
v -0.127876 -1.737363 -0.350459
v -0.251798 -1.708597 -0.309532
v -0.251590 -1.707566 0.768149
v -0.368426 -1.675342 -0.243218
v -0.466300 -1.639678 -0.172529
v -0.546435 -1.605733 -0.098786
v -0.123383 -1.445889 0.766246
v -0.602371 -1.583072 -0.025282
v -0.640733 -1.563405 0.070255
v -0.654687 -1.553359 0.222492
v -0.638820 -1.564613 0.369709
v -0.600890 -1.584220 0.487505
v -0.541281 -1.612072 0.587632
v -0.463506 -1.642642 0.664506
v -0.363836 -1.678724 0.726283
v -0.356881 -1.400387 -0.214677
v -0.241644 -1.430221 -0.278022
v -0.616567 -1.296647 0.085011
v -0.632566 -1.273077 0.221417
v -0.610300 -1.289549 0.357927
v -0.570332 -1.312155 0.467608
v -0.511284 -1.332161 0.559410
v -0.440282 -1.358387 0.630346
v -0.347342 -1.390651 0.689596
v -0.243353 -1.421503 0.734158
v -0.121221 -1.449065 -0.321820
v -0.119358 -1.078235 1.063843
v -0.874167 -0.280275 -0.188929
v -0.724903 -0.297498 -0.152696
v -0.686411 -0.282119 -0.277439
v -0.823544 -0.259300 -0.336760
v -0.341076 -0.397745 0.693674
v -0.281667 -0.386827 0.577824
v -0.409209 -0.383772 0.518829
v -0.495161 -0.389001 0.620783
v -0.173901 -0.196750 -0.808669
v -0.144054 -0.233986 -0.668848
v -0.891579 -0.297773 -0.034724
v -0.736706 -0.312387 -0.024514
v -0.262127 -0.410270 0.738850
v -0.143397 -0.389480 0.614324
v -0.341067 -0.203167 -0.763714
v -0.283897 -0.237978 -0.632524
v -0.874455 -0.317236 0.119452
v -0.723621 -0.325159 0.103129
v -0.495058 -0.208973 -0.690178
v -0.412061 -0.246030 -0.573840
v -0.823668 -0.337362 0.267352
v -0.682011 -0.344398 0.225619
v -0.630089 -0.223822 -0.592212
v -0.526047 -0.256872 -0.492656
v -0.741104 -0.359941 0.403030
v -0.613209 -0.362116 0.337606
v -0.741134 -0.240155 -0.473037
v -0.617510 -0.268315 -0.391287
v -0.630516 -0.381289 0.522202
v -0.521250 -0.378040 0.436211
v -0.554000 -0.431884 -0.211109
v -0.494512 -0.419937 -0.299708
v -0.591026 -0.448715 -0.112557
v -0.602558 -0.464739 -0.011491
v -0.589118 -0.478552 0.092195
v -0.555657 -0.493129 0.189767
v -0.496239 -0.501365 0.276138
v -0.419672 -0.509163 0.351898
v -0.328296 -0.510973 0.410775
v -0.223589 -0.513385 0.457895
v -0.117067 -0.395433 -0.529453
v -0.109377 -0.518010 0.498218
v -0.231513 -0.400688 -0.501585
v -0.067402 -0.391358 0.620667
v -0.330137 -0.407087 -0.448283
v -0.420848 -0.411603 -0.381673
v 0.263405 -0.594560 0.824674
v 0.107444 -0.907172 0.957921
v -0.188813 -0.773778 0.935160
v -0.248962 -0.581910 0.842358
v 0.190512 -0.779445 0.923878
v -0.158112 -0.419829 0.743911
v 0.155360 -0.416404 0.744755
v -0.103025 -0.902637 0.967373
v 0.124124 -0.602629 0.823440
v -0.128021 -0.600612 0.826008
v -0.094681 -0.781225 0.894099
v 0.093697 -0.780613 0.894344
vt 0.041944 0.260859
vt 0.041549 0.280248
vt 0.000523 0.280356
vt 0.000804 0.259503
vt 0.236369 0.278076
vt 0.236412 0.298500
vt 0.190400 0.298891
vt 0.190278 0.278814
vt 0.041827 0.241223
vt 0.002073 0.238687
vt 0.236505 0.257732
vt 0.191049 0.259026
vt 0.043002 0.221262
vt 0.004528 0.218062
vt 0.236931 0.237422
vt 0.192389 0.239238
vt 0.044630 0.202120
vt 0.008092 0.197907
vt 0.237599 0.217597
vt 0.193972 0.219913
vt 0.047036 0.184331
vt 0.013589 0.178484
vt 0.238591 0.198069
vt 0.195467 0.201078
vt 0.050581 0.167913
vt 0.020094 0.159329
vt 0.239775 0.178921
vt 0.198048 0.182679
vt 0.056592 0.151475
vt 0.027171 0.141164
vt 0.241023 0.160008
vt 0.200817 0.164689
vt 0.065869 0.132501
vt 0.035361 0.123279
vt 0.242281 0.141551
vt 0.204096 0.146989
vt 0.076923 0.114607
vt 0.044236 0.106368
vt 0.243475 0.122832
vt 0.206881 0.129105
vt 0.088008 0.099297
vt 0.060116 0.092123
vt 0.244530 0.104165
vt 0.209564 0.111125
vt 0.099627 0.084907
vt 0.068855 0.074463
vt 0.245197 0.085062
vt 0.211342 0.092529
vt 0.111257 0.071300
vt 0.077794 0.056686
vt 0.245096 0.065522
vt 0.212522 0.073563
vt 0.123218 0.057031
vt 0.087654 0.039211
vt 0.244092 0.045684
vt 0.212444 0.053906
vt 0.135172 0.042529
vt 0.098360 0.021735
vt 0.241797 0.025294
vt 0.211245 0.033880
vt 0.147205 0.027305
vt 0.101628 0.001891
vt 0.240954 0.015595
vt 0.211334 0.028763
vt 0.455519 0.650697
vt 0.458190 0.663658
vt 0.445986 0.665447
vt 0.442201 0.654959
vt 0.615496 0.117089
vt 0.613361 0.105994
vt 0.630154 0.105994
vt 0.631549 0.114756
vt 0.284805 0.694013
vt 0.285384 0.676559
vt 0.300844 0.675927
vt 0.441985 0.619165
vt 0.449628 0.633846
vt 0.436335 0.641090
vt 0.429493 0.628405
vt 0.307592 0.624045
vt 0.317481 0.611384
vt 0.327211 0.621036
vt 0.319353 0.632292
vt 0.361755 0.588778
vt 0.383703 0.587946
vt 0.381268 0.601063
vt 0.363624 0.602113
vt 0.430282 0.606512
vt 0.419870 0.617545
vt 0.298238 0.639558
vt 0.311954 0.645533
vt 0.340453 0.594322
vt 0.345855 0.606324
vt 0.418081 0.596309
vt 0.409367 0.608959
vt 0.290560 0.657416
vt 0.304696 0.660390
vt 0.327340 0.602296
vt 0.334842 0.612499
vt 0.401882 0.590127
vt 0.396076 0.603403
vt 0.782844 0.193554
vt 0.767758 0.198925
vt 0.760504 0.183240
vt 0.773313 0.178760
vt 0.619430 0.131839
vt 0.635477 0.127103
vt 0.751495 0.201480
vt 0.746768 0.185612
vt 0.736512 0.203079
vt 0.734077 0.186880
vt 0.722909 0.203547
vt 0.722630 0.186906
vt 0.871089 0.674725
vt 0.869942 0.665926
vt 0.899294 0.665259
vt 0.899874 0.673994
vt 0.711457 0.203199
vt 0.713099 0.186112
vt 0.699143 0.200110
vt 0.702840 0.183670
vt 0.682103 0.193141
vt 0.688615 0.177780
vt 0.665931 0.185484
vt 0.675100 0.171417
vt 0.653092 0.177386
vt 0.664339 0.164804
vt 0.641810 0.168144
vt 0.654888 0.157221
vt 0.632990 0.157620
vt 0.647290 0.148641
vt 0.624657 0.145500
vt 0.640462 0.138398
vt 0.897927 0.819052
vt 0.898200 0.806301
vt 0.925595 0.799175
vt 0.925071 0.811670
vt 0.898758 0.794868
vt 0.926377 0.788071
vt 0.118699 0.821260
vt 0.120676 0.808979
vt 0.178154 0.833053
vt 0.118580 0.835019
vt 0.898997 0.785306
vt 0.927041 0.779140
vt 0.898832 0.774762
vt 0.927009 0.769368
vt 0.896991 0.759476
vt 0.924653 0.755351
vt 0.893709 0.744904
vt 0.921382 0.741069
vt 0.890371 0.732721
vt 0.918111 0.729729
vt 0.886187 0.721350
vt 0.914304 0.719099
vt 0.882070 0.710654
vt 0.910506 0.708996
vt 0.877736 0.699133
vt 0.906433 0.697906
vt 0.874232 0.687294
vt 0.902799 0.686566
vt 0.898691 0.846529
vt 0.897765 0.832991
vt 0.925795 0.825484
vt 0.927411 0.837962
vt 0.135543 0.783865
vt 0.147752 0.776753
vt 0.128756 0.790814
vt 0.161547 0.772070
vt 0.173170 0.770454
vt 0.184346 0.771533
vt 0.194662 0.774496
vt 0.204940 0.780195
vt 0.213920 0.787924
vt 0.222168 0.797770
vt 0.226543 0.805303
vt 0.180320 0.896645
vt 0.171237 0.895051
vt 0.161219 0.891302
vt 0.122705 0.859326
vt 0.119561 0.847496
vt 0.189231 0.036888
vt 0.181091 0.047479
vt 0.156195 0.014550
vt 0.119153 0.000523
vt 0.169746 0.061552
vt 0.157897 0.073499
vt 0.145055 0.085489
vt 0.132628 0.095936
vt 0.119910 0.108275
vt 0.107468 0.122320
vt 0.094775 0.140974
vt 0.085161 0.161396
vt 0.080659 0.176437
vt 0.079884 0.190095
vt 0.080514 0.206300
vt 0.081101 0.224398
vt 0.079758 0.243621
vt 0.080498 0.263196
vt 0.082935 0.280221
vt 0.303133 0.691015
vt 0.450562 0.575284
vt 0.451620 0.584932
vt 0.443472 0.584932
vt 0.444507 0.575303
vt 0.613284 0.097744
vt 0.630059 0.097743
vt 0.780301 0.437547
vt 0.780241 0.424644
vt 0.799826 0.426060
vt 0.800998 0.435287
vt 0.497511 0.440699
vt 0.499805 0.413745
vt 0.502882 0.404562
vt 0.502882 0.444096
vt 0.074610 0.753744
vt 0.059610 0.748451
vt 0.066357 0.734240
vt 0.078721 0.738459
vt 0.165102 0.701567
vt 0.157472 0.716913
vt 0.147225 0.708062
vt 0.153552 0.695362
vt 0.012821 0.682071
vt 0.011592 0.664526
vt 0.026363 0.664848
vt 0.027483 0.679359
vt 0.090242 0.755703
vt 0.091646 0.739973
vt 0.169709 0.693734
vt 0.157518 0.681507
vt 0.017074 0.699026
vt 0.030701 0.693432
vt 0.105905 0.754214
vt 0.104578 0.738853
vt 0.024171 0.714761
vt 0.036434 0.706606
vt 0.121006 0.749354
vt 0.117096 0.734866
vt 0.033847 0.728603
vt 0.044226 0.718538
vt 0.134978 0.741295
vt 0.128793 0.728349
vt 0.045766 0.740036
vt 0.054307 0.728145
vt 0.147294 0.730337
vt 0.138931 0.719236
vt 0.821294 0.151670
vt 0.809562 0.142925
vt 0.825733 0.127381
vt 0.834445 0.133388
vt 0.869895 0.657675
vt 0.899338 0.657281
vt 0.834021 0.157746
vt 0.843842 0.137512
vt 0.848002 0.160531
vt 0.853810 0.139591
vt 0.862217 0.160531
vt 0.864146 0.139561
vt 0.876395 0.157637
vt 0.874292 0.137258
vt 0.890211 0.152084
vt 0.883604 0.132993
vt 0.902746 0.143328
vt 0.891822 0.126690
vt 0.913136 0.131575
vt 0.898733 0.118167
vt 0.920830 0.117790
vt 0.904362 0.107984
vt 0.783891 0.088837
vt 0.784364 0.073233
vt 0.806646 0.075850
vt 0.806284 0.087572
vt 0.926121 0.102792
vt 0.908067 0.097291
vt 0.786220 0.104260
vt 0.807928 0.098733
vt 0.927862 0.094536
vt 0.910047 0.085973
vt 0.791643 0.118690
vt 0.812314 0.109277
vt 0.799481 0.131747
vt 0.818338 0.119225
vt 0.755154 0.972495
vt 0.744299 0.971851
vt 0.733898 0.969027
vt 0.757201 0.913252
vt 0.776574 0.966311
vt 0.766134 0.970813
vt 0.724503 0.964112
vt 0.716313 0.957472
vt 0.795073 0.951827
vt 0.786485 0.959703
vt 0.701351 0.917179
vt 0.701883 0.905453
vt 0.705494 0.894411
vt 0.704805 0.939646
vt 0.702120 0.928893
vt 0.709793 0.949217
vt 0.801980 0.942338
vt 0.261617 0.000523
vt 0.272351 0.017468
vt 0.275373 0.037627
vt 0.278198 0.057472
vt 0.281268 0.077104
vt 0.283759 0.096619
vt 0.277732 0.117043
vt 0.278661 0.136085
vt 0.279636 0.155686
vt 0.280506 0.175118
vt 0.281285 0.195290
vt 0.281712 0.215451
vt 0.282147 0.235887
vt 0.282573 0.256643
vt 0.283063 0.277493
vt 0.283641 0.298353
vt 0.711746 0.884233
vt 0.459370 0.671424
vt 0.447295 0.673490
vt 0.431682 0.574237
vt 0.431943 0.544268
vt 0.444232 0.544916
vt 0.444657 0.574028
vt 0.479614 0.716424
vt 0.479629 0.676698
vt 0.487533 0.676674
vt 0.487762 0.716424
vt 0.460824 0.679972
vt 0.464028 0.653214
vt 0.470083 0.653167
vt 0.473728 0.679972
vt 0.229998 0.812450
vt 0.461132 0.621612
vt 0.478567 0.624004
vt 0.478388 0.636980
vt 0.460824 0.636902
vt 0.042092 0.299520
vt 0.001222 0.301172
vt 0.236528 0.318981
vt 0.191719 0.318690
vt 0.042205 0.319301
vt 0.002748 0.322095
vt 0.236921 0.339464
vt 0.193358 0.338654
vt 0.043510 0.339413
vt 0.005159 0.342561
vt 0.237540 0.359463
vt 0.194319 0.357968
vt 0.045236 0.358606
vt 0.009254 0.362575
vt 0.238386 0.379240
vt 0.196130 0.376940
vt 0.047684 0.376599
vt 0.014385 0.382108
vt 0.239291 0.398656
vt 0.198344 0.395367
vt 0.051087 0.392945
vt 0.021135 0.401057
vt 0.240350 0.417672
vt 0.201339 0.413464
vt 0.056899 0.409638
vt 0.028217 0.419433
vt 0.241531 0.436339
vt 0.203564 0.431447
vt 0.065956 0.428966
vt 0.035919 0.437347
vt 0.242752 0.454889
vt 0.205580 0.449122
vt 0.076668 0.446841
vt 0.044518 0.455167
vt 0.243904 0.473861
vt 0.208478 0.466787
vt 0.087630 0.462637
vt 0.052784 0.472865
vt 0.244836 0.492320
vt 0.210360 0.484923
vt 0.099232 0.477193
vt 0.067486 0.488120
vt 0.245074 0.511513
vt 0.211974 0.503482
vt 0.110965 0.490695
vt 0.076949 0.505595
vt 0.244560 0.531091
vt 0.212268 0.522472
vt 0.123099 0.504864
vt 0.087617 0.522924
vt 0.243016 0.551002
vt 0.211439 0.541894
vt 0.135028 0.519290
vt 0.098496 0.540098
vt 0.240267 0.571312
vt 0.210220 0.561514
vt 0.147259 0.534398
vt 0.102043 0.560523
vt 0.239229 0.580912
vt 0.209637 0.567443
vt 0.459370 0.684707
vt 0.447078 0.684757
vt 0.615065 0.086480
vt 0.631436 0.088960
vt 0.305606 0.706011
vt 0.289385 0.711170
vt 0.457316 0.719069
vt 0.443193 0.714214
vt 0.445733 0.699731
vt 0.459049 0.702386
vt 0.326432 0.754473
vt 0.335999 0.742497
vt 0.346855 0.751241
vt 0.339339 0.764355
vt 0.389781 0.774395
vt 0.387727 0.760470
vt 0.405289 0.756283
vt 0.411678 0.768665
vt 0.451066 0.734672
vt 0.437232 0.727713
vt 0.313205 0.741882
vt 0.324819 0.732091
vt 0.366599 0.774838
vt 0.369100 0.761114
vt 0.441818 0.747947
vt 0.429971 0.739517
vt 0.299408 0.727330
vt 0.313799 0.719751
vt 0.351473 0.771130
vt 0.356634 0.757755
vt 0.428288 0.759512
vt 0.418941 0.749300
vt 0.782844 0.011018
vt 0.773187 0.025801
vt 0.760508 0.021308
vt 0.767842 0.005599
vt 0.618930 0.071792
vt 0.635291 0.076571
vt 0.746857 0.018621
vt 0.751694 0.002540
vt 0.734239 0.017454
vt 0.736686 0.001025
vt 0.722757 0.017389
vt 0.723123 0.000523
vt 0.870853 0.648837
vt 0.900015 0.648784
vt 0.713207 0.018053
vt 0.711712 0.000951
vt 0.702939 0.020479
vt 0.699390 0.003901
vt 0.688573 0.026085
vt 0.682339 0.010860
vt 0.675010 0.032368
vt 0.666151 0.018569
vt 0.664237 0.038926
vt 0.653130 0.026461
vt 0.654828 0.046470
vt 0.641617 0.035467
vt 0.647205 0.054986
vt 0.632694 0.045868
vt 0.640296 0.065222
vt 0.624465 0.058093
vt 0.897759 0.504300
vt 0.924324 0.512660
vt 0.924304 0.524933
vt 0.897850 0.516972
vt 0.924255 0.535690
vt 0.898259 0.528446
vt 0.150235 0.885973
vt 0.139064 0.878389
vt 0.923689 0.544948
vt 0.898220 0.538020
vt 0.924283 0.554673
vt 0.897980 0.548567
vt 0.924080 0.568698
vt 0.896192 0.563884
vt 0.920203 0.582172
vt 0.892599 0.578393
vt 0.916315 0.593492
vt 0.888854 0.590437
vt 0.913108 0.604192
vt 0.884733 0.601770
vt 0.909691 0.614058
vt 0.880819 0.612509
vt 0.905933 0.624991
vt 0.876667 0.624140
vt 0.902555 0.636301
vt 0.873546 0.636144
vt 0.899745 0.477015
vt 0.927411 0.486259
vt 0.925274 0.499120
vt 0.898436 0.490403
vt 0.203192 0.891838
vt 0.190003 0.896365
vt 0.222924 0.875348
vt 0.214664 0.883915
vt 0.232442 0.856222
vt 0.228910 0.865988
vt 0.234248 0.833116
vt 0.234248 0.844862
vt 0.232485 0.820561
vt 0.129446 0.869691
vt 0.189231 0.524337
vt 0.156334 0.547010
vt 0.180719 0.513945
vt 0.119500 0.561669
vt 0.169550 0.499866
vt 0.157478 0.487844
vt 0.144881 0.476428
vt 0.132350 0.466145
vt 0.119444 0.453962
vt 0.107245 0.439584
vt 0.094756 0.420860
vt 0.085238 0.399826
vt 0.081285 0.384784
vt 0.080684 0.370906
vt 0.080668 0.354505
vt 0.081532 0.336282
vt 0.081533 0.316400
vt 0.082774 0.297690
vt 0.502548 0.445143
vt 0.502548 0.484599
vt 0.499575 0.475361
vt 0.497511 0.448490
vt 0.077605 0.577671
vt 0.081204 0.592813
vt 0.068511 0.596482
vt 0.062491 0.582531
vt 0.166338 0.632863
vt 0.154526 0.638661
vt 0.148793 0.625714
vt 0.159215 0.617227
vt 0.013445 0.647039
vt 0.027945 0.650331
vt 0.093259 0.576187
vt 0.094194 0.591832
vt 0.170875 0.640912
vt 0.157971 0.652649
vt 0.018332 0.630276
vt 0.031871 0.636333
vt 0.108853 0.578179
vt 0.107071 0.593355
vt 0.026038 0.614929
vt 0.038070 0.623569
vt 0.123769 0.583532
vt 0.119470 0.597758
vt 0.036217 0.601530
vt 0.046491 0.612254
vt 0.137472 0.592061
vt 0.130759 0.604871
vt 0.048515 0.590578
vt 0.056877 0.603226
vt 0.149483 0.603415
vt 0.140648 0.614293
vt 0.835362 0.004305
vt 0.844863 0.023844
vt 0.835389 0.028854
vt 0.822486 0.010646
vt 0.849181 0.001020
vt 0.855018 0.021250
vt 0.863311 0.000523
vt 0.864979 0.021191
vt 0.877308 0.002732
vt 0.874887 0.023535
vt 0.890439 0.008584
vt 0.883931 0.027754
vt 0.902193 0.017428
vt 0.891769 0.034294
vt 0.911959 0.028731
vt 0.898467 0.042467
vt 0.920023 0.041723
vt 0.903580 0.051993
vt 0.925429 0.056009
vt 0.907406 0.062869
vt 0.787625 0.058097
vt 0.808841 0.064073
vt 0.928351 0.071238
vt 0.910051 0.074783
vt 0.792971 0.043708
vt 0.812917 0.053045
vt 0.928612 0.079516
vt 0.800737 0.030708
vt 0.819142 0.043797
vt 0.810738 0.019478
vt 0.826524 0.035408
vt 0.808836 0.887025
vt 0.798194 0.869071
vt 0.804743 0.877262
vt 0.811153 0.908591
vt 0.811153 0.897647
vt 0.790079 0.862225
vt 0.780787 0.857628
vt 0.806693 0.931911
vt 0.809480 0.920031
vt 0.737930 0.861277
vt 0.719368 0.874828
vt 0.728006 0.866688
vt 0.759502 0.855457
vt 0.748516 0.857214
vt 0.770311 0.855293
vt 0.259385 0.596524
vt 0.270993 0.579520
vt 0.274391 0.559636
vt 0.277143 0.539588
vt 0.280000 0.520029
vt 0.276552 0.499231
vt 0.278888 0.479959
vt 0.279971 0.460345
vt 0.280816 0.441003
vt 0.281317 0.421432
vt 0.281567 0.401383
vt 0.282221 0.381233
vt 0.282795 0.360816
vt 0.283584 0.340193
vt 0.283759 0.319197
vt 0.457536 0.574237
vt 0.456661 0.545080
vt 0.461054 0.652121
vt 0.478567 0.649859
vt 0.817777 0.395473
vt 0.849673 0.389989
vt 0.856284 0.400272
vt 0.836167 0.402317
vt 0.782041 0.418549
vt 0.802761 0.419698
vt 0.817764 0.466928
vt 0.795300 0.454887
vt 0.815054 0.452652
vt 0.836163 0.459815
vt 0.794651 0.406340
vt 0.815210 0.410107
vt 0.158358 0.673876
vt 0.158495 0.660310
vt 0.171392 0.651420
vt 0.170823 0.682956
vt 0.850048 0.470488
vt 0.856284 0.461805
vt 0.782389 0.443222
vt 0.802617 0.442719
vt 0.168415 0.609397
vt 0.157116 0.593605
vt 0.057629 0.570923
vt 0.041848 0.580225
vt 0.143288 0.580610
vt 0.028253 0.592864
vt 0.127261 0.571146
vt 0.016678 0.608015
vt 0.110149 0.564858
vt 0.007794 0.625235
vt 0.092370 0.562716
vt 0.002679 0.644630
vt 0.177951 0.632901
vt 0.177017 0.627020
vt 0.074777 0.565190
vt 0.000523 0.664367
vt 0.166522 0.724992
vt 0.154864 0.740749
vt 0.053893 0.760889
vt 0.037914 0.751271
vt 0.140395 0.753003
vt 0.023903 0.738433
vt 0.124165 0.762162
vt 0.013307 0.722074
vt 0.106810 0.767441
vt 0.005597 0.703766
vt 0.088851 0.769408
vt 0.001483 0.684415
vt 0.177951 0.702756
vt 0.176297 0.707591
vt 0.071000 0.767168
vt 0.652255 0.449728
vt 0.626767 0.449656
vt 0.630300 0.430193
vt 0.649297 0.430366
vt 0.623698 0.469633
vt 0.613284 0.470830
vt 0.614383 0.450726
vt 0.620012 0.429237
vt 0.635945 0.413778
vt 0.628722 0.416020
vt 0.655181 0.470132
vt 0.645118 0.412579
vt 0.124305 0.798525
vt 0.659431 0.429417
vt 0.666278 0.450647
vt 0.665985 0.470830
vt 0.651100 0.416166
vn 0.1366 -0.3261 -0.9354
vn 0.0680 -0.0195 -0.9975
vn 0.2895 -0.3399 -0.8948
vn 0.2506 -0.0308 -0.9676
vn 0.4321 -0.3560 -0.8286
vn 0.4243 -0.0476 -0.9043
vn 0.5727 -0.3669 -0.7331
vn 0.5716 -0.0576 -0.8185
vn 0.7289 -0.3465 -0.5904
vn 0.7423 -0.0501 -0.6682
vn 0.8562 -0.2997 -0.4208
vn 0.8604 -0.0338 -0.5084
vn 0.9227 -0.2683 -0.2769
vn 0.9443 -0.0176 -0.3287
vn 0.9729 -0.2260 -0.0485
vn 0.9951 0.0067 -0.0985
vn 0.9771 -0.1581 0.1423
vn 0.9904 0.0388 0.1324
vn 0.9573 -0.1052 0.2693
vn 0.9473 0.0761 0.3110
vn 0.8772 -0.0384 0.4785
vn 0.8541 0.1302 0.5035
vn 0.7763 0.0178 0.6302
vn 0.7454 0.1893 0.6392
vn 0.6296 0.0562 0.7749
vn 0.5834 0.2798 0.7625
vn 0.4306 0.0629 0.9003
vn 0.4264 0.3432 0.8369
vn 0.2474 0.0376 0.9682
vn 0.3104 0.3844 0.8694
vn 0.0708 -0.9974 0.0145
vn -0.0442 -0.7241 -0.6883
vn 0.2109 -0.9766 -0.0431
vn 0.1846 -0.9808 -0.0625
vn 0.2575 -0.9508 0.1724
vn 0.2329 -0.9720 -0.0318
vn 0.2408 -0.9628 -0.1229
vn 0.2098 -0.9620 0.1749
vn 0.2382 -0.9706 0.0353
vn 0.2397 -0.9589 -0.1519
vn 0.1739 -0.9835 0.0498
vn 0.2807 -0.9591 0.0375
vn 0.2254 -0.9667 -0.1213
vn 0.2022 -0.9784 -0.0423
vn 0.1070 -0.9941 -0.0195
vn 0.3043 -0.9466 0.1064
vn 0.2295 -0.9696 -0.0850
vn -0.1376 -0.6329 0.7619
vn -0.0517 -0.6885 -0.7234
vn -0.2520 -0.6212 0.7420
vn -0.3008 -0.6308 0.7153
vn -0.3488 -0.6637 0.6617
vn -0.1102 -0.0817 -0.9905
vn -0.4232 -0.7076 0.5658
vn -0.5497 -0.7512 0.3655
vn -0.6331 -0.7687 0.0915
vn -0.6232 -0.7759 -0.0984
vn -0.5775 -0.7672 -0.2793
vn -0.4611 -0.7430 -0.4851
vn -0.3035 -0.7065 -0.6393
vn -0.1858 -0.6764 -0.7127
vn -0.1012 -0.6669 -0.7382
vn -0.5464 -0.0863 0.8331
vn -0.6756 -0.0672 0.7342
vn 0.1256 -0.9544 0.2708
vn -0.7951 -0.0688 0.6026
vn -0.9294 -0.0865 0.3587
vn -0.9919 -0.0897 0.0897
vn -0.9895 -0.0924 -0.1111
vn -0.9480 -0.1077 -0.2995
vn -0.8307 -0.1162 -0.5445
vn -0.6835 -0.1042 -0.7225
vn -0.5082 -0.0819 -0.8573
vn -0.3317 -0.0694 -0.9408
vn -0.1859 -0.0739 -0.9798
vn -0.3009 -0.1339 0.9442
vn -0.4324 -0.1226 0.8933
vn 0.0637 -0.9953 0.0724
vn 0.0467 -0.9943 -0.0962
vn 0.1001 -0.9650 -0.2425
vn 0.1498 -0.9417 -0.3012
vn 0.0843 -0.9543 -0.2866
vn -0.0788 -0.9707 0.2268
vn 0.0345 -0.9717 0.2336
vn 0.0584 -0.0757 0.9954
vn 0.1129 0.0135 0.9935
vn 0.1937 -0.0722 0.9784
vn 0.3669 -0.0558 0.9286
vn 0.5959 -0.0457 0.8018
vn 0.7313 -0.0129 0.6819
vn 0.8758 -0.0311 0.4818
vn 0.9591 -0.1174 0.2577
vn 0.9769 -0.1872 0.1029
vn 0.9651 -0.2513 -0.0736
vn 0.8957 -0.3172 -0.3117
vn 0.8367 -0.3559 -0.4163
vn 0.7252 -0.3839 -0.5716
vn 0.6160 -0.3887 -0.6852
vn 0.4630 -0.3944 -0.7938
vn 0.3605 -0.3761 -0.8536
vn 0.1827 -0.3447 -0.9208
vn 0.0352 -0.9932 0.1107
vn -0.0067 0.0021 1.0000
vn -0.0165 -0.7337 -0.6793
vn -0.0072 0.6181 0.7861
vn 0.0258 0.0153 0.9995
vn -0.0628 0.9880 0.1410
vn -0.0221 0.9937 0.1095
vn -0.0132 0.9736 0.2279
vn -0.0403 0.9857 0.1639
vn -0.0257 0.9867 0.1605
vn -0.0129 0.9786 0.2052
vn -0.0617 0.9895 0.1308
vn -0.0347 0.9766 0.2122
vn -0.0797 0.9901 0.1152
vn -0.0861 0.9638 0.2524
vn -0.0653 0.9946 0.0812
vn -0.1431 0.9573 0.2513
vn -0.0348 0.9947 0.0969
vn -0.1336 0.9767 0.1678
vn -0.0030 0.9954 0.0953
vn -0.6331 0.6699 0.3879
vn -0.0217 -0.0836 -0.9963
vn -0.7035 0.6362 0.3167
vn -0.7536 0.6359 0.1665
vn -0.7626 0.6465 0.0215
vn -0.7558 0.6387 -0.1444
vn -0.7158 0.6160 -0.3290
vn -0.6229 0.5909 -0.5127
vn -0.4829 0.5838 -0.6527
vn -0.3553 0.6013 -0.7156
vn -0.0269 0.6053 0.7955
vn -0.2194 0.6090 -0.7622
vn -0.1852 0.5842 0.7902
vn -0.0423 0.6130 -0.7890
vn -0.3290 0.6258 0.7072
vn -0.3731 0.6763 0.6352
vn -0.4732 0.6920 0.5452
vn -0.0330 0.9863 0.1619
vn 0.0144 0.9962 0.0863
vn -0.0300 0.9925 0.1182
vn 0.0029 0.9962 0.0872
vn -0.0452 0.9901 0.1327
vn -0.0235 0.9862 0.1637
vn -0.0208 0.9862 0.1640
vn 0.0403 0.9959 0.0808
vn 0.3836 0.2179 0.8974
vn 0.4514 0.2185 0.8652
vn 0.6398 0.1861 0.7457
vn 0.7699 0.1557 0.6189
vn 0.8727 0.1099 0.4758
vn 0.9502 0.0636 0.3050
vn 0.9880 0.0412 0.1486
vn 0.9972 0.0148 -0.0736
vn 0.9517 -0.0070 -0.3069
vn 0.8784 -0.0102 -0.4778
vn 0.7605 -0.0043 -0.6493
vn 0.5814 -0.0137 -0.8135
vn 0.4370 -0.0294 -0.8990
vn 0.2733 -0.0403 -0.9611
vn 0.0981 -0.0322 -0.9947
vn 0.0714 0.9834 0.1670
vn 0.0021 -0.9997 0.0241
vn -0.1022 -0.0945 0.9903
vn -0.0035 -0.0785 0.9969
vn -0.0240 0.0290 0.9993
vn -0.0261 -0.9632 -0.2674
vn 0.0075 -0.6198 0.7847
vn -0.0928 -0.3232 -0.9418
vn -0.0918 -0.0187 -0.9956
vn -0.2739 -0.3335 -0.9021
vn -0.2418 -0.0186 -0.9701
vn -0.4547 -0.3424 -0.8222
vn -0.4253 -0.0077 -0.9050
vn -0.6085 -0.3247 -0.7241
vn -0.5909 0.0078 -0.8067
vn -0.7405 -0.2921 -0.6053
vn -0.7249 0.0154 -0.6887
vn -0.8620 -0.2454 -0.4437
vn -0.8615 0.0271 -0.5070
vn -0.9312 -0.2192 -0.2913
vn -0.9496 0.0361 -0.3113
vn -0.9752 -0.2000 -0.0945
vn -0.9937 0.0315 -0.1079
vn -0.9834 -0.1500 0.1020
vn -0.9943 0.0529 0.0928
vn -0.9401 -0.0851 0.3302
vn -0.9424 0.1260 0.3098
vn -0.8723 -0.0449 0.4869
vn -0.8443 0.1860 0.5025
vn -0.7588 0.0001 0.6513
vn -0.7166 0.2338 0.6571
vn -0.6006 0.0302 0.7989
vn -0.5744 0.2886 0.7660
vn -0.4224 0.0409 0.9055
vn -0.4151 0.3516 0.8391
vn -0.2340 0.0447 0.9712
vn -0.2272 0.4342 0.8717
vn -0.0810 -0.9956 0.0465
vn 0.0402 -0.7092 -0.7039
vn -0.0398 -0.9946 0.0962
vn -0.1990 -0.9782 -0.0593
vn -0.2462 -0.9577 0.1491
vn -0.1973 -0.9798 -0.0310
vn -0.2339 -0.9658 -0.1122
vn -0.2333 -0.9609 0.1494
vn -0.2345 -0.9711 0.0440
vn -0.2621 -0.9541 -0.1451
vn -0.1872 -0.9755 0.1157
vn -0.2698 -0.9599 0.0767
vn -0.2460 -0.9601 -0.1328
vn -0.1686 -0.9800 0.1053
vn -0.1061 -0.9940 0.0265
vn -0.2756 -0.9513 0.1384
vn -0.1986 -0.9766 -0.0831
vn 0.1219 -0.6451 0.7543
vn 0.0584 -0.6674 -0.7424
vn 0.2469 -0.6372 0.7301
vn 0.2943 -0.6334 0.7157
vn 0.3448 -0.6464 0.6807
vn 0.1124 -0.0932 -0.9893
vn 0.4307 -0.6942 0.5767
vn 0.5548 -0.7459 0.3686
vn 0.6367 -0.7629 0.1118
vn 0.6194 -0.7786 -0.1008
vn 0.5428 -0.7860 -0.2960
vn 0.4368 -0.7603 -0.4807
vn 0.3123 -0.7078 -0.6336
vn 0.2121 -0.6776 -0.7041
vn 0.0999 -0.6565 -0.7476
vn 0.5616 -0.1124 0.8198
vn 0.6530 -0.1183 0.7481
vn -0.1109 -0.9543 0.2774
vn 0.7770 -0.1231 0.6174
vn 0.9075 -0.1110 0.4051
vn 0.9898 -0.0866 0.1128
vn 0.9855 -0.0931 -0.1416
vn 0.9321 -0.1204 -0.3415
vn 0.8266 -0.1382 -0.5455
vn 0.6693 -0.1437 -0.7289
vn 0.4905 -0.1405 -0.8600
vn 0.3370 -0.1293 -0.9326
vn 0.2120 -0.1109 -0.9709
vn 0.3065 -0.1095 0.9455
vn 0.4612 -0.1136 0.8800
vn -0.0704 -0.9767 0.2029
vn -0.0540 -0.9882 -0.1432
vn -0.0811 -0.9739 -0.2119
vn -0.1473 -0.9442 -0.2946
vn -0.0876 -0.9568 -0.2774
vn 0.0052 -0.9706 0.2407
vn -0.1258 -0.0895 0.9880
vn -0.1503 0.0310 0.9882
vn -0.2067 -0.0877 0.9745
vn -0.3441 -0.0457 0.9378
vn -0.5627 -0.0202 0.8264
vn -0.7403 -0.0318 0.6715
vn -0.8714 -0.0832 0.4834
vn -0.9356 -0.1546 0.3175
vn -0.9657 -0.2440 0.0893
vn -0.9539 -0.2870 -0.0880
vn -0.9100 -0.3138 -0.2709
vn -0.8268 -0.3506 -0.4398
vn -0.7184 -0.3893 -0.5766
vn -0.6079 -0.4082 -0.6810
vn -0.5141 -0.3879 -0.7650
vn -0.3525 -0.3522 -0.8670
vn -0.1026 -0.3351 -0.9366
vn -0.0206 -0.9935 0.1116
vn -0.1002 0.0202 0.9948
vn 0.0845 0.9837 0.1588
vn 0.0055 0.9970 0.0776
vn 0.0044 0.9688 0.2478
vn 0.0849 0.9889 0.1222
vn 0.0157 0.9897 0.1422
vn 0.0326 0.9685 0.2470
vn 0.0752 0.9916 0.1054
vn 0.0665 0.9677 0.2433
vn 0.0742 0.9901 0.1188
vn 0.0776 0.9660 0.2464
vn 0.0788 0.9905 0.1130
vn 0.0948 0.9732 0.2096
vn 0.0652 0.9919 0.1091
vn 0.0916 0.9786 0.1843
vn 0.0121 0.9983 0.0576
vn 0.5565 0.7033 0.4424
vn 0.6508 0.6888 0.3195
vn 0.7251 0.6689 0.1640
vn 0.7512 0.6600 -0.0103
vn 0.7367 0.6593 -0.1500
vn 0.6593 0.6714 -0.3383
vn 0.5616 0.6956 -0.4481
vn 0.4176 0.7137 -0.5623
vn 0.3010 0.7233 -0.6215
vn 0.0752 0.6453 0.7603
vn 0.2252 0.7043 -0.6733
vn 0.1624 0.6551 0.7379
vn 0.1404 0.6638 -0.7347
vn 0.2959 0.6656 0.6852
vn 0.3897 0.6888 0.6113
vn 0.4880 0.7044 0.5155
vn 0.0314 0.9937 0.1074
vn 0.0064 0.9980 0.0633
vn 0.0400 0.9888 0.1437
vn 0.0094 0.9983 0.0568
vn 0.0118 0.9850 0.1723
vn 0.0541 0.9879 0.1453
vn 0.0399 0.9843 0.1719
vn 0.1090 0.9908 0.0800
vn -0.3351 0.1929 0.9222
vn -0.4496 0.2153 0.8669
vn -0.6068 0.2037 0.7683
vn -0.7496 0.1620 0.6418
vn -0.8555 0.1178 0.5042
vn -0.9534 0.0756 0.2921
vn -0.9956 0.0457 0.0818
vn -0.9964 0.0090 -0.0847
vn -0.9513 -0.0443 -0.3051
vn -0.8800 -0.0603 -0.4711
vn -0.7482 -0.0553 -0.6612
vn -0.6148 -0.0415 -0.7876
vn -0.4339 -0.0274 -0.9005
vn -0.2508 -0.0203 -0.9678
vn -0.0936 -0.0201 -0.9954
vn 0.0490 0.9847 0.1672
vn 0.1177 -0.0807 0.9898
vn 0.0293 -0.6274 0.7782
vn -0.6250 0.3844 0.6794
vn -0.3382 0.5384 0.7718
vn 0.3447 0.4653 0.8152
vn -0.4554 0.4767 0.7519
vn -0.4499 0.5224 0.7244
vn -0.0090 0.9770 0.2133
vn 0.3804 0.4890 0.7850
vn 0.3421 0.4310 0.8350
vn 0.3482 0.4829 0.8035
vn -0.0442 0.9866 0.1573
vn -0.2024 0.9789 0.0271
vn -0.0499 0.9816 0.1843
vn -0.1605 0.9869 -0.0185
vn -0.1042 0.9734 0.2040
vn -0.1421 0.9881 -0.0584
vn -0.1531 0.9733 0.1708
vn -0.0889 0.9900 -0.1099
vn -0.1599 0.9756 0.1502
vn -0.0785 0.9928 -0.0907
vn 0.0289 0.9245 0.3800
vn -0.1616 0.9838 0.0773
vn -0.0379 0.9987 -0.0340
vn -0.0293 0.9707 0.2385
vn -0.1995 0.9787 0.0494
vn 0.0398 0.9833 0.1774
vn 0.0818 0.9924 0.0921
vn 0.0341 0.9842 0.1740
vn 0.0760 0.9968 0.0263
vn 0.0649 0.9848 0.1609
vn 0.0672 0.9977 0.0093
vn 0.0715 0.9841 0.1624
vn 0.0423 0.9986 0.0320
vn 0.0688 0.9886 0.1338
vn 0.0367 0.9983 0.0447
vn -0.0733 0.9553 0.2865
vn 0.0670 0.9869 0.1468
vn 0.0069 0.9998 0.0188
vn 0.0292 0.9777 0.2079
vn 0.0676 0.9916 0.1107
vn 0.0061 0.3614 0.9324
vn 0.0114 0.9833 0.1815
vn 0.0470 0.9714 0.2328
vn 0.1034 0.4734 0.8748
vn 0.2812 0.4391 0.8533
vn 0.4360 0.4428 0.7834
vn 0.0018 0.4013 0.9160
vn -0.0096 0.3132 0.9497
vn 0.1370 -0.9526 0.2718
vn -0.1327 0.4514 0.8824
vn 0.0115 0.4151 0.9097
vn -0.3179 0.3978 0.8606
vn 0.0055 0.6079 -0.7940
usemtl roca
s off
f 1/1/1 2/2/1 3/3/1 4/4/1
f 5/5/2 6/6/2 7/7/2 8/8/2
f 9/9/3 1/1/3 4/4/3 10/10/3
f 11/11/4 5/5/4 8/8/4 12/12/4
f 13/13/5 9/9/5 10/10/5 14/14/5
f 15/15/6 11/11/6 12/12/6 16/16/6
f 17/17/7 13/13/7 14/14/7 18/18/7
f 19/19/8 15/15/8 16/16/8 20/20/8
f 21/21/9 17/17/9 18/18/9 22/22/9
f 23/23/10 19/19/10 20/20/10 24/24/10
f 25/25/11 21/21/11 22/22/11 26/26/11
f 27/27/12 23/23/12 24/24/12 28/28/12
f 29/29/13 25/25/13 26/26/13 30/30/13
f 31/31/14 27/27/14 28/28/14 32/32/14
f 33/33/15 29/29/15 30/30/15 34/34/15
f 35/35/16 31/31/16 32/32/16 36/36/16
f 37/37/17 33/33/17 34/34/17 38/38/17
f 39/39/18 35/35/18 36/36/18 40/40/18
f 41/41/19 37/37/19 38/38/19 42/42/19
f 43/43/20 39/39/20 40/40/20 44/44/20
f 45/45/21 41/41/21 42/42/21 46/46/21
f 47/47/22 43/43/22 44/44/22 48/48/22
f 49/49/23 45/45/23 46/46/23 50/50/23
f 51/51/24 47/47/24 48/48/24 52/52/24
f 53/53/25 49/49/25 50/50/25 54/54/25
f 55/55/26 51/51/26 52/52/26 56/56/26
f 57/57/27 53/53/27 54/54/27 58/58/27
f 59/59/28 55/55/28 56/56/28 60/60/28
f 61/61/29 57/57/29 58/58/29 62/62/29
f 63/63/30 59/59/30 60/60/30 64/64/30
f 65/65/31 66/66/31 67/67/31 68/68/31
f 68/69/32 67/70/32 69/71/32 70/72/32
f 71/73/33 72/74/33 73/75/33
f 74/76/34 75/77/34 76/78/34 77/79/34
f 78/80/35 79/81/35 80/82/35 81/83/35
f 82/84/36 83/85/36 84/86/36 85/87/36
f 86/88/37 74/76/37 77/79/37 87/89/37
f 88/90/38 78/80/38 81/83/38 89/91/38
f 90/92/39 82/84/39 85/87/39 91/93/39
f 92/94/40 86/88/40 87/89/40 93/95/40
f 94/96/41 88/90/41 89/91/41 95/97/41
f 96/98/42 90/92/42 91/93/42 97/99/42
f 98/100/43 92/94/43 93/95/43 99/101/43
f 72/74/44 94/96/44 95/97/44 73/75/44
f 75/77/45 65/65/45 68/68/45 76/78/45
f 79/81/46 96/98/46 97/99/46 80/82/46
f 83/85/47 98/100/47 99/101/47 84/86/47
f 73/102/48 95/103/48 100/104/48 101/105/48
f 76/106/49 68/69/49 70/72/49 102/107/49
f 95/103/50 89/108/50 103/109/50 100/104/50
f 89/108/51 81/110/51 104/111/51 103/109/51
f 81/110/52 80/112/52 105/113/52 104/111/52
f 70/114/53 69/115/53 106/116/53 107/117/53
f 80/112/54 97/118/54 108/119/54 105/113/54
f 97/118/55 91/120/55 109/121/55 108/119/55
f 91/120/56 85/122/56 110/123/56 109/121/56
f 85/122/57 84/124/57 111/125/57 110/123/57
f 84/124/58 99/126/58 112/127/58 111/125/58
f 99/126/59 93/128/59 113/129/59 112/127/59
f 93/128/60 87/130/60 114/131/60 113/129/60
f 87/130/61 77/132/61 115/133/61 114/131/61
f 77/132/62 76/106/62 102/107/62 115/133/62
f 103/134/63 104/135/63 116/136/63 117/137/63
f 104/135/64 105/138/64 118/139/64 116/136/64
f 117/140/65 116/141/65 119/142/65 120/143/65
f 105/138/66 108/144/66 121/145/66 118/139/66
f 108/144/67 109/146/67 122/147/67 121/145/67
f 109/146/68 110/148/68 123/149/68 122/147/68
f 110/148/69 111/150/69 124/151/69 123/149/69
f 111/150/70 112/152/70 125/153/70 124/151/70
f 112/152/71 113/154/71 126/155/71 125/153/71
f 113/154/72 114/156/72 127/157/72 126/155/72
f 114/156/73 115/158/73 128/159/73 127/157/73
f 115/158/74 102/160/74 129/161/74 128/159/74
f 102/160/75 70/114/75 107/117/75 129/161/75
f 101/162/76 100/163/76 120/164/76 130/165/76
f 100/163/77 103/134/77 117/137/77 120/164/77
f 122/166/78 123/167/78 119/142/78 121/168/78
f 124/169/79 125/170/79 119/142/79 123/167/79
f 126/171/80 127/172/80 119/142/80 125/170/80
f 128/173/81 129/174/81 119/142/81 127/172/81
f 129/174/82 107/175/82 106/176/82 119/142/82
f 119/142/83 131/177/83 132/178/83 133/179/83
f 119/142/84 134/180/84 130/181/84 120/143/84
f 66/182/85 65/183/85 61/61/85 135/184/85
f 135/184/86 61/61/86 62/62/86 136/185/86
f 65/183/87 75/186/87 57/57/87 61/61/87
f 75/186/88 74/187/88 53/53/88 57/57/88
f 74/187/89 86/188/89 49/49/89 53/53/89
f 86/188/90 92/189/90 45/45/90 49/49/90
f 92/189/91 98/190/91 41/41/91 45/45/91
f 98/190/92 83/191/92 37/37/92 41/41/92
f 83/191/93 82/192/93 33/33/93 37/37/93
f 82/192/94 90/193/94 29/29/94 33/33/94
f 90/193/95 96/194/95 25/25/95 29/29/95
f 96/194/96 79/195/96 21/21/96 25/25/96
f 79/195/97 78/196/97 17/17/97 21/21/97
f 78/196/98 88/197/98 13/13/98 17/17/98
f 88/197/99 94/198/99 9/9/99 13/13/99
f 94/198/100 72/199/100 1/1/100 9/9/100
f 72/199/101 71/200/101 2/2/101 1/1/101
f 71/73/102 73/75/102 137/201/102
f 138/202/103 139/203/103 135/204/103 140/205/103
f 141/206/104 142/207/104 69/71/104 67/70/104
f 143/208/105 144/209/105 145/210/105 146/211/105
f 144/212/106 140/213/106 135/214/106 136/215/106
f 147/216/107 148/217/107 149/218/107 150/219/107
f 151/220/108 152/221/108 153/222/108 154/223/108
f 155/224/109 156/225/109 157/226/109 158/227/109
f 159/228/110 147/216/110 150/219/110 160/229/110
f 161/230/111 151/220/111 154/223/111 162/231/111
f 163/232/112 155/224/112 158/227/112 164/233/112
f 165/234/113 159/228/113 160/229/113 166/235/113
f 167/236/114 163/232/114 164/233/114 168/237/114
f 169/238/115 165/234/115 166/235/115 170/239/115
f 171/240/116 167/236/116 168/237/116 172/241/116
f 173/242/117 169/238/117 170/239/117 174/243/117
f 175/244/118 171/240/118 172/241/118 176/245/118
f 177/246/119 173/242/119 174/243/119 178/247/119
f 148/217/120 175/244/120 176/245/120 149/218/120
f 152/221/121 177/246/121 178/247/121 153/222/121
f 149/248/122 176/249/122 179/250/122 180/251/122
f 69/115/123 142/252/123 181/253/123 106/116/123
f 150/254/124 149/248/124 180/251/124 182/255/124
f 160/256/125 150/254/125 182/255/125 183/257/125
f 166/258/126 160/256/126 183/257/126 184/259/126
f 170/260/127 166/258/127 184/259/127 185/261/127
f 174/262/128 170/260/128 185/261/128 186/263/128
f 178/264/129 174/262/129 186/263/129 187/265/129
f 153/266/130 178/264/130 187/265/130 188/267/130
f 154/268/131 153/266/131 188/267/131 189/269/131
f 158/270/132 157/271/132 190/272/132 191/273/132
f 162/274/133 154/268/133 189/269/133 192/275/133
f 164/276/134 158/270/134 191/273/134 193/277/134
f 194/278/135 162/274/135 192/275/135 195/279/135
f 168/280/136 164/276/136 193/277/136 196/281/136
f 172/282/137 168/280/137 196/281/137 197/283/137
f 176/249/138 172/282/138 197/283/138 179/250/138
f 186/284/139 185/285/139 184/286/139 198/287/139
f 188/288/140 187/289/140 186/284/140 198/287/140
f 183/290/141 182/291/141 198/287/141 184/286/141
f 192/292/142 189/293/142 188/288/142 198/287/142
f 196/294/143 193/295/143 191/296/143 198/287/143
f 179/297/144 197/298/144 196/294/144 198/287/144
f 182/291/145 180/299/145 179/297/145 198/287/145
f 195/300/146 192/292/146 198/287/146
f 62/301/147 58/302/147 59/59/147 63/63/147
f 58/302/148 54/303/148 55/55/148 59/59/148
f 54/303/149 50/304/149 51/51/149 55/55/149
f 50/304/150 46/305/150 47/47/150 51/51/150
f 46/305/151 42/306/151 43/43/151 47/47/151
f 42/306/152 38/307/152 39/39/152 43/43/152
f 38/307/153 34/308/153 35/35/153 39/39/153
f 34/308/154 30/309/154 31/31/154 35/35/154
f 30/309/155 26/310/155 27/27/155 31/31/155
f 26/310/156 22/311/156 23/23/156 27/27/156
f 22/311/157 18/312/157 19/19/157 23/23/157
f 18/312/158 14/313/158 15/15/158 19/19/158
f 14/313/159 10/314/159 11/11/159 15/15/159
f 10/314/160 4/315/160 5/5/160 11/11/160
f 4/315/161 3/316/161 6/6/161 5/5/161
f 191/296/162 190/317/162 198/287/162
f 66/66/163 199/318/163 141/319/163 67/67/163
f 101/320/164 130/321/164 134/322/164 200/323/164
f 139/324/165 199/325/165 66/326/165 135/327/165
f 143/328/166 138/329/166 140/330/166 144/331/166
f 106/176/167 181/332/167 119/142/167
f 73/333/168 101/334/168 200/335/168 137/336/168
f 201/337/169 202/338/169 3/3/169 2/2/169
f 203/339/170 204/340/170 7/7/170 6/6/170
f 205/341/171 206/342/171 202/338/171 201/337/171
f 207/343/172 208/344/172 204/340/172 203/339/172
f 209/345/173 210/346/173 206/342/173 205/341/173
f 211/347/174 212/348/174 208/344/174 207/343/174
f 213/349/175 214/350/175 210/346/175 209/345/175
f 215/351/176 216/352/176 212/348/176 211/347/176
f 217/353/177 218/354/177 214/350/177 213/349/177
f 219/355/178 220/356/178 216/352/178 215/351/178
f 221/357/179 222/358/179 218/354/179 217/353/179
f 223/359/180 224/360/180 220/356/180 219/355/180
f 225/361/181 226/362/181 222/358/181 221/357/181
f 227/363/182 228/364/182 224/360/182 223/359/182
f 229/365/183 230/366/183 226/362/183 225/361/183
f 231/367/184 232/368/184 228/364/184 227/363/184
f 233/369/185 234/370/185 230/366/185 229/365/185
f 235/371/186 236/372/186 232/368/186 231/367/186
f 237/373/187 238/374/187 234/370/187 233/369/187
f 239/375/188 240/376/188 236/372/188 235/371/188
f 241/377/189 242/378/189 238/374/189 237/373/189
f 243/379/190 244/380/190 240/376/190 239/375/190
f 245/381/191 246/382/191 242/378/191 241/377/191
f 247/383/192 248/384/192 244/380/192 243/379/192
f 249/385/193 250/386/193 246/382/193 245/381/193
f 251/387/194 252/388/194 248/384/194 247/383/194
f 253/389/195 254/390/195 250/386/195 249/385/195
f 255/391/196 256/392/196 252/388/196 251/387/196
f 257/393/197 258/394/197 254/390/197 253/389/197
f 259/395/198 260/396/198 256/392/198 255/391/198
f 261/397/199 262/398/199 141/319/199 199/318/199
f 262/399/200 263/400/200 142/207/200 141/206/200
f 71/73/201 264/401/201 265/402/201
f 266/403/202 267/404/202 268/405/202 269/406/202
f 270/407/203 271/408/203 272/409/203 273/410/203
f 274/411/204 275/412/204 276/413/204 277/414/204
f 278/415/205 279/416/205 267/404/205 266/403/205
f 280/417/206 281/418/206 271/408/206 270/407/206
f 282/419/207 283/420/207 275/412/207 274/411/207
f 284/421/208 285/422/208 279/416/208 278/415/208
f 286/423/209 287/424/209 281/418/209 280/417/209
f 288/425/210 289/426/210 283/420/210 282/419/210
f 290/427/211 291/428/211 285/422/211 284/421/211
f 265/402/212 264/401/212 287/424/212 286/423/212
f 269/406/213 268/405/213 262/398/213 261/397/213
f 273/410/214 272/409/214 289/426/214 288/425/214
f 277/414/215 276/413/215 291/428/215 290/427/215
f 264/429/216 292/430/216 293/431/216 287/432/216
f 268/433/217 294/434/217 263/400/217 262/399/217
f 287/432/218 293/431/218 295/435/218 281/436/218
f 281/436/219 295/435/219 296/437/219 271/438/219
f 271/438/220 296/437/220 297/439/220 272/440/220
f 263/441/221 298/442/221 181/253/221 142/252/221
f 272/440/222 297/439/222 299/443/222 289/444/222
f 289/444/223 299/443/223 300/445/223 283/446/223
f 283/446/224 300/445/224 301/447/224 275/448/224
f 275/448/225 301/447/225 302/449/225 276/450/225
f 276/450/226 302/449/226 303/451/226 291/452/226
f 291/452/227 303/451/227 304/453/227 285/454/227
f 285/454/228 304/453/228 305/455/228 279/456/228
f 279/456/229 305/455/229 306/457/229 267/458/229
f 267/458/230 306/457/230 294/434/230 268/433/230
f 295/459/231 307/460/231 133/461/231 296/462/231
f 296/462/232 133/461/232 132/463/232 297/464/232
f 119/142/233 133/179/233 307/465/233 308/466/233
f 297/464/234 132/463/234 131/467/234 299/468/234
f 299/468/235 131/467/235 309/469/235 300/470/235
f 300/470/236 309/469/236 310/471/236 301/472/236
f 301/472/237 310/471/237 311/473/237 302/474/237
f 302/474/238 311/473/238 312/475/238 303/476/238
f 303/476/239 312/475/239 313/477/239 304/478/239
f 304/478/240 313/477/240 314/479/240 305/480/240
f 305/480/241 314/479/241 315/481/241 306/482/241
f 306/482/242 315/481/242 316/483/242 294/484/242
f 294/484/243 316/483/243 298/442/243 263/441/243
f 292/485/244 317/486/244 308/487/244 293/488/244
f 293/488/245 308/487/245 307/460/245 295/459/245
f 119/142/246 310/489/246 309/490/246 131/177/246
f 119/142/247 312/491/247 311/492/247 310/489/247
f 119/142/248 314/493/248 313/494/248 312/491/248
f 119/142/249 316/495/249 315/496/249 314/493/249
f 316/495/250 119/142/250 181/332/250 298/497/250
f 317/498/251 134/180/251 119/142/251 308/466/251
f 199/499/252 139/500/252 257/393/252 261/501/252
f 139/500/253 318/502/253 258/394/253 257/393/253
f 261/501/254 257/393/254 253/389/254 269/503/254
f 269/503/255 253/389/255 249/385/255 266/504/255
f 266/504/256 249/385/256 245/381/256 278/505/256
f 278/505/257 245/381/257 241/377/257 284/506/257
f 284/506/258 241/377/258 237/373/258 290/507/258
f 290/507/259 237/373/259 233/369/259 277/508/259
f 277/508/260 233/369/260 229/365/260 274/509/260
f 274/509/261 229/365/261 225/361/261 282/510/261
f 282/510/262 225/361/262 221/357/262 288/511/262
f 288/511/263 221/357/263 217/353/263 273/512/263
f 273/512/264 217/353/264 213/349/264 270/513/264
f 270/513/265 213/349/265 209/345/265 280/514/265
f 280/514/266 209/345/266 205/341/266 286/515/266
f 286/515/267 205/341/267 201/337/267 265/516/267
f 265/516/268 201/337/268 2/2/268 71/200/268
f 71/73/269 137/201/269 264/401/269
f 318/517/270 139/518/270 138/519/270 143/520/270
f 319/521/271 320/522/271 321/523/271 322/524/271
f 323/525/272 324/526/272 325/527/272 326/528/272
f 327/529/273 328/530/273 157/226/273 156/225/273
f 329/531/274 330/532/274 320/522/274 319/521/274
f 331/533/275 332/534/275 324/526/275 323/525/275
f 333/535/276 334/536/276 328/530/276 327/529/276
f 335/537/277 336/538/277 330/532/277 329/531/277
f 337/539/278 338/540/278 334/536/278 333/535/278
f 339/541/279 340/542/279 336/538/279 335/537/279
f 341/543/280 342/544/280 338/540/280 337/539/280
f 343/545/281 344/546/281 340/542/281 339/541/281
f 345/547/282 346/548/282 342/544/282 341/543/282
f 347/549/283 348/550/283 344/546/283 343/545/283
f 322/524/284 321/523/284 346/548/284 345/547/284
f 326/528/285 325/527/285 348/550/285 347/549/285
f 321/551/286 349/552/286 350/553/286 346/554/286
f 320/555/287 351/556/287 349/552/287 321/551/287
f 330/557/288 352/558/288 351/556/288 320/555/288
f 336/559/289 353/560/289 352/558/289 330/557/289
f 340/561/290 354/562/290 353/560/290 336/559/290
f 344/563/291 355/564/291 354/562/291 340/561/291
f 348/565/292 356/566/292 355/564/292 344/563/292
f 325/567/293 357/568/293 356/566/293 348/565/293
f 324/569/294 358/570/294 357/568/294 325/567/294
f 328/571/295 359/572/295 190/272/295 157/271/295
f 332/573/296 360/574/296 358/570/296 324/569/296
f 334/575/297 361/576/297 359/572/297 328/571/297
f 362/577/298 195/279/298 360/574/298 332/573/298
f 338/578/299 363/579/299 361/576/299 334/575/299
f 342/580/300 364/581/300 363/579/300 338/578/300
f 346/554/301 350/553/301 364/581/301 342/580/301
f 355/582/302 198/287/302 353/583/302 354/584/302
f 357/585/303 198/287/303 355/582/303 356/586/303
f 352/587/304 353/583/304 198/287/304 351/588/304
f 360/589/305 198/287/305 357/585/305 358/590/305
f 363/591/306 198/287/306 359/592/306 361/593/306
f 350/594/307 198/287/307 363/591/307 364/595/307
f 351/588/308 198/287/308 350/594/308 349/596/308
f 195/300/309 198/287/309 360/589/309
f 258/597/310 259/395/310 255/391/310 254/598/310
f 254/598/311 255/391/311 251/387/311 250/599/311
f 250/599/312 251/387/312 247/383/312 246/600/312
f 246/600/313 247/383/313 243/379/313 242/601/313
f 242/601/314 243/379/314 239/375/314 238/602/314
f 238/602/315 239/375/315 235/371/315 234/603/315
f 234/603/316 235/371/316 231/367/316 230/604/316
f 230/604/317 231/367/317 227/363/317 226/605/317
f 226/605/318 227/363/318 223/359/318 222/606/318
f 222/606/319 223/359/319 219/355/319 218/607/319
f 218/607/320 219/355/320 215/351/320 214/608/320
f 214/608/321 215/351/321 211/347/321 210/609/321
f 210/609/322 211/347/322 207/343/322 206/610/322
f 206/610/323 207/343/323 203/339/323 202/611/323
f 202/611/324 203/339/324 6/6/324 3/316/324
f 359/592/325 198/287/325 190/317/325
f 292/612/326 200/323/326 134/322/326 317/613/326
f 264/614/327 137/336/327 200/335/327 292/615/327
f 63/616/328 64/617/328 161/618/328 365/619/328
f 144/209/329 136/620/329 366/621/329 145/210/329
f 259/622/330 258/623/330 367/624/330 368/625/330
f 136/620/331 62/626/331 369/627/331 366/621/331
f 62/626/332 63/616/332 365/619/332 369/627/332
f 194/628/333 362/629/333 370/630/333 371/631/333
f 260/632/334 259/622/334 368/625/334 331/633/334
f 258/623/335 318/634/335 372/635/335 367/624/335
f 318/634/336 143/208/336 146/211/336 372/635/336
f 252/636/337 326/528/337 347/549/337 248/637/337
f 224/638/338 322/524/338 345/547/338 220/639/338
f 248/637/339 347/549/339 343/545/339 244/640/339
f 220/639/340 345/547/340 341/543/340 216/641/340
f 244/640/341 343/545/341 339/541/341 240/642/341
f 216/641/342 341/543/342 337/539/342 212/643/342
f 240/642/343 339/541/343 335/537/343 236/644/343
f 212/643/344 337/539/344 333/535/344 208/645/344
f 236/644/345 335/537/345 329/531/345 232/646/345
f 208/645/346 333/535/346 327/529/346 204/647/346
f 260/648/347 331/533/347 323/525/347 256/649/347
f 232/646/348 329/531/348 319/521/348 228/650/348
f 204/647/349 327/529/349 156/225/349 7/651/349
f 256/649/350 323/525/350 326/528/350 252/636/350
f 228/650/351 319/521/351 322/524/351 224/638/351
f 56/652/352 52/653/352 177/246/352 152/221/352
f 28/654/353 24/655/353 175/244/353 148/217/353
f 52/653/354 48/656/354 173/242/354 177/246/354
f 24/655/355 20/657/355 171/240/355 175/244/355
f 48/656/356 44/658/356 169/238/356 173/242/356
f 20/657/357 16/659/357 167/236/357 171/240/357
f 44/658/358 40/660/358 165/234/358 169/238/358
f 16/659/359 12/661/359 163/232/359 167/236/359
f 40/660/360 36/662/360 159/228/360 165/234/360
f 12/661/361 8/663/361 155/224/361 163/232/361
f 64/664/362 60/665/362 151/220/362 161/230/362
f 36/662/363 32/666/363 147/216/363 159/228/363
f 8/663/364 7/651/364 156/225/364 155/224/364
f 60/665/365 56/652/365 152/221/365 151/220/365
f 32/666/366 28/654/366 148/217/366 147/216/366
f 373/667/367 374/668/367 375/669/367 376/670/367
f 194/628/368 371/631/368 161/230/368 162/231/368
f 362/629/369 332/534/369 331/533/369 370/630/369
f 374/668/370 370/671/370 331/672/370 368/673/370
f 375/669/371 374/668/371 368/673/371 367/674/371
f 146/675/372 375/669/372 367/674/372 372/676/372
f 371/677/373 370/671/373 374/668/373 373/667/373
f 376/670/374 375/669/374 146/675/374 145/678/374
f 118/679/375 121/168/375 119/142/375 116/141/375
f 369/680/376 365/681/376 373/667/376 376/670/376
f 365/681/377 161/682/377 371/677/377 373/667/377
f 366/683/378 369/680/378 376/670/378 145/678/378
f 195/279/379 362/577/379 194/278/379
