# Blender v2.93.3 OBJ File: 'FOLIGEDEF - copia.blend'
# www.blender.org
mtllib enredadera grande.mtl
o Plane
v 1.001488 1.208695 -0.683769
v 1.089840 2.294271 -0.687610
v -1.002118 -0.813841 -0.696242
v 1.180714 3.378806 -0.927626
v -0.014321 1.291330 -0.694975
v 0.286976 3.451510 -0.937486
v 0.223229 2.364769 -0.697170
v -0.740152 0.257612 -0.698167
v -1.046294 -1.356628 -0.694322
v 0.045427 -1.991583 -0.612776
v -0.218153 -0.877615 -0.687593
v 0.022502 -1.443574 -0.682531
v 0.141468 0.185893 -0.688441
v -0.592051 -1.939725 -0.619809
v -0.749085 -0.288043 -0.695858
v 0.083708 -0.355790 -0.686671
v 0.830822 3.406835 -1.054258
v -0.430392 -0.314403 -0.815114
v 0.502398 1.248861 -0.812047
v -0.637307 -0.843952 -0.814989
v -0.291251 0.220660 -0.815987
v -0.491597 -1.402187 -0.810974
v 0.685694 2.326713 -0.814840
v -0.238095 -1.968953 -0.738676
vt 0.243939 0.762165
vt 0.243939 0.864978
vt 0.198543 0.864978
vt 0.187913 0.762165
vt 0.243939 0.967790
vt 0.204618 0.967790
vt 0.159060 0.505134
vt 0.127169 0.556540
vt 0.080093 0.556540
vt 0.101353 0.505134
vt 0.157541 0.659353
vt 0.108946 0.659353
vt 0.166653 0.453728
vt 0.134762 0.453727
vt 0.142355 0.607946
vt 0.084648 0.607946
vt 0.049113 0.607946
vt 0.039394 0.556540
vt 0.130206 0.762165
vt 0.058832 0.659353
vt 0.146911 0.864978
vt 0.039394 0.505134
vt 0.095279 0.453727
vt 0.143874 0.967790
vn -0.2693 0.0368 0.9624
vn -0.2928 0.2371 0.9263
vn -0.2698 -0.0850 0.9592
vn -0.2452 0.1937 0.9499
vn -0.3000 0.0470 0.9528
vn -0.2570 0.0494 0.9652
vn -0.2533 0.1218 0.9597
vn 0.3155 -0.1378 0.9389
vn 0.2202 -0.1656 0.9613
vn 0.2296 -0.0427 0.9724
vn 0.2624 0.2794 0.9236
vn 0.2375 0.1881 0.9530
vn 0.2921 -0.0372 0.9557
vn 0.2501 0.0283 0.9678
usemtl Material.001
s off
f 1/1/1 2/2/1 23/3/1 19/4/1
f 2/2/2 4/5/2 17/6/2 23/3/2
f 12/7/3 11/8/3 20/9/3 22/10/3
f 13/11/4 1/1/4 19/4/4 21/12/4
f 10/13/5 12/7/5 22/10/5 24/14/5
f 16/15/6 13/11/6 21/12/6 18/16/6
f 11/8/7 16/15/7 18/16/7 20/9/7
f 20/9/8 18/16/8 15/17/8 3/18/8
f 21/12/9 19/4/9 5/19/9 8/20/9
f 19/4/10 23/3/10 7/21/10 5/19/10
f 24/14/11 22/10/11 9/22/11 14/23/11
f 23/3/12 17/6/12 6/24/12 7/21/12
f 18/16/13 21/12/13 8/20/13 15/17/13
f 22/10/14 20/9/14 3/18/14 9/22/14
o Plane.001
v -0.262105 1.510344 -0.744797
v -0.267003 0.442147 -0.780603
v -0.455053 -0.006193 -0.721773
v -0.617961 0.959953 -0.822380
v -1.076841 3.527122 -1.100571
v -0.524273 3.531700 -0.869910
v -0.515062 2.851701 -0.843147
v -0.179937 2.051991 -0.676211
v 0.082045 1.634719 -0.482960
v -0.058974 1.114490 -0.594091
v 0.013229 0.475818 -0.542408
v 0.199596 0.069317 -0.450861
v 0.184561 -0.434062 -0.440179
v -0.267675 -0.465013 -0.628041
v -0.627516 0.416102 -0.808044
v -0.634855 1.411156 -0.774885
v -0.995495 2.194849 -1.021696
v -1.155272 2.900803 -1.112226
v -0.182491 0.016729 -0.730965
v -0.852758 2.877428 -1.107347
v 0.040154 -0.450423 -0.622220
v -0.474086 2.107621 -0.923228
v -0.719436 3.526218 -1.073519
v -0.234643 1.050409 -0.787583
vt 0.446075 0.758857
vt 0.477416 0.756778
vt 0.493152 0.817950
vt 0.455187 0.817950
vt 0.465817 0.692056
vt 0.523666 0.683775
vt 0.611602 0.490370
vt 0.588823 0.528909
vt 0.549700 0.526313
vt 0.560173 0.486067
vt 0.512893 0.617548
vt 0.552654 0.626990
vt 0.512206 0.575128
vt 0.553251 0.583737
vt 0.511375 0.523770
vt 0.532482 0.483751
vt 0.555414 0.440270
vt 0.587375 0.441772
vt 0.564526 0.677926
vt 0.523524 0.753718
vt 0.579712 0.589286
vt 0.599454 0.638102
vt 0.522005 0.817950
vt 0.610084 0.442839
vn -0.0493 -0.0274 0.9984
vn -0.1039 0.1452 0.9839
vn -0.6098 -0.0645 0.7899
vn -0.1414 0.2373 0.9611
vn -0.0598 -0.1013 0.9931
vn -0.0867 0.0216 0.9960
vn -0.0079 0.2103 0.9776
vn -0.6337 -0.1172 0.7646
vn -0.6492 -0.0440 0.7594
vn -0.0398 0.1464 0.9884
vn -0.6889 0.0121 0.7248
vn -0.6574 0.0574 0.7513
vn -0.6554 -0.0475 0.7538
vn -0.6231 -0.0045 0.7822
usemtl Material.001
s off
f 42/25/15 44/26/15 47/27/15 29/28/15
f 41/29/16 46/30/16 44/26/16 42/25/16
f 36/31/17 35/32/17 26/33/17 43/34/17
f 40/35/18 25/36/18 46/30/18 41/29/18
f 28/37/19 48/38/19 25/36/19 40/35/19
f 39/39/20 26/33/20 48/38/20 28/37/20
f 27/40/21 38/41/21 45/42/21 43/34/21
f 44/26/22 46/30/22 32/43/22 31/44/22
f 25/36/23 48/38/23 34/45/23 33/46/23
f 43/34/24 26/33/24 39/39/24 27/40/24
f 48/38/25 26/33/25 35/32/25 34/45/25
f 47/27/26 44/26/26 31/44/26 30/47/26
f 43/34/27 45/42/27 37/48/27 36/31/27
f 46/30/28 25/36/28 33/46/28 32/43/28
o Plane.003
v 1.347757 0.589981 -1.233290
v 1.408599 1.679153 -1.134978
v -0.150106 -1.588363 -0.170355
v 1.408599 2.768325 -1.134978
v 0.481074 0.589981 -0.696932
v 0.646065 2.768325 -0.663075
v 0.669209 1.679153 -0.677398
v 0.039589 -0.499191 -0.194856
v -0.212286 -2.132949 -0.270830
v 0.819649 -2.677535 -0.770499
v 0.518770 -1.588363 -0.584297
v 0.699607 -2.132949 -0.835166
v 0.791784 -0.499191 -0.660361
v 0.275755 -2.677535 -0.433904
v -0.076043 -1.043777 -0.216189
v 0.634493 -1.043777 -0.655913
v 1.044350 2.768325 -1.053932
v 0.130143 -1.043777 -0.488163
v 0.856214 0.589981 -1.073465
v 0.095427 -1.588363 -0.466679
v 0.356867 -0.499191 -0.535580
v 0.195257 -2.132949 -0.667416
v 0.998060 1.679153 -1.025285
v 0.512027 -2.677535 -0.724497
vt 0.243939 0.762165
vt 0.243939 0.864978
vt 0.198543 0.864978
vt 0.187913 0.762165
vt 0.243939 0.967790
vt 0.204618 0.967790
vt 0.159060 0.505134
vt 0.127169 0.556540
vt 0.080093 0.556540
vt 0.101353 0.505134
vt 0.157541 0.659353
vt 0.108946 0.659353
vt 0.166653 0.453728
vt 0.134762 0.453727
vt 0.142355 0.607946
vt 0.084648 0.607946
vt 0.049113 0.607946
vt 0.039394 0.556540
vt 0.130206 0.762165
vt 0.058832 0.659353
vt 0.146911 0.864978
vt 0.039394 0.505134
vt 0.095279 0.453727
vt 0.143874 0.967790
vn 0.2851 -0.0907 0.9542
vn 0.2390 0.0077 0.9710
vn 0.2800 -0.3052 0.9102
vn 0.2776 0.3263 0.9036
vn 0.2531 0.1082 0.9614
vn 0.2968 -0.0593 0.9531
vn 0.2938 0.0411 0.9550
vn 0.7822 -0.0397 0.6217
vn 0.7193 0.0208 0.6944
vn 0.7111 -0.1292 0.6911
vn 0.6773 0.3722 0.6346
vn 0.7127 -0.0030 0.7015
vn 0.7420 -0.2181 0.6339
vn 0.7181 -0.1623 0.6768
usemtl Material.001
s off
f 49/49/29 50/50/29 71/51/29 67/52/29
f 50/50/30 52/53/30 65/54/30 71/51/30
f 60/55/31 59/56/31 68/57/31 70/58/31
f 61/59/32 49/49/32 67/52/32 69/60/32
f 58/61/33 60/55/33 70/58/33 72/62/33
f 64/63/34 61/59/34 69/60/34 66/64/34
f 59/56/35 64/63/35 66/64/35 68/57/35
f 68/57/36 66/64/36 63/65/36 51/66/36
f 69/60/37 67/52/37 53/67/37 56/68/37
f 67/52/38 71/51/38 55/69/38 53/67/38
f 72/62/39 70/58/39 57/70/39 62/71/39
f 71/51/40 65/54/40 54/72/40 55/69/40
f 66/64/41 69/60/41 56/68/41 63/65/41
f 70/58/42 68/57/42 51/66/42 57/70/42
o Plane.004
v 0.260913 -1.584803 -0.722790
v -0.071274 -2.564882 -0.452122
v -0.331571 -2.926691 -0.279714
v -0.174481 -1.959818 -0.382569
v 0.219132 0.619814 -0.645022
v 0.726005 0.400336 -0.876250
v 0.518990 -0.237476 -0.759886
v 0.572154 -1.118886 -0.758265
v 0.701619 -1.625965 -0.803731
v 0.385773 -2.042063 -0.642983
v 0.282230 -2.664742 -0.490375
v 0.291146 -3.121362 -0.566048
v 0.053839 -3.588778 -0.607340
v -0.369617 -3.434517 -0.413288
v -0.322764 -2.460972 -0.212631
v -0.024944 -1.544143 -0.465267
v -0.128558 -0.655435 -0.443434
v -0.051039 0.067546 -0.501601
v -0.161516 -2.997899 -0.481978
v 0.131744 -0.058961 -0.708171
v -0.169945 -3.527777 -0.628786
v 0.234213 -0.930120 -0.729995
v 0.459243 0.492034 -0.878454
v 0.118277 -2.012900 -0.642957
vt 0.446075 0.758857
vt 0.477416 0.756778
vt 0.493152 0.817950
vt 0.455187 0.817950
vt 0.465817 0.692056
vt 0.523666 0.683775
vt 0.611602 0.490370
vt 0.588823 0.528909
vt 0.549700 0.526313
vt 0.560173 0.486067
vt 0.512893 0.617548
vt 0.552654 0.626990
vt 0.512206 0.575128
vt 0.553251 0.583737
vt 0.511375 0.523770
vt 0.532482 0.483751
vt 0.555414 0.440270
vt 0.587375 0.441772
vt 0.564526 0.677926
vt 0.523524 0.753718
vt 0.579712 0.589286
vt 0.599454 0.638102
vt 0.522005 0.817950
vt 0.610084 0.442839
vn 0.6666 -0.1537 0.7294
vn 0.6813 0.0273 0.7315
vn 0.1142 -0.1273 0.9853
vn 0.6556 0.0482 0.7536
vn 0.6571 -0.0832 0.7492
vn 0.6811 0.0321 0.7315
vn 0.6866 -0.2181 0.6935
vn 0.1087 -0.0018 0.9941
vn 0.1313 0.2051 0.9699
vn 0.6842 -0.1523 0.7132
vn 0.1118 0.2531 0.9610
vn 0.1441 0.1702 0.9748
vn 0.0378 -0.1942 0.9802
vn 0.1347 -0.0145 0.9908
usemtl Material.001
s off
f 90/73/43 92/74/43 95/75/43 77/76/43
f 89/77/44 94/78/44 92/74/44 90/73/44
f 84/79/45 83/80/45 74/81/45 91/82/45
f 88/83/46 73/84/46 94/78/46 89/77/46
f 76/85/47 96/86/47 73/84/47 88/83/47
f 87/87/48 74/81/48 96/86/48 76/85/48
f 75/88/49 86/89/49 93/90/49 91/82/49
f 92/74/50 94/78/50 80/91/50 79/92/50
f 73/84/51 96/86/51 82/93/51 81/94/51
f 91/82/52 74/81/52 87/87/52 75/88/52
f 96/86/53 74/81/53 83/80/53 82/93/53
f 95/75/54 92/74/54 79/92/54 78/95/54
f 91/82/55 93/90/55 85/96/55 84/79/55
f 94/78/56 73/84/56 81/94/56 80/91/56
o Plane.005
v -0.619907 1.169672 -0.831730
v -0.572758 0.210239 -0.692590
v -0.639803 -0.182541 -0.493245
v -0.858004 0.684411 -0.554337
v -1.461841 2.987673 -0.707760
v -0.951310 2.998922 -0.897518
v -0.895221 2.387378 -0.818413
v -0.529448 1.672358 -0.836423
v -0.234997 1.298921 -0.883896
v -0.352029 0.830631 -0.764433
v -0.240595 0.257074 -0.711897
v -0.039858 -0.106171 -0.726537
v -0.018542 -0.559158 -0.660496
v -0.434472 -0.592834 -0.501902
v -0.828789 0.195091 -0.485277
v -0.882135 1.088574 -0.611379
v -1.293430 1.790336 -0.574450
v -1.490534 2.423284 -0.605139
v -0.464864 -0.171336 -0.670065
v -1.284665 2.393230 -0.786615
v -0.226345 -0.588670 -0.689790
v -0.880725 1.705670 -0.823153
v -1.206798 2.978541 -0.910749
v -0.585395 0.757792 -0.777251
vt 0.446075 0.758857
vt 0.477416 0.756778
vt 0.493152 0.817950
vt 0.455187 0.817950
vt 0.465817 0.692056
vt 0.523666 0.683775
vt 0.611602 0.490370
vt 0.588823 0.528909
vt 0.549700 0.526313
vt 0.560173 0.486067
vt 0.512893 0.617548
vt 0.552654 0.626990
vt 0.512206 0.575128
vt 0.553251 0.583737
vt 0.511375 0.523770
vt 0.532482 0.483751
vt 0.555414 0.440270
vt 0.587375 0.441772
vt 0.564526 0.677926
vt 0.523524 0.753718
vt 0.579712 0.589286
vt 0.599454 0.638102
vt 0.522005 0.817950
vt 0.610084 0.442839
vn 0.6424 0.0905 0.7610
vn 0.5833 0.2621 0.7688
vn 0.0923 0.0488 0.9945
vn 0.5505 0.2699 0.7900
vn 0.6048 0.1503 0.7821
vn 0.6108 0.1402 0.7793
vn 0.6458 0.3226 0.6919
vn 0.0604 -0.0057 0.9982
vn -0.0010 0.1940 0.9810
vn 0.6332 0.2616 0.7284
vn -0.0140 0.1199 0.9927
vn 0.0246 0.1669 0.9857
vn 0.0334 0.0631 0.9975
vn 0.0894 -0.0068 0.9960
usemtl Material.001
s off
f 114/97/57 116/98/57 119/99/57 101/100/57
f 113/101/58 118/102/58 116/98/58 114/97/58
f 108/103/59 107/104/59 98/105/59 115/106/59
f 112/107/60 97/108/60 118/102/60 113/101/60
f 100/109/61 120/110/61 97/108/61 112/107/61
f 111/111/62 98/105/62 120/110/62 100/109/62
f 99/112/63 110/113/63 117/114/63 115/106/63
f 116/98/64 118/102/64 104/115/64 103/116/64
f 97/108/65 120/110/65 106/117/65 105/118/65
f 115/106/66 98/105/66 111/111/66 99/112/66
f 120/110/67 98/105/67 107/104/67 106/117/67
f 119/99/68 116/98/68 103/116/68 102/119/68
f 115/106/69 117/114/69 109/120/69 108/103/69
f 118/102/70 97/108/70 105/118/70 104/115/70
o Plane.010
v -0.617951 -0.457233 -0.905306
v -0.822596 1.817029 -0.996318
v -1.212168 1.011143 -0.780329
v -0.707500 1.028154 -0.780329
v -1.030715 2.150898 -0.911804
v -0.531717 2.139558 -0.911804
v -0.486354 1.799331 -0.911804
v -0.713170 1.357038 -0.911804
v -0.701830 0.699270 -0.780329
v -0.384286 0.086863 -0.911804
v -0.429648 -0.446157 -0.820792
v -0.815238 -0.468839 -0.820792
v -0.951329 -0.037886 -0.911804
v -1.212168 0.642565 -0.780329
v -1.212168 1.379721 -0.911804
v -1.132782 1.833355 -0.911804
v -0.958648 0.670734 -0.864843
v -0.969002 1.368667 -0.996318
v -0.692971 0.018953 -0.996318
v -1.025722 1.017428 -0.864843
v -0.711772 2.143650 -0.996318
vt 0.916471 0.575273
vt 0.915838 0.606318
vt 0.887291 0.607416
vt 0.880961 0.574261
vt 0.952538 0.486420
vt 0.917104 0.544228
vt 0.888446 0.541534
vt 0.918092 0.480009
vt 0.869015 0.651280
vt 0.903628 0.649739
vt 0.915994 0.680570
vt 0.880404 0.681255
vt 0.860156 0.608459
vt 0.947476 0.436105
vt 0.926464 0.435060
vt 0.860156 0.538875
vt 0.889263 0.474644
vt 0.860156 0.573667
vt 0.941148 0.648069
vt 0.936086 0.680184
vt 0.904449 0.433964
vn -0.2624 0.3650 0.8932
vn -0.2265 -0.2974 0.9275
vn 0.2556 -0.0845 0.9631
vn 0.2881 -0.0721 0.9549
vn -0.3403 0.1572 0.9271
vn -0.2800 -0.0301 0.9595
vn 0.3219 -0.0593 0.9449
vn 0.3561 0.0334 0.9338
vn -0.3098 0.0304 0.9503
vn -0.2676 0.1122 0.9570
vn 0.3525 0.2965 0.8876
vn 0.3025 0.2547 0.9185
usemtl Material.001
s off
f 124/121/71 128/122/71 138/123/71 140/124/71
f 130/125/72 129/126/72 137/127/72 139/128/72
f 136/129/73 122/130/73 141/131/73 125/132/73
f 135/133/74 138/123/74 122/130/74 136/129/74
f 131/134/75 130/125/75 139/128/75 121/135/75
f 129/126/76 124/121/76 140/124/76 137/127/76
f 139/128/77 137/127/77 134/136/77 133/137/77
f 137/127/78 140/124/78 123/138/78 134/136/78
f 141/131/79 122/130/79 127/139/79 126/140/79
f 122/130/80 138/123/80 128/122/80 127/139/80
f 140/124/81 138/123/81 135/133/81 123/138/81
f 121/135/82 139/128/82 133/137/82 132/141/82
o Plane.011
v 0.377452 0.150525 -0.982709
v 1.482605 2.148720 -1.114274
v 0.708301 1.699641 -0.898195
v 1.135791 1.430882 -0.898195
v 1.497366 2.541867 -1.029760
v 1.904270 2.252806 -1.029760
v 1.751155 1.945613 -1.029760
v 1.315422 1.706435 -0.898195
v 0.956160 1.155329 -0.898195
v 0.875913 0.470175 -0.898195
v 0.539608 0.054162 -0.898195
v 0.207557 0.251486 -0.898195
v 0.336383 0.684666 -0.898195
v 0.501727 1.394392 -0.898195
v 0.914875 2.004891 -0.898195
v 1.234864 2.336089 -1.029760
v 0.727475 1.275633 -0.982709
v 1.110065 1.859451 -0.982709
v 0.582205 0.586939 -0.982709
v 0.866234 1.600350 -0.982709
v 1.757445 2.357109 -1.114274
vt 0.916471 0.575273
vt 0.915838 0.606318
vt 0.887291 0.607416
vt 0.880961 0.574261
vt 0.952538 0.486420
vt 0.917104 0.544228
vt 0.888446 0.541534
vt 0.918092 0.480009
vt 0.869015 0.651280
vt 0.903628 0.649739
vt 0.915994 0.680570
vt 0.880404 0.681255
vt 0.860156 0.608459
vt 0.947476 0.436105
vt 0.926464 0.435060
vt 0.860156 0.538875
vt 0.889263 0.474644
vt 0.860156 0.573667
vt 0.941148 0.648069
vt 0.936086 0.680184
vt 0.904449 0.433964
vn -0.2220 0.1758 0.9591
vn -0.2880 0.0473 0.9565
vn 0.1643 -0.2132 0.9631
vn 0.3559 -0.0009 0.9345
vn -0.2708 0.1719 0.9472
vn -0.2488 0.1320 0.9595
vn 0.3086 -0.0685 0.9487
vn 0.3137 -0.1719 0.9338
vn -0.2395 0.1988 0.9503
vn 0.0073 0.4367 0.8996
vn 0.2867 -0.2288 0.9303
vn 0.3225 -0.1237 0.9385
usemtl Material.001
s off
f 145/142/83 149/143/83 159/144/83 161/145/83
f 151/146/84 150/147/84 158/148/84 160/149/84
f 157/150/85 143/151/85 162/152/85 146/153/85
f 156/154/86 159/144/86 143/151/86 157/150/86
f 152/155/87 151/146/87 160/149/87 142/156/87
f 150/147/88 145/142/88 161/145/88 158/148/88
f 160/149/89 158/148/89 155/157/89 154/158/89
f 158/148/90 161/145/90 144/159/90 155/157/90
f 162/152/91 143/151/91 148/160/91 147/161/91
f 143/151/92 159/144/92 149/143/92 148/160/92
f 161/145/93 159/144/93 156/154/93 144/159/93
f 142/156/94 160/149/94 154/158/94 153/162/94
o Plane.012
v -0.008881 0.596052 -0.691087
v -0.453164 -1.643690 -0.673272
v 0.138943 -0.977492 -0.555163
v -0.348283 -0.852355 -0.599099
v -0.355214 -2.020337 -0.570961
v -0.829042 -1.869583 -0.614403
v -0.776677 -1.530387 -0.618352
v -0.435401 -1.169540 -0.598605
v -0.261164 -0.535169 -0.599592
v -0.392407 0.141505 -0.627237
v -0.199066 0.640275 -0.623288
v 0.175923 0.553958 -0.589719
v 0.184761 0.102269 -0.577871
v 0.242651 -0.623805 -0.555163
v 0.035235 -1.331179 -0.555163
v -0.168294 -1.744233 -0.562075
v -0.000568 -0.581843 -0.661427
v -0.187050 -1.254481 -0.660526
v -0.071150 0.118076 -0.684556
v -0.033999 -0.933331 -0.655588
v -0.651008 -1.926051 -0.682920
vt 0.916471 0.575273
vt 0.915838 0.606318
vt 0.887291 0.607416
vt 0.880961 0.574261
vt 0.952538 0.486420
vt 0.917104 0.544228
vt 0.888446 0.541534
vt 0.918092 0.480009
vt 0.869015 0.651280
vt 0.903628 0.649739
vt 0.915994 0.680570
vt 0.880404 0.681255
vt 0.860156 0.608459
vt 0.947476 0.436105
vt 0.926464 0.435060
vt 0.860156 0.538875
vt 0.889263 0.474644
vt 0.860156 0.573667
vt 0.941148 0.648069
vt 0.936086 0.680184
vt 0.904449 0.433964
vn 0.1838 -0.0760 0.9800
vn 0.2079 0.0665 0.9759
vn -0.3010 0.1763 0.9372
vn -0.3349 0.1734 0.9262
vn 0.2300 -0.0576 0.9715
vn 0.1960 -0.0260 0.9803
vn -0.3930 -0.0058 0.9195
vn -0.4279 0.0907 0.8993
vn 0.2082 -0.0928 0.9737
vn 0.1444 -0.1592 0.9766
vn -0.4192 0.1529 0.8949
vn -0.4220 0.0422 0.9056
usemtl Material.001
s off
f 166/163/95 170/164/95 180/165/95 182/166/95
f 172/167/96 171/168/96 179/169/96 181/170/96
f 178/171/97 164/172/97 183/173/97 167/174/97
f 177/175/98 180/165/98 164/172/98 178/171/98
f 173/176/99 172/167/99 181/170/99 163/177/99
f 171/168/100 166/163/100 182/166/100 179/169/100
f 181/170/101 179/169/101 176/178/101 175/179/101
f 179/169/102 182/166/102 165/180/102 176/178/102
f 183/173/103 164/172/103 169/181/103 168/182/103
f 164/172/104 180/165/104 170/164/104 169/181/104
f 182/166/105 180/165/105 177/175/105 165/180/105
f 163/177/106 181/170/106 175/179/106 174/183/106
