# Blender v2.93.3 OBJ File: 'FOLIGEDEF - copia.blend'
# www.blender.org
mtllib hierbajo 1.mtl
o Plane.070
v -0.165883 0.403016 -0.176677
v -0.251796 0.481490 -0.104169
v -0.321408 0.662339 -0.121545
v -0.010440 0.022896 -0.266996
v -0.461098 0.593793 -0.151638
v -0.261725 0.666796 -0.006448
v -0.131293 0.528173 -0.010698
v 0.008781 0.504327 0.051304
v 0.067734 0.263228 -0.045625
v 0.054166 0.053099 -0.135566
v -0.111662 -0.050722 -0.279276
v -0.251460 0.049081 -0.329863
v -0.400075 0.263757 -0.294817
v -0.404307 0.445677 -0.200214
v -0.123438 0.196013 -0.171938
vt 0.856734 0.837950
vt 0.839328 0.857692
vt 0.822545 0.838762
vt 0.847466 0.831448
vt 0.823563 0.884796
vt 0.838820 0.892540
vt 0.823054 0.904586
vt 0.812155 0.899317
vt 0.862723 0.868447
vt 0.856111 0.892970
vt 0.830683 0.874901
vt 0.804745 0.877912
vt 0.798133 0.892540
vt 0.804745 0.858552
vt 0.868317 0.846076
vn -0.2718 -0.3948 0.8776
vn -0.6514 -0.3809 0.6562
vn -0.5940 -0.2889 0.7508
vn -0.3227 -0.2115 0.9226
vn -0.3019 -0.7299 0.6133
vn -0.1816 -0.5749 0.7978
vn -0.5274 -0.4764 0.7035
vn -0.4447 -0.2630 0.8562
usemtl Material.001
s off
f 4/1/1 15/2/1 12/3/1 11/4/1
f 2/5/2 7/6/2 6/7/2 3/8/2
f 9/9/3 8/10/3 1/11/3 15/2/3
f 14/12/4 2/5/4 3/8/4 5/13/4
f 1/11/5 8/10/5 7/6/5 2/5/5
f 13/14/6 1/11/6 2/5/6 14/12/6
f 15/2/7 4/1/7 10/15/7 9/9/7
f 12/3/8 15/2/8 1/11/8 13/14/8
o Plane.071
v 0.158063 0.602669 -0.278831
v 0.191404 0.769807 -0.231259
v 0.253961 1.009423 -0.136915
v 0.084889 -0.010775 -0.427612
v 0.189783 0.958158 0.075114
v 0.422965 0.982025 -0.209918
v 0.404303 0.751196 -0.354774
v 0.511840 0.661430 -0.528440
v 0.441183 0.302279 -0.494235
v 0.281645 -0.005925 -0.512999
v 0.048104 -0.082766 -0.266299
v -0.021491 0.135453 -0.016183
v -0.049814 0.492343 0.076366
v 0.101043 0.741615 0.031638
v 0.159932 0.324625 -0.279312
vt 0.856734 0.837950
vt 0.839328 0.857692
vt 0.822545 0.838762
vt 0.847466 0.831448
vt 0.823563 0.884796
vt 0.838820 0.892540
vt 0.823054 0.904586
vt 0.812155 0.899317
vt 0.862723 0.868447
vt 0.856111 0.892970
vt 0.830683 0.874901
vt 0.804745 0.877912
vt 0.798133 0.892540
vt 0.804745 0.858552
vt 0.868317 0.846076
vn 0.9154 -0.2410 0.3223
vn 0.3579 -0.4716 0.8059
vn 0.5911 -0.0211 0.8063
vn 0.9004 -0.3685 0.2313
vn 0.5076 -0.4734 0.7199
vn 0.8624 -0.3837 0.3301
vn 0.4819 -0.3805 0.7893
vn 0.8534 -0.0356 0.5200
usemtl Material.001
s off
f 19/16/9 30/17/9 27/18/9 26/19/9
f 17/20/10 22/21/10 21/22/10 18/23/10
f 24/24/11 23/25/11 16/26/11 30/17/11
f 29/27/12 17/20/12 18/23/12 20/28/12
f 16/26/13 23/25/13 22/21/13 17/20/13
f 28/29/14 16/26/14 17/20/14 29/27/14
f 30/17/15 19/16/15 25/30/15 24/24/15
f 27/18/16 30/17/16 16/26/16 28/29/16
