# Blender v2.93.3 OBJ File: 'molduras1.blend'
# www.blender.org
mtllib moldura1esquina.mtl
o Plane.013_Plane.027
v 4.109128 -0.002152 0.173997
v 4.109128 1.909359 0.173997
v 4.044611 -0.002152 0.173997
v 4.044611 1.909359 0.173997
v 4.109128 1.909359 -0.013624
v 4.109128 -0.002152 -0.013624
v 4.044611 -0.002152 -0.013624
v 4.044611 1.909359 -0.013624
v 4.044611 1.909359 0.064534
v 4.109128 1.909359 0.064534
v 4.109128 -0.002152 0.064534
v 4.044611 -0.002152 0.064534
v 6.079455 -0.002152 0.173996
v 6.079455 1.909359 0.173996
v 0.169339 -0.002152 0.173997
v 0.169339 1.909359 0.173997
v 8.049797 1.908914 0.171488
v 8.049797 -0.002597 0.171488
v 8.114314 1.908914 0.171488
v 8.114313 -0.002597 0.171488
v 8.049797 -0.002597 -0.016132
v 8.049797 1.908914 -0.016132
v 8.114314 1.908914 -0.016132
v 8.114313 -0.002597 -0.016132
v 8.114313 -0.002597 0.062025
v 8.049797 -0.002597 0.062025
v 8.049797 1.908914 0.062025
v 8.114314 1.908914 0.062025
v 11.989586 1.908913 0.171489
v 11.989586 -0.002598 0.171489
vt 0.791654 0.435049
vt 0.919356 0.435050
vt 0.919356 0.565137
vt 0.791654 0.565137
vt 0.791654 0.577671
vt 0.919356 0.577671
vt 0.919356 0.581931
vt 0.791654 0.581931
vt 0.791654 0.572450
vt 0.919356 0.572450
vt 0.919356 0.587152
vt 0.791654 0.587152
vt 0.919356 0.594465
vt 0.791654 0.594465
vt 0.919356 0.850323
vt 0.791654 0.850323
vt 0.791654 0.435049
vt 0.919356 0.435050
vt 0.919356 0.565137
vt 0.791654 0.565137
vt 0.791654 0.577671
vt 0.919356 0.577671
vt 0.919356 0.581931
vt 0.791654 0.581931
vt 0.791654 0.572450
vt 0.919356 0.572450
vt 0.919356 0.587152
vt 0.791654 0.587152
vt 0.919356 0.594465
vt 0.791654 0.594465
vt 0.919356 0.850323
vt 0.791654 0.850323
vn 0.0006 0.0000 1.0000
vn -0.7071 0.0000 0.7071
vn 0.7071 0.0000 0.7071
vn -1.0000 0.0000 0.0000
vn 1.0000 0.0000 0.0000
vn 0.0000 0.0000 1.0000
vn 0.7076 0.0000 0.7066
vn 0.7075 0.0000 0.7067
usemtl None
s 1
f 13/1/1 14/2/1 2/3/2 1/4/2
f 6/5/2 5/6/2 8/7/3 7/8/3
f 11/9/4 10/10/4 5/6/2 6/5/2
f 9/11/5 12/12/5 7/8/3 8/7/3
f 4/13/3 3/14/3 12/12/5 9/11/5
f 1/4/2 2/3/2 10/10/4 11/9/4
f 3/14/3 4/13/3 16/15/6 15/16/6
f 14/17/1 13/18/1 18/19/7 17/20/8
f 22/21/3 21/22/3 24/23/2 23/24/2
f 27/25/5 26/26/5 21/22/3 22/21/3
f 25/27/4 28/28/4 23/24/2 24/23/2
f 20/29/2 19/30/2 28/28/4 25/27/4
f 17/20/8 18/19/7 26/26/5 27/25/5
f 19/30/2 20/29/2 30/31/6 29/32/6
o Plane.014_Plane.028
v 4.109142 1.908915 0.171489
v 4.109142 1.908915 -0.108650
v 4.044625 1.908915 0.171489
v 4.044625 1.908915 -0.108650
v 6.079469 1.908915 0.171489
v 6.079469 1.908914 -0.108650
v 0.169537 1.908915 0.171489
v -0.109261 1.908915 -0.108650
v 8.049783 1.908913 0.168981
v 8.049783 1.908913 -0.111158
v 8.114300 1.908913 0.168981
v 8.114300 1.908913 -0.111158
v 6.079455 1.908913 0.168981
v 6.079455 1.908914 -0.111158
v 11.989900 1.908912 0.168981
v 11.989586 1.908912 -0.111158
vt 0.997651 0.452661
vt 0.978979 0.452661
vt 0.978979 0.322874
vt 0.997651 0.322874
vt 0.997651 0.293614
vt 0.978979 0.293614
vt 0.978979 0.038359
vt 0.997651 0.038359
vt 0.997651 0.452661
vt 0.978979 0.452661
vt 0.978979 0.322874
vt 0.997651 0.322874
vt 0.997651 0.293614
vt 0.978979 0.293614
vt 0.978979 0.038326
vt 0.997651 0.038326
vn 0.0000 1.0000 0.0000
vn 0.0000 -1.0000 0.0000
usemtl None
s 1
f 35/33/9 36/34/9 32/35/9 31/36/9
f 33/37/9 34/38/9 38/39/9 37/40/9
f 43/41/10 44/42/10 40/43/10 39/44/10
f 41/45/10 42/46/10 46/47/10 45/48/10
o Plane.015_Plane.029
v 4.109142 -0.002151 0.171489
v 4.109142 -0.002151 -0.108650
v 4.044625 -0.002151 0.171489
v 4.044625 -0.002151 -0.108650
v 6.079469 -0.002151 0.171489
v 6.079469 -0.002152 -0.108650
v 0.169026 -0.002151 0.171489
v -0.109261 -0.002151 -0.108650
v 8.049783 -0.002153 0.168981
v 8.049783 -0.002153 -0.111158
v 8.114300 -0.002153 0.168981
v 8.114300 -0.002153 -0.111158
v 6.079455 -0.002153 0.168981
v 6.079455 -0.002152 -0.111158
v 11.989387 -0.002154 0.168981
v 11.989586 -0.002154 -0.111158
vt 0.997651 0.452661
vt 0.978979 0.452661
vt 0.978979 0.322874
vt 0.997651 0.322874
vt 0.997651 0.293614
vt 0.978979 0.293614
vt 0.978979 0.038326
vt 0.997651 0.038326
vt 0.997651 0.452661
vt 0.978979 0.452661
vt 0.978979 0.322874
vt 0.997651 0.322874
vt 0.997651 0.293614
vt 0.978979 0.293614
vt 0.978979 0.038359
vt 0.997651 0.038359
vn 0.0000 1.0000 0.0000
vn 0.0000 -1.0000 0.0000
usemtl None
s 1
f 51/49/11 52/50/11 48/51/11 47/52/11
f 49/53/11 50/54/11 54/55/11 53/56/11
f 59/57/12 60/58/12 56/59/12 55/60/12
f 57/61/12 58/62/12 62/63/12 61/64/12
