# Blender v2.93.3 OBJ File: 'molduras1.blend'
# www.blender.org
mtllib moldura2.mtl
o Plane.003_Plane.018
v 0.002329 0.000000 0.071182
v 0.570074 0.000000 0.071182
v 0.853947 0.000000 0.071182
v 1.421693 0.000000 0.071182
v 1.705566 0.000000 0.071182
v 2.273313 0.000000 0.071182
v 2.557186 0.000000 0.071182
v 3.124932 0.000000 0.071182
v 3.408805 0.000000 0.071182
v 3.976551 0.000000 0.071182
v 4.260424 0.000000 0.071182
v 4.260427 0.573290 0.071182
v 3.976553 0.573290 0.071182
v 3.408808 0.573290 0.071182
v 3.124934 0.573290 0.071182
v 2.557188 0.573290 0.071182
v 2.273314 0.573290 0.071182
v 1.705568 0.573290 0.071182
v 1.421695 0.573290 0.071182
v 0.853948 0.573290 0.071182
v 0.570075 0.573290 0.071182
v 0.002328 0.573290 0.071182
v 4.260427 0.100069 0.071181
v 3.976553 0.100069 0.071182
v 3.408807 0.100069 0.071182
v 3.124934 0.100069 0.071182
v 2.557187 0.100069 0.071182
v 2.273314 0.100069 0.071182
v 1.705568 0.100069 0.071182
v 1.421694 0.100069 0.071182
v 0.853948 0.100069 0.071182
v 0.570074 0.100069 0.071182
v 0.002328 0.100069 0.071182
v 4.260427 0.473221 0.071182
v 3.976553 0.473221 0.071182
v 3.408807 0.473221 0.071182
v 3.124934 0.473221 0.071182
v 2.557187 0.473221 0.071182
v 2.273314 0.473221 0.071182
v 1.705568 0.473221 0.071182
v 1.421694 0.473221 0.071182
v 0.853948 0.473221 0.071182
v 0.570074 0.473221 0.071182
v 0.002328 0.473221 0.071182
v 0.002328 0.017028 0.110586
v 0.570074 0.017028 0.110586
v 0.853947 0.017028 0.110586
v 1.421693 0.017028 0.110586
v 1.705566 0.017028 0.110586
v 2.273313 0.017028 0.110586
v 2.557186 0.017028 0.110586
v 3.124932 0.017028 0.110586
v 3.408805 0.017028 0.110586
v 3.976551 0.017028 0.110586
v 4.260424 0.017028 0.110586
v 4.260427 0.560184 0.110586
v 3.976554 0.560184 0.110586
v 3.408808 0.560184 0.110586
v 3.124934 0.560184 0.110586
v 2.557188 0.560184 0.110586
v 2.273314 0.560184 0.110586
v 1.705568 0.560184 0.110586
v 1.421695 0.560184 0.110586
v 0.853948 0.560184 0.110586
v 0.570075 0.560184 0.110586
v 0.002328 0.560184 0.110586
v 4.260427 0.083041 0.110586
v 3.976553 0.083041 0.110586
v 3.408807 0.083041 0.110586
v 3.124934 0.083041 0.110586
v 2.557187 0.083041 0.110586
v 2.273314 0.083041 0.110586
v 1.705567 0.083041 0.110586
v 1.421694 0.083041 0.110586
v 0.853948 0.083041 0.110586
v 0.570074 0.083041 0.110586
v 0.002328 0.083041 0.110586
v 4.260427 0.486327 0.110586
v 3.976553 0.486327 0.110586
v 3.408807 0.486327 0.110586
v 3.124934 0.486327 0.110586
v 2.557187 0.486327 0.110586
v 2.273314 0.486327 0.110586
v 1.705567 0.486327 0.110586
v 1.421694 0.486327 0.110586
v 0.853948 0.486327 0.110586
v 0.570074 0.486327 0.110586
v 0.002328 0.486327 0.110586
v 0.821700 0.142459 0.103594
v 0.602322 0.142459 0.103594
v 0.821700 0.430831 0.103594
v 0.602322 0.430831 0.103594
v 1.667176 0.150535 0.103594
v 1.460086 0.150535 0.103594
v 1.667176 0.422755 0.103594
v 1.460086 0.422755 0.103594
v 2.523980 0.143720 0.103594
v 2.306521 0.143720 0.103594
v 2.523980 0.429570 0.103594
v 2.306521 0.429570 0.103594
v 3.376588 0.142421 0.103593
v 3.157153 0.142421 0.103593
v 3.376588 0.430869 0.103593
v 3.157153 0.430869 0.103594
v 4.217659 0.156287 0.103593
v 4.019321 0.156287 0.103593
v 4.217659 0.417003 0.103593
v 4.019321 0.417003 0.103593
v 4.827903 0.000000 0.071181
v 5.111777 0.000000 0.071181
v 5.679523 0.000000 0.071181
v 5.963395 0.000000 0.071181
v 6.531142 0.000000 0.071181
v 6.815015 0.000000 0.071181
v 7.382761 0.000000 0.071181
v 7.666634 0.000000 0.071181
v 8.234380 0.000000 0.071181
v 11.640859 0.100070 0.071181
v 8.518255 0.573291 0.071181
v 8.234382 0.573291 0.071181
v 7.666636 0.573291 0.071181
v 7.382763 0.573291 0.071181
v 6.815017 0.573290 0.071181
v 6.531144 0.573290 0.071181
v 5.963398 0.573290 0.071181
v 5.679523 0.573290 0.071181
v 5.111777 0.573290 0.071181
v 4.827905 0.573290 0.071181
v 8.518255 0.100070 0.071181
v 8.234382 0.100070 0.071181
v 7.666636 0.100070 0.071181
v 7.382763 0.100070 0.071181
v 6.815016 0.100070 0.071181
v 6.531143 0.100070 0.071181
v 5.963396 0.100070 0.071181
v 5.679523 0.100070 0.071181
v 5.111777 0.100069 0.071181
v 4.827904 0.100069 0.071181
v 8.518255 0.473222 0.071181
v 8.234382 0.473222 0.071181
v 7.666636 0.473221 0.071181
v 7.382763 0.473221 0.071181
v 6.815016 0.473221 0.071181
v 6.531143 0.473221 0.071181
v 5.963396 0.473221 0.071181
v 5.679523 0.473221 0.071181
v 5.111777 0.473221 0.071181
v 4.827904 0.473221 0.071181
v 4.827903 0.017028 0.110586
v 5.111777 0.017028 0.110586
v 5.679523 0.017028 0.110586
v 5.963395 0.017028 0.110586
v 6.531142 0.017028 0.110586
v 6.815015 0.017028 0.110586
v 7.382761 0.017028 0.110585
v 7.666634 0.017028 0.110585
v 8.234380 0.017028 0.110585
v 11.924732 0.100070 0.071181
v 8.518255 0.560184 0.110585
v 8.234382 0.560184 0.110585
v 7.666637 0.560184 0.110585
v 7.382763 0.560184 0.110585
v 6.815017 0.560184 0.110586
v 6.531144 0.560184 0.110586
v 5.963397 0.560184 0.110586
v 5.679523 0.560184 0.110586
v 5.111777 0.560184 0.110586
v 4.827904 0.560184 0.110586
v 8.518255 0.083041 0.110585
v 8.234382 0.083041 0.110585
v 7.666636 0.083041 0.110585
v 7.382763 0.083041 0.110585
v 6.815016 0.083041 0.110586
v 6.531143 0.083041 0.110586
v 5.963396 0.083041 0.110586
v 5.679523 0.083041 0.110586
v 5.111777 0.083041 0.110586
v 4.827903 0.083041 0.110586
v 8.518255 0.486327 0.110585
v 8.234382 0.486327 0.110585
v 7.666636 0.486327 0.110585
v 7.382763 0.486327 0.110585
v 6.815016 0.486327 0.110586
v 6.531143 0.486327 0.110586
v 5.963396 0.486327 0.110586
v 5.679523 0.486327 0.110586
v 5.111777 0.486327 0.110586
v 4.827903 0.486327 0.110586
v 5.079529 0.142459 0.103593
v 4.860151 0.142459 0.103593
v 5.079529 0.430832 0.103593
v 4.860151 0.430832 0.103593
v 5.925005 0.150535 0.103593
v 5.717915 0.150535 0.103593
v 5.925005 0.422756 0.103593
v 5.717915 0.422756 0.103593
v 6.781809 0.143720 0.103593
v 6.564351 0.143720 0.103593
v 6.781809 0.429571 0.103593
v 6.564351 0.429571 0.103593
v 7.634417 0.142422 0.103593
v 7.414981 0.142421 0.103593
v 7.634417 0.430869 0.103593
v 7.414981 0.430869 0.103593
v 8.475488 0.156287 0.103593
v 8.277149 0.156287 0.103593
v 8.475488 0.417004 0.103593
v 8.277149 0.417004 0.103593
v 8.518254 0.000000 0.071181
v 9.086000 0.000001 0.071181
v 9.369873 0.000001 0.071181
v 9.937617 0.000001 0.071181
v 10.221491 0.000001 0.071181
v 10.789237 0.000001 0.071181
v 11.073111 0.000001 0.071181
v 10.789241 0.573291 0.071181
v 10.221493 0.573291 0.071181
v 9.937620 0.573291 0.071181
v 9.369876 0.573291 0.071181
v 9.086002 0.573291 0.071181
v 11.073112 0.573291 0.071181
v 11.073112 0.100070 0.071181
v 10.789240 0.100070 0.071181
v 10.221493 0.100070 0.071181
v 9.937620 0.100070 0.071181
v 9.369876 0.100070 0.071181
v 9.086002 0.100070 0.071181
v 11.640862 0.573291 0.071181
v 11.073112 0.473222 0.071181
v 10.789240 0.473222 0.071181
v 10.221493 0.473222 0.071181
v 9.937620 0.473222 0.071181
v 9.369876 0.473222 0.071181
v 9.086002 0.473222 0.071181
v 11.924732 0.573291 0.071181
v 8.518254 0.017028 0.110585
v 9.086000 0.017028 0.110585
v 9.369873 0.017029 0.110585
v 9.937617 0.017029 0.110585
v 10.221491 0.017029 0.110585
v 10.789237 0.017029 0.110585
v 11.073111 0.017029 0.110585
v 10.789241 0.560184 0.110585
v 10.221493 0.560184 0.110585
v 9.937620 0.560184 0.110585
v 9.369876 0.560184 0.110585
v 9.086002 0.560184 0.110585
v 11.924730 0.000001 0.071181
v 10.789241 0.083041 0.110585
v 10.221493 0.083041 0.110585
v 9.937620 0.083041 0.110585
v 9.369876 0.083041 0.110585
v 9.086002 0.083041 0.110585
v 11.640857 0.000001 0.071181
v 11.073112 0.486328 0.110585
v 10.789241 0.486328 0.110585
v 10.221493 0.486328 0.110585
v 9.937620 0.486328 0.110585
v 9.369876 0.486327 0.110585
v 9.086002 0.486327 0.110585
v 9.336668 0.143720 0.103593
v 9.119208 0.143720 0.103593
v 9.336668 0.429571 0.103593
v 9.119208 0.429571 0.103593
v 10.189275 0.142422 0.103593
v 9.969840 0.142422 0.103593
v 10.189275 0.430870 0.103593
v 9.969840 0.430870 0.103593
v 11.030347 0.156288 0.103593
v 10.832007 0.156288 0.103593
v 11.030347 0.417004 0.103593
v 10.832007 0.417004 0.103593
v 11.924732 0.473222 0.071181
v 11.640859 0.473222 0.071181
v 11.640857 0.017029 0.110585
v 11.924730 0.017029 0.110585
v 11.924732 0.560184 0.110585
v 11.640862 0.560184 0.110585
v 11.073112 0.560184 0.110585
v 11.924732 0.083041 0.110585
v 11.640862 0.083041 0.110585
v 11.073112 0.083041 0.110585
v 11.924732 0.486328 0.110585
v 11.640862 0.486328 0.110585
v 11.881967 0.156288 0.103593
v 11.683626 0.156288 0.103593
v 11.881967 0.417004 0.103593
v 11.683626 0.417004 0.103593
vt 0.962808 0.298577
vt 0.935739 0.298649
vt 0.935842 0.256389
vt 0.962902 0.256338
vt 0.958328 0.302406
vt 0.940425 0.302300
vt 0.962852 0.235029
vt 0.935689 0.235063
vt 0.935839 0.192918
vt 0.962992 0.192887
vt 0.958917 0.238349
vt 0.939568 0.238133
vt 0.962851 0.171578
vt 0.935795 0.171627
vt 0.935910 0.129318
vt 0.962969 0.129256
vt 0.939843 0.189552
vt 0.959044 0.189764
vt 0.962924 0.108046
vt 0.935786 0.108092
vt 0.935827 0.065990
vt 0.963014 0.065914
vt 0.940040 0.125728
vt 0.958866 0.125875
vt 0.962788 0.044568
vt 0.935701 0.044696
vt 0.935536 0.002876
vt 0.962570 0.002427
vt 0.939750 0.062662
vt 0.959117 0.062843
vt 0.965758 0.002406
vt 0.965988 0.044568
vt 0.974047 0.298585
vt 0.974091 0.319685
vt 0.970908 0.319689
vt 0.970853 0.298584
vt 0.966152 0.065896
vt 0.974174 0.256328
vt 0.970969 0.256327
vt 0.966059 0.108058
vt 0.974133 0.235059
vt 0.970929 0.235057
vt 0.966122 0.129253
vt 0.974250 0.192856
vt 0.971048 0.192861
vt 0.966006 0.171588
vt 0.974162 0.171584
vt 0.970952 0.171588
vt 0.966129 0.192876
vt 0.974244 0.129247
vt 0.971042 0.129249
vt 0.965996 0.235048
vt 0.974180 0.108059
vt 0.970982 0.108059
vt 0.966045 0.256332
vt 0.974281 0.065860
vt 0.971075 0.065870
vt 0.965936 0.298584
vt 0.974131 0.044525
vt 0.970924 0.044544
vt 0.962877 0.319706
vt 0.966017 0.319698
vt 0.973851 0.002349
vt 0.970662 0.002370
vt 0.932687 0.298653
vt 0.927190 0.298666
vt 0.927252 0.256379
vt 0.932785 0.256378
vt 0.932764 0.319829
vt 0.927268 0.319839
vt 0.932656 0.235075
vt 0.927153 0.235094
vt 0.927283 0.192891
vt 0.932802 0.192899
vt 0.932751 0.171632
vt 0.927241 0.171637
vt 0.927352 0.129315
vt 0.932874 0.129312
vt 0.932746 0.108105
vt 0.927256 0.108125
vt 0.927269 0.065976
vt 0.932779 0.065976
vt 0.932676 0.044718
vt 0.927196 0.044747
vt 0.927153 0.002882
vt 0.932599 0.002881
vt 0.935850 0.319830
vt 0.924181 0.319847
vt 0.924095 0.298671
vt 0.924147 0.256384
vt 0.924053 0.235098
vt 0.924184 0.192888
vt 0.924139 0.171637
vt 0.924254 0.129318
vt 0.924165 0.108132
vt 0.924175 0.065979
vt 0.924113 0.044755
vt 0.924090 0.002884
vt 0.939324 0.047721
vt 0.959143 0.047847
vt 0.940124 0.111495
vt 0.958544 0.111677
vt 0.939483 0.174713
vt 0.959127 0.174892
vt 0.959291 0.253307
vt 0.939490 0.253125
vt 0.958212 0.316068
vt 0.940328 0.315988
vt 0.962659 0.612552
vt 0.935966 0.612591
vt 0.936125 0.570935
vt 0.962795 0.570902
vt 0.958233 0.616325
vt 0.940568 0.616194
vt 0.962761 0.549899
vt 0.935989 0.549914
vt 0.936160 0.508379
vt 0.962927 0.508364
vt 0.958880 0.553169
vt 0.939811 0.552943
vt 0.962804 0.487359
vt 0.936118 0.487390
vt 0.936174 0.445735
vt 0.962953 0.445667
vt 0.940107 0.505063
vt 0.959037 0.505283
vt 0.962838 0.424696
vt 0.936091 0.424773
vt 0.936036 0.382934
vt 0.962909 0.382830
vt 0.940493 0.442147
vt 0.958672 0.442311
vt 0.962833 0.361650
vt 0.935845 0.361792
vt 0.939657 0.379682
vt 0.959319 0.379822
vt 0.965978 0.361664
vt 0.973750 0.612566
vt 0.973798 0.633400
vt 0.970650 0.633405
vt 0.970599 0.612563
vt 0.966030 0.382822
vt 0.973907 0.570900
vt 0.970748 0.570898
vt 0.965940 0.424701
vt 0.973880 0.549936
vt 0.970721 0.549932
vt 0.966060 0.445660
vt 0.974023 0.508342
vt 0.970866 0.508344
vt 0.965913 0.487372
vt 0.973952 0.487376
vt 0.970788 0.487376
vt 0.966019 0.508355
vt 0.974075 0.445648
vt 0.970914 0.445650
vt 0.965859 0.549920
vt 0.973990 0.424695
vt 0.970821 0.424698
vt 0.965893 0.570899
vt 0.974100 0.382814
vt 0.970919 0.382814
vt 0.965746 0.612561
vt 0.974069 0.361667
vt 0.970883 0.361667
vt 0.962707 0.633419
vt 0.965812 0.633413
vt 0.932960 0.612589
vt 0.927545 0.612590
vt 0.927659 0.570918
vt 0.933112 0.570922
vt 0.933004 0.633448
vt 0.927574 0.633441
vt 0.933000 0.549924
vt 0.927577 0.549938
vt 0.927729 0.508349
vt 0.933167 0.508359
vt 0.933118 0.487398
vt 0.927689 0.487407
vt 0.927735 0.445735
vt 0.933176 0.445727
vt 0.933077 0.424784
vt 0.927638 0.424803
vt 0.927588 0.382973
vt 0.933072 0.382943
vt 0.932812 0.361830
vt 0.927348 0.361875
vt 0.935991 0.633460
vt 0.924525 0.633437
vt 0.924496 0.612588
vt 0.924600 0.570918
vt 0.924523 0.549940
vt 0.924676 0.508346
vt 0.924634 0.487409
vt 0.924679 0.445741
vt 0.924578 0.424813
vt 0.924513 0.382993
vt 0.924268 0.361897
vt 0.939702 0.364828
vt 0.958920 0.364966
vt 0.940154 0.428113
vt 0.958756 0.428246
vt 0.939754 0.490436
vt 0.959129 0.490624
vt 0.959238 0.567912
vt 0.939723 0.567720
vt 0.958099 0.629814
vt 0.940423 0.629684
vt 0.962770 0.800710
vt 0.935841 0.800852
vt 0.935895 0.759115
vt 0.962793 0.759031
vt 0.958311 0.804545
vt 0.940288 0.804463
vt 0.962587 0.737967
vt 0.935838 0.738012
vt 0.935981 0.696097
vt 0.962713 0.696046
vt 0.958989 0.741189
vt 0.939414 0.741010
vt 0.962654 0.674990
vt 0.935835 0.675054
vt 0.939659 0.692824
vt 0.959066 0.692997
vt 0.973948 0.800668
vt 0.974135 0.821703
vt 0.970955 0.821722
vt 0.970780 0.800684
vt 0.973876 0.758967
vt 0.970712 0.758980
vt 0.973763 0.737964
vt 0.970588 0.737968
vt 0.973880 0.696034
vt 0.970706 0.696036
vt 0.965775 0.675004
vt 0.973808 0.675000
vt 0.970644 0.675004
vt 0.965829 0.696042
vt 0.965696 0.737973
vt 0.965851 0.759007
vt 0.965901 0.800701
vt 0.962937 0.821783
vt 0.966072 0.821754
vt 0.932815 0.800861
vt 0.927368 0.800871
vt 0.927401 0.759094
vt 0.932866 0.759098
vt 0.932885 0.821886
vt 0.927415 0.821891
vt 0.932823 0.738015
vt 0.927361 0.738018
vt 0.927503 0.696088
vt 0.932976 0.696088
vt 0.932840 0.675064
vt 0.927410 0.675075
vt 0.935919 0.821891
vt 0.924341 0.821894
vt 0.924303 0.800874
vt 0.924331 0.759095
vt 0.924287 0.738017
vt 0.924431 0.696089
vt 0.924351 0.675077
vt 0.939734 0.678134
vt 0.958697 0.678322
vt 0.958949 0.755998
vt 0.939793 0.755820
vt 0.958265 0.818155
vt 0.940604 0.818032
vt 0.962996 0.863774
vt 0.935922 0.863830
vt 0.958450 0.867626
vt 0.940444 0.867481
vt 0.974268 0.863764
vt 0.974281 0.884902
vt 0.971085 0.884904
vt 0.971080 0.863769
vt 0.966180 0.863774
vt 0.962972 0.884909
vt 0.966170 0.884909
vt 0.932857 0.863848
vt 0.927404 0.863876
vt 0.933102 0.884835
vt 0.927626 0.884899
vt 0.936177 0.884802
vt 0.924548 0.884931
vt 0.924330 0.863892
vt 0.958311 0.881211
vt 0.940796 0.880996
vn -0.0935 0.4854 0.8693
vn -0.0968 -0.5232 0.8467
vn 0.1257 -0.5075 0.8524
vn 0.1212 0.4691 0.8748
vn -0.2554 -0.1911 0.9477
vn -0.2554 0.1911 0.9477
vn -0.1212 0.4691 0.8748
vn -0.1257 -0.5075 0.8524
vn 0.1224 -0.5092 0.8519
vn 0.1180 0.4709 0.8742
vn -0.3095 -0.2419 0.9196
vn -0.3095 0.2419 0.9196
vn -0.1180 0.4709 0.8742
vn -0.1224 -0.5092 0.8519
vn 0.1071 -0.5174 0.8490
vn 0.1034 0.4794 0.8715
vn 0.3037 0.2362 0.9230
vn 0.3037 -0.2362 0.9230
vn -0.1034 0.4794 0.8715
vn -0.1071 -0.5174 0.8490
vn 0.1256 -0.5075 0.8524
vn 0.1211 0.4692 0.8748
vn 0.2758 0.2097 0.9380
vn 0.2758 -0.2097 0.9380
vn -0.1211 0.4692 0.8748
vn -0.1256 -0.5075 0.8524
vn 0.0000 -0.5849 0.8110
vn 0.0000 0.5492 0.8357
vn 0.3094 0.2417 0.9197
vn 0.3094 -0.2417 0.9197
vn 0.0000 -0.9179 0.3967
vn 0.0000 -0.5492 0.8357
vn 0.0000 -0.9179 0.3966
vn 0.0935 0.4854 0.8693
vn 0.0000 0.5849 0.8110
vn 0.0968 -0.5232 0.8467
vn 0.0000 0.9489 0.3156
vn -0.3094 0.2417 0.9197
vn -0.3094 -0.2417 0.9197
vn -0.2758 0.2097 0.9380
vn -0.2758 -0.2097 0.9380
vn -0.3037 0.2362 0.9230
vn -0.3037 -0.2362 0.9230
vn 0.3095 -0.2419 0.9196
vn 0.3095 0.2419 0.9196
vn 0.2554 -0.1911 0.9477
vn 0.2554 0.1911 0.9477
vn 0.1969 0.4057 0.8925
vn 0.2050 -0.4439 0.8723
usemtl None
s 1
f 24/1/1 35/2/2 36/3/3 25/4/4
f 35/2/2 24/1/1 106/5/5 108/6/6
f 26/7/7 37/8/8 38/9/9 27/10/10
f 37/8/8 26/7/7 102/11/11 104/12/12
f 28/13/13 39/14/14 40/15/15 29/16/16
f 27/10/10 38/9/9 99/17/17 97/18/18
f 30/19/19 41/20/20 42/21/21 31/22/22
f 29/16/16 40/15/15 95/23/23 93/24/24
f 32/25/25 43/26/26 44/27/27 33/28/28
f 31/22/22 42/21/21 91/29/29 89/30/30
f 32/25/25 33/28/28 77/31/28 76/32/28
f 10/33/31 11/34/31 55/35/32 54/36/32
f 31/22/22 32/25/25 76/32/28 75/37/28
f 9/38/33 10/33/31 54/36/32 53/39/32
f 30/19/19 31/22/22 75/37/28 74/40/28
f 8/41/33 9/38/33 53/39/32 52/42/32
f 29/16/16 30/19/19 74/40/28 73/43/28
f 7/44/33 8/41/33 52/42/32 51/45/32
f 28/13/13 29/16/16 73/43/28 72/46/28
f 6/47/33 7/44/33 51/45/32 50/48/32
f 27/10/10 28/13/13 72/46/28 71/49/28
f 5/50/33 6/47/33 50/48/32 49/51/32
f 26/7/7 27/10/10 71/49/28 70/52/28
f 4/53/31 5/50/33 49/51/32 48/54/32
f 25/4/4 26/7/7 70/52/28 69/55/28
f 3/56/31 4/53/31 48/54/32 47/57/32
f 24/1/1 25/4/4 69/55/28 68/58/28
f 2/59/33 3/56/31 47/57/32 46/60/32
f 23/61/34 24/1/1 68/58/28 67/62/28
f 1/63/33 2/59/33 46/60/32 45/64/32
f 54/36/32 68/58/28 69/55/28 53/39/32
f 55/35/32 67/62/28 68/58/28 54/36/32
f 52/42/32 70/52/28 71/49/28 51/45/32
f 53/39/32 69/55/28 70/52/28 52/42/32
f 50/48/32 72/46/28 73/43/28 49/51/32
f 51/45/32 71/49/28 72/46/28 50/48/32
f 48/54/32 74/40/28 75/37/28 47/57/32
f 49/51/32 73/43/28 74/40/28 48/54/32
f 46/60/32 76/32/28 77/31/28 45/64/32
f 47/57/32 75/37/28 76/32/28 46/60/32
f 79/65/27 57/66/35 58/67/35 80/68/27
f 78/69/27 56/70/35 57/66/35 79/65/27
f 81/71/27 59/72/35 60/73/35 82/74/27
f 80/68/27 58/67/35 59/72/35 81/71/27
f 83/75/27 61/76/35 62/77/35 84/78/27
f 82/74/27 60/73/35 61/76/35 83/75/27
f 85/79/27 63/80/35 64/81/35 86/82/27
f 84/78/27 62/77/35 63/80/35 85/79/27
f 87/83/27 65/84/35 66/85/35 88/86/27
f 86/82/27 64/81/35 65/84/35 87/83/27
f 35/2/2 34/87/36 78/69/27 79/65/27
f 12/88/37 13/89/37 57/66/35 56/70/35
f 36/3/3 35/2/2 79/65/27 80/68/27
f 13/89/37 14/90/37 58/67/35 57/66/35
f 37/8/8 36/3/3 80/68/27 81/71/27
f 14/90/37 15/91/37 59/72/35 58/67/35
f 38/9/9 37/8/8 81/71/27 82/74/27
f 15/91/37 16/92/37 60/73/35 59/72/35
f 39/14/14 38/9/9 82/74/27 83/75/27
f 16/92/37 17/93/37 61/76/35 60/73/35
f 40/15/15 39/14/14 83/75/27 84/78/27
f 17/93/37 18/94/37 62/77/35 61/76/35
f 41/20/20 40/15/15 84/78/27 85/79/27
f 18/94/37 19/95/37 63/80/35 62/77/35
f 42/21/21 41/20/20 85/79/27 86/82/27
f 19/95/37 20/96/37 64/81/35 63/80/35
f 43/26/26 42/21/21 86/82/27 87/83/27
f 20/96/37 21/97/37 65/84/35 64/81/35
f 44/27/27 43/26/26 87/83/27 88/86/27
f 21/97/37 22/98/37 66/85/35 65/84/35
f 89/30/30 91/29/29 92/99/38 90/100/39
f 42/21/21 43/26/26 92/99/38 91/29/29
f 32/25/25 31/22/22 89/30/30 90/100/39
f 43/26/26 32/25/25 90/100/39 92/99/38
f 93/24/24 95/23/23 96/101/40 94/102/41
f 40/15/15 41/20/20 96/101/40 95/23/23
f 30/19/19 29/16/16 93/24/24 94/102/41
f 41/20/20 30/19/19 94/102/41 96/101/40
f 97/18/18 99/17/17 100/103/42 98/104/43
f 38/9/9 39/14/14 100/103/42 99/17/17
f 28/13/13 27/10/10 97/18/18 98/104/43
f 39/14/14 28/13/13 98/104/43 100/103/42
f 101/105/44 103/106/45 104/12/12 102/11/11
f 25/4/4 36/3/3 103/106/45 101/105/44
f 36/3/3 37/8/8 104/12/12 103/106/45
f 26/7/7 25/4/4 101/105/44 102/11/11
f 105/107/46 107/108/47 108/6/6 106/5/5
f 23/61/34 34/87/36 107/108/47 105/107/46
f 34/87/36 35/2/2 108/6/6 107/108/47
f 24/1/1 23/61/34 105/107/46 106/5/5
f 130/109/1 140/110/2 141/111/3 131/112/4
f 140/110/2 130/109/1 206/113/5 208/114/6
f 132/115/7 142/116/8 143/117/9 133/118/10
f 142/116/8 132/115/7 202/119/11 204/120/12
f 134/121/13 144/122/14 145/123/15 135/124/16
f 133/118/10 143/117/9 199/125/17 197/126/18
f 136/127/19 146/128/20 147/129/21 137/130/22
f 135/124/16 145/123/15 195/131/23 193/132/24
f 138/133/25 148/134/26 34/87/36 23/61/34
f 137/130/22 147/129/21 191/135/29 189/136/30
f 138/133/25 23/61/34 67/62/28 178/137/28
f 117/138/31 209/139/33 236/140/32 157/141/32
f 137/130/22 138/133/25 178/137/28 177/142/28
f 116/143/31 117/138/31 157/141/32 156/144/32
f 136/127/19 137/130/22 177/142/28 176/145/28
f 115/146/31 116/143/31 156/144/32 155/147/32
f 135/124/16 136/127/19 176/145/28 175/148/28
f 114/149/33 115/146/31 155/147/32 154/150/32
f 134/121/13 135/124/16 175/148/28 174/151/28
f 113/152/33 114/149/33 154/150/32 153/153/32
f 133/118/10 134/121/13 174/151/28 173/154/28
f 112/155/31 113/152/33 153/153/32 152/156/32
f 132/115/7 133/118/10 173/154/28 172/157/28
f 111/158/31 112/155/31 152/156/32 151/159/32
f 131/112/4 132/115/7 172/157/28 171/160/28
f 110/161/33 111/158/31 151/159/32 150/162/32
f 130/109/1 131/112/4 171/160/28 170/163/28
f 109/164/33 110/161/33 150/162/32 149/165/32
f 129/166/34 130/109/1 170/163/28 169/167/28
f 11/34/31 109/164/33 149/165/32 55/35/32
f 157/141/32 170/163/28 171/160/28 156/144/32
f 236/140/32 169/167/28 170/163/28 157/141/32
f 155/147/32 172/157/28 173/154/28 154/150/32
f 156/144/32 171/160/28 172/157/28 155/147/32
f 153/153/32 174/151/28 175/148/28 152/156/32
f 154/150/32 173/154/28 174/151/28 153/153/32
f 151/159/32 176/145/28 177/142/28 150/162/32
f 152/156/32 175/148/28 176/145/28 151/159/32
f 149/165/32 178/137/28 67/62/28 55/35/32
f 150/162/32 177/142/28 178/137/28 149/165/32
f 180/168/27 160/169/35 161/170/35 181/171/27
f 179/172/27 159/173/35 160/169/35 180/168/27
f 182/174/27 162/175/35 163/176/35 183/177/27
f 181/171/27 161/170/35 162/175/35 182/174/27
f 184/178/27 164/179/35 165/180/35 185/181/27
f 183/177/27 163/176/35 164/179/35 184/178/27
f 186/182/27 166/183/35 167/184/35 187/185/27
f 185/181/27 165/180/35 166/183/35 186/182/27
f 188/186/27 168/187/35 56/70/35 78/69/27
f 187/185/27 167/184/35 168/187/35 188/186/27
f 140/110/2 139/188/36 179/172/27 180/168/27
f 119/189/37 120/190/37 160/169/35 159/173/35
f 141/111/3 140/110/2 180/168/27 181/171/27
f 120/190/37 121/191/37 161/170/35 160/169/35
f 142/116/8 141/111/3 181/171/27 182/174/27
f 121/191/37 122/192/37 162/175/35 161/170/35
f 143/117/9 142/116/8 182/174/27 183/177/27
f 122/192/37 123/193/37 163/176/35 162/175/35
f 144/122/14 143/117/9 183/177/27 184/178/27
f 123/193/37 124/194/37 164/179/35 163/176/35
f 145/123/15 144/122/14 184/178/27 185/181/27
f 124/194/37 125/195/37 165/180/35 164/179/35
f 146/128/20 145/123/15 185/181/27 186/182/27
f 125/195/37 126/196/37 166/183/35 165/180/35
f 147/129/21 146/128/20 186/182/27 187/185/27
f 126/196/37 127/197/37 167/184/35 166/183/35
f 148/134/26 147/129/21 187/185/27 188/186/27
f 127/197/37 128/198/37 168/187/35 167/184/35
f 34/87/36 148/134/26 188/186/27 78/69/27
f 128/198/37 12/88/37 56/70/35 168/187/35
f 189/136/30 191/135/29 192/199/38 190/200/39
f 147/129/21 148/134/26 192/199/38 191/135/29
f 138/133/25 137/130/22 189/136/30 190/200/39
f 148/134/26 138/133/25 190/200/39 192/199/38
f 193/132/24 195/131/23 196/201/40 194/202/41
f 145/123/15 146/128/20 196/201/40 195/131/23
f 136/127/19 135/124/16 193/132/24 194/202/41
f 146/128/20 136/127/19 194/202/41 196/201/40
f 197/126/18 199/125/17 200/203/42 198/204/43
f 143/117/9 144/122/14 200/203/42 199/125/17
f 134/121/13 133/118/10 197/126/18 198/204/43
f 144/122/14 134/121/13 198/204/43 200/203/42
f 201/205/44 203/206/45 204/120/12 202/119/11
f 131/112/4 141/111/3 203/206/45 201/205/44
f 141/111/3 142/116/8 204/120/12 203/206/45
f 132/115/7 131/112/4 201/205/44 202/119/11
f 205/207/46 207/208/47 208/114/6 206/113/5
f 129/166/34 139/188/36 207/208/47 205/207/46
f 139/188/36 140/110/2 208/114/6 207/208/47
f 130/109/1 129/166/34 205/207/46 206/113/5
f 223/209/1 230/210/2 231/211/3 224/212/4
f 230/210/2 223/209/1 270/213/5 272/214/6
f 225/215/7 232/216/8 233/217/9 226/218/10
f 232/216/8 225/215/7 266/219/11 268/220/12
f 227/221/13 234/222/14 139/188/36 129/166/34
f 226/218/10 233/217/9 263/223/17 261/224/18
f 214/225/31 215/226/33 242/227/32 241/228/32
f 213/229/31 214/225/31 241/228/32 240/230/32
f 212/231/31 213/229/31 240/230/32 239/232/32
f 211/233/33 212/231/31 239/232/32 238/234/32
f 227/221/13 129/166/34 169/167/28 253/235/28
f 210/236/33 211/233/33 238/234/32 237/237/32
f 226/218/10 227/221/13 253/235/28 252/238/28
f 209/139/33 210/236/33 237/237/32 236/140/32
f 225/215/7 226/218/10 252/238/28 251/239/28
f 224/212/4 225/215/7 251/239/28 250/240/28
f 223/209/1 224/212/4 250/240/28 249/241/28
f 222/242/34 223/209/1 249/241/28 282/243/28
f 241/228/32 249/241/28 250/240/28 240/230/32
f 242/227/32 282/243/28 249/241/28 241/228/32
f 239/232/32 251/239/28 252/238/28 238/234/32
f 240/230/32 250/240/28 251/239/28 239/232/32
f 237/237/32 253/235/28 169/167/28 236/140/32
f 238/234/32 252/238/28 253/235/28 237/237/32
f 256/244/27 243/245/35 244/246/35 257/247/27
f 255/248/27 279/249/35 243/245/35 256/244/27
f 258/250/27 245/251/35 246/252/35 259/253/27
f 257/247/27 244/246/35 245/251/35 258/250/27
f 260/254/27 247/255/35 159/173/35 179/172/27
f 259/253/27 246/252/35 247/255/35 260/254/27
f 230/210/2 229/256/36 255/248/27 256/244/27
f 221/257/37 216/258/37 243/245/35 279/249/35
f 231/211/3 230/210/2 256/244/27 257/247/27
f 216/258/37 217/259/37 244/246/35 243/245/35
f 232/216/8 231/211/3 257/247/27 258/250/27
f 217/259/37 218/260/37 245/251/35 244/246/35
f 233/217/9 232/216/8 258/250/27 259/253/27
f 218/260/37 219/261/37 246/252/35 245/251/35
f 234/222/14 233/217/9 259/253/27 260/254/27
f 219/261/37 220/262/37 247/255/35 246/252/35
f 139/188/36 234/222/14 260/254/27 179/172/27
f 220/262/37 119/189/37 159/173/35 247/255/35
f 261/224/18 263/223/17 264/263/42 262/264/43
f 233/217/9 234/222/14 264/263/42 263/223/17
f 227/221/13 226/218/10 261/224/18 262/264/43
f 234/222/14 227/221/13 262/264/43 264/263/42
f 265/265/44 267/266/45 268/220/12 266/219/11
f 224/212/4 231/211/3 267/266/45 265/265/44
f 231/211/3 232/216/8 268/220/12 267/266/45
f 225/215/7 224/212/4 265/265/44 266/219/11
f 269/267/46 271/268/47 272/214/6 270/213/5
f 222/242/34 229/256/36 271/268/47 269/267/46
f 229/256/36 230/210/2 272/214/6 271/268/47
f 223/209/1 222/242/34 269/267/46 270/213/5
f 118/269/1 274/270/2 229/256/36 222/242/34
f 274/270/2 118/269/1 286/271/5 288/272/6
f 254/273/31 248/274/31 276/275/32 275/276/32
f 215/226/33 254/273/31 275/276/32 242/227/32
f 118/269/1 222/242/34 282/243/28 281/277/28
f 158/278/48 118/269/1 281/277/28 280/279/28
f 275/276/32 281/277/28 282/243/28 242/227/32
f 276/275/32 280/279/28 281/277/28 275/276/32
f 284/280/27 278/281/35 279/249/35 255/248/27
f 283/282/27 277/283/35 278/281/35 284/280/27
f 274/270/2 273/284/49 283/282/27 284/280/27
f 235/285/37 228/286/37 278/281/35 277/283/35
f 229/256/36 274/270/2 284/280/27 255/248/27
f 228/286/37 221/257/37 279/249/35 278/281/35
f 285/287/46 287/288/47 288/272/6 286/271/5
f 158/278/48 273/284/49 287/288/47 285/287/46
f 273/284/49 274/270/2 288/272/6 287/288/47
f 118/269/1 158/278/48 285/287/46 286/271/5
