# Blender v2.93.3 OBJ File: 'molduras1.blend'
# www.blender.org
mtllib molduras1.mtl
o Plane.007_Plane.019
v 4.086193 -0.002152 0.173997
v 0.002515 -0.002152 0.173997
v 4.086193 1.909359 0.173997
v 0.002515 1.909359 0.173997
v 0.062761 -0.002152 0.173997
v 0.062761 1.909359 0.173997
v 4.022036 -0.002152 0.173997
v 4.022036 1.909359 0.173997
v 0.062761 -0.002152 -0.013624
v 0.002515 -0.002152 -0.013624
v 0.062761 1.909359 -0.013624
v 0.002515 1.909359 -0.013624
v 4.086193 1.909359 -0.013624
v 4.086193 -0.002152 -0.013624
v 4.022036 -0.002152 -0.013624
v 4.022036 1.909359 -0.013624
v 0.062761 1.909359 0.066742
v 0.062761 -0.002152 0.066742
v 0.002515 -0.002152 0.066742
v 0.002515 1.909359 0.066742
v 4.022036 1.909359 0.064534
v 4.086193 1.909359 0.064534
v 4.086193 -0.002152 0.064534
v 4.022036 -0.002152 0.064534
v 8.004852 -0.002152 0.173996
v 8.004852 1.909359 0.173996
v 11.996344 -0.002152 0.173996
v 11.996344 1.909359 0.173996
v 8.069009 -0.002152 0.173996
v 8.069009 1.909359 0.173996
v 11.996344 -0.002152 -0.013625
v 11.996344 1.909359 -0.013625
v 8.004852 1.909359 -0.013625
v 8.004852 -0.002152 -0.013624
v 8.069009 -0.002152 -0.013624
v 8.069009 1.909359 -0.013625
v 11.996344 1.909359 0.066741
v 11.996344 -0.002152 0.066741
v 8.069009 1.909359 0.064533
v 8.004852 1.909359 0.064533
v 8.004852 -0.002152 0.064533
v 8.069009 -0.002152 0.064533
v 6.045523 -0.002152 0.173996
v 6.045523 1.909359 0.173996
vt 0.791654 0.435049
vt 0.919356 0.435050
vt 0.919356 0.565137
vt 0.791654 0.565137
vt 0.791654 0.864502
vt 0.919356 0.864502
vt 0.919356 0.869871
vt 0.791654 0.869871
vt 0.791654 0.594465
vt 0.919356 0.594465
vt 0.919356 0.857336
vt 0.791654 0.857336
vt 0.919356 0.873871
vt 0.791654 0.873871
vt 0.791654 0.577671
vt 0.919356 0.577671
vt 0.919356 0.581931
vt 0.791654 0.581931
vt 0.791654 0.572450
vt 0.919356 0.572450
vt 0.919356 0.587152
vt 0.791654 0.587152
vt 0.919356 0.879240
vt 0.791654 0.879240
vt 0.919356 0.886406
vt 0.791654 0.886406
vt 0.791654 0.304962
vt 0.919356 0.304962
vt 0.791654 0.007718
vt 0.791654 0.002349
vt 0.919356 0.002349
vt 0.919356 0.007718
vt 0.791654 0.275634
vt 0.791654 0.014883
vt 0.919356 0.014883
vt 0.919356 0.275634
vt 0.791654 0.292428
vt 0.791654 0.288168
vt 0.919356 0.288168
vt 0.919356 0.292428
vt 0.791654 0.297649
vt 0.919356 0.297649
vt 0.919356 0.282947
vt 0.791654 0.282947
vn 0.0000 0.0000 1.0000
vn -0.7071 0.0000 0.7071
vn -1.0000 0.0000 0.0000
vn 0.7071 0.0000 0.7071
vn 1.0000 0.0000 0.0000
usemtl None
s 1
f 43/1/1 44/2/1 3/3/2 1/4/2
f 18/5/3 17/6/3 11/7/2 9/8/2
f 7/9/4 8/10/4 6/11/2 5/12/2
f 9/8/2 11/7/2 12/13/4 10/14/4
f 14/15/2 13/16/2 16/17/4 15/18/4
f 23/19/3 22/20/3 13/16/2 14/15/2
f 21/21/5 24/22/5 15/18/4 16/17/4
f 20/23/5 19/24/5 10/14/4 12/13/4
f 4/25/5 2/26/5 19/24/5 20/23/5
f 5/12/2 6/11/2 17/6/3 18/5/3
f 8/10/4 7/9/4 24/22/5 21/21/5
f 1/4/2 3/3/2 22/20/3 23/19/3
f 43/1/1 25/27/4 26/28/4 44/2/1
f 38/29/5 31/30/5 32/31/5 37/32/5
f 29/33/2 27/34/4 28/35/4 30/36/2
f 34/37/4 35/38/2 36/39/2 33/40/4
f 41/41/5 34/37/4 33/40/4 40/42/5
f 39/43/3 36/39/2 35/38/2 42/44/3
f 27/34/4 38/29/5 37/32/5 28/35/4
f 30/36/2 39/43/3 42/44/3 29/33/2
f 25/27/4 41/41/5 40/42/5 26/28/4
o Plane.008_Plane.020
v 4.086207 1.908915 0.171489
v 4.086207 1.908915 -0.108650
v 0.062776 1.908915 0.171489
v 0.062776 1.908915 -0.108650
v 4.022049 1.908915 0.171489
v 4.022049 1.908915 -0.108650
v 8.004866 1.908914 0.171489
v 8.004866 1.908914 -0.108650
v 11.996357 1.908914 0.171489
v 11.996357 1.908914 -0.108650
v 8.069022 1.908914 0.171489
v 8.069022 1.908914 -0.108650
v 6.045537 1.908915 0.171489
v 6.045537 1.908914 -0.108650
vt 0.997651 0.452661
vt 0.978979 0.452661
vt 0.978979 0.322874
vt 0.997651 0.322874
vt 0.997651 0.293614
vt 0.978979 0.293614
vt 0.978979 0.031350
vt 0.997651 0.031350
vt 0.997651 0.582448
vt 0.978979 0.582448
vt 0.997651 0.611708
vt 0.997651 0.871853
vt 0.978980 0.871853
vt 0.978979 0.611708
vn 0.0000 1.0000 0.0000
usemtl None
s 1
f 57/45/6 58/46/6 46/47/6 45/48/6
f 49/49/6 50/50/6 48/51/6 47/52/6
f 57/45/6 51/53/6 52/54/6 58/46/6
f 55/55/6 53/56/6 54/57/6 56/58/6
o Plane.009_Plane.023
v 4.086207 -0.002151 0.171489
v 4.086207 -0.002151 -0.108650
v 0.062776 -0.002151 0.171489
v 0.062776 -0.002151 -0.108650
v 4.022049 -0.002151 0.171489
v 4.022049 -0.002151 -0.108650
v 8.004866 -0.002152 0.171489
v 8.004866 -0.002152 -0.108650
v 11.996357 -0.002152 0.171489
v 11.996357 -0.002152 -0.108650
v 8.069022 -0.002152 0.171489
v 8.069022 -0.002152 -0.108650
v 6.045537 -0.002151 0.171489
v 6.045537 -0.002152 -0.108650
vt 0.997651 0.452661
vt 0.978979 0.452661
vt 0.978979 0.322874
vt 0.997651 0.322874
vt 0.997651 0.293614
vt 0.978979 0.293614
vt 0.978979 0.031350
vt 0.997651 0.031350
vt 0.997651 0.582448
vt 0.978979 0.582448
vt 0.997651 0.611708
vt 0.997651 0.871853
vt 0.978980 0.871853
vt 0.978979 0.611708
vn 0.0000 1.0000 0.0000
usemtl None
s 1
f 71/59/7 72/60/7 60/61/7 59/62/7
f 63/63/7 64/64/7 62/65/7 61/66/7
f 71/59/7 65/67/7 66/68/7 72/60/7
f 69/69/7 67/70/7 68/71/7 70/72/7
