# Blender v2.93.3 OBJ File: 'cosas nuevas.blend'
# www.blender.org
mtllib BASELAMPARA_LOW.mtl
o Torus.012_Torus.020
v 0.007472 6.341967 -0.466276
v -0.030182 6.341967 -0.452240
v -0.055782 6.341967 -0.416593
v -0.064815 6.341967 -0.370715
v -0.056495 6.341967 -0.324491
v -0.031088 6.341967 -0.287817
v 0.007472 6.341967 -0.273074
v 0.046030 6.341967 -0.287817
v 0.071441 6.341967 -0.324493
v 0.079755 6.341967 -0.370716
v 0.070728 6.341967 -0.416591
v 0.045125 6.341967 -0.452240
v 0.007472 6.277141 -0.457129
v -0.030104 6.279367 -0.443464
v -0.055742 6.284987 -0.408633
v -0.064815 6.292160 -0.363675
v -0.056455 6.299420 -0.318372
v -0.030993 6.305305 -0.282551
v 0.007472 6.307727 -0.268231
v 0.045935 6.305305 -0.282550
v 0.071401 6.299420 -0.318374
v 0.079755 6.292160 -0.363676
v 0.070689 6.284988 -0.408626
v 0.045046 6.279367 -0.443464
v 0.007472 6.215115 -0.430165
v -0.029885 6.219376 -0.417553
v -0.055631 6.230258 -0.385066
v -0.064815 6.244289 -0.342822
v -0.056340 6.258492 -0.300225
v -0.030734 6.269855 -0.266893
v 0.007472 6.274456 -0.253735
v 0.045677 6.269855 -0.266893
v 0.071287 6.258491 -0.300232
v 0.079755 6.244289 -0.342822
v 0.070577 6.230259 -0.385065
v 0.044827 6.219376 -0.417553
v 0.007472 6.158431 -0.386743
v -0.029572 6.164404 -0.375692
v -0.055468 6.179917 -0.346875
v -0.064815 6.200199 -0.308971
v -0.056173 6.220741 -0.270752
v -0.030370 6.236884 -0.241251
v 0.007472 6.243272 -0.229803
v 0.045312 6.236885 -0.241251
v 0.071119 6.220740 -0.270754
v 0.079755 6.200199 -0.308971
v 0.070414 6.179917 -0.346874
v 0.044515 6.164404 -0.375692
v 0.007472 6.109201 -0.328833
v -0.029227 6.116538 -0.319705
v -0.055284 6.135886 -0.295587
v -0.064814 6.161585 -0.263447
v -0.055983 6.187603 -0.231063
v -0.029974 6.207683 -0.206409
v 0.007472 6.215437 -0.197028
v 0.044916 6.207684 -0.206409
v 0.070929 6.187602 -0.231064
v 0.079755 6.161585 -0.263447
v 0.070231 6.135887 -0.295581
v 0.044169 6.116539 -0.319705
v 0.007471 6.069140 -0.258854
v -0.028905 6.077491 -0.251873
v -0.055109 6.099828 -0.233177
v -0.064815 6.129920 -0.208006
v -0.055798 6.160367 -0.182662
v -0.029615 6.183483 -0.163600
v 0.007472 6.192233 -0.156451
v 0.044558 6.183483 -0.163599
v 0.070744 6.160364 -0.182663
v 0.079756 6.129920 -0.208006
v 0.070056 6.099832 -0.233176
v 0.043848 6.077488 -0.251873
v 0.007471 6.039577 -0.179537
v -0.028646 6.048611 -0.174821
v -0.054966 6.073084 -0.162089
v -0.064815 6.106403 -0.144795
v -0.055647 6.140101 -0.127385
v -0.029335 6.165357 -0.114429
v 0.007472 6.174792 -0.109611
v 0.044277 6.165357 -0.114429
v 0.070593 6.140097 -0.127386
v 0.079756 6.106404 -0.144794
v 0.069912 6.073087 -0.162088
v 0.043588 6.048611 -0.174821
v 0.007472 6.021454 -0.093848
v -0.028476 6.030882 -0.091479
v -0.054873 6.056632 -0.085029
v -0.064815 6.091925 -0.076227
v -0.055548 6.127610 -0.067370
v -0.029154 6.154139 -0.060818
v 0.007472 6.163964 -0.058395
v 0.044097 6.154139 -0.060818
v 0.070495 6.127606 -0.067370
v 0.079756 6.091926 -0.076227
v 0.069819 6.056634 -0.085029
v 0.043419 6.030882 -0.091480
v 0.007472 6.015348 -0.004932
v -0.028417 6.024906 -0.004932
v -0.054840 6.051082 -0.004932
v -0.064815 6.087038 -0.004932
v -0.055514 6.123388 -0.004932
v -0.029092 6.150341 -0.004932
v 0.007472 6.160291 -0.004932
v 0.044034 6.150342 -0.004932
v 0.070461 6.123386 -0.004932
v 0.079756 6.087038 -0.004932
v 0.069787 6.051084 -0.004932
v 0.043360 6.024906 -0.004932
v 0.007472 6.021454 0.083984
v -0.028476 6.030882 0.081616
v -0.054873 6.056632 0.075165
v -0.064815 6.091926 0.066364
v -0.055548 6.127609 0.057506
v -0.029154 6.154139 0.050954
v 0.007472 6.163963 0.048531
v 0.044097 6.154140 0.050954
v 0.070495 6.127606 0.057507
v 0.079756 6.091926 0.066364
v 0.069819 6.056634 0.075165
v 0.043419 6.030882 0.081616
v 0.007472 6.039577 0.169673
v -0.028646 6.048611 0.164957
v -0.054966 6.073084 0.152225
v -0.064815 6.106403 0.134931
v -0.055647 6.140100 0.117521
v -0.029334 6.165358 0.104561
v 0.007472 6.174790 0.099747
v 0.044277 6.165358 0.104561
v 0.070593 6.140097 0.117522
v 0.079756 6.106404 0.134931
v 0.069912 6.073087 0.152224
v 0.043588 6.048611 0.164957
v 0.007472 6.069140 0.248990
v -0.028907 6.077491 0.242009
v -0.055109 6.099831 0.223314
v -0.064815 6.129918 0.198143
v -0.055798 6.160367 0.172799
v -0.029615 6.183483 0.153736
v 0.007472 6.192233 0.146588
v 0.044557 6.183483 0.153736
v 0.070745 6.160364 0.172800
v 0.079756 6.129920 0.198142
v 0.070056 6.099832 0.223313
v 0.043849 6.077491 0.242009
v 0.007472 6.109201 0.318970
v -0.029230 6.116539 0.309841
v -0.055285 6.135887 0.285712
v -0.064815 6.161584 0.253584
v -0.055983 6.187603 0.221199
v -0.029974 6.207683 0.196546
v 0.007472 6.215437 0.187164
v 0.044916 6.207684 0.196545
v 0.070929 6.187602 0.221200
v 0.079756 6.161585 0.253583
v 0.070231 6.135890 0.285711
v 0.044172 6.116539 0.309841
v 0.007472 6.158431 0.376879
v -0.029574 6.164404 0.365828
v -0.055468 6.179917 0.337010
v -0.064815 6.200199 0.299108
v -0.056173 6.220740 0.260888
v -0.030369 6.236884 0.231387
v 0.007472 6.243272 0.219939
v 0.045311 6.236884 0.231386
v 0.071119 6.220739 0.260890
v 0.079755 6.200199 0.299108
v 0.070414 6.179918 0.337009
v 0.044516 6.164404 0.365828
v 0.007472 6.215115 0.420301
v -0.029885 6.219376 0.407689
v -0.055631 6.230258 0.375202
v -0.064815 6.244289 0.332960
v -0.056341 6.258492 0.290360
v -0.030730 6.269855 0.257022
v 0.007472 6.274456 0.243872
v 0.045672 6.269855 0.257021
v 0.071287 6.258491 0.290361
v 0.079755 6.244289 0.332960
v 0.070577 6.230259 0.375201
v 0.044827 6.219376 0.407689
v 0.007472 6.277141 0.447266
v -0.030104 6.279367 0.433601
v -0.055742 6.284987 0.398770
v -0.064814 6.292159 0.353820
v -0.056454 6.299421 0.308488
v -0.030983 6.305305 0.272684
v 0.007472 6.307728 0.258368
v 0.045925 6.305305 0.272683
v 0.071401 6.299421 0.308489
v 0.079755 6.292159 0.353820
v 0.070688 6.284988 0.398763
v 0.045046 6.279367 0.433601
v 0.007472 6.341967 0.456412
v -0.030182 6.341967 0.442376
v -0.055782 6.341967 0.406729
v -0.064814 6.341967 0.360855
v -0.056495 6.341967 0.314610
v -0.031075 6.341967 0.277950
v 0.007472 6.341967 0.263210
v 0.046017 6.341967 0.277949
v 0.071441 6.341967 0.314611
v 0.079755 6.341967 0.360855
v 0.070728 6.341967 0.406727
v 0.045125 6.341967 0.442376
v 0.007472 6.341967 0.406728
v 0.007472 6.341967 0.314611
v 0.007472 6.341967 -0.416592
v 0.007472 6.341967 -0.324492
v 0.007472 6.341967 0.360855
v 0.007472 6.341967 -0.370716
vt 0.511213 0.812907
vt 0.510495 0.799387
vt 0.519034 0.798926
vt 0.519747 0.811980
vt 0.527002 0.799887
vt 0.527648 0.811771
vt 0.654477 0.913433
vt 0.642474 0.911759
vt 0.643662 0.902126
vt 0.654156 0.903607
vt 0.645489 0.892467
vt 0.654451 0.893755
vt 0.535318 0.808412
vt 0.534444 0.799270
vt 0.542314 0.798715
vt 0.543055 0.806593
vt 0.551064 0.797947
vt 0.551780 0.805301
vt 0.557550 0.797190
vt 0.558329 0.805065
vt 0.778938 0.761730
vt 0.771133 0.762792
vt 0.770354 0.754677
vt 0.779411 0.753444
vt 0.768965 0.744866
vt 0.779566 0.743450
vt 0.767269 0.735460
vt 0.779398 0.733858
vt 0.765596 0.728521
vt 0.778921 0.726755
vt 0.504936 0.814287
vt 0.504253 0.801228
vt 0.511272 0.786745
vt 0.519729 0.786703
vt 0.527648 0.788733
vt 0.630947 0.906750
vt 0.633577 0.897693
vt 0.636870 0.888610
vt 0.640174 0.881553
vt 0.647633 0.884881
vt 0.542409 0.790715
vt 0.551091 0.790451
vt 0.557543 0.789200
vt 0.763583 0.766070
vt 0.761641 0.758472
vt 0.758776 0.749225
vt 0.755619 0.740386
vt 0.752823 0.733940
vt 0.505034 0.788991
vt 0.513492 0.775495
vt 0.521800 0.775798
vt 0.629569 0.913766
vt 0.617999 0.904849
vt 0.620347 0.898614
vt 0.624288 0.890482
vt 0.628923 0.882331
vt 0.633241 0.876091
vt 0.543340 0.782875
vt 0.551879 0.783054
vt 0.558329 0.781375
vt 0.756559 0.771479
vt 0.753603 0.764686
vt 0.749391 0.756356
vt 0.744901 0.748433
vt 0.741117 0.742764
vt 0.507229 0.778068
vt 0.801538 0.889848
vt 0.798662 0.877205
vt 0.806633 0.875238
vt 0.809500 0.887462
vt 0.813118 0.870154
vt 0.815728 0.881353
vt 0.611077 0.887678
vt 0.616153 0.880774
vt 0.621948 0.873868
vt 0.627103 0.868662
vt 0.545073 0.775495
vt 0.553424 0.776042
vt 0.490466 0.777937
vt 0.489725 0.785010
vt 0.481581 0.783013
vt 0.482275 0.775495
vt 0.750336 0.778853
vt 0.746546 0.773082
vt 0.741173 0.765981
vt 0.735526 0.759279
vt 0.730922 0.754606
vt 0.794274 0.887579
vt 0.791549 0.875355
vt 0.796322 0.862036
vt 0.804285 0.860534
vt 0.810976 0.856624
vt 0.603487 0.874362
vt 0.609482 0.868944
vt 0.616217 0.863540
vt 0.622017 0.859529
vt 0.497457 0.783037
vt 0.496737 0.792245
vt 0.489107 0.793738
vt 0.481013 0.792221
vt 0.745178 0.787930
vt 0.740745 0.783340
vt 0.734433 0.777727
vt 0.727848 0.772504
vt 0.722605 0.768983
vt 0.789333 0.860649
vt 0.794595 0.844931
vt 0.802545 0.843917
vt 0.809384 0.841292
vt 0.597857 0.859188
vt 0.604527 0.855451
vt 0.611952 0.851741
vt 0.618208 0.849033
vt 0.496194 0.802796
vt 0.488643 0.803789
vt 0.480589 0.802772
vt 0.474338 0.800060
vt 0.474846 0.788199
vt 0.736429 0.795074
vt 0.729428 0.791140
vt 0.722153 0.787591
vt 0.716453 0.785338
vt 0.787700 0.844031
vt 0.793536 0.826529
vt 0.801474 0.826019
vt 0.808404 0.824743
vt 0.594394 0.842733
vt 0.601477 0.840809
vt 0.609324 0.838925
vt 0.615851 0.837585
vt 0.495858 0.814278
vt 0.488355 0.814759
vt 0.480329 0.814254
vt 0.474027 0.812914
vt 0.733768 0.807827
vt 0.726346 0.805708
vt 0.718650 0.803964
vt 0.712677 0.803048
vt 0.786699 0.826133
vt 0.793179 0.807504
vt 0.801113 0.807501
vt 0.808073 0.807605
vt 0.593226 0.825623
vt 0.600447 0.825580
vt 0.608436 0.825588
vt 0.615053 0.825648
vt 0.495743 0.826227
vt 0.488257 0.826190
vt 0.480241 0.826203
vt 0.473921 0.826264
vt 0.732869 0.821108
vt 0.725306 0.820873
vt 0.717468 0.821002
vt 0.711404 0.821458
vt 0.786362 0.807615
vt 0.793536 0.788548
vt 0.801474 0.789049
vt 0.808404 0.790529
vt 0.594394 0.808509
vt 0.601477 0.810346
vt 0.609324 0.812247
vt 0.615851 0.813707
vt 0.495858 0.838157
vt 0.488355 0.837602
vt 0.480329 0.838133
vt 0.474026 0.839592
vt 0.733768 0.834402
vt 0.726346 0.836053
vt 0.718650 0.838056
vt 0.712677 0.839885
vt 0.786699 0.789163
vt 0.794595 0.770348
vt 0.802545 0.771348
vt 0.809384 0.774162
vt 0.597857 0.792038
vt 0.604527 0.795691
vt 0.611952 0.799419
vt 0.618208 0.802249
vt 0.496194 0.849581
vt 0.488643 0.848516
vt 0.480590 0.849557
vt 0.474338 0.852382
vt 0.736428 0.847193
vt 0.729428 0.850669
vt 0.722153 0.854480
vt 0.716454 0.857647
vt 0.787700 0.771463
vt 0.796322 0.753572
vt 0.804286 0.755052
vt 0.810976 0.759128
vt 0.603487 0.776838
vt 0.609481 0.782175
vt 0.616217 0.787600
vt 0.622017 0.791734
vt 0.496737 0.860040
vt 0.489107 0.858479
vt 0.481013 0.860017
vt 0.474846 0.864140
vt 0.740745 0.858988
vt 0.734433 0.864160
vt 0.727848 0.869650
vt 0.722605 0.874087
vt 0.789333 0.755167
vt 0.798662 0.738849
vt 0.806633 0.740782
vt 0.813118 0.746001
vt 0.611077 0.763490
vt 0.616153 0.770316
vt 0.621948 0.777247
vt 0.627103 0.782576
vt 0.497457 0.869125
vt 0.489725 0.867089
vt 0.481581 0.869101
vt 0.745178 0.855463
vt 0.750336 0.864607
vt 0.746546 0.869329
vt 0.741173 0.876011
vt 0.735526 0.882986
vt 0.730923 0.888581
vt 0.791548 0.740898
vt 0.801538 0.726755
vt 0.809500 0.729090
vt 0.815728 0.735290
vt 0.620347 0.752510
vt 0.624288 0.760573
vt 0.628923 0.768752
vt 0.633241 0.775118
vt 0.811117 0.036315
vt 0.809385 0.028935
vt 0.817924 0.028757
vt 0.819469 0.035768
vt 0.490466 0.874020
vt 0.482275 0.876469
vt 0.756558 0.872062
vt 0.753603 0.877827
vt 0.749391 0.885763
vt 0.744901 0.893972
vt 0.741117 0.900569
vt 0.794274 0.729207
vt 0.787076 0.535690
vt 0.784856 0.524440
vt 0.793313 0.524482
vt 0.795385 0.535387
vt 0.617999 0.746432
vt 0.629569 0.737462
vt 0.630947 0.744328
vt 0.633577 0.753320
vt 0.636870 0.762438
vt 0.640174 0.769625
vt 0.808456 0.021095
vt 0.817137 0.021360
vt 0.823589 0.022611
vt 0.824374 0.030436
vt 0.763583 0.877566
vt 0.761641 0.884158
vt 0.758776 0.893040
vt 0.755619 0.902180
vt 0.752823 0.909562
vt 0.780813 0.533117
vt 0.778619 0.522193
vt 0.784079 0.511798
vt 0.792618 0.512259
vt 0.800587 0.511297
vt 0.801233 0.522452
vt 0.642474 0.739267
vt 0.643662 0.748842
vt 0.645489 0.758546
vt 0.647634 0.766262
vt 0.808363 0.013095
vt 0.817111 0.013863
vt 0.823595 0.014621
vt 0.771133 0.880952
vt 0.770355 0.888081
vt 0.768965 0.897559
vt 0.767269 0.907282
vt 0.765596 0.915171
vt 0.777838 0.509957
vt 0.784798 0.498278
vt 0.793332 0.499205
vt 0.801233 0.499414
vt 0.654477 0.737540
vt 0.654156 0.747316
vt 0.654451 0.757218
vt 0.800493 0.012540
vt 0.801367 0.003398
vt 0.809105 0.005217
vt 0.817827 0.006510
vt 0.824374 0.006746
vt 0.778938 0.882132
vt 0.779411 0.889454
vt 0.779566 0.899138
vt 0.779398 0.909071
vt 0.778921 0.917141
vt 0.778520 0.496898
vt 0.751511 0.498300
vt 0.759918 0.496898
vt 0.757884 0.507316
vt 0.744727 0.504727
vt 0.767175 0.501382
vt 0.771042 0.509905
vt 0.740971 0.513976
vt 0.756007 0.516935
vt 0.754114 0.526631
vt 0.740809 0.524014
vt 0.771042 0.519893
vt 0.767420 0.529249
vt 0.722890 0.496898
vt 0.730147 0.501383
vt 0.734012 0.509906
vt 0.720856 0.507316
vt 0.714483 0.498299
vt 0.707698 0.504725
vt 0.718977 0.516935
vt 0.734012 0.519895
vt 0.730389 0.529246
vt 0.717084 0.526627
vt 0.703942 0.513975
vt 0.703778 0.524007
vt 0.752010 0.537409
vt 0.744595 0.532741
vt 0.714978 0.537408
vt 0.707562 0.532738
vt 0.723602 0.535896
vt 0.760631 0.535896
vn 0.0000 0.5830 -0.8124
vn 0.0000 -0.2682 -0.9633
vn -0.5896 -0.2190 -0.7774
vn -0.4739 0.6042 -0.6405
vn -0.9082 -0.1161 -0.4021
vn -0.6994 0.6404 -0.3173
vn -0.9997 -0.0090 -0.0232
vn -0.7454 0.6663 -0.0184
vn -0.9283 0.1001 0.3580
vn -0.6814 0.6812 0.2677
vn -0.6235 0.2145 0.7518
vn -0.4582 0.6866 0.5644
vn 0.0000 0.2765 0.9610
vn 0.0000 0.6869 0.7267
vn 0.6235 0.2145 0.7518
vn 0.4582 0.6866 0.5644
vn 0.9283 0.1001 0.3579
vn 0.6814 0.6812 0.2676
vn 0.9997 -0.0090 -0.0232
vn 0.7454 0.6663 -0.0184
vn 0.9082 -0.1161 -0.4021
vn 0.6994 0.6403 -0.3173
vn 0.5896 -0.2190 -0.7774
vn 0.4739 0.6042 -0.6405
vn 0.0000 -0.5022 -0.8647
vn -0.5756 -0.4140 -0.7051
vn -0.9014 -0.2230 -0.3711
vn -0.9997 -0.0161 -0.0194
vn -0.9216 0.1955 0.3352
vn -0.6058 0.4066 0.6839
vn 0.0000 0.5139 0.8578
vn 0.6058 0.4066 0.6839
vn 0.9216 0.1954 0.3352
vn 0.9997 -0.0161 -0.0194
vn 0.9014 -0.2229 -0.3710
vn 0.5756 -0.4140 -0.7052
vn 0.0000 -0.6844 -0.7291
vn -0.5565 -0.5715 -0.6030
vn -0.8919 -0.3146 -0.3248
vn -0.9997 -0.0205 -0.0146
vn -0.9120 0.2813 0.2986
vn -0.5825 0.5629 0.5864
vn 0.0000 0.6948 0.7191
vn 0.5825 0.5629 0.5864
vn 0.9120 0.2813 0.2985
vn 0.9997 -0.0205 -0.0146
vn 0.8919 -0.3146 -0.3247
vn 0.5565 -0.5715 -0.6030
vn 0.0000 -0.8152 -0.5791
vn -0.5364 -0.6898 -0.4862
vn -0.8816 -0.3885 -0.2682
vn -0.9997 -0.0224 -0.0101
vn -0.9013 0.3536 0.2503
vn -0.5589 0.6807 0.4735
vn 0.0000 0.8224 0.5689
vn 0.5589 0.6807 0.4735
vn 0.9013 0.3535 0.2503
vn 0.9997 -0.0224 -0.0101
vn 0.8816 -0.3884 -0.2681
vn 0.5364 -0.6898 -0.4862
vn 0.0000 -0.9037 -0.4282
vn -0.5184 -0.7737 -0.3642
vn -0.8720 -0.4445 -0.2051
vn -0.9997 -0.0227 -0.0063
vn -0.8912 0.4100 0.1938
vn -0.5387 0.7641 0.3549
vn 0.0000 0.9077 0.4196
vn 0.5387 0.7641 0.3549
vn 0.8912 0.4100 0.1938
vn 0.9997 -0.0226 -0.0063
vn 0.8720 -0.4444 -0.2051
vn 0.5184 -0.7737 -0.3642
vn 0.0000 -0.9595 -0.2816
vn -0.5044 -0.8289 -0.2418
vn -0.8643 -0.4834 -0.1384
vn -0.9997 -0.0222 -0.0035
vn -0.8831 0.4502 0.1317
vn -0.5236 0.8187 0.2357
vn 0.0000 0.9613 0.2755
vn 0.5236 0.8187 0.2357
vn 0.8832 0.4501 0.1317
vn 0.9997 -0.0221 -0.0035
vn 0.8644 -0.4834 -0.1383
vn 0.5044 -0.8289 -0.2418
vn 0.0000 -0.9902 -0.1394
vn -0.4957 -0.8601 -0.1205
vn -0.8595 -0.5064 -0.0696
vn -0.9998 -0.0215 -0.0015
vn -0.8780 0.4740 0.0666
vn -0.5143 0.8495 0.1174
vn 0.0000 0.9906 0.1364
vn 0.5143 0.8495 0.1174
vn 0.8780 0.4740 0.0666
vn 0.9998 -0.0215 -0.0015
vn 0.8595 -0.5063 -0.0696
vn 0.4957 -0.8601 -0.1205
vn 0.0000 -1.0000 0.0000
vn -0.4927 -0.8702 0.0000
vn -0.8578 -0.5139 0.0000
vn -0.9998 -0.0213 0.0000
vn -0.8762 0.4819 0.0000
vn -0.5112 0.8595 0.0000
vn 0.0000 1.0000 0.0000
vn 0.5112 0.8595 0.0000
vn 0.8762 0.4819 0.0000
vn 0.9998 -0.0213 0.0000
vn 0.8578 -0.5139 0.0000
vn 0.4927 -0.8702 0.0000
vn 0.0000 -0.9902 0.1394
vn -0.4957 -0.8601 0.1205
vn -0.8595 -0.5064 0.0696
vn -0.9998 -0.0215 0.0015
vn -0.8780 0.4740 -0.0666
vn -0.5143 0.8495 -0.1174
vn 0.0000 0.9906 -0.1364
vn 0.5143 0.8495 -0.1174
vn 0.8780 0.4740 -0.0666
vn 0.9998 -0.0215 0.0015
vn 0.8595 -0.5063 0.0696
vn 0.4957 -0.8601 0.1205
vn 0.0000 -0.9595 0.2816
vn -0.5044 -0.8289 0.2418
vn -0.8643 -0.4834 0.1384
vn -0.9997 -0.0222 0.0035
vn -0.8831 0.4502 -0.1317
vn -0.5236 0.8187 -0.2357
vn 0.0000 0.9613 -0.2755
vn 0.5236 0.8187 -0.2357
vn 0.8832 0.4501 -0.1317
vn 0.9997 -0.0221 0.0035
vn 0.8644 -0.4834 0.1383
vn 0.5044 -0.8289 0.2418
vn 0.0000 -0.9036 0.4282
vn -0.5184 -0.7737 0.3642
vn -0.8720 -0.4445 0.2051
vn -0.9997 -0.0227 0.0063
vn -0.8912 0.4100 -0.1938
vn -0.5387 0.7641 -0.3549
vn 0.0000 0.9077 -0.4196
vn 0.5387 0.7641 -0.3549
vn 0.8912 0.4100 -0.1938
vn 0.9997 -0.0227 0.0063
vn 0.8720 -0.4444 0.2051
vn 0.5184 -0.7737 0.3642
vn 0.0000 -0.8152 0.5791
vn -0.5365 -0.6898 0.4861
vn -0.8816 -0.3884 0.2681
vn -0.9997 -0.0224 0.0101
vn -0.9013 0.3536 -0.2503
vn -0.5589 0.6807 -0.4735
vn 0.0000 0.8224 -0.5689
vn 0.5589 0.6807 -0.4735
vn 0.9013 0.3535 -0.2503
vn 0.9997 -0.0224 0.0101
vn 0.8816 -0.3884 0.2681
vn 0.5364 -0.6898 0.4861
vn 0.0000 -0.6844 0.7291
vn -0.5566 -0.5714 0.6030
vn -0.8919 -0.3146 0.3247
vn -0.9997 -0.0205 0.0147
vn -0.9120 0.2813 -0.2986
vn -0.5825 0.5628 -0.5864
vn 0.0000 0.6948 -0.7191
vn 0.5824 0.5629 -0.5864
vn 0.9120 0.2813 -0.2986
vn 0.9997 -0.0205 0.0147
vn 0.8919 -0.3146 0.3247
vn 0.5566 -0.5715 0.6030
vn 0.0000 -0.5022 0.8647
vn -0.5756 -0.4140 0.7051
vn -0.9014 -0.2230 0.3711
vn -0.9997 -0.0161 0.0194
vn -0.9216 0.1955 -0.3353
vn -0.6057 0.4066 -0.6839
vn 0.0000 0.5139 -0.8578
vn 0.6057 0.4066 -0.6840
vn 0.9216 0.1954 -0.3352
vn 0.9997 -0.0161 0.0194
vn 0.9014 -0.2229 0.3710
vn 0.5756 -0.4140 0.7052
vn 0.0000 -0.2682 0.9633
vn -0.5896 -0.2190 0.7774
vn -0.9082 -0.1161 0.4021
vn -0.9997 -0.0090 0.0233
vn -0.9283 0.1001 -0.3581
vn -0.6234 0.2145 -0.7519
vn 0.0000 0.2765 -0.9610
vn 0.6233 0.2145 -0.7519
vn 0.9283 0.1001 -0.3580
vn 0.9997 -0.0090 0.0233
vn 0.9082 -0.1161 0.4021
vn 0.5896 -0.2190 0.7774
vn 0.0000 0.5830 0.8124
vn -0.4739 0.6042 0.6405
vn -0.6994 0.6404 0.3173
vn -0.7454 0.6663 0.0184
vn -0.6814 0.6811 -0.2678
vn -0.4581 0.6866 -0.5645
vn 0.0000 0.6869 -0.7267
vn 0.4581 0.6866 -0.5645
vn 0.6814 0.6811 -0.2678
vn 0.7454 0.6663 0.0184
vn 0.6994 0.6403 0.3173
vn 0.4739 0.6042 0.6405
usemtl None
s 1
f 1/1/1 13/2/2 14/3/3 2/4/4
f 2/4/4 14/3/3 15/5/5 3/6/6
f 3/7/6 15/8/5 16/9/7 4/10/8
f 4/10/8 16/9/7 17/11/9 5/12/10
f 5/13/10 17/14/9 18/15/11 6/16/12
f 6/16/12 18/15/11 19/17/13 7/18/14
f 7/18/14 19/17/13 20/19/15 8/20/16
f 8/21/16 20/22/15 21/23/17 9/24/18
f 9/24/18 21/23/17 22/25/19 10/26/20
f 10/26/20 22/25/19 23/27/21 11/28/22
f 11/28/22 23/27/21 24/29/23 12/30/24
f 12/31/24 24/32/23 13/2/2 1/1/1
f 13/2/2 25/33/25 26/34/26 14/3/3
f 14/3/3 26/34/26 27/35/27 15/5/5
f 15/8/5 27/36/27 28/37/28 16/9/7
f 16/9/7 28/37/28 29/38/29 17/11/9
f 17/11/9 29/38/29 30/39/30 18/40/11
f 18/15/11 30/41/30 31/42/31 19/17/13
f 19/17/13 31/42/31 32/43/32 20/19/15
f 20/22/15 32/44/32 33/45/33 21/23/17
f 21/23/17 33/45/33 34/46/34 22/25/19
f 22/25/19 34/46/34 35/47/35 23/27/21
f 23/27/21 35/47/35 36/48/36 24/29/23
f 24/32/23 36/49/36 25/33/25 13/2/2
f 25/33/25 37/50/37 38/51/38 26/34/26
f 26/52/26 38/53/38 39/54/39 27/36/27
f 27/36/27 39/54/39 40/55/40 28/37/28
f 28/37/28 40/55/40 41/56/41 29/38/29
f 29/38/29 41/56/41 42/57/42 30/39/30
f 30/41/30 42/58/42 43/59/43 31/42/31
f 31/42/31 43/59/43 44/60/44 32/43/32
f 32/44/32 44/61/44 45/62/45 33/45/33
f 33/45/33 45/62/45 46/63/46 34/46/34
f 34/46/34 46/63/46 47/64/47 35/47/35
f 35/47/35 47/64/47 48/65/48 36/48/36
f 36/49/36 48/66/48 37/50/37 25/33/25
f 37/67/37 49/68/49 50/69/50 38/70/38
f 38/70/38 50/69/50 51/71/51 39/72/39
f 39/54/39 51/73/51 52/74/52 40/55/40
f 40/55/40 52/74/52 53/75/53 41/56/41
f 41/56/41 53/75/53 54/76/54 42/57/42
f 42/58/42 54/77/54 55/78/55 43/59/43
f 43/79/43 55/80/55 56/81/56 44/82/44
f 44/61/44 56/83/56 57/84/57 45/62/45
f 45/62/45 57/84/57 58/85/58 46/63/46
f 46/63/46 58/85/58 59/86/59 47/64/47
f 47/64/47 59/86/59 60/87/60 48/65/48
f 48/88/48 60/89/60 49/68/49 37/67/37
f 49/68/49 61/90/61 62/91/62 50/69/50
f 50/69/50 62/91/62 63/92/63 51/71/51
f 51/73/51 63/93/63 64/94/64 52/74/52
f 52/74/52 64/94/64 65/95/65 53/75/53
f 53/75/53 65/95/65 66/96/66 54/76/54
f 54/97/54 66/98/66 67/99/67 55/80/55
f 55/80/55 67/99/67 68/100/68 56/81/56
f 56/83/56 68/101/68 69/102/69 57/84/57
f 57/84/57 69/102/69 70/103/70 58/85/58
f 58/85/58 70/103/70 71/104/71 59/86/59
f 59/86/59 71/104/71 72/105/72 60/87/60
f 60/89/60 72/106/72 61/90/61 49/68/49
f 61/90/61 73/107/73 74/108/74 62/91/62
f 62/91/62 74/108/74 75/109/75 63/92/63
f 63/93/63 75/110/75 76/111/76 64/94/64
f 64/94/64 76/111/76 77/112/77 65/95/65
f 65/95/65 77/112/77 78/113/78 66/96/66
f 66/98/66 78/114/78 79/115/79 67/99/67
f 67/99/67 79/115/79 80/116/80 68/100/68
f 68/100/68 80/116/80 81/117/81 69/118/69
f 69/102/69 81/119/81 82/120/82 70/103/70
f 70/103/70 82/120/82 83/121/83 71/104/71
f 71/104/71 83/121/83 84/122/84 72/105/72
f 72/106/72 84/123/84 73/107/73 61/90/61
f 73/107/73 85/124/85 86/125/86 74/108/74
f 74/108/74 86/125/86 87/126/87 75/109/75
f 75/110/75 87/127/87 88/128/88 76/111/76
f 76/111/76 88/128/88 89/129/89 77/112/77
f 77/112/77 89/129/89 90/130/90 78/113/78
f 78/114/78 90/131/90 91/132/91 79/115/79
f 79/115/79 91/132/91 92/133/92 80/116/80
f 80/116/80 92/133/92 93/134/93 81/117/81
f 81/119/81 93/135/93 94/136/94 82/120/82
f 82/120/82 94/136/94 95/137/95 83/121/83
f 83/121/83 95/137/95 96/138/96 84/122/84
f 84/123/84 96/139/96 85/124/85 73/107/73
f 85/124/85 97/140/97 98/141/98 86/125/86
f 86/125/86 98/141/98 99/142/99 87/126/87
f 87/127/87 99/143/99 100/144/100 88/128/88
f 88/128/88 100/144/100 101/145/101 89/129/89
f 89/129/89 101/145/101 102/146/102 90/130/90
f 90/131/90 102/147/102 103/148/103 91/132/91
f 91/132/91 103/148/103 104/149/104 92/133/92
f 92/133/92 104/149/104 105/150/105 93/134/93
f 93/135/93 105/151/105 106/152/106 94/136/94
f 94/136/94 106/152/106 107/153/107 95/137/95
f 95/137/95 107/153/107 108/154/108 96/138/96
f 96/139/96 108/155/108 97/140/97 85/124/85
f 97/140/97 109/156/109 110/157/110 98/141/98
f 98/141/98 110/157/110 111/158/111 99/142/99
f 99/143/99 111/159/111 112/160/112 100/144/100
f 100/144/100 112/160/112 113/161/113 101/145/101
f 101/145/101 113/161/113 114/162/114 102/146/102
f 102/147/102 114/163/114 115/164/115 103/148/103
f 103/148/103 115/164/115 116/165/116 104/149/104
f 104/149/104 116/165/116 117/166/117 105/150/105
f 105/151/105 117/167/117 118/168/118 106/152/106
f 106/152/106 118/168/118 119/169/119 107/153/107
f 107/153/107 119/169/119 120/170/120 108/154/108
f 108/155/108 120/171/120 109/156/109 97/140/97
f 109/156/109 121/172/121 122/173/122 110/157/110
f 110/157/110 122/173/122 123/174/123 111/158/111
f 111/159/111 123/175/123 124/176/124 112/160/112
f 112/160/112 124/176/124 125/177/125 113/161/113
f 113/161/113 125/177/125 126/178/126 114/162/114
f 114/163/114 126/179/126 127/180/127 115/164/115
f 115/164/115 127/180/127 128/181/128 116/165/116
f 116/165/116 128/181/128 129/182/129 117/166/117
f 117/167/117 129/183/129 130/184/130 118/168/118
f 118/168/118 130/184/130 131/185/131 119/169/119
f 119/169/119 131/185/131 132/186/132 120/170/120
f 120/171/120 132/187/132 121/172/121 109/156/109
f 121/172/121 133/188/133 134/189/134 122/173/122
f 122/173/122 134/189/134 135/190/135 123/174/123
f 123/175/123 135/191/135 136/192/136 124/176/124
f 124/176/124 136/192/136 137/193/137 125/177/125
f 125/177/125 137/193/137 138/194/138 126/178/126
f 126/179/126 138/195/138 139/196/139 127/180/127
f 127/180/127 139/196/139 140/197/140 128/181/128
f 128/181/128 140/197/140 141/198/141 129/182/129
f 129/183/129 141/199/141 142/200/142 130/184/130
f 130/184/130 142/200/142 143/201/143 131/185/131
f 131/185/131 143/201/143 144/202/144 132/186/132
f 132/187/132 144/203/144 133/188/133 121/172/121
f 133/188/133 145/204/145 146/205/146 134/189/134
f 134/189/134 146/205/146 147/206/147 135/190/135
f 135/191/135 147/207/147 148/208/148 136/192/136
f 136/192/136 148/208/148 149/209/149 137/193/137
f 137/193/137 149/209/149 150/210/150 138/194/138
f 138/195/138 150/211/150 151/212/151 139/196/139
f 139/196/139 151/212/151 152/213/152 140/197/140
f 140/214/140 152/215/152 153/216/153 141/199/141
f 141/199/141 153/216/153 154/217/154 142/200/142
f 142/200/142 154/217/154 155/218/155 143/201/143
f 143/201/143 155/218/155 156/219/156 144/202/144
f 144/203/144 156/220/156 145/204/145 133/188/133
f 145/204/145 157/221/157 158/222/158 146/205/146
f 146/205/146 158/222/158 159/223/159 147/206/147
f 147/207/147 159/224/159 160/225/160 148/208/148
f 148/208/148 160/225/160 161/226/161 149/209/149
f 149/209/149 161/226/161 162/227/162 150/210/150
f 150/228/150 162/229/162 163/230/163 151/231/151
f 151/212/151 163/232/163 164/233/164 152/213/152
f 152/215/152 164/234/164 165/235/165 153/216/153
f 153/216/153 165/235/165 166/236/166 154/217/154
f 154/217/154 166/236/166 167/237/167 155/218/155
f 155/218/155 167/237/167 168/238/168 156/219/156
f 156/220/156 168/239/168 157/221/157 145/204/145
f 157/240/157 169/241/169 170/242/170 158/243/158
f 158/244/158 170/245/170 171/246/171 159/224/159
f 159/224/159 171/246/171 172/247/172 160/225/160
f 160/225/160 172/247/172 173/248/173 161/226/161
f 161/226/161 173/248/173 174/249/174 162/227/162
f 162/229/162 174/250/174 175/251/175 163/230/163
f 163/230/163 175/251/175 176/252/176 164/253/164
f 164/234/164 176/254/176 177/255/177 165/235/165
f 165/235/165 177/255/177 178/256/178 166/236/166
f 166/236/166 178/256/178 179/257/179 167/237/167
f 167/237/167 179/257/179 180/258/180 168/238/168
f 168/259/168 180/260/180 169/241/169 157/240/157
f 169/241/169 181/261/181 182/262/182 170/242/170
f 170/242/170 182/262/182 183/263/183 171/264/171
f 171/246/171 183/265/183 184/266/184 172/247/172
f 172/247/172 184/266/184 185/267/185 173/248/173
f 173/248/173 185/267/185 186/268/186 174/249/174
f 174/250/174 186/269/186 187/270/187 175/251/175
f 175/251/175 187/270/187 188/271/188 176/252/176
f 176/254/176 188/272/188 189/273/189 177/255/177
f 177/255/177 189/273/189 190/274/190 178/256/178
f 178/256/178 190/274/190 191/275/191 179/257/179
f 179/257/179 191/275/191 192/276/192 180/258/180
f 180/260/180 192/277/192 181/261/181 169/241/169
f 181/261/181 193/278/193 194/279/194 182/262/182
f 182/262/182 194/279/194 195/280/195 183/263/183
f 183/265/183 195/281/195 196/282/196 184/266/184
f 184/266/184 196/282/196 197/283/197 185/267/185
f 185/284/185 197/285/197 198/286/198 186/269/186
f 186/269/186 198/286/198 199/287/199 187/270/187
f 187/270/187 199/287/199 200/288/200 188/271/188
f 188/272/188 200/289/200 201/290/201 189/273/189
f 189/273/189 201/290/201 202/291/202 190/274/190
f 190/274/190 202/291/202 203/292/203 191/275/191
f 191/275/191 203/292/203 204/293/204 192/276/192
f 192/277/192 204/294/204 193/278/193 181/261/181
f 194/295/194 193/296/193 205/297/103 195/298/195
f 193/296/193 204/299/204 203/300/203 205/297/103
f 196/301/196 209/302/103 206/303/103 197/304/197
f 209/302/103 202/305/202 201/306/201 206/303/103
f 1/307/1 2/308/4 3/309/6 207/310/103
f 12/311/24 1/307/1 207/310/103 11/312/22
f 210/313/103 4/314/8 5/315/10 208/316/103
f 10/317/20 210/313/103 208/316/103 9/318/18
f 195/298/195 205/297/103 209/302/103 196/301/196
f 205/297/103 203/300/203 202/305/202 209/302/103
f 207/310/103 3/309/6 4/314/8 210/313/103
f 11/312/22 207/310/103 210/313/103 10/317/20
f 197/304/197 206/303/103 199/319/199 198/320/198
f 9/318/18 208/316/103 7/321/14 8/322/16
f 208/316/103 5/315/10 6/323/12 7/321/14
f 206/303/103 201/306/201 200/324/200 199/319/199
o Cylinder.006_Cylinder.012
v 0.000000 6.334408 -0.524535
v 0.000000 7.357815 -1.090469
v 0.102332 6.334408 -0.514457
v 0.212740 7.357815 -1.069516
v 0.200731 6.334408 -0.484607
v 0.417304 7.357815 -1.007462
v 0.291416 6.334408 -0.436135
v 0.605832 7.357815 -0.906692
v 0.370902 6.334408 -0.370902
v 0.771078 7.357815 -0.771078
v 0.436135 6.334408 -0.291416
v 0.906692 7.357815 -0.605832
v 0.484607 6.334408 -0.200731
v 1.007462 7.357815 -0.417304
v 0.514457 6.334408 -0.102332
v 1.069516 7.357815 -0.212740
v 0.524535 6.334408 0.000000
v 1.090469 7.357815 0.000000
v 0.514457 6.334408 0.102332
v 1.069516 7.357815 0.212740
v 0.484607 6.334408 0.200731
v 1.007462 7.357815 0.417304
v 0.436135 6.334408 0.291416
v 0.906692 7.357815 0.605832
v 0.370902 6.334408 0.370902
v 0.771078 7.357815 0.771078
v 0.291416 6.334408 0.436135
v 0.605832 7.357815 0.906692
v 0.200731 6.334408 0.484607
v 0.417304 7.357815 1.007462
v 0.102332 6.334408 0.514457
v 0.212740 7.357815 1.069516
v -0.000000 6.334408 0.524535
v -0.000000 7.357815 1.090469
v -0.102332 6.334408 0.514457
v -0.212740 7.357815 1.069516
v -0.200731 6.334408 0.484607
v -0.417304 7.357815 1.007462
v -0.291416 6.334408 0.436135
v -0.605832 7.357815 0.906691
v -0.370902 6.334408 0.370903
v -0.771078 7.357815 0.771078
v -0.436135 6.334408 0.291416
v -0.906691 7.357815 0.605832
v -0.484607 6.334408 0.200731
v -1.007462 7.357815 0.417304
v -0.514456 6.334408 0.102332
v -1.069516 7.357815 0.212740
v -0.524535 6.334408 -0.000000
v -1.090469 7.357815 -0.000000
v -0.514456 6.334408 -0.102332
v -1.069516 7.357815 -0.212740
v -0.484607 6.334408 -0.200731
v -1.007462 7.357815 -0.417305
v -0.436135 6.334408 -0.291416
v -0.906692 7.357815 -0.605832
v -0.370903 6.334408 -0.370902
v -0.771078 7.357815 -0.771078
v -0.291416 6.334408 -0.436135
v -0.605832 7.357815 -0.906692
v -0.200731 6.334408 -0.484607
v -0.417304 7.357815 -1.007462
v -0.102332 6.334408 -0.514457
v -0.212740 7.357815 -1.069516
v 0.000000 6.445410 -0.524535
v 0.000000 6.733365 -0.524535
v 0.102332 6.733365 -0.514457
v 0.102332 6.445410 -0.514457
v 0.200731 6.733365 -0.484607
v 0.200731 6.445410 -0.484607
v 0.291416 6.733365 -0.436135
v 0.291416 6.445410 -0.436135
v 0.370902 6.733365 -0.370902
v 0.370902 6.445410 -0.370902
v 0.436135 6.733365 -0.291416
v 0.436135 6.445410 -0.291416
v 0.484607 6.733365 -0.200731
v 0.484607 6.445410 -0.200731
v 0.514457 6.733365 -0.102332
v 0.514457 6.445410 -0.102332
v 0.524535 6.733365 0.000000
v 0.524535 6.445410 0.000000
v 0.514457 6.733365 0.102332
v 0.514457 6.445410 0.102332
v 0.484607 6.733365 0.200731
v 0.484607 6.445410 0.200731
v 0.436135 6.733365 0.291416
v 0.436135 6.445410 0.291416
v 0.370902 6.733365 0.370902
v 0.370902 6.445410 0.370902
v 0.291416 6.733365 0.436135
v 0.291416 6.445410 0.436135
v 0.200731 6.733365 0.484607
v 0.200731 6.445410 0.484607
v 0.102332 6.733365 0.514457
v 0.102332 6.445410 0.514457
v -0.000000 6.733365 0.524535
v -0.000000 6.445410 0.524535
v -0.102332 6.733365 0.514457
v -0.102332 6.445410 0.514457
v -0.200731 6.733365 0.484607
v -0.200731 6.445410 0.484607
v -0.291416 6.733365 0.436135
v -0.291416 6.445410 0.436135
v -0.370902 6.733365 0.370903
v -0.370902 6.445410 0.370903
v -0.436135 6.733365 0.291416
v -0.436135 6.445410 0.291416
v -0.484607 6.733365 0.200731
v -0.484607 6.445410 0.200731
v -0.514456 6.733365 0.102332
v -0.514456 6.445410 0.102332
v -0.524535 6.733365 -0.000000
v -0.524535 6.445410 -0.000000
v -0.514456 6.733365 -0.102332
v -0.514456 6.445410 -0.102332
v -0.484607 6.733365 -0.200731
v -0.484607 6.445410 -0.200731
v -0.436135 6.733365 -0.291416
v -0.436135 6.445410 -0.291416
v -0.370903 6.733365 -0.370902
v -0.370903 6.445410 -0.370902
v -0.291416 6.733365 -0.436135
v -0.291416 6.445410 -0.436135
v -0.200731 6.733365 -0.484607
v -0.200731 6.445410 -0.484607
v -0.102332 6.733365 -0.514457
v -0.102332 6.445410 -0.514457
v 0.000000 6.589388 -0.590709
v 0.115242 6.589388 -0.579359
v 0.226055 6.589388 -0.545744
v 0.328181 6.589388 -0.491157
v 0.417695 6.589388 -0.417695
v 0.491157 6.589388 -0.328181
v 0.545744 6.589388 -0.226055
v 0.579359 6.589388 -0.115242
v 0.590709 6.589388 0.000000
v 0.579359 6.589388 0.115242
v 0.545744 6.589388 0.226055
v 0.491157 6.589388 0.328181
v 0.417695 6.589388 0.417695
v 0.328181 6.589388 0.491157
v 0.226055 6.589388 0.545744
v 0.115242 6.589388 0.579359
v -0.000000 6.589388 0.590709
v -0.115242 6.589388 0.579359
v -0.226055 6.589388 0.545744
v -0.328181 6.589388 0.491157
v -0.417695 6.589388 0.417695
v -0.491157 6.589388 0.328181
v -0.545744 6.589388 0.226055
v -0.579359 6.589388 0.115242
v -0.590709 6.589388 -0.000000
v -0.579359 6.589388 -0.115242
v -0.545744 6.589388 -0.226055
v -0.491157 6.589388 -0.328180
v -0.417695 6.589388 -0.417695
v -0.328181 6.589388 -0.491157
v -0.226055 6.589388 -0.545744
v -0.115242 6.589388 -0.579359
v 0.000000 6.845833 -0.524535
v 0.102332 6.845833 -0.514457
v 0.200731 6.845833 -0.484607
v 0.291416 6.845833 -0.436135
v 0.370902 6.845833 -0.370902
v 0.436135 6.845833 -0.291416
v 0.484607 6.845833 -0.200731
v 0.514457 6.845833 -0.102332
v 0.524535 6.845833 0.000000
v 0.514457 6.845833 0.102332
v 0.484607 6.845833 0.200731
v 0.436135 6.845833 0.291416
v 0.370902 6.845833 0.370902
v 0.291416 6.845833 0.436135
v 0.200731 6.845833 0.484607
v 0.102332 6.845833 0.514457
v -0.000000 6.845833 0.524535
v -0.102332 6.845833 0.514457
v -0.200731 6.845833 0.484607
v -0.291416 6.845833 0.436135
v -0.370902 6.845833 0.370903
v -0.436135 6.845833 0.291416
v -0.484607 6.845833 0.200731
v -0.514456 6.845833 0.102332
v -0.524535 6.845833 -0.000000
v -0.514456 6.845833 -0.102332
v -0.484607 6.845833 -0.200731
v -0.436135 6.845833 -0.291416
v -0.370903 6.845833 -0.370902
v -0.291416 6.845833 -0.436135
v -0.200731 6.845833 -0.484607
v -0.102332 6.845833 -0.514457
v 0.000000 6.937315 -0.751962
v 0.000000 7.206072 -1.090469
v 0.212740 7.206072 -1.069516
v 0.146701 6.937315 -0.737513
v 0.417304 7.206072 -1.007462
v 0.287764 6.937315 -0.694722
v 0.605832 7.206072 -0.906692
v 0.417768 6.937315 -0.625234
v 0.771078 7.206072 -0.771078
v 0.531717 6.937315 -0.531717
v 0.906692 7.206072 -0.605832
v 0.625234 6.937315 -0.417768
v 1.007462 7.206072 -0.417304
v 0.694722 6.937315 -0.287763
v 1.069516 7.206072 -0.212740
v 0.737513 6.937315 -0.146701
v 1.090469 7.206072 0.000000
v 0.751962 6.937315 0.000000
v 1.069516 7.206072 0.212740
v 0.737513 6.937315 0.146701
v 1.007462 7.206072 0.417304
v 0.694723 6.937315 0.287763
v 0.906692 7.206072 0.605832
v 0.625234 6.937315 0.417768
v 0.771078 7.206072 0.771078
v 0.531717 6.937315 0.531718
v 0.605832 7.206072 0.906692
v 0.417768 6.937315 0.625234
v 0.417304 7.206072 1.007462
v 0.287764 6.937315 0.694722
v 0.212740 7.206072 1.069516
v 0.146701 6.937315 0.737513
v -0.000000 7.206072 1.090469
v -0.000000 6.937315 0.751962
v -0.212740 7.206072 1.069516
v -0.146700 6.937315 0.737513
v -0.417304 7.206072 1.007462
v -0.287763 6.937315 0.694722
v -0.605832 7.206072 0.906691
v -0.417768 6.937315 0.625234
v -0.771078 7.206072 0.771078
v -0.531717 6.937315 0.531718
v -0.906691 7.206072 0.605832
v -0.625234 6.937315 0.417768
v -1.007462 7.206072 0.417304
v -0.694722 6.937315 0.287764
v -1.069516 7.206072 0.212740
v -0.737513 6.937315 0.146701
v -1.090469 7.206072 -0.000000
v -0.751962 6.937315 -0.000000
v -1.069516 7.206072 -0.212740
v -0.737513 6.937315 -0.146701
v -1.007462 7.206072 -0.417305
v -0.694722 6.937315 -0.287764
v -0.906692 7.206072 -0.605832
v -0.625234 6.937315 -0.417768
v -0.771078 7.206072 -0.771078
v -0.531718 6.937315 -0.531717
v -0.605832 7.206072 -0.906692
v -0.417768 6.937315 -0.625234
v -0.417304 7.206072 -1.007462
v -0.287763 6.937315 -0.694722
v -0.212740 7.206072 -1.069516
v -0.146700 6.937315 -0.737513
v 0.000000 7.117026 -0.828072
v 0.161549 7.117026 -0.812161
v 0.316889 7.117026 -0.765038
v 0.460052 7.117026 -0.688516
v 0.585535 7.117026 -0.585535
v 0.688516 7.117026 -0.460052
v 0.765038 7.117026 -0.316889
v 0.812161 7.117026 -0.161549
v 0.828072 7.117026 0.000000
v 0.812161 7.117026 0.161549
v 0.765039 7.117026 0.316889
v 0.688516 7.117026 0.460052
v 0.585535 7.117026 0.585535
v 0.460052 7.117026 0.688516
v 0.316889 7.117026 0.765038
v 0.161549 7.117026 0.812160
v -0.000000 7.117026 0.828072
v -0.161549 7.117026 0.812160
v -0.316889 7.117026 0.765038
v -0.460052 7.117026 0.688516
v -0.585535 7.117026 0.585535
v -0.688516 7.117026 0.460052
v -0.765038 7.117026 0.316889
v -0.812160 7.117026 0.161549
v -0.828072 7.117026 -0.000000
v -0.812160 7.117026 -0.161549
v -0.765038 7.117026 -0.316889
v -0.688517 7.117026 -0.460052
v -0.585535 7.117026 -0.585535
v -0.460052 7.117026 -0.688516
v -0.316889 7.117026 -0.765038
v -0.161549 7.117026 -0.812161
v 0.000000 7.357815 -1.007462
v -0.000000 7.357815 1.007462
v 0.000000 7.357815 -0.906691
v 0.000000 7.357815 -0.771078
v 0.000000 7.357815 -0.605832
v 0.000000 7.357815 -0.417304
v -0.000000 7.357815 -0.212740
v -0.000000 7.357815 0.000000
v -0.000000 7.357815 0.212740
v -0.000000 7.357815 0.417304
v -0.000000 7.357815 0.605832
v -0.000000 7.357815 0.771078
v -0.000000 7.357815 0.906692
v -0.000000 6.334408 0.000000
v -0.000000 6.334408 0.484607
v -0.000000 6.334408 0.436135
v -0.000000 6.334408 0.370902
v -0.000000 6.334408 0.291416
v -0.000000 6.334408 0.200731
v -0.000000 6.334408 0.102332
v 0.000000 6.334408 -0.102332
v 0.000000 6.334408 -0.200731
v 0.000000 6.334408 -0.291416
v 0.000000 6.334408 -0.370902
v 0.000000 6.334408 -0.436135
v 0.000000 6.334408 -0.484607
vt 0.860962 0.490102
vt 0.828622 0.489878
vt 0.826132 0.464486
vt 0.858472 0.464709
vt 0.824090 0.432175
vt 0.856430 0.432399
vt 0.822571 0.394188
vt 0.854912 0.394411
vt 0.821637 0.351984
vt 0.853977 0.352207
vt 0.821321 0.307185
vt 0.853661 0.307409
vt 0.821637 0.261513
vt 0.853977 0.261737
vt 0.822571 0.216723
vt 0.854912 0.216946
vt 0.824090 0.174536
vt 0.856430 0.174759
vt 0.826132 0.136573
vt 0.858472 0.136797
vt 0.828621 0.104294
vt 0.860962 0.104518
vt 0.880224 0.559827
vt 0.912565 0.559827
vt 0.914346 0.597803
vt 0.882005 0.597803
vt 0.915572 0.639999
vt 0.883231 0.639999
vt 0.916197 0.684795
vt 0.883856 0.684795
vt 0.916197 0.730468
vt 0.883856 0.730468
vt 0.915572 0.775263
vt 0.883231 0.775263
vt 0.914346 0.817460
vt 0.882005 0.817460
vt 0.912565 0.855436
vt 0.880224 0.855436
vt 0.911891 0.104294
vt 0.944232 0.104294
vt 0.946012 0.142270
vt 0.913671 0.142270
vt 0.947238 0.184466
vt 0.914897 0.184466
vt 0.947864 0.229262
vt 0.915523 0.229262
vt 0.947864 0.274935
vt 0.915523 0.274935
vt 0.947238 0.319730
vt 0.914897 0.319730
vt 0.946012 0.361927
vt 0.913671 0.361927
vt 0.944232 0.399903
vt 0.911891 0.399903
vt 0.905094 0.419669
vt 0.872760 0.420357
vt 0.870636 0.378196
vt 0.902970 0.377508
vt 0.869058 0.333424
vt 0.901392 0.332736
vt 0.868086 0.287761
vt 0.900420 0.287073
vt 0.867758 0.242963
vt 0.900092 0.242275
vt 0.868086 0.200750
vt 0.900420 0.200062
vt 0.869058 0.162745
vt 0.901392 0.162056
vt 0.441243 0.643301
vt 0.415362 0.557980
vt 0.440736 0.595956
vt 0.458215 0.638153
vt 0.870636 0.130408
vt 0.902970 0.129720
vt 0.872761 0.104982
vt 0.905094 0.104294
vt 0.575303 0.544541
vt 0.617984 0.548745
vt 0.596437 0.553031
vt 0.574467 0.553031
vt 0.703586 0.583357
vt 0.679933 0.583860
vt 0.680955 0.571630
vt 0.704607 0.571127
vt 0.648393 0.573600
vt 0.618576 0.585166
vt 0.619597 0.572936
vt 0.649543 0.559827
vt 0.702826 0.598912
vt 0.679174 0.599415
vt 0.647538 0.591117
vt 0.617816 0.600721
vt 0.702359 0.617193
vt 0.678707 0.617696
vt 0.647011 0.611704
vt 0.617349 0.619002
vt 0.702201 0.637498
vt 0.678549 0.638001
vt 0.646833 0.634571
vt 0.617191 0.639307
vt 0.702359 0.659047
vt 0.678707 0.659550
vt 0.647011 0.658839
vt 0.617349 0.660856
vt 0.702826 0.681011
vt 0.679174 0.681515
vt 0.647538 0.683574
vt 0.617816 0.682821
vt 0.703586 0.702548
vt 0.679933 0.703051
vt 0.648393 0.707828
vt 0.618576 0.704357
vt 0.704607 0.722828
vt 0.680955 0.723331
vt 0.649543 0.730666
vt 0.619597 0.724637
vt 0.704635 0.462865
vt 0.728292 0.462865
vt 0.727436 0.481132
vt 0.703778 0.481132
vt 0.759854 0.469530
vt 0.789664 0.462865
vt 0.788808 0.481132
vt 0.758889 0.490102
vt 0.705225 0.442568
vt 0.728883 0.442568
vt 0.760518 0.446672
vt 0.790254 0.442568
vt 0.705525 0.421020
vt 0.729183 0.421020
vt 0.760857 0.422406
vt 0.790555 0.421020
vt 0.705525 0.399051
vt 0.729183 0.399051
vt 0.760857 0.397665
vt 0.790555 0.399051
vt 0.705225 0.377503
vt 0.728883 0.377503
vt 0.760518 0.373399
vt 0.790254 0.377503
vt 0.704635 0.357206
vt 0.728292 0.357206
vt 0.759854 0.350541
vt 0.789664 0.357206
vt 0.703778 0.338939
vt 0.727436 0.338939
vt 0.758889 0.329970
vt 0.788808 0.338939
vt 0.821294 0.587063
vt 0.797637 0.587063
vt 0.798493 0.568796
vt 0.822151 0.568796
vt 0.766076 0.580399
vt 0.736265 0.587063
vt 0.737122 0.568796
vt 0.767040 0.559827
vt 0.820704 0.607361
vt 0.797047 0.607361
vt 0.765411 0.603256
vt 0.735675 0.607361
vt 0.820404 0.628908
vt 0.796746 0.628908
vt 0.765073 0.627522
vt 0.735374 0.628908
vt 0.820404 0.650878
vt 0.796746 0.650878
vt 0.765073 0.652264
vt 0.735374 0.650878
vt 0.820704 0.672425
vt 0.797047 0.672425
vt 0.765411 0.676529
vt 0.735675 0.672425
vt 0.821294 0.692722
vt 0.797637 0.692722
vt 0.766076 0.699387
vt 0.736265 0.692722
vt 0.822151 0.710989
vt 0.798493 0.710989
vt 0.767040 0.719959
vt 0.737122 0.710990
vt 0.585233 0.586663
vt 0.561575 0.586499
vt 0.562773 0.570972
vt 0.586430 0.571136
vt 0.530185 0.577313
vt 0.500205 0.586075
vt 0.501402 0.570548
vt 0.531534 0.559827
vt 0.584250 0.604923
vt 0.560593 0.604760
vt 0.529078 0.597877
vt 0.499222 0.604336
vt 0.583519 0.625216
vt 0.559863 0.625053
vt 0.528256 0.620730
vt 0.498492 0.624629
vt 0.583070 0.646761
vt 0.559413 0.646598
vt 0.527750 0.644993
vt 0.498043 0.646173
vt 0.582918 0.668730
vt 0.559261 0.668567
vt 0.527579 0.669734
vt 0.497891 0.668143
vt 0.583070 0.690279
vt 0.559413 0.690116
vt 0.527750 0.694001
vt 0.498043 0.689692
vt 0.583519 0.710580
vt 0.559862 0.710416
vt 0.528256 0.716863
vt 0.498492 0.709992
vt 0.584250 0.728853
vt 0.560593 0.728689
vt 0.529078 0.737441
vt 0.499222 0.728265
vt 0.585233 0.744395
vt 0.561575 0.744231
vt 0.530185 0.754944
vt 0.500205 0.743807
vt 0.586430 0.756609
vt 0.562773 0.756445
vt 0.531534 0.768699
vt 0.501402 0.756021
vt 0.594611 0.585677
vt 0.595632 0.573446
vt 0.593852 0.601231
vt 0.593384 0.619512
vt 0.593226 0.639817
vt 0.593384 0.661366
vt 0.593851 0.683331
vt 0.594611 0.704867
vt 0.595632 0.725147
vt 0.813634 0.462865
vt 0.812778 0.481132
vt 0.814225 0.442568
vt 0.814525 0.421020
vt 0.814525 0.399051
vt 0.814225 0.377503
vt 0.813634 0.357206
vt 0.812778 0.338939
vt 0.712295 0.587063
vt 0.713151 0.568796
vt 0.711705 0.607361
vt 0.711404 0.628908
vt 0.711404 0.650878
vt 0.711705 0.672425
vt 0.712295 0.692722
vt 0.713151 0.710990
vt 0.476235 0.585910
vt 0.477433 0.570383
vt 0.475253 0.604170
vt 0.474523 0.624463
vt 0.474073 0.646008
vt 0.473921 0.667977
vt 0.474073 0.689526
vt 0.474522 0.709827
vt 0.475253 0.728099
vt 0.476235 0.743641
vt 0.477433 0.755856
vt 0.644794 0.274816
vt 0.649556 0.323173
vt 0.618061 0.323173
vt 0.622824 0.274816
vt 0.151861 0.391293
vt 0.125433 0.440736
vt 0.087457 0.415362
vt 0.123023 0.372025
vt 0.666341 0.270530
vt 0.680446 0.317029
vt 0.183904 0.404566
vt 0.167630 0.458215
vt 0.686638 0.262123
vt 0.709544 0.304976
vt 0.217920 0.411332
vt 0.212425 0.467125
vt 0.704906 0.249917
vt 0.735731 0.287479
vt 0.252603 0.411332
vt 0.258098 0.467125
vt 0.720440 0.234382
vt 0.758002 0.265208
vt 0.286620 0.404566
vt 0.302894 0.458215
vt 0.732646 0.216115
vt 0.775500 0.239021
vt 0.318662 0.391293
vt 0.345090 0.440736
vt 0.741053 0.195818
vt 0.787552 0.209923
vt 0.347500 0.372025
vt 0.383066 0.415362
vt 0.745339 0.174271
vt 0.793697 0.179033
vt 0.372025 0.347500
vt 0.415362 0.383066
vt 0.745339 0.152301
vt 0.793697 0.147538
vt 0.391293 0.318662
vt 0.440736 0.345090
vt 0.741053 0.130754
vt 0.787552 0.116648
vt 0.404566 0.286619
vt 0.458215 0.302894
vt 0.732646 0.110456
vt 0.775500 0.087551
vt 0.411332 0.252603
vt 0.467125 0.258098
vt 0.720440 0.092189
vt 0.758002 0.061363
vt 0.411332 0.217920
vt 0.467125 0.212425
vt 0.704906 0.076654
vt 0.735731 0.039093
vt 0.404566 0.183904
vt 0.458215 0.167629
vt 0.686638 0.064449
vt 0.709544 0.021595
vt 0.391293 0.151861
vt 0.440736 0.125433
vt 0.666341 0.056041
vt 0.680446 0.009543
vt 0.372025 0.123023
vt 0.415362 0.087457
vt 0.644794 0.051755
vt 0.649557 0.003398
vt 0.347500 0.098498
vt 0.383066 0.055161
vt 0.622824 0.051755
vt 0.618061 0.003398
vt 0.318662 0.079230
vt 0.345090 0.029787
vt 0.601277 0.056041
vt 0.587171 0.009543
vt 0.286619 0.065957
vt 0.302894 0.012308
vt 0.580979 0.064449
vt 0.558074 0.021595
vt 0.252603 0.059191
vt 0.258098 0.003398
vt 0.562712 0.076654
vt 0.531887 0.039093
vt 0.217920 0.059191
vt 0.212425 0.003398
vt 0.547178 0.092189
vt 0.509616 0.061363
vt 0.183904 0.065957
vt 0.167629 0.012309
vt 0.534972 0.110456
vt 0.492118 0.087551
vt 0.151861 0.079230
vt 0.125433 0.029787
vt 0.526564 0.130754
vt 0.480066 0.116648
vt 0.123023 0.098499
vt 0.087457 0.055161
vt 0.522278 0.152301
vt 0.473921 0.147538
vt 0.098498 0.123023
vt 0.055161 0.087457
vt 0.522278 0.174271
vt 0.473921 0.179033
vt 0.079230 0.151861
vt 0.029787 0.125433
vt 0.526564 0.195818
vt 0.480066 0.209923
vt 0.065957 0.183904
vt 0.012308 0.167630
vt 0.534972 0.216115
vt 0.492118 0.239021
vt 0.059191 0.217920
vt 0.003398 0.212425
vt 0.547177 0.234382
vt 0.509616 0.265208
vt 0.059191 0.252603
vt 0.003398 0.258098
vt 0.562712 0.249917
vt 0.531886 0.287479
vt 0.065957 0.286620
vt 0.012309 0.302894
vt 0.580979 0.262123
vt 0.558074 0.304976
vt 0.079230 0.318662
vt 0.029787 0.345090
vt 0.601277 0.270530
vt 0.587171 0.317029
vt 0.098499 0.347500
vt 0.055161 0.383066
vt 0.873428 0.838556
vt 0.834491 0.852629
vt 0.832600 0.833346
vt 0.871712 0.821046
vt 0.831049 0.808811
vt 0.870303 0.798766
vt 0.829896 0.779964
vt 0.869256 0.772571
vt 0.829186 0.747916
vt 0.868611 0.743468
vt 0.828947 0.713897
vt 0.868394 0.712575
vt 0.829186 0.679215
vt 0.868612 0.681081
vt 0.829896 0.645202
vt 0.869256 0.650195
vt 0.831049 0.613167
vt 0.870303 0.621104
vt 0.832600 0.584339
vt 0.871712 0.594926
vt 0.834491 0.559827
vt 0.873428 0.572667
vt 0.996602 0.318455
vt 0.957418 0.328771
vt 0.956066 0.299933
vt 0.995374 0.292268
vt 0.955134 0.267891
vt 0.994528 0.263170
vt 0.954659 0.233874
vt 0.994097 0.232280
vt 0.954659 0.199191
vt 0.994097 0.200785
vt 0.955134 0.165175
vt 0.994528 0.169895
vt 0.956066 0.133132
vt 0.995374 0.140797
vt 0.957418 0.104294
vt 0.996602 0.114610
vt 0.661273 0.747779
vt 0.700457 0.737463
vt 0.701808 0.766300
vt 0.662500 0.773966
vt 0.702740 0.798343
vt 0.663346 0.803064
vt 0.703215 0.832360
vt 0.663777 0.833953
vt 0.703215 0.867042
vt 0.663777 0.865449
vt 0.702740 0.901059
vt 0.663346 0.896339
vt 0.701808 0.933102
vt 0.662500 0.925436
vt 0.700457 0.961940
vt 0.661273 0.951623
vt 0.965929 0.790814
vt 0.926793 0.799314
vt 0.925179 0.767298
vt 0.964464 0.761740
vt 0.923981 0.733299
vt 0.963376 0.730867
vt 0.923243 0.698624
vt 0.962705 0.699379
vt 0.922994 0.664606
vt 0.962479 0.668487
vt 0.923243 0.632550
vt 0.962705 0.639377
vt 0.923981 0.603690
vt 0.963376 0.613170
vt 0.925179 0.579135
vt 0.964464 0.590871
vt 0.926793 0.559827
vt 0.965929 0.573338
vt 0.467125 0.728621
vt 0.467125 0.682948
vt 0.012308 0.773417
vt 0.003398 0.728621
vt 0.003398 0.682948
vt 0.029280 0.768269
vt 0.029787 0.815613
vt 0.055161 0.853589
vt 0.420640 0.649551
vt 0.383066 0.525685
vt 0.458215 0.773417
vt 0.012308 0.638153
vt 0.049883 0.762019
vt 0.087457 0.885885
vt 0.029787 0.595956
vt 0.077610 0.753608
vt 0.125433 0.911259
vt 0.055161 0.557980
vt 0.111395 0.743359
vt 0.167629 0.928738
vt 0.087457 0.525685
vt 0.149941 0.731666
vt 0.212425 0.937648
vt 0.125433 0.500310
vt 0.191766 0.718979
vt 0.258098 0.937648
vt 0.167630 0.482832
vt 0.235262 0.705785
vt 0.302894 0.928738
vt 0.212425 0.473921
vt 0.278758 0.692590
vt 0.345090 0.911259
vt 0.258098 0.473921
vt 0.320582 0.679903
vt 0.383066 0.885885
vt 0.302894 0.482832
vt 0.359128 0.668210
vt 0.415362 0.853589
vt 0.345090 0.500310
vt 0.392913 0.657962
vt 0.440736 0.815613
vt 0.532622 0.540337
vt 0.552920 0.548745
vt 0.478207 0.408968
vt 0.587595 0.419742
vt 0.585452 0.441500
vt 0.473921 0.430515
vt 0.696982 0.430515
vt 0.696982 0.452485
vt 0.514355 0.528132
vt 0.576318 0.534235
vt 0.638281 0.540337
vt 0.498820 0.512597
vt 0.577684 0.520364
vt 0.656548 0.528132
vt 0.486615 0.494330
vt 0.579349 0.503463
vt 0.672083 0.512597
vt 0.478207 0.474033
vt 0.581248 0.484181
vt 0.684289 0.494330
vt 0.473921 0.452485
vt 0.583309 0.463259
vt 0.692696 0.474033
vt 0.486615 0.388671
vt 0.589655 0.398819
vt 0.692696 0.408968
vt 0.498820 0.370404
vt 0.591555 0.379537
vt 0.684289 0.388671
vt 0.514355 0.354869
vt 0.593219 0.362636
vt 0.672083 0.370404
vt 0.532622 0.342663
vt 0.594585 0.348766
vt 0.656548 0.354869
vt 0.552920 0.334256
vt 0.595600 0.338460
vt 0.638281 0.342663
vt 0.574467 0.329970
vt 0.596437 0.329970
vt 0.617984 0.334256
vn 0.0000 -0.5659 -0.8245
vn 0.0000 0.6857 -0.7279
vn 0.1420 0.6857 -0.7139
vn 0.1608 -0.5659 -0.8086
vn 0.2785 0.6857 -0.6725
vn 0.3155 -0.5659 -0.7617
vn 0.4044 0.6857 -0.6052
vn 0.4581 -0.5659 -0.6855
vn 0.5147 0.6857 -0.5147
vn 0.5830 -0.5659 -0.5830
vn 0.6052 0.6857 -0.4044
vn 0.6855 -0.5659 -0.4581
vn 0.6725 0.6857 -0.2785
vn 0.7617 -0.5659 -0.3155
vn 0.7139 0.6857 -0.1420
vn 0.8086 -0.5659 -0.1608
vn 0.7279 0.6857 0.0000
vn 0.8245 -0.5659 0.0000
vn 0.7139 0.6857 0.1420
vn 0.8086 -0.5659 0.1608
vn 0.6725 0.6857 0.2785
vn 0.7617 -0.5659 0.3155
vn 0.6052 0.6857 0.4044
vn 0.6855 -0.5659 0.4581
vn 0.5147 0.6857 0.5147
vn 0.5830 -0.5659 0.5830
vn 0.4044 0.6857 0.6052
vn 0.4581 -0.5659 0.6855
vn 0.2785 0.6857 0.6725
vn 0.3155 -0.5659 0.7617
vn 0.1420 0.6857 0.7139
vn 0.1608 -0.5659 0.8086
vn 0.0000 0.6857 0.7279
vn 0.0000 -0.5659 0.8245
vn -0.1420 0.6857 0.7139
vn -0.1608 -0.5659 0.8086
vn -0.2785 0.6857 0.6725
vn -0.3155 -0.5659 0.7617
vn -0.4044 0.6857 0.6052
vn -0.4581 -0.5659 0.6855
vn -0.5147 0.6857 0.5147
vn -0.5830 -0.5659 0.5830
vn -0.6052 0.6857 0.4044
vn -0.6855 -0.5659 0.4581
vn -0.6725 0.6857 0.2785
vn -0.7617 -0.5659 0.3155
vn -0.7139 0.6857 0.1420
vn -0.8086 -0.5659 0.1608
vn -0.7279 0.6857 0.0000
vn -0.8245 -0.5659 0.0000
vn -0.7139 0.6857 -0.1420
vn -0.8086 -0.5659 -0.1608
vn -0.6725 0.6857 -0.2785
vn -0.7617 -0.5659 -0.3155
vn -0.6052 0.6857 -0.4044
vn -0.6855 -0.5659 -0.4581
vn -0.5147 0.6857 -0.5147
vn -0.5830 -0.5659 -0.5830
vn -0.4044 0.6857 -0.6052
vn -0.4581 -0.5659 -0.6855
vn -0.2785 0.6857 -0.6725
vn -0.3155 -0.5659 -0.7617
vn 0.0000 1.0000 0.0000
vn -0.1420 0.6857 -0.7139
vn -0.1608 -0.5659 -0.8086
vn 0.0000 -1.0000 0.0000
vn 0.2785 -0.6857 0.6725
vn 0.1420 -0.6857 0.7139
vn 0.0000 -0.6857 0.7279
vn -0.1420 -0.6857 -0.7139
vn -0.1904 -0.2166 -0.9575
vn 0.0000 -0.2166 -0.9763
vn 0.0000 -0.6857 -0.7279
vn -0.1951 0.0000 -0.9808
vn -0.1904 0.2166 -0.9575
vn 0.0000 0.2166 -0.9763
vn 0.0000 0.0000 -1.0000
vn -0.2785 -0.6857 -0.6725
vn -0.3736 -0.2166 -0.9019
vn -0.3827 0.0000 -0.9239
vn -0.3736 0.2166 -0.9019
vn -0.4044 -0.6857 -0.6052
vn -0.5424 -0.2166 -0.8117
vn -0.5556 0.0000 -0.8314
vn -0.5424 0.2166 -0.8117
vn -0.5147 -0.6857 -0.5147
vn -0.6903 -0.2166 -0.6903
vn -0.7071 0.0000 -0.7071
vn -0.6903 0.2166 -0.6903
vn -0.6052 -0.6857 -0.4044
vn -0.8117 -0.2166 -0.5424
vn -0.8314 0.0000 -0.5556
vn -0.8117 0.2166 -0.5424
vn -0.6725 -0.6857 -0.2785
vn -0.9019 -0.2166 -0.3736
vn -0.9239 0.0000 -0.3827
vn -0.9019 0.2166 -0.3736
vn -0.7139 -0.6857 -0.1420
vn -0.9575 -0.2166 -0.1904
vn -0.9808 0.0000 -0.1951
vn -0.9575 0.2166 -0.1904
vn -0.7279 -0.6857 0.0000
vn -0.9763 -0.2166 0.0000
vn -1.0000 0.0000 0.0000
vn -0.9763 0.2166 0.0000
vn -0.7139 -0.6857 0.1420
vn -0.9575 -0.2166 0.1904
vn -0.9808 0.0000 0.1951
vn -0.9575 0.2166 0.1904
vn -0.6725 -0.6857 0.2785
vn -0.9019 -0.2166 0.3736
vn -0.9239 0.0000 0.3827
vn -0.9019 0.2166 0.3736
vn -0.6052 -0.6857 0.4044
vn -0.8117 -0.2166 0.5424
vn -0.8314 0.0000 0.5556
vn -0.8117 0.2166 0.5424
vn -0.5147 -0.6857 0.5147
vn -0.6903 -0.2166 0.6903
vn -0.7071 0.0000 0.7071
vn -0.6903 0.2166 0.6903
vn -0.4044 -0.6857 0.6052
vn -0.5424 -0.2166 0.8117
vn -0.5556 0.0000 0.8314
vn -0.5424 0.2166 0.8117
vn -0.2785 -0.6857 0.6725
vn -0.3736 -0.2166 0.9019
vn -0.3827 0.0000 0.9239
vn -0.3736 0.2166 0.9019
vn -0.1420 -0.6857 0.7139
vn -0.1904 -0.2166 0.9575
vn -0.1951 0.0000 0.9808
vn -0.1904 0.2166 0.9575
vn 0.0000 -0.2166 0.9763
vn 0.0000 0.0000 1.0000
vn 0.0000 0.2166 0.9763
vn 0.1904 -0.2166 0.9575
vn 0.1951 0.0000 0.9808
vn 0.1904 0.2166 0.9575
vn 0.3736 -0.2166 0.9019
vn 0.3827 0.0000 0.9239
vn 0.3736 0.2166 0.9019
vn 0.4044 -0.6857 0.6052
vn 0.5424 -0.2166 0.8117
vn 0.5556 0.0000 0.8314
vn 0.5424 0.2166 0.8117
vn 0.5147 -0.6857 0.5147
vn 0.6903 -0.2166 0.6903
vn 0.7071 0.0000 0.7071
vn 0.6903 0.2166 0.6903
vn 0.6052 -0.6857 0.4044
vn 0.8117 -0.2166 0.5424
vn 0.8314 0.0000 0.5556
vn 0.8117 0.2166 0.5424
vn 0.6725 -0.6857 0.2785
vn 0.9019 -0.2166 0.3736
vn 0.9239 0.0000 0.3827
vn 0.9019 0.2166 0.3736
vn 0.7139 -0.6857 0.1420
vn 0.9575 -0.2166 0.1904
vn 0.9808 0.0000 0.1951
vn 0.9575 0.2166 0.1904
vn 0.7279 -0.6857 0.0000
vn 0.9763 -0.2166 0.0000
vn 1.0000 0.0000 0.0000
vn 0.9763 0.2166 0.0000
vn 0.7139 -0.6857 -0.1420
vn 0.9575 -0.2166 -0.1904
vn 0.9808 0.0000 -0.1951
vn 0.9575 0.2166 -0.1904
vn 0.6725 -0.6857 -0.2785
vn 0.9019 -0.2166 -0.3736
vn 0.9239 0.0000 -0.3827
vn 0.9019 0.2166 -0.3736
vn 0.6052 -0.6857 -0.4044
vn 0.8117 -0.2166 -0.5424
vn 0.8314 0.0000 -0.5556
vn 0.8117 0.2166 -0.5424
vn 0.5147 -0.6857 -0.5147
vn 0.6903 -0.2166 -0.6903
vn 0.7071 0.0000 -0.7071
vn 0.6903 0.2166 -0.6903
vn 0.4044 -0.6857 -0.6052
vn 0.5424 -0.2166 -0.8117
vn 0.5556 0.0000 -0.8314
vn 0.5424 0.2166 -0.8117
vn 0.2785 -0.6857 -0.6725
vn 0.3736 -0.2166 -0.9019
vn 0.3827 0.0000 -0.9239
vn 0.3736 0.2166 -0.9019
vn 0.1420 -0.6857 -0.7139
vn 0.1904 -0.2166 -0.9575
vn 0.1951 0.0000 -0.9808
vn 0.1904 0.2166 -0.9575
vn -0.1594 -0.5766 -0.8013
vn 0.0000 -0.5766 -0.8170
vn -0.3126 -0.5766 -0.7548
vn -0.4539 -0.5766 -0.6793
vn -0.5777 -0.5766 -0.5777
vn -0.6793 -0.5766 -0.4539
vn -0.7548 -0.5766 -0.3126
vn -0.8013 -0.5766 -0.1594
vn -0.8170 -0.5766 0.0000
vn -0.8013 -0.5766 0.1594
vn -0.7548 -0.5766 0.3126
vn -0.6793 -0.5766 0.4539
vn -0.5777 -0.5766 0.5777
vn -0.4539 -0.5766 0.6793
vn -0.3126 -0.5766 0.7548
vn -0.1594 -0.5766 0.8013
vn 0.0000 -0.5766 0.8170
vn 0.1594 -0.5766 0.8013
vn 0.3126 -0.5766 0.7548
vn 0.4539 -0.5766 0.6793
vn 0.5777 -0.5766 0.5777
vn 0.6793 -0.5766 0.4539
vn 0.7548 -0.5766 0.3126
vn 0.8013 -0.5766 0.1594
vn 0.8170 -0.5766 0.0000
vn 0.8013 -0.5766 -0.1594
vn 0.7548 -0.5766 -0.3126
vn 0.6793 -0.5766 -0.4539
vn 0.5777 -0.5766 -0.5777
vn 0.4539 -0.5766 -0.6793
vn 0.3126 -0.5766 -0.7548
vn 0.1594 -0.5766 -0.8013
vn -0.1390 -0.7017 -0.6988
vn 0.0000 -0.7017 -0.7125
vn -0.1300 -0.7455 -0.6536
vn 0.0000 -0.7455 -0.6665
vn -0.2726 -0.7017 -0.6582
vn -0.2550 -0.7455 -0.6157
vn -0.3958 -0.7017 -0.5924
vn -0.3703 -0.7455 -0.5541
vn -0.5038 -0.7017 -0.5038
vn -0.4713 -0.7455 -0.4712
vn -0.5924 -0.7017 -0.3958
vn -0.5541 -0.7455 -0.3703
vn -0.6582 -0.7017 -0.2726
vn -0.6157 -0.7455 -0.2550
vn -0.6988 -0.7017 -0.1390
vn -0.6536 -0.7455 -0.1300
vn -0.7125 -0.7017 0.0000
vn -0.6665 -0.7455 0.0000
vn -0.6988 -0.7017 0.1390
vn -0.6536 -0.7455 0.1300
vn -0.6582 -0.7017 0.2726
vn -0.6157 -0.7455 0.2550
vn -0.5924 -0.7017 0.3958
vn -0.5541 -0.7455 0.3703
vn -0.5038 -0.7017 0.5038
vn -0.4713 -0.7455 0.4713
vn -0.3958 -0.7017 0.5924
vn -0.3703 -0.7455 0.5541
vn -0.2726 -0.7017 0.6582
vn -0.2550 -0.7455 0.6157
vn -0.1390 -0.7017 0.6988
vn -0.1300 -0.7455 0.6536
vn 0.0000 -0.7017 0.7125
vn 0.0000 -0.7455 0.6665
vn 0.1390 -0.7017 0.6988
vn 0.1300 -0.7455 0.6536
vn 0.2726 -0.7017 0.6582
vn 0.2550 -0.7455 0.6157
vn 0.3958 -0.7017 0.5924
vn 0.3703 -0.7455 0.5541
vn 0.5038 -0.7017 0.5038
vn 0.4713 -0.7455 0.4713
vn 0.5924 -0.7017 0.3958
vn 0.5541 -0.7455 0.3703
vn 0.6582 -0.7017 0.2726
vn 0.6157 -0.7455 0.2550
vn 0.6988 -0.7017 0.1390
vn 0.6536 -0.7455 0.1300
vn 0.7125 -0.7017 0.0000
vn 0.6665 -0.7455 0.0000
vn 0.6988 -0.7017 -0.1390
vn 0.6536 -0.7455 -0.1300
vn 0.6582 -0.7017 -0.2726
vn 0.6157 -0.7455 -0.2550
vn 0.5924 -0.7017 -0.3958
vn 0.5541 -0.7455 -0.3703
vn 0.5038 -0.7017 -0.5038
vn 0.4713 -0.7455 -0.4713
vn 0.3958 -0.7017 -0.5924
vn 0.3703 -0.7455 -0.5541
vn 0.2726 -0.7017 -0.6582
vn 0.2550 -0.7455 -0.6157
vn 0.1390 -0.7017 -0.6988
vn 0.1300 -0.7455 -0.6536
usemtl None
s 1
f 404/325/205 212/326/206 214/327/207 405/328/208
f 405/328/208 214/327/207 216/329/209 407/330/210
f 407/330/210 216/329/209 218/331/211 409/332/212
f 409/332/212 218/331/211 220/333/213 411/334/214
f 411/334/214 220/333/213 222/335/215 413/336/216
f 413/336/216 222/335/215 224/337/217 415/338/218
f 415/338/218 224/337/217 226/339/219 417/340/220
f 417/340/220 226/339/219 228/341/221 419/342/222
f 419/342/222 228/341/221 230/343/223 421/344/224
f 421/344/224 230/343/223 232/345/225 423/346/226
f 423/347/226 232/348/225 234/349/227 425/350/228
f 425/350/228 234/349/227 236/351/229 427/352/230
f 427/352/230 236/351/229 238/353/231 429/354/232
f 429/354/232 238/353/231 240/355/233 431/356/234
f 431/356/234 240/355/233 242/357/235 433/358/236
f 433/358/236 242/357/235 244/359/237 435/360/238
f 435/360/238 244/359/237 246/361/239 437/362/240
f 437/363/240 246/364/239 248/365/241 439/366/242
f 439/366/242 248/365/241 250/367/243 441/368/244
f 441/368/244 250/367/243 252/369/245 443/370/246
f 443/370/246 252/369/245 254/371/247 445/372/248
f 445/372/248 254/371/247 256/373/249 447/374/250
f 447/374/250 256/373/249 258/375/251 449/376/252
f 449/376/252 258/375/251 260/377/253 451/378/254
f 451/379/254 260/380/253 262/381/255 453/382/256
f 453/382/256 262/381/255 264/383/257 455/384/258
f 455/384/258 264/383/257 266/385/259 457/386/260
f 457/386/260 266/385/259 268/387/261 459/388/262
f 459/388/262 268/387/261 270/389/263 461/390/264
f 461/390/264 270/389/263 272/391/265 463/392/266
f 500/393/267 248/394/241 246/395/239 244/396/237
f 463/392/266 272/391/265 274/397/268 465/398/269
f 465/398/269 274/397/268 212/399/206 404/400/205
f 513/401/270 239/402/271 241/403/272 243/404/273
f 273/405/274 338/406/275 275/407/276 211/408/277
f 370/409/278 337/410/279 276/411/280 339/412/281
f 271/413/282 336/414/283 338/406/275 273/405/274
f 369/415/284 335/416/285 337/410/279 370/409/278
f 269/417/286 334/418/287 336/414/283 271/413/282
f 368/419/288 333/420/289 335/416/285 369/415/284
f 267/421/290 332/422/291 334/418/287 269/417/286
f 367/423/292 331/424/293 333/420/289 368/419/288
f 265/425/294 330/426/295 332/422/291 267/421/290
f 366/427/296 329/428/297 331/424/293 367/423/292
f 263/429/298 328/430/299 330/426/295 265/425/294
f 365/431/300 327/432/301 329/428/297 366/427/296
f 261/433/302 326/434/303 328/430/299 263/429/298
f 364/435/304 325/436/305 327/432/301 365/431/300
f 259/437/306 324/438/307 326/434/303 261/433/302
f 363/439/308 323/440/309 325/436/305 364/435/304
f 257/441/310 322/442/311 324/443/307 259/444/306
f 362/445/312 321/446/313 323/447/309 363/448/308
f 255/449/314 320/450/315 322/442/311 257/441/310
f 361/451/316 319/452/317 321/446/313 362/445/312
f 253/453/318 318/454/319 320/450/315 255/449/314
f 360/455/320 317/456/321 319/452/317 361/451/316
f 251/457/322 316/458/323 318/454/319 253/453/318
f 359/459/324 315/460/325 317/456/321 360/455/320
f 249/461/326 314/462/327 316/458/323 251/457/322
f 358/463/328 313/464/329 315/460/325 359/459/324
f 247/465/330 312/466/331 314/462/327 249/461/326
f 357/467/332 311/468/333 313/464/329 358/463/328
f 245/469/334 310/470/335 312/466/331 247/465/330
f 356/471/336 309/472/337 311/468/333 357/467/332
f 243/473/273 308/474/338 310/475/335 245/476/334
f 355/477/339 307/478/340 309/479/337 356/480/336
f 241/481/272 306/482/341 308/474/338 243/473/273
f 354/483/342 305/484/343 307/478/340 355/477/339
f 239/485/271 304/486/344 306/482/341 241/481/272
f 353/487/345 303/488/346 305/484/343 354/483/342
f 237/489/347 302/490/348 304/486/344 239/485/271
f 352/491/349 301/492/350 303/488/346 353/487/345
f 235/493/351 300/494/352 302/490/348 237/489/347
f 351/495/353 299/496/354 301/492/350 352/491/349
f 233/497/355 298/498/356 300/494/352 235/493/351
f 350/499/357 297/500/358 299/496/354 351/495/353
f 231/501/359 296/502/360 298/498/356 233/497/355
f 349/503/361 295/504/362 297/500/358 350/499/357
f 229/505/363 294/506/364 296/507/360 231/508/359
f 348/509/365 293/510/366 295/511/362 349/512/361
f 227/513/367 292/514/368 294/506/364 229/505/363
f 347/515/369 291/516/370 293/510/366 348/509/365
f 225/517/371 290/518/372 292/514/368 227/513/367
f 346/519/373 289/520/374 291/516/370 347/515/369
f 223/521/375 288/522/376 290/518/372 225/517/371
f 345/523/377 287/524/378 289/520/374 346/519/373
f 221/525/379 286/526/380 288/522/376 223/521/375
f 344/527/381 285/528/382 287/524/378 345/523/377
f 219/529/383 284/530/384 286/526/380 221/525/379
f 343/531/385 283/532/386 285/528/382 344/527/381
f 217/533/387 282/534/388 284/530/384 219/529/383
f 342/535/389 281/536/390 283/532/386 343/531/385
f 215/537/391 280/538/392 282/534/388 217/533/387
f 341/539/393 279/540/394 281/536/390 342/535/389
f 213/541/395 278/542/396 280/538/392 215/537/391
f 340/543/397 277/544/398 279/540/394 341/539/393
f 211/545/277 275/546/276 278/542/396 213/541/395
f 339/547/281 276/548/280 277/544/398 340/543/397
f 275/546/276 339/547/281 340/543/397 278/542/396
f 278/542/396 340/543/397 341/539/393 280/538/392
f 280/538/392 341/539/393 342/535/389 282/534/388
f 282/534/388 342/535/389 343/531/385 284/530/384
f 284/530/384 343/531/385 344/527/381 286/526/380
f 286/526/380 344/527/381 345/523/377 288/522/376
f 288/522/376 345/523/377 346/519/373 290/518/372
f 290/518/372 346/519/373 347/515/369 292/514/368
f 292/514/368 347/515/369 348/509/365 294/506/364
f 294/506/364 348/509/365 349/512/361 296/507/360
f 296/502/360 349/503/361 350/499/357 298/498/356
f 298/498/356 350/499/357 351/495/353 300/494/352
f 300/494/352 351/495/353 352/491/349 302/490/348
f 302/490/348 352/491/349 353/487/345 304/486/344
f 304/486/344 353/487/345 354/483/342 306/482/341
f 306/482/341 354/483/342 355/477/339 308/474/338
f 308/474/338 355/477/339 356/480/336 310/475/335
f 310/470/335 356/471/336 357/467/332 312/466/331
f 312/466/331 357/467/332 358/463/328 314/462/327
f 314/462/327 358/463/328 359/459/324 316/458/323
f 316/458/323 359/459/324 360/455/320 318/454/319
f 318/454/319 360/455/320 361/451/316 320/450/315
f 320/450/315 361/451/316 362/445/312 322/442/311
f 322/442/311 362/445/312 363/448/308 324/443/307
f 324/438/307 363/439/308 364/435/304 326/434/303
f 326/434/303 364/435/304 365/431/300 328/430/299
f 328/430/299 365/431/300 366/427/296 330/426/295
f 330/426/295 366/427/296 367/423/292 332/422/291
f 332/422/291 367/423/292 368/419/288 334/418/287
f 334/418/287 368/419/288 369/415/284 336/414/283
f 336/414/283 369/415/284 370/409/278 338/406/275
f 338/406/275 370/409/278 339/412/281 275/407/276
f 337/410/279 402/549/399 371/550/400 276/411/280
f 335/416/285 401/551/401 402/549/399 337/410/279
f 333/420/289 400/552/402 401/551/401 335/416/285
f 331/424/293 399/553/403 400/552/402 333/420/289
f 329/428/297 398/554/404 399/553/403 331/424/293
f 327/432/301 397/555/405 398/554/404 329/428/297
f 325/436/305 396/556/406 397/555/405 327/432/301
f 323/440/309 395/557/407 396/556/406 325/436/305
f 321/446/313 394/558/408 395/559/407 323/447/309
f 319/452/317 393/560/409 394/558/408 321/446/313
f 317/456/321 392/561/410 393/560/409 319/452/317
f 315/460/325 391/562/411 392/561/410 317/456/321
f 313/464/329 390/563/412 391/562/411 315/460/325
f 311/468/333 389/564/413 390/563/412 313/464/329
f 309/472/337 388/565/414 389/564/413 311/468/333
f 307/478/340 387/566/415 388/567/414 309/479/337
f 305/484/343 386/568/416 387/566/415 307/478/340
f 303/488/346 385/569/417 386/568/416 305/484/343
f 301/492/350 384/570/418 385/569/417 303/488/346
f 299/496/354 383/571/419 384/570/418 301/492/350
f 297/500/358 382/572/420 383/571/419 299/496/354
f 295/504/362 381/573/421 382/572/420 297/500/358
f 293/510/366 380/574/422 381/575/421 295/511/362
f 291/516/370 379/576/423 380/574/422 293/510/366
f 289/520/374 378/577/424 379/576/423 291/516/370
f 287/524/378 377/578/425 378/577/424 289/520/374
f 285/528/382 376/579/426 377/578/425 287/524/378
f 283/532/386 375/580/427 376/579/426 285/528/382
f 281/536/390 374/581/428 375/580/427 283/532/386
f 279/540/394 373/582/429 374/581/428 281/536/390
f 277/544/398 372/583/430 373/582/429 279/540/394
f 276/548/280 371/584/400 372/583/430 277/544/398
f 402/585/399 466/586/431 403/587/432 371/588/400
f 498/589/433 465/590/269 404/591/205 467/592/434
f 401/593/401 464/594/435 466/586/431 402/585/399
f 497/595/436 463/596/266 465/590/269 498/589/433
f 400/597/402 462/598/437 464/594/435 401/593/401
f 496/599/438 461/600/264 463/596/266 497/595/436
f 399/601/403 460/602/439 462/598/437 400/597/402
f 495/603/440 459/604/262 461/600/264 496/599/438
f 398/605/404 458/606/441 460/602/439 399/601/403
f 494/607/442 457/608/260 459/604/262 495/603/440
f 397/609/405 456/610/443 458/606/441 398/605/404
f 493/611/444 455/612/258 457/608/260 494/607/442
f 396/613/406 454/614/445 456/610/443 397/609/405
f 492/615/446 453/616/256 455/612/258 493/611/444
f 395/617/407 452/618/447 454/614/445 396/613/406
f 491/619/448 451/620/254 453/616/256 492/615/446
f 394/621/408 450/622/449 452/618/447 395/617/407
f 490/623/450 449/624/252 451/620/254 491/619/448
f 393/625/409 448/626/451 450/622/449 394/621/408
f 489/627/452 447/628/250 449/624/252 490/623/450
f 392/629/410 446/630/453 448/626/451 393/625/409
f 488/631/454 445/632/248 447/628/250 489/627/452
f 391/633/411 444/634/455 446/630/453 392/629/410
f 487/635/456 443/636/246 445/632/248 488/631/454
f 390/637/412 442/638/457 444/634/455 391/633/411
f 486/639/458 441/640/244 443/636/246 487/635/456
f 389/641/413 440/642/459 442/638/457 390/637/412
f 485/643/460 439/644/242 441/640/244 486/639/458
f 388/645/414 438/646/461 440/642/459 389/641/413
f 484/647/462 437/648/240 439/644/242 485/643/460
f 387/649/415 436/650/463 438/646/461 388/645/414
f 483/651/464 435/652/238 437/648/240 484/647/462
f 386/653/416 434/654/465 436/650/463 387/649/415
f 482/655/466 433/656/236 435/652/238 483/651/464
f 385/657/417 432/658/467 434/654/465 386/653/416
f 481/659/468 431/660/234 433/656/236 482/655/466
f 384/661/418 430/662/469 432/658/467 385/657/417
f 480/663/470 429/664/232 431/660/234 481/659/468
f 383/665/419 428/666/471 430/662/469 384/661/418
f 479/667/472 427/668/230 429/664/232 480/663/470
f 382/669/420 426/670/473 428/666/471 383/665/419
f 478/671/474 425/672/228 427/668/230 479/667/472
f 381/673/421 424/674/475 426/670/473 382/669/420
f 477/675/476 423/676/226 425/672/228 478/671/474
f 380/677/422 422/678/477 424/674/475 381/673/421
f 476/679/478 421/680/224 423/676/226 477/675/476
f 379/681/423 420/682/479 422/678/477 380/677/422
f 475/683/480 419/684/222 421/680/224 476/679/478
f 378/685/424 418/686/481 420/682/479 379/681/423
f 474/687/482 417/688/220 419/684/222 475/683/480
f 377/689/425 416/690/483 418/686/481 378/685/424
f 473/691/484 415/692/218 417/688/220 474/687/482
f 376/693/426 414/694/485 416/690/483 377/689/425
f 472/695/486 413/696/216 415/692/218 473/691/484
f 375/697/427 412/698/487 414/694/485 376/693/426
f 471/699/488 411/700/214 413/696/216 472/695/486
f 374/701/428 410/702/489 412/698/487 375/697/427
f 470/703/490 409/704/212 411/700/214 471/699/488
f 373/705/429 408/706/491 410/702/489 374/701/428
f 469/707/492 407/708/210 409/704/212 470/703/490
f 372/709/430 406/710/493 408/706/491 373/705/429
f 468/711/494 405/712/208 407/708/210 469/707/492
f 371/588/400 403/587/432 406/710/493 372/709/430
f 467/592/434 404/591/205 405/712/208 468/711/494
f 403/713/432 467/714/434 468/715/494 406/716/493
f 406/716/493 468/715/494 469/717/492 408/718/491
f 408/718/491 469/717/492 470/719/490 410/720/489
f 410/720/489 470/719/490 471/721/488 412/722/487
f 412/722/487 471/721/488 472/723/486 414/724/485
f 414/724/485 472/723/486 473/725/484 416/726/483
f 416/726/483 473/725/484 474/727/482 418/728/481
f 418/728/481 474/727/482 475/729/480 420/730/479
f 420/730/479 475/729/480 476/731/478 422/732/477
f 422/732/477 476/731/478 477/733/476 424/734/475
f 424/735/475 477/736/476 478/737/474 426/738/473
f 426/738/473 478/737/474 479/739/472 428/740/471
f 428/740/471 479/739/472 480/741/470 430/742/469
f 430/742/469 480/741/470 481/743/468 432/744/467
f 432/744/467 481/743/468 482/745/466 434/746/465
f 434/746/465 482/745/466 483/747/464 436/748/463
f 436/748/463 483/747/464 484/749/462 438/750/461
f 438/751/461 484/752/462 485/753/460 440/754/459
f 440/754/459 485/753/460 486/755/458 442/756/457
f 442/756/457 486/755/458 487/757/456 444/758/455
f 444/758/455 487/757/456 488/759/454 446/760/453
f 446/760/453 488/759/454 489/761/452 448/762/451
f 448/762/451 489/761/452 490/763/450 450/764/449
f 450/764/449 490/763/450 491/765/448 452/766/447
f 452/767/447 491/768/448 492/769/446 454/770/445
f 454/770/445 492/769/446 493/771/444 456/772/443
f 456/772/443 493/771/444 494/773/442 458/774/441
f 458/774/441 494/773/442 495/775/440 460/776/439
f 460/776/439 495/775/440 496/777/438 462/778/437
f 462/778/437 496/777/438 497/779/436 464/780/435
f 464/780/435 497/779/436 498/781/433 466/782/431
f 466/782/431 498/781/433 467/783/434 403/784/432
f 240/785/233 500/393/267 244/396/237 242/786/235
f 212/787/206 274/788/268 272/789/265 499/790/267
f 214/791/207 212/787/206 499/790/267 216/792/209
f 511/793/267 250/794/243 248/394/241 500/393/267
f 238/795/231 511/793/267 500/393/267 240/785/233
f 499/790/267 272/789/265 270/796/263 501/797/267
f 216/792/209 499/790/267 501/797/267 218/798/211
f 501/797/267 270/796/263 268/799/261 502/800/267
f 218/798/211 501/797/267 502/800/267 220/801/213
f 502/800/267 268/799/261 266/802/259 503/803/267
f 220/801/213 502/800/267 503/803/267 222/804/215
f 503/803/267 266/802/259 264/805/257 504/806/267
f 222/804/215 503/803/267 504/806/267 224/807/217
f 504/806/267 264/805/257 262/808/255 505/809/267
f 224/807/217 504/806/267 505/809/267 226/810/219
f 505/809/267 262/808/255 260/811/253 506/812/267
f 226/810/219 505/809/267 506/812/267 228/813/221
f 506/812/267 260/811/253 258/814/251 507/815/267
f 228/813/221 506/812/267 507/815/267 230/816/223
f 507/815/267 258/814/251 256/817/249 508/818/267
f 230/816/223 507/815/267 508/818/267 232/819/225
f 508/818/267 256/817/249 254/820/247 509/821/267
f 232/819/225 508/818/267 509/821/267 234/822/227
f 509/821/267 254/820/247 252/823/245 510/824/267
f 234/822/227 509/821/267 510/824/267 236/825/229
f 510/824/267 252/823/245 250/794/243 511/793/267
f 236/825/229 510/824/267 511/793/267 238/795/231
f 247/826/330 513/401/270 243/404/273 245/827/334
f 261/828/302 519/829/270 512/830/270 259/831/306
f 519/829/270 225/832/371 227/833/367 512/830/270
f 249/834/326 514/835/270 513/401/270 247/826/330
f 514/835/270 237/836/347 239/402/271 513/401/270
f 251/837/322 515/838/270 514/835/270 249/834/326
f 515/838/270 235/839/351 237/836/347 514/835/270
f 253/840/318 516/841/270 515/838/270 251/837/322
f 516/841/270 233/842/355 235/839/351 515/838/270
f 255/843/314 517/844/270 516/841/270 253/840/318
f 517/844/270 231/845/359 233/842/355 516/841/270
f 257/846/310 518/847/270 517/844/270 255/843/314
f 518/847/270 229/848/363 231/845/359 517/844/270
f 259/831/306 512/830/270 518/847/270 257/846/310
f 512/830/270 227/833/367 229/848/363 518/847/270
f 263/849/298 520/850/270 519/829/270 261/828/302
f 520/850/270 223/851/375 225/832/371 519/829/270
f 265/852/294 521/853/270 520/850/270 263/849/298
f 521/853/270 221/854/379 223/851/375 520/850/270
f 267/855/290 522/856/270 521/853/270 265/852/294
f 522/856/270 219/857/383 221/854/379 521/853/270
f 269/858/286 523/859/270 522/856/270 267/855/290
f 523/859/270 217/860/387 219/857/383 522/856/270
f 271/861/282 524/862/270 523/859/270 269/858/286
f 524/862/270 215/863/391 217/860/387 523/859/270
f 273/864/274 211/865/277 524/862/270 271/861/282
f 211/865/277 213/866/395 215/863/391 524/862/270
