# Blender 3.4.1
# www.blender.org
mtllib 6x6_wall_bricks_low.mtl
o 6x6_wall_bricks
v 6.000000 6.000000 -1.950000
v 6.000000 6.000000 0.000000
v 5.383002 4.483942 0.000000
v 4.463273 4.515296 0.000000
v 6.000000 0.000001 0.000000
v 6.000000 0.000001 -1.950000
v 4.546885 4.781809 0.000000
v 5.153070 4.760906 0.000000
v -0.000000 0.000000 -0.000000
v 3.627153 4.990839 0.000000
v 3.585348 4.755681 0.000000
v 4.160179 4.776583 0.000000
v 4.196760 4.996065 0.000000
v 1.296471 3.595564 0.000000
v 1.218086 3.391761 0.000000
v 2.059431 3.412663 0.000000
v 2.054204 3.606016 0.000000
v 1.233763 3.208859 0.000000
v 0.716414 3.167053 0.000000
v 0.622350 2.952798 0.000000
v 1.380084 2.994605 0.000000
v 1.604791 2.775123 0.000000
v 1.583888 2.607899 0.000000
v 2.210978 2.607899 0.000000
v 2.148268 2.796026 0.000000
v 3.580122 1.604557 0.000000
v 3.553993 1.453011 0.000000
v 4.311727 1.442560 0.000000
v 4.238566 1.620235 0.000000
v 6.000000 3.000000 0.000000
v 6.000000 3.000000 -1.950000
v -0.000000 3.000000 0.000000
v 4.403940 6.000000 0.000000
v 4.403940 0.000001 -1.950000
v 4.403940 6.000000 -1.950000
v 4.403940 0.000000 0.000000
v 4.403940 3.000000 -1.950000
v 3.520541 6.000000 0.000000
v 3.520541 0.000001 -1.950000
v 3.520541 0.000000 0.000000
v 3.520541 3.000000 -1.950000
v 3.520541 6.000000 -1.950000
v 2.597535 6.000000 0.000000
v -0.000000 0.000000 -1.950001
v -0.000000 3.000000 -1.950000
v -0.000001 6.000000 -1.950000
v 2.033351 3.449556 0.031254
v 2.027463 3.565355 0.032930
v 1.319191 3.545647 0.034461
v 1.281329 3.418174 0.032297
v 1.212375 3.182227 0.031741
v 0.738631 3.121009 0.034158
v 0.673706 2.988395 0.032336
v 1.307846 3.014065 0.034342
v 1.646324 2.751006 0.030634
v 1.638608 2.633107 0.032139
v 2.160617 2.633107 0.033563
v 2.132560 2.759892 0.032165
v 4.504726 4.561535 0.030673
v 5.311281 4.519119 0.032336
v 5.147259 4.738725 0.030489
v 4.562984 4.763267 0.030989
v 4.139847 4.808304 0.031861
v 4.157988 4.975503 0.030818
v 3.659811 4.935861 0.034752
v 3.619598 4.792346 0.032349
v 3.600091 1.592507 0.030382
v 3.602875 1.475186 0.032917
v 4.257625 1.468449 0.033563
v 4.224401 1.589497 0.031558
v -0.000000 1.500000 0.000000
v 0.896381 1.550089 0.000000
v 6.000000 1.000000 0.000000
v 6.000000 1.000001 -1.950000
v 0.298794 0.516696 0.000000
v 4.403940 1.000001 -1.950000
v 4.373202 0.480853 0.000000
v 3.520541 1.000000 -1.950000
v 3.531692 0.484337 0.000000
v -0.000000 1.000000 -1.950001
v 0.721937 5.158648 0.000000
v 2.605313 1.492680 0.000000
v 2.628708 0.497560 0.000000
v 2.640406 0.000000 0.000000
v 2.640405 6.000000 -1.950000
v 2.640406 0.000001 -1.950000
v 2.640406 3.000000 -1.950000
v 2.640406 1.000000 -1.950000
v -0.000001 5.192205 0.000000
v -0.000001 6.000000 0.000000
v 6.000000 5.192205 0.000000
v 6.000000 5.192205 -1.950000
v 4.403940 5.192205 -1.950000
v 3.520541 5.192205 -1.950000
v -0.000001 5.192205 -1.950000
v 2.640405 5.192205 -1.950000
vn -1.0000 -0.0000 -0.0000
vn 1.0000 -0.0000 -0.0000
vn -0.0000 -0.0000 1.0000
vn -0.0000 -0.0000 -1.0000
vn 0.0023 -0.0161 0.9999
vn 0.0002 0.0026 1.0000
vn -0.0030 0.0116 0.9999
vn -0.0007 0.0035 1.0000
vn 0.0046 -0.0052 1.0000
vn -0.0013 0.0189 0.9998
vn -0.0000 -1.0000 -0.0000
vn -0.0000 1.0000 -0.0000
vn 0.7712 0.0243 0.6361
vn -0.0114 0.5972 0.8020
vn -0.5680 0.1941 0.7998
vn 0.0239 -0.7152 0.6985
vn -0.0678 0.6697 0.7395
vn -0.6212 0.2809 0.7315
vn 0.0362 -0.7650 0.6430
vn 0.5254 0.3375 0.7810
vn -0.5458 0.0592 0.8358
vn -0.0008 -0.7933 0.6088
vn 0.6747 0.1976 0.7111
vn -0.0218 0.7169 0.6968
vn -0.0272 -0.6181 0.7856
vn 0.5999 0.4783 0.6414
vn 0.0321 0.8357 0.5482
vn -0.7608 0.2301 0.6068
vn 0.7151 -0.0993 0.6920
vn -0.0248 0.6565 0.7540
vn -0.6811 0.1430 0.7181
vn 0.0234 -0.6868 0.7264
vn -0.6806 0.0660 0.7297
vn -0.0101 -0.8107 0.5853
vn 0.6610 0.2402 0.7109
vn -0.0086 0.8224 0.5689
vt 0.903330 0.127989
vt 0.968197 0.253976
vt 0.903330 0.158069
vt 0.938116 0.253976
vt 0.901675 0.897483
vt 0.152098 0.902159
vt 0.153529 0.905310
vt 0.809871 0.671832
vt 0.673518 0.676432
vt 0.016411 0.902159
vt 0.014469 0.903937
vt 0.938116 0.161420
vt 0.903330 0.005351
vt 0.900153 0.007968
vt 0.968197 0.161420
vt 0.903330 0.035432
vt 0.027221 0.945858
vt 0.024830 0.943796
vt 0.685790 0.715887
vt 0.118612 0.945282
vt 0.116652 0.945922
vt 0.775820 0.712873
vt 0.935138 0.162147
vt 0.995886 0.005351
vt 0.009913 0.007968
vt 0.036742 0.988325
vt 0.035125 0.987358
vt 0.549138 0.746357
vt 0.027570 0.952962
vt 0.029879 0.950499
vt 0.542883 0.711532
vt 0.628377 0.714877
vt 0.117001 0.953251
vt 0.114682 0.951638
vt 0.633738 0.747500
vt 0.122411 0.985609
vt 0.120730 0.988325
vt 0.325990 0.530635
vt 0.325795 0.530375
vt 0.203958 0.540612
vt 0.327074 0.530023
vt 0.327384 0.529918
vt 0.192409 0.511007
vt 0.316060 0.518428
vt 0.314530 0.521392
vt 0.314034 0.537439
vt 0.315763 0.540529
vt 0.194311 0.484250
vt 0.255133 0.938466
vt 0.256950 0.937079
vt 0.178673 0.935223
vt 0.177092 0.934479
vt 0.117961 0.477965
vt 0.161660 0.903622
vt 0.163396 0.900818
vt 0.103959 0.446469
vt 0.215647 0.452937
vt 0.275289 0.900818
vt 0.276655 0.904291
vt 0.124704 0.975475
vt 0.126054 0.977457
vt 0.249306 0.420396
vt 0.121746 0.950804
vt 0.123082 0.948376
vt 0.246310 0.395449
vt 0.215542 0.948376
vt 0.217184 0.951216
vt 0.339793 0.395463
vt 0.330670 0.423962
vt 0.208564 0.979154
vt 0.206191 0.980404
vt 0.542166 0.246146
vt 0.227388 0.967923
vt 0.229733 0.970946
vt 0.224792 0.945398
vt 0.226236 0.942974
vt 0.538315 0.223643
vt 0.650563 0.221876
vt 0.337969 0.942974
vt 0.339533 0.945889
vt 0.639726 0.248198
vt 0.329113 0.972234
vt 0.326811 0.973463
vt 0.938116 0.207698
vt 0.900891 0.451925
vt 0.968197 0.207698
vt 0.903330 0.081710
vt 0.935138 0.208425
vt 0.012053 0.453642
vt 0.927951 0.158069
vt 0.664073 0.896796
vt 0.927951 0.035432
vt 0.927951 0.127989
vt 0.927951 0.005351
vt 0.664001 0.008291
vt 0.927951 0.081710
vt 0.533019 0.896089
vt 0.941578 0.158069
vt 0.941578 0.035432
vt 0.533288 0.008296
vt 0.941578 0.005351
vt 0.941578 0.081710
vt 0.941578 0.127989
vt 0.396533 0.895781
vt 0.955817 0.158069
vt 0.905058 0.162147
vt 0.995886 0.035432
vt 0.905058 0.208425
vt 0.995886 0.081710
vt 0.995886 0.127989
vt 0.905058 0.254703
vt 0.314412 0.526077
vt 0.314144 0.533033
vt 0.325467 0.530143
vt 0.326104 0.530440
vt 0.251929 0.932383
vt 0.181727 0.926688
vt 0.171237 0.907609
vt 0.264812 0.906945
vt 0.132249 0.971786
vt 0.131150 0.954398
vt 0.208117 0.954565
vt 0.203939 0.973251
vt 0.022277 0.910519
vt 0.141352 0.908941
vt 0.115914 0.940346
vt 0.029691 0.940577
vt 0.111767 0.958303
vt 0.114986 0.982891
vt 0.041420 0.978667
vt 0.035027 0.957639
vt 0.232759 0.966177
vt 0.233397 0.948882
vt 0.329940 0.949157
vt 0.324808 0.966941
vt 0.010896 0.231507
vt 0.935138 0.185286
vt 0.144002 0.238525
vt 0.900360 0.155944
vt 0.938116 0.176846
vt 0.968197 0.176846
vt 0.903330 0.050858
vt 0.054736 0.084993
vt 0.927951 0.050858
vt 0.659503 0.079463
vt 0.941578 0.050858
vt 0.534919 0.080049
vt 0.905058 0.177573
vt 0.995886 0.050858
vt 0.119121 0.771427
vt 0.397738 0.229731
vt 0.401080 0.081982
vt 0.402849 0.008102
vt 0.955155 0.005351
vt 0.955155 0.127989
vt 0.955155 0.035432
vt 0.955155 0.081710
vt 0.955155 0.050858
vt 0.935138 0.242242
vt 0.012631 0.776561
vt 0.995886 0.158069
vt 0.935138 0.254703
vt 0.012568 0.895817
vt 0.938116 0.241515
vt 0.901646 0.776978
vt 0.903330 0.115527
vt 0.968197 0.241515
vt 0.927951 0.115527
vt 0.941578 0.115527
vt 0.905058 0.242242
vt 0.995886 0.115527
vt 0.955155 0.115527
s 0
usemtl Material
f 80/148/1 44/106/1 9/23/1 71/137/1
f 91/164/2 30/84/2 31/86/2 92/167/2
f 7/19/3 13/35/3 12/32/3 4/9/3
f 30/85/3 3/8/3 29/81/3 28/78/3
f 46/110/4 85/155/4 96/172/4 95/171/4
f 76/144/4 74/142/4 6/16/4 34/92/4
f 94/169/4 93/168/4 37/96/4 41/102/4
f 73/140/2 5/12/2 6/15/2 74/141/2
f 25/69/3 11/31/3 17/47/3 16/44/3
f 47/112/5 48/113/5 49/114/5 50/115/5
f 15/43/3 19/53/3 18/48/3 16/44/3
f 51/116/6 52/117/6 53/118/6 54/119/6
f 55/120/7 56/121/7 57/122/7 58/123/7
f 26/72/3 4/9/3 12/32/3 24/68/3
f 25/69/3 16/44/3 18/48/3 21/57/3
f 26/72/3 29/81/3 3/8/3 4/9/3
f 59/124/8 60/125/8 61/126/8 62/127/8
f 63/128/9 64/129/9 65/130/9 66/131/9
f 67/132/10 68/133/10 69/134/10 70/135/10
f 93/168/4 92/166/4 31/87/4 37/96/4
f 95/170/1 45/108/1 32/88/1 89/159/1
f 85/155/4 42/103/4 94/169/4 96/172/4
f 5/13/11 36/94/11 34/92/11 6/16/11
f 21/57/3 20/56/3 22/62/3 25/69/3
f 27/77/3 26/72/3 24/68/3 82/151/3
f 2/3/12 1/1/12 35/93/12 33/90/12
f 78/146/4 76/144/4 34/92/4 39/99/4
f 73/139/3 30/85/3 28/78/3 77/145/3
f 38/97/3 13/35/3 7/19/3 33/91/3
f 88/158/4 78/146/4 39/99/4 86/156/4
f 96/172/4 94/169/4 41/102/4 87/157/4
f 36/94/11 40/101/11 39/99/11 34/92/11
f 33/90/12 35/93/12 42/103/12 38/98/12
f 43/104/3 10/28/3 13/35/3 38/97/3
f 77/145/3 28/78/3 27/77/3 79/147/3
f 84/154/11 9/24/11 44/107/11 86/156/11
f 45/109/4 87/157/4 88/158/4 80/149/4
f 43/105/12 85/155/12 46/110/12 90/161/12
f 46/111/1 95/170/1 89/159/1 90/162/1
f 24/68/3 12/32/3 11/31/3 25/69/3
f 16/44/13 17/47/13 48/113/13 47/112/13
f 17/46/14 14/38/14 49/114/14 48/113/14
f 14/39/15 15/41/15 50/115/15 49/114/15
f 15/42/16 16/45/16 47/112/16 50/115/16
f 18/49/17 19/51/17 52/117/17 51/116/17
f 19/52/18 20/54/18 53/118/18 52/117/18
f 20/55/19 21/58/19 54/119/19 53/118/19
f 21/59/20 18/50/20 51/116/20 54/119/20
f 22/60/21 23/63/21 56/121/21 55/120/21
f 23/64/22 24/66/22 57/122/22 56/121/22
f 24/67/23 25/70/23 58/123/23 57/122/23
f 25/71/24 22/61/24 55/120/24 58/123/24
f 4/10/25 3/6/25 60/125/25 59/124/25
f 3/7/26 8/20/26 61/126/26 60/125/26
f 8/21/27 7/17/27 62/127/27 61/126/27
f 7/18/28 4/11/28 59/124/28 62/127/28
f 12/33/29 13/36/29 64/129/29 63/128/29
f 13/37/30 10/26/30 65/130/30 64/129/30
f 10/27/31 11/29/31 66/131/31 65/130/31
f 11/30/32 12/34/32 63/128/32 66/131/32
f 26/73/33 27/75/33 68/133/33 67/132/33
f 27/76/34 28/79/34 69/134/34 68/133/34
f 28/80/35 29/82/35 70/135/35 69/134/35
f 29/83/36 26/74/36 67/132/36 70/135/36
f 79/147/3 27/77/3 82/151/3 83/152/3
f 72/138/3 71/136/3 9/25/3 75/143/3
f 72/138/3 20/56/3 32/89/3 71/136/3
f 23/65/3 22/62/3 20/56/3 72/138/3
f 40/100/3 79/147/3 83/152/3 84/153/3
f 36/95/3 77/145/3 79/147/3 40/100/3
f 87/157/4 41/102/4 78/146/4 88/158/4
f 5/14/3 73/139/3 77/145/3 36/95/3
f 41/102/4 37/96/4 76/144/4 78/146/4
f 89/160/3 14/40/3 17/47/3 81/150/3
f 30/84/2 73/140/2 74/141/2 31/86/2
f 37/96/4 31/87/4 74/142/4 76/144/4
f 81/150/3 10/28/3 43/104/3 90/163/3
f 45/108/1 80/148/1 71/137/1 32/88/1
f 83/152/3 82/151/3 72/138/3 75/143/3
f 84/153/3 83/152/3 75/143/3 9/25/3
f 82/151/3 24/68/3 23/65/3 72/138/3
f 95/171/4 96/172/4 87/157/4 45/109/4
f 80/149/4 88/158/4 86/156/4 44/107/4
f 40/101/11 84/154/11 86/156/11 39/99/11
f 38/98/12 42/103/12 85/155/12 43/105/12
f 17/47/3 11/31/3 10/28/3 81/150/3
f 3/8/3 30/85/3 91/165/3
f 35/93/4 1/1/4 92/166/4 93/168/4
f 42/103/4 35/93/4 93/168/4 94/169/4
f 2/4/2 91/164/2 92/167/2 1/2/2
f 8/22/3 3/8/3 91/165/3 2/5/3
f 7/19/3 8/22/3 2/5/3 33/91/3
f 89/160/3 81/150/3 90/163/3
f 32/89/3 20/56/3 19/53/3 89/160/3
f 89/160/3 19/53/3 15/43/3 14/40/3
