# Blender 3.4.1
# www.blender.org
mtllib 3x4_stairs_top_parapet_end.mtl
o 3x4_stairs_top_parapet
v 0.000000 -0.000000 -0.000000
v 3.000000 3.000000 -0.000000
v 2.543088 2.546807 -0.000000
v 2.179790 2.183509 -0.000000
v 1.816491 1.820210 -0.000000
v 1.089895 1.093614 -0.000000
v 0.726597 0.730315 -0.000000
v 0.000000 0.003719 -0.000000
v 3.000000 2.546807 -0.000000
v 3.000000 2.183509 -0.000000
v 3.000000 1.820210 -0.000000
v 3.000000 1.093614 -0.000000
v 3.000000 0.730315 -0.000000
v 3.000000 -0.000000 -0.000000
v 0.000000 0.863298 -0.000000
v 3.000000 3.500000 -0.000000
v 2.543088 3.500000 -0.000000
v 2.179790 3.046807 -0.000000
v 1.089895 1.956912 -0.000000
v 0.726597 1.593614 -0.000000
v 0.000000 0.867017 -0.000000
v 3.000000 3.900000 -0.000000
v 0.000000 1.267017 -0.000000
v 2.543088 3.900001 -0.000000
v 2.179790 3.446807 -0.000000
v 1.089895 2.356912 -0.000000
v 1.816491 2.683509 -0.000000
v 1.611632 2.878649 -0.000000
v 0.521737 1.788754 -0.000000
v 0.000000 0.000000 -1.000000
v 3.000000 3.000000 -1.000000
v 2.543088 2.546807 -1.000000
v 2.179790 2.183509 -1.000000
v 1.816491 1.820210 -1.000000
v 1.089895 1.093614 -1.000000
v 0.726597 0.730315 -1.000000
v 0.000000 0.003719 -1.000000
v 3.000000 2.546807 -1.000000
v 3.000000 2.183509 -1.000000
v 3.000000 1.820210 -1.000000
v 3.000000 1.093614 -1.000000
v 3.000000 0.730315 -1.000000
v 3.000000 -0.000000 -1.000000
v 0.000000 0.863298 -1.000000
v 3.000000 3.500000 -1.000000
v 2.543088 3.500000 -1.000000
v 2.179790 3.046807 -1.000000
v 1.089895 1.956912 -1.000000
v 0.726597 1.593614 -1.000000
v 0.000000 0.867017 -1.000000
v 0.000000 1.267017 -1.000000
v 2.543088 3.900001 -1.000000
v 2.179790 3.446807 -1.000000
v 1.089895 2.356912 -1.000000
v 1.816491 2.683509 -1.000000
v 1.611632 2.878649 -1.000000
v 0.521737 1.788754 -1.000000
v 4.000000 3.500000 -0.000000
v 4.000000 3.000000 -0.000000
v 4.000000 3.500000 -1.000000
v 4.000000 3.000000 -1.000000
v 3.100000 5.000000 -0.900000
v 3.100000 5.000000 -0.100000
v 3.900000 5.000000 -0.900000
v 3.900000 5.000000 -0.100000
v 4.000000 3.900000 -0.000000
v 4.000000 3.900000 -1.000000
v 3.000000 3.900001 -1.000000
v 4.000000 4.335000 -0.000000
v 4.000000 4.685000 -0.000000
v 4.000000 4.335000 -1.000000
v 4.000000 4.685000 -1.000000
v 3.000000 4.685000 -0.000000
v 3.000000 4.335000 -0.000000
v 3.000000 4.685000 -1.000000
v 3.000000 4.335000 -1.000000
v 4.000000 4.889750 -0.000000
v 4.000000 4.889750 -1.000000
v 3.000000 4.889750 -0.000000
v 3.000000 4.889750 -1.000000
v 3.900000 4.370000 -0.100000
v 3.900000 4.650000 -0.100000
v 3.900000 4.370000 -0.900000
v 3.900000 4.650000 -0.900000
v 3.100000 4.650000 -0.100000
v 3.100000 4.370000 -0.100000
v 3.100000 4.650000 -0.900000
v 3.100000 4.370000 -0.900000
vn -1.0000 -0.0000 -0.0000
vn -0.0000 -0.0000 1.0000
vn 1.0000 -0.0000 -0.0000
vn -0.0000 1.0000 -0.0000
vn -0.7802 0.6255 -0.0000
vn -0.7071 0.7071 -0.0000
vn 0.6897 0.7241 -0.0000
vn -0.0000 -1.0000 -0.0000
vn -0.0000 -0.0000 -1.0000
vn -0.0000 0.6718 0.7407
vn 0.7407 0.6718 -0.0000
vn -0.7407 0.6718 -0.0000
vn -0.0000 0.6718 -0.7407
vn 0.3303 0.9439 -0.0000
vn -0.0000 0.9439 0.3303
vn -0.0000 -0.9439 -0.3303
vn -0.3303 -0.9439 -0.0000
vn -0.3303 0.9439 -0.0000
vn -0.0000 0.9439 -0.3303
vn -0.0000 -0.9439 0.3303
vn 0.3303 -0.9439 -0.0000
vt 0.000000 0.000000
vt 0.375000 0.750000
vt 0.327729 0.294254
vt 0.000000 0.000000
vt 0.556882 0.500000
vt 0.000000 0.000000
vt 0.000000 0.000000
vt 0.000000 0.000000
vt 0.000000 0.000000
vt 0.000000 0.000000
vt 0.000000 0.000000
vt 0.534175 0.500000
vt 0.511469 0.500000
vt 0.488763 0.500000
vt 0.443351 0.500000
vt 0.420645 0.500000
vt 0.375000 0.500000
vt 0.000000 0.000000
vt 0.375000 0.750000
vt 0.000000 0.000000
vt 0.000000 0.000000
vt 0.625000 0.613763
vt 0.000000 0.000000
vt 0.443351 0.750000
vt 0.000000 0.000000
vt 0.000000 0.000000
vt 0.443351 0.750000
vt 0.000000 0.000000
vt 0.397939 0.750000
vt 0.278441 0.250000
vt 0.556882 0.500000
vt 0.000000 0.000000
vt 0.000000 0.000000
vt 0.397939 0.750000
vt 0.625000 0.591057
vt 0.000000 0.000000
vt 0.625000 0.613763
vt 0.000000 0.000000
vt 0.443351 0.750000
vt 0.000000 0.000000
vt 0.466057 0.750000
vt 0.000000 0.000000
vt 0.625000 0.750000
vt 0.000000 0.000000
vt 0.625000 0.750000
vt 0.488763 0.750000
vt 0.000000 0.000000
vt 0.420645 0.750000
vt 0.443351 0.750000
vt 0.375000 0.750000
vt 0.000000 0.000000
vt 0.327729 0.294254
vt 0.000000 0.000000
vt 0.556882 0.500000
vt 0.000000 0.000000
vt 0.000000 0.000000
vt 0.000000 0.000000
vt 0.000000 0.000000
vt 0.000000 0.000000
vt 0.000000 0.000000
vt 0.534175 0.500000
vt 0.511469 0.500000
vt 0.488763 0.500000
vt 0.443351 0.500000
vt 0.420645 0.500000
vt 0.375000 0.500000
vt 0.375000 0.750000
vt 0.000000 0.000000
vt 0.000000 0.000000
vt 0.000000 0.000000
vt 0.625000 0.613763
vt 0.000000 0.000000
vt 0.443351 0.750000
vt 0.000000 0.000000
vt 0.000000 0.000000
vt 0.443351 0.750000
vt 0.397939 0.750000
vt 0.000000 0.000000
vt 0.397939 0.750000
vt 0.000000 0.000000
vt 0.625000 0.591057
vt 0.000000 0.000000
vt 0.625000 0.613763
vt 0.000000 0.000000
vt 0.443351 0.750000
vt 0.466057 0.750000
vt 0.000000 0.000000
vt 0.625000 0.750000
vt 0.000000 0.000000
vt 0.625000 0.750000
vt 0.488763 0.750000
vt 0.000000 0.000000
vt 0.420645 0.750000
vt 0.000000 0.000000
vt 0.443351 0.750000
vt 0.556882 0.500000
vt 0.000000 0.000000
vt 0.000000 0.000000
vt 0.556882 0.500000
vt 0.000000 0.000000
vt 0.556882 0.500000
vt 0.000000 0.000000
vt 0.556882 0.500000
vt 0.556882 0.500000
vt 0.000000 0.000000
vt 0.000000 0.000000
vt 0.556882 0.500000
vt 0.556882 0.500000
vt 0.000000 0.000000
vt 0.000000 0.000000
vt 0.556882 0.500000
vt 0.556882 0.500000
vt 0.000000 0.000000
vt 0.000000 0.000000
vt 0.556882 0.500000
vt 0.625000 0.562500
vt 0.278441 0.250000
vt 0.000000 0.000000
vt 0.556882 0.500000
vt 0.556882 0.500000
vt 0.000000 0.000000
vt 0.000000 0.000000
vt 0.556882 0.500000
vt 0.556881 0.500000
vt 0.000000 0.000000
vt 0.000000 0.000000
vt 0.556881 0.500000
vt 0.556881 0.500000
vt 0.000000 0.000000
vt 0.000000 0.000000
vt 0.556881 0.500000
vt 0.000000 0.000000
vt 0.556882 0.500000
vt 0.556882 0.500000
vt 0.000000 0.000000
vt 0.556882 0.500000
vt 0.000000 0.000000
vt 0.000000 0.000000
vt 0.556882 0.500000
vt 0.556882 0.500000
vt 0.000000 0.000000
vt 0.000000 0.000000
vt 0.556882 0.500000
vt 0.556882 0.500000
vt 0.000000 0.000000
vt 0.000000 0.000000
vt 0.556882 0.500000
vt 0.556881 0.500000
vt 0.000000 0.000000
vt 0.000000 0.000000
vt 0.556881 0.500000
vt 0.556881 0.500000
vt 0.000000 0.000000
vt 0.000000 0.000000
vt 0.556881 0.500000
vt 0.000000 0.000000
vt 0.556882 0.500000
vt 0.556882 0.500000
vt 0.000000 0.000000
s 0
f 15/19/1 44/67/1 30/50/1 1/2/1
f 6/9/2 12/15/2 11/14/2 5/8/2
f 7/10/2 13/16/2 12/15/2 6/9/2
f 7/10/2 8/11/2 14/17/2 13/16/2
f 5/8/2 4/7/2 18/23/2 27/42/2
f 43/66/3 42/65/3 13/16/3 14/17/3
f 8/11/2 7/10/2 20/26/2 21/28/2
f 26/39/1 54/85/1 48/73/1 19/24/1
f 25/37/1 53/83/1 47/71/1 18/22/1
f 4/7/2 3/6/2 17/21/2 18/23/2
f 1/1/4 8/11/4 21/28/4 15/18/4
f 24/35/5 52/81/5 53/83/5 25/37/5
f 3/6/2 2/3/2 16/20/2 17/21/2
f 6/9/2 5/8/2 27/42/2 19/25/2
f 7/10/2 6/9/2 19/25/2 20/26/2
f 21/28/2 20/26/2 29/47/2 23/33/2
f 22/30/4 68/116/4 52/81/4 24/35/4
f 29/48/6 57/93/6 51/79/6 23/34/6
f 19/24/6 48/73/6 49/76/6 20/27/6
f 18/22/6 47/71/6 55/88/6 27/43/6
f 18/23/2 17/21/2 24/36/2 25/38/2
f 17/21/2 16/20/2 22/32/2 24/36/2
f 19/25/2 27/42/2 28/44/2 26/40/2
f 23/34/1 51/79/1 50/77/1 21/29/1
f 2/3/2 3/6/2 9/12/2
f 9/12/2 3/6/2 4/7/2 10/13/2
f 10/13/2 4/7/2 5/8/2 11/14/2
f 55/88/7 56/90/7 28/45/7 27/43/7
f 28/46/6 56/91/6 54/86/6 26/41/6
f 21/29/1 50/77/1 44/67/1 15/19/1
f 42/65/3 41/64/3 12/15/3 13/16/3
f 41/64/3 40/63/3 11/14/3 12/15/3
f 40/63/3 39/62/3 10/13/3 11/14/3
f 39/62/3 38/61/3 9/12/3 10/13/3
f 38/61/3 31/54/3 2/5/3 9/12/3
f 16/20/2 2/4/2 59/98/2 58/97/2
f 1/2/8 30/50/8 43/66/8 14/17/8
f 35/58/9 34/57/9 40/63/9 41/64/9
f 36/59/9 35/58/9 41/64/9 42/65/9
f 36/59/9 42/65/9 43/66/9 37/60/9
f 34/57/9 55/89/9 47/72/9 33/56/9
f 37/60/9 50/78/9 49/75/9 36/59/9
f 33/56/9 47/72/9 46/70/9 32/55/9
f 30/51/4 44/68/4 50/78/4 37/60/4
f 32/55/9 46/70/9 45/69/9 31/52/9
f 35/58/9 48/74/9 55/89/9 34/57/9
f 36/59/9 49/75/9 48/74/9 35/58/9
f 50/78/9 51/80/9 57/94/9 49/75/9
f 47/72/9 53/84/9 52/82/9 46/70/9
f 46/70/9 52/82/9 68/117/9 45/69/9
f 48/74/9 54/87/9 56/92/9 55/89/9
f 31/54/9 38/61/9 32/55/9
f 38/61/9 39/62/9 33/56/9 32/55/9
f 39/62/9 40/63/9 34/57/9 33/56/9
f 49/76/7 57/95/7 29/49/7 20/27/7
f 61/103/3 60/101/3 58/96/3 59/99/3
f 31/53/9 45/69/9 60/100/9 61/102/9
f 2/5/8 31/54/8 61/103/8 59/99/8
f 79/141/10 77/137/10 65/110/10 63/106/10
f 62/104/4 63/107/4 65/111/4 64/108/4
f 77/136/11 78/139/11 64/108/11 65/111/11
f 80/143/12 79/140/12 63/107/12 62/104/12
f 78/138/13 80/142/13 62/105/13 64/109/13
f 60/100/9 45/69/9 68/118/9 67/114/9
f 58/96/3 60/101/3 67/115/3 66/112/3
f 16/20/2 58/97/2 66/113/2 22/32/2
f 67/114/9 68/118/9 76/135/9 71/125/9
f 69/120/14 71/124/14 83/148/14 81/144/14
f 68/119/1 22/31/1 74/131/1 76/134/1
f 74/130/15 69/121/15 81/145/15 86/154/15
f 66/112/3 67/115/3 71/124/3 69/120/3
f 75/132/16 72/126/16 84/150/16 87/156/16
f 22/32/2 66/113/2 69/121/2 74/130/2
f 73/128/17 75/133/17 87/157/17 85/152/17
f 72/126/9 75/132/9 80/142/9 78/138/9
f 75/133/1 73/128/1 79/140/1 80/143/1
f 70/123/3 72/127/3 78/139/3 77/136/3
f 73/129/2 70/122/2 77/137/2 79/141/2
f 83/149/9 88/159/9 87/156/9 84/150/9
f 88/158/1 86/155/1 85/152/1 87/157/1
f 81/144/3 83/148/3 84/151/3 82/147/3
f 86/154/2 81/145/2 82/146/2 85/153/2
f 76/134/18 74/131/18 86/155/18 88/158/18
f 71/125/19 76/135/19 88/159/19 83/149/19
f 70/122/20 73/129/20 85/153/20 82/146/20
f 72/127/21 70/123/21 82/147/21 84/151/21
