# Blender 3.4.1
# www.blender.org
mtllib 4x4_stairs_base_parapet_flat.mtl
o 4x4_stairs_base_parapet
v 2.520000 2.500000 0.000000
v 2.160073 2.159559 0.000000
v 1.800147 1.799632 0.000000
v 1.080293 1.079780 0.000000
v 0.720367 0.719853 0.000000
v 0.000514 -0.000000 0.000000
v 2.520000 1.799632 -0.000000
v 2.520000 1.083151 -0.000000
v 2.520000 0.719853 -0.000000
v 2.520000 -0.000000 -0.000000
v 2.520000 3.367017 0.000000
v 2.160073 3.000000 0.000000
v 1.800147 2.659559 0.000000
v 1.080293 1.939706 0.000000
v 0.720367 1.579780 0.000000
v 0.000514 0.859927 0.000000
v 2.520000 3.767017 0.000000
v 2.160073 3.400000 0.000000
v 0.000514 1.259927 0.000000
v 1.080293 2.339706 0.000000
v 1.595287 2.854699 0.000000
v 0.515507 1.774920 0.000000
v 2.520000 2.500000 -1.000000
v 2.160073 2.159559 -1.000000
v 1.800147 1.799633 -1.000000
v 1.080293 1.079780 -1.000000
v 0.720367 0.719853 -1.000000
v 0.000514 0.000000 -1.000000
v 2.520000 1.799632 -1.000000
v 2.520000 1.083151 -1.000000
v 2.520000 0.719853 -1.000000
v 2.520000 -0.000000 -1.000000
v 2.520000 3.367017 -1.000000
v 2.160073 3.000000 -1.000000
v 1.800147 2.659559 -1.000000
v 1.080293 1.939706 -1.000000
v 0.720367 1.579780 -1.000000
v 0.000514 0.859927 -1.000000
v 2.520000 3.767017 -1.000000
v 2.160073 3.400000 -1.000000
v 0.000514 1.259927 -1.000000
v 1.080293 2.339706 -1.000000
v 1.595287 2.854699 -1.000000
v 0.515507 1.774920 -1.000000
vn -0.0000 -0.0000 1.0000
vn -1.0000 -0.0000 -0.0000
vn -0.7071 0.7071 -0.0000
vn -0.6872 0.7265 -0.0000
vn 1.0000 -0.0000 -0.0000
vn -0.7140 0.7002 -0.0000
vn 0.6897 0.7241 -0.0000
vn -0.0000 -0.0000 -1.0000
vn -0.0000 -1.0000 -0.0000
vt 0.000000 0.000000
vt 0.574385 0.570037
vt 0.000000 0.000000
vt 0.000000 0.000000
vt 0.000000 0.000000
vt 0.000000 0.000000
vt 0.000000 0.000000
vt 0.400046 0.750000
vt 0.514002 0.564136
vt 0.470490 0.558236
vt 0.448734 0.555286
vt 0.405223 0.549386
vt 0.000000 0.000000
vt 0.574385 0.570037
vt 0.625000 0.592532
vt 0.000000 0.000000
vt 0.000000 0.000000
vt 0.625000 0.615028
vt 0.000000 0.000000
vt 0.467532 0.750000
vt 0.000000 0.000000
vt 0.467532 0.750000
vt 0.422541 0.750000
vt 0.000000 0.000000
vt 0.625000 0.570037
vt 0.574385 0.570037
vt 0.000000 0.000000
vt 0.625000 0.592532
vt 0.000000 0.000000
vt 0.000000 0.000000
vt 0.422541 0.750000
vt 0.000000 0.000000
vt 0.490028 0.750000
vt 0.467532 0.750000
vt 0.000000 0.000000
vt 0.625000 0.691850
vt 0.000000 0.000000
vt 0.445037 0.750000
vt 0.467532 0.750000
vt 0.000000 0.000000
vt 0.574385 0.570037
vt 0.000000 0.000000
vt 0.000000 0.000000
vt 0.000000 0.000000
vt 0.000000 0.000000
vt 0.000000 0.000000
vt 0.400046 0.750000
vt 0.514002 0.564136
vt 0.470490 0.558236
vt 0.448734 0.555286
vt 0.405223 0.549386
vt 0.574385 0.570037
vt 0.000000 0.000000
vt 0.625000 0.592532
vt 0.000000 0.000000
vt 0.000000 0.000000
vt 0.625000 0.615028
vt 0.467532 0.750000
vt 0.000000 0.000000
vt 0.467532 0.750000
vt 0.000000 0.000000
vt 0.422541 0.750000
vt 0.000000 0.000000
vt 0.625000 0.570037
vt 0.574385 0.570037
vt 0.000000 0.000000
vt 0.625000 0.592532
vt 0.000000 0.000000
vt 0.422541 0.750000
vt 0.000000 0.000000
vt 0.490028 0.750000
vt 0.467532 0.750000
vt 0.000000 0.000000
vt 0.000000 0.000000
vt 0.625000 0.691850
vt 0.445037 0.750000
vt 0.467532 0.750000
vt 0.000000 0.000000
s 0
f 9/11/1 5/6/1 6/7/1 10/12/1
f 2/3/1 1/1/1 11/13/1 12/16/1
f 3/4/1 2/3/1 12/16/1 13/17/1
f 1/2/1 2/3/1 3/4/1 7/9/1
f 6/7/1 5/6/1 15/21/1 16/24/1
f 16/23/2 38/62/2 28/47/2 6/8/2
f 19/31/2 41/69/2 38/62/2 16/23/2
f 14/20/3 36/58/3 37/60/3 15/22/3
f 15/21/1 22/37/1 19/30/1 16/24/1
f 12/15/4 34/54/4 35/57/4 13/18/4
f 18/28/2 40/67/2 34/54/2 12/15/2
f 3/4/1 4/5/1 8/10/1 7/9/1
f 29/48/5 23/41/5 1/2/5 7/9/5
f 17/25/6 39/64/6 40/67/6 18/28/6
f 5/6/1 4/5/1 14/19/1 15/21/1
f 22/38/3 44/76/3 41/69/3 19/31/3
f 13/17/1 21/35/1 20/32/1 14/19/1
f 37/60/7 44/77/7 22/39/7 15/22/7
f 33/52/5 39/65/5 17/26/5 11/14/5
f 12/16/1 11/13/1 17/27/1 18/29/1
f 8/10/1 4/5/1 5/6/1 9/11/1
f 4/5/1 3/4/1 13/17/1 14/19/1
f 21/36/3 43/75/3 42/71/3 20/33/3
f 20/34/2 42/72/2 36/58/2 14/20/2
f 32/51/5 31/50/5 9/11/5 10/12/5
f 31/50/5 30/49/5 8/10/5 9/11/5
f 30/49/5 29/48/5 7/9/5 8/10/5
f 23/41/5 33/52/5 11/14/5 1/2/5
f 31/50/8 32/51/8 28/46/8 27/45/8
f 24/42/8 34/55/8 33/53/8 23/40/8
f 25/43/8 35/56/8 34/55/8 24/42/8
f 23/41/8 29/48/8 25/43/8 24/42/8
f 28/46/8 38/63/8 37/61/8 27/45/8
f 37/61/8 38/63/8 41/70/8 44/78/8
f 25/43/8 29/48/8 30/49/8 26/44/8
f 27/45/8 37/61/8 36/59/8 26/44/8
f 35/56/8 36/59/8 42/73/8 43/74/8
f 34/55/8 40/68/8 39/66/8 33/53/8
f 30/49/8 31/50/8 27/45/8 26/44/8
f 26/44/8 36/59/8 35/56/8 25/43/8
f 35/57/7 43/75/7 21/36/7 13/18/7
f 6/8/9 28/47/9 32/51/9 10/12/9
